{
    "track_id": "Columns (FM) - 05 - Atropos",
    "mood": "relaxed",
    "instruments": {
        "Acoustic Grand Piano": [
            {
                "start_time": 0.23863636363636362,
                "end_time": 0.6386363636363636,
                "pitch": 73,
                "velocity": 40,
                "duration": 0.3999999999999999,
                "tempo": 120.0
            },
            {
                "start_time": 0.23863636363636362,
                "end_time": 0.6386363636363636,
                "pitch": 73,
                "velocity": 40,
                "duration": 0.3999999999999999,
                "tempo": 120.0
            },
            {
                "start_time": 0.6386363636363636,
                "end_time": 1.0454545454545454,
                "pitch": 73,
                "velocity": 40,
                "duration": 0.40681818181818186,
                "tempo": 120.0
            },
            {
                "start_time": 1.0454545454545454,
                "end_time": 1.4522727272727272,
                "pitch": 73,
                "velocity": 40,
                "duration": 0.40681818181818175,
                "tempo": 120.0
            },
            {
                "start_time": 1.4522727272727272,
                "end_time": 1.6522727272727271,
                "pitch": 73,
                "velocity": 40,
                "duration": 0.19999999999999996,
                "tempo": 120.0
            },
            {
                "start_time": 1.6522727272727271,
                "end_time": 1.8568181818181817,
                "pitch": 73,
                "velocity": 40,
                "duration": 0.20454545454545459,
                "tempo": 120.0
            },
            {
                "start_time": 1.8568181818181817,
                "end_time": 2.256818181818182,
                "pitch": 76,
                "velocity": 40,
                "duration": 0.40000000000000013,
                "tempo": 120.0
            },
            {
                "start_time": 2.256818181818182,
                "end_time": 2.6545454545454543,
                "pitch": 69,
                "velocity": 40,
                "duration": 0.3977272727272725,
                "tempo": 120.0
            },
            {
                "start_time": 2.6545454545454543,
                "end_time": 2.8545454545454545,
                "pitch": 69,
                "velocity": 40,
                "duration": 0.20000000000000018,
                "tempo": 120.0
            },
            {
                "start_time": 2.8545454545454545,
                "end_time": 3.0545454545454542,
                "pitch": 69,
                "velocity": 40,
                "duration": 0.19999999999999973,
                "tempo": 120.0
            },
            {
                "start_time": 3.0545454545454542,
                "end_time": 3.4545454545454546,
                "pitch": 68,
                "velocity": 40,
                "duration": 0.40000000000000036,
                "tempo": 120.0
            },
            {
                "start_time": 3.4545454545454546,
                "end_time": 3.8568181818181815,
                "pitch": 66,
                "velocity": 40,
                "duration": 0.4022727272727269,
                "tempo": 120.0
            },
            {
                "start_time": 3.8568181818181815,
                "end_time": 4.256818181818182,
                "pitch": 71,
                "velocity": 40,
                "duration": 0.40000000000000036,
                "tempo": 120.0
            },
            {
                "start_time": 4.256818181818182,
                "end_time": 4.659090909090909,
                "pitch": 71,
                "velocity": 40,
                "duration": 0.40227272727272734,
                "tempo": 120.0
            },
            {
                "start_time": 4.659090909090909,
                "end_time": 4.8590909090909085,
                "pitch": 71,
                "velocity": 40,
                "duration": 0.1999999999999993,
                "tempo": 120.0
            },
            {
                "start_time": 4.8590909090909085,
                "end_time": 4.875,
                "pitch": 71,
                "velocity": 40,
                "duration": 0.01590909090909154,
                "tempo": 120.0
            },
            {
                "start_time": 4.875,
                "end_time": 5.059090909090909,
                "pitch": 69,
                "velocity": 40,
                "duration": 0.18409090909090864,
                "tempo": 120.0
            },
            {
                "start_time": 5.059090909090909,
                "end_time": 5.461363636363636,
                "pitch": 69,
                "velocity": 40,
                "duration": 0.40227272727272734,
                "tempo": 120.0
            },
            {
                "start_time": 5.461363636363636,
                "end_time": 5.663636363636363,
                "pitch": 68,
                "velocity": 40,
                "duration": 0.20227272727272716,
                "tempo": 120.0
            },
            {
                "start_time": 5.663636363636363,
                "end_time": 5.861363636363636,
                "pitch": 71,
                "velocity": 40,
                "duration": 0.1977272727272732,
                "tempo": 120.0
            },
            {
                "start_time": 1.8568181818181817,
                "end_time": 6.659090909090909,
                "pitch": 74,
                "velocity": 40,
                "duration": 4.802272727272728,
                "tempo": 120.0
            },
            {
                "start_time": 5.861363636363636,
                "end_time": 6.659090909090909,
                "pitch": 74,
                "velocity": 40,
                "duration": 0.7977272727272728,
                "tempo": 120.0
            },
            {
                "start_time": 6.659090909090909,
                "end_time": 7.059090909090909,
                "pitch": 74,
                "velocity": 40,
                "duration": 0.39999999999999947,
                "tempo": 120.0
            },
            {
                "start_time": 7.059090909090909,
                "end_time": 7.461363636363636,
                "pitch": 73,
                "velocity": 40,
                "duration": 0.40227272727272734,
                "tempo": 120.0
            },
            {
                "start_time": 7.461363636363636,
                "end_time": 7.868181818181818,
                "pitch": 73,
                "velocity": 40,
                "duration": 0.4068181818181822,
                "tempo": 120.0
            },
            {
                "start_time": 7.868181818181818,
                "end_time": 8.068181818181818,
                "pitch": 73,
                "velocity": 40,
                "duration": 0.20000000000000018,
                "tempo": 120.0
            },
            {
                "start_time": 8.068181818181818,
                "end_time": 8.268181818181818,
                "pitch": 73,
                "velocity": 40,
                "duration": 0.1999999999999993,
                "tempo": 120.0
            },
            {
                "start_time": 2.256818181818182,
                "end_time": 8.668181818181818,
                "pitch": 76,
                "velocity": 40,
                "duration": 6.411363636363636,
                "tempo": 120.0
            },
            {
                "start_time": 8.268181818181818,
                "end_time": 8.668181818181818,
                "pitch": 76,
                "velocity": 40,
                "duration": 0.40000000000000036,
                "tempo": 120.0
            },
            {
                "start_time": 8.668181818181818,
                "end_time": 9.072727272727272,
                "pitch": 69,
                "velocity": 40,
                "duration": 0.4045454545454543,
                "tempo": 120.0
            },
            {
                "start_time": 9.072727272727272,
                "end_time": 9.272727272727272,
                "pitch": 69,
                "velocity": 40,
                "duration": 0.1999999999999993,
                "tempo": 120.0
            },
            {
                "start_time": 9.272727272727272,
                "end_time": 9.475,
                "pitch": 69,
                "velocity": 40,
                "duration": 0.20227272727272805,
                "tempo": 120.0
            },
            {
                "start_time": 3.4545454545454546,
                "end_time": 9.877272727272727,
                "pitch": 57,
                "velocity": 40,
                "duration": 6.422727272727272,
                "tempo": 120.0
            },
            {
                "start_time": 5.663636363636363,
                "end_time": 9.877272727272727,
                "pitch": 68,
                "velocity": 40,
                "duration": 4.213636363636364,
                "tempo": 120.0
            },
            {
                "start_time": 9.475,
                "end_time": 9.877272727272727,
                "pitch": 68,
                "velocity": 40,
                "duration": 0.40227272727272734,
                "tempo": 120.0
            },
            {
                "start_time": 9.877272727272727,
                "end_time": 10.279545454545454,
                "pitch": 66,
                "velocity": 40,
                "duration": 0.40227272727272734,
                "tempo": 120.0
            },
            {
                "start_time": 3.8568181818181815,
                "end_time": 10.279545454545454,
                "pitch": 78,
                "velocity": 40,
                "duration": 6.422727272727273,
                "tempo": 120.0
            },
            {
                "start_time": 5.861363636363636,
                "end_time": 10.479545454545454,
                "pitch": 71,
                "velocity": 40,
                "duration": 4.618181818181817,
                "tempo": 120.0
            },
            {
                "start_time": 10.279545454545454,
                "end_time": 10.479545454545454,
                "pitch": 71,
                "velocity": 40,
                "duration": 0.1999999999999993,
                "tempo": 120.0
            },
            {
                "start_time": 10.479545454545454,
                "end_time": 10.493181818181817,
                "pitch": 71,
                "velocity": 40,
                "duration": 0.013636363636363669,
                "tempo": 120.0
            },
            {
                "start_time": 10.493181818181817,
                "end_time": 10.679545454545455,
                "pitch": 69,
                "velocity": 40,
                "duration": 0.1863636363636374,
                "tempo": 120.0
            },
            {
                "start_time": 10.679545454545455,
                "end_time": 11.081818181818182,
                "pitch": 69,
                "velocity": 40,
                "duration": 0.40227272727272734,
                "tempo": 120.0
            },
            {
                "start_time": 11.081818181818182,
                "end_time": 11.48409090909091,
                "pitch": 64,
                "velocity": 40,
                "duration": 0.40227272727272734,
                "tempo": 120.0
            },
            {
                "start_time": 8.668181818181818,
                "end_time": 11.48409090909091,
                "pitch": 76,
                "velocity": 40,
                "duration": 2.8159090909090914,
                "tempo": 120.0
            },
            {
                "start_time": 11.48409090909091,
                "end_time": 13.093181818181817,
                "pitch": 69,
                "velocity": 40,
                "duration": 1.6090909090909076,
                "tempo": 120.0
            },
            {
                "start_time": 13.093181818181817,
                "end_time": 13.495454545454544,
                "pitch": 73,
                "velocity": 40,
                "duration": 0.40227272727272734,
                "tempo": 120.0
            },
            {
                "start_time": 13.495454545454544,
                "end_time": 13.899999999999999,
                "pitch": 73,
                "velocity": 40,
                "duration": 0.4045454545454543,
                "tempo": 120.0
            },
            {
                "start_time": 13.899999999999999,
                "end_time": 14.299999999999999,
                "pitch": 73,
                "velocity": 40,
                "duration": 0.40000000000000036,
                "tempo": 120.0
            },
            {
                "start_time": 14.302272727272726,
                "end_time": 14.502272727272727,
                "pitch": 73,
                "velocity": 40,
                "duration": 0.20000000000000107,
                "tempo": 120.0
            },
            {
                "start_time": 14.502272727272727,
                "end_time": 14.7,
                "pitch": 73,
                "velocity": 40,
                "duration": 0.1977272727272723,
                "tempo": 120.0
            },
            {
                "start_time": 8.268181818181818,
                "end_time": 14.7,
                "pitch": 74,
                "velocity": 40,
                "duration": 6.431818181818182,
                "tempo": 120.0
            },
            {
                "start_time": 11.48409090909091,
                "end_time": 15.102272727272727,
                "pitch": 76,
                "velocity": 40,
                "duration": 3.6181818181818173,
                "tempo": 120.0
            },
            {
                "start_time": 14.7,
                "end_time": 15.102272727272727,
                "pitch": 76,
                "velocity": 40,
                "duration": 0.40227272727272734,
                "tempo": 120.0
            },
            {
                "start_time": 13.093181818181817,
                "end_time": 15.506818181818181,
                "pitch": 69,
                "velocity": 40,
                "duration": 2.413636363636364,
                "tempo": 120.0
            },
            {
                "start_time": 15.102272727272727,
                "end_time": 15.506818181818181,
                "pitch": 69,
                "velocity": 40,
                "duration": 0.4045454545454543,
                "tempo": 120.0
            },
            {
                "start_time": 15.506818181818181,
                "end_time": 15.709090909090909,
                "pitch": 69,
                "velocity": 40,
                "duration": 0.20227272727272805,
                "tempo": 120.0
            },
            {
                "start_time": 15.709090909090909,
                "end_time": 15.909090909090908,
                "pitch": 69,
                "velocity": 40,
                "duration": 0.1999999999999993,
                "tempo": 120.0
            },
            {
                "start_time": 9.877272727272727,
                "end_time": 16.30909090909091,
                "pitch": 57,
                "velocity": 40,
                "duration": 6.431818181818182,
                "tempo": 120.0
            },
            {
                "start_time": 15.909090909090908,
                "end_time": 16.30909090909091,
                "pitch": 68,
                "velocity": 40,
                "duration": 0.40000000000000036,
                "tempo": 120.0
            },
            {
                "start_time": 16.30909090909091,
                "end_time": 16.71363636363636,
                "pitch": 66,
                "velocity": 40,
                "duration": 0.40454545454545254,
                "tempo": 120.0
            },
            {
                "start_time": 10.279545454545454,
                "end_time": 16.71363636363636,
                "pitch": 78,
                "velocity": 40,
                "duration": 6.434090909090907,
                "tempo": 120.0
            },
            {
                "start_time": 16.71363636363636,
                "end_time": 16.913636363636364,
                "pitch": 71,
                "velocity": 40,
                "duration": 0.20000000000000284,
                "tempo": 120.0
            },
            {
                "start_time": 14.7,
                "end_time": 17.113636363636363,
                "pitch": 74,
                "velocity": 40,
                "duration": 2.413636363636364,
                "tempo": 120.0
            },
            {
                "start_time": 16.913636363636364,
                "end_time": 17.113636363636363,
                "pitch": 74,
                "velocity": 40,
                "duration": 0.1999999999999993,
                "tempo": 120.0
            },
            {
                "start_time": 17.113636363636363,
                "end_time": 17.513636363636362,
                "pitch": 74,
                "velocity": 40,
                "duration": 0.3999999999999986,
                "tempo": 120.0
            },
            {
                "start_time": 16.913636363636364,
                "end_time": 17.913636363636364,
                "pitch": 71,
                "velocity": 40,
                "duration": 1.0,
                "tempo": 120.0
            },
            {
                "start_time": 17.513636363636362,
                "end_time": 17.913636363636364,
                "pitch": 71,
                "velocity": 40,
                "duration": 0.40000000000000213,
                "tempo": 120.0
            },
            {
                "start_time": 17.913636363636364,
                "end_time": 18.31590909090909,
                "pitch": 68,
                "velocity": 40,
                "duration": 0.40227272727272734,
                "tempo": 120.0
            },
            {
                "start_time": 18.31590909090909,
                "end_time": 18.51590909090909,
                "pitch": 68,
                "velocity": 40,
                "duration": 0.1999999999999993,
                "tempo": 120.0
            },
            {
                "start_time": 17.913636363636364,
                "end_time": 18.71590909090909,
                "pitch": 71,
                "velocity": 40,
                "duration": 0.8022727272727259,
                "tempo": 120.0
            },
            {
                "start_time": 18.51590909090909,
                "end_time": 18.71590909090909,
                "pitch": 71,
                "velocity": 40,
                "duration": 0.1999999999999993,
                "tempo": 120.0
            },
            {
                "start_time": 18.71590909090909,
                "end_time": 19.525,
                "pitch": 64,
                "velocity": 40,
                "duration": 0.8090909090909086,
                "tempo": 120.0
            },
            {
                "start_time": 19.525,
                "end_time": 19.58863636363636,
                "pitch": 64,
                "velocity": 40,
                "duration": 0.0636363636363626,
                "tempo": 120.0
            },
            {
                "start_time": 19.58863636363636,
                "end_time": 19.922727272727272,
                "pitch": 66,
                "velocity": 40,
                "duration": 0.33409090909091077,
                "tempo": 120.0
            },
            {
                "start_time": 19.922727272727272,
                "end_time": 20.32272727272727,
                "pitch": 66,
                "velocity": 40,
                "duration": 0.3999999999999986,
                "tempo": 120.0
            },
            {
                "start_time": 16.71363636363636,
                "end_time": 20.32272727272727,
                "pitch": 78,
                "velocity": 40,
                "duration": 3.6090909090909093,
                "tempo": 120.0
            },
            {
                "start_time": 20.32272727272727,
                "end_time": 20.724999999999998,
                "pitch": 74,
                "velocity": 40,
                "duration": 0.40227272727272734,
                "tempo": 120.0
            },
            {
                "start_time": 20.724999999999998,
                "end_time": 20.927272727272726,
                "pitch": 74,
                "velocity": 40,
                "duration": 0.20227272727272805,
                "tempo": 120.0
            },
            {
                "start_time": 17.513636363636362,
                "end_time": 21.127272727272725,
                "pitch": 73,
                "velocity": 40,
                "duration": 3.6136363636363633,
                "tempo": 120.0
            },
            {
                "start_time": 20.927272727272726,
                "end_time": 21.127272727272725,
                "pitch": 73,
                "velocity": 40,
                "duration": 0.1999999999999993,
                "tempo": 120.0
            },
            {
                "start_time": 21.127272727272725,
                "end_time": 21.527272727272727,
                "pitch": 74,
                "velocity": 40,
                "duration": 0.40000000000000213,
                "tempo": 120.0
            },
            {
                "start_time": 21.527272727272727,
                "end_time": 21.727272727272727,
                "pitch": 71,
                "velocity": 40,
                "duration": 0.1999999999999993,
                "tempo": 120.0
            },
            {
                "start_time": 21.527272727272727,
                "end_time": 21.927272727272726,
                "pitch": 73,
                "velocity": 40,
                "duration": 0.3999999999999986,
                "tempo": 120.0
            },
            {
                "start_time": 21.727272727272727,
                "end_time": 21.927272727272726,
                "pitch": 73,
                "velocity": 40,
                "duration": 0.1999999999999993,
                "tempo": 120.0
            },
            {
                "start_time": 21.927272727272726,
                "end_time": 22.73181818181818,
                "pitch": 69,
                "velocity": 40,
                "duration": 0.8045454545454547,
                "tempo": 120.0
            },
            {
                "start_time": 22.73181818181818,
                "end_time": 22.813636363636363,
                "pitch": 69,
                "velocity": 40,
                "duration": 0.08181818181818201,
                "tempo": 120.0
            },
            {
                "start_time": 21.727272727272727,
                "end_time": 22.93181818181818,
                "pitch": 71,
                "velocity": 40,
                "duration": 1.2045454545454533,
                "tempo": 120.0
            },
            {
                "start_time": 22.813636363636363,
                "end_time": 22.93181818181818,
                "pitch": 71,
                "velocity": 40,
                "duration": 0.11818181818181728,
                "tempo": 120.0
            },
            {
                "start_time": 21.927272727272726,
                "end_time": 23.134090909090908,
                "pitch": 73,
                "velocity": 40,
                "duration": 1.206818181818182,
                "tempo": 120.0
            },
            {
                "start_time": 22.93181818181818,
                "end_time": 23.134090909090908,
                "pitch": 73,
                "velocity": 40,
                "duration": 0.20227272727272805,
                "tempo": 120.0
            },
            {
                "start_time": 23.134090909090908,
                "end_time": 23.334090909090907,
                "pitch": 73,
                "velocity": 40,
                "duration": 0.1999999999999993,
                "tempo": 120.0
            },
            {
                "start_time": 18.51590909090909,
                "end_time": 23.53181818181818,
                "pitch": 68,
                "velocity": 40,
                "duration": 5.015909090909091,
                "tempo": 120.0
            },
            {
                "start_time": 23.334090909090907,
                "end_time": 23.53181818181818,
                "pitch": 68,
                "velocity": 40,
                "duration": 0.19772727272727408,
                "tempo": 120.0
            },
            {
                "start_time": 22.93181818181818,
                "end_time": 23.93409090909091,
                "pitch": 71,
                "velocity": 40,
                "duration": 1.0022727272727288,
                "tempo": 120.0
            },
            {
                "start_time": 23.53181818181818,
                "end_time": 23.93409090909091,
                "pitch": 71,
                "velocity": 40,
                "duration": 0.40227272727272734,
                "tempo": 120.0
            },
            {
                "start_time": 23.53181818181818,
                "end_time": 24.334090909090907,
                "pitch": 68,
                "velocity": 40,
                "duration": 0.8022727272727259,
                "tempo": 120.0
            },
            {
                "start_time": 23.93409090909091,
                "end_time": 24.334090909090907,
                "pitch": 68,
                "velocity": 40,
                "duration": 0.3999999999999986,
                "tempo": 120.0
            },
            {
                "start_time": 16.30909090909091,
                "end_time": 25.929545454545455,
                "pitch": 57,
                "velocity": 40,
                "duration": 9.620454545454546,
                "tempo": 120.0
            },
            {
                "start_time": 24.334090909090907,
                "end_time": 25.929545454545455,
                "pitch": 68,
                "velocity": 40,
                "duration": 1.5954545454545475,
                "tempo": 120.0
            },
            {
                "start_time": 25.929545454545455,
                "end_time": 26.129545454545454,
                "pitch": 66,
                "velocity": 40,
                "duration": 0.1999999999999993,
                "tempo": 120.0
            },
            {
                "start_time": 20.32272727272727,
                "end_time": 26.129545454545454,
                "pitch": 78,
                "velocity": 40,
                "duration": 5.806818181818183,
                "tempo": 120.0
            },
            {
                "start_time": 23.334090909090907,
                "end_time": 26.329545454545453,
                "pitch": 74,
                "velocity": 40,
                "duration": 2.995454545454546,
                "tempo": 120.0
            },
            {
                "start_time": 26.129545454545454,
                "end_time": 26.329545454545453,
                "pitch": 74,
                "velocity": 40,
                "duration": 0.1999999999999993,
                "tempo": 120.0
            },
            {
                "start_time": 23.93409090909091,
                "end_time": 26.534090909090907,
                "pitch": 71,
                "velocity": 40,
                "duration": 2.599999999999998,
                "tempo": 120.0
            },
            {
                "start_time": 26.331818181818182,
                "end_time": 26.534090909090907,
                "pitch": 71,
                "velocity": 40,
                "duration": 0.2022727272727245,
                "tempo": 120.0
            },
            {
                "start_time": 26.534090909090907,
                "end_time": 26.738636363636363,
                "pitch": 68,
                "velocity": 40,
                "duration": 0.2045454545454568,
                "tempo": 120.0
            },
            {
                "start_time": 11.081818181818182,
                "end_time": 26.943181818181817,
                "pitch": 56,
                "velocity": 40,
                "duration": 15.861363636363635,
                "tempo": 120.0
            },
            {
                "start_time": 26.738636363636363,
                "end_time": 26.943181818181817,
                "pitch": 68,
                "velocity": 40,
                "duration": 0.20454545454545325,
                "tempo": 120.0
            },
            {
                "start_time": 26.943181818181817,
                "end_time": 27.143181818181816,
                "pitch": 64,
                "velocity": 40,
                "duration": 0.1999999999999993,
                "tempo": 120.0
            },
            {
                "start_time": 15.102272727272727,
                "end_time": 27.143181818181816,
                "pitch": 76,
                "velocity": 40,
                "duration": 12.04090909090909,
                "tempo": 120.0
            },
            {
                "start_time": 27.143181818181816,
                "end_time": 27.343181818181815,
                "pitch": 68,
                "velocity": 40,
                "duration": 0.1999999999999993,
                "tempo": 120.0
            },
            {
                "start_time": 18.71590909090909,
                "end_time": 27.543181818181818,
                "pitch": 59,
                "velocity": 40,
                "duration": 8.827272727272728,
                "tempo": 120.0
            },
            {
                "start_time": 26.534090909090907,
                "end_time": 27.543181818181818,
                "pitch": 71,
                "velocity": 40,
                "duration": 1.0090909090909115,
                "tempo": 120.0
            },
            {
                "start_time": 27.343181818181815,
                "end_time": 27.543181818181818,
                "pitch": 71,
                "velocity": 40,
                "duration": 0.20000000000000284,
                "tempo": 120.0
            },
            {
                "start_time": 27.543181818181818,
                "end_time": 27.743181818181817,
                "pitch": 64,
                "velocity": 40,
                "duration": 0.1999999999999993,
                "tempo": 120.0
            },
            {
                "start_time": 27.143181818181816,
                "end_time": 27.743181818181817,
                "pitch": 76,
                "velocity": 40,
                "duration": 0.6000000000000014,
                "tempo": 120.0
            },
            {
                "start_time": 27.743181818181817,
                "end_time": 27.938636363636363,
                "pitch": 73,
                "velocity": 40,
                "duration": 0.19545454545454533,
                "tempo": 120.0
            },
            {
                "start_time": 27.938636363636363,
                "end_time": 28.136363636363637,
                "pitch": 71,
                "velocity": 40,
                "duration": 0.19772727272727408,
                "tempo": 120.0
            },
            {
                "start_time": 28.136363636363637,
                "end_time": 28.15,
                "pitch": 71,
                "velocity": 40,
                "duration": 0.013636363636361892,
                "tempo": 120.0
            },
            {
                "start_time": 28.15,
                "end_time": 28.336363636363636,
                "pitch": 69,
                "velocity": 40,
                "duration": 0.1863636363636374,
                "tempo": 120.0
            },
            {
                "start_time": 28.336363636363636,
                "end_time": 28.538636363636364,
                "pitch": 69,
                "velocity": 40,
                "duration": 0.20227272727272805,
                "tempo": 120.0
            },
            {
                "start_time": 27.343181818181815,
                "end_time": 28.743181818181817,
                "pitch": 68,
                "velocity": 40,
                "duration": 1.4000000000000021,
                "tempo": 120.0
            },
            {
                "start_time": 28.538636363636364,
                "end_time": 28.743181818181817,
                "pitch": 68,
                "velocity": 40,
                "duration": 0.20454545454545325,
                "tempo": 120.0
            },
            {
                "start_time": 28.743181818181817,
                "end_time": 28.811363636363634,
                "pitch": 69,
                "velocity": 40,
                "duration": 0.06818181818181657,
                "tempo": 120.0
            },
            {
                "start_time": 27.543181818181818,
                "end_time": 28.95,
                "pitch": 59,
                "velocity": 40,
                "duration": 1.4068181818181813,
                "tempo": 120.0
            },
            {
                "start_time": 28.811363636363634,
                "end_time": 28.95,
                "pitch": 71,
                "velocity": 40,
                "duration": 0.13863636363636545,
                "tempo": 120.0
            },
            {
                "start_time": 28.95,
                "end_time": 29.15,
                "pitch": 64,
                "velocity": 40,
                "duration": 0.1999999999999993,
                "tempo": 120.0
            },
            {
                "start_time": 27.743181818181817,
                "end_time": 29.15,
                "pitch": 76,
                "velocity": 40,
                "duration": 1.4068181818181813,
                "tempo": 120.0
            },
            {
                "start_time": 27.938636363636363,
                "end_time": 29.349999999999998,
                "pitch": 73,
                "velocity": 40,
                "duration": 1.4113636363636353,
                "tempo": 120.0
            },
            {
                "start_time": 29.15,
                "end_time": 29.349999999999998,
                "pitch": 73,
                "velocity": 40,
                "duration": 0.1999999999999993,
                "tempo": 120.0
            },
            {
                "start_time": 25.929545454545455,
                "end_time": 29.549999999999997,
                "pitch": 57,
                "velocity": 40,
                "duration": 3.6204545454545425,
                "tempo": 120.0
            },
            {
                "start_time": 29.349999999999998,
                "end_time": 29.549999999999997,
                "pitch": 69,
                "velocity": 40,
                "duration": 0.1999999999999993,
                "tempo": 120.0
            },
            {
                "start_time": 29.549999999999997,
                "end_time": 29.75,
                "pitch": 66,
                "velocity": 40,
                "duration": 0.20000000000000284,
                "tempo": 120.0
            },
            {
                "start_time": 26.129545454545454,
                "end_time": 29.75,
                "pitch": 78,
                "velocity": 40,
                "duration": 3.620454545454546,
                "tempo": 120.0
            },
            {
                "start_time": 26.331818181818182,
                "end_time": 29.95,
                "pitch": 74,
                "velocity": 40,
                "duration": 3.6181818181818173,
                "tempo": 120.0
            },
            {
                "start_time": 29.75,
                "end_time": 29.95,
                "pitch": 74,
                "velocity": 40,
                "duration": 0.1999999999999993,
                "tempo": 120.0
            },
            {
                "start_time": 29.349999999999998,
                "end_time": 30.352272727272727,
                "pitch": 73,
                "velocity": 40,
                "duration": 1.0022727272727288,
                "tempo": 120.0
            },
            {
                "start_time": 29.95,
                "end_time": 30.352272727272727,
                "pitch": 74,
                "velocity": 40,
                "duration": 0.40227272727272734,
                "tempo": 120.0
            },
            {
                "start_time": 30.352272727272727,
                "end_time": 30.754545454545454,
                "pitch": 71,
                "velocity": 40,
                "duration": 0.40227272727272734,
                "tempo": 120.0
            },
            {
                "start_time": 30.754545454545454,
                "end_time": 30.954545454545453,
                "pitch": 71,
                "velocity": 40,
                "duration": 0.1999999999999993,
                "tempo": 120.0
            },
            {
                "start_time": 26.943181818181817,
                "end_time": 31.154545454545453,
                "pitch": 56,
                "velocity": 40,
                "duration": 4.211363636363636,
                "tempo": 120.0
            },
            {
                "start_time": 30.954545454545453,
                "end_time": 31.154545454545453,
                "pitch": 68,
                "velocity": 40,
                "duration": 0.1999999999999993,
                "tempo": 120.0
            },
            {
                "start_time": 31.154545454545453,
                "end_time": 31.35681818181818,
                "pitch": 64,
                "velocity": 40,
                "duration": 0.20227272727272805,
                "tempo": 120.0
            },
            {
                "start_time": 29.15,
                "end_time": 31.35681818181818,
                "pitch": 76,
                "velocity": 40,
                "duration": 2.206818181818182,
                "tempo": 120.0
            },
            {
                "start_time": 30.352272727272727,
                "end_time": 31.554545454545455,
                "pitch": 73,
                "velocity": 40,
                "duration": 1.202272727272728,
                "tempo": 120.0
            },
            {
                "start_time": 31.35681818181818,
                "end_time": 31.554545454545455,
                "pitch": 73,
                "velocity": 40,
                "duration": 0.19772727272727408,
                "tempo": 120.0
            },
            {
                "start_time": 30.954545454545453,
                "end_time": 31.956818181818182,
                "pitch": 71,
                "velocity": 40,
                "duration": 1.0022727272727288,
                "tempo": 120.0
            },
            {
                "start_time": 31.554545454545455,
                "end_time": 31.956818181818182,
                "pitch": 71,
                "velocity": 40,
                "duration": 0.40227272727272734,
                "tempo": 120.0
            },
            {
                "start_time": 31.956818181818182,
                "end_time": 32.35909090909091,
                "pitch": 69,
                "velocity": 40,
                "duration": 0.40227272727272734,
                "tempo": 120.0
            },
            {
                "start_time": 31.554545454545455,
                "end_time": 32.559090909090905,
                "pitch": 73,
                "velocity": 40,
                "duration": 1.0045454545454504,
                "tempo": 120.0
            },
            {
                "start_time": 32.35909090909091,
                "end_time": 32.559090909090905,
                "pitch": 73,
                "velocity": 40,
                "duration": 0.19999999999999574,
                "tempo": 120.0
            },
            {
                "start_time": 32.559090909090905,
                "end_time": 32.75909090909091,
                "pitch": 73,
                "velocity": 40,
                "duration": 0.20000000000000284,
                "tempo": 120.0
            },
            {
                "start_time": 31.35681818181818,
                "end_time": 32.95909090909091,
                "pitch": 76,
                "velocity": 40,
                "duration": 1.6022727272727302,
                "tempo": 120.0
            },
            {
                "start_time": 32.75909090909091,
                "end_time": 32.95909090909091,
                "pitch": 76,
                "velocity": 40,
                "duration": 0.20000000000000284,
                "tempo": 120.0
            },
            {
                "start_time": 32.35909090909091,
                "end_time": 33.15909090909091,
                "pitch": 69,
                "velocity": 40,
                "duration": 0.7999999999999972,
                "tempo": 120.0
            },
            {
                "start_time": 32.95909090909091,
                "end_time": 33.15909090909091,
                "pitch": 69,
                "velocity": 40,
                "duration": 0.19999999999999574,
                "tempo": 120.0
            },
            {
                "start_time": 33.15909090909091,
                "end_time": 33.225,
                "pitch": 69,
                "velocity": 40,
                "duration": 0.06590909090909491,
                "tempo": 120.0
            },
            {
                "start_time": 31.956818181818182,
                "end_time": 33.361363636363635,
                "pitch": 71,
                "velocity": 40,
                "duration": 1.4045454545454525,
                "tempo": 120.0
            },
            {
                "start_time": 33.225,
                "end_time": 33.361363636363635,
                "pitch": 71,
                "velocity": 40,
                "duration": 0.13636363636363313,
                "tempo": 120.0
            },
            {
                "start_time": 33.361363636363635,
                "end_time": 33.425,
                "pitch": 79,
                "velocity": 40,
                "duration": 0.0636363636363626,
                "tempo": 120.0
            },
            {
                "start_time": 33.425,
                "end_time": 33.56136363636364,
                "pitch": 79,
                "velocity": 40,
                "duration": 0.13636363636364024,
                "tempo": 120.0
            },
            {
                "start_time": 33.56136363636364,
                "end_time": 33.574999999999996,
                "pitch": 79,
                "velocity": 40,
                "duration": 0.01363636363635834,
                "tempo": 120.0
            },
            {
                "start_time": 33.574999999999996,
                "end_time": 33.76136363636363,
                "pitch": 77,
                "velocity": 40,
                "duration": 0.1863636363636374,
                "tempo": 120.0
            },
            {
                "start_time": 32.95909090909091,
                "end_time": 33.961363636363636,
                "pitch": 76,
                "velocity": 40,
                "duration": 1.0022727272727252,
                "tempo": 120.0
            },
            {
                "start_time": 33.76136363636363,
                "end_time": 33.961363636363636,
                "pitch": 77,
                "velocity": 40,
                "duration": 0.20000000000000284,
                "tempo": 120.0
            },
            {
                "start_time": 33.961363636363636,
                "end_time": 34.16136363636363,
                "pitch": 71,
                "velocity": 40,
                "duration": 0.19999999999999574,
                "tempo": 120.0
            },
            {
                "start_time": 34.16136363636363,
                "end_time": 34.361363636363635,
                "pitch": 68,
                "velocity": 40,
                "duration": 0.20000000000000284,
                "tempo": 120.0
            },
            {
                "start_time": 34.16136363636363,
                "end_time": 34.56136363636364,
                "pitch": 71,
                "velocity": 40,
                "duration": 0.4000000000000057,
                "tempo": 120.0
            },
            {
                "start_time": 34.361363636363635,
                "end_time": 34.56136363636364,
                "pitch": 71,
                "velocity": 40,
                "duration": 0.20000000000000284,
                "tempo": 120.0
            },
            {
                "start_time": 32.75909090909091,
                "end_time": 34.75909090909091,
                "pitch": 74,
                "velocity": 40,
                "duration": 2.0,
                "tempo": 120.0
            },
            {
                "start_time": 34.56136363636364,
                "end_time": 34.75909090909091,
                "pitch": 74,
                "velocity": 40,
                "duration": 0.19772727272727053,
                "tempo": 120.0
            },
            {
                "start_time": 29.75,
                "end_time": 35.55681818181818,
                "pitch": 78,
                "velocity": 40,
                "duration": 5.80681818181818,
                "tempo": 120.0
            },
            {
                "start_time": 34.75909090909091,
                "end_time": 35.55681818181818,
                "pitch": 78,
                "velocity": 40,
                "duration": 0.797727272727272,
                "tempo": 120.0
            },
            {
                "start_time": 35.55681818181818,
                "end_time": 35.763636363636365,
                "pitch": 78,
                "velocity": 40,
                "duration": 0.20681818181818556,
                "tempo": 120.0
            },
            {
                "start_time": 34.75909090909091,
                "end_time": 35.96363636363636,
                "pitch": 74,
                "velocity": 40,
                "duration": 1.2045454545454533,
                "tempo": 120.0
            },
            {
                "start_time": 35.763636363636365,
                "end_time": 35.96363636363636,
                "pitch": 74,
                "velocity": 40,
                "duration": 0.19999999999999574,
                "tempo": 120.0
            },
            {
                "start_time": 34.56136363636364,
                "end_time": 36.163636363636364,
                "pitch": 71,
                "velocity": 40,
                "duration": 1.6022727272727266,
                "tempo": 120.0
            },
            {
                "start_time": 35.96363636363636,
                "end_time": 36.163636363636364,
                "pitch": 71,
                "velocity": 40,
                "duration": 0.20000000000000284,
                "tempo": 120.0
            },
            {
                "start_time": 36.163636363636364,
                "end_time": 36.36363636363636,
                "pitch": 73,
                "velocity": 40,
                "duration": 0.19999999999999574,
                "tempo": 120.0
            },
            {
                "start_time": 36.36363636363636,
                "end_time": 36.76363636363636,
                "pitch": 73,
                "velocity": 40,
                "duration": 0.3999999999999986,
                "tempo": 120.0
            },
            {
                "start_time": 35.96363636363636,
                "end_time": 36.76363636363636,
                "pitch": 74,
                "velocity": 40,
                "duration": 0.7999999999999972,
                "tempo": 120.0
            },
            {
                "start_time": 36.163636363636364,
                "end_time": 36.96363636363636,
                "pitch": 71,
                "velocity": 40,
                "duration": 0.7999999999999972,
                "tempo": 120.0
            },
            {
                "start_time": 36.76363636363636,
                "end_time": 36.96363636363636,
                "pitch": 71,
                "velocity": 40,
                "duration": 0.20000000000000284,
                "tempo": 120.0
            },
            {
                "start_time": 34.361363636363635,
                "end_time": 37.163636363636364,
                "pitch": 68,
                "velocity": 40,
                "duration": 2.8022727272727295,
                "tempo": 120.0
            },
            {
                "start_time": 36.96363636363636,
                "end_time": 37.163636363636364,
                "pitch": 68,
                "velocity": 40,
                "duration": 0.20000000000000284,
                "tempo": 120.0
            },
            {
                "start_time": 29.549999999999997,
                "end_time": 64.41818181818182,
                "pitch": 57,
                "velocity": 40,
                "duration": 34.868181818181824,
                "tempo": 120.0
            },
            {
                "start_time": 37.163636363636364,
                "end_time": 64.41818181818182,
                "pitch": 68,
                "velocity": 40,
                "duration": 27.254545454545458,
                "tempo": 120.0
            },
            {
                "start_time": 64.41818181818182,
                "end_time": 65.02272727272727,
                "pitch": 64,
                "velocity": 40,
                "duration": 0.6045454545454447,
                "tempo": 120.0
            },
            {
                "start_time": 65.02272727272727,
                "end_time": 65.22727272727272,
                "pitch": 64,
                "velocity": 40,
                "duration": 0.20454545454545325,
                "tempo": 120.0
            },
            {
                "start_time": 65.22727272727272,
                "end_time": 65.29318181818182,
                "pitch": 64,
                "velocity": 40,
                "duration": 0.06590909090910202,
                "tempo": 120.0
            },
            {
                "start_time": 65.29318181818182,
                "end_time": 65.43181818181817,
                "pitch": 66,
                "velocity": 40,
                "duration": 0.13863636363635123,
                "tempo": 120.0
            },
            {
                "start_time": 65.43181818181817,
                "end_time": 65.44772727272726,
                "pitch": 66,
                "velocity": 40,
                "duration": 0.01590909090909065,
                "tempo": 120.0
            },
            {
                "start_time": 65.44772727272726,
                "end_time": 65.62727272727273,
                "pitch": 64,
                "velocity": 40,
                "duration": 0.17954545454546178,
                "tempo": 120.0
            },
            {
                "start_time": 65.62727272727273,
                "end_time": 65.825,
                "pitch": 62,
                "velocity": 40,
                "duration": 0.19772727272727764,
                "tempo": 120.0
            },
            {
                "start_time": 65.825,
                "end_time": 66.02954545454546,
                "pitch": 62,
                "velocity": 40,
                "duration": 0.20454545454545325,
                "tempo": 120.0
            },
            {
                "start_time": 66.02954545454546,
                "end_time": 66.23636363636363,
                "pitch": 61,
                "velocity": 40,
                "duration": 0.20681818181817846,
                "tempo": 120.0
            },
            {
                "start_time": 28.95,
                "end_time": 66.43636363636364,
                "pitch": 59,
                "velocity": 40,
                "duration": 37.486363636363635,
                "tempo": 120.0
            },
            {
                "start_time": 66.23636363636363,
                "end_time": 66.43636363636364,
                "pitch": 59,
                "velocity": 40,
                "duration": 0.20000000000000284,
                "tempo": 120.0
            },
            {
                "start_time": 31.154545454545453,
                "end_time": 66.63863636363637,
                "pitch": 56,
                "velocity": 40,
                "duration": 35.48409090909091,
                "tempo": 120.0
            },
            {
                "start_time": 66.43636363636364,
                "end_time": 66.63863636363637,
                "pitch": 56,
                "velocity": 40,
                "duration": 0.20227272727272805,
                "tempo": 120.0
            },
            {
                "start_time": 66.63863636363637,
                "end_time": 66.83636363636363,
                "pitch": 66,
                "velocity": 40,
                "duration": 0.19772727272726343,
                "tempo": 120.0
            },
            {
                "start_time": 66.83863636363635,
                "end_time": 66.85227272727272,
                "pitch": 66,
                "velocity": 40,
                "duration": 0.013636363636365445,
                "tempo": 120.0
            },
            {
                "start_time": 65.62727272727273,
                "end_time": 67.23863636363636,
                "pitch": 64,
                "velocity": 40,
                "duration": 1.6113636363636346,
                "tempo": 120.0
            },
            {
                "start_time": 66.85227272727272,
                "end_time": 67.23863636363636,
                "pitch": 64,
                "velocity": 40,
                "duration": 0.38636363636364024,
                "tempo": 120.0
            },
            {
                "start_time": 66.23636363636363,
                "end_time": 67.64090909090909,
                "pitch": 62,
                "velocity": 40,
                "duration": 1.404545454545456,
                "tempo": 120.0
            },
            {
                "start_time": 67.23863636363636,
                "end_time": 67.64090909090909,
                "pitch": 62,
                "velocity": 40,
                "duration": 0.4022727272727309,
                "tempo": 120.0
            },
            {
                "start_time": 67.64090909090909,
                "end_time": 68.23409090909091,
                "pitch": 66,
                "velocity": 40,
                "duration": 0.5931818181818187,
                "tempo": 120.0
            },
            {
                "start_time": 68.23409090909091,
                "end_time": 68.43863636363636,
                "pitch": 66,
                "velocity": 40,
                "duration": 0.20454545454545325,
                "tempo": 120.0
            },
            {
                "start_time": 35.763636363636365,
                "end_time": 68.43863636363636,
                "pitch": 78,
                "velocity": 40,
                "duration": 32.675,
                "tempo": 120.0
            },
            {
                "start_time": 66.63863636363637,
                "end_time": 68.64545454545454,
                "pitch": 56,
                "velocity": 40,
                "duration": 2.0068181818181756,
                "tempo": 120.0
            },
            {
                "start_time": 68.43863636363636,
                "end_time": 68.64545454545454,
                "pitch": 68,
                "velocity": 40,
                "duration": 0.20681818181817846,
                "tempo": 120.0
            },
            {
                "start_time": 67.23863636363636,
                "end_time": 68.84318181818182,
                "pitch": 64,
                "velocity": 40,
                "duration": 1.604545454545459,
                "tempo": 120.0
            },
            {
                "start_time": 68.64545454545454,
                "end_time": 68.84318181818182,
                "pitch": 64,
                "velocity": 40,
                "duration": 0.19772727272727764,
                "tempo": 120.0
            },
            {
                "start_time": 68.84318181818182,
                "end_time": 69.04545454545455,
                "pitch": 61,
                "velocity": 40,
                "duration": 0.20227272727272805,
                "tempo": 120.0
            },
            {
                "start_time": 69.04545454545455,
                "end_time": 69.24545454545454,
                "pitch": 69,
                "velocity": 40,
                "duration": 0.19999999999998863,
                "tempo": 120.0
            },
            {
                "start_time": 0.23863636363636362,
                "end_time": 69.31136363636364,
                "pitch": 67,
                "velocity": 40,
                "duration": 69.07272727272728,
                "tempo": 120.0
            },
            {
                "start_time": 69.24545454545454,
                "end_time": 69.31136363636364,
                "pitch": 67,
                "velocity": 40,
                "duration": 0.06590909090910202,
                "tempo": 120.0
            },
            {
                "start_time": 69.31136363636364,
                "end_time": 69.44545454545454,
                "pitch": 67,
                "velocity": 40,
                "duration": 0.13409090909090082,
                "tempo": 120.0
            },
            {
                "start_time": 69.31136363636364,
                "end_time": 69.44545454545454,
                "pitch": 79,
                "velocity": 40,
                "duration": 0.13409090909090082,
                "tempo": 120.0
            },
            {
                "start_time": 69.44545454545454,
                "end_time": 69.575,
                "pitch": 67,
                "velocity": 40,
                "duration": 0.12954545454546462,
                "tempo": 120.0
            },
            {
                "start_time": 69.44545454545454,
                "end_time": 69.575,
                "pitch": 79,
                "velocity": 40,
                "duration": 0.12954545454546462,
                "tempo": 120.0
            },
            {
                "start_time": 69.575,
                "end_time": 69.70681818181818,
                "pitch": 67,
                "velocity": 40,
                "duration": 0.13181818181817562,
                "tempo": 120.0
            },
            {
                "start_time": 69.575,
                "end_time": 69.70681818181818,
                "pitch": 79,
                "velocity": 40,
                "duration": 0.13181818181817562,
                "tempo": 120.0
            },
            {
                "start_time": 69.70681818181818,
                "end_time": 69.83863636363635,
                "pitch": 67,
                "velocity": 40,
                "duration": 0.13181818181817562,
                "tempo": 120.0
            },
            {
                "start_time": 69.83863636363635,
                "end_time": 69.90454545454546,
                "pitch": 67,
                "velocity": 40,
                "duration": 0.06590909090910202,
                "tempo": 120.0
            },
            {
                "start_time": 69.70681818181818,
                "end_time": 69.90454545454546,
                "pitch": 79,
                "velocity": 40,
                "duration": 0.19772727272727764,
                "tempo": 120.0
            },
            {
                "start_time": 69.90454545454546,
                "end_time": 70.04318181818182,
                "pitch": 67,
                "velocity": 40,
                "duration": 0.13863636363636545,
                "tempo": 120.0
            },
            {
                "start_time": 69.90454545454546,
                "end_time": 70.04318181818182,
                "pitch": 79,
                "velocity": 40,
                "duration": 0.13863636363636545,
                "tempo": 120.0
            },
            {
                "start_time": 70.04318181818182,
                "end_time": 70.25,
                "pitch": 70,
                "velocity": 40,
                "duration": 0.20681818181817846,
                "tempo": 120.0
            },
            {
                "start_time": 70.25,
                "end_time": 70.31363636363636,
                "pitch": 67,
                "velocity": 40,
                "duration": 0.0636363636363626,
                "tempo": 120.0
            },
            {
                "start_time": 70.04318181818182,
                "end_time": 70.31363636363636,
                "pitch": 79,
                "velocity": 40,
                "duration": 0.27045454545454106,
                "tempo": 120.0
            },
            {
                "start_time": 70.31363636363636,
                "end_time": 70.44545454545454,
                "pitch": 67,
                "velocity": 40,
                "duration": 0.13181818181817562,
                "tempo": 120.0
            },
            {
                "start_time": 70.44545454545454,
                "end_time": 70.64090909090909,
                "pitch": 63,
                "velocity": 40,
                "duration": 0.19545454545455243,
                "tempo": 120.0
            },
            {
                "start_time": 70.64090909090909,
                "end_time": 70.84545454545454,
                "pitch": 61,
                "velocity": 40,
                "duration": 0.20454545454545325,
                "tempo": 120.0
            },
            {
                "start_time": 70.84545454545454,
                "end_time": 71.25227272727273,
                "pitch": 61,
                "velocity": 40,
                "duration": 0.4068181818181813,
                "tempo": 120.0
            },
            {
                "start_time": 71.25227272727273,
                "end_time": 71.45454545454545,
                "pitch": 61,
                "velocity": 40,
                "duration": 0.20227272727272805,
                "tempo": 120.0
            },
            {
                "start_time": 67.64090909090909,
                "end_time": 71.45454545454545,
                "pitch": 62,
                "velocity": 40,
                "duration": 3.8136363636363626,
                "tempo": 120.0
            },
            {
                "start_time": 68.84318181818182,
                "end_time": 71.65454545454546,
                "pitch": 64,
                "velocity": 40,
                "duration": 2.8113636363636374,
                "tempo": 120.0
            },
            {
                "start_time": 71.45454545454545,
                "end_time": 71.65454545454546,
                "pitch": 64,
                "velocity": 40,
                "duration": 0.20000000000000284,
                "tempo": 120.0
            },
            {
                "start_time": 33.361363636363635,
                "end_time": 71.72045454545454,
                "pitch": 55,
                "velocity": 40,
                "duration": 38.35909090909091,
                "tempo": 120.0
            },
            {
                "start_time": 71.65454545454546,
                "end_time": 71.72045454545454,
                "pitch": 55,
                "velocity": 40,
                "duration": 0.06590909090908781,
                "tempo": 120.0
            },
            {
                "start_time": 70.44545454545454,
                "end_time": 71.72045454545454,
                "pitch": 67,
                "velocity": 40,
                "duration": 1.2750000000000057,
                "tempo": 120.0
            },
            {
                "start_time": 71.72045454545454,
                "end_time": 71.78636363636363,
                "pitch": 55,
                "velocity": 40,
                "duration": 0.06590909090908781,
                "tempo": 120.0
            },
            {
                "start_time": 71.78636363636363,
                "end_time": 71.85454545454544,
                "pitch": 55,
                "velocity": 40,
                "duration": 0.06818181818181301,
                "tempo": 120.0
            },
            {
                "start_time": 71.85454545454544,
                "end_time": 72.05681818181817,
                "pitch": 55,
                "velocity": 40,
                "duration": 0.20227272727272805,
                "tempo": 120.0
            },
            {
                "start_time": 71.45454545454545,
                "end_time": 72.25681818181818,
                "pitch": 62,
                "velocity": 40,
                "duration": 0.8022727272727224,
                "tempo": 120.0
            },
            {
                "start_time": 72.05681818181817,
                "end_time": 72.25681818181818,
                "pitch": 62,
                "velocity": 40,
                "duration": 0.20000000000000284,
                "tempo": 120.0
            },
            {
                "start_time": 72.25681818181818,
                "end_time": 72.4590909090909,
                "pitch": 62,
                "velocity": 40,
                "duration": 0.20227272727272805,
                "tempo": 120.0
            },
            {
                "start_time": 66.43636363636364,
                "end_time": 72.86136363636363,
                "pitch": 59,
                "velocity": 40,
                "duration": 6.424999999999997,
                "tempo": 120.0
            },
            {
                "start_time": 72.4590909090909,
                "end_time": 72.86136363636363,
                "pitch": 59,
                "velocity": 40,
                "duration": 0.4022727272727309,
                "tempo": 120.0
            },
            {
                "start_time": 72.86136363636363,
                "end_time": 73.06136363636364,
                "pitch": 62,
                "velocity": 40,
                "duration": 0.20000000000000284,
                "tempo": 120.0
            },
            {
                "start_time": 72.05681818181817,
                "end_time": 73.26136363636363,
                "pitch": 66,
                "velocity": 40,
                "duration": 1.2045454545454533,
                "tempo": 120.0
            },
            {
                "start_time": 73.06136363636364,
                "end_time": 73.26136363636363,
                "pitch": 66,
                "velocity": 40,
                "duration": 0.19999999999998863,
                "tempo": 120.0
            },
            {
                "start_time": 68.43863636363636,
                "end_time": 73.26136363636363,
                "pitch": 78,
                "velocity": 40,
                "duration": 4.822727272727263,
                "tempo": 120.0
            },
            {
                "start_time": 73.26136363636363,
                "end_time": 73.66136363636363,
                "pitch": 69,
                "velocity": 40,
                "duration": 0.4000000000000057,
                "tempo": 120.0
            },
            {
                "start_time": 68.64545454545454,
                "end_time": 74.06363636363636,
                "pitch": 56,
                "velocity": 40,
                "duration": 5.4181818181818215,
                "tempo": 120.0
            },
            {
                "start_time": 73.66136363636363,
                "end_time": 74.06363636363636,
                "pitch": 69,
                "velocity": 40,
                "duration": 0.4022727272727309,
                "tempo": 120.0
            },
            {
                "start_time": 72.86136363636363,
                "end_time": 74.26590909090909,
                "pitch": 59,
                "velocity": 40,
                "duration": 1.404545454545456,
                "tempo": 120.0
            },
            {
                "start_time": 74.06363636363636,
                "end_time": 74.26590909090909,
                "pitch": 59,
                "velocity": 40,
                "duration": 0.20227272727272805,
                "tempo": 120.0
            },
            {
                "start_time": 74.26590909090909,
                "end_time": 74.46818181818182,
                "pitch": 64,
                "velocity": 40,
                "duration": 0.20227272727272805,
                "tempo": 120.0
            },
            {
                "start_time": 33.961363636363636,
                "end_time": 74.46818181818182,
                "pitch": 76,
                "velocity": 40,
                "duration": 40.50681818181818,
                "tempo": 120.0
            },
            {
                "start_time": 36.96363636363636,
                "end_time": 74.66818181818182,
                "pitch": 71,
                "velocity": 40,
                "duration": 37.70454545454546,
                "tempo": 120.0
            },
            {
                "start_time": 74.46818181818182,
                "end_time": 74.66818181818182,
                "pitch": 71,
                "velocity": 40,
                "duration": 0.20000000000000284,
                "tempo": 120.0
            },
            {
                "start_time": 74.66818181818182,
                "end_time": 74.86818181818181,
                "pitch": 68,
                "velocity": 40,
                "duration": 0.19999999999998863,
                "tempo": 120.0
            },
            {
                "start_time": 64.41818181818182,
                "end_time": 75.06818181818181,
                "pitch": 57,
                "velocity": 40,
                "duration": 10.649999999999991,
                "tempo": 120.0
            },
            {
                "start_time": 74.86818181818181,
                "end_time": 75.06818181818181,
                "pitch": 68,
                "velocity": 40,
                "duration": 0.20000000000000284,
                "tempo": 120.0
            },
            {
                "start_time": 75.06818181818181,
                "end_time": 75.27045454545454,
                "pitch": 66,
                "velocity": 40,
                "duration": 0.20227272727272805,
                "tempo": 120.0
            },
            {
                "start_time": 75.27045454545454,
                "end_time": 75.2840909090909,
                "pitch": 66,
                "velocity": 40,
                "duration": 0.013636363636365445,
                "tempo": 120.0
            },
            {
                "start_time": 75.2840909090909,
                "end_time": 75.47045454545454,
                "pitch": 64,
                "velocity": 40,
                "duration": 0.1863636363636374,
                "tempo": 120.0
            },
            {
                "start_time": 73.06136363636364,
                "end_time": 75.67045454545455,
                "pitch": 62,
                "velocity": 40,
                "duration": 2.6090909090909093,
                "tempo": 120.0
            },
            {
                "start_time": 75.47272727272727,
                "end_time": 75.67045454545455,
                "pitch": 62,
                "velocity": 40,
                "duration": 0.19772727272727764,
                "tempo": 120.0
            },
            {
                "start_time": 72.4590909090909,
                "end_time": 76.475,
                "pitch": 61,
                "velocity": 40,
                "duration": 4.015909090909091,
                "tempo": 120.0
            },
            {
                "start_time": 75.67045454545455,
                "end_time": 76.475,
                "pitch": 62,
                "velocity": 40,
                "duration": 0.8045454545454476,
                "tempo": 120.0
            },
            {
                "start_time": 74.26590909090909,
                "end_time": 77.27272727272727,
                "pitch": 59,
                "velocity": 40,
                "duration": 3.0068181818181756,
                "tempo": 120.0
            },
            {
                "start_time": 76.475,
                "end_time": 77.27272727272727,
                "pitch": 59,
                "velocity": 40,
                "duration": 0.797727272727272,
                "tempo": 120.0
            },
            {
                "start_time": 75.47272727272727,
                "end_time": 77.87954545454545,
                "pitch": 64,
                "velocity": 40,
                "duration": 2.4068181818181813,
                "tempo": 120.0
            },
            {
                "start_time": 77.27272727272727,
                "end_time": 77.87954545454545,
                "pitch": 64,
                "velocity": 40,
                "duration": 0.6068181818181841,
                "tempo": 120.0
            },
            {
                "start_time": 77.87954545454545,
                "end_time": 78.07954545454545,
                "pitch": 64,
                "velocity": 40,
                "duration": 0.20000000000000284,
                "tempo": 120.0
            },
            {
                "start_time": 78.07954545454545,
                "end_time": 78.14545454545454,
                "pitch": 64,
                "velocity": 40,
                "duration": 0.06590909090908781,
                "tempo": 120.0
            },
            {
                "start_time": 78.14545454545454,
                "end_time": 78.28181818181818,
                "pitch": 66,
                "velocity": 40,
                "duration": 0.13636363636364024,
                "tempo": 120.0
            },
            {
                "start_time": 78.28181818181818,
                "end_time": 78.29545454545455,
                "pitch": 66,
                "velocity": 40,
                "duration": 0.013636363636365445,
                "tempo": 120.0
            },
            {
                "start_time": 78.29545454545455,
                "end_time": 78.48181818181818,
                "pitch": 64,
                "velocity": 40,
                "duration": 0.1863636363636374,
                "tempo": 120.0
            },
            {
                "start_time": 78.48181818181818,
                "end_time": 78.48409090909091,
                "pitch": 64,
                "velocity": 40,
                "duration": 0.0022727272727252057,
                "tempo": 120.0
            },
            {
                "start_time": 78.48409090909091,
                "end_time": 78.68409090909091,
                "pitch": 62,
                "velocity": 40,
                "duration": 0.20000000000000284,
                "tempo": 120.0
            },
            {
                "start_time": 78.68409090909091,
                "end_time": 78.8840909090909,
                "pitch": 62,
                "velocity": 40,
                "duration": 0.19999999999998863,
                "tempo": 120.0
            },
            {
                "start_time": 76.475,
                "end_time": 79.28636363636363,
                "pitch": 61,
                "velocity": 40,
                "duration": 2.8113636363636374,
                "tempo": 120.0
            },
            {
                "start_time": 78.8840909090909,
                "end_time": 79.28636363636363,
                "pitch": 61,
                "velocity": 40,
                "duration": 0.4022727272727309,
                "tempo": 120.0
            },
            {
                "start_time": 77.27272727272727,
                "end_time": 79.48863636363636,
                "pitch": 59,
                "velocity": 40,
                "duration": 2.2159090909090935,
                "tempo": 120.0
            },
            {
                "start_time": 79.28636363636363,
                "end_time": 79.48863636363636,
                "pitch": 59,
                "velocity": 40,
                "duration": 0.20227272727272805,
                "tempo": 120.0
            },
            {
                "start_time": 79.48863636363636,
                "end_time": 79.68636363636364,
                "pitch": 61,
                "velocity": 40,
                "duration": 0.19772727272727764,
                "tempo": 120.0
            },
            {
                "start_time": 79.68636363636364,
                "end_time": 80.49090909090908,
                "pitch": 61,
                "velocity": 40,
                "duration": 0.8045454545454476,
                "tempo": 120.0
            },
            {
                "start_time": 79.28636363636363,
                "end_time": 80.49090909090908,
                "pitch": 62,
                "velocity": 40,
                "duration": 1.2045454545454533,
                "tempo": 120.0
            },
            {
                "start_time": 80.49090909090908,
                "end_time": 81.08636363636363,
                "pitch": 66,
                "velocity": 40,
                "duration": 0.5954545454545439,
                "tempo": 120.0
            },
            {
                "start_time": 80.49090909090908,
                "end_time": 81.29090909090908,
                "pitch": 62,
                "velocity": 40,
                "duration": 0.7999999999999972,
                "tempo": 120.0
            },
            {
                "start_time": 81.08636363636363,
                "end_time": 81.29090909090908,
                "pitch": 62,
                "velocity": 40,
                "duration": 0.20454545454545325,
                "tempo": 120.0
            },
            {
                "start_time": 79.48863636363636,
                "end_time": 81.49545454545454,
                "pitch": 59,
                "velocity": 40,
                "duration": 2.0068181818181756,
                "tempo": 120.0
            },
            {
                "start_time": 81.29090909090908,
                "end_time": 81.49545454545454,
                "pitch": 59,
                "velocity": 40,
                "duration": 0.20454545454545325,
                "tempo": 120.0
            },
            {
                "start_time": 74.06363636363636,
                "end_time": 81.69545454545454,
                "pitch": 56,
                "velocity": 40,
                "duration": 7.631818181818176,
                "tempo": 120.0
            },
            {
                "start_time": 81.49545454545454,
                "end_time": 81.69545454545454,
                "pitch": 56,
                "velocity": 40,
                "duration": 0.20000000000000284,
                "tempo": 120.0
            },
            {
                "start_time": 81.69545454545454,
                "end_time": 81.89545454545454,
                "pitch": 64,
                "velocity": 40,
                "duration": 0.20000000000000284,
                "tempo": 120.0
            },
            {
                "start_time": 81.89545454545454,
                "end_time": 82.09545454545454,
                "pitch": 64,
                "velocity": 40,
                "duration": 0.20000000000000284,
                "tempo": 120.0
            },
            {
                "start_time": 82.09545454545454,
                "end_time": 83.69772727272726,
                "pitch": 61,
                "velocity": 40,
                "duration": 1.6022727272727195,
                "tempo": 120.0
            },
            {
                "start_time": 83.69772727272726,
                "end_time": 84.29545454545455,
                "pitch": 47,
                "velocity": 40,
                "duration": 0.5977272727272833,
                "tempo": 120.0
            },
            {
                "start_time": 84.29545454545455,
                "end_time": 84.5,
                "pitch": 47,
                "velocity": 40,
                "duration": 0.20454545454545325,
                "tempo": 120.0
            },
            {
                "start_time": 84.5,
                "end_time": 84.70681818181818,
                "pitch": 50,
                "velocity": 40,
                "duration": 0.20681818181817846,
                "tempo": 120.0
            },
            {
                "start_time": 84.70681818181818,
                "end_time": 84.77045454545454,
                "pitch": 55,
                "velocity": 40,
                "duration": 0.0636363636363626,
                "tempo": 120.0
            },
            {
                "start_time": 71.72045454545454,
                "end_time": 84.77045454545454,
                "pitch": 67,
                "velocity": 40,
                "duration": 13.049999999999997,
                "tempo": 120.0
            },
            {
                "start_time": 71.78636363636363,
                "end_time": 84.83863636363635,
                "pitch": 0,
                "velocity": 40,
                "duration": 13.052272727272722,
                "tempo": 120.0
            },
            {
                "start_time": 84.77045454545454,
                "end_time": 84.83863636363635,
                "pitch": 55,
                "velocity": 40,
                "duration": 0.06818181818181301,
                "tempo": 120.0
            },
            {
                "start_time": 84.83863636363635,
                "end_time": 84.90681818181818,
                "pitch": 55,
                "velocity": 40,
                "duration": 0.06818181818182723,
                "tempo": 120.0
            },
            {
                "start_time": 84.77045454545454,
                "end_time": 84.90681818181818,
                "pitch": 67,
                "velocity": 40,
                "duration": 0.13636363636364024,
                "tempo": 120.0
            },
            {
                "start_time": 81.49545454545454,
                "end_time": 85.10681818181818,
                "pitch": 59,
                "velocity": 40,
                "duration": 3.6113636363636488,
                "tempo": 120.0
            },
            {
                "start_time": 84.90681818181818,
                "end_time": 85.10681818181818,
                "pitch": 59,
                "velocity": 40,
                "duration": 0.20000000000000284,
                "tempo": 120.0
            },
            {
                "start_time": 81.29090909090908,
                "end_time": 85.30681818181817,
                "pitch": 62,
                "velocity": 40,
                "duration": 4.015909090909091,
                "tempo": 120.0
            },
            {
                "start_time": 85.10681818181818,
                "end_time": 85.30681818181817,
                "pitch": 62,
                "velocity": 40,
                "duration": 0.19999999999998863,
                "tempo": 120.0
            },
            {
                "start_time": 85.30681818181817,
                "end_time": 85.5090909090909,
                "pitch": 62,
                "velocity": 40,
                "duration": 0.20227272727272805,
                "tempo": 120.0
            },
            {
                "start_time": 75.06818181818181,
                "end_time": 85.7090909090909,
                "pitch": 57,
                "velocity": 40,
                "duration": 10.64090909090909,
                "tempo": 120.0
            },
            {
                "start_time": 85.5090909090909,
                "end_time": 85.7090909090909,
                "pitch": 57,
                "velocity": 40,
                "duration": 0.20000000000000284,
                "tempo": 120.0
            },
            {
                "start_time": 85.7090909090909,
                "end_time": 85.9090909090909,
                "pitch": 54,
                "velocity": 40,
                "duration": 0.20000000000000284,
                "tempo": 120.0
            },
            {
                "start_time": 85.9090909090909,
                "end_time": 85.975,
                "pitch": 53,
                "velocity": 40,
                "duration": 0.06590909090908781,
                "tempo": 120.0
            },
            {
                "start_time": 84.90681818181818,
                "end_time": 85.975,
                "pitch": 67,
                "velocity": 40,
                "duration": 1.068181818181813,
                "tempo": 120.0
            },
            {
                "start_time": 84.83863636363635,
                "end_time": 86.04090909090908,
                "pitch": 0,
                "velocity": 40,
                "duration": 1.202272727272728,
                "tempo": 120.0
            },
            {
                "start_time": 85.975,
                "end_time": 86.04090909090908,
                "pitch": 55,
                "velocity": 40,
                "duration": 0.06590909090908781,
                "tempo": 120.0
            },
            {
                "start_time": 86.04090909090908,
                "end_time": 86.10909090909091,
                "pitch": 55,
                "velocity": 40,
                "duration": 0.06818181818182723,
                "tempo": 120.0
            },
            {
                "start_time": 85.975,
                "end_time": 86.10909090909091,
                "pitch": 67,
                "velocity": 40,
                "duration": 0.13409090909091503,
                "tempo": 120.0
            },
            {
                "start_time": 86.10909090909091,
                "end_time": 86.9090909090909,
                "pitch": 57,
                "velocity": 40,
                "duration": 0.7999999999999972,
                "tempo": 120.0
            },
            {
                "start_time": 86.9090909090909,
                "end_time": 86.975,
                "pitch": 57,
                "velocity": 40,
                "duration": 0.06590909090908781,
                "tempo": 120.0
            },
            {
                "start_time": 85.10681818181818,
                "end_time": 87.11590909090908,
                "pitch": 59,
                "velocity": 40,
                "duration": 2.009090909090901,
                "tempo": 120.0
            },
            {
                "start_time": 86.975,
                "end_time": 87.11590909090908,
                "pitch": 59,
                "velocity": 40,
                "duration": 0.14090909090909065,
                "tempo": 120.0
            },
            {
                "start_time": 85.5090909090909,
                "end_time": 87.31590909090909,
                "pitch": 61,
                "velocity": 40,
                "duration": 1.806818181818187,
                "tempo": 120.0
            },
            {
                "start_time": 87.11590909090908,
                "end_time": 87.31590909090909,
                "pitch": 61,
                "velocity": 40,
                "duration": 0.20000000000000284,
                "tempo": 120.0
            },
            {
                "start_time": 87.31590909090909,
                "end_time": 87.51818181818182,
                "pitch": 61,
                "velocity": 40,
                "duration": 0.20227272727272805,
                "tempo": 120.0
            },
            {
                "start_time": 87.51818181818182,
                "end_time": 87.7159090909091,
                "pitch": 57,
                "velocity": 40,
                "duration": 0.19772727272727764,
                "tempo": 120.0
            },
            {
                "start_time": 87.7159090909091,
                "end_time": 87.71818181818182,
                "pitch": 17,
                "velocity": 40,
                "duration": 0.0022727272727252057,
                "tempo": 120.0
            },
            {
                "start_time": 87.71818181818182,
                "end_time": 87.78181818181818,
                "pitch": 55,
                "velocity": 40,
                "duration": 0.0636363636363626,
                "tempo": 120.0
            },
            {
                "start_time": 86.10909090909091,
                "end_time": 87.78181818181818,
                "pitch": 67,
                "velocity": 40,
                "duration": 1.672727272727272,
                "tempo": 120.0
            },
            {
                "start_time": 86.04090909090908,
                "end_time": 87.85,
                "pitch": 0,
                "velocity": 40,
                "duration": 1.8090909090909122,
                "tempo": 120.0
            },
            {
                "start_time": 87.78181818181818,
                "end_time": 87.85,
                "pitch": 55,
                "velocity": 40,
                "duration": 0.06818181818181301,
                "tempo": 120.0
            },
            {
                "start_time": 87.85,
                "end_time": 87.91818181818181,
                "pitch": 55,
                "velocity": 40,
                "duration": 0.06818181818181301,
                "tempo": 120.0
            },
            {
                "start_time": 87.91818181818181,
                "end_time": 87.98181818181818,
                "pitch": 55,
                "velocity": 40,
                "duration": 0.06363636363637681,
                "tempo": 120.0
            },
            {
                "start_time": 87.78181818181818,
                "end_time": 87.98181818181818,
                "pitch": 67,
                "velocity": 40,
                "duration": 0.20000000000000284,
                "tempo": 120.0
            },
            {
                "start_time": 87.85,
                "end_time": 88.05,
                "pitch": 0,
                "velocity": 40,
                "duration": 0.20000000000000284,
                "tempo": 120.0
            },
            {
                "start_time": 87.98181818181818,
                "end_time": 88.05,
                "pitch": 55,
                "velocity": 40,
                "duration": 0.06818181818181301,
                "tempo": 120.0
            },
            {
                "start_time": 88.05,
                "end_time": 88.11818181818181,
                "pitch": 55,
                "velocity": 40,
                "duration": 0.06818181818181301,
                "tempo": 120.0
            },
            {
                "start_time": 87.98181818181818,
                "end_time": 88.11818181818181,
                "pitch": 67,
                "velocity": 40,
                "duration": 0.13636363636362603,
                "tempo": 120.0
            },
            {
                "start_time": 87.11590909090908,
                "end_time": 88.32045454545454,
                "pitch": 59,
                "velocity": 40,
                "duration": 1.2045454545454533,
                "tempo": 120.0
            },
            {
                "start_time": 88.11818181818181,
                "end_time": 88.32045454545454,
                "pitch": 59,
                "velocity": 40,
                "duration": 0.20227272727272805,
                "tempo": 120.0
            },
            {
                "start_time": 88.32045454545454,
                "end_time": 88.52045454545454,
                "pitch": 61,
                "velocity": 40,
                "duration": 0.20000000000000284,
                "tempo": 120.0
            },
            {
                "start_time": 88.52045454545454,
                "end_time": 90.11590909090908,
                "pitch": 61,
                "velocity": 40,
                "duration": 1.595454545454544,
                "tempo": 120.0
            },
            {
                "start_time": 87.51818181818182,
                "end_time": 90.11590909090908,
                "pitch": 62,
                "velocity": 40,
                "duration": 2.597727272727269,
                "tempo": 120.0
            },
            {
                "start_time": 81.08636363636363,
                "end_time": 90.31590909090909,
                "pitch": 66,
                "velocity": 40,
                "duration": 9.229545454545459,
                "tempo": 120.0
            },
            {
                "start_time": 90.11590909090908,
                "end_time": 90.31590909090909,
                "pitch": 66,
                "velocity": 40,
                "duration": 0.20000000000000284,
                "tempo": 120.0
            },
            {
                "start_time": 88.11818181818181,
                "end_time": 90.3840909090909,
                "pitch": 67,
                "velocity": 40,
                "duration": 2.2659090909090907,
                "tempo": 120.0
            },
            {
                "start_time": 90.31590909090909,
                "end_time": 90.3840909090909,
                "pitch": 67,
                "velocity": 40,
                "duration": 0.06818181818181301,
                "tempo": 120.0
            },
            {
                "start_time": 70.31363636363636,
                "end_time": 90.3840909090909,
                "pitch": 79,
                "velocity": 40,
                "duration": 20.070454545454538,
                "tempo": 120.0
            },
            {
                "start_time": 90.3840909090909,
                "end_time": 90.52045454545454,
                "pitch": 67,
                "velocity": 40,
                "duration": 0.13636363636364024,
                "tempo": 120.0
            },
            {
                "start_time": 90.3840909090909,
                "end_time": 90.52045454545454,
                "pitch": 79,
                "velocity": 40,
                "duration": 0.13636363636364024,
                "tempo": 120.0
            },
            {
                "start_time": 90.52045454545454,
                "end_time": 90.92272727272727,
                "pitch": 69,
                "velocity": 40,
                "duration": 0.4022727272727309,
                "tempo": 120.0
            },
            {
                "start_time": 90.92272727272727,
                "end_time": 91.11818181818181,
                "pitch": 66,
                "velocity": 40,
                "duration": 0.19545454545453822,
                "tempo": 120.0
            },
            {
                "start_time": 90.11590909090908,
                "end_time": 91.725,
                "pitch": 62,
                "velocity": 40,
                "duration": 1.6090909090909093,
                "tempo": 120.0
            },
            {
                "start_time": 91.11818181818181,
                "end_time": 91.725,
                "pitch": 62,
                "velocity": 40,
                "duration": 0.6068181818181841,
                "tempo": 120.0
            },
            {
                "start_time": 91.725,
                "end_time": 91.92954545454545,
                "pitch": 62,
                "velocity": 40,
                "duration": 0.20454545454545325,
                "tempo": 120.0
            },
            {
                "start_time": 91.92954545454545,
                "end_time": 92.125,
                "pitch": 61,
                "velocity": 40,
                "duration": 0.19545454545455243,
                "tempo": 120.0
            },
            {
                "start_time": 82.09545454545454,
                "end_time": 92.52272727272727,
                "pitch": 64,
                "velocity": 40,
                "duration": 10.427272727272722,
                "tempo": 120.0
            },
            {
                "start_time": 92.125,
                "end_time": 92.52272727272727,
                "pitch": 64,
                "velocity": 40,
                "duration": 0.39772727272726627,
                "tempo": 120.0
            },
            {
                "start_time": 92.52272727272727,
                "end_time": 92.725,
                "pitch": 61,
                "velocity": 40,
                "duration": 0.20227272727272805,
                "tempo": 120.0
            },
            {
                "start_time": 90.92272727272727,
                "end_time": 93.3340909090909,
                "pitch": 57,
                "velocity": 40,
                "duration": 2.4113636363636317,
                "tempo": 120.0
            },
            {
                "start_time": 92.725,
                "end_time": 93.3340909090909,
                "pitch": 57,
                "velocity": 40,
                "duration": 0.6090909090909093,
                "tempo": 120.0
            },
            {
                "start_time": 93.3340909090909,
                "end_time": 93.39999999999999,
                "pitch": 57,
                "velocity": 40,
                "duration": 0.06590909090908781,
                "tempo": 120.0
            },
            {
                "start_time": 88.32045454545454,
                "end_time": 93.54090909090908,
                "pitch": 59,
                "velocity": 40,
                "duration": 5.220454545454544,
                "tempo": 120.0
            },
            {
                "start_time": 93.39999999999999,
                "end_time": 93.54090909090908,
                "pitch": 59,
                "velocity": 40,
                "duration": 0.14090909090909065,
                "tempo": 120.0
            },
            {
                "start_time": 93.54090909090908,
                "end_time": 93.60454545454544,
                "pitch": 55,
                "velocity": 40,
                "duration": 0.0636363636363626,
                "tempo": 120.0
            },
            {
                "start_time": 88.05,
                "end_time": 93.67045454545455,
                "pitch": 0,
                "velocity": 40,
                "duration": 5.62045454545455,
                "tempo": 120.0
            },
            {
                "start_time": 93.60454545454544,
                "end_time": 93.67045454545455,
                "pitch": 55,
                "velocity": 40,
                "duration": 0.06590909090910202,
                "tempo": 120.0
            },
            {
                "start_time": 93.67045454545455,
                "end_time": 93.74090909090908,
                "pitch": 55,
                "velocity": 40,
                "duration": 0.07045454545453822,
                "tempo": 120.0
            },
            {
                "start_time": 93.60454545454544,
                "end_time": 93.74090909090908,
                "pitch": 67,
                "velocity": 40,
                "duration": 0.13636363636364024,
                "tempo": 120.0
            },
            {
                "start_time": 93.74090909090908,
                "end_time": 93.94090909090909,
                "pitch": 59,
                "velocity": 40,
                "duration": 0.20000000000000284,
                "tempo": 120.0
            },
            {
                "start_time": 92.125,
                "end_time": 94.14090909090909,
                "pitch": 62,
                "velocity": 40,
                "duration": 2.0159090909090907,
                "tempo": 120.0
            },
            {
                "start_time": 93.94090909090909,
                "end_time": 94.14090909090909,
                "pitch": 62,
                "velocity": 40,
                "duration": 0.20000000000000284,
                "tempo": 120.0
            },
            {
                "start_time": 93.74090909090908,
                "end_time": 94.20681818181818,
                "pitch": 67,
                "velocity": 40,
                "duration": 0.4659090909090935,
                "tempo": 120.0
            },
            {
                "start_time": 94.14090909090909,
                "end_time": 94.20681818181818,
                "pitch": 67,
                "velocity": 40,
                "duration": 0.06590909090908781,
                "tempo": 120.0
            },
            {
                "start_time": 90.52045454545454,
                "end_time": 94.20681818181818,
                "pitch": 79,
                "velocity": 40,
                "duration": 3.6863636363636374,
                "tempo": 120.0
            },
            {
                "start_time": 94.20681818181818,
                "end_time": 94.34318181818182,
                "pitch": 67,
                "velocity": 40,
                "duration": 0.13636363636364024,
                "tempo": 120.0
            },
            {
                "start_time": 91.11818181818181,
                "end_time": 94.54545454545455,
                "pitch": 66,
                "velocity": 40,
                "duration": 3.4272727272727366,
                "tempo": 120.0
            },
            {
                "start_time": 94.34318181818182,
                "end_time": 94.54545454545455,
                "pitch": 67,
                "velocity": 40,
                "duration": 0.20227272727272805,
                "tempo": 120.0
            },
            {
                "start_time": 94.54545454545455,
                "end_time": 94.74545454545454,
                "pitch": 62,
                "velocity": 40,
                "duration": 0.19999999999998863,
                "tempo": 120.0
            },
            {
                "start_time": 92.52272727272727,
                "end_time": 94.94545454545454,
                "pitch": 64,
                "velocity": 40,
                "duration": 2.422727272727272,
                "tempo": 120.0
            },
            {
                "start_time": 94.74545454545454,
                "end_time": 94.94545454545454,
                "pitch": 64,
                "velocity": 40,
                "duration": 0.20000000000000284,
                "tempo": 120.0
            },
            {
                "start_time": 94.94545454545454,
                "end_time": 95.14545454545454,
                "pitch": 60,
                "velocity": 40,
                "duration": 0.20000000000000284,
                "tempo": 120.0
            },
            {
                "start_time": 94.74545454545454,
                "end_time": 95.34545454545454,
                "pitch": 62,
                "velocity": 40,
                "duration": 0.6000000000000085,
                "tempo": 120.0
            },
            {
                "start_time": 95.14545454545454,
                "end_time": 95.34545454545454,
                "pitch": 62,
                "velocity": 40,
                "duration": 0.20000000000000284,
                "tempo": 120.0
            },
            {
                "start_time": 95.34545454545454,
                "end_time": 95.54772727272727,
                "pitch": 57,
                "velocity": 40,
                "duration": 0.20227272727272805,
                "tempo": 120.0
            },
            {
                "start_time": 95.54772727272727,
                "end_time": 95.61363636363636,
                "pitch": 57,
                "velocity": 40,
                "duration": 0.06590909090908781,
                "tempo": 120.0
            },
            {
                "start_time": 93.94090909090909,
                "end_time": 95.74772727272727,
                "pitch": 59,
                "velocity": 40,
                "duration": 1.806818181818187,
                "tempo": 120.0
            },
            {
                "start_time": 95.61363636363636,
                "end_time": 95.74772727272727,
                "pitch": 59,
                "velocity": 40,
                "duration": 0.13409090909091503,
                "tempo": 120.0
            },
            {
                "start_time": 95.74772727272727,
                "end_time": 95.76136363636363,
                "pitch": 59,
                "velocity": 40,
                "duration": 0.013636363636351234,
                "tempo": 120.0
            },
            {
                "start_time": 95.76136363636363,
                "end_time": 95.94772727272726,
                "pitch": 57,
                "velocity": 40,
                "duration": 0.1863636363636374,
                "tempo": 120.0
            },
            {
                "start_time": 95.94772727272726,
                "end_time": 96.01363636363637,
                "pitch": 57,
                "velocity": 40,
                "duration": 0.06590909090910202,
                "tempo": 120.0
            },
            {
                "start_time": 93.54090909090908,
                "end_time": 96.14772727272727,
                "pitch": 31,
                "velocity": 40,
                "duration": 2.606818181818184,
                "tempo": 120.0
            },
            {
                "start_time": 96.01363636363637,
                "end_time": 96.14772727272727,
                "pitch": 59,
                "velocity": 40,
                "duration": 0.13409090909090082,
                "tempo": 120.0
            },
            {
                "start_time": 94.14090909090909,
                "end_time": 96.21363636363635,
                "pitch": 55,
                "velocity": 40,
                "duration": 2.0727272727272634,
                "tempo": 120.0
            },
            {
                "start_time": 96.14772727272727,
                "end_time": 96.21363636363635,
                "pitch": 55,
                "velocity": 40,
                "duration": 0.06590909090908781,
                "tempo": 120.0
            },
            {
                "start_time": 93.67045454545455,
                "end_time": 96.28181818181818,
                "pitch": 0,
                "velocity": 40,
                "duration": 2.6113636363636346,
                "tempo": 120.0
            },
            {
                "start_time": 96.21363636363635,
                "end_time": 96.28181818181818,
                "pitch": 55,
                "velocity": 40,
                "duration": 0.06818181818182723,
                "tempo": 120.0
            },
            {
                "start_time": 96.28181818181818,
                "end_time": 96.35,
                "pitch": 55,
                "velocity": 40,
                "duration": 0.06818181818181301,
                "tempo": 120.0
            },
            {
                "start_time": 96.21363636363635,
                "end_time": 96.35,
                "pitch": 67,
                "velocity": 40,
                "duration": 0.13636363636364024,
                "tempo": 120.0
            },
            {
                "start_time": 96.28181818181818,
                "end_time": 96.41590909090908,
                "pitch": 0,
                "velocity": 40,
                "duration": 0.13409090909090082,
                "tempo": 120.0
            },
            {
                "start_time": 96.35,
                "end_time": 96.41590909090908,
                "pitch": 55,
                "velocity": 40,
                "duration": 0.06590909090908781,
                "tempo": 120.0
            },
            {
                "start_time": 96.41590909090908,
                "end_time": 96.48181818181818,
                "pitch": 55,
                "velocity": 40,
                "duration": 0.06590909090910202,
                "tempo": 120.0
            },
            {
                "start_time": 96.35,
                "end_time": 96.48181818181818,
                "pitch": 67,
                "velocity": 40,
                "duration": 0.13181818181818983,
                "tempo": 120.0
            },
            {
                "start_time": 96.48181818181818,
                "end_time": 96.55227272727272,
                "pitch": 55,
                "velocity": 40,
                "duration": 0.07045454545453822,
                "tempo": 120.0
            },
            {
                "start_time": 90.31590909090909,
                "end_time": 96.75227272727273,
                "pitch": 65,
                "velocity": 40,
                "duration": 6.436363636363637,
                "tempo": 120.0
            },
            {
                "start_time": 94.54545454545455,
                "end_time": 96.75227272727273,
                "pitch": 66,
                "velocity": 40,
                "duration": 2.2068181818181785,
                "tempo": 120.0
            },
            {
                "start_time": 96.55227272727272,
                "end_time": 96.75227272727273,
                "pitch": 66,
                "velocity": 40,
                "duration": 0.20000000000000284,
                "tempo": 120.0
            },
            {
                "start_time": 96.48181818181818,
                "end_time": 96.81818181818181,
                "pitch": 67,
                "velocity": 40,
                "duration": 0.33636363636362887,
                "tempo": 120.0
            },
            {
                "start_time": 96.75227272727273,
                "end_time": 96.81818181818181,
                "pitch": 67,
                "velocity": 40,
                "duration": 0.06590909090908781,
                "tempo": 120.0
            },
            {
                "start_time": 94.20681818181818,
                "end_time": 96.81818181818181,
                "pitch": 79,
                "velocity": 40,
                "duration": 2.6113636363636346,
                "tempo": 120.0
            },
            {
                "start_time": 96.81818181818181,
                "end_time": 96.95227272727273,
                "pitch": 67,
                "velocity": 40,
                "duration": 0.13409090909091503,
                "tempo": 120.0
            },
            {
                "start_time": 96.81818181818181,
                "end_time": 96.95227272727273,
                "pitch": 79,
                "velocity": 40,
                "duration": 0.13409090909091503,
                "tempo": 120.0
            },
            {
                "start_time": 96.95227272727273,
                "end_time": 97.35454545454544,
                "pitch": 69,
                "velocity": 40,
                "duration": 0.4022727272727167,
                "tempo": 120.0
            },
            {
                "start_time": 97.35454545454544,
                "end_time": 97.55454545454545,
                "pitch": 66,
                "velocity": 40,
                "duration": 0.20000000000000284,
                "tempo": 120.0
            },
            {
                "start_time": 95.34545454545454,
                "end_time": 98.15227272727272,
                "pitch": 62,
                "velocity": 40,
                "duration": 2.8068181818181728,
                "tempo": 120.0
            },
            {
                "start_time": 97.55454545454545,
                "end_time": 98.15227272727272,
                "pitch": 62,
                "velocity": 40,
                "duration": 0.5977272727272691,
                "tempo": 120.0
            },
            {
                "start_time": 98.15227272727272,
                "end_time": 98.35909090909091,
                "pitch": 62,
                "velocity": 40,
                "duration": 0.20681818181819267,
                "tempo": 120.0
            },
            {
                "start_time": 92.725,
                "end_time": 98.5590909090909,
                "pitch": 61,
                "velocity": 40,
                "duration": 5.834090909090904,
                "tempo": 120.0
            },
            {
                "start_time": 98.35909090909091,
                "end_time": 98.5590909090909,
                "pitch": 61,
                "velocity": 40,
                "duration": 0.19999999999998863,
                "tempo": 120.0
            },
            {
                "start_time": 95.14545454545454,
                "end_time": 98.96136363636363,
                "pitch": 60,
                "velocity": 40,
                "duration": 3.815909090909088,
                "tempo": 120.0
            },
            {
                "start_time": 94.94545454545454,
                "end_time": 98.96136363636363,
                "pitch": 64,
                "velocity": 40,
                "duration": 4.015909090909091,
                "tempo": 120.0
            },
            {
                "start_time": 98.5590909090909,
                "end_time": 98.96136363636363,
                "pitch": 64,
                "velocity": 40,
                "duration": 0.4022727272727309,
                "tempo": 120.0
            },
            {
                "start_time": 98.96136363636363,
                "end_time": 99.02499999999999,
                "pitch": 67,
                "velocity": 40,
                "duration": 0.0636363636363626,
                "tempo": 120.0
            },
            {
                "start_time": 96.95227272727273,
                "end_time": 99.02499999999999,
                "pitch": 79,
                "velocity": 40,
                "duration": 2.0727272727272634,
                "tempo": 120.0
            },
            {
                "start_time": 99.02499999999999,
                "end_time": 99.1590909090909,
                "pitch": 67,
                "velocity": 40,
                "duration": 0.13409090909091503,
                "tempo": 120.0
            },
            {
                "start_time": 99.1590909090909,
                "end_time": 99.76363636363637,
                "pitch": 67,
                "velocity": 40,
                "duration": 0.6045454545454589,
                "tempo": 120.0
            },
            {
                "start_time": 97.55454545454545,
                "end_time": 99.76590909090909,
                "pitch": 66,
                "velocity": 40,
                "duration": 2.211363636363643,
                "tempo": 120.0
            },
            {
                "start_time": 99.76363636363637,
                "end_time": 99.76590909090909,
                "pitch": 66,
                "velocity": 40,
                "duration": 0.0022727272727252057,
                "tempo": 120.0
            },
            {
                "start_time": 97.35454545454544,
                "end_time": 99.96363636363635,
                "pitch": 57,
                "velocity": 40,
                "duration": 2.6090909090909093,
                "tempo": 120.0
            },
            {
                "start_time": 99.76590909090909,
                "end_time": 99.96363636363635,
                "pitch": 57,
                "velocity": 40,
                "duration": 0.19772727272726343,
                "tempo": 120.0
            },
            {
                "start_time": 99.96363636363635,
                "end_time": 100.16590909090908,
                "pitch": 64,
                "velocity": 40,
                "duration": 0.20227272727272805,
                "tempo": 120.0
            },
            {
                "start_time": 74.46818181818182,
                "end_time": 100.16590909090908,
                "pitch": 76,
                "velocity": 40,
                "duration": 25.697727272727263,
                "tempo": 120.0
            },
            {
                "start_time": 69.24545454545454,
                "end_time": 100.36818181818181,
                "pitch": 30,
                "velocity": 40,
                "duration": 31.122727272727275,
                "tempo": 120.0
            },
            {
                "start_time": 100.16590909090908,
                "end_time": 100.36818181818181,
                "pitch": 69,
                "velocity": 40,
                "duration": 0.20227272727272805,
                "tempo": 120.0
            },
            {
                "start_time": 100.36818181818181,
                "end_time": 100.43181818181817,
                "pitch": 67,
                "velocity": 40,
                "duration": 0.0636363636363626,
                "tempo": 120.0
            },
            {
                "start_time": 99.02499999999999,
                "end_time": 100.43181818181817,
                "pitch": 79,
                "velocity": 40,
                "duration": 1.4068181818181813,
                "tempo": 120.0
            },
            {
                "start_time": 100.43181818181817,
                "end_time": 100.56818181818181,
                "pitch": 67,
                "velocity": 40,
                "duration": 0.13636363636364024,
                "tempo": 120.0
            },
            {
                "start_time": 100.56818181818181,
                "end_time": 100.77045454545454,
                "pitch": 67,
                "velocity": 40,
                "duration": 0.20227272727272805,
                "tempo": 120.0
            },
            {
                "start_time": 99.96363636363635,
                "end_time": 100.97045454545454,
                "pitch": 57,
                "velocity": 40,
                "duration": 1.0068181818181898,
                "tempo": 120.0
            },
            {
                "start_time": 100.77045454545454,
                "end_time": 100.97045454545454,
                "pitch": 57,
                "velocity": 40,
                "duration": 0.20000000000000284,
                "tempo": 120.0
            },
            {
                "start_time": 98.5590909090909,
                "end_time": 101.17045454545455,
                "pitch": 62,
                "velocity": 40,
                "duration": 2.6113636363636488,
                "tempo": 120.0
            },
            {
                "start_time": 100.97045454545454,
                "end_time": 101.17045454545455,
                "pitch": 62,
                "velocity": 40,
                "duration": 0.20000000000000284,
                "tempo": 120.0
            },
            {
                "start_time": 71.65454545454546,
                "end_time": 101.37045454545454,
                "pitch": 48,
                "velocity": 40,
                "duration": 29.71590909090908,
                "tempo": 120.0
            },
            {
                "start_time": 101.17045454545455,
                "end_time": 101.37045454545454,
                "pitch": 64,
                "velocity": 40,
                "duration": 0.19999999999998863,
                "tempo": 120.0
            },
            {
                "start_time": 96.55227272727272,
                "end_time": 101.43636363636364,
                "pitch": 55,
                "velocity": 40,
                "duration": 4.884090909090915,
                "tempo": 120.0
            },
            {
                "start_time": 101.37045454545454,
                "end_time": 101.43636363636364,
                "pitch": 55,
                "velocity": 40,
                "duration": 0.06590909090910202,
                "tempo": 120.0
            },
            {
                "start_time": 96.41590909090908,
                "end_time": 101.50227272727273,
                "pitch": 0,
                "velocity": 40,
                "duration": 5.086363636363643,
                "tempo": 120.0
            },
            {
                "start_time": 101.43636363636364,
                "end_time": 101.50227272727273,
                "pitch": 55,
                "velocity": 40,
                "duration": 0.06590909090908781,
                "tempo": 120.0
            },
            {
                "start_time": 101.50227272727273,
                "end_time": 101.57272727272726,
                "pitch": 55,
                "velocity": 40,
                "duration": 0.07045454545453822,
                "tempo": 120.0
            },
            {
                "start_time": 101.43636363636364,
                "end_time": 101.57272727272726,
                "pitch": 67,
                "velocity": 40,
                "duration": 0.13636363636362603,
                "tempo": 120.0
            },
            {
                "start_time": 101.57272727272726,
                "end_time": 101.77272727272727,
                "pitch": 61,
                "velocity": 40,
                "duration": 0.20000000000000284,
                "tempo": 120.0
            },
            {
                "start_time": 101.77272727272727,
                "end_time": 101.97272727272727,
                "pitch": 61,
                "velocity": 40,
                "duration": 0.20000000000000284,
                "tempo": 120.0
            },
            {
                "start_time": 101.17045454545455,
                "end_time": 101.97272727272727,
                "pitch": 62,
                "velocity": 40,
                "duration": 0.8022727272727224,
                "tempo": 120.0
            },
            {
                "start_time": 100.97045454545454,
                "end_time": 102.17272727272727,
                "pitch": 57,
                "velocity": 40,
                "duration": 1.202272727272728,
                "tempo": 120.0
            },
            {
                "start_time": 101.97272727272727,
                "end_time": 102.17272727272727,
                "pitch": 57,
                "velocity": 40,
                "duration": 0.20000000000000284,
                "tempo": 120.0
            },
            {
                "start_time": 102.17272727272727,
                "end_time": 102.375,
                "pitch": 64,
                "velocity": 40,
                "duration": 0.20227272727272805,
                "tempo": 120.0
            },
            {
                "start_time": 101.97272727272727,
                "end_time": 102.57727272727273,
                "pitch": 62,
                "velocity": 40,
                "duration": 0.6045454545454589,
                "tempo": 120.0
            },
            {
                "start_time": 102.375,
                "end_time": 102.57727272727273,
                "pitch": 62,
                "velocity": 40,
                "duration": 0.20227272727272805,
                "tempo": 120.0
            },
            {
                "start_time": 100.36818181818181,
                "end_time": 102.77727272727272,
                "pitch": 30,
                "velocity": 40,
                "duration": 2.4090909090909065,
                "tempo": 120.0
            },
            {
                "start_time": 102.17272727272727,
                "end_time": 102.77727272727272,
                "pitch": 57,
                "velocity": 40,
                "duration": 0.6045454545454447,
                "tempo": 120.0
            },
            {
                "start_time": 102.57727272727273,
                "end_time": 102.77727272727272,
                "pitch": 57,
                "velocity": 40,
                "duration": 0.19999999999998863,
                "tempo": 120.0
            },
            {
                "start_time": 101.57272727272726,
                "end_time": 102.84318181818182,
                "pitch": 67,
                "velocity": 40,
                "duration": 1.2704545454545553,
                "tempo": 120.0
            },
            {
                "start_time": 102.77727272727272,
                "end_time": 102.84318181818182,
                "pitch": 67,
                "velocity": 40,
                "duration": 0.06590909090910202,
                "tempo": 120.0
            },
            {
                "start_time": 100.43181818181817,
                "end_time": 102.84318181818182,
                "pitch": 79,
                "velocity": 40,
                "duration": 2.411363636363646,
                "tempo": 120.0
            },
            {
                "start_time": 102.84318181818182,
                "end_time": 102.97727272727272,
                "pitch": 67,
                "velocity": 40,
                "duration": 0.13409090909090082,
                "tempo": 120.0
            },
            {
                "start_time": 102.84318181818182,
                "end_time": 102.97727272727272,
                "pitch": 79,
                "velocity": 40,
                "duration": 0.13409090909090082,
                "tempo": 120.0
            },
            {
                "start_time": 102.97727272727272,
                "end_time": 103.17727272727272,
                "pitch": 72,
                "velocity": 40,
                "duration": 0.20000000000000284,
                "tempo": 120.0
            },
            {
                "start_time": 103.17727272727272,
                "end_time": 103.37954545454545,
                "pitch": 69,
                "velocity": 40,
                "duration": 0.20227272727272805,
                "tempo": 120.0
            },
            {
                "start_time": 100.77045454545454,
                "end_time": 103.57954545454545,
                "pitch": 66,
                "velocity": 40,
                "duration": 2.809090909090912,
                "tempo": 120.0
            },
            {
                "start_time": 103.37954545454545,
                "end_time": 103.57954545454545,
                "pitch": 66,
                "velocity": 40,
                "duration": 0.20000000000000284,
                "tempo": 120.0
            },
            {
                "start_time": 102.57727272727273,
                "end_time": 103.78181818181818,
                "pitch": 62,
                "velocity": 40,
                "duration": 1.2045454545454533,
                "tempo": 120.0
            },
            {
                "start_time": 103.57954545454545,
                "end_time": 103.78181818181818,
                "pitch": 62,
                "velocity": 40,
                "duration": 0.20227272727272805,
                "tempo": 120.0
            },
            {
                "start_time": 103.78181818181818,
                "end_time": 103.98181818181817,
                "pitch": 62,
                "velocity": 40,
                "duration": 0.19999999999998863,
                "tempo": 120.0
            },
            {
                "start_time": 103.98181818181817,
                "end_time": 104.18181818181817,
                "pitch": 61,
                "velocity": 40,
                "duration": 0.20000000000000284,
                "tempo": 120.0
            },
            {
                "start_time": 36.76363636363636,
                "end_time": 104.18181818181817,
                "pitch": 74,
                "velocity": 40,
                "duration": 67.41818181818181,
                "tempo": 120.0
            },
            {
                "start_time": 103.17727272727272,
                "end_time": 104.3840909090909,
                "pitch": 72,
                "velocity": 40,
                "duration": 1.2068181818181785,
                "tempo": 120.0
            },
            {
                "start_time": 104.18181818181817,
                "end_time": 104.3840909090909,
                "pitch": 72,
                "velocity": 40,
                "duration": 0.20227272727272805,
                "tempo": 120.0
            },
            {
                "start_time": 103.37954545454545,
                "end_time": 104.5840909090909,
                "pitch": 57,
                "velocity": 40,
                "duration": 1.2045454545454533,
                "tempo": 120.0
            },
            {
                "start_time": 104.3840909090909,
                "end_time": 104.5840909090909,
                "pitch": 69,
                "velocity": 40,
                "duration": 0.20000000000000284,
                "tempo": 120.0
            },
            {
                "start_time": 103.57954545454545,
                "end_time": 104.78636363636363,
                "pitch": 66,
                "velocity": 40,
                "duration": 1.2068181818181785,
                "tempo": 120.0
            },
            {
                "start_time": 104.5840909090909,
                "end_time": 104.78636363636363,
                "pitch": 66,
                "velocity": 40,
                "duration": 0.20227272727272805,
                "tempo": 120.0
            },
            {
                "start_time": 73.26136363636363,
                "end_time": 104.78636363636363,
                "pitch": 78,
                "velocity": 40,
                "duration": 31.525000000000006,
                "tempo": 120.0
            },
            {
                "start_time": 104.78636363636363,
                "end_time": 104.98636363636363,
                "pitch": 69,
                "velocity": 40,
                "duration": 0.20000000000000284,
                "tempo": 120.0
            },
            {
                "start_time": 104.3840909090909,
                "end_time": 105.18636363636364,
                "pitch": 72,
                "velocity": 40,
                "duration": 0.8022727272727366,
                "tempo": 120.0
            },
            {
                "start_time": 104.98636363636363,
                "end_time": 105.18636363636364,
                "pitch": 72,
                "velocity": 40,
                "duration": 0.20000000000000284,
                "tempo": 120.0
            },
            {
                "start_time": 104.5840909090909,
                "end_time": 105.38863636363637,
                "pitch": 57,
                "velocity": 40,
                "duration": 0.8045454545454618,
                "tempo": 120.0
            },
            {
                "start_time": 104.98636363636363,
                "end_time": 105.38863636363637,
                "pitch": 69,
                "velocity": 40,
                "duration": 0.4022727272727309,
                "tempo": 120.0
            },
            {
                "start_time": 105.18636363636364,
                "end_time": 105.38863636363637,
                "pitch": 69,
                "velocity": 40,
                "duration": 0.20227272727272805,
                "tempo": 120.0
            },
            {
                "start_time": 105.38863636363637,
                "end_time": 105.58863636363635,
                "pitch": 66,
                "velocity": 40,
                "duration": 0.19999999999998863,
                "tempo": 120.0
            },
            {
                "start_time": 104.78636363636363,
                "end_time": 105.58863636363635,
                "pitch": 78,
                "velocity": 40,
                "duration": 0.8022727272727224,
                "tempo": 120.0
            },
            {
                "start_time": 105.38863636363637,
                "end_time": 105.78863636363636,
                "pitch": 57,
                "velocity": 40,
                "duration": 0.3999999999999915,
                "tempo": 120.0
            },
            {
                "start_time": 105.58863636363635,
                "end_time": 105.78863636363636,
                "pitch": 69,
                "velocity": 40,
                "duration": 0.20000000000000284,
                "tempo": 120.0
            },
            {
                "start_time": 105.78863636363636,
                "end_time": 105.98863636363636,
                "pitch": 66,
                "velocity": 40,
                "duration": 0.20000000000000284,
                "tempo": 120.0
            },
            {
                "start_time": 105.98863636363636,
                "end_time": 106.19090909090909,
                "pitch": 62,
                "velocity": 40,
                "duration": 0.20227272727272805,
                "tempo": 120.0
            },
            {
                "start_time": 106.19090909090909,
                "end_time": 106.39090909090909,
                "pitch": 62,
                "velocity": 40,
                "duration": 0.20000000000000284,
                "tempo": 120.0
            },
            {
                "start_time": 69.04545454545455,
                "end_time": 106.39090909090909,
                "pitch": 73,
                "velocity": 40,
                "duration": 37.345454545454544,
                "tempo": 120.0
            },
            {
                "start_time": 102.77727272727272,
                "end_time": 106.59318181818182,
                "pitch": 30,
                "velocity": 40,
                "duration": 3.815909090909102,
                "tempo": 120.0
            },
            {
                "start_time": 106.39090909090909,
                "end_time": 106.59318181818182,
                "pitch": 69,
                "velocity": 40,
                "duration": 0.20227272727272805,
                "tempo": 120.0
            },
            {
                "start_time": 106.59318181818182,
                "end_time": 106.65681818181818,
                "pitch": 67,
                "velocity": 40,
                "duration": 0.0636363636363626,
                "tempo": 120.0
            },
            {
                "start_time": 102.97727272727272,
                "end_time": 106.65681818181818,
                "pitch": 79,
                "velocity": 40,
                "duration": 3.679545454545462,
                "tempo": 120.0
            },
            {
                "start_time": 106.65681818181818,
                "end_time": 106.79318181818181,
                "pitch": 67,
                "velocity": 40,
                "duration": 0.13636363636362603,
                "tempo": 120.0
            },
            {
                "start_time": 102.375,
                "end_time": 106.99318181818181,
                "pitch": 64,
                "velocity": 40,
                "duration": 4.61818181818181,
                "tempo": 120.0
            },
            {
                "start_time": 106.79318181818181,
                "end_time": 106.99318181818181,
                "pitch": 64,
                "velocity": 40,
                "duration": 0.20000000000000284,
                "tempo": 120.0
            },
            {
                "start_time": 106.99318181818181,
                "end_time": 107.0590909090909,
                "pitch": 64,
                "velocity": 40,
                "duration": 0.06590909090908781,
                "tempo": 120.0
            },
            {
                "start_time": 105.98863636363636,
                "end_time": 107.19318181818181,
                "pitch": 66,
                "velocity": 40,
                "duration": 1.2045454545454533,
                "tempo": 120.0
            },
            {
                "start_time": 107.0590909090909,
                "end_time": 107.19318181818181,
                "pitch": 66,
                "velocity": 40,
                "duration": 0.13409090909091503,
                "tempo": 120.0
            },
            {
                "start_time": 107.19318181818181,
                "end_time": 107.39545454545454,
                "pitch": 62,
                "velocity": 40,
                "duration": 0.20227272727272805,
                "tempo": 120.0
            },
            {
                "start_time": 104.18181818181817,
                "end_time": 107.39545454545454,
                "pitch": 74,
                "velocity": 40,
                "duration": 3.2136363636363683,
                "tempo": 120.0
            },
            {
                "start_time": 105.78863636363636,
                "end_time": 107.59772727272727,
                "pitch": 57,
                "velocity": 40,
                "duration": 1.8090909090909122,
                "tempo": 120.0
            },
            {
                "start_time": 107.39545454545454,
                "end_time": 107.59772727272727,
                "pitch": 69,
                "velocity": 40,
                "duration": 0.20227272727272805,
                "tempo": 120.0
            },
            {
                "start_time": 107.19318181818181,
                "end_time": 107.79772727272727,
                "pitch": 66,
                "velocity": 40,
                "duration": 0.6045454545454589,
                "tempo": 120.0
            },
            {
                "start_time": 107.59772727272727,
                "end_time": 107.79772727272727,
                "pitch": 66,
                "velocity": 40,
                "duration": 0.20000000000000284,
                "tempo": 120.0
            },
            {
                "start_time": 107.79772727272727,
                "end_time": 107.99772727272726,
                "pitch": 59,
                "velocity": 40,
                "duration": 0.19999999999998863,
                "tempo": 120.0
            },
            {
                "start_time": 107.99772727272726,
                "end_time": 108.19772727272726,
                "pitch": 64,
                "velocity": 40,
                "duration": 0.20000000000000284,
                "tempo": 120.0
            },
            {
                "start_time": 108.19772727272726,
                "end_time": 108.39999999999999,
                "pitch": 61,
                "velocity": 40,
                "duration": 0.20227272727272805,
                "tempo": 120.0
            },
            {
                "start_time": 106.39090909090909,
                "end_time": 108.39999999999999,
                "pitch": 73,
                "velocity": 40,
                "duration": 2.009090909090901,
                "tempo": 120.0
            },
            {
                "start_time": 107.59772727272727,
                "end_time": 108.6,
                "pitch": 57,
                "velocity": 40,
                "duration": 1.0022727272727252,
                "tempo": 120.0
            },
            {
                "start_time": 108.39999999999999,
                "end_time": 108.6,
                "pitch": 69,
                "velocity": 40,
                "duration": 0.20000000000000284,
                "tempo": 120.0
            },
            {
                "start_time": 107.79772727272727,
                "end_time": 108.80227272727272,
                "pitch": 66,
                "velocity": 40,
                "duration": 1.0045454545454504,
                "tempo": 120.0
            },
            {
                "start_time": 108.6,
                "end_time": 108.80227272727272,
                "pitch": 66,
                "velocity": 40,
                "duration": 0.20227272727272805,
                "tempo": 120.0
            },
            {
                "start_time": 108.80227272727272,
                "end_time": 109.00227272727273,
                "pitch": 62,
                "velocity": 40,
                "duration": 0.20000000000000284,
                "tempo": 120.0
            },
            {
                "start_time": 106.79318181818181,
                "end_time": 109.06590909090909,
                "pitch": 67,
                "velocity": 40,
                "duration": 2.2727272727272805,
                "tempo": 120.0
            },
            {
                "start_time": 109.00227272727273,
                "end_time": 109.06590909090909,
                "pitch": 67,
                "velocity": 40,
                "duration": 0.0636363636363626,
                "tempo": 120.0
            },
            {
                "start_time": 106.65681818181818,
                "end_time": 109.06590909090909,
                "pitch": 79,
                "velocity": 40,
                "duration": 2.4090909090909065,
                "tempo": 120.0
            },
            {
                "start_time": 109.06590909090909,
                "end_time": 109.20227272727273,
                "pitch": 67,
                "velocity": 40,
                "duration": 0.13636363636364024,
                "tempo": 120.0
            },
            {
                "start_time": 109.20227272727273,
                "end_time": 109.40454545454546,
                "pitch": 61,
                "velocity": 40,
                "duration": 0.20227272727272805,
                "tempo": 120.0
            },
            {
                "start_time": 105.18636363636364,
                "end_time": 109.60454545454544,
                "pitch": 72,
                "velocity": 40,
                "duration": 4.418181818181807,
                "tempo": 120.0
            },
            {
                "start_time": 108.39999999999999,
                "end_time": 109.60454545454544,
                "pitch": 73,
                "velocity": 40,
                "duration": 1.2045454545454533,
                "tempo": 120.0
            },
            {
                "start_time": 109.40454545454546,
                "end_time": 109.60454545454544,
                "pitch": 73,
                "velocity": 40,
                "duration": 0.19999999999998863,
                "tempo": 120.0
            },
            {
                "start_time": 108.6,
                "end_time": 109.80454545454545,
                "pitch": 57,
                "velocity": 40,
                "duration": 1.2045454545454533,
                "tempo": 120.0
            },
            {
                "start_time": 109.60454545454544,
                "end_time": 109.80454545454545,
                "pitch": 69,
                "velocity": 40,
                "duration": 0.20000000000000284,
                "tempo": 120.0
            },
            {
                "start_time": 108.80227272727272,
                "end_time": 110.00454545454545,
                "pitch": 66,
                "velocity": 40,
                "duration": 1.202272727272728,
                "tempo": 120.0
            },
            {
                "start_time": 109.80454545454545,
                "end_time": 110.00454545454545,
                "pitch": 66,
                "velocity": 40,
                "duration": 0.20000000000000284,
                "tempo": 120.0
            },
            {
                "start_time": 110.00454545454545,
                "end_time": 110.20681818181818,
                "pitch": 62,
                "velocity": 40,
                "duration": 0.20227272727272805,
                "tempo": 120.0
            },
            {
                "start_time": 110.20681818181818,
                "end_time": 110.40681818181818,
                "pitch": 62,
                "velocity": 40,
                "duration": 0.20000000000000284,
                "tempo": 120.0
            },
            {
                "start_time": 108.19772727272726,
                "end_time": 110.60909090909091,
                "pitch": 64,
                "velocity": 40,
                "duration": 2.411363636363646,
                "tempo": 120.0
            },
            {
                "start_time": 110.40681818181818,
                "end_time": 110.60909090909091,
                "pitch": 64,
                "velocity": 40,
                "duration": 0.20227272727272805,
                "tempo": 120.0
            },
            {
                "start_time": 100.16590909090908,
                "end_time": 110.60909090909091,
                "pitch": 76,
                "velocity": 40,
                "duration": 10.443181818181827,
                "tempo": 120.0
            },
            {
                "start_time": 109.60454545454544,
                "end_time": 110.81136363636364,
                "pitch": 72,
                "velocity": 40,
                "duration": 1.2068181818181927,
                "tempo": 120.0
            },
            {
                "start_time": 110.60909090909091,
                "end_time": 110.81136363636364,
                "pitch": 72,
                "velocity": 40,
                "duration": 0.20227272727272805,
                "tempo": 120.0
            },
            {
                "start_time": 106.59318181818182,
                "end_time": 111.01136363636363,
                "pitch": 30,
                "velocity": 40,
                "duration": 4.418181818181807,
                "tempo": 120.0
            },
            {
                "start_time": 110.81136363636364,
                "end_time": 111.01136363636363,
                "pitch": 69,
                "velocity": 40,
                "duration": 0.19999999999998863,
                "tempo": 120.0
            },
            {
                "start_time": 109.20227272727273,
                "end_time": 111.07499999999999,
                "pitch": 67,
                "velocity": 40,
                "duration": 1.8727272727272606,
                "tempo": 120.0
            },
            {
                "start_time": 111.01136363636363,
                "end_time": 111.07499999999999,
                "pitch": 67,
                "velocity": 40,
                "duration": 0.0636363636363626,
                "tempo": 120.0
            },
            {
                "start_time": 109.06590909090909,
                "end_time": 111.07499999999999,
                "pitch": 79,
                "velocity": 40,
                "duration": 2.009090909090901,
                "tempo": 120.0
            },
            {
                "start_time": 111.07499999999999,
                "end_time": 111.21136363636363,
                "pitch": 67,
                "velocity": 40,
                "duration": 0.13636363636364024,
                "tempo": 120.0
            },
            {
                "start_time": 111.07499999999999,
                "end_time": 111.21136363636363,
                "pitch": 79,
                "velocity": 40,
                "duration": 0.13636363636364024,
                "tempo": 120.0
            },
            {
                "start_time": 84.70681818181818,
                "end_time": 111.41136363636363,
                "pitch": 43,
                "velocity": 40,
                "duration": 26.704545454545453,
                "tempo": 120.0
            },
            {
                "start_time": 74.66818181818182,
                "end_time": 111.41136363636363,
                "pitch": 71,
                "velocity": 40,
                "duration": 36.74318181818181,
                "tempo": 120.0
            },
            {
                "start_time": 111.21136363636363,
                "end_time": 111.41136363636363,
                "pitch": 71,
                "velocity": 40,
                "duration": 0.20000000000000284,
                "tempo": 120.0
            },
            {
                "start_time": 111.41136363636363,
                "end_time": 111.47727272727272,
                "pitch": 67,
                "velocity": 40,
                "duration": 0.06590909090908781,
                "tempo": 120.0
            },
            {
                "start_time": 111.21136363636363,
                "end_time": 111.47727272727272,
                "pitch": 79,
                "velocity": 40,
                "duration": 0.26590909090909065,
                "tempo": 120.0
            },
            {
                "start_time": 111.47727272727272,
                "end_time": 111.61363636363636,
                "pitch": 67,
                "velocity": 40,
                "duration": 0.13636363636364024,
                "tempo": 120.0
            },
            {
                "start_time": 111.61363636363636,
                "end_time": 111.81363636363636,
                "pitch": 64,
                "velocity": 40,
                "duration": 0.20000000000000284,
                "tempo": 120.0
            },
            {
                "start_time": 111.81363636363636,
                "end_time": 111.87727272727273,
                "pitch": 64,
                "velocity": 40,
                "duration": 0.0636363636363626,
                "tempo": 120.0
            },
            {
                "start_time": 110.00454545454545,
                "end_time": 112.01363636363635,
                "pitch": 66,
                "velocity": 40,
                "duration": 2.009090909090901,
                "tempo": 120.0
            },
            {
                "start_time": 111.87727272727273,
                "end_time": 112.01363636363635,
                "pitch": 66,
                "velocity": 40,
                "duration": 0.13636363636362603,
                "tempo": 120.0
            },
            {
                "start_time": 105.58863636363635,
                "end_time": 112.01363636363635,
                "pitch": 78,
                "velocity": 40,
                "duration": 6.424999999999997,
                "tempo": 120.0
            },
            {
                "start_time": 109.80454545454545,
                "end_time": 112.21363636363635,
                "pitch": 57,
                "velocity": 40,
                "duration": 2.4090909090909065,
                "tempo": 120.0
            },
            {
                "start_time": 112.01363636363635,
                "end_time": 112.21363636363635,
                "pitch": 69,
                "velocity": 40,
                "duration": 0.20000000000000284,
                "tempo": 120.0
            },
            {
                "start_time": 112.21363636363635,
                "end_time": 112.41590909090908,
                "pitch": 66,
                "velocity": 40,
                "duration": 0.20227272727272805,
                "tempo": 120.0
            },
            {
                "start_time": 109.00227272727273,
                "end_time": 112.61818181818181,
                "pitch": 55,
                "velocity": 40,
                "duration": 3.615909090909085,
                "tempo": 120.0
            },
            {
                "start_time": 112.41590909090908,
                "end_time": 112.61818181818181,
                "pitch": 62,
                "velocity": 40,
                "duration": 0.20227272727272805,
                "tempo": 120.0
            },
            {
                "start_time": 111.61363636363636,
                "end_time": 112.68181818181817,
                "pitch": 67,
                "velocity": 40,
                "duration": 1.068181818181813,
                "tempo": 120.0
            },
            {
                "start_time": 112.61818181818181,
                "end_time": 112.68181818181817,
                "pitch": 67,
                "velocity": 40,
                "duration": 0.0636363636363626,
                "tempo": 120.0
            },
            {
                "start_time": 111.47727272727272,
                "end_time": 112.68181818181817,
                "pitch": 79,
                "velocity": 40,
                "duration": 1.2045454545454533,
                "tempo": 120.0
            },
            {
                "start_time": 112.68181818181817,
                "end_time": 112.81818181818181,
                "pitch": 67,
                "velocity": 40,
                "duration": 0.13636363636364024,
                "tempo": 120.0
            },
            {
                "start_time": 112.81818181818181,
                "end_time": 113.01818181818182,
                "pitch": 64,
                "velocity": 40,
                "duration": 0.20000000000000284,
                "tempo": 120.0
            },
            {
                "start_time": 110.60909090909091,
                "end_time": 113.01818181818182,
                "pitch": 76,
                "velocity": 40,
                "duration": 2.4090909090909065,
                "tempo": 120.0
            },
            {
                "start_time": 111.41136363636363,
                "end_time": 113.21818181818182,
                "pitch": 43,
                "velocity": 40,
                "duration": 1.806818181818187,
                "tempo": 120.0
            },
            {
                "start_time": 113.01818181818182,
                "end_time": 113.21818181818182,
                "pitch": 71,
                "velocity": 40,
                "duration": 0.20000000000000284,
                "tempo": 120.0
            },
            {
                "start_time": 112.81818181818181,
                "end_time": 113.28181818181818,
                "pitch": 67,
                "velocity": 40,
                "duration": 0.4636363636363683,
                "tempo": 120.0
            },
            {
                "start_time": 113.21818181818182,
                "end_time": 113.28181818181818,
                "pitch": 67,
                "velocity": 40,
                "duration": 0.0636363636363626,
                "tempo": 120.0
            },
            {
                "start_time": 112.68181818181817,
                "end_time": 113.2840909090909,
                "pitch": 79,
                "velocity": 40,
                "duration": 0.6022727272727337,
                "tempo": 120.0
            },
            {
                "start_time": 113.28181818181818,
                "end_time": 113.2840909090909,
                "pitch": 79,
                "velocity": 40,
                "duration": 0.0022727272727252057,
                "tempo": 120.0
            },
            {
                "start_time": 113.2840909090909,
                "end_time": 113.42045454545455,
                "pitch": 67,
                "velocity": 40,
                "duration": 0.13636363636364024,
                "tempo": 120.0
            },
            {
                "start_time": 113.42045454545455,
                "end_time": 113.62045454545454,
                "pitch": 64,
                "velocity": 40,
                "duration": 0.19999999999998863,
                "tempo": 120.0
            },
            {
                "start_time": 113.01818181818182,
                "end_time": 113.62045454545454,
                "pitch": 76,
                "velocity": 40,
                "duration": 0.6022727272727195,
                "tempo": 120.0
            },
            {
                "start_time": 112.21363636363635,
                "end_time": 113.82045454545454,
                "pitch": 57,
                "velocity": 40,
                "duration": 1.6068181818181841,
                "tempo": 120.0
            },
            {
                "start_time": 113.62045454545454,
                "end_time": 113.82045454545454,
                "pitch": 69,
                "velocity": 40,
                "duration": 0.20000000000000284,
                "tempo": 120.0
            },
            {
                "start_time": 112.41590909090908,
                "end_time": 114.02045454545454,
                "pitch": 66,
                "velocity": 40,
                "duration": 1.604545454545459,
                "tempo": 120.0
            },
            {
                "start_time": 113.82045454545454,
                "end_time": 114.02045454545454,
                "pitch": 66,
                "velocity": 40,
                "duration": 0.20000000000000284,
                "tempo": 120.0
            },
            {
                "start_time": 114.02045454545454,
                "end_time": 114.22045454545454,
                "pitch": 62,
                "velocity": 40,
                "duration": 0.20000000000000284,
                "tempo": 120.0
            },
            {
                "start_time": 98.96136363636363,
                "end_time": 114.42272727272727,
                "pitch": 60,
                "velocity": 40,
                "duration": 15.461363636363643,
                "tempo": 120.0
            },
            {
                "start_time": 114.22045454545454,
                "end_time": 114.42272727272727,
                "pitch": 64,
                "velocity": 40,
                "duration": 0.20227272727272805,
                "tempo": 120.0
            },
            {
                "start_time": 113.42045454545455,
                "end_time": 114.48863636363636,
                "pitch": 67,
                "velocity": 40,
                "duration": 1.068181818181813,
                "tempo": 120.0
            },
            {
                "start_time": 114.42272727272727,
                "end_time": 114.48863636363636,
                "pitch": 67,
                "velocity": 40,
                "duration": 0.06590909090908781,
                "tempo": 120.0
            },
            {
                "start_time": 114.48863636363636,
                "end_time": 114.625,
                "pitch": 67,
                "velocity": 40,
                "duration": 0.13636363636364024,
                "tempo": 120.0
            },
            {
                "start_time": 114.625,
                "end_time": 114.82499999999999,
                "pitch": 64,
                "velocity": 40,
                "duration": 0.19999999999998863,
                "tempo": 120.0
            },
            {
                "start_time": 110.40681818181818,
                "end_time": 115.02499999999999,
                "pitch": 61,
                "velocity": 40,
                "duration": 4.61818181818181,
                "tempo": 120.0
            },
            {
                "start_time": 114.82499999999999,
                "end_time": 115.02499999999999,
                "pitch": 61,
                "velocity": 40,
                "duration": 0.20000000000000284,
                "tempo": 120.0
            },
            {
                "start_time": 115.02499999999999,
                "end_time": 115.82272727272726,
                "pitch": 61,
                "velocity": 40,
                "duration": 0.797727272727272,
                "tempo": 120.0
            },
            {
                "start_time": 114.22045454545454,
                "end_time": 116.02727272727272,
                "pitch": 62,
                "velocity": 40,
                "duration": 1.8068181818181728,
                "tempo": 120.0
            },
            {
                "start_time": 115.82272727272726,
                "end_time": 116.02727272727272,
                "pitch": 62,
                "velocity": 40,
                "duration": 0.20454545454545325,
                "tempo": 120.0
            },
            {
                "start_time": 116.02727272727272,
                "end_time": 116.22272727272727,
                "pitch": 61,
                "velocity": 40,
                "duration": 0.19545454545455243,
                "tempo": 120.0
            },
            {
                "start_time": 114.82499999999999,
                "end_time": 116.625,
                "pitch": 64,
                "velocity": 40,
                "duration": 1.8000000000000114,
                "tempo": 120.0
            },
            {
                "start_time": 116.22272727272727,
                "end_time": 116.625,
                "pitch": 64,
                "velocity": 40,
                "duration": 0.4022727272727309,
                "tempo": 120.0
            },
            {
                "start_time": 116.625,
                "end_time": 116.82954545454545,
                "pitch": 61,
                "velocity": 40,
                "duration": 0.20454545454545325,
                "tempo": 120.0
            },
            {
                "start_time": 85.7090909090909,
                "end_time": 117.43181818181817,
                "pitch": 45,
                "velocity": 40,
                "duration": 31.72272727272727,
                "tempo": 120.0
            },
            {
                "start_time": 113.82045454545454,
                "end_time": 117.43181818181817,
                "pitch": 57,
                "velocity": 40,
                "duration": 3.6113636363636346,
                "tempo": 120.0
            },
            {
                "start_time": 116.82954545454545,
                "end_time": 117.43181818181817,
                "pitch": 57,
                "velocity": 40,
                "duration": 0.6022727272727195,
                "tempo": 120.0
            },
            {
                "start_time": 117.43181818181817,
                "end_time": 117.6340909090909,
                "pitch": 54,
                "velocity": 40,
                "duration": 0.20227272727272805,
                "tempo": 120.0
            },
            {
                "start_time": 117.6340909090909,
                "end_time": 117.69772727272726,
                "pitch": 53,
                "velocity": 40,
                "duration": 0.0636363636363626,
                "tempo": 120.0
            },
            {
                "start_time": 114.625,
                "end_time": 117.69999999999999,
                "pitch": 67,
                "velocity": 40,
                "duration": 3.0749999999999886,
                "tempo": 120.0
            },
            {
                "start_time": 117.69772727272726,
                "end_time": 117.69999999999999,
                "pitch": 67,
                "velocity": 40,
                "duration": 0.0022727272727252057,
                "tempo": 120.0
            },
            {
                "start_time": 101.50227272727273,
                "end_time": 117.76590909090909,
                "pitch": 0,
                "velocity": 40,
                "duration": 16.263636363636365,
                "tempo": 120.0
            },
            {
                "start_time": 112.61818181818181,
                "end_time": 117.76590909090909,
                "pitch": 55,
                "velocity": 40,
                "duration": 5.1477272727272805,
                "tempo": 120.0
            },
            {
                "start_time": 117.69999999999999,
                "end_time": 117.76590909090909,
                "pitch": 55,
                "velocity": 40,
                "duration": 0.06590909090910202,
                "tempo": 120.0
            },
            {
                "start_time": 117.76590909090909,
                "end_time": 117.8340909090909,
                "pitch": 55,
                "velocity": 40,
                "duration": 0.06818181818181301,
                "tempo": 120.0
            },
            {
                "start_time": 107.99772727272726,
                "end_time": 118.23636363636363,
                "pitch": 59,
                "velocity": 40,
                "duration": 10.238636363636374,
                "tempo": 120.0
            },
            {
                "start_time": 117.8340909090909,
                "end_time": 118.23636363636363,
                "pitch": 59,
                "velocity": 40,
                "duration": 0.4022727272727309,
                "tempo": 120.0
            },
            {
                "start_time": 117.43181818181817,
                "end_time": 118.43636363636364,
                "pitch": 45,
                "velocity": 40,
                "duration": 1.0045454545454646,
                "tempo": 120.0
            },
            {
                "start_time": 118.23636363636363,
                "end_time": 118.43636363636364,
                "pitch": 57,
                "velocity": 40,
                "duration": 0.20000000000000284,
                "tempo": 120.0
            },
            {
                "start_time": 118.43636363636364,
                "end_time": 119.0340909090909,
                "pitch": 54,
                "velocity": 40,
                "duration": 0.5977272727272691,
                "tempo": 120.0
            },
            {
                "start_time": 96.75227272727273,
                "end_time": 119.24090909090908,
                "pitch": 65,
                "velocity": 40,
                "duration": 22.48863636363636,
                "tempo": 120.0
            },
            {
                "start_time": 114.02045454545454,
                "end_time": 119.24090909090908,
                "pitch": 66,
                "velocity": 40,
                "duration": 5.220454545454544,
                "tempo": 120.0
            },
            {
                "start_time": 119.0340909090909,
                "end_time": 119.24090909090908,
                "pitch": 66,
                "velocity": 40,
                "duration": 0.20681818181817846,
                "tempo": 120.0
            },
            {
                "start_time": 117.8340909090909,
                "end_time": 119.30454545454545,
                "pitch": 67,
                "velocity": 40,
                "duration": 1.470454545454544,
                "tempo": 120.0
            },
            {
                "start_time": 119.24090909090908,
                "end_time": 119.30454545454545,
                "pitch": 67,
                "velocity": 40,
                "duration": 0.0636363636363626,
                "tempo": 120.0
            },
            {
                "start_time": 114.48863636363636,
                "end_time": 119.30454545454545,
                "pitch": 79,
                "velocity": 40,
                "duration": 4.815909090909088,
                "tempo": 120.0
            },
            {
                "start_time": 119.30454545454545,
                "end_time": 119.44090909090909,
                "pitch": 67,
                "velocity": 40,
                "duration": 0.13636363636364024,
                "tempo": 120.0
            },
            {
                "start_time": 119.30454545454545,
                "end_time": 119.44090909090909,
                "pitch": 79,
                "velocity": 40,
                "duration": 0.13636363636364024,
                "tempo": 120.0
            },
            {
                "start_time": 119.44090909090909,
                "end_time": 119.84318181818182,
                "pitch": 69,
                "velocity": 40,
                "duration": 0.4022727272727309,
                "tempo": 120.0
            },
            {
                "start_time": 119.84318181818182,
                "end_time": 120.04318181818181,
                "pitch": 69,
                "velocity": 40,
                "duration": 0.19999999999998863,
                "tempo": 120.0
            },
            {
                "start_time": 120.04318181818181,
                "end_time": 120.10681818181817,
                "pitch": 69,
                "velocity": 40,
                "duration": 0.0636363636363626,
                "tempo": 120.0
            },
            {
                "start_time": 120.10681818181817,
                "end_time": 120.24318181818181,
                "pitch": 71,
                "velocity": 40,
                "duration": 0.13636363636364024,
                "tempo": 120.0
            },
            {
                "start_time": 120.24318181818181,
                "end_time": 120.64772727272727,
                "pitch": 73,
                "velocity": 40,
                "duration": 0.4045454545454561,
                "tempo": 120.0
            },
            {
                "start_time": 120.64772727272727,
                "end_time": 120.84772727272727,
                "pitch": 73,
                "velocity": 40,
                "duration": 0.20000000000000284,
                "tempo": 120.0
            },
            {
                "start_time": 107.39545454545454,
                "end_time": 121.04772727272727,
                "pitch": 74,
                "velocity": 40,
                "duration": 13.652272727272731,
                "tempo": 120.0
            },
            {
                "start_time": 120.84772727272727,
                "end_time": 121.04772727272727,
                "pitch": 74,
                "velocity": 40,
                "duration": 0.20000000000000284,
                "tempo": 120.0
            },
            {
                "start_time": 121.04772727272727,
                "end_time": 121.24772727272726,
                "pitch": 69,
                "velocity": 40,
                "duration": 0.19999999999998863,
                "tempo": 120.0
            },
            {
                "start_time": 121.24772727272726,
                "end_time": 121.31363636363636,
                "pitch": 69,
                "velocity": 40,
                "duration": 0.06590909090910202,
                "tempo": 120.0
            },
            {
                "start_time": 113.21818181818182,
                "end_time": 121.44772727272726,
                "pitch": 43,
                "velocity": 40,
                "duration": 8.229545454545445,
                "tempo": 120.0
            },
            {
                "start_time": 120.24318181818181,
                "end_time": 121.44772727272726,
                "pitch": 71,
                "velocity": 40,
                "duration": 1.2045454545454533,
                "tempo": 120.0
            },
            {
                "start_time": 121.31363636363636,
                "end_time": 121.44772727272726,
                "pitch": 71,
                "velocity": 40,
                "duration": 0.13409090909090082,
                "tempo": 120.0
            },
            {
                "start_time": 121.44772727272726,
                "end_time": 121.51363636363635,
                "pitch": 67,
                "velocity": 40,
                "duration": 0.06590909090908781,
                "tempo": 120.0
            },
            {
                "start_time": 119.44090909090909,
                "end_time": 121.51363636363635,
                "pitch": 79,
                "velocity": 40,
                "duration": 2.0727272727272634,
                "tempo": 120.0
            },
            {
                "start_time": 121.51363636363635,
                "end_time": 121.64772727272727,
                "pitch": 67,
                "velocity": 40,
                "duration": 0.13409090909091503,
                "tempo": 120.0
            },
            {
                "start_time": 121.51363636363635,
                "end_time": 121.64772727272727,
                "pitch": 79,
                "velocity": 40,
                "duration": 0.13409090909091503,
                "tempo": 120.0
            },
            {
                "start_time": 121.64772727272727,
                "end_time": 121.77954545454544,
                "pitch": 67,
                "velocity": 40,
                "duration": 0.13181818181817562,
                "tempo": 120.0
            },
            {
                "start_time": 121.64772727272727,
                "end_time": 121.77954545454544,
                "pitch": 79,
                "velocity": 40,
                "duration": 0.13181818181817562,
                "tempo": 120.0
            },
            {
                "start_time": 121.77954545454544,
                "end_time": 121.9090909090909,
                "pitch": 67,
                "velocity": 40,
                "duration": 0.12954545454546462,
                "tempo": 120.0
            },
            {
                "start_time": 121.77954545454544,
                "end_time": 121.9090909090909,
                "pitch": 79,
                "velocity": 40,
                "duration": 0.12954545454546462,
                "tempo": 120.0
            },
            {
                "start_time": 121.9090909090909,
                "end_time": 122.04318181818181,
                "pitch": 67,
                "velocity": 40,
                "duration": 0.13409090909090082,
                "tempo": 120.0
            },
            {
                "start_time": 121.9090909090909,
                "end_time": 122.04318181818181,
                "pitch": 79,
                "velocity": 40,
                "duration": 0.13409090909090082,
                "tempo": 120.0
            },
            {
                "start_time": 122.04318181818181,
                "end_time": 122.17727272727272,
                "pitch": 67,
                "velocity": 40,
                "duration": 0.13409090909091503,
                "tempo": 120.0
            },
            {
                "start_time": 122.04318181818181,
                "end_time": 122.17727272727272,
                "pitch": 79,
                "velocity": 40,
                "duration": 0.13409090909091503,
                "tempo": 120.0
            },
            {
                "start_time": 122.17727272727272,
                "end_time": 122.24772727272726,
                "pitch": 67,
                "velocity": 40,
                "duration": 0.07045454545453822,
                "tempo": 120.0
            },
            {
                "start_time": 116.82954545454545,
                "end_time": 122.45454545454545,
                "pitch": 61,
                "velocity": 40,
                "duration": 5.625,
                "tempo": 120.0
            },
            {
                "start_time": 122.24772727272726,
                "end_time": 122.45454545454545,
                "pitch": 61,
                "velocity": 40,
                "duration": 0.20681818181819267,
                "tempo": 120.0
            },
            {
                "start_time": 122.45454545454545,
                "end_time": 122.65454545454544,
                "pitch": 61,
                "velocity": 40,
                "duration": 0.19999999999998863,
                "tempo": 120.0
            },
            {
                "start_time": 116.22272727272727,
                "end_time": 122.65454545454544,
                "pitch": 62,
                "velocity": 40,
                "duration": 6.431818181818173,
                "tempo": 120.0
            },
            {
                "start_time": 116.625,
                "end_time": 123.05681818181817,
                "pitch": 64,
                "velocity": 40,
                "duration": 6.431818181818173,
                "tempo": 120.0
            },
            {
                "start_time": 122.65454545454544,
                "end_time": 123.05681818181817,
                "pitch": 64,
                "velocity": 40,
                "duration": 0.4022727272727309,
                "tempo": 120.0
            },
            {
                "start_time": 123.05681818181817,
                "end_time": 123.25454545454545,
                "pitch": 61,
                "velocity": 40,
                "duration": 0.19772727272727764,
                "tempo": 120.0
            },
            {
                "start_time": 123.25454545454545,
                "end_time": 123.85909090909091,
                "pitch": 57,
                "velocity": 40,
                "duration": 0.6045454545454589,
                "tempo": 120.0
            },
            {
                "start_time": 123.85909090909091,
                "end_time": 124.0590909090909,
                "pitch": 57,
                "velocity": 40,
                "duration": 0.19999999999998863,
                "tempo": 120.0
            },
            {
                "start_time": 81.69545454545454,
                "end_time": 124.2590909090909,
                "pitch": 56,
                "velocity": 40,
                "duration": 42.56363636363636,
                "tempo": 120.0
            },
            {
                "start_time": 124.0590909090909,
                "end_time": 124.2590909090909,
                "pitch": 56,
                "velocity": 40,
                "duration": 0.20000000000000284,
                "tempo": 120.0
            },
            {
                "start_time": 124.2590909090909,
                "end_time": 124.32499999999999,
                "pitch": 57,
                "velocity": 40,
                "duration": 0.06590909090908781,
                "tempo": 120.0
            },
            {
                "start_time": 118.23636363636363,
                "end_time": 124.66363636363636,
                "pitch": 59,
                "velocity": 40,
                "duration": 6.427272727272722,
                "tempo": 120.0
            },
            {
                "start_time": 124.32499999999999,
                "end_time": 124.66363636363636,
                "pitch": 59,
                "velocity": 40,
                "duration": 0.3386363636363683,
                "tempo": 120.0
            },
            {
                "start_time": 124.66363636363636,
                "end_time": 124.86363636363636,
                "pitch": 57,
                "velocity": 40,
                "duration": 0.20000000000000284,
                "tempo": 120.0
            },
            {
                "start_time": 124.86363636363636,
                "end_time": 125.46590909090908,
                "pitch": 57,
                "velocity": 40,
                "duration": 0.6022727272727195,
                "tempo": 120.0
            },
            {
                "start_time": 122.65454545454544,
                "end_time": 125.66590909090908,
                "pitch": 62,
                "velocity": 40,
                "duration": 3.0113636363636402,
                "tempo": 120.0
            },
            {
                "start_time": 125.46590909090908,
                "end_time": 125.66590909090908,
                "pitch": 62,
                "velocity": 40,
                "duration": 0.20000000000000284,
                "tempo": 120.0
            },
            {
                "start_time": 125.66590909090908,
                "end_time": 125.86590909090908,
                "pitch": 74,
                "velocity": 40,
                "duration": 0.20000000000000284,
                "tempo": 120.0
            },
            {
                "start_time": 121.44772727272726,
                "end_time": 126.06590909090909,
                "pitch": 43,
                "velocity": 40,
                "duration": 4.618181818181824,
                "tempo": 120.0
            },
            {
                "start_time": 125.86590909090908,
                "end_time": 126.06590909090909,
                "pitch": 71,
                "velocity": 40,
                "duration": 0.20000000000000284,
                "tempo": 120.0
            },
            {
                "start_time": 126.06590909090909,
                "end_time": 126.13181818181818,
                "pitch": 67,
                "velocity": 40,
                "duration": 0.06590909090908781,
                "tempo": 120.0
            },
            {
                "start_time": 122.17727272727272,
                "end_time": 126.13181818181818,
                "pitch": 79,
                "velocity": 40,
                "duration": 3.9545454545454533,
                "tempo": 120.0
            },
            {
                "start_time": 126.13181818181818,
                "end_time": 126.26818181818182,
                "pitch": 67,
                "velocity": 40,
                "duration": 0.13636363636364024,
                "tempo": 120.0
            },
            {
                "start_time": 126.26818181818182,
                "end_time": 126.47045454545454,
                "pitch": 67,
                "velocity": 40,
                "duration": 0.20227272727272805,
                "tempo": 120.0
            },
            {
                "start_time": 112.01363636363635,
                "end_time": 126.47045454545454,
                "pitch": 78,
                "velocity": 40,
                "duration": 14.456818181818193,
                "tempo": 120.0
            },
            {
                "start_time": 126.47045454545454,
                "end_time": 126.67045454545453,
                "pitch": 69,
                "velocity": 40,
                "duration": 0.19999999999998863,
                "tempo": 120.0
            },
            {
                "start_time": 110.81136363636364,
                "end_time": 126.87272727272726,
                "pitch": 72,
                "velocity": 40,
                "duration": 16.061363636363623,
                "tempo": 120.0
            },
            {
                "start_time": 126.67045454545453,
                "end_time": 126.87272727272726,
                "pitch": 72,
                "velocity": 40,
                "duration": 0.20227272727272805,
                "tempo": 120.0
            },
            {
                "start_time": 126.67045454545453,
                "end_time": 127.07045454545454,
                "pitch": 69,
                "velocity": 40,
                "duration": 0.4000000000000057,
                "tempo": 120.0
            },
            {
                "start_time": 126.87272727272726,
                "end_time": 127.07045454545454,
                "pitch": 69,
                "velocity": 40,
                "duration": 0.19772727272727764,
                "tempo": 120.0
            },
            {
                "start_time": 127.07045454545454,
                "end_time": 127.47272727272727,
                "pitch": 66,
                "velocity": 40,
                "duration": 0.4022727272727309,
                "tempo": 120.0
            },
            {
                "start_time": 126.47045454545454,
                "end_time": 127.47272727272727,
                "pitch": 78,
                "velocity": 40,
                "duration": 1.0022727272727252,
                "tempo": 120.0
            },
            {
                "start_time": 127.47272727272727,
                "end_time": 127.87272727272726,
                "pitch": 71,
                "velocity": 40,
                "duration": 0.3999999999999915,
                "tempo": 120.0
            },
            {
                "start_time": 127.87272727272726,
                "end_time": 127.93863636363636,
                "pitch": 67,
                "velocity": 40,
                "duration": 0.06590909090910202,
                "tempo": 120.0
            },
            {
                "start_time": 126.13181818181818,
                "end_time": 127.93863636363636,
                "pitch": 79,
                "velocity": 40,
                "duration": 1.806818181818187,
                "tempo": 120.0
            },
            {
                "start_time": 127.93863636363636,
                "end_time": 128.07272727272726,
                "pitch": 67,
                "velocity": 40,
                "duration": 0.13409090909090082,
                "tempo": 120.0
            },
            {
                "start_time": 127.93863636363636,
                "end_time": 128.07272727272726,
                "pitch": 79,
                "velocity": 40,
                "duration": 0.13409090909090082,
                "tempo": 120.0
            },
            {
                "start_time": 128.07272727272726,
                "end_time": 128.2022727272727,
                "pitch": 67,
                "velocity": 40,
                "duration": 0.1295454545454504,
                "tempo": 120.0
            },
            {
                "start_time": 128.07272727272726,
                "end_time": 128.2022727272727,
                "pitch": 79,
                "velocity": 40,
                "duration": 0.1295454545454504,
                "tempo": 120.0
            },
            {
                "start_time": 128.2022727272727,
                "end_time": 128.3340909090909,
                "pitch": 67,
                "velocity": 40,
                "duration": 0.13181818181817562,
                "tempo": 120.0
            },
            {
                "start_time": 128.2022727272727,
                "end_time": 128.3340909090909,
                "pitch": 79,
                "velocity": 40,
                "duration": 0.13181818181817562,
                "tempo": 120.0
            },
            {
                "start_time": 128.3340909090909,
                "end_time": 128.46818181818182,
                "pitch": 67,
                "velocity": 40,
                "duration": 0.13409090909092924,
                "tempo": 120.0
            },
            {
                "start_time": 128.3340909090909,
                "end_time": 128.46818181818182,
                "pitch": 79,
                "velocity": 40,
                "duration": 0.13409090909092924,
                "tempo": 120.0
            },
            {
                "start_time": 128.46818181818182,
                "end_time": 128.60227272727272,
                "pitch": 67,
                "velocity": 40,
                "duration": 0.13409090909090082,
                "tempo": 120.0
            },
            {
                "start_time": 128.46818181818182,
                "end_time": 128.60227272727272,
                "pitch": 79,
                "velocity": 40,
                "duration": 0.13409090909090082,
                "tempo": 120.0
            },
            {
                "start_time": 128.60227272727272,
                "end_time": 128.67045454545453,
                "pitch": 67,
                "velocity": 40,
                "duration": 0.06818181818181301,
                "tempo": 120.0
            },
            {
                "start_time": 121.04772727272727,
                "end_time": 128.67272727272726,
                "pitch": 73,
                "velocity": 40,
                "duration": 7.624999999999986,
                "tempo": 120.0
            },
            {
                "start_time": 128.67045454545453,
                "end_time": 128.67272727272726,
                "pitch": 73,
                "velocity": 40,
                "duration": 0.0022727272727252057,
                "tempo": 120.0
            }
        ],
        "Violin": [
            {
                "start_time": 0.038636363636363635,
                "end_time": 0.23863636363636362,
                "pitch": 69,
                "velocity": 64,
                "duration": 0.19999999999999998,
                "tempo": 120.0
            },
            {
                "start_time": 0.23863636363636362,
                "end_time": 0.8409090909090908,
                "pitch": 69,
                "velocity": 64,
                "duration": 0.6022727272727272,
                "tempo": 120.0
            },
            {
                "start_time": 1.0477272727272726,
                "end_time": 1.2522727272727272,
                "pitch": 73,
                "velocity": 64,
                "duration": 0.20454545454545459,
                "tempo": 120.0
            },
            {
                "start_time": 1.0477272727272726,
                "end_time": 1.4522727272727272,
                "pitch": 69,
                "velocity": 64,
                "duration": 0.40454545454545454,
                "tempo": 120.0
            },
            {
                "start_time": 1.2522727272727272,
                "end_time": 1.4522727272727272,
                "pitch": 69,
                "velocity": 64,
                "duration": 0.19999999999999996,
                "tempo": 120.0
            },
            {
                "start_time": 1.4522727272727272,
                "end_time": 1.6522727272727271,
                "pitch": 66,
                "velocity": 64,
                "duration": 0.19999999999999996,
                "tempo": 120.0
            },
            {
                "start_time": 1.2522727272727272,
                "end_time": 2.0636363636363635,
                "pitch": 73,
                "velocity": 64,
                "duration": 0.8113636363636363,
                "tempo": 120.0
            },
            {
                "start_time": 1.6545454545454545,
                "end_time": 2.0636363636363635,
                "pitch": 73,
                "velocity": 64,
                "duration": 0.40909090909090895,
                "tempo": 120.0
            },
            {
                "start_time": 2.0636363636363635,
                "end_time": 2.4545454545454546,
                "pitch": 71,
                "velocity": 64,
                "duration": 0.3909090909090911,
                "tempo": 120.0
            },
            {
                "start_time": 2.4545454545454546,
                "end_time": 2.8568181818181815,
                "pitch": 71,
                "velocity": 64,
                "duration": 0.4022727272727269,
                "tempo": 120.0
            },
            {
                "start_time": 2.8568181818181815,
                "end_time": 3.2545454545454544,
                "pitch": 74,
                "velocity": 64,
                "duration": 0.39772727272727293,
                "tempo": 120.0
            },
            {
                "start_time": 3.2545454545454544,
                "end_time": 3.6568181818181817,
                "pitch": 74,
                "velocity": 64,
                "duration": 0.40227272727272734,
                "tempo": 120.0
            },
            {
                "start_time": 3.6568181818181817,
                "end_time": 4.056818181818182,
                "pitch": 71,
                "velocity": 64,
                "duration": 0.3999999999999999,
                "tempo": 120.0
            },
            {
                "start_time": 4.056818181818182,
                "end_time": 4.456818181818182,
                "pitch": 68,
                "velocity": 64,
                "duration": 0.40000000000000036,
                "tempo": 120.0
            },
            {
                "start_time": 4.056818181818182,
                "end_time": 4.861363636363636,
                "pitch": 71,
                "velocity": 64,
                "duration": 0.8045454545454547,
                "tempo": 120.0
            },
            {
                "start_time": 4.456818181818182,
                "end_time": 4.861363636363636,
                "pitch": 71,
                "velocity": 64,
                "duration": 0.4045454545454543,
                "tempo": 120.0
            },
            {
                "start_time": 4.861363636363636,
                "end_time": 5.261363636363636,
                "pitch": 71,
                "velocity": 64,
                "duration": 0.39999999999999947,
                "tempo": 120.0
            },
            {
                "start_time": 4.456818181818182,
                "end_time": 5.663636363636363,
                "pitch": 68,
                "velocity": 64,
                "duration": 1.2068181818181811,
                "tempo": 120.0
            },
            {
                "start_time": 5.261363636363636,
                "end_time": 5.663636363636363,
                "pitch": 68,
                "velocity": 64,
                "duration": 0.40227272727272734,
                "tempo": 120.0
            },
            {
                "start_time": 5.663636363636363,
                "end_time": 6.454545454545454,
                "pitch": 76,
                "velocity": 64,
                "duration": 0.790909090909091,
                "tempo": 120.0
            },
            {
                "start_time": 2.0636363636363635,
                "end_time": 7.256818181818182,
                "pitch": 73,
                "velocity": 64,
                "duration": 5.193181818181818,
                "tempo": 120.0
            },
            {
                "start_time": 6.454545454545454,
                "end_time": 7.256818181818182,
                "pitch": 73,
                "velocity": 64,
                "duration": 0.8022727272727277,
                "tempo": 120.0
            },
            {
                "start_time": 7.463636363636363,
                "end_time": 7.670454545454545,
                "pitch": 73,
                "velocity": 64,
                "duration": 0.206818181818182,
                "tempo": 120.0
            },
            {
                "start_time": 2.8568181818181815,
                "end_time": 7.870454545454545,
                "pitch": 69,
                "velocity": 64,
                "duration": 5.013636363636364,
                "tempo": 120.0
            },
            {
                "start_time": 7.670454545454545,
                "end_time": 7.870454545454545,
                "pitch": 69,
                "velocity": 64,
                "duration": 0.20000000000000018,
                "tempo": 120.0
            },
            {
                "start_time": 7.670454545454545,
                "end_time": 8.070454545454545,
                "pitch": 73,
                "velocity": 64,
                "duration": 0.40000000000000036,
                "tempo": 120.0
            },
            {
                "start_time": 7.870454545454545,
                "end_time": 8.070454545454545,
                "pitch": 73,
                "velocity": 64,
                "duration": 0.20000000000000018,
                "tempo": 120.0
            },
            {
                "start_time": 6.454545454545454,
                "end_time": 8.468181818181817,
                "pitch": 76,
                "velocity": 64,
                "duration": 2.013636363636363,
                "tempo": 120.0
            },
            {
                "start_time": 8.070454545454545,
                "end_time": 8.468181818181817,
                "pitch": 76,
                "velocity": 64,
                "duration": 0.3977272727272716,
                "tempo": 120.0
            },
            {
                "start_time": 8.070454545454545,
                "end_time": 8.870454545454544,
                "pitch": 73,
                "velocity": 64,
                "duration": 0.7999999999999989,
                "tempo": 120.0
            },
            {
                "start_time": 8.468181818181817,
                "end_time": 8.870454545454544,
                "pitch": 73,
                "velocity": 64,
                "duration": 0.40227272727272734,
                "tempo": 120.0
            },
            {
                "start_time": 8.870454545454544,
                "end_time": 9.275,
                "pitch": 73,
                "velocity": 64,
                "duration": 0.4045454545454561,
                "tempo": 120.0
            },
            {
                "start_time": 7.870454545454545,
                "end_time": 9.677272727272726,
                "pitch": 69,
                "velocity": 64,
                "duration": 1.8068181818181808,
                "tempo": 120.0
            },
            {
                "start_time": 9.275,
                "end_time": 9.677272727272726,
                "pitch": 69,
                "velocity": 64,
                "duration": 0.40227272727272556,
                "tempo": 120.0
            },
            {
                "start_time": 9.677272727272726,
                "end_time": 10.479545454545454,
                "pitch": 69,
                "velocity": 64,
                "duration": 0.8022727272727277,
                "tempo": 120.0
            },
            {
                "start_time": 10.479545454545454,
                "end_time": 10.881818181818181,
                "pitch": 69,
                "velocity": 64,
                "duration": 0.40227272727272734,
                "tempo": 120.0
            },
            {
                "start_time": 5.261363636363636,
                "end_time": 10.881818181818181,
                "pitch": 71,
                "velocity": 64,
                "duration": 5.620454545454545,
                "tempo": 120.0
            },
            {
                "start_time": 5.663636363636363,
                "end_time": 11.284090909090908,
                "pitch": 68,
                "velocity": 64,
                "duration": 5.620454545454545,
                "tempo": 120.0
            },
            {
                "start_time": 10.881818181818181,
                "end_time": 11.284090909090908,
                "pitch": 68,
                "velocity": 64,
                "duration": 0.40227272727272734,
                "tempo": 120.0
            },
            {
                "start_time": 9.275,
                "end_time": 12.09090909090909,
                "pitch": 73,
                "velocity": 64,
                "duration": 2.8159090909090896,
                "tempo": 120.0
            },
            {
                "start_time": 11.284090909090908,
                "end_time": 12.09090909090909,
                "pitch": 73,
                "velocity": 64,
                "duration": 0.8068181818181817,
                "tempo": 120.0
            },
            {
                "start_time": 12.09090909090909,
                "end_time": 12.893181818181818,
                "pitch": 66,
                "velocity": 64,
                "duration": 0.8022727272727277,
                "tempo": 120.0
            },
            {
                "start_time": 1.6545454545454545,
                "end_time": 12.893181818181818,
                "pitch": 78,
                "velocity": 64,
                "duration": 11.238636363636363,
                "tempo": 120.0
            },
            {
                "start_time": 12.893181818181818,
                "end_time": 13.697727272727272,
                "pitch": 73,
                "velocity": 64,
                "duration": 0.8045454545454547,
                "tempo": 120.0
            },
            {
                "start_time": 13.697727272727272,
                "end_time": 13.899999999999999,
                "pitch": 73,
                "velocity": 64,
                "duration": 0.20227272727272627,
                "tempo": 120.0
            },
            {
                "start_time": 1.4522727272727272,
                "end_time": 14.102272727272727,
                "pitch": 57,
                "velocity": 64,
                "duration": 12.649999999999999,
                "tempo": 120.0
            },
            {
                "start_time": 13.899999999999999,
                "end_time": 14.102272727272727,
                "pitch": 69,
                "velocity": 64,
                "duration": 0.20227272727272805,
                "tempo": 120.0
            },
            {
                "start_time": 14.102272727272727,
                "end_time": 14.302272727272726,
                "pitch": 66,
                "velocity": 64,
                "duration": 0.1999999999999993,
                "tempo": 120.0
            },
            {
                "start_time": 12.893181818181818,
                "end_time": 14.302272727272726,
                "pitch": 78,
                "velocity": 64,
                "duration": 1.4090909090909083,
                "tempo": 120.0
            },
            {
                "start_time": 8.468181818181817,
                "end_time": 14.502272727272727,
                "pitch": 76,
                "velocity": 64,
                "duration": 6.03409090909091,
                "tempo": 120.0
            },
            {
                "start_time": 14.302272727272726,
                "end_time": 14.502272727272727,
                "pitch": 76,
                "velocity": 64,
                "duration": 0.20000000000000107,
                "tempo": 120.0
            },
            {
                "start_time": 13.899999999999999,
                "end_time": 15.306818181818182,
                "pitch": 73,
                "velocity": 64,
                "duration": 1.406818181818183,
                "tempo": 120.0
            },
            {
                "start_time": 14.502272727272727,
                "end_time": 15.306818181818182,
                "pitch": 73,
                "velocity": 64,
                "duration": 0.8045454545454547,
                "tempo": 120.0
            },
            {
                "start_time": 15.306818181818182,
                "end_time": 16.111363636363635,
                "pitch": 69,
                "velocity": 64,
                "duration": 0.8045454545454529,
                "tempo": 120.0
            },
            {
                "start_time": 16.111363636363635,
                "end_time": 16.511363636363637,
                "pitch": 69,
                "velocity": 64,
                "duration": 0.40000000000000213,
                "tempo": 120.0
            },
            {
                "start_time": 10.881818181818181,
                "end_time": 16.511363636363637,
                "pitch": 71,
                "velocity": 64,
                "duration": 5.629545454545456,
                "tempo": 120.0
            },
            {
                "start_time": 11.284090909090908,
                "end_time": 16.91590909090909,
                "pitch": 68,
                "velocity": 64,
                "duration": 5.631818181818181,
                "tempo": 120.0
            },
            {
                "start_time": 16.511363636363637,
                "end_time": 16.91590909090909,
                "pitch": 68,
                "velocity": 64,
                "duration": 0.40454545454545254,
                "tempo": 120.0
            },
            {
                "start_time": 14.502272727272727,
                "end_time": 17.313636363636363,
                "pitch": 76,
                "velocity": 64,
                "duration": 2.8113636363636356,
                "tempo": 120.0
            },
            {
                "start_time": 16.91590909090909,
                "end_time": 17.313636363636363,
                "pitch": 76,
                "velocity": 64,
                "duration": 0.3977272727272734,
                "tempo": 120.0
            },
            {
                "start_time": 3.6568181818181817,
                "end_time": 17.71363636363636,
                "pitch": 74,
                "velocity": 64,
                "duration": 14.05681818181818,
                "tempo": 120.0
            },
            {
                "start_time": 17.313636363636363,
                "end_time": 17.71363636363636,
                "pitch": 74,
                "velocity": 64,
                "duration": 0.3999999999999986,
                "tempo": 120.0
            },
            {
                "start_time": 17.71363636363636,
                "end_time": 18.518181818181816,
                "pitch": 74,
                "velocity": 64,
                "duration": 0.8045454545454547,
                "tempo": 120.0
            },
            {
                "start_time": 15.306818181818182,
                "end_time": 19.329545454545453,
                "pitch": 73,
                "velocity": 64,
                "duration": 4.022727272727272,
                "tempo": 120.0
            },
            {
                "start_time": 18.518181818181816,
                "end_time": 19.329545454545453,
                "pitch": 73,
                "velocity": 64,
                "duration": 0.8113636363636374,
                "tempo": 120.0
            },
            {
                "start_time": 19.329545454545453,
                "end_time": 20.125,
                "pitch": 69,
                "velocity": 64,
                "duration": 0.7954545454545467,
                "tempo": 120.0
            },
            {
                "start_time": 14.302272727272726,
                "end_time": 20.929545454545455,
                "pitch": 78,
                "velocity": 64,
                "duration": 6.627272727272729,
                "tempo": 120.0
            },
            {
                "start_time": 20.125,
                "end_time": 20.929545454545455,
                "pitch": 78,
                "velocity": 64,
                "duration": 0.8045454545454547,
                "tempo": 120.0
            },
            {
                "start_time": 19.329545454545453,
                "end_time": 21.729545454545452,
                "pitch": 73,
                "velocity": 64,
                "duration": 2.3999999999999986,
                "tempo": 120.0
            },
            {
                "start_time": 20.929545454545455,
                "end_time": 21.729545454545452,
                "pitch": 73,
                "velocity": 64,
                "duration": 0.7999999999999972,
                "tempo": 120.0
            },
            {
                "start_time": 20.125,
                "end_time": 22.53181818181818,
                "pitch": 69,
                "velocity": 64,
                "duration": 2.4068181818181813,
                "tempo": 120.0
            },
            {
                "start_time": 21.729545454545452,
                "end_time": 22.53181818181818,
                "pitch": 69,
                "velocity": 64,
                "duration": 0.8022727272727295,
                "tempo": 120.0
            },
            {
                "start_time": 17.313636363636363,
                "end_time": 23.134090909090908,
                "pitch": 76,
                "velocity": 64,
                "duration": 5.820454545454545,
                "tempo": 120.0
            },
            {
                "start_time": 22.53181818181818,
                "end_time": 23.134090909090908,
                "pitch": 76,
                "velocity": 64,
                "duration": 0.6022727272727266,
                "tempo": 120.0
            },
            {
                "start_time": 16.91590909090909,
                "end_time": 23.334090909090907,
                "pitch": 68,
                "velocity": 64,
                "duration": 6.418181818181818,
                "tempo": 120.0
            },
            {
                "start_time": 23.134090909090908,
                "end_time": 23.334090909090907,
                "pitch": 68,
                "velocity": 64,
                "duration": 0.1999999999999993,
                "tempo": 120.0
            },
            {
                "start_time": 16.511363636363637,
                "end_time": 23.73409090909091,
                "pitch": 71,
                "velocity": 64,
                "duration": 7.222727272727273,
                "tempo": 120.0
            },
            {
                "start_time": 23.334090909090907,
                "end_time": 23.73409090909091,
                "pitch": 71,
                "velocity": 64,
                "duration": 0.40000000000000213,
                "tempo": 120.0
            },
            {
                "start_time": 23.73409090909091,
                "end_time": 24.136363636363637,
                "pitch": 74,
                "velocity": 64,
                "duration": 0.40227272727272734,
                "tempo": 120.0
            },
            {
                "start_time": 24.136363636363637,
                "end_time": 26.534090909090907,
                "pitch": 74,
                "velocity": 64,
                "duration": 2.39772727272727,
                "tempo": 120.0
            },
            {
                "start_time": 21.729545454545452,
                "end_time": 42.57272727272727,
                "pitch": 73,
                "velocity": 64,
                "duration": 20.84318181818182,
                "tempo": 120.0
            },
            {
                "start_time": 41.77045454545454,
                "end_time": 42.57272727272727,
                "pitch": 73,
                "velocity": 64,
                "duration": 0.8022727272727295,
                "tempo": 120.0
            },
            {
                "start_time": 23.73409090909091,
                "end_time": 42.98409090909091,
                "pitch": 71,
                "velocity": 64,
                "duration": 19.25,
                "tempo": 120.0
            },
            {
                "start_time": 42.57272727272727,
                "end_time": 42.98409090909091,
                "pitch": 71,
                "velocity": 64,
                "duration": 0.4113636363636388,
                "tempo": 120.0
            },
            {
                "start_time": 23.334090909090907,
                "end_time": 43.38636363636363,
                "pitch": 68,
                "velocity": 64,
                "duration": 20.052272727272726,
                "tempo": 120.0
            },
            {
                "start_time": 42.98409090909091,
                "end_time": 43.38636363636363,
                "pitch": 68,
                "velocity": 64,
                "duration": 0.4022727272727238,
                "tempo": 120.0
            },
            {
                "start_time": 42.98409090909091,
                "end_time": 44.17727272727272,
                "pitch": 71,
                "velocity": 64,
                "duration": 1.193181818181813,
                "tempo": 120.0
            },
            {
                "start_time": 43.38636363636363,
                "end_time": 44.17727272727272,
                "pitch": 71,
                "velocity": 64,
                "duration": 0.7909090909090892,
                "tempo": 120.0
            },
            {
                "start_time": 22.53181818181818,
                "end_time": 44.38409090909091,
                "pitch": 69,
                "velocity": 64,
                "duration": 21.852272727272727,
                "tempo": 120.0
            },
            {
                "start_time": 44.17727272727272,
                "end_time": 44.38409090909091,
                "pitch": 71,
                "velocity": 64,
                "duration": 0.20681818181818556,
                "tempo": 120.0
            },
            {
                "start_time": 42.57272727272727,
                "end_time": 44.58863636363636,
                "pitch": 74,
                "velocity": 64,
                "duration": 2.0159090909090907,
                "tempo": 120.0
            },
            {
                "start_time": 44.38409090909091,
                "end_time": 44.58863636363636,
                "pitch": 74,
                "velocity": 64,
                "duration": 0.20454545454545325,
                "tempo": 120.0
            },
            {
                "start_time": 44.58863636363636,
                "end_time": 44.788636363636364,
                "pitch": 79,
                "velocity": 64,
                "duration": 0.20000000000000284,
                "tempo": 120.0
            },
            {
                "start_time": 44.788636363636364,
                "end_time": 44.99090909090909,
                "pitch": 79,
                "velocity": 64,
                "duration": 0.20227272727272805,
                "tempo": 120.0
            },
            {
                "start_time": 44.38409090909091,
                "end_time": 45.793181818181814,
                "pitch": 69,
                "velocity": 64,
                "duration": 1.4090909090909065,
                "tempo": 120.0
            },
            {
                "start_time": 44.99090909090909,
                "end_time": 45.793181818181814,
                "pitch": 69,
                "velocity": 64,
                "duration": 0.8022727272727224,
                "tempo": 120.0
            },
            {
                "start_time": 45.793181818181814,
                "end_time": 46.584090909090904,
                "pitch": 74,
                "velocity": 64,
                "duration": 0.7909090909090892,
                "tempo": 120.0
            },
            {
                "start_time": 46.584090909090904,
                "end_time": 47.38636363636363,
                "pitch": 69,
                "velocity": 64,
                "duration": 0.8022727272727295,
                "tempo": 120.0
            },
            {
                "start_time": 47.38636363636363,
                "end_time": 48.19090909090909,
                "pitch": 69,
                "velocity": 64,
                "duration": 0.8045454545454547,
                "tempo": 120.0
            },
            {
                "start_time": 43.38636363636363,
                "end_time": 48.599999999999994,
                "pitch": 68,
                "velocity": 64,
                "duration": 5.213636363636361,
                "tempo": 120.0
            },
            {
                "start_time": 48.19090909090909,
                "end_time": 48.599999999999994,
                "pitch": 68,
                "velocity": 64,
                "duration": 0.4090909090909065,
                "tempo": 120.0
            },
            {
                "start_time": 48.599999999999994,
                "end_time": 48.60227272727273,
                "pitch": 69,
                "velocity": 64,
                "duration": 0.002272727272732311,
                "tempo": 120.0
            },
            {
                "start_time": 46.584090909090904,
                "end_time": 49.0,
                "pitch": 74,
                "velocity": 64,
                "duration": 2.4159090909090963,
                "tempo": 120.0
            },
            {
                "start_time": 48.60227272727273,
                "end_time": 49.0,
                "pitch": 74,
                "velocity": 64,
                "duration": 0.3977272727272734,
                "tempo": 120.0
            },
            {
                "start_time": 49.0,
                "end_time": 49.40454545454545,
                "pitch": 74,
                "velocity": 64,
                "duration": 0.404545454545449,
                "tempo": 120.0
            },
            {
                "start_time": 23.134090909090908,
                "end_time": 49.804545454545455,
                "pitch": 76,
                "velocity": 64,
                "duration": 26.670454545454547,
                "tempo": 120.0
            },
            {
                "start_time": 49.40454545454545,
                "end_time": 49.804545454545455,
                "pitch": 76,
                "velocity": 64,
                "duration": 0.4000000000000057,
                "tempo": 120.0
            },
            {
                "start_time": 49.804545454545455,
                "end_time": 50.20454545454545,
                "pitch": 76,
                "velocity": 64,
                "duration": 0.3999999999999986,
                "tempo": 120.0
            },
            {
                "start_time": 49.40454545454545,
                "end_time": 50.60454545454545,
                "pitch": 73,
                "velocity": 64,
                "duration": 1.2000000000000028,
                "tempo": 120.0
            },
            {
                "start_time": 50.20454545454545,
                "end_time": 50.60454545454545,
                "pitch": 73,
                "velocity": 64,
                "duration": 0.3999999999999986,
                "tempo": 120.0
            },
            {
                "start_time": 50.20454545454545,
                "end_time": 51.002272727272725,
                "pitch": 76,
                "velocity": 64,
                "duration": 0.797727272727272,
                "tempo": 120.0
            },
            {
                "start_time": 50.60454545454545,
                "end_time": 51.002272727272725,
                "pitch": 76,
                "velocity": 64,
                "duration": 0.3977272727272734,
                "tempo": 120.0
            },
            {
                "start_time": 50.60454545454545,
                "end_time": 51.19772727272727,
                "pitch": 73,
                "velocity": 64,
                "duration": 0.5931818181818187,
                "tempo": 120.0
            },
            {
                "start_time": 51.002272727272725,
                "end_time": 51.19772727272727,
                "pitch": 73,
                "velocity": 64,
                "duration": 0.19545454545454533,
                "tempo": 120.0
            },
            {
                "start_time": 51.19772727272727,
                "end_time": 51.39545454545454,
                "pitch": 69,
                "velocity": 64,
                "duration": 0.19772727272727053,
                "tempo": 120.0
            },
            {
                "start_time": 51.39545454545454,
                "end_time": 51.80681818181818,
                "pitch": 69,
                "velocity": 64,
                "duration": 0.4113636363636388,
                "tempo": 120.0
            },
            {
                "start_time": 45.793181818181814,
                "end_time": 52.20681818181818,
                "pitch": 71,
                "velocity": 64,
                "duration": 6.413636363636364,
                "tempo": 120.0
            },
            {
                "start_time": 51.80681818181818,
                "end_time": 52.20681818181818,
                "pitch": 71,
                "velocity": 64,
                "duration": 0.3999999999999986,
                "tempo": 120.0
            },
            {
                "start_time": 52.20681818181818,
                "end_time": 52.60454545454545,
                "pitch": 68,
                "velocity": 64,
                "duration": 0.3977272727272734,
                "tempo": 120.0
            },
            {
                "start_time": 51.002272727272725,
                "end_time": 53.00681818181818,
                "pitch": 76,
                "velocity": 64,
                "duration": 2.0045454545454575,
                "tempo": 120.0
            },
            {
                "start_time": 52.60454545454545,
                "end_time": 53.00681818181818,
                "pitch": 76,
                "velocity": 64,
                "duration": 0.4022727272727309,
                "tempo": 120.0
            },
            {
                "start_time": 53.00681818181818,
                "end_time": 53.40909090909091,
                "pitch": 76,
                "velocity": 64,
                "duration": 0.4022727272727238,
                "tempo": 120.0
            },
            {
                "start_time": 53.40909090909091,
                "end_time": 53.809090909090905,
                "pitch": 76,
                "velocity": 64,
                "duration": 0.3999999999999986,
                "tempo": 120.0
            },
            {
                "start_time": 51.19772727272727,
                "end_time": 54.209090909090904,
                "pitch": 73,
                "velocity": 64,
                "duration": 3.011363636363633,
                "tempo": 120.0
            },
            {
                "start_time": 53.809090909090905,
                "end_time": 54.209090909090904,
                "pitch": 73,
                "velocity": 64,
                "duration": 0.3999999999999986,
                "tempo": 120.0
            },
            {
                "start_time": 54.209090909090904,
                "end_time": 54.40454545454545,
                "pitch": 73,
                "velocity": 64,
                "duration": 0.19545454545454533,
                "tempo": 120.0
            },
            {
                "start_time": 53.809090909090905,
                "end_time": 54.60227272727273,
                "pitch": 76,
                "velocity": 64,
                "duration": 0.7931818181818215,
                "tempo": 120.0
            },
            {
                "start_time": 54.40454545454545,
                "end_time": 54.60227272727273,
                "pitch": 76,
                "velocity": 64,
                "duration": 0.19772727272727764,
                "tempo": 120.0
            },
            {
                "start_time": 54.60227272727273,
                "end_time": 55.40454545454545,
                "pitch": 76,
                "velocity": 64,
                "duration": 0.8022727272727224,
                "tempo": 120.0
            },
            {
                "start_time": 55.40454545454545,
                "end_time": 55.60909090909091,
                "pitch": 74,
                "velocity": 64,
                "duration": 0.20454545454546036,
                "tempo": 120.0
            },
            {
                "start_time": 54.40454545454545,
                "end_time": 55.81590909090909,
                "pitch": 73,
                "velocity": 64,
                "duration": 1.4113636363636388,
                "tempo": 120.0
            },
            {
                "start_time": 55.60909090909091,
                "end_time": 55.81590909090909,
                "pitch": 74,
                "velocity": 64,
                "duration": 0.20681818181817846,
                "tempo": 120.0
            },
            {
                "start_time": 52.20681818181818,
                "end_time": 56.215909090909086,
                "pitch": 71,
                "velocity": 64,
                "duration": 4.009090909090908,
                "tempo": 120.0
            },
            {
                "start_time": 55.81590909090909,
                "end_time": 56.215909090909086,
                "pitch": 71,
                "velocity": 64,
                "duration": 0.3999999999999986,
                "tempo": 120.0
            },
            {
                "start_time": 56.215909090909086,
                "end_time": 56.61363636363636,
                "pitch": 71,
                "velocity": 64,
                "duration": 0.3977272727272734,
                "tempo": 120.0
            },
            {
                "start_time": 52.60454545454545,
                "end_time": 57.01363636363636,
                "pitch": 68,
                "velocity": 64,
                "duration": 4.4090909090909065,
                "tempo": 120.0
            },
            {
                "start_time": 56.61363636363636,
                "end_time": 57.01363636363636,
                "pitch": 68,
                "velocity": 64,
                "duration": 0.3999999999999986,
                "tempo": 120.0
            },
            {
                "start_time": 55.81590909090909,
                "end_time": 57.418181818181814,
                "pitch": 73,
                "velocity": 64,
                "duration": 1.6022727272727266,
                "tempo": 120.0
            },
            {
                "start_time": 57.01363636363636,
                "end_time": 57.418181818181814,
                "pitch": 73,
                "velocity": 64,
                "duration": 0.4045454545454561,
                "tempo": 120.0
            },
            {
                "start_time": 56.61363636363636,
                "end_time": 57.81818181818181,
                "pitch": 71,
                "velocity": 64,
                "duration": 1.2045454545454533,
                "tempo": 120.0
            },
            {
                "start_time": 57.418181818181814,
                "end_time": 57.81818181818181,
                "pitch": 71,
                "velocity": 64,
                "duration": 0.3999999999999986,
                "tempo": 120.0
            },
            {
                "start_time": 57.81818181818181,
                "end_time": 58.018181818181816,
                "pitch": 83,
                "velocity": 64,
                "duration": 0.20000000000000284,
                "tempo": 120.0
            },
            {
                "start_time": 20.929545454545455,
                "end_time": 58.413636363636364,
                "pitch": 78,
                "velocity": 64,
                "duration": 37.48409090909091,
                "tempo": 120.0
            },
            {
                "start_time": 58.21818181818182,
                "end_time": 58.413636363636364,
                "pitch": 78,
                "velocity": 64,
                "duration": 0.19545454545454533,
                "tempo": 120.0
            },
            {
                "start_time": 58.21818181818182,
                "end_time": 58.81590909090909,
                "pitch": 69,
                "velocity": 64,
                "duration": 0.5977272727272691,
                "tempo": 120.0
            },
            {
                "start_time": 58.60909090909091,
                "end_time": 58.81590909090909,
                "pitch": 69,
                "velocity": 64,
                "duration": 0.20681818181817846,
                "tempo": 120.0
            },
            {
                "start_time": 59.02045454545454,
                "end_time": 59.22272727272727,
                "pitch": 72,
                "velocity": 64,
                "duration": 0.20227272727272805,
                "tempo": 120.0
            },
            {
                "start_time": 59.42272727272727,
                "end_time": 59.82272727272727,
                "pitch": 70,
                "velocity": 64,
                "duration": 0.3999999999999986,
                "tempo": 120.0
            },
            {
                "start_time": 57.418181818181814,
                "end_time": 60.22272727272727,
                "pitch": 73,
                "velocity": 64,
                "duration": 2.8045454545454547,
                "tempo": 120.0
            },
            {
                "start_time": 59.82272727272727,
                "end_time": 60.22272727272727,
                "pitch": 73,
                "velocity": 64,
                "duration": 0.3999999999999986,
                "tempo": 120.0
            },
            {
                "start_time": 60.22272727272727,
                "end_time": 60.62272727272727,
                "pitch": 79,
                "velocity": 64,
                "duration": 0.3999999999999986,
                "tempo": 120.0
            },
            {
                "start_time": 60.62272727272727,
                "end_time": 61.022727272727266,
                "pitch": 82,
                "velocity": 64,
                "duration": 0.3999999999999986,
                "tempo": 120.0
            },
            {
                "start_time": 59.82272727272727,
                "end_time": 61.22272727272727,
                "pitch": 70,
                "velocity": 64,
                "duration": 1.3999999999999986,
                "tempo": 120.0
            },
            {
                "start_time": 61.022727272727266,
                "end_time": 61.22272727272727,
                "pitch": 70,
                "velocity": 64,
                "duration": 0.20000000000000284,
                "tempo": 120.0
            },
            {
                "start_time": 59.02045454545454,
                "end_time": 61.425,
                "pitch": 69,
                "velocity": 64,
                "duration": 2.404545454545456,
                "tempo": 120.0
            },
            {
                "start_time": 55.40454545454545,
                "end_time": 61.625,
                "pitch": 76,
                "velocity": 64,
                "duration": 6.220454545454551,
                "tempo": 120.0
            },
            {
                "start_time": 61.425,
                "end_time": 61.625,
                "pitch": 76,
                "velocity": 64,
                "duration": 0.20000000000000284,
                "tempo": 120.0
            },
            {
                "start_time": 61.824999999999996,
                "end_time": 62.025,
                "pitch": 73,
                "velocity": 64,
                "duration": 0.20000000000000284,
                "tempo": 120.0
            },
            {
                "start_time": 12.09090909090909,
                "end_time": 62.224999999999994,
                "pitch": 61,
                "velocity": 64,
                "duration": 50.1340909090909,
                "tempo": 120.0
            },
            {
                "start_time": 62.224999999999994,
                "end_time": 62.425,
                "pitch": 66,
                "velocity": 64,
                "duration": 0.20000000000000284,
                "tempo": 120.0
            },
            {
                "start_time": 58.60909090909091,
                "end_time": 62.625,
                "pitch": 78,
                "velocity": 64,
                "duration": 4.015909090909091,
                "tempo": 120.0
            },
            {
                "start_time": 61.425,
                "end_time": 65.02272727272727,
                "pitch": 69,
                "velocity": 64,
                "duration": 3.597727272727269,
                "tempo": 120.0
            },
            {
                "start_time": 62.625,
                "end_time": 65.02272727272727,
                "pitch": 69,
                "velocity": 64,
                "duration": 2.3977272727272663,
                "tempo": 120.0
            },
            {
                "start_time": 65.825,
                "end_time": 66.23636363636363,
                "pitch": 69,
                "velocity": 64,
                "duration": 0.4113636363636317,
                "tempo": 120.0
            },
            {
                "start_time": 66.23636363636363,
                "end_time": 66.63863636363637,
                "pitch": 66,
                "velocity": 64,
                "duration": 0.4022727272727309,
                "tempo": 120.0
            },
            {
                "start_time": 62.625,
                "end_time": 66.63863636363637,
                "pitch": 78,
                "velocity": 64,
                "duration": 4.0136363636363654,
                "tempo": 120.0
            },
            {
                "start_time": 66.63863636363637,
                "end_time": 67.03863636363636,
                "pitch": 73,
                "velocity": 64,
                "duration": 0.3999999999999915,
                "tempo": 120.0
            },
            {
                "start_time": 60.22272727272727,
                "end_time": 67.44090909090909,
                "pitch": 85,
                "velocity": 64,
                "duration": 7.218181818181819,
                "tempo": 120.0
            },
            {
                "start_time": 67.44090909090909,
                "end_time": 68.23409090909091,
                "pitch": 81,
                "velocity": 64,
                "duration": 0.7931818181818215,
                "tempo": 120.0
            },
            {
                "start_time": 61.824999999999996,
                "end_time": 68.64545454545454,
                "pitch": 76,
                "velocity": 64,
                "duration": 6.820454545454545,
                "tempo": 120.0
            },
            {
                "start_time": 68.23409090909091,
                "end_time": 68.64545454545454,
                "pitch": 76,
                "velocity": 64,
                "duration": 0.4113636363636317,
                "tempo": 120.0
            },
            {
                "start_time": 68.64545454545454,
                "end_time": 69.04545454545455,
                "pitch": 73,
                "velocity": 64,
                "duration": 0.4000000000000057,
                "tempo": 120.0
            },
            {
                "start_time": 67.44090909090909,
                "end_time": 69.04545454545455,
                "pitch": 85,
                "velocity": 64,
                "duration": 1.604545454545459,
                "tempo": 120.0
            },
            {
                "start_time": 69.04545454545455,
                "end_time": 69.83863636363635,
                "pitch": 82,
                "velocity": 64,
                "duration": 0.7931818181818073,
                "tempo": 120.0
            },
            {
                "start_time": 0.038636363636363635,
                "end_time": 70.25,
                "pitch": 67,
                "velocity": 64,
                "duration": 70.21136363636364,
                "tempo": 120.0
            },
            {
                "start_time": 60.62272727272727,
                "end_time": 70.25,
                "pitch": 79,
                "velocity": 64,
                "duration": 9.627272727272732,
                "tempo": 120.0
            },
            {
                "start_time": 69.83863636363635,
                "end_time": 70.25,
                "pitch": 79,
                "velocity": 64,
                "duration": 0.4113636363636459,
                "tempo": 120.0
            },
            {
                "start_time": 70.25,
                "end_time": 70.64318181818182,
                "pitch": 75,
                "velocity": 64,
                "duration": 0.39318181818181586,
                "tempo": 120.0
            },
            {
                "start_time": 68.23409090909091,
                "end_time": 71.05227272727272,
                "pitch": 69,
                "velocity": 64,
                "duration": 2.818181818181813,
                "tempo": 120.0
            },
            {
                "start_time": 70.64318181818182,
                "end_time": 71.05227272727272,
                "pitch": 81,
                "velocity": 64,
                "duration": 0.4090909090909065,
                "tempo": 120.0
            },
            {
                "start_time": 68.64545454545454,
                "end_time": 71.45681818181818,
                "pitch": 76,
                "velocity": 64,
                "duration": 2.8113636363636374,
                "tempo": 120.0
            },
            {
                "start_time": 71.05227272727272,
                "end_time": 71.45681818181818,
                "pitch": 76,
                "velocity": 64,
                "duration": 0.4045454545454561,
                "tempo": 120.0
            },
            {
                "start_time": 70.25,
                "end_time": 71.85681818181818,
                "pitch": 67,
                "velocity": 64,
                "duration": 1.6068181818181841,
                "tempo": 120.0
            },
            {
                "start_time": 71.45681818181818,
                "end_time": 71.85681818181818,
                "pitch": 79,
                "velocity": 64,
                "duration": 0.4000000000000057,
                "tempo": 120.0
            },
            {
                "start_time": 71.85681818181818,
                "end_time": 72.2590909090909,
                "pitch": 74,
                "velocity": 64,
                "duration": 0.4022727272727167,
                "tempo": 120.0
            },
            {
                "start_time": 72.2590909090909,
                "end_time": 72.66136363636363,
                "pitch": 74,
                "velocity": 64,
                "duration": 0.4022727272727309,
                "tempo": 120.0
            },
            {
                "start_time": 72.66136363636363,
                "end_time": 73.06136363636364,
                "pitch": 71,
                "velocity": 64,
                "duration": 0.4000000000000057,
                "tempo": 120.0
            },
            {
                "start_time": 73.06136363636364,
                "end_time": 73.86363636363636,
                "pitch": 83,
                "velocity": 64,
                "duration": 0.8022727272727224,
                "tempo": 120.0
            },
            {
                "start_time": 71.05227272727272,
                "end_time": 74.26590909090909,
                "pitch": 69,
                "velocity": 64,
                "duration": 3.2136363636363683,
                "tempo": 120.0
            },
            {
                "start_time": 73.86363636363636,
                "end_time": 74.26590909090909,
                "pitch": 69,
                "velocity": 64,
                "duration": 0.4022727272727309,
                "tempo": 120.0
            },
            {
                "start_time": 57.01363636363636,
                "end_time": 74.67045454545455,
                "pitch": 68,
                "velocity": 64,
                "duration": 17.65681818181819,
                "tempo": 120.0
            },
            {
                "start_time": 74.26590909090909,
                "end_time": 74.67045454545455,
                "pitch": 68,
                "velocity": 64,
                "duration": 0.4045454545454561,
                "tempo": 120.0
            },
            {
                "start_time": 74.26590909090909,
                "end_time": 75.07045454545454,
                "pitch": 71,
                "velocity": 64,
                "duration": 0.8045454545454476,
                "tempo": 120.0
            },
            {
                "start_time": 74.67045454545455,
                "end_time": 75.07045454545454,
                "pitch": 71,
                "velocity": 64,
                "duration": 0.3999999999999915,
                "tempo": 120.0
            },
            {
                "start_time": 75.07045454545454,
                "end_time": 75.47272727272727,
                "pitch": 76,
                "velocity": 64,
                "duration": 0.4022727272727309,
                "tempo": 120.0
            },
            {
                "start_time": 66.63863636363637,
                "end_time": 76.27499999999999,
                "pitch": 78,
                "velocity": 64,
                "duration": 9.636363636363626,
                "tempo": 120.0
            },
            {
                "start_time": 75.47272727272727,
                "end_time": 76.27499999999999,
                "pitch": 78,
                "velocity": 64,
                "duration": 0.8022727272727224,
                "tempo": 120.0
            },
            {
                "start_time": 75.47272727272727,
                "end_time": 77.06818181818181,
                "pitch": 76,
                "velocity": 64,
                "duration": 1.595454545454544,
                "tempo": 120.0
            },
            {
                "start_time": 76.27499999999999,
                "end_time": 77.06818181818181,
                "pitch": 76,
                "velocity": 64,
                "duration": 0.7931818181818215,
                "tempo": 120.0
            },
            {
                "start_time": 71.45681818181818,
                "end_time": 77.06818181818181,
                "pitch": 88,
                "velocity": 64,
                "duration": 5.6113636363636346,
                "tempo": 120.0
            },
            {
                "start_time": 77.06818181818181,
                "end_time": 77.47954545454544,
                "pitch": 81,
                "velocity": 64,
                "duration": 0.4113636363636317,
                "tempo": 120.0
            },
            {
                "start_time": 77.47954545454544,
                "end_time": 77.87954545454545,
                "pitch": 69,
                "velocity": 64,
                "duration": 0.4000000000000057,
                "tempo": 120.0
            },
            {
                "start_time": 77.87954545454545,
                "end_time": 78.28181818181818,
                "pitch": 76,
                "velocity": 64,
                "duration": 0.4022727272727309,
                "tempo": 120.0
            },
            {
                "start_time": 78.28181818181818,
                "end_time": 78.2840909090909,
                "pitch": 76,
                "velocity": 64,
                "duration": 0.0022727272727252057,
                "tempo": 120.0
            },
            {
                "start_time": 78.2840909090909,
                "end_time": 78.68636363636364,
                "pitch": 73,
                "velocity": 64,
                "duration": 0.4022727272727309,
                "tempo": 120.0
            },
            {
                "start_time": 75.07045454545454,
                "end_time": 79.0840909090909,
                "pitch": 71,
                "velocity": 64,
                "duration": 4.0136363636363654,
                "tempo": 120.0
            },
            {
                "start_time": 78.68636363636364,
                "end_time": 79.0840909090909,
                "pitch": 71,
                "velocity": 64,
                "duration": 0.39772727272726627,
                "tempo": 120.0
            },
            {
                "start_time": 74.67045454545455,
                "end_time": 79.48863636363636,
                "pitch": 68,
                "velocity": 64,
                "duration": 4.818181818181813,
                "tempo": 120.0
            },
            {
                "start_time": 79.0840909090909,
                "end_time": 79.48863636363636,
                "pitch": 68,
                "velocity": 64,
                "duration": 0.4045454545454561,
                "tempo": 120.0
            },
            {
                "start_time": 79.48863636363636,
                "end_time": 79.88636363636363,
                "pitch": 76,
                "velocity": 64,
                "duration": 0.39772727272726627,
                "tempo": 120.0
            },
            {
                "start_time": 79.0840909090909,
                "end_time": 80.29090909090908,
                "pitch": 71,
                "velocity": 64,
                "duration": 1.2068181818181785,
                "tempo": 120.0
            },
            {
                "start_time": 79.88636363636363,
                "end_time": 80.29090909090908,
                "pitch": 71,
                "velocity": 64,
                "duration": 0.4045454545454561,
                "tempo": 120.0
            },
            {
                "start_time": 80.29090909090908,
                "end_time": 80.88863636363637,
                "pitch": 71,
                "velocity": 64,
                "duration": 0.5977272727272833,
                "tempo": 120.0
            },
            {
                "start_time": 77.87954545454545,
                "end_time": 81.08636363636363,
                "pitch": 69,
                "velocity": 64,
                "duration": 3.2068181818181785,
                "tempo": 120.0
            },
            {
                "start_time": 80.88863636363637,
                "end_time": 81.08636363636363,
                "pitch": 69,
                "velocity": 64,
                "duration": 0.19772727272726343,
                "tempo": 120.0
            },
            {
                "start_time": 81.08636363636363,
                "end_time": 81.29090909090908,
                "pitch": 66,
                "velocity": 64,
                "duration": 0.20454545454545325,
                "tempo": 120.0
            },
            {
                "start_time": 81.29090909090908,
                "end_time": 81.49772727272727,
                "pitch": 62,
                "velocity": 64,
                "duration": 0.20681818181819267,
                "tempo": 120.0
            },
            {
                "start_time": 72.66136363636363,
                "end_time": 81.49772727272727,
                "pitch": 74,
                "velocity": 64,
                "duration": 8.836363636363643,
                "tempo": 120.0
            },
            {
                "start_time": 81.49772727272727,
                "end_time": 81.89545454545454,
                "pitch": 69,
                "velocity": 64,
                "duration": 0.39772727272726627,
                "tempo": 120.0
            },
            {
                "start_time": 79.88636363636363,
                "end_time": 82.29772727272727,
                "pitch": 76,
                "velocity": 64,
                "duration": 2.411363636363646,
                "tempo": 120.0
            },
            {
                "start_time": 81.89772727272727,
                "end_time": 82.29772727272727,
                "pitch": 76,
                "velocity": 64,
                "duration": 0.4000000000000057,
                "tempo": 120.0
            },
            {
                "start_time": 78.68636363636364,
                "end_time": 82.5,
                "pitch": 73,
                "velocity": 64,
                "duration": 3.8136363636363626,
                "tempo": 120.0
            },
            {
                "start_time": 82.29772727272727,
                "end_time": 82.5,
                "pitch": 73,
                "velocity": 64,
                "duration": 0.20227272727272805,
                "tempo": 120.0
            },
            {
                "start_time": 81.89772727272727,
                "end_time": 82.70227272727273,
                "pitch": 69,
                "velocity": 64,
                "duration": 0.8045454545454618,
                "tempo": 120.0
            },
            {
                "start_time": 82.5,
                "end_time": 82.70227272727273,
                "pitch": 69,
                "velocity": 64,
                "duration": 0.20227272727272805,
                "tempo": 120.0
            },
            {
                "start_time": 82.70227272727273,
                "end_time": 82.90227272727272,
                "pitch": 81,
                "velocity": 64,
                "duration": 0.19999999999998863,
                "tempo": 120.0
            },
            {
                "start_time": 69.04545454545455,
                "end_time": 83.69772727272726,
                "pitch": 85,
                "velocity": 64,
                "duration": 14.652272727272717,
                "tempo": 120.0
            },
            {
                "start_time": 82.90227272727272,
                "end_time": 83.69772727272726,
                "pitch": 85,
                "velocity": 64,
                "duration": 0.7954545454545467,
                "tempo": 120.0
            },
            {
                "start_time": 82.5,
                "end_time": 85.10681818181818,
                "pitch": 73,
                "velocity": 64,
                "duration": 2.606818181818184,
                "tempo": 120.0
            },
            {
                "start_time": 14.102272727272727,
                "end_time": 85.5090909090909,
                "pitch": 57,
                "velocity": 64,
                "duration": 71.40681818181818,
                "tempo": 120.0
            },
            {
                "start_time": 85.10681818181818,
                "end_time": 85.5090909090909,
                "pitch": 69,
                "velocity": 64,
                "duration": 0.4022727272727167,
                "tempo": 120.0
            },
            {
                "start_time": 81.29090909090908,
                "end_time": 85.91136363636363,
                "pitch": 66,
                "velocity": 64,
                "duration": 4.62045454545455,
                "tempo": 120.0
            },
            {
                "start_time": 85.5090909090909,
                "end_time": 85.91136363636363,
                "pitch": 66,
                "velocity": 64,
                "duration": 0.4022727272727309,
                "tempo": 120.0
            },
            {
                "start_time": 76.27499999999999,
                "end_time": 85.91136363636363,
                "pitch": 78,
                "velocity": 64,
                "duration": 9.63636363636364,
                "tempo": 120.0
            },
            {
                "start_time": 81.49772727272727,
                "end_time": 86.70454545454545,
                "pitch": 74,
                "velocity": 64,
                "duration": 5.2068181818181785,
                "tempo": 120.0
            },
            {
                "start_time": 85.91136363636363,
                "end_time": 86.70454545454545,
                "pitch": 74,
                "velocity": 64,
                "duration": 0.7931818181818215,
                "tempo": 120.0
            },
            {
                "start_time": 82.29772727272727,
                "end_time": 87.11590909090908,
                "pitch": 76,
                "velocity": 64,
                "duration": 4.818181818181813,
                "tempo": 120.0
            },
            {
                "start_time": 86.70454545454545,
                "end_time": 87.11590909090908,
                "pitch": 76,
                "velocity": 64,
                "duration": 0.4113636363636317,
                "tempo": 120.0
            },
            {
                "start_time": 85.10681818181818,
                "end_time": 87.51818181818182,
                "pitch": 73,
                "velocity": 64,
                "duration": 2.4113636363636317,
                "tempo": 120.0
            },
            {
                "start_time": 87.11590909090908,
                "end_time": 87.51818181818182,
                "pitch": 73,
                "velocity": 64,
                "duration": 0.4022727272727309,
                "tempo": 120.0
            },
            {
                "start_time": 87.51818181818182,
                "end_time": 87.91818181818181,
                "pitch": 71,
                "velocity": 64,
                "duration": 0.3999999999999915,
                "tempo": 120.0
            },
            {
                "start_time": 87.11590909090908,
                "end_time": 88.32045454545454,
                "pitch": 76,
                "velocity": 64,
                "duration": 1.2045454545454533,
                "tempo": 120.0
            },
            {
                "start_time": 87.91818181818181,
                "end_time": 88.32045454545454,
                "pitch": 76,
                "velocity": 64,
                "duration": 0.4022727272727309,
                "tempo": 120.0
            },
            {
                "start_time": 85.91136363636363,
                "end_time": 90.72727272727272,
                "pitch": 78,
                "velocity": 64,
                "duration": 4.815909090909088,
                "tempo": 120.0
            },
            {
                "start_time": 88.32045454545454,
                "end_time": 90.72727272727272,
                "pitch": 78,
                "velocity": 64,
                "duration": 2.4068181818181813,
                "tempo": 120.0
            },
            {
                "start_time": 86.70454545454545,
                "end_time": 93.33636363636363,
                "pitch": 74,
                "velocity": 64,
                "duration": 6.631818181818176,
                "tempo": 120.0
            },
            {
                "start_time": 93.12954545454545,
                "end_time": 93.33636363636363,
                "pitch": 74,
                "velocity": 64,
                "duration": 0.20681818181817846,
                "tempo": 120.0
            },
            {
                "start_time": 87.91818181818181,
                "end_time": 93.54090909090908,
                "pitch": 71,
                "velocity": 64,
                "duration": 5.622727272727275,
                "tempo": 120.0
            },
            {
                "start_time": 93.33636363636363,
                "end_time": 93.54090909090908,
                "pitch": 71,
                "velocity": 64,
                "duration": 0.20454545454545325,
                "tempo": 120.0
            },
            {
                "start_time": 71.85681818181818,
                "end_time": 93.74090909090908,
                "pitch": 67,
                "velocity": 64,
                "duration": 21.8840909090909,
                "tempo": 120.0
            },
            {
                "start_time": 93.54090909090908,
                "end_time": 93.74090909090908,
                "pitch": 67,
                "velocity": 64,
                "duration": 0.20000000000000284,
                "tempo": 120.0
            },
            {
                "start_time": 93.54090909090908,
                "end_time": 93.94090909090909,
                "pitch": 71,
                "velocity": 64,
                "duration": 0.4000000000000057,
                "tempo": 120.0
            },
            {
                "start_time": 93.74090909090908,
                "end_time": 93.94090909090909,
                "pitch": 71,
                "velocity": 64,
                "duration": 0.20000000000000284,
                "tempo": 120.0
            },
            {
                "start_time": 79.48863636363636,
                "end_time": 94.14318181818182,
                "pitch": 68,
                "velocity": 64,
                "duration": 14.654545454545456,
                "tempo": 120.0
            },
            {
                "start_time": 93.94090909090909,
                "end_time": 94.14318181818182,
                "pitch": 68,
                "velocity": 64,
                "duration": 0.20227272727272805,
                "tempo": 120.0
            },
            {
                "start_time": 93.94090909090909,
                "end_time": 94.34318181818182,
                "pitch": 71,
                "velocity": 64,
                "duration": 0.4022727272727309,
                "tempo": 120.0
            },
            {
                "start_time": 94.14318181818182,
                "end_time": 94.34318181818182,
                "pitch": 71,
                "velocity": 64,
                "duration": 0.20000000000000284,
                "tempo": 120.0
            },
            {
                "start_time": 88.32045454545454,
                "end_time": 94.54545454545455,
                "pitch": 76,
                "velocity": 64,
                "duration": 6.2250000000000085,
                "tempo": 120.0
            },
            {
                "start_time": 94.34318181818182,
                "end_time": 94.54545454545455,
                "pitch": 76,
                "velocity": 64,
                "duration": 0.20227272727272805,
                "tempo": 120.0
            },
            {
                "start_time": 93.33636363636363,
                "end_time": 94.74772727272727,
                "pitch": 74,
                "velocity": 64,
                "duration": 1.411363636363646,
                "tempo": 120.0
            },
            {
                "start_time": 94.54545454545455,
                "end_time": 94.74772727272727,
                "pitch": 74,
                "velocity": 64,
                "duration": 0.20227272727272805,
                "tempo": 120.0
            },
            {
                "start_time": 59.42272727272727,
                "end_time": 95.14545454545454,
                "pitch": 72,
                "velocity": 64,
                "duration": 35.72272727272727,
                "tempo": 120.0
            },
            {
                "start_time": 94.74772727272727,
                "end_time": 95.14545454545454,
                "pitch": 74,
                "velocity": 64,
                "duration": 0.39772727272726627,
                "tempo": 120.0
            },
            {
                "start_time": 85.5090909090909,
                "end_time": 95.55,
                "pitch": 57,
                "velocity": 64,
                "duration": 10.040909090909096,
                "tempo": 120.0
            },
            {
                "start_time": 95.14545454545454,
                "end_time": 95.55,
                "pitch": 69,
                "velocity": 64,
                "duration": 0.4045454545454561,
                "tempo": 120.0
            },
            {
                "start_time": 95.55,
                "end_time": 95.94999999999999,
                "pitch": 66,
                "velocity": 64,
                "duration": 0.3999999999999915,
                "tempo": 120.0
            },
            {
                "start_time": 93.12954545454545,
                "end_time": 95.94999999999999,
                "pitch": 78,
                "velocity": 64,
                "duration": 2.820454545454538,
                "tempo": 120.0
            },
            {
                "start_time": 93.74090909090908,
                "end_time": 96.35,
                "pitch": 67,
                "velocity": 64,
                "duration": 2.6090909090909093,
                "tempo": 120.0
            },
            {
                "start_time": 95.94999999999999,
                "end_time": 96.35,
                "pitch": 67,
                "velocity": 64,
                "duration": 0.4000000000000057,
                "tempo": 120.0
            },
            {
                "start_time": 99.56363636363636,
                "end_time": 99.76590909090909,
                "pitch": 74,
                "velocity": 64,
                "duration": 0.20227272727272805,
                "tempo": 120.0
            },
            {
                "start_time": 94.54545454545455,
                "end_time": 99.96590909090908,
                "pitch": 76,
                "velocity": 64,
                "duration": 5.4204545454545325,
                "tempo": 120.0
            },
            {
                "start_time": 99.76590909090909,
                "end_time": 99.96590909090908,
                "pitch": 76,
                "velocity": 64,
                "duration": 0.19999999999998863,
                "tempo": 120.0
            },
            {
                "start_time": 87.51818181818182,
                "end_time": 100.16590909090908,
                "pitch": 73,
                "velocity": 64,
                "duration": 12.647727272727266,
                "tempo": 120.0
            },
            {
                "start_time": 99.96590909090908,
                "end_time": 100.16590909090908,
                "pitch": 73,
                "velocity": 64,
                "duration": 0.20000000000000284,
                "tempo": 120.0
            },
            {
                "start_time": 95.55,
                "end_time": 100.36818181818181,
                "pitch": 57,
                "velocity": 64,
                "duration": 4.818181818181813,
                "tempo": 120.0
            },
            {
                "start_time": 100.16590909090908,
                "end_time": 100.36818181818181,
                "pitch": 69,
                "velocity": 64,
                "duration": 0.20227272727272805,
                "tempo": 120.0
            },
            {
                "start_time": 100.36818181818181,
                "end_time": 100.77045454545454,
                "pitch": 66,
                "velocity": 64,
                "duration": 0.4022727272727309,
                "tempo": 120.0
            },
            {
                "start_time": 95.94999999999999,
                "end_time": 100.77045454545454,
                "pitch": 78,
                "velocity": 64,
                "duration": 4.820454545454552,
                "tempo": 120.0
            },
            {
                "start_time": 100.77045454545454,
                "end_time": 101.17045454545455,
                "pitch": 69,
                "velocity": 64,
                "duration": 0.4000000000000057,
                "tempo": 120.0
            },
            {
                "start_time": 101.17045454545455,
                "end_time": 101.57272727272726,
                "pitch": 69,
                "velocity": 64,
                "duration": 0.4022727272727167,
                "tempo": 120.0
            },
            {
                "start_time": 94.34318181818182,
                "end_time": 101.57272727272726,
                "pitch": 71,
                "velocity": 64,
                "duration": 7.229545454545445,
                "tempo": 120.0
            },
            {
                "start_time": 94.14318181818182,
                "end_time": 101.97272727272727,
                "pitch": 68,
                "velocity": 64,
                "duration": 7.829545454545453,
                "tempo": 120.0
            },
            {
                "start_time": 101.57272727272726,
                "end_time": 101.97272727272727,
                "pitch": 68,
                "velocity": 64,
                "duration": 0.4000000000000057,
                "tempo": 120.0
            },
            {
                "start_time": 101.97272727272727,
                "end_time": 102.375,
                "pitch": 68,
                "velocity": 64,
                "duration": 0.4022727272727309,
                "tempo": 120.0
            },
            {
                "start_time": 100.16590909090908,
                "end_time": 102.77954545454546,
                "pitch": 73,
                "velocity": 64,
                "duration": 2.613636363636374,
                "tempo": 120.0
            },
            {
                "start_time": 102.375,
                "end_time": 102.77954545454546,
                "pitch": 73,
                "velocity": 64,
                "duration": 0.4045454545454561,
                "tempo": 120.0
            },
            {
                "start_time": 102.77954545454546,
                "end_time": 102.97954545454544,
                "pitch": 73,
                "velocity": 64,
                "duration": 0.19999999999998863,
                "tempo": 120.0
            },
            {
                "start_time": 99.76590909090909,
                "end_time": 102.97954545454544,
                "pitch": 74,
                "velocity": 64,
                "duration": 3.213636363636354,
                "tempo": 120.0
            },
            {
                "start_time": 99.96590909090908,
                "end_time": 103.17954545454545,
                "pitch": 76,
                "velocity": 64,
                "duration": 3.2136363636363683,
                "tempo": 120.0
            },
            {
                "start_time": 102.97954545454544,
                "end_time": 103.17954545454545,
                "pitch": 76,
                "velocity": 64,
                "duration": 0.20000000000000284,
                "tempo": 120.0
            },
            {
                "start_time": 103.17954545454545,
                "end_time": 103.37954545454545,
                "pitch": 66,
                "velocity": 64,
                "duration": 0.20000000000000284,
                "tempo": 120.0
            },
            {
                "start_time": 103.58181818181818,
                "end_time": 103.78181818181818,
                "pitch": 66,
                "velocity": 64,
                "duration": 0.20000000000000284,
                "tempo": 120.0
            },
            {
                "start_time": 100.77045454545454,
                "end_time": 103.78181818181818,
                "pitch": 78,
                "velocity": 64,
                "duration": 3.0113636363636402,
                "tempo": 120.0
            },
            {
                "start_time": 102.375,
                "end_time": 103.98181818181817,
                "pitch": 69,
                "velocity": 64,
                "duration": 1.60681818181817,
                "tempo": 120.0
            },
            {
                "start_time": 103.78181818181818,
                "end_time": 103.98181818181817,
                "pitch": 69,
                "velocity": 64,
                "duration": 0.19999999999998863,
                "tempo": 120.0
            },
            {
                "start_time": 102.97954545454544,
                "end_time": 104.1840909090909,
                "pitch": 74,
                "velocity": 64,
                "duration": 1.2045454545454533,
                "tempo": 120.0
            },
            {
                "start_time": 103.98181818181817,
                "end_time": 104.1840909090909,
                "pitch": 74,
                "velocity": 64,
                "duration": 0.20227272727272805,
                "tempo": 120.0
            },
            {
                "start_time": 103.78181818181818,
                "end_time": 104.3840909090909,
                "pitch": 78,
                "velocity": 64,
                "duration": 0.6022727272727195,
                "tempo": 120.0
            },
            {
                "start_time": 104.1840909090909,
                "end_time": 104.3840909090909,
                "pitch": 78,
                "velocity": 64,
                "duration": 0.20000000000000284,
                "tempo": 120.0
            },
            {
                "start_time": 103.98181818181817,
                "end_time": 104.58636363636363,
                "pitch": 69,
                "velocity": 64,
                "duration": 0.6045454545454589,
                "tempo": 120.0
            },
            {
                "start_time": 104.3840909090909,
                "end_time": 104.58636363636363,
                "pitch": 69,
                "velocity": 64,
                "duration": 0.20227272727272805,
                "tempo": 120.0
            },
            {
                "start_time": 104.1840909090909,
                "end_time": 104.78636363636363,
                "pitch": 74,
                "velocity": 64,
                "duration": 0.6022727272727337,
                "tempo": 120.0
            },
            {
                "start_time": 104.58636363636363,
                "end_time": 104.78636363636363,
                "pitch": 74,
                "velocity": 64,
                "duration": 0.20000000000000284,
                "tempo": 120.0
            },
            {
                "start_time": 62.224999999999994,
                "end_time": 104.98636363636363,
                "pitch": 61,
                "velocity": 64,
                "duration": 42.76136363636364,
                "tempo": 120.0
            },
            {
                "start_time": 104.78636363636363,
                "end_time": 104.98636363636363,
                "pitch": 62,
                "velocity": 64,
                "duration": 0.20000000000000284,
                "tempo": 120.0
            },
            {
                "start_time": 104.98636363636363,
                "end_time": 105.18636363636364,
                "pitch": 66,
                "velocity": 64,
                "duration": 0.20000000000000284,
                "tempo": 120.0
            },
            {
                "start_time": 104.3840909090909,
                "end_time": 105.18636363636364,
                "pitch": 78,
                "velocity": 64,
                "duration": 0.8022727272727366,
                "tempo": 120.0
            },
            {
                "start_time": 105.18636363636364,
                "end_time": 105.38863636363637,
                "pitch": 74,
                "velocity": 64,
                "duration": 0.20227272727272805,
                "tempo": 120.0
            },
            {
                "start_time": 104.58636363636363,
                "end_time": 105.58863636363635,
                "pitch": 69,
                "velocity": 64,
                "duration": 1.0022727272727252,
                "tempo": 120.0
            },
            {
                "start_time": 105.38863636363637,
                "end_time": 105.58863636363635,
                "pitch": 69,
                "velocity": 64,
                "duration": 0.19999999999998863,
                "tempo": 120.0
            },
            {
                "start_time": 100.36818181818181,
                "end_time": 105.59090909090908,
                "pitch": 57,
                "velocity": 64,
                "duration": 5.222727272727269,
                "tempo": 120.0
            },
            {
                "start_time": 105.59090909090908,
                "end_time": 105.78863636363636,
                "pitch": 66,
                "velocity": 64,
                "duration": 0.19772727272727764,
                "tempo": 120.0
            },
            {
                "start_time": 105.18636363636364,
                "end_time": 105.79090909090908,
                "pitch": 78,
                "velocity": 64,
                "duration": 0.6045454545454447,
                "tempo": 120.0
            },
            {
                "start_time": 105.38863636363637,
                "end_time": 105.98863636363636,
                "pitch": 74,
                "velocity": 64,
                "duration": 0.5999999999999943,
                "tempo": 120.0
            },
            {
                "start_time": 105.79090909090908,
                "end_time": 105.98863636363636,
                "pitch": 74,
                "velocity": 64,
                "duration": 0.19772727272727764,
                "tempo": 120.0
            },
            {
                "start_time": 105.98863636363636,
                "end_time": 106.19090909090909,
                "pitch": 76,
                "velocity": 64,
                "duration": 0.20227272727272805,
                "tempo": 120.0
            },
            {
                "start_time": 106.19090909090909,
                "end_time": 106.39318181818182,
                "pitch": 73,
                "velocity": 64,
                "duration": 0.20227272727272805,
                "tempo": 120.0
            },
            {
                "start_time": 106.39318181818182,
                "end_time": 106.59318181818182,
                "pitch": 69,
                "velocity": 64,
                "duration": 0.20000000000000284,
                "tempo": 120.0
            },
            {
                "start_time": 106.59318181818182,
                "end_time": 106.79545454545455,
                "pitch": 69,
                "velocity": 64,
                "duration": 0.20227272727272805,
                "tempo": 120.0
            },
            {
                "start_time": 106.79545454545455,
                "end_time": 106.99545454545454,
                "pitch": 69,
                "velocity": 64,
                "duration": 0.19999999999998863,
                "tempo": 120.0
            },
            {
                "start_time": 101.57272727272726,
                "end_time": 106.99545454545454,
                "pitch": 71,
                "velocity": 64,
                "duration": 5.422727272727272,
                "tempo": 120.0
            },
            {
                "start_time": 99.56363636363636,
                "end_time": 107.19545454545454,
                "pitch": 67,
                "velocity": 64,
                "duration": 7.631818181818176,
                "tempo": 120.0
            },
            {
                "start_time": 106.99545454545454,
                "end_time": 107.19545454545454,
                "pitch": 67,
                "velocity": 64,
                "duration": 0.20000000000000284,
                "tempo": 120.0
            },
            {
                "start_time": 105.98863636363636,
                "end_time": 107.39545454545454,
                "pitch": 74,
                "velocity": 64,
                "duration": 1.4068181818181813,
                "tempo": 120.0
            },
            {
                "start_time": 107.19545454545454,
                "end_time": 107.39545454545454,
                "pitch": 74,
                "velocity": 64,
                "duration": 0.20000000000000284,
                "tempo": 120.0
            },
            {
                "start_time": 81.08636363636363,
                "end_time": 107.59772727272727,
                "pitch": 59,
                "velocity": 64,
                "duration": 26.51136363636364,
                "tempo": 120.0
            },
            {
                "start_time": 106.99545454545454,
                "end_time": 107.59772727272727,
                "pitch": 71,
                "velocity": 64,
                "duration": 0.6022727272727337,
                "tempo": 120.0
            },
            {
                "start_time": 107.39545454545454,
                "end_time": 107.59772727272727,
                "pitch": 71,
                "velocity": 64,
                "duration": 0.20227272727272805,
                "tempo": 120.0
            },
            {
                "start_time": 103.17954545454545,
                "end_time": 107.79772727272727,
                "pitch": 64,
                "velocity": 64,
                "duration": 4.618181818181824,
                "tempo": 120.0
            },
            {
                "start_time": 107.59772727272727,
                "end_time": 107.79772727272727,
                "pitch": 64,
                "velocity": 64,
                "duration": 0.20000000000000284,
                "tempo": 120.0
            },
            {
                "start_time": 107.79772727272727,
                "end_time": 107.99772727272726,
                "pitch": 66,
                "velocity": 64,
                "duration": 0.19999999999998863,
                "tempo": 120.0
            },
            {
                "start_time": 105.79090909090908,
                "end_time": 107.99772727272726,
                "pitch": 78,
                "velocity": 64,
                "duration": 2.2068181818181785,
                "tempo": 120.0
            },
            {
                "start_time": 106.39318181818182,
                "end_time": 108.19999999999999,
                "pitch": 73,
                "velocity": 64,
                "duration": 1.8068181818181728,
                "tempo": 120.0
            },
            {
                "start_time": 107.99772727272726,
                "end_time": 108.19999999999999,
                "pitch": 73,
                "velocity": 64,
                "duration": 0.20227272727272805,
                "tempo": 120.0
            },
            {
                "start_time": 105.59090909090908,
                "end_time": 108.39999999999999,
                "pitch": 57,
                "velocity": 64,
                "duration": 2.809090909090912,
                "tempo": 120.0
            },
            {
                "start_time": 108.19999999999999,
                "end_time": 108.39999999999999,
                "pitch": 69,
                "velocity": 64,
                "duration": 0.20000000000000284,
                "tempo": 120.0
            },
            {
                "start_time": 108.39999999999999,
                "end_time": 108.60227272727272,
                "pitch": 62,
                "velocity": 64,
                "duration": 0.20227272727272805,
                "tempo": 120.0
            },
            {
                "start_time": 108.60227272727272,
                "end_time": 108.80227272727272,
                "pitch": 66,
                "velocity": 64,
                "duration": 0.20000000000000284,
                "tempo": 120.0
            },
            {
                "start_time": 107.99772727272726,
                "end_time": 108.80227272727272,
                "pitch": 78,
                "velocity": 64,
                "duration": 0.8045454545454618,
                "tempo": 120.0
            },
            {
                "start_time": 108.19999999999999,
                "end_time": 109.00227272727273,
                "pitch": 73,
                "velocity": 64,
                "duration": 0.8022727272727366,
                "tempo": 120.0
            },
            {
                "start_time": 108.80227272727272,
                "end_time": 109.00227272727273,
                "pitch": 73,
                "velocity": 64,
                "duration": 0.20000000000000284,
                "tempo": 120.0
            },
            {
                "start_time": 107.19545454545454,
                "end_time": 109.20227272727273,
                "pitch": 67,
                "velocity": 64,
                "duration": 2.00681818181819,
                "tempo": 120.0
            },
            {
                "start_time": 109.00227272727273,
                "end_time": 109.20227272727273,
                "pitch": 67,
                "velocity": 64,
                "duration": 0.20000000000000284,
                "tempo": 120.0
            },
            {
                "start_time": 109.20227272727273,
                "end_time": 109.40454545454546,
                "pitch": 66,
                "velocity": 64,
                "duration": 0.20227272727272805,
                "tempo": 120.0
            },
            {
                "start_time": 108.60227272727272,
                "end_time": 109.60681818181817,
                "pitch": 62,
                "velocity": 64,
                "duration": 1.0045454545454504,
                "tempo": 120.0
            },
            {
                "start_time": 109.40454545454546,
                "end_time": 109.60681818181817,
                "pitch": 62,
                "velocity": 64,
                "duration": 0.20227272727271384,
                "tempo": 120.0
            },
            {
                "start_time": 107.39545454545454,
                "end_time": 109.60681818181817,
                "pitch": 74,
                "velocity": 64,
                "duration": 2.211363636363629,
                "tempo": 120.0
            },
            {
                "start_time": 109.60681818181817,
                "end_time": 109.80681818181817,
                "pitch": 69,
                "velocity": 64,
                "duration": 0.20000000000000284,
                "tempo": 120.0
            },
            {
                "start_time": 109.80681818181817,
                "end_time": 110.00681818181818,
                "pitch": 69,
                "velocity": 64,
                "duration": 0.20000000000000284,
                "tempo": 120.0
            },
            {
                "start_time": 110.00681818181818,
                "end_time": 110.20681818181818,
                "pitch": 69,
                "velocity": 64,
                "duration": 0.20000000000000284,
                "tempo": 120.0
            },
            {
                "start_time": 108.39999999999999,
                "end_time": 110.4090909090909,
                "pitch": 57,
                "velocity": 64,
                "duration": 2.009090909090915,
                "tempo": 120.0
            },
            {
                "start_time": 110.20681818181818,
                "end_time": 110.4090909090909,
                "pitch": 67,
                "velocity": 64,
                "duration": 0.20227272727272805,
                "tempo": 120.0
            },
            {
                "start_time": 107.79772727272727,
                "end_time": 110.60909090909091,
                "pitch": 64,
                "velocity": 64,
                "duration": 2.8113636363636374,
                "tempo": 120.0
            },
            {
                "start_time": 110.4090909090909,
                "end_time": 110.60909090909091,
                "pitch": 64,
                "velocity": 64,
                "duration": 0.20000000000000284,
                "tempo": 120.0
            },
            {
                "start_time": 109.40454545454546,
                "end_time": 110.81136363636364,
                "pitch": 66,
                "velocity": 64,
                "duration": 1.4068181818181813,
                "tempo": 120.0
            },
            {
                "start_time": 110.60909090909091,
                "end_time": 110.81136363636364,
                "pitch": 66,
                "velocity": 64,
                "duration": 0.20227272727272805,
                "tempo": 120.0
            },
            {
                "start_time": 108.80227272727272,
                "end_time": 110.81136363636364,
                "pitch": 78,
                "velocity": 64,
                "duration": 2.009090909090915,
                "tempo": 120.0
            },
            {
                "start_time": 110.81136363636364,
                "end_time": 111.01136363636363,
                "pitch": 67,
                "velocity": 64,
                "duration": 0.19999999999998863,
                "tempo": 120.0
            },
            {
                "start_time": 111.01136363636363,
                "end_time": 111.21136363636363,
                "pitch": 71,
                "velocity": 64,
                "duration": 0.20000000000000284,
                "tempo": 120.0
            },
            {
                "start_time": 111.01136363636363,
                "end_time": 111.41363636363636,
                "pitch": 67,
                "velocity": 64,
                "duration": 0.4022727272727309,
                "tempo": 120.0
            },
            {
                "start_time": 111.21136363636363,
                "end_time": 111.41363636363636,
                "pitch": 67,
                "velocity": 64,
                "duration": 0.20227272727272805,
                "tempo": 120.0
            },
            {
                "start_time": 109.00227272727273,
                "end_time": 111.61363636363636,
                "pitch": 73,
                "velocity": 64,
                "duration": 2.6113636363636346,
                "tempo": 120.0
            },
            {
                "start_time": 111.41363636363636,
                "end_time": 111.61363636363636,
                "pitch": 73,
                "velocity": 64,
                "duration": 0.20000000000000284,
                "tempo": 120.0
            },
            {
                "start_time": 111.61363636363636,
                "end_time": 111.81363636363636,
                "pitch": 69,
                "velocity": 64,
                "duration": 0.20000000000000284,
                "tempo": 120.0
            },
            {
                "start_time": 110.4090909090909,
                "end_time": 112.01363636363635,
                "pitch": 57,
                "velocity": 64,
                "duration": 1.6045454545454447,
                "tempo": 120.0
            },
            {
                "start_time": 111.81363636363636,
                "end_time": 112.01363636363635,
                "pitch": 69,
                "velocity": 64,
                "duration": 0.19999999999998863,
                "tempo": 120.0
            },
            {
                "start_time": 112.01363636363635,
                "end_time": 112.21590909090908,
                "pitch": 66,
                "velocity": 64,
                "duration": 0.20227272727272805,
                "tempo": 120.0
            },
            {
                "start_time": 112.21590909090908,
                "end_time": 112.41590909090908,
                "pitch": 66,
                "velocity": 64,
                "duration": 0.20000000000000284,
                "tempo": 120.0
            },
            {
                "start_time": 110.81136363636364,
                "end_time": 112.41590909090908,
                "pitch": 78,
                "velocity": 64,
                "duration": 1.6045454545454447,
                "tempo": 120.0
            },
            {
                "start_time": 111.61363636363636,
                "end_time": 112.61818181818181,
                "pitch": 73,
                "velocity": 64,
                "duration": 1.0045454545454504,
                "tempo": 120.0
            },
            {
                "start_time": 112.41590909090908,
                "end_time": 112.61818181818181,
                "pitch": 73,
                "velocity": 64,
                "duration": 0.20227272727272805,
                "tempo": 120.0
            },
            {
                "start_time": 111.21136363636363,
                "end_time": 112.81818181818181,
                "pitch": 71,
                "velocity": 64,
                "duration": 1.6068181818181841,
                "tempo": 120.0
            },
            {
                "start_time": 112.61818181818181,
                "end_time": 112.81818181818181,
                "pitch": 71,
                "velocity": 64,
                "duration": 0.20000000000000284,
                "tempo": 120.0
            },
            {
                "start_time": 112.81818181818181,
                "end_time": 113.01818181818182,
                "pitch": 71,
                "velocity": 64,
                "duration": 0.20000000000000284,
                "tempo": 120.0
            },
            {
                "start_time": 111.41363636363636,
                "end_time": 113.21818181818182,
                "pitch": 67,
                "velocity": 64,
                "duration": 1.8045454545454618,
                "tempo": 120.0
            },
            {
                "start_time": 113.01818181818182,
                "end_time": 113.21818181818182,
                "pitch": 67,
                "velocity": 64,
                "duration": 0.20000000000000284,
                "tempo": 120.0
            },
            {
                "start_time": 112.01363636363635,
                "end_time": 113.42045454545455,
                "pitch": 57,
                "velocity": 64,
                "duration": 1.4068181818181955,
                "tempo": 120.0
            },
            {
                "start_time": 113.21818181818182,
                "end_time": 113.42045454545455,
                "pitch": 67,
                "velocity": 64,
                "duration": 0.20227272727272805,
                "tempo": 120.0
            },
            {
                "start_time": 113.42045454545455,
                "end_time": 113.62272727272726,
                "pitch": 66,
                "velocity": 64,
                "duration": 0.20227272727271384,
                "tempo": 120.0
            },
            {
                "start_time": 113.62272727272726,
                "end_time": 113.82272727272726,
                "pitch": 66,
                "velocity": 64,
                "duration": 0.20000000000000284,
                "tempo": 120.0
            },
            {
                "start_time": 113.82272727272726,
                "end_time": 114.02272727272727,
                "pitch": 62,
                "velocity": 64,
                "duration": 0.20000000000000284,
                "tempo": 120.0
            },
            {
                "start_time": 109.60681818181817,
                "end_time": 114.02272727272727,
                "pitch": 74,
                "velocity": 64,
                "duration": 4.415909090909096,
                "tempo": 120.0
            },
            {
                "start_time": 106.19090909090909,
                "end_time": 114.425,
                "pitch": 76,
                "velocity": 64,
                "duration": 8.23409090909091,
                "tempo": 120.0
            },
            {
                "start_time": 114.02272727272727,
                "end_time": 114.425,
                "pitch": 76,
                "velocity": 64,
                "duration": 0.4022727272727309,
                "tempo": 120.0
            },
            {
                "start_time": 112.61818181818181,
                "end_time": 114.82727272727273,
                "pitch": 73,
                "velocity": 64,
                "duration": 2.209090909090918,
                "tempo": 120.0
            },
            {
                "start_time": 114.425,
                "end_time": 114.82727272727273,
                "pitch": 73,
                "velocity": 64,
                "duration": 0.4022727272727309,
                "tempo": 120.0
            },
            {
                "start_time": 114.82727272727273,
                "end_time": 115.61818181818181,
                "pitch": 69,
                "velocity": 64,
                "duration": 0.7909090909090821,
                "tempo": 120.0
            },
            {
                "start_time": 113.42045454545455,
                "end_time": 117.63636363636363,
                "pitch": 57,
                "velocity": 64,
                "duration": 4.215909090909079,
                "tempo": 120.0
            },
            {
                "start_time": 117.23181818181817,
                "end_time": 117.63636363636363,
                "pitch": 69,
                "velocity": 64,
                "duration": 0.4045454545454561,
                "tempo": 120.0
            },
            {
                "start_time": 113.82272727272726,
                "end_time": 118.0340909090909,
                "pitch": 66,
                "velocity": 64,
                "duration": 4.211363636363643,
                "tempo": 120.0
            },
            {
                "start_time": 117.63636363636363,
                "end_time": 118.0340909090909,
                "pitch": 66,
                "velocity": 64,
                "duration": 0.3977272727272805,
                "tempo": 120.0
            },
            {
                "start_time": 112.41590909090908,
                "end_time": 118.0340909090909,
                "pitch": 78,
                "velocity": 64,
                "duration": 5.618181818181824,
                "tempo": 120.0
            },
            {
                "start_time": 114.82727272727273,
                "end_time": 118.23636363636363,
                "pitch": 73,
                "velocity": 64,
                "duration": 3.4090909090909065,
                "tempo": 120.0
            },
            {
                "start_time": 118.0340909090909,
                "end_time": 118.23636363636363,
                "pitch": 73,
                "velocity": 64,
                "duration": 0.20227272727272805,
                "tempo": 120.0
            },
            {
                "start_time": 118.23636363636363,
                "end_time": 118.82954545454545,
                "pitch": 69,
                "velocity": 64,
                "duration": 0.5931818181818187,
                "tempo": 120.0
            },
            {
                "start_time": 117.63636363636363,
                "end_time": 119.24090909090908,
                "pitch": 57,
                "velocity": 64,
                "duration": 1.604545454545459,
                "tempo": 120.0
            },
            {
                "start_time": 118.82954545454545,
                "end_time": 119.24090909090908,
                "pitch": 69,
                "velocity": 64,
                "duration": 0.4113636363636317,
                "tempo": 120.0
            },
            {
                "start_time": 119.24090909090908,
                "end_time": 119.64318181818182,
                "pitch": 62,
                "velocity": 64,
                "duration": 0.4022727272727309,
                "tempo": 120.0
            },
            {
                "start_time": 114.02272727272727,
                "end_time": 119.64318181818182,
                "pitch": 74,
                "velocity": 64,
                "duration": 5.62045454545455,
                "tempo": 120.0
            },
            {
                "start_time": 113.01818181818182,
                "end_time": 120.04318181818181,
                "pitch": 71,
                "velocity": 64,
                "duration": 7.0249999999999915,
                "tempo": 120.0
            },
            {
                "start_time": 119.64318181818182,
                "end_time": 120.04318181818181,
                "pitch": 71,
                "velocity": 64,
                "duration": 0.3999999999999915,
                "tempo": 120.0
            },
            {
                "start_time": 120.04318181818181,
                "end_time": 120.44545454545454,
                "pitch": 67,
                "velocity": 64,
                "duration": 0.4022727272727309,
                "tempo": 120.0
            },
            {
                "start_time": 120.44545454545454,
                "end_time": 120.64772727272727,
                "pitch": 67,
                "velocity": 64,
                "duration": 0.20227272727272805,
                "tempo": 120.0
            },
            {
                "start_time": 119.64318181818182,
                "end_time": 120.85,
                "pitch": 74,
                "velocity": 64,
                "duration": 1.2068181818181785,
                "tempo": 120.0
            },
            {
                "start_time": 120.64772727272727,
                "end_time": 120.85,
                "pitch": 74,
                "velocity": 64,
                "duration": 0.20227272727272805,
                "tempo": 120.0
            },
            {
                "start_time": 120.85,
                "end_time": 121.05,
                "pitch": 74,
                "velocity": 64,
                "duration": 0.20000000000000284,
                "tempo": 120.0
            },
            {
                "start_time": 118.23636363636363,
                "end_time": 121.25,
                "pitch": 73,
                "velocity": 64,
                "duration": 3.0136363636363654,
                "tempo": 120.0
            },
            {
                "start_time": 121.05,
                "end_time": 121.25,
                "pitch": 73,
                "velocity": 64,
                "duration": 0.20000000000000284,
                "tempo": 120.0
            },
            {
                "start_time": 120.04318181818181,
                "end_time": 122.04318181818181,
                "pitch": 71,
                "velocity": 64,
                "duration": 2.0,
                "tempo": 120.0
            },
            {
                "start_time": 121.25,
                "end_time": 122.04318181818181,
                "pitch": 71,
                "velocity": 64,
                "duration": 0.7931818181818073,
                "tempo": 120.0
            },
            {
                "start_time": 114.425,
                "end_time": 122.45454545454545,
                "pitch": 76,
                "velocity": 64,
                "duration": 8.029545454545456,
                "tempo": 120.0
            },
            {
                "start_time": 122.04318181818181,
                "end_time": 122.45454545454545,
                "pitch": 76,
                "velocity": 64,
                "duration": 0.4113636363636459,
                "tempo": 120.0
            },
            {
                "start_time": 120.64772727272727,
                "end_time": 122.85681818181817,
                "pitch": 69,
                "velocity": 64,
                "duration": 2.2090909090909037,
                "tempo": 120.0
            },
            {
                "start_time": 122.45454545454545,
                "end_time": 122.85681818181817,
                "pitch": 69,
                "velocity": 64,
                "duration": 0.4022727272727167,
                "tempo": 120.0
            },
            {
                "start_time": 122.85681818181817,
                "end_time": 123.6590909090909,
                "pitch": 73,
                "velocity": 64,
                "duration": 0.8022727272727366,
                "tempo": 120.0
            },
            {
                "start_time": 122.04318181818181,
                "end_time": 124.0590909090909,
                "pitch": 71,
                "velocity": 64,
                "duration": 2.0159090909090907,
                "tempo": 120.0
            },
            {
                "start_time": 123.6590909090909,
                "end_time": 124.0590909090909,
                "pitch": 71,
                "velocity": 64,
                "duration": 0.3999999999999915,
                "tempo": 120.0
            },
            {
                "start_time": 121.25,
                "end_time": 124.46136363636363,
                "pitch": 74,
                "velocity": 64,
                "duration": 3.211363636363629,
                "tempo": 120.0
            },
            {
                "start_time": 124.0590909090909,
                "end_time": 124.46136363636363,
                "pitch": 74,
                "velocity": 64,
                "duration": 0.4022727272727309,
                "tempo": 120.0
            },
            {
                "start_time": 123.6590909090909,
                "end_time": 125.26363636363635,
                "pitch": 73,
                "velocity": 64,
                "duration": 1.6045454545454447,
                "tempo": 120.0
            },
            {
                "start_time": 124.46136363636363,
                "end_time": 125.26363636363635,
                "pitch": 74,
                "velocity": 64,
                "duration": 0.8022727272727224,
                "tempo": 120.0
            },
            {
                "start_time": 124.0590909090909,
                "end_time": 125.66818181818181,
                "pitch": 71,
                "velocity": 64,
                "duration": 1.6090909090909093,
                "tempo": 120.0
            },
            {
                "start_time": 125.26363636363635,
                "end_time": 125.66818181818181,
                "pitch": 71,
                "velocity": 64,
                "duration": 0.4045454545454561,
                "tempo": 120.0
            },
            {
                "start_time": 125.66818181818181,
                "end_time": 126.06818181818181,
                "pitch": 67,
                "velocity": 64,
                "duration": 0.4000000000000057,
                "tempo": 120.0
            },
            {
                "start_time": 126.06818181818181,
                "end_time": 126.47045454545454,
                "pitch": 67,
                "velocity": 64,
                "duration": 0.4022727272727309,
                "tempo": 120.0
            },
            {
                "start_time": 122.85681818181817,
                "end_time": 126.47045454545454,
                "pitch": 69,
                "velocity": 64,
                "duration": 3.613636363636374,
                "tempo": 120.0
            },
            {
                "start_time": 126.47045454545454,
                "end_time": 126.87272727272726,
                "pitch": 74,
                "velocity": 64,
                "duration": 0.4022727272727167,
                "tempo": 120.0
            },
            {
                "start_time": 126.47045454545454,
                "end_time": 127.27272727272727,
                "pitch": 69,
                "velocity": 64,
                "duration": 0.8022727272727224,
                "tempo": 120.0
            },
            {
                "start_time": 126.87272727272726,
                "end_time": 127.27272727272727,
                "pitch": 69,
                "velocity": 64,
                "duration": 0.4000000000000057,
                "tempo": 120.0
            },
            {
                "start_time": 126.87272727272726,
                "end_time": 127.675,
                "pitch": 74,
                "velocity": 64,
                "duration": 0.8022727272727366,
                "tempo": 120.0
            },
            {
                "start_time": 127.27272727272727,
                "end_time": 127.675,
                "pitch": 74,
                "velocity": 64,
                "duration": 0.4022727272727309,
                "tempo": 120.0
            },
            {
                "start_time": 125.66818181818181,
                "end_time": 128.46818181818182,
                "pitch": 71,
                "velocity": 64,
                "duration": 2.8000000000000114,
                "tempo": 120.0
            },
            {
                "start_time": 127.675,
                "end_time": 128.46818181818182,
                "pitch": 71,
                "velocity": 64,
                "duration": 0.7931818181818215,
                "tempo": 120.0
            },
            {
                "start_time": 128.46818181818182,
                "end_time": 128.67272727272726,
                "pitch": 71,
                "velocity": 64,
                "duration": 0.20454545454543904,
                "tempo": 120.0
            }
        ],
        "Harpsichord": [
            {
                "start_time": 28.95,
                "end_time": 28.952272727272724,
                "pitch": 73,
                "velocity": 64,
                "duration": 0.0022727272727252057,
                "tempo": 120.0
            },
            {
                "start_time": 28.952272727272724,
                "end_time": 29.152272727272727,
                "pitch": 69,
                "velocity": 64,
                "duration": 0.20000000000000284,
                "tempo": 120.0
            },
            {
                "start_time": 29.152272727272727,
                "end_time": 29.352272727272727,
                "pitch": 66,
                "velocity": 64,
                "duration": 0.1999999999999993,
                "tempo": 120.0
            },
            {
                "start_time": 29.352272727272727,
                "end_time": 29.752272727272725,
                "pitch": 69,
                "velocity": 64,
                "duration": 0.3999999999999986,
                "tempo": 120.0
            },
            {
                "start_time": 29.752272727272725,
                "end_time": 30.154545454545453,
                "pitch": 69,
                "velocity": 64,
                "duration": 0.40227272727272734,
                "tempo": 120.0
            },
            {
                "start_time": 30.154545454545453,
                "end_time": 30.554545454545455,
                "pitch": 67,
                "velocity": 64,
                "duration": 0.40000000000000213,
                "tempo": 120.0
            },
            {
                "start_time": 30.154545454545453,
                "end_time": 31.35681818181818,
                "pitch": 71,
                "velocity": 64,
                "duration": 1.202272727272728,
                "tempo": 120.0
            },
            {
                "start_time": 30.554545454545455,
                "end_time": 31.35681818181818,
                "pitch": 71,
                "velocity": 64,
                "duration": 0.8022727272727259,
                "tempo": 120.0
            },
            {
                "start_time": 31.35681818181818,
                "end_time": 32.15909090909091,
                "pitch": 73,
                "velocity": 64,
                "duration": 0.8022727272727259,
                "tempo": 120.0
            },
            {
                "start_time": 29.152272727272727,
                "end_time": 32.559090909090905,
                "pitch": 57,
                "velocity": 64,
                "duration": 3.4068181818181777,
                "tempo": 120.0
            },
            {
                "start_time": 32.15909090909091,
                "end_time": 32.559090909090905,
                "pitch": 69,
                "velocity": 64,
                "duration": 0.3999999999999986,
                "tempo": 120.0
            },
            {
                "start_time": 32.559090909090905,
                "end_time": 32.95909090909091,
                "pitch": 66,
                "velocity": 64,
                "duration": 0.4000000000000057,
                "tempo": 120.0
            },
            {
                "start_time": 29.352272727272727,
                "end_time": 32.95909090909091,
                "pitch": 78,
                "velocity": 64,
                "duration": 3.606818181818184,
                "tempo": 120.0
            },
            {
                "start_time": 32.95909090909091,
                "end_time": 33.361363636363635,
                "pitch": 74,
                "velocity": 64,
                "duration": 0.4022727272727238,
                "tempo": 120.0
            },
            {
                "start_time": 32.15909090909091,
                "end_time": 33.76136363636363,
                "pitch": 73,
                "velocity": 64,
                "duration": 1.6022727272727266,
                "tempo": 120.0
            },
            {
                "start_time": 33.361363636363635,
                "end_time": 33.76136363636363,
                "pitch": 74,
                "velocity": 64,
                "duration": 0.3999999999999986,
                "tempo": 120.0
            },
            {
                "start_time": 33.76136363636363,
                "end_time": 34.16136363636363,
                "pitch": 68,
                "velocity": 64,
                "duration": 0.3999999999999986,
                "tempo": 120.0
            },
            {
                "start_time": 34.16136363636363,
                "end_time": 34.361363636363635,
                "pitch": 68,
                "velocity": 64,
                "duration": 0.20000000000000284,
                "tempo": 120.0
            },
            {
                "start_time": 34.361363636363635,
                "end_time": 34.56136363636364,
                "pitch": 64,
                "velocity": 64,
                "duration": 0.20000000000000284,
                "tempo": 120.0
            },
            {
                "start_time": 31.35681818181818,
                "end_time": 35.35227272727273,
                "pitch": 71,
                "velocity": 64,
                "duration": 3.995454545454546,
                "tempo": 120.0
            },
            {
                "start_time": 34.56136363636364,
                "end_time": 35.35227272727273,
                "pitch": 71,
                "velocity": 64,
                "duration": 0.7909090909090892,
                "tempo": 120.0
            },
            {
                "start_time": 32.95909090909091,
                "end_time": 35.763636363636365,
                "pitch": 78,
                "velocity": 64,
                "duration": 2.8045454545454547,
                "tempo": 120.0
            },
            {
                "start_time": 35.35227272727273,
                "end_time": 35.763636363636365,
                "pitch": 78,
                "velocity": 64,
                "duration": 0.4113636363636388,
                "tempo": 120.0
            },
            {
                "start_time": 35.763636363636365,
                "end_time": 36.163636363636364,
                "pitch": 74,
                "velocity": 64,
                "duration": 0.3999999999999986,
                "tempo": 120.0
            },
            {
                "start_time": 32.559090909090905,
                "end_time": 36.56363636363636,
                "pitch": 57,
                "velocity": 64,
                "duration": 4.0045454545454575,
                "tempo": 120.0
            },
            {
                "start_time": 36.163636363636364,
                "end_time": 36.56363636363636,
                "pitch": 69,
                "velocity": 64,
                "duration": 0.3999999999999986,
                "tempo": 120.0
            },
            {
                "start_time": 36.56363636363636,
                "end_time": 36.96363636363636,
                "pitch": 66,
                "velocity": 64,
                "duration": 0.3999999999999986,
                "tempo": 120.0
            },
            {
                "start_time": 35.763636363636365,
                "end_time": 36.96363636363636,
                "pitch": 78,
                "velocity": 64,
                "duration": 1.1999999999999957,
                "tempo": 120.0
            },
            {
                "start_time": 35.35227272727273,
                "end_time": 38.56136363636364,
                "pitch": 71,
                "velocity": 64,
                "duration": 3.2090909090909108,
                "tempo": 120.0
            },
            {
                "start_time": 36.96363636363636,
                "end_time": 38.56136363636364,
                "pitch": 71,
                "velocity": 64,
                "duration": 1.5977272727272762,
                "tempo": 120.0
            },
            {
                "start_time": 38.56136363636364,
                "end_time": 39.36363636363636,
                "pitch": 71,
                "velocity": 64,
                "duration": 0.8022727272727224,
                "tempo": 120.0
            },
            {
                "start_time": 39.36363636363636,
                "end_time": 39.775,
                "pitch": 69,
                "velocity": 64,
                "duration": 0.4113636363636388,
                "tempo": 120.0
            },
            {
                "start_time": 39.775,
                "end_time": 40.175,
                "pitch": 69,
                "velocity": 64,
                "duration": 0.3999999999999986,
                "tempo": 120.0
            },
            {
                "start_time": 33.76136363636363,
                "end_time": 40.986363636363635,
                "pitch": 73,
                "velocity": 64,
                "duration": 7.225000000000001,
                "tempo": 120.0
            },
            {
                "start_time": 40.175,
                "end_time": 40.986363636363635,
                "pitch": 73,
                "velocity": 64,
                "duration": 0.8113636363636374,
                "tempo": 120.0
            }
        ]
    }
}