{
    "track_id": "Columns (FM) - 06 - Boy Wonder",
    "mood": "relaxed",
    "instruments": {
        "Church Organ": [
            {
                "start_time": 0.0,
                "end_time": 1.6659090909090908,
                "pitch": 62,
                "velocity": 32,
                "duration": 1.6659090909090908,
                "tempo": 120.0
            },
            {
                "start_time": 1.6659090909090908,
                "end_time": 2.215909090909091,
                "pitch": 66,
                "velocity": 32,
                "duration": 0.55,
                "tempo": 120.0
            },
            {
                "start_time": 2.215909090909091,
                "end_time": 2.2295454545454545,
                "pitch": 66,
                "velocity": 32,
                "duration": 0.013636363636363669,
                "tempo": 120.0
            },
            {
                "start_time": 2.2295454545454545,
                "end_time": 2.775,
                "pitch": 64,
                "velocity": 32,
                "duration": 0.5454545454545454,
                "tempo": 120.0
            },
            {
                "start_time": 2.775,
                "end_time": 2.8386363636363634,
                "pitch": 67,
                "velocity": 32,
                "duration": 0.06363636363636349,
                "tempo": 120.0
            },
            {
                "start_time": 2.8386363636363634,
                "end_time": 2.9704545454545452,
                "pitch": 67,
                "velocity": 32,
                "duration": 0.13181818181818183,
                "tempo": 120.0
            },
            {
                "start_time": 2.8386363636363634,
                "end_time": 2.9704545454545452,
                "pitch": 79,
                "velocity": 32,
                "duration": 0.13181818181818183,
                "tempo": 120.0
            },
            {
                "start_time": 2.9704545454545452,
                "end_time": 3.0999999999999996,
                "pitch": 67,
                "velocity": 32,
                "duration": 0.1295454545454544,
                "tempo": 120.0
            },
            {
                "start_time": 2.9704545454545452,
                "end_time": 3.0999999999999996,
                "pitch": 79,
                "velocity": 32,
                "duration": 0.1295454545454544,
                "tempo": 120.0
            },
            {
                "start_time": 3.0999999999999996,
                "end_time": 3.2318181818181815,
                "pitch": 67,
                "velocity": 32,
                "duration": 0.13181818181818183,
                "tempo": 120.0
            },
            {
                "start_time": 3.0999999999999996,
                "end_time": 3.2318181818181815,
                "pitch": 79,
                "velocity": 32,
                "duration": 0.13181818181818183,
                "tempo": 120.0
            },
            {
                "start_time": 3.2318181818181815,
                "end_time": 3.318181818181818,
                "pitch": 67,
                "velocity": 32,
                "duration": 0.08636363636363642,
                "tempo": 120.0
            },
            {
                "start_time": 3.2318181818181815,
                "end_time": 3.318181818181818,
                "pitch": 79,
                "velocity": 32,
                "duration": 0.08636363636363642,
                "tempo": 120.0
            },
            {
                "start_time": 3.318181818181818,
                "end_time": 3.8659090909090907,
                "pitch": 69,
                "velocity": 32,
                "duration": 0.5477272727272728,
                "tempo": 120.0
            },
            {
                "start_time": 1.6659090909090908,
                "end_time": 4.418181818181818,
                "pitch": 62,
                "velocity": 32,
                "duration": 2.752272727272727,
                "tempo": 120.0
            },
            {
                "start_time": 3.8659090909090907,
                "end_time": 4.418181818181818,
                "pitch": 62,
                "velocity": 32,
                "duration": 0.5522727272727272,
                "tempo": 120.0
            },
            {
                "start_time": 4.418181818181818,
                "end_time": 4.977272727272727,
                "pitch": 64,
                "velocity": 32,
                "duration": 0.5590909090909086,
                "tempo": 120.0
            },
            {
                "start_time": 4.977272727272727,
                "end_time": 5.040909090909091,
                "pitch": 64,
                "velocity": 32,
                "duration": 0.06363636363636438,
                "tempo": 120.0
            },
            {
                "start_time": 5.040909090909091,
                "end_time": 5.518181818181818,
                "pitch": 66,
                "velocity": 32,
                "duration": 0.4772727272727266,
                "tempo": 120.0
            },
            {
                "start_time": 5.518181818181818,
                "end_time": 6.0681818181818175,
                "pitch": 61,
                "velocity": 32,
                "duration": 0.5499999999999998,
                "tempo": 120.0
            },
            {
                "start_time": 6.0681818181818175,
                "end_time": 6.629545454545454,
                "pitch": 61,
                "velocity": 32,
                "duration": 0.5613636363636365,
                "tempo": 120.0
            },
            {
                "start_time": 4.418181818181818,
                "end_time": 6.629545454545454,
                "pitch": 62,
                "velocity": 32,
                "duration": 2.211363636363636,
                "tempo": 120.0
            },
            {
                "start_time": 6.629545454545454,
                "end_time": 7.720454545454545,
                "pitch": 64,
                "velocity": 32,
                "duration": 1.0909090909090908,
                "tempo": 120.0
            },
            {
                "start_time": 7.720454545454545,
                "end_time": 8.270454545454545,
                "pitch": 73,
                "velocity": 32,
                "duration": 0.5499999999999998,
                "tempo": 120.0
            },
            {
                "start_time": 0.0,
                "end_time": 8.820454545454545,
                "pitch": 55,
                "velocity": 32,
                "duration": 8.820454545454545,
                "tempo": 120.0
            },
            {
                "start_time": 8.270454545454545,
                "end_time": 8.820454545454545,
                "pitch": 73,
                "velocity": 32,
                "duration": 0.5500000000000007,
                "tempo": 120.0
            },
            {
                "start_time": 8.820454545454545,
                "end_time": 8.884090909090908,
                "pitch": 67,
                "velocity": 32,
                "duration": 0.0636363636363626,
                "tempo": 120.0
            },
            {
                "start_time": 3.318181818181818,
                "end_time": 8.884090909090908,
                "pitch": 79,
                "velocity": 32,
                "duration": 5.56590909090909,
                "tempo": 120.0
            },
            {
                "start_time": 8.884090909090908,
                "end_time": 9.018181818181818,
                "pitch": 67,
                "velocity": 32,
                "duration": 0.1340909090909097,
                "tempo": 120.0
            },
            {
                "start_time": 8.884090909090908,
                "end_time": 9.018181818181818,
                "pitch": 79,
                "velocity": 32,
                "duration": 0.1340909090909097,
                "tempo": 120.0
            },
            {
                "start_time": 9.018181818181818,
                "end_time": 9.152272727272727,
                "pitch": 67,
                "velocity": 32,
                "duration": 0.1340909090909097,
                "tempo": 120.0
            },
            {
                "start_time": 9.018181818181818,
                "end_time": 9.152272727272727,
                "pitch": 79,
                "velocity": 32,
                "duration": 0.1340909090909097,
                "tempo": 120.0
            },
            {
                "start_time": 9.152272727272727,
                "end_time": 9.286363636363635,
                "pitch": 67,
                "velocity": 32,
                "duration": 0.13409090909090793,
                "tempo": 120.0
            },
            {
                "start_time": 9.152272727272727,
                "end_time": 9.286363636363635,
                "pitch": 79,
                "velocity": 32,
                "duration": 0.13409090909090793,
                "tempo": 120.0
            },
            {
                "start_time": 9.286363636363635,
                "end_time": 9.370454545454544,
                "pitch": 67,
                "velocity": 32,
                "duration": 0.084090909090909,
                "tempo": 120.0
            },
            {
                "start_time": 9.286363636363635,
                "end_time": 9.370454545454544,
                "pitch": 79,
                "velocity": 32,
                "duration": 0.084090909090909,
                "tempo": 120.0
            },
            {
                "start_time": 9.370454545454544,
                "end_time": 9.931818181818182,
                "pitch": 71,
                "velocity": 32,
                "duration": 0.5613636363636374,
                "tempo": 120.0
            },
            {
                "start_time": 7.720454545454545,
                "end_time": 10.48181818181818,
                "pitch": 76,
                "velocity": 32,
                "duration": 2.761363636363636,
                "tempo": 120.0
            },
            {
                "start_time": 9.931818181818182,
                "end_time": 10.48181818181818,
                "pitch": 76,
                "velocity": 32,
                "duration": 0.5499999999999989,
                "tempo": 120.0
            },
            {
                "start_time": 10.48181818181818,
                "end_time": 11.031818181818181,
                "pitch": 74,
                "velocity": 32,
                "duration": 0.5500000000000007,
                "tempo": 120.0
            },
            {
                "start_time": 11.031818181818181,
                "end_time": 11.034090909090908,
                "pitch": 74,
                "velocity": 32,
                "duration": 0.002272727272726982,
                "tempo": 120.0
            },
            {
                "start_time": 11.034090909090908,
                "end_time": 11.570454545454545,
                "pitch": 69,
                "velocity": 32,
                "duration": 0.536363636363637,
                "tempo": 120.0
            },
            {
                "start_time": 11.570454545454545,
                "end_time": 11.636363636363637,
                "pitch": 67,
                "velocity": 32,
                "duration": 0.06590909090909136,
                "tempo": 120.0
            },
            {
                "start_time": 9.370454545454544,
                "end_time": 11.636363636363637,
                "pitch": 79,
                "velocity": 32,
                "duration": 2.2659090909090924,
                "tempo": 120.0
            },
            {
                "start_time": 11.636363636363637,
                "end_time": 11.770454545454545,
                "pitch": 67,
                "velocity": 32,
                "duration": 0.13409090909090793,
                "tempo": 120.0
            },
            {
                "start_time": 11.636363636363637,
                "end_time": 11.770454545454545,
                "pitch": 79,
                "velocity": 32,
                "duration": 0.13409090909090793,
                "tempo": 120.0
            },
            {
                "start_time": 11.770454545454545,
                "end_time": 11.904545454545454,
                "pitch": 67,
                "velocity": 32,
                "duration": 0.1340909090909097,
                "tempo": 120.0
            },
            {
                "start_time": 11.770454545454545,
                "end_time": 11.904545454545454,
                "pitch": 79,
                "velocity": 32,
                "duration": 0.1340909090909097,
                "tempo": 120.0
            },
            {
                "start_time": 11.904545454545454,
                "end_time": 12.036363636363635,
                "pitch": 67,
                "velocity": 32,
                "duration": 0.13181818181818095,
                "tempo": 120.0
            },
            {
                "start_time": 11.904545454545454,
                "end_time": 12.036363636363635,
                "pitch": 79,
                "velocity": 32,
                "duration": 0.13181818181818095,
                "tempo": 120.0
            },
            {
                "start_time": 12.036363636363635,
                "end_time": 12.122727272727273,
                "pitch": 67,
                "velocity": 32,
                "duration": 0.08636363636363775,
                "tempo": 120.0
            },
            {
                "start_time": 12.122727272727273,
                "end_time": 12.684090909090909,
                "pitch": 67,
                "velocity": 32,
                "duration": 0.5613636363636356,
                "tempo": 120.0
            },
            {
                "start_time": 5.518181818181818,
                "end_time": 12.697727272727272,
                "pitch": 66,
                "velocity": 32,
                "duration": 7.179545454545455,
                "tempo": 120.0
            },
            {
                "start_time": 12.684090909090909,
                "end_time": 12.697727272727272,
                "pitch": 66,
                "velocity": 32,
                "duration": 0.013636363636363669,
                "tempo": 120.0
            },
            {
                "start_time": 12.697727272727272,
                "end_time": 13.234090909090908,
                "pitch": 64,
                "velocity": 32,
                "duration": 0.5363636363636353,
                "tempo": 120.0
            },
            {
                "start_time": 10.48181818181818,
                "end_time": 13.234090909090908,
                "pitch": 76,
                "velocity": 32,
                "duration": 2.752272727272727,
                "tempo": 120.0
            },
            {
                "start_time": 13.234090909090908,
                "end_time": 13.781818181818181,
                "pitch": 69,
                "velocity": 32,
                "duration": 0.5477272727272737,
                "tempo": 120.0
            },
            {
                "start_time": 13.781818181818181,
                "end_time": 13.784090909090908,
                "pitch": 69,
                "velocity": 32,
                "duration": 0.002272727272726982,
                "tempo": 120.0
            },
            {
                "start_time": 13.784090909090908,
                "end_time": 14.325,
                "pitch": 73,
                "velocity": 32,
                "duration": 0.540909090909091,
                "tempo": 120.0
            },
            {
                "start_time": 12.036363636363635,
                "end_time": 14.388636363636364,
                "pitch": 79,
                "velocity": 32,
                "duration": 2.3522727272727284,
                "tempo": 120.0
            },
            {
                "start_time": 14.325,
                "end_time": 14.388636363636364,
                "pitch": 79,
                "velocity": 32,
                "duration": 0.06363636363636438,
                "tempo": 120.0
            },
            {
                "start_time": 14.388636363636364,
                "end_time": 14.524999999999999,
                "pitch": 79,
                "velocity": 32,
                "duration": 0.1363636363636349,
                "tempo": 120.0
            },
            {
                "start_time": 14.388636363636364,
                "end_time": 14.524999999999999,
                "pitch": 91,
                "velocity": 32,
                "duration": 0.1363636363636349,
                "tempo": 120.0
            },
            {
                "start_time": 14.524999999999999,
                "end_time": 14.661363636363635,
                "pitch": 79,
                "velocity": 32,
                "duration": 0.1363636363636367,
                "tempo": 120.0
            },
            {
                "start_time": 14.524999999999999,
                "end_time": 14.661363636363635,
                "pitch": 91,
                "velocity": 32,
                "duration": 0.1363636363636367,
                "tempo": 120.0
            },
            {
                "start_time": 14.661363636363635,
                "end_time": 14.797727272727272,
                "pitch": 79,
                "velocity": 32,
                "duration": 0.1363636363636367,
                "tempo": 120.0
            },
            {
                "start_time": 14.661363636363635,
                "end_time": 14.797727272727272,
                "pitch": 91,
                "velocity": 32,
                "duration": 0.1363636363636367,
                "tempo": 120.0
            },
            {
                "start_time": 14.797727272727272,
                "end_time": 14.884090909090908,
                "pitch": 79,
                "velocity": 32,
                "duration": 0.08636363636363598,
                "tempo": 120.0
            },
            {
                "start_time": 14.884090909090908,
                "end_time": 15.424999999999999,
                "pitch": 79,
                "velocity": 32,
                "duration": 0.540909090909091,
                "tempo": 120.0
            },
            {
                "start_time": 15.424999999999999,
                "end_time": 15.438636363636363,
                "pitch": 78,
                "velocity": 32,
                "duration": 0.013636363636363669,
                "tempo": 120.0
            },
            {
                "start_time": 13.234090909090908,
                "end_time": 15.986363636363636,
                "pitch": 76,
                "velocity": 32,
                "duration": 2.7522727272727288,
                "tempo": 120.0
            },
            {
                "start_time": 15.438636363636363,
                "end_time": 15.986363636363636,
                "pitch": 76,
                "velocity": 32,
                "duration": 0.5477272727272737,
                "tempo": 120.0
            },
            {
                "start_time": 15.986363636363636,
                "end_time": 16.536363636363635,
                "pitch": 73,
                "velocity": 32,
                "duration": 0.5499999999999989,
                "tempo": 120.0
            },
            {
                "start_time": 16.536363636363635,
                "end_time": 17.077272727272728,
                "pitch": 73,
                "velocity": 32,
                "duration": 0.5409090909090928,
                "tempo": 120.0
            },
            {
                "start_time": 2.775,
                "end_time": 17.645454545454545,
                "pitch": 60,
                "velocity": 32,
                "duration": 14.870454545454544,
                "tempo": 120.0
            },
            {
                "start_time": 15.986363636363636,
                "end_time": 17.645454545454545,
                "pitch": 76,
                "velocity": 32,
                "duration": 1.6590909090909083,
                "tempo": 120.0
            },
            {
                "start_time": 17.077272727272728,
                "end_time": 17.645454545454545,
                "pitch": 76,
                "velocity": 32,
                "duration": 0.5681818181818166,
                "tempo": 120.0
            },
            {
                "start_time": 17.645454545454545,
                "end_time": 17.711363636363636,
                "pitch": 67,
                "velocity": 32,
                "duration": 0.06590909090909136,
                "tempo": 120.0
            },
            {
                "start_time": 17.711363636363636,
                "end_time": 17.847727272727273,
                "pitch": 67,
                "velocity": 32,
                "duration": 0.1363636363636367,
                "tempo": 120.0
            },
            {
                "start_time": 17.711363636363636,
                "end_time": 17.847727272727273,
                "pitch": 79,
                "velocity": 32,
                "duration": 0.1363636363636367,
                "tempo": 120.0
            },
            {
                "start_time": 17.847727272727273,
                "end_time": 17.986363636363635,
                "pitch": 67,
                "velocity": 32,
                "duration": 0.1386363636363619,
                "tempo": 120.0
            },
            {
                "start_time": 17.847727272727273,
                "end_time": 17.986363636363635,
                "pitch": 79,
                "velocity": 32,
                "duration": 0.1386363636363619,
                "tempo": 120.0
            },
            {
                "start_time": 17.986363636363635,
                "end_time": 18.125,
                "pitch": 67,
                "velocity": 32,
                "duration": 0.13863636363636545,
                "tempo": 120.0
            },
            {
                "start_time": 17.986363636363635,
                "end_time": 18.125,
                "pitch": 79,
                "velocity": 32,
                "duration": 0.13863636363636545,
                "tempo": 120.0
            },
            {
                "start_time": 18.125,
                "end_time": 18.21363636363636,
                "pitch": 67,
                "velocity": 32,
                "duration": 0.08863636363636118,
                "tempo": 120.0
            },
            {
                "start_time": 18.21363636363636,
                "end_time": 18.21590909090909,
                "pitch": 67,
                "velocity": 32,
                "duration": 0.0022727272727287584,
                "tempo": 120.0
            },
            {
                "start_time": 18.21590909090909,
                "end_time": 18.76590909090909,
                "pitch": 64,
                "velocity": 32,
                "duration": 0.5500000000000007,
                "tempo": 120.0
            },
            {
                "start_time": 17.077272727272728,
                "end_time": 19.31590909090909,
                "pitch": 74,
                "velocity": 32,
                "duration": 2.2386363636363633,
                "tempo": 120.0
            },
            {
                "start_time": 18.76590909090909,
                "end_time": 19.31590909090909,
                "pitch": 74,
                "velocity": 32,
                "duration": 0.5500000000000007,
                "tempo": 120.0
            },
            {
                "start_time": 19.31590909090909,
                "end_time": 19.86590909090909,
                "pitch": 74,
                "velocity": 32,
                "duration": 0.5499999999999972,
                "tempo": 120.0
            },
            {
                "start_time": 9.931818181818182,
                "end_time": 20.988636363636363,
                "pitch": 71,
                "velocity": 32,
                "duration": 11.056818181818182,
                "tempo": 120.0
            },
            {
                "start_time": 19.86590909090909,
                "end_time": 20.988636363636363,
                "pitch": 71,
                "velocity": 32,
                "duration": 1.1227272727272748,
                "tempo": 120.0
            },
            {
                "start_time": 20.988636363636363,
                "end_time": 21.0,
                "pitch": 71,
                "velocity": 32,
                "duration": 0.011363636363636687,
                "tempo": 120.0
            },
            {
                "start_time": 11.570454545454545,
                "end_time": 21.518181818181816,
                "pitch": 30,
                "velocity": 32,
                "duration": 9.94772727272727,
                "tempo": 120.0
            },
            {
                "start_time": 21.0,
                "end_time": 21.518181818181816,
                "pitch": 69,
                "velocity": 32,
                "duration": 0.5181818181818159,
                "tempo": 120.0
            },
            {
                "start_time": 21.518181818181816,
                "end_time": 21.581818181818182,
                "pitch": 67,
                "velocity": 32,
                "duration": 0.06363636363636616,
                "tempo": 120.0
            },
            {
                "start_time": 18.125,
                "end_time": 21.581818181818182,
                "pitch": 79,
                "velocity": 32,
                "duration": 3.456818181818182,
                "tempo": 120.0
            },
            {
                "start_time": 21.581818181818182,
                "end_time": 21.71590909090909,
                "pitch": 67,
                "velocity": 32,
                "duration": 0.13409090909090793,
                "tempo": 120.0
            },
            {
                "start_time": 21.581818181818182,
                "end_time": 21.71590909090909,
                "pitch": 79,
                "velocity": 32,
                "duration": 0.13409090909090793,
                "tempo": 120.0
            },
            {
                "start_time": 21.71590909090909,
                "end_time": 21.847727272727273,
                "pitch": 67,
                "velocity": 32,
                "duration": 0.13181818181818272,
                "tempo": 120.0
            },
            {
                "start_time": 21.71590909090909,
                "end_time": 21.847727272727273,
                "pitch": 79,
                "velocity": 32,
                "duration": 0.13181818181818272,
                "tempo": 120.0
            },
            {
                "start_time": 21.847727272727273,
                "end_time": 21.98181818181818,
                "pitch": 67,
                "velocity": 32,
                "duration": 0.13409090909090793,
                "tempo": 120.0
            },
            {
                "start_time": 21.847727272727273,
                "end_time": 21.98181818181818,
                "pitch": 79,
                "velocity": 32,
                "duration": 0.13409090909090793,
                "tempo": 120.0
            },
            {
                "start_time": 21.98181818181818,
                "end_time": 22.068181818181817,
                "pitch": 67,
                "velocity": 32,
                "duration": 0.08636363636363598,
                "tempo": 120.0
            },
            {
                "start_time": 22.068181818181817,
                "end_time": 22.618181818181817,
                "pitch": 61,
                "velocity": 32,
                "duration": 0.5500000000000007,
                "tempo": 120.0
            },
            {
                "start_time": 22.618181818181817,
                "end_time": 23.170454545454543,
                "pitch": 61,
                "velocity": 32,
                "duration": 0.5522727272727259,
                "tempo": 120.0
            },
            {
                "start_time": 6.629545454545454,
                "end_time": 23.170454545454543,
                "pitch": 62,
                "velocity": 32,
                "duration": 16.54090909090909,
                "tempo": 120.0
            },
            {
                "start_time": 23.170454545454543,
                "end_time": 23.71818181818182,
                "pitch": 66,
                "velocity": 32,
                "duration": 0.5477272727272755,
                "tempo": 120.0
            },
            {
                "start_time": 23.71818181818182,
                "end_time": 24.270454545454545,
                "pitch": 69,
                "velocity": 32,
                "duration": 0.5522727272727259,
                "tempo": 120.0
            },
            {
                "start_time": 24.270454545454545,
                "end_time": 25.39090909090909,
                "pitch": 74,
                "velocity": 32,
                "duration": 1.120454545454546,
                "tempo": 120.0
            },
            {
                "start_time": 18.76590909090909,
                "end_time": 25.920454545454543,
                "pitch": 76,
                "velocity": 32,
                "duration": 7.1545454545454525,
                "tempo": 120.0
            },
            {
                "start_time": 25.39090909090909,
                "end_time": 25.920454545454543,
                "pitch": 76,
                "velocity": 32,
                "duration": 0.5295454545454525,
                "tempo": 120.0
            },
            {
                "start_time": 8.820454545454545,
                "end_time": 26.472727272727273,
                "pitch": 55,
                "velocity": 32,
                "duration": 17.652272727272727,
                "tempo": 120.0
            },
            {
                "start_time": 25.39090909090909,
                "end_time": 26.472727272727273,
                "pitch": 74,
                "velocity": 32,
                "duration": 1.081818181818182,
                "tempo": 120.0
            },
            {
                "start_time": 25.920454545454543,
                "end_time": 26.472727272727273,
                "pitch": 74,
                "velocity": 32,
                "duration": 0.5522727272727295,
                "tempo": 120.0
            },
            {
                "start_time": 22.068181818181817,
                "end_time": 26.536363636363635,
                "pitch": 67,
                "velocity": 32,
                "duration": 4.468181818181819,
                "tempo": 120.0
            },
            {
                "start_time": 26.472727272727273,
                "end_time": 26.536363636363635,
                "pitch": 67,
                "velocity": 32,
                "duration": 0.0636363636363626,
                "tempo": 120.0
            },
            {
                "start_time": 21.98181818181818,
                "end_time": 26.536363636363635,
                "pitch": 79,
                "velocity": 32,
                "duration": 4.554545454545455,
                "tempo": 120.0
            },
            {
                "start_time": 26.536363636363635,
                "end_time": 26.668181818181818,
                "pitch": 67,
                "velocity": 32,
                "duration": 0.13181818181818272,
                "tempo": 120.0
            },
            {
                "start_time": 26.536363636363635,
                "end_time": 26.668181818181818,
                "pitch": 79,
                "velocity": 32,
                "duration": 0.13181818181818272,
                "tempo": 120.0
            },
            {
                "start_time": 26.668181818181818,
                "end_time": 26.802272727272726,
                "pitch": 67,
                "velocity": 32,
                "duration": 0.13409090909090793,
                "tempo": 120.0
            },
            {
                "start_time": 26.668181818181818,
                "end_time": 26.802272727272726,
                "pitch": 79,
                "velocity": 32,
                "duration": 0.13409090909090793,
                "tempo": 120.0
            },
            {
                "start_time": 26.802272727272726,
                "end_time": 26.936363636363634,
                "pitch": 67,
                "velocity": 32,
                "duration": 0.13409090909090793,
                "tempo": 120.0
            },
            {
                "start_time": 26.802272727272726,
                "end_time": 26.936363636363634,
                "pitch": 79,
                "velocity": 32,
                "duration": 0.13409090909090793,
                "tempo": 120.0
            },
            {
                "start_time": 26.936363636363634,
                "end_time": 27.02272727272727,
                "pitch": 67,
                "velocity": 32,
                "duration": 0.08636363636363598,
                "tempo": 120.0
            },
            {
                "start_time": 26.936363636363634,
                "end_time": 27.02272727272727,
                "pitch": 79,
                "velocity": 32,
                "duration": 0.08636363636363598,
                "tempo": 120.0
            },
            {
                "start_time": 27.02272727272727,
                "end_time": 27.57272727272727,
                "pitch": 71,
                "velocity": 32,
                "duration": 0.5500000000000007,
                "tempo": 120.0
            },
            {
                "start_time": 25.920454545454543,
                "end_time": 28.12272727272727,
                "pitch": 76,
                "velocity": 32,
                "duration": 2.202272727272728,
                "tempo": 120.0
            },
            {
                "start_time": 27.57272727272727,
                "end_time": 28.12272727272727,
                "pitch": 76,
                "velocity": 32,
                "duration": 0.5500000000000007,
                "tempo": 120.0
            },
            {
                "start_time": 28.12272727272727,
                "end_time": 28.674999999999997,
                "pitch": 74,
                "velocity": 32,
                "duration": 0.5522727272727259,
                "tempo": 120.0
            },
            {
                "start_time": 19.86590909090909,
                "end_time": 29.775,
                "pitch": 73,
                "velocity": 32,
                "duration": 9.90909090909091,
                "tempo": 120.0
            },
            {
                "start_time": 28.674999999999997,
                "end_time": 29.775,
                "pitch": 74,
                "velocity": 32,
                "duration": 1.1000000000000014,
                "tempo": 120.0
            },
            {
                "start_time": 3.8659090909090907,
                "end_time": 30.886363636363633,
                "pitch": 57,
                "velocity": 32,
                "duration": 27.02045454545454,
                "tempo": 120.0
            },
            {
                "start_time": 24.270454545454545,
                "end_time": 30.886363636363633,
                "pitch": 69,
                "velocity": 32,
                "duration": 6.6159090909090885,
                "tempo": 120.0
            },
            {
                "start_time": 29.775,
                "end_time": 30.886363636363633,
                "pitch": 69,
                "velocity": 32,
                "duration": 1.1113636363636346,
                "tempo": 120.0
            },
            {
                "start_time": 26.472727272727273,
                "end_time": 33.06590909090909,
                "pitch": 55,
                "velocity": 32,
                "duration": 6.593181818181815,
                "tempo": 120.0
            },
            {
                "start_time": 23.170454545454543,
                "end_time": 33.06590909090909,
                "pitch": 62,
                "velocity": 32,
                "duration": 9.895454545454545,
                "tempo": 120.0
            },
            {
                "start_time": 30.886363636363633,
                "end_time": 33.06590909090909,
                "pitch": 62,
                "velocity": 32,
                "duration": 2.1795454545454547,
                "tempo": 120.0
            },
            {
                "start_time": 33.06590909090909,
                "end_time": 33.13181818181818,
                "pitch": 67,
                "velocity": 32,
                "duration": 0.06590909090909491,
                "tempo": 120.0
            },
            {
                "start_time": 27.02272727272727,
                "end_time": 33.13181818181818,
                "pitch": 79,
                "velocity": 32,
                "duration": 6.109090909090913,
                "tempo": 120.0
            },
            {
                "start_time": 33.13181818181818,
                "end_time": 33.268181818181816,
                "pitch": 67,
                "velocity": 32,
                "duration": 0.13636363636363313,
                "tempo": 120.0
            },
            {
                "start_time": 33.13181818181818,
                "end_time": 33.268181818181816,
                "pitch": 79,
                "velocity": 32,
                "duration": 0.13636363636363313,
                "tempo": 120.0
            },
            {
                "start_time": 33.268181818181816,
                "end_time": 33.404545454545456,
                "pitch": 67,
                "velocity": 32,
                "duration": 0.13636363636364024,
                "tempo": 120.0
            },
            {
                "start_time": 33.268181818181816,
                "end_time": 33.404545454545456,
                "pitch": 79,
                "velocity": 32,
                "duration": 0.13636363636364024,
                "tempo": 120.0
            },
            {
                "start_time": 33.404545454545456,
                "end_time": 33.538636363636364,
                "pitch": 67,
                "velocity": 32,
                "duration": 0.13409090909090793,
                "tempo": 120.0
            },
            {
                "start_time": 33.404545454545456,
                "end_time": 33.538636363636364,
                "pitch": 79,
                "velocity": 32,
                "duration": 0.13409090909090793,
                "tempo": 120.0
            },
            {
                "start_time": 33.538636363636364,
                "end_time": 33.67727272727272,
                "pitch": 67,
                "velocity": 32,
                "duration": 0.13863636363635834,
                "tempo": 120.0
            },
            {
                "start_time": 33.538636363636364,
                "end_time": 33.67727272727272,
                "pitch": 79,
                "velocity": 32,
                "duration": 0.13863636363635834,
                "tempo": 120.0
            },
            {
                "start_time": 33.67727272727272,
                "end_time": 33.81818181818181,
                "pitch": 67,
                "velocity": 32,
                "duration": 0.14090909090909065,
                "tempo": 120.0
            },
            {
                "start_time": 33.67727272727272,
                "end_time": 33.81818181818181,
                "pitch": 79,
                "velocity": 32,
                "duration": 0.14090909090909065,
                "tempo": 120.0
            },
            {
                "start_time": 33.81818181818181,
                "end_time": 33.95909090909091,
                "pitch": 67,
                "velocity": 32,
                "duration": 0.14090909090909776,
                "tempo": 120.0
            },
            {
                "start_time": 33.81818181818181,
                "end_time": 33.95909090909091,
                "pitch": 79,
                "velocity": 32,
                "duration": 0.14090909090909776,
                "tempo": 120.0
            },
            {
                "start_time": 33.95909090909091,
                "end_time": 34.1,
                "pitch": 67,
                "velocity": 32,
                "duration": 0.14090909090909065,
                "tempo": 120.0
            },
            {
                "start_time": 33.95909090909091,
                "end_time": 34.1,
                "pitch": 79,
                "velocity": 32,
                "duration": 0.14090909090909065,
                "tempo": 120.0
            },
            {
                "start_time": 34.1,
                "end_time": 34.23863636363636,
                "pitch": 67,
                "velocity": 32,
                "duration": 0.13863636363635834,
                "tempo": 120.0
            },
            {
                "start_time": 34.1,
                "end_time": 34.23863636363636,
                "pitch": 79,
                "velocity": 32,
                "duration": 0.13863636363635834,
                "tempo": 120.0
            },
            {
                "start_time": 34.23863636363636,
                "end_time": 34.36818181818182,
                "pitch": 67,
                "velocity": 32,
                "duration": 0.12954545454545752,
                "tempo": 120.0
            },
            {
                "start_time": 34.23863636363636,
                "end_time": 34.36818181818182,
                "pitch": 79,
                "velocity": 32,
                "duration": 0.12954545454545752,
                "tempo": 120.0
            },
            {
                "start_time": 34.36818181818182,
                "end_time": 34.49545454545454,
                "pitch": 67,
                "velocity": 32,
                "duration": 0.1272727272727252,
                "tempo": 120.0
            },
            {
                "start_time": 34.36818181818182,
                "end_time": 34.49545454545454,
                "pitch": 79,
                "velocity": 32,
                "duration": 0.1272727272727252,
                "tempo": 120.0
            },
            {
                "start_time": 34.49545454545454,
                "end_time": 34.625,
                "pitch": 67,
                "velocity": 32,
                "duration": 0.12954545454545752,
                "tempo": 120.0
            },
            {
                "start_time": 34.49545454545454,
                "end_time": 34.625,
                "pitch": 79,
                "velocity": 32,
                "duration": 0.12954545454545752,
                "tempo": 120.0
            },
            {
                "start_time": 34.625,
                "end_time": 34.75454545454545,
                "pitch": 67,
                "velocity": 32,
                "duration": 0.1295454545454504,
                "tempo": 120.0
            },
            {
                "start_time": 34.625,
                "end_time": 34.75454545454545,
                "pitch": 79,
                "velocity": 32,
                "duration": 0.1295454545454504,
                "tempo": 120.0
            },
            {
                "start_time": 34.75454545454545,
                "end_time": 34.88409090909091,
                "pitch": 67,
                "velocity": 32,
                "duration": 0.12954545454545752,
                "tempo": 120.0
            },
            {
                "start_time": 34.75454545454545,
                "end_time": 34.88409090909091,
                "pitch": 79,
                "velocity": 32,
                "duration": 0.12954545454545752,
                "tempo": 120.0
            },
            {
                "start_time": 34.88409090909091,
                "end_time": 35.01590909090909,
                "pitch": 67,
                "velocity": 32,
                "duration": 0.13181818181818272,
                "tempo": 120.0
            },
            {
                "start_time": 34.88409090909091,
                "end_time": 35.01590909090909,
                "pitch": 79,
                "velocity": 32,
                "duration": 0.13181818181818272,
                "tempo": 120.0
            },
            {
                "start_time": 35.01590909090909,
                "end_time": 35.14772727272727,
                "pitch": 67,
                "velocity": 32,
                "duration": 0.13181818181818272,
                "tempo": 120.0
            },
            {
                "start_time": 35.01590909090909,
                "end_time": 35.14772727272727,
                "pitch": 79,
                "velocity": 32,
                "duration": 0.13181818181818272,
                "tempo": 120.0
            },
            {
                "start_time": 35.14772727272727,
                "end_time": 35.277272727272724,
                "pitch": 67,
                "velocity": 32,
                "duration": 0.1295454545454504,
                "tempo": 120.0
            },
            {
                "start_time": 35.14772727272727,
                "end_time": 35.277272727272724,
                "pitch": 79,
                "velocity": 32,
                "duration": 0.1295454545454504,
                "tempo": 120.0
            },
            {
                "start_time": 35.277272727272724,
                "end_time": 35.29772727272727,
                "pitch": 67,
                "velocity": 32,
                "duration": 0.020454545454548168,
                "tempo": 120.0
            },
            {
                "start_time": 35.29772727272727,
                "end_time": 35.38181818181818,
                "pitch": 67,
                "velocity": 32,
                "duration": 0.08409090909091077,
                "tempo": 120.0
            }
        ]
    }
}