{
    "track_id": "Columns (FM) - 04 - Lathesis",
    "mood": "relaxed",
    "instruments": {
        "Flute": [
            {
                "start_time": 82.58863636363635,
                "end_time": 82.7840909090909,
                "pitch": 94,
                "velocity": 51,
                "duration": 0.19545454545455243,
                "tempo": 120.0
            },
            {
                "start_time": 82.7840909090909,
                "end_time": 82.96363636363635,
                "pitch": 96,
                "velocity": 51,
                "duration": 0.17954545454544757,
                "tempo": 120.0
            },
            {
                "start_time": 82.96363636363635,
                "end_time": 85.31136363636364,
                "pitch": 93,
                "velocity": 51,
                "duration": 2.3477272727272833,
                "tempo": 120.0
            },
            {
                "start_time": 85.31136363636364,
                "end_time": 85.5090909090909,
                "pitch": 88,
                "velocity": 51,
                "duration": 0.19772727272726343,
                "tempo": 120.0
            },
            {
                "start_time": 85.5090909090909,
                "end_time": 85.70454545454545,
                "pitch": 90,
                "velocity": 51,
                "duration": 0.19545454545455243,
                "tempo": 120.0
            },
            {
                "start_time": 85.70454545454545,
                "end_time": 85.90681818181818,
                "pitch": 91,
                "velocity": 51,
                "duration": 0.20227272727272805,
                "tempo": 120.0
            },
            {
                "start_time": 85.90681818181818,
                "end_time": 86.10681818181818,
                "pitch": 91,
                "velocity": 51,
                "duration": 0.20000000000000284,
                "tempo": 120.0
            },
            {
                "start_time": 86.10681818181818,
                "end_time": 88.42727272727272,
                "pitch": 93,
                "velocity": 51,
                "duration": 2.320454545454538,
                "tempo": 120.0
            },
            {
                "start_time": 82.7840909090909,
                "end_time": 88.62272727272727,
                "pitch": 94,
                "velocity": 51,
                "duration": 5.838636363636368,
                "tempo": 120.0
            },
            {
                "start_time": 88.42727272727272,
                "end_time": 88.62272727272727,
                "pitch": 94,
                "velocity": 51,
                "duration": 0.19545454545455243,
                "tempo": 120.0
            },
            {
                "start_time": 82.96363636363635,
                "end_time": 88.81818181818181,
                "pitch": 96,
                "velocity": 51,
                "duration": 5.854545454545459,
                "tempo": 120.0
            },
            {
                "start_time": 88.62272727272727,
                "end_time": 88.81818181818181,
                "pitch": 96,
                "velocity": 51,
                "duration": 0.19545454545453822,
                "tempo": 120.0
            },
            {
                "start_time": 88.62272727272727,
                "end_time": 89.01818181818182,
                "pitch": 94,
                "velocity": 51,
                "duration": 0.39545454545454106,
                "tempo": 120.0
            },
            {
                "start_time": 88.81818181818181,
                "end_time": 89.01818181818182,
                "pitch": 94,
                "velocity": 51,
                "duration": 0.20000000000000284,
                "tempo": 120.0
            },
            {
                "start_time": 89.01818181818182,
                "end_time": 89.21818181818182,
                "pitch": 91,
                "velocity": 51,
                "duration": 0.20000000000000284,
                "tempo": 120.0
            },
            {
                "start_time": 85.31136363636364,
                "end_time": 91.54090909090908,
                "pitch": 81,
                "velocity": 51,
                "duration": 6.229545454545445,
                "tempo": 120.0
            },
            {
                "start_time": 89.21818181818182,
                "end_time": 91.54090909090908,
                "pitch": 91,
                "velocity": 51,
                "duration": 2.3227272727272634,
                "tempo": 120.0
            },
            {
                "start_time": 91.54090909090908,
                "end_time": 91.73636363636363,
                "pitch": 86,
                "velocity": 51,
                "duration": 0.19545454545455243,
                "tempo": 120.0
            },
            {
                "start_time": 85.5090909090909,
                "end_time": 91.9340909090909,
                "pitch": 88,
                "velocity": 51,
                "duration": 6.424999999999997,
                "tempo": 120.0
            },
            {
                "start_time": 91.73636363636363,
                "end_time": 91.9340909090909,
                "pitch": 88,
                "velocity": 51,
                "duration": 0.19772727272726343,
                "tempo": 120.0
            },
            {
                "start_time": 91.9340909090909,
                "end_time": 92.1340909090909,
                "pitch": 90,
                "velocity": 51,
                "duration": 0.20000000000000284,
                "tempo": 120.0
            },
            {
                "start_time": 91.73636363636363,
                "end_time": 92.33636363636363,
                "pitch": 86,
                "velocity": 51,
                "duration": 0.5999999999999943,
                "tempo": 120.0
            },
            {
                "start_time": 92.1340909090909,
                "end_time": 92.33636363636363,
                "pitch": 86,
                "velocity": 51,
                "duration": 0.20227272727272805,
                "tempo": 120.0
            },
            {
                "start_time": 91.9340909090909,
                "end_time": 93.48636363636363,
                "pitch": 88,
                "velocity": 51,
                "duration": 1.5522727272727366,
                "tempo": 120.0
            },
            {
                "start_time": 92.33636363636363,
                "end_time": 93.48636363636363,
                "pitch": 88,
                "velocity": 51,
                "duration": 1.1500000000000057,
                "tempo": 120.0
            },
            {
                "start_time": 92.1340909090909,
                "end_time": 93.87954545454545,
                "pitch": 90,
                "velocity": 51,
                "duration": 1.7454545454545496,
                "tempo": 120.0
            },
            {
                "start_time": 93.48636363636363,
                "end_time": 93.87954545454545,
                "pitch": 90,
                "velocity": 51,
                "duration": 0.39318181818181586,
                "tempo": 120.0
            },
            {
                "start_time": 85.70454545454545,
                "end_time": 93.87954545454545,
                "pitch": 102,
                "velocity": 51,
                "duration": 8.174999999999997,
                "tempo": 120.0
            },
            {
                "start_time": 93.87954545454545,
                "end_time": 94.28181818181818,
                "pitch": 91,
                "velocity": 51,
                "duration": 0.4022727272727309,
                "tempo": 120.0
            },
            {
                "start_time": 93.48636363636363,
                "end_time": 94.66818181818181,
                "pitch": 88,
                "velocity": 51,
                "duration": 1.1818181818181728,
                "tempo": 120.0
            },
            {
                "start_time": 94.28181818181818,
                "end_time": 94.66818181818181,
                "pitch": 88,
                "velocity": 51,
                "duration": 0.38636363636362603,
                "tempo": 120.0
            },
            {
                "start_time": 89.01818181818182,
                "end_time": 95.05,
                "pitch": 94,
                "velocity": 51,
                "duration": 6.031818181818181,
                "tempo": 120.0
            },
            {
                "start_time": 94.66818181818181,
                "end_time": 95.05,
                "pitch": 94,
                "velocity": 51,
                "duration": 0.38181818181818983,
                "tempo": 120.0
            },
            {
                "start_time": 95.05,
                "end_time": 95.45227272727273,
                "pitch": 94,
                "velocity": 51,
                "duration": 0.4022727272727309,
                "tempo": 120.0
            },
            {
                "start_time": 95.45227272727273,
                "end_time": 98.56818181818181,
                "pitch": 93,
                "velocity": 51,
                "duration": 3.115909090909085,
                "tempo": 120.0
            },
            {
                "start_time": 98.56818181818181,
                "end_time": 99.73863636363636,
                "pitch": 93,
                "velocity": 51,
                "duration": 1.1704545454545467,
                "tempo": 120.0
            },
            {
                "start_time": 88.81818181818181,
                "end_time": 100.12045454545454,
                "pitch": 96,
                "velocity": 51,
                "duration": 11.302272727272722,
                "tempo": 120.0
            },
            {
                "start_time": 99.73863636363636,
                "end_time": 100.12045454545454,
                "pitch": 96,
                "velocity": 51,
                "duration": 0.3818181818181756,
                "tempo": 120.0
            },
            {
                "start_time": 100.12045454545454,
                "end_time": 100.51363636363637,
                "pitch": 96,
                "velocity": 51,
                "duration": 0.39318181818183007,
                "tempo": 120.0
            },
            {
                "start_time": 99.73863636363636,
                "end_time": 100.88863636363637,
                "pitch": 94,
                "velocity": 51,
                "duration": 1.1500000000000057,
                "tempo": 120.0
            },
            {
                "start_time": 100.51363636363637,
                "end_time": 100.88863636363637,
                "pitch": 94,
                "velocity": 51,
                "duration": 0.375,
                "tempo": 120.0
            },
            {
                "start_time": 100.88863636363637,
                "end_time": 101.6840909090909,
                "pitch": 96,
                "velocity": 51,
                "duration": 0.7954545454545325,
                "tempo": 120.0
            },
            {
                "start_time": 94.66818181818181,
                "end_time": 104.40227272727272,
                "pitch": 100,
                "velocity": 51,
                "duration": 9.73409090909091,
                "tempo": 120.0
            },
            {
                "start_time": 101.6840909090909,
                "end_time": 104.40227272727272,
                "pitch": 100,
                "velocity": 51,
                "duration": 2.7181818181818187,
                "tempo": 120.0
            },
            {
                "start_time": 91.54090909090908,
                "end_time": 104.79545454545455,
                "pitch": 81,
                "velocity": 51,
                "duration": 13.254545454545465,
                "tempo": 120.0
            },
            {
                "start_time": 104.40227272727272,
                "end_time": 104.79545454545455,
                "pitch": 93,
                "velocity": 51,
                "duration": 0.39318181818183007,
                "tempo": 120.0
            },
            {
                "start_time": 92.33636363636363,
                "end_time": 105.76590909090909,
                "pitch": 86,
                "velocity": 51,
                "duration": 13.429545454545462,
                "tempo": 120.0
            },
            {
                "start_time": 104.79545454545455,
                "end_time": 105.76590909090909,
                "pitch": 86,
                "velocity": 51,
                "duration": 0.9704545454545439,
                "tempo": 120.0
            },
            {
                "start_time": 105.76590909090909,
                "end_time": 105.96590909090908,
                "pitch": 88,
                "velocity": 51,
                "duration": 0.19999999999998863,
                "tempo": 120.0
            },
            {
                "start_time": 105.96590909090908,
                "end_time": 106.14999999999999,
                "pitch": 90,
                "velocity": 51,
                "duration": 0.1840909090909122,
                "tempo": 120.0
            },
            {
                "start_time": 93.87954545454545,
                "end_time": 106.14999999999999,
                "pitch": 102,
                "velocity": 51,
                "duration": 12.270454545454541,
                "tempo": 120.0
            },
            {
                "start_time": 106.14999999999999,
                "end_time": 106.35,
                "pitch": 91,
                "velocity": 51,
                "duration": 0.20000000000000284,
                "tempo": 120.0
            },
            {
                "start_time": 104.79545454545455,
                "end_time": 106.74318181818181,
                "pitch": 81,
                "velocity": 51,
                "duration": 1.9477272727272634,
                "tempo": 120.0
            },
            {
                "start_time": 106.35,
                "end_time": 106.74318181818181,
                "pitch": 91,
                "velocity": 51,
                "duration": 0.39318181818181586,
                "tempo": 120.0
            },
            {
                "start_time": 106.74318181818181,
                "end_time": 107.1340909090909,
                "pitch": 90,
                "velocity": 51,
                "duration": 0.39090909090909065,
                "tempo": 120.0
            },
            {
                "start_time": 106.14999999999999,
                "end_time": 107.1340909090909,
                "pitch": 102,
                "velocity": 51,
                "duration": 0.9840909090909093,
                "tempo": 120.0
            },
            {
                "start_time": 107.1340909090909,
                "end_time": 107.52045454545454,
                "pitch": 95,
                "velocity": 51,
                "duration": 0.38636363636364024,
                "tempo": 120.0
            },
            {
                "start_time": 94.28181818181818,
                "end_time": 107.91363636363636,
                "pitch": 79,
                "velocity": 51,
                "duration": 13.631818181818176,
                "tempo": 120.0
            },
            {
                "start_time": 107.52045454545454,
                "end_time": 107.91363636363636,
                "pitch": 91,
                "velocity": 51,
                "duration": 0.39318181818181586,
                "tempo": 120.0
            },
            {
                "start_time": 107.91363636363636,
                "end_time": 109.07954545454545,
                "pitch": 90,
                "velocity": 51,
                "duration": 1.1659090909090963,
                "tempo": 120.0
            },
            {
                "start_time": 107.1340909090909,
                "end_time": 109.07954545454545,
                "pitch": 102,
                "velocity": 51,
                "duration": 1.9454545454545524,
                "tempo": 120.0
            },
            {
                "start_time": 107.91363636363636,
                "end_time": 109.28181818181818,
                "pitch": 79,
                "velocity": 51,
                "duration": 1.3681818181818244,
                "tempo": 120.0
            },
            {
                "start_time": 109.07954545454545,
                "end_time": 109.28181818181818,
                "pitch": 91,
                "velocity": 51,
                "duration": 0.20227272727272805,
                "tempo": 120.0
            },
            {
                "start_time": 109.28181818181818,
                "end_time": 109.46590909090908,
                "pitch": 90,
                "velocity": 51,
                "duration": 0.18409090909089798,
                "tempo": 120.0
            },
            {
                "start_time": 105.96590909090908,
                "end_time": 111.03636363636363,
                "pitch": 88,
                "velocity": 51,
                "duration": 5.070454545454552,
                "tempo": 120.0
            },
            {
                "start_time": 109.46590909090908,
                "end_time": 111.03636363636363,
                "pitch": 88,
                "velocity": 51,
                "duration": 1.5704545454545524,
                "tempo": 120.0
            },
            {
                "start_time": 105.76590909090909,
                "end_time": 112.00227272727273,
                "pitch": 86,
                "velocity": 51,
                "duration": 6.2363636363636346,
                "tempo": 120.0
            },
            {
                "start_time": 111.03636363636363,
                "end_time": 112.00227272727273,
                "pitch": 86,
                "velocity": 51,
                "duration": 0.9659090909090935,
                "tempo": 120.0
            },
            {
                "start_time": 111.03636363636363,
                "end_time": 112.19772727272726,
                "pitch": 88,
                "velocity": 51,
                "duration": 1.1613636363636317,
                "tempo": 120.0
            },
            {
                "start_time": 112.00227272727273,
                "end_time": 112.19772727272726,
                "pitch": 88,
                "velocity": 51,
                "duration": 0.19545454545453822,
                "tempo": 120.0
            },
            {
                "start_time": 109.46590909090908,
                "end_time": 112.39999999999999,
                "pitch": 90,
                "velocity": 51,
                "duration": 2.934090909090912,
                "tempo": 120.0
            },
            {
                "start_time": 112.19772727272726,
                "end_time": 112.39999999999999,
                "pitch": 90,
                "velocity": 51,
                "duration": 0.20227272727272805,
                "tempo": 120.0
            },
            {
                "start_time": 109.07954545454545,
                "end_time": 112.39999999999999,
                "pitch": 102,
                "velocity": 51,
                "duration": 3.320454545454538,
                "tempo": 120.0
            },
            {
                "start_time": 112.39999999999999,
                "end_time": 112.5840909090909,
                "pitch": 91,
                "velocity": 51,
                "duration": 0.1840909090909122,
                "tempo": 120.0
            },
            {
                "start_time": 106.74318181818181,
                "end_time": 112.975,
                "pitch": 81,
                "velocity": 51,
                "duration": 6.231818181818184,
                "tempo": 120.0
            },
            {
                "start_time": 112.5840909090909,
                "end_time": 112.975,
                "pitch": 91,
                "velocity": 51,
                "duration": 0.39090909090909065,
                "tempo": 120.0
            },
            {
                "start_time": 112.975,
                "end_time": 113.375,
                "pitch": 90,
                "velocity": 51,
                "duration": 0.4000000000000057,
                "tempo": 120.0
            },
            {
                "start_time": 112.39999999999999,
                "end_time": 113.375,
                "pitch": 102,
                "velocity": 51,
                "duration": 0.9750000000000085,
                "tempo": 120.0
            },
            {
                "start_time": 107.52045454545454,
                "end_time": 113.76136363636363,
                "pitch": 95,
                "velocity": 51,
                "duration": 6.240909090909085,
                "tempo": 120.0
            },
            {
                "start_time": 113.375,
                "end_time": 113.76136363636363,
                "pitch": 95,
                "velocity": 51,
                "duration": 0.38636363636362603,
                "tempo": 120.0
            },
            {
                "start_time": 113.76136363636363,
                "end_time": 114.14318181818182,
                "pitch": 91,
                "velocity": 51,
                "duration": 0.38181818181818983,
                "tempo": 120.0
            },
            {
                "start_time": 114.14318181818182,
                "end_time": 114.92272727272727,
                "pitch": 91,
                "velocity": 51,
                "duration": 0.7795454545454561,
                "tempo": 120.0
            },
            {
                "start_time": 114.92272727272727,
                "end_time": 115.31363636363636,
                "pitch": 93,
                "velocity": 51,
                "duration": 0.39090909090909065,
                "tempo": 120.0
            },
            {
                "start_time": 115.31363636363636,
                "end_time": 115.69772727272726,
                "pitch": 90,
                "velocity": 51,
                "duration": 0.3840909090909008,
                "tempo": 120.0
            },
            {
                "start_time": 113.375,
                "end_time": 115.69772727272726,
                "pitch": 102,
                "velocity": 51,
                "duration": 2.3227272727272634,
                "tempo": 120.0
            },
            {
                "start_time": 109.28181818181818,
                "end_time": 116.47954545454544,
                "pitch": 79,
                "velocity": 51,
                "duration": 7.197727272727263,
                "tempo": 120.0
            },
            {
                "start_time": 115.69772727272726,
                "end_time": 116.47954545454544,
                "pitch": 91,
                "velocity": 51,
                "duration": 0.7818181818181813,
                "tempo": 120.0
            },
            {
                "start_time": 112.19772727272726,
                "end_time": 117.25681818181818,
                "pitch": 88,
                "velocity": 51,
                "duration": 5.059090909090912,
                "tempo": 120.0
            },
            {
                "start_time": 116.47954545454544,
                "end_time": 117.25681818181818,
                "pitch": 88,
                "velocity": 51,
                "duration": 0.7772727272727309,
                "tempo": 120.0
            },
            {
                "start_time": 112.00227272727273,
                "end_time": 118.425,
                "pitch": 86,
                "velocity": 51,
                "duration": 6.422727272727272,
                "tempo": 120.0
            },
            {
                "start_time": 117.25681818181818,
                "end_time": 118.425,
                "pitch": 86,
                "velocity": 51,
                "duration": 1.1681818181818215,
                "tempo": 120.0
            },
            {
                "start_time": 100.51363636363637,
                "end_time": 118.425,
                "pitch": 98,
                "velocity": 51,
                "duration": 17.91136363636363,
                "tempo": 120.0
            },
            {
                "start_time": 118.425,
                "end_time": 118.62727272727273,
                "pitch": 93,
                "velocity": 51,
                "duration": 0.20227272727272805,
                "tempo": 120.0
            },
            {
                "start_time": 116.47954545454544,
                "end_time": 118.81136363636364,
                "pitch": 79,
                "velocity": 51,
                "duration": 2.3318181818181927,
                "tempo": 120.0
            },
            {
                "start_time": 118.62727272727273,
                "end_time": 118.81136363636364,
                "pitch": 93,
                "velocity": 51,
                "duration": 0.1840909090909122,
                "tempo": 120.0
            },
            {
                "start_time": 117.25681818181818,
                "end_time": 119.97727272727272,
                "pitch": 88,
                "velocity": 51,
                "duration": 2.720454545454544,
                "tempo": 120.0
            },
            {
                "start_time": 118.81136363636364,
                "end_time": 119.97727272727272,
                "pitch": 88,
                "velocity": 51,
                "duration": 1.1659090909090821,
                "tempo": 120.0
            },
            {
                "start_time": 104.40227272727272,
                "end_time": 119.97727272727272,
                "pitch": 100,
                "velocity": 51,
                "duration": 15.575000000000003,
                "tempo": 120.0
            },
            {
                "start_time": 119.97727272727272,
                "end_time": 120.17272727272727,
                "pitch": 93,
                "velocity": 51,
                "duration": 0.19545454545455243,
                "tempo": 120.0
            },
            {
                "start_time": 118.81136363636364,
                "end_time": 120.37045454545454,
                "pitch": 79,
                "velocity": 51,
                "duration": 1.559090909090898,
                "tempo": 120.0
            },
            {
                "start_time": 120.17272727272727,
                "end_time": 120.37045454545454,
                "pitch": 93,
                "velocity": 51,
                "duration": 0.19772727272726343,
                "tempo": 120.0
            },
            {
                "start_time": 120.37045454545454,
                "end_time": 121.55,
                "pitch": 86,
                "velocity": 51,
                "duration": 1.1795454545454618,
                "tempo": 120.0
            },
            {
                "start_time": 118.425,
                "end_time": 121.55,
                "pitch": 98,
                "velocity": 51,
                "duration": 3.125,
                "tempo": 120.0
            },
            {
                "start_time": 113.76136363636363,
                "end_time": 121.74545454545454,
                "pitch": 95,
                "velocity": 51,
                "duration": 7.984090909090909,
                "tempo": 120.0
            },
            {
                "start_time": 121.55,
                "end_time": 121.74545454545454,
                "pitch": 95,
                "velocity": 51,
                "duration": 0.19545454545453822,
                "tempo": 120.0
            },
            {
                "start_time": 120.37045454545454,
                "end_time": 121.94318181818181,
                "pitch": 79,
                "velocity": 51,
                "duration": 1.5727272727272776,
                "tempo": 120.0
            },
            {
                "start_time": 121.74545454545454,
                "end_time": 121.94318181818181,
                "pitch": 91,
                "velocity": 51,
                "duration": 0.19772727272727764,
                "tempo": 120.0
            },
            {
                "start_time": 121.94318181818181,
                "end_time": 123.10681818181817,
                "pitch": 88,
                "velocity": 51,
                "duration": 1.163636363636357,
                "tempo": 120.0
            },
            {
                "start_time": 119.97727272727272,
                "end_time": 123.10681818181817,
                "pitch": 100,
                "velocity": 51,
                "duration": 3.1295454545454504,
                "tempo": 120.0
            },
            {
                "start_time": 123.10681818181817,
                "end_time": 123.29772727272727,
                "pitch": 93,
                "velocity": 51,
                "duration": 0.19090909090910202,
                "tempo": 120.0
            },
            {
                "start_time": 121.94318181818181,
                "end_time": 123.48863636363636,
                "pitch": 79,
                "velocity": 51,
                "duration": 1.5454545454545467,
                "tempo": 120.0
            },
            {
                "start_time": 123.29772727272727,
                "end_time": 123.48863636363636,
                "pitch": 93,
                "velocity": 51,
                "duration": 0.1909090909090878,
                "tempo": 120.0
            },
            {
                "start_time": 123.48863636363636,
                "end_time": 123.89090909090909,
                "pitch": 86,
                "velocity": 51,
                "duration": 0.4022727272727309,
                "tempo": 120.0
            },
            {
                "start_time": 123.89090909090909,
                "end_time": 124.09090909090908,
                "pitch": 90,
                "velocity": 51,
                "duration": 0.19999999999998863,
                "tempo": 120.0
            },
            {
                "start_time": 115.69772727272726,
                "end_time": 124.09090909090908,
                "pitch": 102,
                "velocity": 51,
                "duration": 8.393181818181816,
                "tempo": 120.0
            },
            {
                "start_time": 123.48863636363636,
                "end_time": 124.27499999999999,
                "pitch": 79,
                "velocity": 51,
                "duration": 0.7863636363636317,
                "tempo": 120.0
            },
            {
                "start_time": 124.09090909090908,
                "end_time": 124.27499999999999,
                "pitch": 91,
                "velocity": 51,
                "duration": 0.1840909090909122,
                "tempo": 120.0
            },
            {
                "start_time": 124.27499999999999,
                "end_time": 124.66818181818181,
                "pitch": 88,
                "velocity": 51,
                "duration": 0.39318181818181586,
                "tempo": 120.0
            },
            {
                "start_time": 123.10681818181817,
                "end_time": 124.66818181818181,
                "pitch": 100,
                "velocity": 51,
                "duration": 1.5613636363636374,
                "tempo": 120.0
            },
            {
                "start_time": 124.66818181818181,
                "end_time": 124.86818181818181,
                "pitch": 93,
                "velocity": 51,
                "duration": 0.20000000000000284,
                "tempo": 120.0
            },
            {
                "start_time": 124.27499999999999,
                "end_time": 125.07045454545454,
                "pitch": 79,
                "velocity": 51,
                "duration": 0.7954545454545467,
                "tempo": 120.0
            },
            {
                "start_time": 124.86818181818181,
                "end_time": 125.07045454545454,
                "pitch": 93,
                "velocity": 51,
                "duration": 0.20227272727272805,
                "tempo": 120.0
            },
            {
                "start_time": 123.89090909090909,
                "end_time": 125.44545454545454,
                "pitch": 86,
                "velocity": 51,
                "duration": 1.5545454545454476,
                "tempo": 120.0
            },
            {
                "start_time": 125.07045454545454,
                "end_time": 125.44545454545454,
                "pitch": 86,
                "velocity": 51,
                "duration": 0.375,
                "tempo": 120.0
            },
            {
                "start_time": 125.44545454545454,
                "end_time": 125.64090909090909,
                "pitch": 90,
                "velocity": 51,
                "duration": 0.19545454545455243,
                "tempo": 120.0
            },
            {
                "start_time": 124.09090909090908,
                "end_time": 125.64090909090909,
                "pitch": 102,
                "velocity": 51,
                "duration": 1.5500000000000114,
                "tempo": 120.0
            },
            {
                "start_time": 125.07045454545454,
                "end_time": 125.83863636363635,
                "pitch": 79,
                "velocity": 51,
                "duration": 0.7681818181818159,
                "tempo": 120.0
            },
            {
                "start_time": 125.64090909090909,
                "end_time": 125.83863636363635,
                "pitch": 91,
                "velocity": 51,
                "duration": 0.19772727272726343,
                "tempo": 120.0
            },
            {
                "start_time": 125.83863636363635,
                "end_time": 126.21363636363635,
                "pitch": 88,
                "velocity": 51,
                "duration": 0.375,
                "tempo": 120.0
            },
            {
                "start_time": 124.66818181818181,
                "end_time": 126.21363636363635,
                "pitch": 100,
                "velocity": 51,
                "duration": 1.5454545454545467,
                "tempo": 120.0
            },
            {
                "start_time": 126.21363636363635,
                "end_time": 126.41363636363636,
                "pitch": 93,
                "velocity": 51,
                "duration": 0.20000000000000284,
                "tempo": 120.0
            },
            {
                "start_time": 125.83863636363635,
                "end_time": 126.61363636363636,
                "pitch": 79,
                "velocity": 51,
                "duration": 0.7750000000000057,
                "tempo": 120.0
            },
            {
                "start_time": 126.41363636363636,
                "end_time": 126.61363636363636,
                "pitch": 93,
                "velocity": 51,
                "duration": 0.20000000000000284,
                "tempo": 120.0
            },
            {
                "start_time": 125.44545454545454,
                "end_time": 127.00454545454545,
                "pitch": 86,
                "velocity": 51,
                "duration": 1.5590909090909122,
                "tempo": 120.0
            },
            {
                "start_time": 126.61363636363636,
                "end_time": 127.00454545454545,
                "pitch": 86,
                "velocity": 51,
                "duration": 0.39090909090909065,
                "tempo": 120.0
            },
            {
                "start_time": 127.00454545454545,
                "end_time": 127.20681818181818,
                "pitch": 90,
                "velocity": 51,
                "duration": 0.20227272727272805,
                "tempo": 120.0
            },
            {
                "start_time": 125.64090909090909,
                "end_time": 127.20681818181818,
                "pitch": 102,
                "velocity": 51,
                "duration": 1.5659090909090878,
                "tempo": 120.0
            },
            {
                "start_time": 127.20681818181818,
                "end_time": 127.39090909090909,
                "pitch": 91,
                "velocity": 51,
                "duration": 0.1840909090909122,
                "tempo": 120.0
            },
            {
                "start_time": 127.39090909090909,
                "end_time": 127.77272727272727,
                "pitch": 91,
                "velocity": 51,
                "duration": 0.3818181818181756,
                "tempo": 120.0
            },
            {
                "start_time": 127.77272727272727,
                "end_time": 127.975,
                "pitch": 93,
                "velocity": 51,
                "duration": 0.20227272727272805,
                "tempo": 120.0
            },
            {
                "start_time": 121.74545454545454,
                "end_time": 127.975,
                "pitch": 95,
                "velocity": 51,
                "duration": 6.229545454545459,
                "tempo": 120.0
            },
            {
                "start_time": 127.975,
                "end_time": 128.1772727272727,
                "pitch": 97,
                "velocity": 51,
                "duration": 0.20227272727271384,
                "tempo": 120.0
            },
            {
                "start_time": 128.1772727272727,
                "end_time": 128.57045454545454,
                "pitch": 85,
                "velocity": 51,
                "duration": 0.39318181818183007,
                "tempo": 120.0
            },
            {
                "start_time": 127.00454545454545,
                "end_time": 128.57045454545454,
                "pitch": 86,
                "velocity": 51,
                "duration": 1.5659090909090878,
                "tempo": 120.0
            },
            {
                "start_time": 128.57045454545454,
                "end_time": 128.76136363636363,
                "pitch": 90,
                "velocity": 51,
                "duration": 0.1909090909090878,
                "tempo": 120.0
            },
            {
                "start_time": 127.20681818181818,
                "end_time": 128.76136363636363,
                "pitch": 102,
                "velocity": 51,
                "duration": 1.5545454545454476,
                "tempo": 120.0
            },
            {
                "start_time": 128.76136363636363,
                "end_time": 128.9522727272727,
                "pitch": 91,
                "velocity": 51,
                "duration": 0.1909090909090878,
                "tempo": 120.0
            },
            {
                "start_time": 128.9522727272727,
                "end_time": 129.14772727272728,
                "pitch": 91,
                "velocity": 51,
                "duration": 0.19545454545456664,
                "tempo": 120.0
            },
            {
                "start_time": 129.14772727272728,
                "end_time": 129.34545454545454,
                "pitch": 93,
                "velocity": 51,
                "duration": 0.19772727272726343,
                "tempo": 120.0
            },
            {
                "start_time": 127.975,
                "end_time": 129.34545454545454,
                "pitch": 95,
                "velocity": 51,
                "duration": 1.3704545454545496,
                "tempo": 120.0
            },
            {
                "start_time": 129.34545454545454,
                "end_time": 129.73863636363635,
                "pitch": 97,
                "velocity": 51,
                "duration": 0.39318181818180165,
                "tempo": 120.0
            },
            {
                "start_time": 129.73863636363635,
                "end_time": 130.13181818181818,
                "pitch": 85,
                "velocity": 51,
                "duration": 0.39318181818183007,
                "tempo": 120.0
            },
            {
                "start_time": 128.57045454545454,
                "end_time": 130.13181818181818,
                "pitch": 86,
                "velocity": 51,
                "duration": 1.5613636363636374,
                "tempo": 120.0
            },
            {
                "start_time": 130.13181818181818,
                "end_time": 130.3272727272727,
                "pitch": 90,
                "velocity": 51,
                "duration": 0.19545454545453822,
                "tempo": 120.0
            },
            {
                "start_time": 128.76136363636363,
                "end_time": 130.3272727272727,
                "pitch": 102,
                "velocity": 51,
                "duration": 1.5659090909090878,
                "tempo": 120.0
            },
            {
                "start_time": 130.3272727272727,
                "end_time": 130.50681818181818,
                "pitch": 91,
                "velocity": 51,
                "duration": 0.17954545454546178,
                "tempo": 120.0
            },
            {
                "start_time": 130.50681818181818,
                "end_time": 130.88863636363635,
                "pitch": 91,
                "velocity": 51,
                "duration": 0.3818181818181756,
                "tempo": 120.0
            },
            {
                "start_time": 130.88863636363635,
                "end_time": 131.08863636363637,
                "pitch": 93,
                "velocity": 51,
                "duration": 0.20000000000001705,
                "tempo": 120.0
            },
            {
                "start_time": 129.34545454545454,
                "end_time": 131.08863636363637,
                "pitch": 95,
                "velocity": 51,
                "duration": 1.7431818181818244,
                "tempo": 120.0
            },
            {
                "start_time": 131.08863636363637,
                "end_time": 131.28863636363636,
                "pitch": 97,
                "velocity": 51,
                "duration": 0.19999999999998863,
                "tempo": 120.0
            },
            {
                "start_time": 131.28863636363636,
                "end_time": 131.67499999999998,
                "pitch": 85,
                "velocity": 51,
                "duration": 0.38636363636362603,
                "tempo": 120.0
            },
            {
                "start_time": 130.13181818181818,
                "end_time": 131.67499999999998,
                "pitch": 86,
                "velocity": 51,
                "duration": 1.5431818181818073,
                "tempo": 120.0
            },
            {
                "start_time": 131.67499999999998,
                "end_time": 131.87045454545455,
                "pitch": 90,
                "velocity": 51,
                "duration": 0.19545454545456664,
                "tempo": 120.0
            },
            {
                "start_time": 130.3272727272727,
                "end_time": 131.87045454545455,
                "pitch": 102,
                "velocity": 51,
                "duration": 1.5431818181818358,
                "tempo": 120.0
            },
            {
                "start_time": 131.87045454545455,
                "end_time": 132.0681818181818,
                "pitch": 91,
                "velocity": 51,
                "duration": 0.19772727272726343,
                "tempo": 120.0
            },
            {
                "start_time": 132.0681818181818,
                "end_time": 132.26363636363635,
                "pitch": 91,
                "velocity": 51,
                "duration": 0.19545454545453822,
                "tempo": 120.0
            },
            {
                "start_time": 132.26363636363635,
                "end_time": 132.4590909090909,
                "pitch": 93,
                "velocity": 51,
                "duration": 0.19545454545453822,
                "tempo": 120.0
            },
            {
                "start_time": 131.08863636363637,
                "end_time": 132.4590909090909,
                "pitch": 95,
                "velocity": 51,
                "duration": 1.3704545454545212,
                "tempo": 120.0
            },
            {
                "start_time": 132.4590909090909,
                "end_time": 132.84318181818182,
                "pitch": 97,
                "velocity": 51,
                "duration": 0.38409090909092924,
                "tempo": 120.0
            },
            {
                "start_time": 132.84318181818182,
                "end_time": 133.2340909090909,
                "pitch": 97,
                "velocity": 51,
                "duration": 0.39090909090907644,
                "tempo": 120.0
            },
            {
                "start_time": 121.55,
                "end_time": 133.2340909090909,
                "pitch": 98,
                "velocity": 51,
                "duration": 11.684090909090898,
                "tempo": 120.0
            },
            {
                "start_time": 133.2340909090909,
                "end_time": 133.43636363636364,
                "pitch": 93,
                "velocity": 51,
                "duration": 0.20227272727274226,
                "tempo": 120.0
            },
            {
                "start_time": 133.43636363636364,
                "end_time": 133.62045454545455,
                "pitch": 93,
                "velocity": 51,
                "duration": 0.1840909090909122,
                "tempo": 120.0
            },
            {
                "start_time": 132.4590909090909,
                "end_time": 133.62045454545455,
                "pitch": 95,
                "velocity": 51,
                "duration": 1.1613636363636601,
                "tempo": 120.0
            },
            {
                "start_time": 133.62045454545455,
                "end_time": 134.00227272727273,
                "pitch": 91,
                "velocity": 51,
                "duration": 0.3818181818181756,
                "tempo": 120.0
            },
            {
                "start_time": 112.975,
                "end_time": 134.20454545454544,
                "pitch": 81,
                "velocity": 51,
                "duration": 21.229545454545445,
                "tempo": 120.0
            },
            {
                "start_time": 134.00227272727273,
                "end_time": 134.20454545454544,
                "pitch": 91,
                "velocity": 51,
                "duration": 0.20227272727271384,
                "tempo": 120.0
            },
            {
                "start_time": 134.20454545454544,
                "end_time": 134.40681818181818,
                "pitch": 90,
                "velocity": 51,
                "duration": 0.20227272727274226,
                "tempo": 120.0
            },
            {
                "start_time": 131.87045454545455,
                "end_time": 134.40681818181818,
                "pitch": 102,
                "velocity": 51,
                "duration": 2.5363636363636317,
                "tempo": 120.0
            },
            {
                "start_time": 134.40681818181818,
                "end_time": 134.78863636363636,
                "pitch": 91,
                "velocity": 51,
                "duration": 0.3818181818181756,
                "tempo": 120.0
            },
            {
                "start_time": 134.20454545454544,
                "end_time": 134.9840909090909,
                "pitch": 81,
                "velocity": 51,
                "duration": 0.7795454545454561,
                "tempo": 120.0
            },
            {
                "start_time": 134.78863636363636,
                "end_time": 134.9840909090909,
                "pitch": 91,
                "velocity": 51,
                "duration": 0.19545454545453822,
                "tempo": 120.0
            },
            {
                "start_time": 134.9840909090909,
                "end_time": 135.1818181818182,
                "pitch": 90,
                "velocity": 51,
                "duration": 0.19772727272729185,
                "tempo": 120.0
            },
            {
                "start_time": 131.67499999999998,
                "end_time": 135.9590909090909,
                "pitch": 86,
                "velocity": 51,
                "duration": 4.2840909090909065,
                "tempo": 120.0
            },
            {
                "start_time": 135.1818181818182,
                "end_time": 135.9590909090909,
                "pitch": 86,
                "velocity": 51,
                "duration": 0.7772727272727025,
                "tempo": 120.0
            },
            {
                "start_time": 133.2340909090909,
                "end_time": 135.9590909090909,
                "pitch": 98,
                "velocity": 51,
                "duration": 2.7249999999999943,
                "tempo": 120.0
            },
            {
                "start_time": 126.61363636363636,
                "end_time": 136.35227272727272,
                "pitch": 79,
                "velocity": 51,
                "duration": 9.73863636363636,
                "tempo": 120.0
            },
            {
                "start_time": 135.9590909090909,
                "end_time": 136.35227272727272,
                "pitch": 91,
                "velocity": 51,
                "duration": 0.39318181818183007,
                "tempo": 120.0
            },
            {
                "start_time": 136.35227272727272,
                "end_time": 136.5522727272727,
                "pitch": 88,
                "velocity": 51,
                "duration": 0.19999999999998863,
                "tempo": 120.0
            },
            {
                "start_time": 136.5522727272727,
                "end_time": 136.75454545454545,
                "pitch": 85,
                "velocity": 51,
                "duration": 0.20227272727274226,
                "tempo": 120.0
            },
            {
                "start_time": 136.75454545454545,
                "end_time": 137.13863636363635,
                "pitch": 85,
                "velocity": 51,
                "duration": 0.3840909090909008,
                "tempo": 120.0
            },
            {
                "start_time": 136.5522727272727,
                "end_time": 137.3340909090909,
                "pitch": 88,
                "velocity": 51,
                "duration": 0.7818181818181813,
                "tempo": 120.0
            },
            {
                "start_time": 137.13863636363635,
                "end_time": 137.3340909090909,
                "pitch": 88,
                "velocity": 51,
                "duration": 0.19545454545453822,
                "tempo": 120.0
            },
            {
                "start_time": 137.13863636363635,
                "end_time": 137.52954545454546,
                "pitch": 85,
                "velocity": 51,
                "duration": 0.39090909090910486,
                "tempo": 120.0
            },
            {
                "start_time": 137.3340909090909,
                "end_time": 137.52954545454546,
                "pitch": 85,
                "velocity": 51,
                "duration": 0.19545454545456664,
                "tempo": 120.0
            },
            {
                "start_time": 137.52954545454546,
                "end_time": 137.90681818181818,
                "pitch": 85,
                "velocity": 51,
                "duration": 0.3772727272727252,
                "tempo": 120.0
            },
            {
                "start_time": 135.1818181818182,
                "end_time": 138.10227272727272,
                "pitch": 90,
                "velocity": 51,
                "duration": 2.9204545454545325,
                "tempo": 120.0
            },
            {
                "start_time": 137.90681818181818,
                "end_time": 138.10227272727272,
                "pitch": 90,
                "velocity": 51,
                "duration": 0.19545454545453822,
                "tempo": 120.0
            },
            {
                "start_time": 137.90681818181818,
                "end_time": 138.29772727272726,
                "pitch": 86,
                "velocity": 51,
                "duration": 0.39090909090907644,
                "tempo": 120.0
            },
            {
                "start_time": 138.10227272727272,
                "end_time": 138.29772727272726,
                "pitch": 86,
                "velocity": 51,
                "duration": 0.19545454545453822,
                "tempo": 120.0
            },
            {
                "start_time": 115.31363636363636,
                "end_time": 138.49318181818182,
                "pitch": 83,
                "velocity": 51,
                "duration": 23.179545454545462,
                "tempo": 120.0
            },
            {
                "start_time": 138.29772727272726,
                "end_time": 138.49318181818182,
                "pitch": 83,
                "velocity": 51,
                "duration": 0.19545454545456664,
                "tempo": 120.0
            },
            {
                "start_time": 138.49318181818182,
                "end_time": 138.6909090909091,
                "pitch": 85,
                "velocity": 51,
                "duration": 0.19772727272726343,
                "tempo": 120.0
            },
            {
                "start_time": 138.6909090909091,
                "end_time": 138.87727272727273,
                "pitch": 85,
                "velocity": 51,
                "duration": 0.1863636363636374,
                "tempo": 120.0
            },
            {
                "start_time": 138.29772727272726,
                "end_time": 138.87727272727273,
                "pitch": 86,
                "velocity": 51,
                "duration": 0.5795454545454675,
                "tempo": 120.0
            },
            {
                "start_time": 137.3340909090909,
                "end_time": 139.0840909090909,
                "pitch": 88,
                "velocity": 51,
                "duration": 1.75,
                "tempo": 120.0
            },
            {
                "start_time": 138.87727272727273,
                "end_time": 139.0840909090909,
                "pitch": 88,
                "velocity": 51,
                "duration": 0.20681818181816425,
                "tempo": 120.0
            },
            {
                "start_time": 138.87727272727273,
                "end_time": 139.275,
                "pitch": 86,
                "velocity": 51,
                "duration": 0.3977272727272805,
                "tempo": 120.0
            },
            {
                "start_time": 139.0840909090909,
                "end_time": 139.275,
                "pitch": 86,
                "velocity": 51,
                "duration": 0.19090909090911623,
                "tempo": 120.0
            },
            {
                "start_time": 138.10227272727272,
                "end_time": 139.4659090909091,
                "pitch": 90,
                "velocity": 51,
                "duration": 1.363636363636374,
                "tempo": 120.0
            },
            {
                "start_time": 139.275,
                "end_time": 139.4659090909091,
                "pitch": 90,
                "velocity": 51,
                "duration": 0.1909090909090878,
                "tempo": 120.0
            },
            {
                "start_time": 134.40681818181818,
                "end_time": 139.4659090909091,
                "pitch": 102,
                "velocity": 51,
                "duration": 5.059090909090912,
                "tempo": 120.0
            },
            {
                "start_time": 133.62045454545455,
                "end_time": 139.66590909090908,
                "pitch": 95,
                "velocity": 51,
                "duration": 6.0454545454545325,
                "tempo": 120.0
            },
            {
                "start_time": 139.4659090909091,
                "end_time": 139.66590909090908,
                "pitch": 95,
                "velocity": 51,
                "duration": 0.19999999999998863,
                "tempo": 120.0
            },
            {
                "start_time": 136.35227272727272,
                "end_time": 139.86590909090907,
                "pitch": 79,
                "velocity": 51,
                "duration": 3.5136363636363512,
                "tempo": 120.0
            },
            {
                "start_time": 139.66590909090908,
                "end_time": 139.86590909090907,
                "pitch": 91,
                "velocity": 51,
                "duration": 0.19999999999998863,
                "tempo": 120.0
            },
            {
                "start_time": 139.0840909090909,
                "end_time": 140.04999999999998,
                "pitch": 88,
                "velocity": 51,
                "duration": 0.9659090909090935,
                "tempo": 120.0
            },
            {
                "start_time": 139.86590909090907,
                "end_time": 140.04999999999998,
                "pitch": 88,
                "velocity": 51,
                "duration": 0.1840909090909122,
                "tempo": 120.0
            },
            {
                "start_time": 126.21363636363635,
                "end_time": 140.04999999999998,
                "pitch": 100,
                "velocity": 51,
                "duration": 13.836363636363629,
                "tempo": 120.0
            },
            {
                "start_time": 140.04999999999998,
                "end_time": 140.25227272727273,
                "pitch": 93,
                "velocity": 51,
                "duration": 0.20227272727274226,
                "tempo": 120.0
            },
            {
                "start_time": 140.25227272727273,
                "end_time": 140.4431818181818,
                "pitch": 97,
                "velocity": 51,
                "duration": 0.1909090909090878,
                "tempo": 120.0
            },
            {
                "start_time": 140.25227272727273,
                "end_time": 140.6340909090909,
                "pitch": 93,
                "velocity": 51,
                "duration": 0.3818181818181756,
                "tempo": 120.0
            },
            {
                "start_time": 140.4431818181818,
                "end_time": 140.6340909090909,
                "pitch": 93,
                "velocity": 51,
                "duration": 0.1909090909090878,
                "tempo": 120.0
            },
            {
                "start_time": 140.6340909090909,
                "end_time": 140.8340909090909,
                "pitch": 93,
                "velocity": 51,
                "duration": 0.19999999999998863,
                "tempo": 120.0
            },
            {
                "start_time": 139.66590909090908,
                "end_time": 140.8340909090909,
                "pitch": 95,
                "velocity": 51,
                "duration": 1.1681818181818073,
                "tempo": 120.0
            },
            {
                "start_time": 140.8340909090909,
                "end_time": 141.02045454545453,
                "pitch": 91,
                "velocity": 51,
                "duration": 0.1863636363636374,
                "tempo": 120.0
            },
            {
                "start_time": 140.4431818181818,
                "end_time": 141.21136363636364,
                "pitch": 97,
                "velocity": 51,
                "duration": 0.7681818181818301,
                "tempo": 120.0
            },
            {
                "start_time": 141.02045454545453,
                "end_time": 141.21136363636364,
                "pitch": 97,
                "velocity": 51,
                "duration": 0.19090909090911623,
                "tempo": 120.0
            },
            {
                "start_time": 141.21136363636364,
                "end_time": 141.40227272727273,
                "pitch": 93,
                "velocity": 51,
                "duration": 0.1909090909090878,
                "tempo": 120.0
            },
            {
                "start_time": 141.21136363636364,
                "end_time": 141.60454545454544,
                "pitch": 97,
                "velocity": 51,
                "duration": 0.39318181818180165,
                "tempo": 120.0
            },
            {
                "start_time": 141.40227272727273,
                "end_time": 141.60454545454544,
                "pitch": 97,
                "velocity": 51,
                "duration": 0.20227272727271384,
                "tempo": 120.0
            },
            {
                "start_time": 140.04999999999998,
                "end_time": 141.80454545454546,
                "pitch": 100,
                "velocity": 51,
                "duration": 1.7545454545454788,
                "tempo": 120.0
            },
            {
                "start_time": 141.60454545454544,
                "end_time": 141.80454545454546,
                "pitch": 100,
                "velocity": 51,
                "duration": 0.20000000000001705,
                "tempo": 120.0
            },
            {
                "start_time": 139.4659090909091,
                "end_time": 142.0090909090909,
                "pitch": 102,
                "velocity": 51,
                "duration": 2.5431818181818073,
                "tempo": 120.0
            },
            {
                "start_time": 141.80454545454546,
                "end_time": 142.0090909090909,
                "pitch": 102,
                "velocity": 51,
                "duration": 0.20454545454543904,
                "tempo": 120.0
            },
            {
                "start_time": 135.9590909090909,
                "end_time": 142.19772727272726,
                "pitch": 98,
                "velocity": 51,
                "duration": 6.238636363636374,
                "tempo": 120.0
            },
            {
                "start_time": 142.0090909090909,
                "end_time": 142.19772727272726,
                "pitch": 98,
                "velocity": 51,
                "duration": 0.1886363636363626,
                "tempo": 120.0
            },
            {
                "start_time": 139.275,
                "end_time": 145.3068181818182,
                "pitch": 86,
                "velocity": 51,
                "duration": 6.031818181818181,
                "tempo": 120.0
            },
            {
                "start_time": 142.19772727272726,
                "end_time": 145.3068181818182,
                "pitch": 98,
                "velocity": 51,
                "duration": 3.1090909090909236,
                "tempo": 120.0
            },
            {
                "start_time": 134.9840909090909,
                "end_time": 145.8931818181818,
                "pitch": 81,
                "velocity": 51,
                "duration": 10.909090909090907,
                "tempo": 120.0
            },
            {
                "start_time": 145.3068181818182,
                "end_time": 145.8931818181818,
                "pitch": 81,
                "velocity": 51,
                "duration": 0.5863636363636147,
                "tempo": 120.0
            },
            {
                "start_time": 145.3068181818182,
                "end_time": 146.08863636363637,
                "pitch": 86,
                "velocity": 51,
                "duration": 0.7818181818181813,
                "tempo": 120.0
            },
            {
                "start_time": 145.8931818181818,
                "end_time": 146.08863636363637,
                "pitch": 86,
                "velocity": 51,
                "duration": 0.19545454545456664,
                "tempo": 120.0
            },
            {
                "start_time": 146.08863636363637,
                "end_time": 146.27727272727273,
                "pitch": 88,
                "velocity": 51,
                "duration": 0.1886363636363626,
                "tempo": 120.0
            },
            {
                "start_time": 141.80454545454546,
                "end_time": 146.27727272727273,
                "pitch": 100,
                "velocity": 51,
                "duration": 4.472727272727269,
                "tempo": 120.0
            },
            {
                "start_time": 141.02045454545453,
                "end_time": 146.4840909090909,
                "pitch": 91,
                "velocity": 51,
                "duration": 5.463636363636368,
                "tempo": 120.0
            },
            {
                "start_time": 146.27727272727273,
                "end_time": 146.4840909090909,
                "pitch": 91,
                "velocity": 51,
                "duration": 0.20681818181816425,
                "tempo": 120.0
            },
            {
                "start_time": 146.4840909090909,
                "end_time": 148.4090909090909,
                "pitch": 91,
                "velocity": 51,
                "duration": 1.9250000000000114,
                "tempo": 120.0
            },
            {
                "start_time": 145.8931818181818,
                "end_time": 148.42045454545453,
                "pitch": 81,
                "velocity": 51,
                "duration": 2.527272727272731,
                "tempo": 120.0
            },
            {
                "start_time": 148.4090909090909,
                "end_time": 148.42045454545453,
                "pitch": 81,
                "velocity": 51,
                "duration": 0.011363636363626028,
                "tempo": 120.0
            }
        ],
        "Acoustic Grand Piano": [
            {
                "start_time": 79.0840909090909,
                "end_time": 79.27954545454546,
                "pitch": 66,
                "velocity": 20,
                "duration": 0.19545454545455243,
                "tempo": 120.0
            },
            {
                "start_time": 79.27954545454546,
                "end_time": 79.475,
                "pitch": 67,
                "velocity": 20,
                "duration": 0.19545454545453822,
                "tempo": 120.0
            },
            {
                "start_time": 79.475,
                "end_time": 79.675,
                "pitch": 67,
                "velocity": 20,
                "duration": 0.20000000000000284,
                "tempo": 120.0
            },
            {
                "start_time": 79.675,
                "end_time": 79.85909090909091,
                "pitch": 69,
                "velocity": 20,
                "duration": 0.1840909090909122,
                "tempo": 120.0
            },
            {
                "start_time": 79.85909090909091,
                "end_time": 82.19545454545454,
                "pitch": 74,
                "velocity": 20,
                "duration": 2.336363636363629,
                "tempo": 120.0
            },
            {
                "start_time": 82.19545454545454,
                "end_time": 82.58863636363635,
                "pitch": 74,
                "velocity": 20,
                "duration": 0.39318181818181586,
                "tempo": 120.0
            },
            {
                "start_time": 79.85909090909091,
                "end_time": 82.7840909090909,
                "pitch": 70,
                "velocity": 20,
                "duration": 2.924999999999997,
                "tempo": 120.0
            },
            {
                "start_time": 82.58863636363635,
                "end_time": 82.7840909090909,
                "pitch": 70,
                "velocity": 20,
                "duration": 0.19545454545455243,
                "tempo": 120.0
            },
            {
                "start_time": 82.58863636363635,
                "end_time": 82.96363636363635,
                "pitch": 72,
                "velocity": 20,
                "duration": 0.375,
                "tempo": 120.0
            },
            {
                "start_time": 82.7840909090909,
                "end_time": 82.96363636363635,
                "pitch": 72,
                "velocity": 20,
                "duration": 0.17954545454544757,
                "tempo": 120.0
            },
            {
                "start_time": 82.96363636363635,
                "end_time": 85.31136363636364,
                "pitch": 69,
                "velocity": 20,
                "duration": 2.3477272727272833,
                "tempo": 120.0
            },
            {
                "start_time": 85.31136363636364,
                "end_time": 85.5090909090909,
                "pitch": 64,
                "velocity": 20,
                "duration": 0.19772727272726343,
                "tempo": 120.0
            },
            {
                "start_time": 85.5090909090909,
                "end_time": 85.70454545454545,
                "pitch": 66,
                "velocity": 20,
                "duration": 0.19545454545455243,
                "tempo": 120.0
            },
            {
                "start_time": 79.27954545454546,
                "end_time": 85.70454545454545,
                "pitch": 78,
                "velocity": 20,
                "duration": 6.424999999999997,
                "tempo": 120.0
            },
            {
                "start_time": 85.70454545454545,
                "end_time": 85.90681818181818,
                "pitch": 67,
                "velocity": 20,
                "duration": 0.20227272727272805,
                "tempo": 120.0
            },
            {
                "start_time": 85.90681818181818,
                "end_time": 86.10681818181818,
                "pitch": 67,
                "velocity": 20,
                "duration": 0.20000000000000284,
                "tempo": 120.0
            },
            {
                "start_time": 86.10681818181818,
                "end_time": 88.42727272727272,
                "pitch": 69,
                "velocity": 20,
                "duration": 2.320454545454538,
                "tempo": 120.0
            },
            {
                "start_time": 82.7840909090909,
                "end_time": 88.62272727272727,
                "pitch": 70,
                "velocity": 20,
                "duration": 5.838636363636368,
                "tempo": 120.0
            },
            {
                "start_time": 88.42727272727272,
                "end_time": 88.62272727272727,
                "pitch": 70,
                "velocity": 20,
                "duration": 0.19545454545455243,
                "tempo": 120.0
            },
            {
                "start_time": 82.96363636363635,
                "end_time": 88.81818181818181,
                "pitch": 72,
                "velocity": 20,
                "duration": 5.854545454545459,
                "tempo": 120.0
            },
            {
                "start_time": 88.62272727272727,
                "end_time": 88.81818181818181,
                "pitch": 72,
                "velocity": 20,
                "duration": 0.19545454545453822,
                "tempo": 120.0
            },
            {
                "start_time": 88.62272727272727,
                "end_time": 89.01818181818182,
                "pitch": 70,
                "velocity": 20,
                "duration": 0.39545454545454106,
                "tempo": 120.0
            },
            {
                "start_time": 88.81818181818181,
                "end_time": 89.01818181818182,
                "pitch": 70,
                "velocity": 20,
                "duration": 0.20000000000000284,
                "tempo": 120.0
            },
            {
                "start_time": 89.01818181818182,
                "end_time": 89.21818181818182,
                "pitch": 67,
                "velocity": 20,
                "duration": 0.20000000000000284,
                "tempo": 120.0
            },
            {
                "start_time": 85.31136363636364,
                "end_time": 91.54090909090908,
                "pitch": 57,
                "velocity": 20,
                "duration": 6.229545454545445,
                "tempo": 120.0
            },
            {
                "start_time": 89.21818181818182,
                "end_time": 91.54090909090908,
                "pitch": 67,
                "velocity": 20,
                "duration": 2.3227272727272634,
                "tempo": 120.0
            },
            {
                "start_time": 79.0840909090909,
                "end_time": 91.73636363636363,
                "pitch": 62,
                "velocity": 20,
                "duration": 12.652272727272731,
                "tempo": 120.0
            },
            {
                "start_time": 91.54090909090908,
                "end_time": 91.73636363636363,
                "pitch": 62,
                "velocity": 20,
                "duration": 0.19545454545455243,
                "tempo": 120.0
            },
            {
                "start_time": 85.5090909090909,
                "end_time": 91.9340909090909,
                "pitch": 64,
                "velocity": 20,
                "duration": 6.424999999999997,
                "tempo": 120.0
            },
            {
                "start_time": 91.73636363636363,
                "end_time": 91.9340909090909,
                "pitch": 64,
                "velocity": 20,
                "duration": 0.19772727272726343,
                "tempo": 120.0
            },
            {
                "start_time": 91.9340909090909,
                "end_time": 92.1340909090909,
                "pitch": 66,
                "velocity": 20,
                "duration": 0.20000000000000284,
                "tempo": 120.0
            },
            {
                "start_time": 91.73636363636363,
                "end_time": 92.33636363636363,
                "pitch": 62,
                "velocity": 20,
                "duration": 0.5999999999999943,
                "tempo": 120.0
            },
            {
                "start_time": 92.1340909090909,
                "end_time": 92.33636363636363,
                "pitch": 62,
                "velocity": 20,
                "duration": 0.20227272727272805,
                "tempo": 120.0
            },
            {
                "start_time": 91.9340909090909,
                "end_time": 93.48636363636363,
                "pitch": 64,
                "velocity": 20,
                "duration": 1.5522727272727366,
                "tempo": 120.0
            },
            {
                "start_time": 92.33636363636363,
                "end_time": 93.48636363636363,
                "pitch": 64,
                "velocity": 20,
                "duration": 1.1500000000000057,
                "tempo": 120.0
            },
            {
                "start_time": 92.1340909090909,
                "end_time": 93.87954545454545,
                "pitch": 66,
                "velocity": 20,
                "duration": 1.7454545454545496,
                "tempo": 120.0
            },
            {
                "start_time": 93.48636363636363,
                "end_time": 93.87954545454545,
                "pitch": 66,
                "velocity": 20,
                "duration": 0.39318181818181586,
                "tempo": 120.0
            },
            {
                "start_time": 85.70454545454545,
                "end_time": 93.87954545454545,
                "pitch": 78,
                "velocity": 20,
                "duration": 8.174999999999997,
                "tempo": 120.0
            },
            {
                "start_time": 93.87954545454545,
                "end_time": 94.28181818181818,
                "pitch": 67,
                "velocity": 20,
                "duration": 0.4022727272727309,
                "tempo": 120.0
            },
            {
                "start_time": 93.48636363636363,
                "end_time": 94.66818181818181,
                "pitch": 64,
                "velocity": 20,
                "duration": 1.1818181818181728,
                "tempo": 120.0
            },
            {
                "start_time": 94.28181818181818,
                "end_time": 94.66818181818181,
                "pitch": 64,
                "velocity": 20,
                "duration": 0.38636363636362603,
                "tempo": 120.0
            },
            {
                "start_time": 89.01818181818182,
                "end_time": 95.05,
                "pitch": 70,
                "velocity": 20,
                "duration": 6.031818181818181,
                "tempo": 120.0
            },
            {
                "start_time": 94.66818181818181,
                "end_time": 95.05,
                "pitch": 70,
                "velocity": 20,
                "duration": 0.38181818181818983,
                "tempo": 120.0
            },
            {
                "start_time": 95.05,
                "end_time": 95.45227272727273,
                "pitch": 70,
                "velocity": 20,
                "duration": 0.4022727272727309,
                "tempo": 120.0
            },
            {
                "start_time": 95.45227272727273,
                "end_time": 98.56590909090909,
                "pitch": 69,
                "velocity": 20,
                "duration": 3.1136363636363598,
                "tempo": 120.0
            },
            {
                "start_time": 98.56590909090909,
                "end_time": 99.73863636363636,
                "pitch": 69,
                "velocity": 20,
                "duration": 1.172727272727272,
                "tempo": 120.0
            },
            {
                "start_time": 88.81818181818181,
                "end_time": 100.12045454545454,
                "pitch": 72,
                "velocity": 20,
                "duration": 11.302272727272722,
                "tempo": 120.0
            },
            {
                "start_time": 99.73863636363636,
                "end_time": 100.12045454545454,
                "pitch": 72,
                "velocity": 20,
                "duration": 0.3818181818181756,
                "tempo": 120.0
            },
            {
                "start_time": 100.12045454545454,
                "end_time": 100.51363636363637,
                "pitch": 72,
                "velocity": 20,
                "duration": 0.39318181818183007,
                "tempo": 120.0
            },
            {
                "start_time": 99.73863636363636,
                "end_time": 100.88863636363637,
                "pitch": 70,
                "velocity": 20,
                "duration": 1.1500000000000057,
                "tempo": 120.0
            },
            {
                "start_time": 100.51363636363637,
                "end_time": 100.88863636363637,
                "pitch": 70,
                "velocity": 20,
                "duration": 0.375,
                "tempo": 120.0
            },
            {
                "start_time": 100.88863636363637,
                "end_time": 101.6840909090909,
                "pitch": 72,
                "velocity": 20,
                "duration": 0.7954545454545325,
                "tempo": 120.0
            },
            {
                "start_time": 94.66818181818181,
                "end_time": 104.40227272727272,
                "pitch": 76,
                "velocity": 20,
                "duration": 9.73409090909091,
                "tempo": 120.0
            },
            {
                "start_time": 101.6840909090909,
                "end_time": 104.40227272727272,
                "pitch": 76,
                "velocity": 20,
                "duration": 2.7181818181818187,
                "tempo": 120.0
            },
            {
                "start_time": 91.54090909090908,
                "end_time": 104.79545454545455,
                "pitch": 57,
                "velocity": 20,
                "duration": 13.254545454545465,
                "tempo": 120.0
            },
            {
                "start_time": 104.40227272727272,
                "end_time": 104.79545454545455,
                "pitch": 69,
                "velocity": 20,
                "duration": 0.39318181818183007,
                "tempo": 120.0
            },
            {
                "start_time": 92.33636363636363,
                "end_time": 105.76590909090909,
                "pitch": 62,
                "velocity": 20,
                "duration": 13.429545454545462,
                "tempo": 120.0
            },
            {
                "start_time": 104.79545454545455,
                "end_time": 105.76590909090909,
                "pitch": 62,
                "velocity": 20,
                "duration": 0.9704545454545439,
                "tempo": 120.0
            },
            {
                "start_time": 105.76590909090909,
                "end_time": 105.96590909090908,
                "pitch": 64,
                "velocity": 20,
                "duration": 0.19999999999998863,
                "tempo": 120.0
            },
            {
                "start_time": 105.96590909090908,
                "end_time": 106.14999999999999,
                "pitch": 66,
                "velocity": 20,
                "duration": 0.1840909090909122,
                "tempo": 120.0
            },
            {
                "start_time": 93.87954545454545,
                "end_time": 106.14999999999999,
                "pitch": 78,
                "velocity": 20,
                "duration": 12.270454545454541,
                "tempo": 120.0
            },
            {
                "start_time": 106.14999999999999,
                "end_time": 106.35,
                "pitch": 67,
                "velocity": 20,
                "duration": 0.20000000000000284,
                "tempo": 120.0
            },
            {
                "start_time": 104.79545454545455,
                "end_time": 106.74318181818181,
                "pitch": 57,
                "velocity": 20,
                "duration": 1.9477272727272634,
                "tempo": 120.0
            },
            {
                "start_time": 106.35,
                "end_time": 106.74318181818181,
                "pitch": 67,
                "velocity": 20,
                "duration": 0.39318181818181586,
                "tempo": 120.0
            },
            {
                "start_time": 106.74318181818181,
                "end_time": 107.1340909090909,
                "pitch": 66,
                "velocity": 20,
                "duration": 0.39090909090909065,
                "tempo": 120.0
            },
            {
                "start_time": 106.14999999999999,
                "end_time": 107.1340909090909,
                "pitch": 78,
                "velocity": 20,
                "duration": 0.9840909090909093,
                "tempo": 120.0
            },
            {
                "start_time": 107.1340909090909,
                "end_time": 107.52045454545454,
                "pitch": 71,
                "velocity": 20,
                "duration": 0.38636363636364024,
                "tempo": 120.0
            },
            {
                "start_time": 94.28181818181818,
                "end_time": 107.91363636363636,
                "pitch": 55,
                "velocity": 20,
                "duration": 13.631818181818176,
                "tempo": 120.0
            },
            {
                "start_time": 107.52045454545454,
                "end_time": 107.91363636363636,
                "pitch": 67,
                "velocity": 20,
                "duration": 0.39318181818181586,
                "tempo": 120.0
            },
            {
                "start_time": 107.91363636363636,
                "end_time": 109.07954545454545,
                "pitch": 66,
                "velocity": 20,
                "duration": 1.1659090909090963,
                "tempo": 120.0
            },
            {
                "start_time": 107.1340909090909,
                "end_time": 109.07954545454545,
                "pitch": 78,
                "velocity": 20,
                "duration": 1.9454545454545524,
                "tempo": 120.0
            },
            {
                "start_time": 107.91363636363636,
                "end_time": 109.28181818181818,
                "pitch": 55,
                "velocity": 20,
                "duration": 1.3681818181818244,
                "tempo": 120.0
            },
            {
                "start_time": 109.07954545454545,
                "end_time": 109.28181818181818,
                "pitch": 67,
                "velocity": 20,
                "duration": 0.20227272727272805,
                "tempo": 120.0
            },
            {
                "start_time": 109.28181818181818,
                "end_time": 109.46590909090908,
                "pitch": 66,
                "velocity": 20,
                "duration": 0.18409090909089798,
                "tempo": 120.0
            },
            {
                "start_time": 105.96590909090908,
                "end_time": 111.03636363636363,
                "pitch": 64,
                "velocity": 20,
                "duration": 5.070454545454552,
                "tempo": 120.0
            },
            {
                "start_time": 109.46590909090908,
                "end_time": 111.03636363636363,
                "pitch": 64,
                "velocity": 20,
                "duration": 1.5704545454545524,
                "tempo": 120.0
            },
            {
                "start_time": 105.76590909090909,
                "end_time": 112.0,
                "pitch": 62,
                "velocity": 20,
                "duration": 6.234090909090909,
                "tempo": 120.0
            },
            {
                "start_time": 111.03636363636363,
                "end_time": 112.0,
                "pitch": 62,
                "velocity": 20,
                "duration": 0.9636363636363683,
                "tempo": 120.0
            },
            {
                "start_time": 112.0,
                "end_time": 112.00227272727273,
                "pitch": 62,
                "velocity": 20,
                "duration": 0.0022727272727252057,
                "tempo": 120.0
            },
            {
                "start_time": 111.03636363636363,
                "end_time": 112.19772727272726,
                "pitch": 64,
                "velocity": 20,
                "duration": 1.1613636363636317,
                "tempo": 120.0
            },
            {
                "start_time": 112.00227272727273,
                "end_time": 112.19772727272726,
                "pitch": 64,
                "velocity": 20,
                "duration": 0.19545454545453822,
                "tempo": 120.0
            },
            {
                "start_time": 109.46590909090908,
                "end_time": 112.39999999999999,
                "pitch": 66,
                "velocity": 20,
                "duration": 2.934090909090912,
                "tempo": 120.0
            },
            {
                "start_time": 112.19772727272726,
                "end_time": 112.39999999999999,
                "pitch": 66,
                "velocity": 20,
                "duration": 0.20227272727272805,
                "tempo": 120.0
            },
            {
                "start_time": 109.07954545454545,
                "end_time": 112.39999999999999,
                "pitch": 78,
                "velocity": 20,
                "duration": 3.320454545454538,
                "tempo": 120.0
            },
            {
                "start_time": 112.39999999999999,
                "end_time": 112.5840909090909,
                "pitch": 67,
                "velocity": 20,
                "duration": 0.1840909090909122,
                "tempo": 120.0
            },
            {
                "start_time": 106.74318181818181,
                "end_time": 112.975,
                "pitch": 57,
                "velocity": 20,
                "duration": 6.231818181818184,
                "tempo": 120.0
            },
            {
                "start_time": 112.5840909090909,
                "end_time": 112.975,
                "pitch": 67,
                "velocity": 20,
                "duration": 0.39090909090909065,
                "tempo": 120.0
            },
            {
                "start_time": 112.975,
                "end_time": 113.375,
                "pitch": 66,
                "velocity": 20,
                "duration": 0.4000000000000057,
                "tempo": 120.0
            },
            {
                "start_time": 112.39999999999999,
                "end_time": 113.375,
                "pitch": 78,
                "velocity": 20,
                "duration": 0.9750000000000085,
                "tempo": 120.0
            },
            {
                "start_time": 107.52045454545454,
                "end_time": 113.76136363636363,
                "pitch": 71,
                "velocity": 20,
                "duration": 6.240909090909085,
                "tempo": 120.0
            },
            {
                "start_time": 113.375,
                "end_time": 113.76136363636363,
                "pitch": 71,
                "velocity": 20,
                "duration": 0.38636363636362603,
                "tempo": 120.0
            },
            {
                "start_time": 113.76136363636363,
                "end_time": 114.14318181818182,
                "pitch": 67,
                "velocity": 20,
                "duration": 0.38181818181818983,
                "tempo": 120.0
            },
            {
                "start_time": 114.14318181818182,
                "end_time": 114.92045454545455,
                "pitch": 67,
                "velocity": 20,
                "duration": 0.7772727272727309,
                "tempo": 120.0
            },
            {
                "start_time": 114.92045454545455,
                "end_time": 115.31363636363636,
                "pitch": 69,
                "velocity": 20,
                "duration": 0.39318181818181586,
                "tempo": 120.0
            },
            {
                "start_time": 115.31363636363636,
                "end_time": 115.69772727272726,
                "pitch": 66,
                "velocity": 20,
                "duration": 0.3840909090909008,
                "tempo": 120.0
            },
            {
                "start_time": 113.375,
                "end_time": 115.69772727272726,
                "pitch": 78,
                "velocity": 20,
                "duration": 2.3227272727272634,
                "tempo": 120.0
            },
            {
                "start_time": 109.28181818181818,
                "end_time": 116.47954545454544,
                "pitch": 55,
                "velocity": 20,
                "duration": 7.197727272727263,
                "tempo": 120.0
            },
            {
                "start_time": 115.69772727272726,
                "end_time": 116.47954545454544,
                "pitch": 67,
                "velocity": 20,
                "duration": 0.7818181818181813,
                "tempo": 120.0
            },
            {
                "start_time": 112.19772727272726,
                "end_time": 117.25681818181818,
                "pitch": 64,
                "velocity": 20,
                "duration": 5.059090909090912,
                "tempo": 120.0
            },
            {
                "start_time": 116.47954545454544,
                "end_time": 117.25681818181818,
                "pitch": 64,
                "velocity": 20,
                "duration": 0.7772727272727309,
                "tempo": 120.0
            },
            {
                "start_time": 117.25681818181818,
                "end_time": 118.425,
                "pitch": 62,
                "velocity": 20,
                "duration": 1.1681818181818215,
                "tempo": 120.0
            },
            {
                "start_time": 100.51363636363637,
                "end_time": 118.425,
                "pitch": 74,
                "velocity": 20,
                "duration": 17.91136363636363,
                "tempo": 120.0
            },
            {
                "start_time": 118.425,
                "end_time": 118.62727272727273,
                "pitch": 69,
                "velocity": 20,
                "duration": 0.20227272727272805,
                "tempo": 120.0
            },
            {
                "start_time": 116.47954545454544,
                "end_time": 118.81136363636364,
                "pitch": 55,
                "velocity": 20,
                "duration": 2.3318181818181927,
                "tempo": 120.0
            },
            {
                "start_time": 118.62727272727273,
                "end_time": 118.81136363636364,
                "pitch": 69,
                "velocity": 20,
                "duration": 0.1840909090909122,
                "tempo": 120.0
            },
            {
                "start_time": 117.25681818181818,
                "end_time": 119.97727272727272,
                "pitch": 64,
                "velocity": 20,
                "duration": 2.720454545454544,
                "tempo": 120.0
            },
            {
                "start_time": 118.81136363636364,
                "end_time": 119.97727272727272,
                "pitch": 64,
                "velocity": 20,
                "duration": 1.1659090909090821,
                "tempo": 120.0
            },
            {
                "start_time": 104.40227272727272,
                "end_time": 119.97727272727272,
                "pitch": 76,
                "velocity": 20,
                "duration": 15.575000000000003,
                "tempo": 120.0
            },
            {
                "start_time": 119.97727272727272,
                "end_time": 120.17272727272727,
                "pitch": 69,
                "velocity": 20,
                "duration": 0.19545454545455243,
                "tempo": 120.0
            },
            {
                "start_time": 118.81136363636364,
                "end_time": 120.37045454545454,
                "pitch": 55,
                "velocity": 20,
                "duration": 1.559090909090898,
                "tempo": 120.0
            },
            {
                "start_time": 120.17272727272727,
                "end_time": 120.37045454545454,
                "pitch": 69,
                "velocity": 20,
                "duration": 0.19772727272726343,
                "tempo": 120.0
            },
            {
                "start_time": 120.37045454545454,
                "end_time": 121.55,
                "pitch": 62,
                "velocity": 20,
                "duration": 1.1795454545454618,
                "tempo": 120.0
            },
            {
                "start_time": 118.425,
                "end_time": 121.55,
                "pitch": 74,
                "velocity": 20,
                "duration": 3.125,
                "tempo": 120.0
            },
            {
                "start_time": 113.76136363636363,
                "end_time": 121.74545454545454,
                "pitch": 71,
                "velocity": 20,
                "duration": 7.984090909090909,
                "tempo": 120.0
            },
            {
                "start_time": 121.55,
                "end_time": 121.74545454545454,
                "pitch": 71,
                "velocity": 20,
                "duration": 0.19545454545453822,
                "tempo": 120.0
            },
            {
                "start_time": 120.37045454545454,
                "end_time": 121.94318181818181,
                "pitch": 55,
                "velocity": 20,
                "duration": 1.5727272727272776,
                "tempo": 120.0
            },
            {
                "start_time": 121.74545454545454,
                "end_time": 121.94318181818181,
                "pitch": 67,
                "velocity": 20,
                "duration": 0.19772727272727764,
                "tempo": 120.0
            },
            {
                "start_time": 121.94318181818181,
                "end_time": 123.10681818181817,
                "pitch": 64,
                "velocity": 20,
                "duration": 1.163636363636357,
                "tempo": 120.0
            },
            {
                "start_time": 119.97727272727272,
                "end_time": 123.10681818181817,
                "pitch": 76,
                "velocity": 20,
                "duration": 3.1295454545454504,
                "tempo": 120.0
            },
            {
                "start_time": 123.10681818181817,
                "end_time": 123.29772727272727,
                "pitch": 69,
                "velocity": 20,
                "duration": 0.19090909090910202,
                "tempo": 120.0
            },
            {
                "start_time": 121.94318181818181,
                "end_time": 123.48863636363636,
                "pitch": 55,
                "velocity": 20,
                "duration": 1.5454545454545467,
                "tempo": 120.0
            },
            {
                "start_time": 123.29772727272727,
                "end_time": 123.48863636363636,
                "pitch": 69,
                "velocity": 20,
                "duration": 0.1909090909090878,
                "tempo": 120.0
            },
            {
                "start_time": 123.48863636363636,
                "end_time": 123.89090909090909,
                "pitch": 62,
                "velocity": 20,
                "duration": 0.4022727272727309,
                "tempo": 120.0
            },
            {
                "start_time": 123.89090909090909,
                "end_time": 124.09090909090908,
                "pitch": 66,
                "velocity": 20,
                "duration": 0.19999999999998863,
                "tempo": 120.0
            },
            {
                "start_time": 115.69772727272726,
                "end_time": 124.09090909090908,
                "pitch": 78,
                "velocity": 20,
                "duration": 8.393181818181816,
                "tempo": 120.0
            },
            {
                "start_time": 123.48863636363636,
                "end_time": 124.27499999999999,
                "pitch": 55,
                "velocity": 20,
                "duration": 0.7863636363636317,
                "tempo": 120.0
            },
            {
                "start_time": 124.09090909090908,
                "end_time": 124.27499999999999,
                "pitch": 67,
                "velocity": 20,
                "duration": 0.1840909090909122,
                "tempo": 120.0
            },
            {
                "start_time": 124.27499999999999,
                "end_time": 124.66818181818181,
                "pitch": 64,
                "velocity": 20,
                "duration": 0.39318181818181586,
                "tempo": 120.0
            },
            {
                "start_time": 123.10681818181817,
                "end_time": 124.66818181818181,
                "pitch": 76,
                "velocity": 20,
                "duration": 1.5613636363636374,
                "tempo": 120.0
            },
            {
                "start_time": 124.66818181818181,
                "end_time": 124.86818181818181,
                "pitch": 69,
                "velocity": 20,
                "duration": 0.20000000000000284,
                "tempo": 120.0
            },
            {
                "start_time": 124.27499999999999,
                "end_time": 125.07045454545454,
                "pitch": 55,
                "velocity": 20,
                "duration": 0.7954545454545467,
                "tempo": 120.0
            },
            {
                "start_time": 124.86818181818181,
                "end_time": 125.07045454545454,
                "pitch": 69,
                "velocity": 20,
                "duration": 0.20227272727272805,
                "tempo": 120.0
            },
            {
                "start_time": 123.89090909090909,
                "end_time": 125.44545454545454,
                "pitch": 62,
                "velocity": 20,
                "duration": 1.5545454545454476,
                "tempo": 120.0
            },
            {
                "start_time": 125.07045454545454,
                "end_time": 125.44545454545454,
                "pitch": 62,
                "velocity": 20,
                "duration": 0.375,
                "tempo": 120.0
            },
            {
                "start_time": 125.44545454545454,
                "end_time": 125.64090909090909,
                "pitch": 66,
                "velocity": 20,
                "duration": 0.19545454545455243,
                "tempo": 120.0
            },
            {
                "start_time": 124.09090909090908,
                "end_time": 125.64090909090909,
                "pitch": 78,
                "velocity": 20,
                "duration": 1.5500000000000114,
                "tempo": 120.0
            },
            {
                "start_time": 125.07045454545454,
                "end_time": 125.83863636363635,
                "pitch": 55,
                "velocity": 20,
                "duration": 0.7681818181818159,
                "tempo": 120.0
            },
            {
                "start_time": 125.64090909090909,
                "end_time": 125.83863636363635,
                "pitch": 67,
                "velocity": 20,
                "duration": 0.19772727272726343,
                "tempo": 120.0
            },
            {
                "start_time": 125.83863636363635,
                "end_time": 126.21363636363635,
                "pitch": 64,
                "velocity": 20,
                "duration": 0.375,
                "tempo": 120.0
            },
            {
                "start_time": 124.66818181818181,
                "end_time": 126.21363636363635,
                "pitch": 76,
                "velocity": 20,
                "duration": 1.5454545454545467,
                "tempo": 120.0
            },
            {
                "start_time": 126.21363636363635,
                "end_time": 126.41363636363636,
                "pitch": 69,
                "velocity": 20,
                "duration": 0.20000000000000284,
                "tempo": 120.0
            },
            {
                "start_time": 125.83863636363635,
                "end_time": 126.61363636363636,
                "pitch": 55,
                "velocity": 20,
                "duration": 0.7750000000000057,
                "tempo": 120.0
            },
            {
                "start_time": 126.41363636363636,
                "end_time": 126.61363636363636,
                "pitch": 69,
                "velocity": 20,
                "duration": 0.20000000000000284,
                "tempo": 120.0
            },
            {
                "start_time": 125.44545454545454,
                "end_time": 127.00454545454545,
                "pitch": 62,
                "velocity": 20,
                "duration": 1.5590909090909122,
                "tempo": 120.0
            },
            {
                "start_time": 126.61363636363636,
                "end_time": 127.00454545454545,
                "pitch": 62,
                "velocity": 20,
                "duration": 0.39090909090909065,
                "tempo": 120.0
            },
            {
                "start_time": 127.00454545454545,
                "end_time": 127.20681818181818,
                "pitch": 66,
                "velocity": 20,
                "duration": 0.20227272727272805,
                "tempo": 120.0
            },
            {
                "start_time": 125.64090909090909,
                "end_time": 127.20681818181818,
                "pitch": 78,
                "velocity": 20,
                "duration": 1.5659090909090878,
                "tempo": 120.0
            },
            {
                "start_time": 127.20681818181818,
                "end_time": 127.39090909090909,
                "pitch": 67,
                "velocity": 20,
                "duration": 0.1840909090909122,
                "tempo": 120.0
            },
            {
                "start_time": 127.39090909090909,
                "end_time": 127.77272727272727,
                "pitch": 67,
                "velocity": 20,
                "duration": 0.3818181818181756,
                "tempo": 120.0
            },
            {
                "start_time": 127.77272727272727,
                "end_time": 127.975,
                "pitch": 69,
                "velocity": 20,
                "duration": 0.20227272727272805,
                "tempo": 120.0
            },
            {
                "start_time": 121.74545454545454,
                "end_time": 127.975,
                "pitch": 71,
                "velocity": 20,
                "duration": 6.229545454545459,
                "tempo": 120.0
            },
            {
                "start_time": 127.975,
                "end_time": 128.1772727272727,
                "pitch": 73,
                "velocity": 20,
                "duration": 0.20227272727271384,
                "tempo": 120.0
            },
            {
                "start_time": 128.1772727272727,
                "end_time": 128.57045454545454,
                "pitch": 61,
                "velocity": 20,
                "duration": 0.39318181818183007,
                "tempo": 120.0
            },
            {
                "start_time": 127.00454545454545,
                "end_time": 128.57045454545454,
                "pitch": 62,
                "velocity": 20,
                "duration": 1.5659090909090878,
                "tempo": 120.0
            },
            {
                "start_time": 128.57045454545454,
                "end_time": 128.76136363636363,
                "pitch": 66,
                "velocity": 20,
                "duration": 0.1909090909090878,
                "tempo": 120.0
            },
            {
                "start_time": 127.20681818181818,
                "end_time": 128.76136363636363,
                "pitch": 78,
                "velocity": 20,
                "duration": 1.5545454545454476,
                "tempo": 120.0
            },
            {
                "start_time": 128.76136363636363,
                "end_time": 128.9522727272727,
                "pitch": 67,
                "velocity": 20,
                "duration": 0.1909090909090878,
                "tempo": 120.0
            },
            {
                "start_time": 128.9522727272727,
                "end_time": 129.14772727272728,
                "pitch": 67,
                "velocity": 20,
                "duration": 0.19545454545456664,
                "tempo": 120.0
            },
            {
                "start_time": 129.14772727272728,
                "end_time": 129.34545454545454,
                "pitch": 69,
                "velocity": 20,
                "duration": 0.19772727272726343,
                "tempo": 120.0
            },
            {
                "start_time": 127.975,
                "end_time": 129.34545454545454,
                "pitch": 71,
                "velocity": 20,
                "duration": 1.3704545454545496,
                "tempo": 120.0
            },
            {
                "start_time": 129.34545454545454,
                "end_time": 129.73863636363635,
                "pitch": 73,
                "velocity": 20,
                "duration": 0.39318181818180165,
                "tempo": 120.0
            },
            {
                "start_time": 129.73863636363635,
                "end_time": 130.13181818181818,
                "pitch": 61,
                "velocity": 20,
                "duration": 0.39318181818183007,
                "tempo": 120.0
            },
            {
                "start_time": 128.57045454545454,
                "end_time": 130.13181818181818,
                "pitch": 62,
                "velocity": 20,
                "duration": 1.5613636363636374,
                "tempo": 120.0
            },
            {
                "start_time": 130.13181818181818,
                "end_time": 130.3272727272727,
                "pitch": 66,
                "velocity": 20,
                "duration": 0.19545454545453822,
                "tempo": 120.0
            },
            {
                "start_time": 128.76136363636363,
                "end_time": 130.3272727272727,
                "pitch": 78,
                "velocity": 20,
                "duration": 1.5659090909090878,
                "tempo": 120.0
            },
            {
                "start_time": 130.3272727272727,
                "end_time": 130.50681818181818,
                "pitch": 67,
                "velocity": 20,
                "duration": 0.17954545454546178,
                "tempo": 120.0
            },
            {
                "start_time": 130.50681818181818,
                "end_time": 130.88863636363635,
                "pitch": 67,
                "velocity": 20,
                "duration": 0.3818181818181756,
                "tempo": 120.0
            },
            {
                "start_time": 130.88863636363635,
                "end_time": 131.08863636363637,
                "pitch": 69,
                "velocity": 20,
                "duration": 0.20000000000001705,
                "tempo": 120.0
            },
            {
                "start_time": 129.34545454545454,
                "end_time": 131.08863636363637,
                "pitch": 71,
                "velocity": 20,
                "duration": 1.7431818181818244,
                "tempo": 120.0
            },
            {
                "start_time": 131.08863636363637,
                "end_time": 131.28863636363636,
                "pitch": 73,
                "velocity": 20,
                "duration": 0.19999999999998863,
                "tempo": 120.0
            },
            {
                "start_time": 131.28863636363636,
                "end_time": 131.67499999999998,
                "pitch": 61,
                "velocity": 20,
                "duration": 0.38636363636362603,
                "tempo": 120.0
            },
            {
                "start_time": 130.13181818181818,
                "end_time": 131.67499999999998,
                "pitch": 62,
                "velocity": 20,
                "duration": 1.5431818181818073,
                "tempo": 120.0
            },
            {
                "start_time": 131.67499999999998,
                "end_time": 131.87045454545455,
                "pitch": 66,
                "velocity": 20,
                "duration": 0.19545454545456664,
                "tempo": 120.0
            },
            {
                "start_time": 130.3272727272727,
                "end_time": 131.87045454545455,
                "pitch": 78,
                "velocity": 20,
                "duration": 1.5431818181818358,
                "tempo": 120.0
            },
            {
                "start_time": 131.87045454545455,
                "end_time": 132.0681818181818,
                "pitch": 67,
                "velocity": 20,
                "duration": 0.19772727272726343,
                "tempo": 120.0
            },
            {
                "start_time": 132.0681818181818,
                "end_time": 132.26363636363635,
                "pitch": 67,
                "velocity": 20,
                "duration": 0.19545454545453822,
                "tempo": 120.0
            },
            {
                "start_time": 132.26363636363635,
                "end_time": 132.4590909090909,
                "pitch": 69,
                "velocity": 20,
                "duration": 0.19545454545453822,
                "tempo": 120.0
            },
            {
                "start_time": 131.08863636363637,
                "end_time": 132.4590909090909,
                "pitch": 71,
                "velocity": 20,
                "duration": 1.3704545454545212,
                "tempo": 120.0
            },
            {
                "start_time": 132.4590909090909,
                "end_time": 132.84318181818182,
                "pitch": 73,
                "velocity": 20,
                "duration": 0.38409090909092924,
                "tempo": 120.0
            },
            {
                "start_time": 132.84318181818182,
                "end_time": 133.2340909090909,
                "pitch": 73,
                "velocity": 20,
                "duration": 0.39090909090907644,
                "tempo": 120.0
            },
            {
                "start_time": 121.55,
                "end_time": 133.2340909090909,
                "pitch": 74,
                "velocity": 20,
                "duration": 11.684090909090898,
                "tempo": 120.0
            },
            {
                "start_time": 133.2340909090909,
                "end_time": 133.43636363636364,
                "pitch": 69,
                "velocity": 20,
                "duration": 0.20227272727274226,
                "tempo": 120.0
            },
            {
                "start_time": 133.43636363636364,
                "end_time": 133.62045454545455,
                "pitch": 69,
                "velocity": 20,
                "duration": 0.1840909090909122,
                "tempo": 120.0
            },
            {
                "start_time": 132.4590909090909,
                "end_time": 133.62045454545455,
                "pitch": 71,
                "velocity": 20,
                "duration": 1.1613636363636601,
                "tempo": 120.0
            },
            {
                "start_time": 133.62045454545455,
                "end_time": 134.00227272727273,
                "pitch": 67,
                "velocity": 20,
                "duration": 0.3818181818181756,
                "tempo": 120.0
            },
            {
                "start_time": 112.975,
                "end_time": 134.20454545454544,
                "pitch": 57,
                "velocity": 20,
                "duration": 21.229545454545445,
                "tempo": 120.0
            },
            {
                "start_time": 134.00227272727273,
                "end_time": 134.20454545454544,
                "pitch": 67,
                "velocity": 20,
                "duration": 0.20227272727271384,
                "tempo": 120.0
            },
            {
                "start_time": 134.20454545454544,
                "end_time": 134.40454545454546,
                "pitch": 66,
                "velocity": 20,
                "duration": 0.20000000000001705,
                "tempo": 120.0
            },
            {
                "start_time": 131.87045454545455,
                "end_time": 134.40681818181818,
                "pitch": 78,
                "velocity": 20,
                "duration": 2.5363636363636317,
                "tempo": 120.0
            },
            {
                "start_time": 134.40454545454546,
                "end_time": 134.40681818181818,
                "pitch": 78,
                "velocity": 20,
                "duration": 0.0022727272727252057,
                "tempo": 120.0
            },
            {
                "start_time": 134.40681818181818,
                "end_time": 134.78863636363636,
                "pitch": 67,
                "velocity": 20,
                "duration": 0.3818181818181756,
                "tempo": 120.0
            },
            {
                "start_time": 134.20454545454544,
                "end_time": 134.9840909090909,
                "pitch": 57,
                "velocity": 20,
                "duration": 0.7795454545454561,
                "tempo": 120.0
            },
            {
                "start_time": 134.78863636363636,
                "end_time": 134.9840909090909,
                "pitch": 67,
                "velocity": 20,
                "duration": 0.19545454545453822,
                "tempo": 120.0
            },
            {
                "start_time": 134.9840909090909,
                "end_time": 135.1818181818182,
                "pitch": 66,
                "velocity": 20,
                "duration": 0.19772727272729185,
                "tempo": 120.0
            },
            {
                "start_time": 131.67499999999998,
                "end_time": 135.9590909090909,
                "pitch": 62,
                "velocity": 20,
                "duration": 4.2840909090909065,
                "tempo": 120.0
            },
            {
                "start_time": 135.1818181818182,
                "end_time": 135.9590909090909,
                "pitch": 62,
                "velocity": 20,
                "duration": 0.7772727272727025,
                "tempo": 120.0
            },
            {
                "start_time": 133.2340909090909,
                "end_time": 135.9590909090909,
                "pitch": 74,
                "velocity": 20,
                "duration": 2.7249999999999943,
                "tempo": 120.0
            },
            {
                "start_time": 126.61363636363636,
                "end_time": 136.35227272727272,
                "pitch": 55,
                "velocity": 20,
                "duration": 9.73863636363636,
                "tempo": 120.0
            },
            {
                "start_time": 135.9590909090909,
                "end_time": 136.35227272727272,
                "pitch": 67,
                "velocity": 20,
                "duration": 0.39318181818183007,
                "tempo": 120.0
            },
            {
                "start_time": 136.35227272727272,
                "end_time": 136.5522727272727,
                "pitch": 64,
                "velocity": 20,
                "duration": 0.19999999999998863,
                "tempo": 120.0
            },
            {
                "start_time": 136.5522727272727,
                "end_time": 136.75454545454545,
                "pitch": 61,
                "velocity": 20,
                "duration": 0.20227272727274226,
                "tempo": 120.0
            },
            {
                "start_time": 136.75454545454545,
                "end_time": 137.13863636363635,
                "pitch": 61,
                "velocity": 20,
                "duration": 0.3840909090909008,
                "tempo": 120.0
            },
            {
                "start_time": 136.5522727272727,
                "end_time": 137.3340909090909,
                "pitch": 64,
                "velocity": 20,
                "duration": 0.7818181818181813,
                "tempo": 120.0
            },
            {
                "start_time": 137.13863636363635,
                "end_time": 137.3340909090909,
                "pitch": 64,
                "velocity": 20,
                "duration": 0.19545454545453822,
                "tempo": 120.0
            },
            {
                "start_time": 137.13863636363635,
                "end_time": 137.52954545454546,
                "pitch": 61,
                "velocity": 20,
                "duration": 0.39090909090910486,
                "tempo": 120.0
            },
            {
                "start_time": 137.3340909090909,
                "end_time": 137.52954545454546,
                "pitch": 61,
                "velocity": 20,
                "duration": 0.19545454545456664,
                "tempo": 120.0
            },
            {
                "start_time": 137.52954545454546,
                "end_time": 137.90681818181818,
                "pitch": 61,
                "velocity": 20,
                "duration": 0.3772727272727252,
                "tempo": 120.0
            },
            {
                "start_time": 135.1818181818182,
                "end_time": 138.10227272727272,
                "pitch": 66,
                "velocity": 20,
                "duration": 2.9204545454545325,
                "tempo": 120.0
            },
            {
                "start_time": 137.90681818181818,
                "end_time": 138.10227272727272,
                "pitch": 66,
                "velocity": 20,
                "duration": 0.19545454545453822,
                "tempo": 120.0
            },
            {
                "start_time": 137.90681818181818,
                "end_time": 138.29772727272726,
                "pitch": 62,
                "velocity": 20,
                "duration": 0.39090909090907644,
                "tempo": 120.0
            },
            {
                "start_time": 138.10227272727272,
                "end_time": 138.29772727272726,
                "pitch": 62,
                "velocity": 20,
                "duration": 0.19545454545453822,
                "tempo": 120.0
            },
            {
                "start_time": 115.31363636363636,
                "end_time": 138.49318181818182,
                "pitch": 59,
                "velocity": 20,
                "duration": 23.179545454545462,
                "tempo": 120.0
            },
            {
                "start_time": 138.29772727272726,
                "end_time": 138.49318181818182,
                "pitch": 59,
                "velocity": 20,
                "duration": 0.19545454545456664,
                "tempo": 120.0
            },
            {
                "start_time": 138.49318181818182,
                "end_time": 138.6909090909091,
                "pitch": 59,
                "velocity": 20,
                "duration": 0.19772727272726343,
                "tempo": 120.0
            },
            {
                "start_time": 138.6909090909091,
                "end_time": 138.87727272727273,
                "pitch": 61,
                "velocity": 20,
                "duration": 0.1863636363636374,
                "tempo": 120.0
            },
            {
                "start_time": 138.29772727272726,
                "end_time": 138.87727272727273,
                "pitch": 62,
                "velocity": 20,
                "duration": 0.5795454545454675,
                "tempo": 120.0
            },
            {
                "start_time": 137.3340909090909,
                "end_time": 139.0840909090909,
                "pitch": 64,
                "velocity": 20,
                "duration": 1.75,
                "tempo": 120.0
            },
            {
                "start_time": 138.87727272727273,
                "end_time": 139.0840909090909,
                "pitch": 64,
                "velocity": 20,
                "duration": 0.20681818181816425,
                "tempo": 120.0
            },
            {
                "start_time": 138.87727272727273,
                "end_time": 139.275,
                "pitch": 62,
                "velocity": 20,
                "duration": 0.3977272727272805,
                "tempo": 120.0
            },
            {
                "start_time": 139.0840909090909,
                "end_time": 139.275,
                "pitch": 62,
                "velocity": 20,
                "duration": 0.19090909090911623,
                "tempo": 120.0
            },
            {
                "start_time": 138.10227272727272,
                "end_time": 139.4659090909091,
                "pitch": 66,
                "velocity": 20,
                "duration": 1.363636363636374,
                "tempo": 120.0
            },
            {
                "start_time": 139.275,
                "end_time": 139.4659090909091,
                "pitch": 66,
                "velocity": 20,
                "duration": 0.1909090909090878,
                "tempo": 120.0
            },
            {
                "start_time": 133.62045454545455,
                "end_time": 139.66590909090908,
                "pitch": 71,
                "velocity": 20,
                "duration": 6.0454545454545325,
                "tempo": 120.0
            },
            {
                "start_time": 139.4659090909091,
                "end_time": 139.66590909090908,
                "pitch": 71,
                "velocity": 20,
                "duration": 0.19999999999998863,
                "tempo": 120.0
            },
            {
                "start_time": 136.35227272727272,
                "end_time": 139.86590909090907,
                "pitch": 55,
                "velocity": 20,
                "duration": 3.5136363636363512,
                "tempo": 120.0
            },
            {
                "start_time": 139.66590909090908,
                "end_time": 139.86590909090907,
                "pitch": 67,
                "velocity": 20,
                "duration": 0.19999999999998863,
                "tempo": 120.0
            },
            {
                "start_time": 139.0840909090909,
                "end_time": 140.04999999999998,
                "pitch": 64,
                "velocity": 20,
                "duration": 0.9659090909090935,
                "tempo": 120.0
            },
            {
                "start_time": 139.86590909090907,
                "end_time": 140.04999999999998,
                "pitch": 64,
                "velocity": 20,
                "duration": 0.1840909090909122,
                "tempo": 120.0
            },
            {
                "start_time": 126.21363636363635,
                "end_time": 140.04999999999998,
                "pitch": 76,
                "velocity": 20,
                "duration": 13.836363636363629,
                "tempo": 120.0
            },
            {
                "start_time": 140.04999999999998,
                "end_time": 140.25227272727273,
                "pitch": 69,
                "velocity": 20,
                "duration": 0.20227272727274226,
                "tempo": 120.0
            },
            {
                "start_time": 140.25227272727273,
                "end_time": 140.4431818181818,
                "pitch": 73,
                "velocity": 20,
                "duration": 0.1909090909090878,
                "tempo": 120.0
            },
            {
                "start_time": 140.25227272727273,
                "end_time": 140.6340909090909,
                "pitch": 69,
                "velocity": 20,
                "duration": 0.3818181818181756,
                "tempo": 120.0
            },
            {
                "start_time": 140.4431818181818,
                "end_time": 140.6340909090909,
                "pitch": 69,
                "velocity": 20,
                "duration": 0.1909090909090878,
                "tempo": 120.0
            },
            {
                "start_time": 140.6340909090909,
                "end_time": 140.8340909090909,
                "pitch": 69,
                "velocity": 20,
                "duration": 0.19999999999998863,
                "tempo": 120.0
            },
            {
                "start_time": 139.66590909090908,
                "end_time": 140.8340909090909,
                "pitch": 71,
                "velocity": 20,
                "duration": 1.1681818181818073,
                "tempo": 120.0
            },
            {
                "start_time": 140.8340909090909,
                "end_time": 141.0181818181818,
                "pitch": 67,
                "velocity": 20,
                "duration": 0.1840909090909122,
                "tempo": 120.0
            },
            {
                "start_time": 140.4431818181818,
                "end_time": 141.21136363636364,
                "pitch": 73,
                "velocity": 20,
                "duration": 0.7681818181818301,
                "tempo": 120.0
            },
            {
                "start_time": 141.02045454545453,
                "end_time": 141.21136363636364,
                "pitch": 73,
                "velocity": 20,
                "duration": 0.19090909090911623,
                "tempo": 120.0
            },
            {
                "start_time": 141.21136363636364,
                "end_time": 141.40227272727273,
                "pitch": 69,
                "velocity": 20,
                "duration": 0.1909090909090878,
                "tempo": 120.0
            },
            {
                "start_time": 141.21136363636364,
                "end_time": 141.60227272727272,
                "pitch": 73,
                "velocity": 20,
                "duration": 0.39090909090907644,
                "tempo": 120.0
            },
            {
                "start_time": 141.40227272727273,
                "end_time": 141.60227272727272,
                "pitch": 73,
                "velocity": 20,
                "duration": 0.19999999999998863,
                "tempo": 120.0
            },
            {
                "start_time": 140.04999999999998,
                "end_time": 141.80454545454546,
                "pitch": 76,
                "velocity": 20,
                "duration": 1.7545454545454788,
                "tempo": 120.0
            },
            {
                "start_time": 141.60227272727272,
                "end_time": 141.80454545454546,
                "pitch": 76,
                "velocity": 20,
                "duration": 0.20227272727274226,
                "tempo": 120.0
            },
            {
                "start_time": 139.4659090909091,
                "end_time": 142.0090909090909,
                "pitch": 78,
                "velocity": 20,
                "duration": 2.5431818181818073,
                "tempo": 120.0
            },
            {
                "start_time": 141.80454545454546,
                "end_time": 142.0090909090909,
                "pitch": 78,
                "velocity": 20,
                "duration": 0.20454545454543904,
                "tempo": 120.0
            },
            {
                "start_time": 135.9590909090909,
                "end_time": 142.19772727272726,
                "pitch": 74,
                "velocity": 20,
                "duration": 6.238636363636374,
                "tempo": 120.0
            },
            {
                "start_time": 142.0090909090909,
                "end_time": 142.19772727272726,
                "pitch": 74,
                "velocity": 20,
                "duration": 0.1886363636363626,
                "tempo": 120.0
            }
        ]
    }
}