{
    "track_id": "Double Dragon (FM) - 09 - Ending",
    "mood": "relaxed",
    "instruments": {
        "Vibraphone": [
            {
                "start_time": 25.020454545454545,
                "end_time": 25.331818181818182,
                "pitch": 64,
                "velocity": 32,
                "duration": 0.3113636363636374,
                "tempo": 120.0
            },
            {
                "start_time": 25.349999999999998,
                "end_time": 25.695454545454545,
                "pitch": 68,
                "velocity": 32,
                "duration": 0.34545454545454746,
                "tempo": 120.0
            },
            {
                "start_time": 25.711363636363636,
                "end_time": 26.029545454545453,
                "pitch": 61,
                "velocity": 32,
                "duration": 0.31818181818181657,
                "tempo": 120.0
            },
            {
                "start_time": 26.045454545454543,
                "end_time": 26.38181818181818,
                "pitch": 64,
                "velocity": 32,
                "duration": 0.336363636363636,
                "tempo": 120.0
            },
            {
                "start_time": 26.39772727272727,
                "end_time": 26.71590909090909,
                "pitch": 68,
                "velocity": 32,
                "duration": 0.3181818181818201,
                "tempo": 120.0
            },
            {
                "start_time": 26.73181818181818,
                "end_time": 27.06590909090909,
                "pitch": 64,
                "velocity": 32,
                "duration": 0.33409090909091077,
                "tempo": 120.0
            },
            {
                "start_time": 27.081818181818182,
                "end_time": 27.40681818181818,
                "pitch": 61,
                "velocity": 32,
                "duration": 0.3249999999999993,
                "tempo": 120.0
            },
            {
                "start_time": 27.440909090909088,
                "end_time": 27.76590909090909,
                "pitch": 64,
                "velocity": 32,
                "duration": 0.32500000000000284,
                "tempo": 120.0
            },
            {
                "start_time": 27.784090909090907,
                "end_time": 28.118181818181817,
                "pitch": 66,
                "velocity": 32,
                "duration": 0.33409090909091077,
                "tempo": 120.0
            },
            {
                "start_time": 28.134090909090908,
                "end_time": 28.452272727272724,
                "pitch": 71,
                "velocity": 32,
                "duration": 0.31818181818181657,
                "tempo": 120.0
            },
            {
                "start_time": 28.468181818181815,
                "end_time": 28.802272727272726,
                "pitch": 59,
                "velocity": 32,
                "duration": 0.33409090909091077,
                "tempo": 120.0
            },
            {
                "start_time": 28.820454545454545,
                "end_time": 29.136363636363637,
                "pitch": 75,
                "velocity": 32,
                "duration": 0.31590909090909136,
                "tempo": 120.0
            },
            {
                "start_time": 29.154545454545453,
                "end_time": 29.495454545454542,
                "pitch": 68,
                "velocity": 32,
                "duration": 0.34090909090908994,
                "tempo": 120.0
            },
            {
                "start_time": 29.513636363636362,
                "end_time": 29.83863636363636,
                "pitch": 75,
                "velocity": 32,
                "duration": 0.3249999999999993,
                "tempo": 120.0
            },
            {
                "start_time": 29.87272727272727,
                "end_time": 30.2,
                "pitch": 63,
                "velocity": 32,
                "duration": 0.32727272727272805,
                "tempo": 120.0
            },
            {
                "start_time": 30.218181818181815,
                "end_time": 30.563636363636363,
                "pitch": 75,
                "velocity": 32,
                "duration": 0.34545454545454746,
                "tempo": 120.0
            },
            {
                "start_time": 30.581818181818182,
                "end_time": 31.25,
                "pitch": 66,
                "velocity": 32,
                "duration": 0.668181818181818,
                "tempo": 120.0
            },
            {
                "start_time": 31.26590909090909,
                "end_time": 31.95,
                "pitch": 73,
                "velocity": 32,
                "duration": 0.6840909090909086,
                "tempo": 120.0
            },
            {
                "start_time": 31.96590909090909,
                "end_time": 32.28409090909091,
                "pitch": 69,
                "velocity": 32,
                "duration": 0.31818181818181657,
                "tempo": 120.0
            },
            {
                "start_time": 32.31818181818182,
                "end_time": 32.99318181818182,
                "pitch": 76,
                "velocity": 32,
                "duration": 0.6749999999999972,
                "tempo": 120.0
            },
            {
                "start_time": 33.01136363636363,
                "end_time": 33.336363636363636,
                "pitch": 73,
                "velocity": 32,
                "duration": 0.32500000000000284,
                "tempo": 120.0
            },
            {
                "start_time": 33.35227272727273,
                "end_time": 34.02272727272727,
                "pitch": 66,
                "velocity": 32,
                "duration": 0.6704545454545467,
                "tempo": 120.0
            },
            {
                "start_time": 34.038636363636364,
                "end_time": 34.70681818181818,
                "pitch": 73,
                "velocity": 32,
                "duration": 0.6681818181818144,
                "tempo": 120.0
            },
            {
                "start_time": 34.74090909090909,
                "end_time": 35.06818181818181,
                "pitch": 69,
                "velocity": 32,
                "duration": 0.32727272727272094,
                "tempo": 120.0
            },
            {
                "start_time": 35.086363636363636,
                "end_time": 35.43181818181818,
                "pitch": 71,
                "velocity": 32,
                "duration": 0.3454545454545439,
                "tempo": 120.0
            },
            {
                "start_time": 35.449999999999996,
                "end_time": 35.76590909090909,
                "pitch": 73,
                "velocity": 32,
                "duration": 0.3159090909090949,
                "tempo": 120.0
            },
            {
                "start_time": 35.78409090909091,
                "end_time": 36.11818181818182,
                "pitch": 75,
                "velocity": 32,
                "duration": 0.33409090909091077,
                "tempo": 120.0
            },
            {
                "start_time": 36.152272727272724,
                "end_time": 36.81818181818181,
                "pitch": 52,
                "velocity": 51,
                "duration": 0.6659090909090892,
                "tempo": 120.0
            },
            {
                "start_time": 36.836363636363636,
                "end_time": 37.50454545454545,
                "pitch": 59,
                "velocity": 51,
                "duration": 0.6681818181818144,
                "tempo": 120.0
            },
            {
                "start_time": 37.52045454545454,
                "end_time": 38.18863636363636,
                "pitch": 64,
                "velocity": 51,
                "duration": 0.6681818181818215,
                "tempo": 120.0
            },
            {
                "start_time": 38.20681818181818,
                "end_time": 38.54772727272727,
                "pitch": 59,
                "velocity": 51,
                "duration": 0.3409090909090935,
                "tempo": 120.0
            },
            {
                "start_time": 38.56363636363636,
                "end_time": 38.88863636363636,
                "pitch": 60,
                "velocity": 51,
                "duration": 0.32499999999999574,
                "tempo": 120.0
            },
            {
                "start_time": 38.90681818181818,
                "end_time": 39.574999999999996,
                "pitch": 61,
                "velocity": 51,
                "duration": 0.6681818181818144,
                "tempo": 120.0
            },
            {
                "start_time": 39.60909090909091,
                "end_time": 40.3,
                "pitch": 63,
                "velocity": 51,
                "duration": 0.6909090909090878,
                "tempo": 120.0
            },
            {
                "start_time": 40.31818181818181,
                "end_time": 40.986363636363635,
                "pitch": 64,
                "velocity": 51,
                "duration": 0.6681818181818215,
                "tempo": 120.0
            },
            {
                "start_time": 41.002272727272725,
                "end_time": 41.68636363636364,
                "pitch": 68,
                "velocity": 51,
                "duration": 0.6840909090909122,
                "tempo": 120.0
            },
            {
                "start_time": 41.70454545454545,
                "end_time": 42.02045454545454,
                "pitch": 69,
                "velocity": 51,
                "duration": 0.3159090909090878,
                "tempo": 120.0
            },
            {
                "start_time": 42.054545454545455,
                "end_time": 42.37272727272727,
                "pitch": 68,
                "velocity": 51,
                "duration": 0.318181818181813,
                "tempo": 120.0
            },
            {
                "start_time": 42.38863636363636,
                "end_time": 42.72272727272727,
                "pitch": 66,
                "velocity": 51,
                "duration": 0.33409090909091077,
                "tempo": 120.0
            },
            {
                "start_time": 42.74090909090909,
                "end_time": 43.05681818181818,
                "pitch": 64,
                "velocity": 51,
                "duration": 0.3159090909090878,
                "tempo": 120.0
            },
            {
                "start_time": 43.074999999999996,
                "end_time": 43.75681818181818,
                "pitch": 64,
                "velocity": 51,
                "duration": 0.681818181818187,
                "tempo": 120.0
            },
            {
                "start_time": 43.775,
                "end_time": 44.10909090909091,
                "pitch": 63,
                "velocity": 51,
                "duration": 0.33409090909091077,
                "tempo": 120.0
            },
            {
                "start_time": 44.125,
                "end_time": 44.44318181818181,
                "pitch": 64,
                "velocity": 51,
                "duration": 0.318181818181813,
                "tempo": 120.0
            },
            {
                "start_time": 44.47727272727273,
                "end_time": 44.804545454545455,
                "pitch": 61,
                "velocity": 51,
                "duration": 0.32727272727272805,
                "tempo": 120.0
            },
            {
                "start_time": 44.82272727272727,
                "end_time": 46.554545454545455,
                "pitch": 59,
                "velocity": 51,
                "duration": 1.7318181818181841,
                "tempo": 120.0
            },
            {
                "start_time": 58.40681818181818,
                "end_time": 58.724999999999994,
                "pitch": 64,
                "velocity": 40,
                "duration": 0.318181818181813,
                "tempo": 120.0
            },
            {
                "start_time": 58.740909090909085,
                "end_time": 59.059090909090905,
                "pitch": 68,
                "velocity": 40,
                "duration": 0.3181818181818201,
                "tempo": 120.0
            },
            {
                "start_time": 59.09318181818182,
                "end_time": 59.42045454545454,
                "pitch": 61,
                "velocity": 40,
                "duration": 0.32727272727272094,
                "tempo": 120.0
            },
            {
                "start_time": 59.43863636363636,
                "end_time": 59.78409090909091,
                "pitch": 64,
                "velocity": 40,
                "duration": 0.3454545454545439,
                "tempo": 120.0
            },
            {
                "start_time": 59.80227272727272,
                "end_time": 60.12045454545454,
                "pitch": 68,
                "velocity": 40,
                "duration": 0.3181818181818201,
                "tempo": 120.0
            },
            {
                "start_time": 60.13636363636363,
                "end_time": 60.470454545454544,
                "pitch": 64,
                "velocity": 40,
                "duration": 0.33409090909091077,
                "tempo": 120.0
            },
            {
                "start_time": 60.486363636363635,
                "end_time": 60.804545454545455,
                "pitch": 61,
                "velocity": 40,
                "duration": 0.3181818181818201,
                "tempo": 120.0
            },
            {
                "start_time": 60.820454545454545,
                "end_time": 61.15454545454545,
                "pitch": 64,
                "velocity": 40,
                "duration": 0.33409090909090366,
                "tempo": 120.0
            },
            {
                "start_time": 61.17272727272727,
                "end_time": 61.49772727272727,
                "pitch": 66,
                "velocity": 40,
                "duration": 0.32499999999999574,
                "tempo": 120.0
            },
            {
                "start_time": 61.53181818181818,
                "end_time": 61.85681818181818,
                "pitch": 71,
                "velocity": 40,
                "duration": 0.32499999999999574,
                "tempo": 120.0
            },
            {
                "start_time": 61.87272727272727,
                "end_time": 62.20681818181818,
                "pitch": 59,
                "velocity": 40,
                "duration": 0.33409090909091077,
                "tempo": 120.0
            },
            {
                "start_time": 62.224999999999994,
                "end_time": 62.54090909090909,
                "pitch": 75,
                "velocity": 40,
                "duration": 0.3159090909090949,
                "tempo": 120.0
            },
            {
                "start_time": 62.559090909090905,
                "end_time": 62.893181818181816,
                "pitch": 68,
                "velocity": 40,
                "duration": 0.33409090909091077,
                "tempo": 120.0
            },
            {
                "start_time": 62.90909090909091,
                "end_time": 63.22727272727273,
                "pitch": 75,
                "velocity": 40,
                "duration": 0.3181818181818201,
                "tempo": 120.0
            },
            {
                "start_time": 63.24318181818182,
                "end_time": 63.57727272727272,
                "pitch": 63,
                "velocity": 40,
                "duration": 0.33409090909090366,
                "tempo": 120.0
            },
            {
                "start_time": 63.595454545454544,
                "end_time": 63.91136363636363,
                "pitch": 75,
                "velocity": 40,
                "duration": 0.3159090909090878,
                "tempo": 120.0
            },
            {
                "start_time": 63.945454545454545,
                "end_time": 64.64545454545454,
                "pitch": 66,
                "velocity": 40,
                "duration": 0.6999999999999957,
                "tempo": 120.0
            },
            {
                "start_time": 64.66363636363636,
                "end_time": 65.33181818181818,
                "pitch": 73,
                "velocity": 40,
                "duration": 0.6681818181818215,
                "tempo": 120.0
            },
            {
                "start_time": 65.34772727272727,
                "end_time": 65.67272727272727,
                "pitch": 69,
                "velocity": 40,
                "duration": 0.32500000000000284,
                "tempo": 120.0
            },
            {
                "start_time": 65.69090909090909,
                "end_time": 66.36590909090908,
                "pitch": 76,
                "velocity": 40,
                "duration": 0.6749999999999972,
                "tempo": 120.0
            },
            {
                "start_time": 66.39999999999999,
                "end_time": 66.71818181818182,
                "pitch": 73,
                "velocity": 40,
                "duration": 0.3181818181818272,
                "tempo": 120.0
            },
            {
                "start_time": 66.73409090909091,
                "end_time": 67.41818181818182,
                "pitch": 66,
                "velocity": 40,
                "duration": 0.6840909090909122,
                "tempo": 120.0
            },
            {
                "start_time": 67.43409090909091,
                "end_time": 68.10454545454544,
                "pitch": 73,
                "velocity": 40,
                "duration": 0.6704545454545325,
                "tempo": 120.0
            },
            {
                "start_time": 68.12045454545454,
                "end_time": 68.45454545454545,
                "pitch": 69,
                "velocity": 40,
                "duration": 0.3340909090909179,
                "tempo": 120.0
            },
            {
                "start_time": 68.47045454545454,
                "end_time": 68.78863636363636,
                "pitch": 71,
                "velocity": 40,
                "duration": 0.318181818181813,
                "tempo": 120.0
            },
            {
                "start_time": 68.82272727272726,
                "end_time": 69.14999999999999,
                "pitch": 73,
                "velocity": 40,
                "duration": 0.32727272727272805,
                "tempo": 120.0
            },
            {
                "start_time": 69.16818181818182,
                "end_time": 69.51363636363637,
                "pitch": 75,
                "velocity": 40,
                "duration": 0.3454545454545439,
                "tempo": 120.0
            },
            {
                "start_time": 69.54772727272727,
                "end_time": 70.52954545454546,
                "pitch": 73,
                "velocity": 40,
                "duration": 0.9818181818181841,
                "tempo": 120.0
            },
            {
                "start_time": 70.54772727272727,
                "end_time": 72.26363636363637,
                "pitch": 71,
                "velocity": 40,
                "duration": 1.7159090909090935,
                "tempo": 120.0
            }
        ],
        "Acoustic Guitar (nylon)": [
            {
                "start_time": 0.00909090909090909,
                "end_time": 2.0227272727272725,
                "pitch": 45,
                "velocity": 80,
                "duration": 2.0136363636363632,
                "tempo": 120.0
            },
            {
                "start_time": 2.0386363636363636,
                "end_time": 2.7068181818181816,
                "pitch": 47,
                "velocity": 80,
                "duration": 0.668181818181818,
                "tempo": 120.0
            },
            {
                "start_time": 2.725,
                "end_time": 4.793181818181818,
                "pitch": 40,
                "velocity": 80,
                "duration": 2.068181818181818,
                "tempo": 120.0
            },
            {
                "start_time": 4.8113636363636365,
                "end_time": 5.1454545454545455,
                "pitch": 40,
                "velocity": 80,
                "duration": 0.334090909090909,
                "tempo": 120.0
            },
            {
                "start_time": 5.161363636363636,
                "end_time": 5.4795454545454545,
                "pitch": 39,
                "velocity": 80,
                "duration": 0.31818181818181834,
                "tempo": 120.0
            },
            {
                "start_time": 5.513636363636364,
                "end_time": 7.590909090909091,
                "pitch": 37,
                "velocity": 80,
                "duration": 2.077272727272727,
                "tempo": 120.0
            },
            {
                "start_time": 7.6090909090909085,
                "end_time": 7.927272727272727,
                "pitch": 37,
                "velocity": 80,
                "duration": 0.31818181818181834,
                "tempo": 120.0
            },
            {
                "start_time": 7.959090909090909,
                "end_time": 8.277272727272727,
                "pitch": 35,
                "velocity": 80,
                "duration": 0.31818181818181834,
                "tempo": 120.0
            },
            {
                "start_time": 8.293181818181818,
                "end_time": 10.347727272727273,
                "pitch": 33,
                "velocity": 80,
                "duration": 2.0545454545454547,
                "tempo": 120.0
            },
            {
                "start_time": 10.381818181818181,
                "end_time": 10.709090909090909,
                "pitch": 33,
                "velocity": 80,
                "duration": 0.32727272727272805,
                "tempo": 120.0
            },
            {
                "start_time": 10.727272727272727,
                "end_time": 11.072727272727272,
                "pitch": 37,
                "velocity": 80,
                "duration": 0.3454545454545457,
                "tempo": 120.0
            },
            {
                "start_time": 11.09090909090909,
                "end_time": 11.759090909090908,
                "pitch": 35,
                "velocity": 80,
                "duration": 0.668181818181818,
                "tempo": 120.0
            },
            {
                "start_time": 11.774999999999999,
                "end_time": 12.459090909090909,
                "pitch": 37,
                "velocity": 80,
                "duration": 0.6840909090909104,
                "tempo": 120.0
            },
            {
                "start_time": 12.477272727272727,
                "end_time": 13.145454545454545,
                "pitch": 39,
                "velocity": 80,
                "duration": 0.668181818181818,
                "tempo": 120.0
            },
            {
                "start_time": 13.161363636363635,
                "end_time": 13.845454545454544,
                "pitch": 35,
                "velocity": 80,
                "duration": 0.6840909090909086,
                "tempo": 120.0
            },
            {
                "start_time": 13.863636363636363,
                "end_time": 15.94090909090909,
                "pitch": 40,
                "velocity": 80,
                "duration": 2.0772727272727263,
                "tempo": 120.0
            },
            {
                "start_time": 15.959090909090909,
                "end_time": 16.277272727272727,
                "pitch": 40,
                "velocity": 80,
                "duration": 0.31818181818181834,
                "tempo": 120.0
            },
            {
                "start_time": 16.293181818181818,
                "end_time": 16.627272727272725,
                "pitch": 39,
                "velocity": 80,
                "duration": 0.3340909090909072,
                "tempo": 120.0
            },
            {
                "start_time": 16.645454545454545,
                "end_time": 18.706818181818182,
                "pitch": 37,
                "velocity": 80,
                "duration": 2.0613636363636374,
                "tempo": 120.0
            },
            {
                "start_time": 18.722727272727273,
                "end_time": 19.06590909090909,
                "pitch": 37,
                "velocity": 80,
                "duration": 0.3431818181818187,
                "tempo": 120.0
            },
            {
                "start_time": 19.081818181818182,
                "end_time": 19.40681818181818,
                "pitch": 35,
                "velocity": 80,
                "duration": 0.3249999999999993,
                "tempo": 120.0
            },
            {
                "start_time": 19.425,
                "end_time": 21.495454545454546,
                "pitch": 33,
                "velocity": 80,
                "duration": 2.0704545454545453,
                "tempo": 120.0
            },
            {
                "start_time": 21.513636363636362,
                "end_time": 21.84090909090909,
                "pitch": 33,
                "velocity": 80,
                "duration": 0.32727272727272805,
                "tempo": 120.0
            },
            {
                "start_time": 21.85909090909091,
                "end_time": 22.204545454545453,
                "pitch": 37,
                "velocity": 80,
                "duration": 0.3454545454545439,
                "tempo": 120.0
            },
            {
                "start_time": 22.222727272727273,
                "end_time": 22.90681818181818,
                "pitch": 35,
                "velocity": 80,
                "duration": 0.6840909090909086,
                "tempo": 120.0
            },
            {
                "start_time": 22.922727272727272,
                "end_time": 23.584090909090907,
                "pitch": 37,
                "velocity": 80,
                "duration": 0.6613636363636353,
                "tempo": 120.0
            },
            {
                "start_time": 23.599999999999998,
                "end_time": 24.284090909090907,
                "pitch": 39,
                "velocity": 80,
                "duration": 0.6840909090909086,
                "tempo": 120.0
            },
            {
                "start_time": 24.302272727272726,
                "end_time": 24.970454545454544,
                "pitch": 40,
                "velocity": 80,
                "duration": 0.668181818181818,
                "tempo": 120.0
            },
            {
                "start_time": 25.002272727272725,
                "end_time": 27.76590909090909,
                "pitch": 45,
                "velocity": 80,
                "duration": 2.7636363636363654,
                "tempo": 120.0
            },
            {
                "start_time": 27.784090909090907,
                "end_time": 30.563636363636363,
                "pitch": 44,
                "velocity": 80,
                "duration": 2.779545454545456,
                "tempo": 120.0
            },
            {
                "start_time": 30.581818181818182,
                "end_time": 30.89772727272727,
                "pitch": 42,
                "velocity": 80,
                "duration": 0.3159090909090878,
                "tempo": 120.0
            },
            {
                "start_time": 30.91590909090909,
                "end_time": 31.25,
                "pitch": 42,
                "velocity": 80,
                "duration": 0.33409090909091077,
                "tempo": 120.0
            },
            {
                "start_time": 31.26590909090909,
                "end_time": 31.59090909090909,
                "pitch": 40,
                "velocity": 80,
                "duration": 0.3249999999999993,
                "tempo": 120.0
            },
            {
                "start_time": 31.609090909090906,
                "end_time": 31.95,
                "pitch": 40,
                "velocity": 80,
                "duration": 0.3409090909090935,
                "tempo": 120.0
            },
            {
                "start_time": 31.96590909090909,
                "end_time": 32.28409090909091,
                "pitch": 37,
                "velocity": 80,
                "duration": 0.31818181818181657,
                "tempo": 120.0
            },
            {
                "start_time": 32.31818181818182,
                "end_time": 32.99318181818182,
                "pitch": 35,
                "velocity": 80,
                "duration": 0.6749999999999972,
                "tempo": 120.0
            },
            {
                "start_time": 33.01136363636363,
                "end_time": 33.336363636363636,
                "pitch": 37,
                "velocity": 80,
                "duration": 0.32500000000000284,
                "tempo": 120.0
            },
            {
                "start_time": 33.35227272727273,
                "end_time": 33.68636363636364,
                "pitch": 35,
                "velocity": 80,
                "duration": 0.33409090909091077,
                "tempo": 120.0
            },
            {
                "start_time": 33.70454545454545,
                "end_time": 34.02272727272727,
                "pitch": 35,
                "velocity": 80,
                "duration": 0.3181818181818201,
                "tempo": 120.0
            },
            {
                "start_time": 34.038636363636364,
                "end_time": 34.37272727272727,
                "pitch": 33,
                "velocity": 80,
                "duration": 0.33409090909090366,
                "tempo": 120.0
            },
            {
                "start_time": 34.388636363636365,
                "end_time": 34.70681818181818,
                "pitch": 33,
                "velocity": 80,
                "duration": 0.318181818181813,
                "tempo": 120.0
            },
            {
                "start_time": 34.74090909090909,
                "end_time": 35.06818181818181,
                "pitch": 35,
                "velocity": 80,
                "duration": 0.32727272727272094,
                "tempo": 120.0
            },
            {
                "start_time": 35.086363636363636,
                "end_time": 35.43181818181818,
                "pitch": 37,
                "velocity": 80,
                "duration": 0.3454545454545439,
                "tempo": 120.0
            },
            {
                "start_time": 35.449999999999996,
                "end_time": 35.76590909090909,
                "pitch": 39,
                "velocity": 80,
                "duration": 0.3159090909090949,
                "tempo": 120.0
            },
            {
                "start_time": 35.78409090909091,
                "end_time": 36.11818181818182,
                "pitch": 35,
                "velocity": 80,
                "duration": 0.33409090909091077,
                "tempo": 120.0
            },
            {
                "start_time": 36.13409090909091,
                "end_time": 38.18863636363636,
                "pitch": 40,
                "velocity": 80,
                "duration": 2.0545454545454547,
                "tempo": 120.0
            },
            {
                "start_time": 38.20681818181818,
                "end_time": 38.54772727272727,
                "pitch": 40,
                "velocity": 80,
                "duration": 0.3409090909090935,
                "tempo": 120.0
            },
            {
                "start_time": 38.56363636363636,
                "end_time": 38.88863636363636,
                "pitch": 39,
                "velocity": 80,
                "duration": 0.32499999999999574,
                "tempo": 120.0
            },
            {
                "start_time": 38.90681818181818,
                "end_time": 40.986363636363635,
                "pitch": 37,
                "velocity": 80,
                "duration": 2.0795454545454533,
                "tempo": 120.0
            },
            {
                "start_time": 41.002272727272725,
                "end_time": 41.32727272727273,
                "pitch": 37,
                "velocity": 80,
                "duration": 0.32500000000000284,
                "tempo": 120.0
            },
            {
                "start_time": 41.345454545454544,
                "end_time": 41.68636363636364,
                "pitch": 35,
                "velocity": 80,
                "duration": 0.3409090909090935,
                "tempo": 120.0
            },
            {
                "start_time": 41.70454545454545,
                "end_time": 43.75681818181818,
                "pitch": 33,
                "velocity": 80,
                "duration": 2.0522727272727295,
                "tempo": 120.0
            },
            {
                "start_time": 43.775,
                "end_time": 44.10909090909091,
                "pitch": 33,
                "velocity": 80,
                "duration": 0.33409090909091077,
                "tempo": 120.0
            },
            {
                "start_time": 44.125,
                "end_time": 44.44318181818181,
                "pitch": 37,
                "velocity": 80,
                "duration": 0.318181818181813,
                "tempo": 120.0
            },
            {
                "start_time": 44.47727272727273,
                "end_time": 45.168181818181814,
                "pitch": 35,
                "velocity": 80,
                "duration": 0.6909090909090878,
                "tempo": 120.0
            },
            {
                "start_time": 45.18636363636364,
                "end_time": 45.85454545454545,
                "pitch": 37,
                "velocity": 80,
                "duration": 0.6681818181818144,
                "tempo": 120.0
            },
            {
                "start_time": 45.87045454545454,
                "end_time": 46.554545454545455,
                "pitch": 39,
                "velocity": 80,
                "duration": 0.6840909090909122,
                "tempo": 120.0
            },
            {
                "start_time": 46.57272727272727,
                "end_time": 47.25681818181818,
                "pitch": 35,
                "velocity": 80,
                "duration": 0.6840909090909122,
                "tempo": 120.0
            },
            {
                "start_time": 47.27272727272727,
                "end_time": 49.29772727272727,
                "pitch": 40,
                "velocity": 80,
                "duration": 2.0249999999999986,
                "tempo": 120.0
            },
            {
                "start_time": 49.32954545454545,
                "end_time": 49.66590909090909,
                "pitch": 40,
                "velocity": 80,
                "duration": 0.336363636363636,
                "tempo": 120.0
            },
            {
                "start_time": 49.684090909090905,
                "end_time": 50.038636363636364,
                "pitch": 39,
                "velocity": 80,
                "duration": 0.35454545454545894,
                "tempo": 120.0
            },
            {
                "start_time": 50.054545454545455,
                "end_time": 52.111363636363635,
                "pitch": 37,
                "velocity": 80,
                "duration": 2.05681818181818,
                "tempo": 120.0
            },
            {
                "start_time": 52.127272727272725,
                "end_time": 52.47272727272727,
                "pitch": 37,
                "velocity": 80,
                "duration": 0.3454545454545439,
                "tempo": 120.0
            },
            {
                "start_time": 52.490909090909085,
                "end_time": 52.820454545454545,
                "pitch": 35,
                "velocity": 80,
                "duration": 0.32954545454546036,
                "tempo": 120.0
            },
            {
                "start_time": 52.836363636363636,
                "end_time": 54.91590909090909,
                "pitch": 33,
                "velocity": 80,
                "duration": 2.0795454545454533,
                "tempo": 120.0
            },
            {
                "start_time": 54.934090909090905,
                "end_time": 55.252272727272725,
                "pitch": 33,
                "velocity": 80,
                "duration": 0.3181818181818201,
                "tempo": 120.0
            },
            {
                "start_time": 55.268181818181816,
                "end_time": 55.60227272727273,
                "pitch": 37,
                "velocity": 80,
                "duration": 0.33409090909091077,
                "tempo": 120.0
            },
            {
                "start_time": 55.61818181818182,
                "end_time": 56.30227272727272,
                "pitch": 35,
                "velocity": 80,
                "duration": 0.6840909090909051,
                "tempo": 120.0
            },
            {
                "start_time": 56.320454545454545,
                "end_time": 56.98863636363636,
                "pitch": 37,
                "velocity": 80,
                "duration": 0.6681818181818144,
                "tempo": 120.0
            },
            {
                "start_time": 57.00454545454545,
                "end_time": 57.67272727272727,
                "pitch": 39,
                "velocity": 80,
                "duration": 0.6681818181818215,
                "tempo": 120.0
            },
            {
                "start_time": 57.69090909090909,
                "end_time": 58.37272727272727,
                "pitch": 40,
                "velocity": 80,
                "duration": 0.6818181818181799,
                "tempo": 120.0
            },
            {
                "start_time": 58.39090909090909,
                "end_time": 61.15454545454545,
                "pitch": 45,
                "velocity": 80,
                "duration": 2.7636363636363583,
                "tempo": 120.0
            },
            {
                "start_time": 61.17272727272727,
                "end_time": 63.91136363636363,
                "pitch": 44,
                "velocity": 80,
                "duration": 2.7386363636363598,
                "tempo": 120.0
            },
            {
                "start_time": 63.945454545454545,
                "end_time": 64.27727272727273,
                "pitch": 42,
                "velocity": 80,
                "duration": 0.33181818181818556,
                "tempo": 120.0
            },
            {
                "start_time": 64.29545454545455,
                "end_time": 64.64545454545454,
                "pitch": 42,
                "velocity": 80,
                "duration": 0.3499999999999943,
                "tempo": 120.0
            },
            {
                "start_time": 64.66363636363636,
                "end_time": 64.97954545454544,
                "pitch": 40,
                "velocity": 80,
                "duration": 0.3159090909090878,
                "tempo": 120.0
            },
            {
                "start_time": 64.99772727272727,
                "end_time": 65.33181818181818,
                "pitch": 40,
                "velocity": 80,
                "duration": 0.33409090909090366,
                "tempo": 120.0
            },
            {
                "start_time": 65.34772727272727,
                "end_time": 65.67272727272727,
                "pitch": 37,
                "velocity": 80,
                "duration": 0.32500000000000284,
                "tempo": 120.0
            },
            {
                "start_time": 65.69090909090909,
                "end_time": 66.36590909090908,
                "pitch": 35,
                "velocity": 80,
                "duration": 0.6749999999999972,
                "tempo": 120.0
            },
            {
                "start_time": 66.39999999999999,
                "end_time": 66.71818181818182,
                "pitch": 37,
                "velocity": 80,
                "duration": 0.3181818181818272,
                "tempo": 120.0
            },
            {
                "start_time": 66.73409090909091,
                "end_time": 67.075,
                "pitch": 35,
                "velocity": 80,
                "duration": 0.3409090909090935,
                "tempo": 120.0
            },
            {
                "start_time": 67.09318181818182,
                "end_time": 67.41818181818182,
                "pitch": 35,
                "velocity": 80,
                "duration": 0.32500000000000284,
                "tempo": 120.0
            },
            {
                "start_time": 67.43409090909091,
                "end_time": 67.76818181818182,
                "pitch": 33,
                "velocity": 80,
                "duration": 0.33409090909090366,
                "tempo": 120.0
            },
            {
                "start_time": 67.78636363636363,
                "end_time": 68.10454545454544,
                "pitch": 33,
                "velocity": 80,
                "duration": 0.318181818181813,
                "tempo": 120.0
            },
            {
                "start_time": 68.12045454545454,
                "end_time": 68.45454545454545,
                "pitch": 35,
                "velocity": 80,
                "duration": 0.3340909090909179,
                "tempo": 120.0
            },
            {
                "start_time": 68.47045454545454,
                "end_time": 68.78863636363636,
                "pitch": 37,
                "velocity": 80,
                "duration": 0.318181818181813,
                "tempo": 120.0
            },
            {
                "start_time": 68.82272727272726,
                "end_time": 69.14999999999999,
                "pitch": 39,
                "velocity": 80,
                "duration": 0.32727272727272805,
                "tempo": 120.0
            },
            {
                "start_time": 69.16818181818182,
                "end_time": 69.51363636363637,
                "pitch": 35,
                "velocity": 80,
                "duration": 0.3454545454545439,
                "tempo": 120.0
            },
            {
                "start_time": 69.53181818181818,
                "end_time": 72.26363636363637,
                "pitch": 40,
                "velocity": 80,
                "duration": 2.731818181818184,
                "tempo": 120.0
            }
        ],
        "Violin": [
            {
                "start_time": 25.054545454545455,
                "end_time": 25.384090909090908,
                "pitch": 80,
                "velocity": 51,
                "duration": 0.32954545454545325,
                "tempo": 120.0
            },
            {
                "start_time": 25.418181818181818,
                "end_time": 25.745454545454542,
                "pitch": 73,
                "velocity": 51,
                "duration": 0.3272727272727245,
                "tempo": 120.0
            },
            {
                "start_time": 25.761363636363637,
                "end_time": 26.097727272727273,
                "pitch": 76,
                "velocity": 51,
                "duration": 0.336363636363636,
                "tempo": 120.0
            },
            {
                "start_time": 26.113636363636363,
                "end_time": 26.43181818181818,
                "pitch": 78,
                "velocity": 51,
                "duration": 0.31818181818181657,
                "tempo": 120.0
            },
            {
                "start_time": 26.44772727272727,
                "end_time": 26.78181818181818,
                "pitch": 80,
                "velocity": 51,
                "duration": 0.33409090909091077,
                "tempo": 120.0
            },
            {
                "start_time": 26.797727272727272,
                "end_time": 27.11590909090909,
                "pitch": 78,
                "velocity": 51,
                "duration": 0.31818181818181657,
                "tempo": 120.0
            },
            {
                "start_time": 27.134090909090908,
                "end_time": 27.474999999999998,
                "pitch": 83,
                "velocity": 51,
                "duration": 0.34090909090908994,
                "tempo": 120.0
            },
            {
                "start_time": 27.493181818181817,
                "end_time": 27.815909090909088,
                "pitch": 81,
                "velocity": 51,
                "duration": 0.32272727272727053,
                "tempo": 120.0
            },
            {
                "start_time": 27.849999999999998,
                "end_time": 28.168181818181818,
                "pitch": 80,
                "velocity": 51,
                "duration": 0.3181818181818201,
                "tempo": 120.0
            },
            {
                "start_time": 28.18409090909091,
                "end_time": 28.518181818181816,
                "pitch": 81,
                "velocity": 51,
                "duration": 0.3340909090909072,
                "tempo": 120.0
            },
            {
                "start_time": 28.536363636363635,
                "end_time": 28.852272727272727,
                "pitch": 83,
                "velocity": 51,
                "duration": 0.31590909090909136,
                "tempo": 120.0
            },
            {
                "start_time": 28.870454545454542,
                "end_time": 29.204545454545453,
                "pitch": 80,
                "velocity": 51,
                "duration": 0.33409090909091077,
                "tempo": 120.0
            },
            {
                "start_time": 29.222727272727273,
                "end_time": 29.547727272727272,
                "pitch": 78,
                "velocity": 51,
                "duration": 0.3249999999999993,
                "tempo": 120.0
            },
            {
                "start_time": 29.563636363636363,
                "end_time": 29.90681818181818,
                "pitch": 80,
                "velocity": 51,
                "duration": 0.3431818181818187,
                "tempo": 120.0
            },
            {
                "start_time": 29.922727272727272,
                "end_time": 30.252272727272725,
                "pitch": 76,
                "velocity": 51,
                "duration": 0.32954545454545325,
                "tempo": 120.0
            },
            {
                "start_time": 30.286363636363635,
                "end_time": 30.613636363636363,
                "pitch": 75,
                "velocity": 51,
                "duration": 0.32727272727272805,
                "tempo": 120.0
            },
            {
                "start_time": 30.63181818181818,
                "end_time": 31.299999999999997,
                "pitch": 73,
                "velocity": 51,
                "duration": 0.668181818181818,
                "tempo": 120.0
            },
            {
                "start_time": 31.318181818181817,
                "end_time": 32.0,
                "pitch": 80,
                "velocity": 51,
                "duration": 0.6818181818181834,
                "tempo": 120.0
            },
            {
                "start_time": 32.018181818181816,
                "end_time": 32.35227272727273,
                "pitch": 76,
                "velocity": 51,
                "duration": 0.33409090909091077,
                "tempo": 120.0
            },
            {
                "start_time": 32.36818181818182,
                "end_time": 33.04545454545455,
                "pitch": 83,
                "velocity": 51,
                "duration": 0.6772727272727295,
                "tempo": 120.0
            },
            {
                "start_time": 33.06136363636364,
                "end_time": 33.402272727272724,
                "pitch": 76,
                "velocity": 51,
                "duration": 0.3409090909090864,
                "tempo": 120.0
            },
            {
                "start_time": 33.42045454545455,
                "end_time": 34.08863636363636,
                "pitch": 73,
                "velocity": 51,
                "duration": 0.6681818181818144,
                "tempo": 120.0
            },
            {
                "start_time": 34.10454545454545,
                "end_time": 34.775,
                "pitch": 80,
                "velocity": 51,
                "duration": 0.6704545454545467,
                "tempo": 120.0
            },
            {
                "start_time": 34.79090909090909,
                "end_time": 35.12045454545454,
                "pitch": 81,
                "velocity": 51,
                "duration": 0.32954545454545325,
                "tempo": 120.0
            },
            {
                "start_time": 35.154545454545456,
                "end_time": 35.48181818181818,
                "pitch": 83,
                "velocity": 51,
                "duration": 0.32727272727272094,
                "tempo": 120.0
            },
            {
                "start_time": 35.5,
                "end_time": 35.83409090909091,
                "pitch": 85,
                "velocity": 51,
                "duration": 0.33409090909091077,
                "tempo": 120.0
            },
            {
                "start_time": 35.85,
                "end_time": 36.168181818181814,
                "pitch": 87,
                "velocity": 51,
                "duration": 0.318181818181813,
                "tempo": 120.0
            },
            {
                "start_time": 58.45681818181818,
                "end_time": 58.775,
                "pitch": 80,
                "velocity": 51,
                "duration": 0.3181818181818201,
                "tempo": 120.0
            },
            {
                "start_time": 58.793181818181814,
                "end_time": 59.127272727272725,
                "pitch": 73,
                "velocity": 51,
                "duration": 0.33409090909091077,
                "tempo": 120.0
            },
            {
                "start_time": 59.14545454545454,
                "end_time": 59.47272727272727,
                "pitch": 76,
                "velocity": 51,
                "duration": 0.32727272727272805,
                "tempo": 120.0
            },
            {
                "start_time": 59.506818181818176,
                "end_time": 59.836363636363636,
                "pitch": 78,
                "velocity": 51,
                "duration": 0.32954545454546036,
                "tempo": 120.0
            },
            {
                "start_time": 59.85227272727273,
                "end_time": 60.18636363636363,
                "pitch": 80,
                "velocity": 51,
                "duration": 0.33409090909090366,
                "tempo": 120.0
            },
            {
                "start_time": 60.20227272727272,
                "end_time": 60.52045454545454,
                "pitch": 78,
                "velocity": 51,
                "duration": 0.3181818181818201,
                "tempo": 120.0
            },
            {
                "start_time": 60.53636363636363,
                "end_time": 60.87045454545454,
                "pitch": 83,
                "velocity": 51,
                "duration": 0.33409090909091077,
                "tempo": 120.0
            },
            {
                "start_time": 60.88863636363636,
                "end_time": 61.20681818181818,
                "pitch": 81,
                "velocity": 51,
                "duration": 0.3181818181818201,
                "tempo": 120.0
            },
            {
                "start_time": 61.22272727272727,
                "end_time": 61.56590909090909,
                "pitch": 80,
                "velocity": 51,
                "duration": 0.3431818181818187,
                "tempo": 120.0
            },
            {
                "start_time": 61.58181818181818,
                "end_time": 61.90681818181818,
                "pitch": 81,
                "velocity": 51,
                "duration": 0.32500000000000284,
                "tempo": 120.0
            },
            {
                "start_time": 61.94090909090909,
                "end_time": 62.256818181818176,
                "pitch": 83,
                "velocity": 51,
                "duration": 0.3159090909090878,
                "tempo": 120.0
            },
            {
                "start_time": 62.275,
                "end_time": 62.60909090909091,
                "pitch": 80,
                "velocity": 51,
                "duration": 0.33409090909091077,
                "tempo": 120.0
            },
            {
                "start_time": 62.625,
                "end_time": 62.94318181818181,
                "pitch": 78,
                "velocity": 51,
                "duration": 0.318181818181813,
                "tempo": 120.0
            },
            {
                "start_time": 62.959090909090904,
                "end_time": 63.293181818181814,
                "pitch": 80,
                "velocity": 51,
                "duration": 0.33409090909091077,
                "tempo": 120.0
            },
            {
                "start_time": 63.31136363636363,
                "end_time": 63.627272727272725,
                "pitch": 76,
                "velocity": 51,
                "duration": 0.3159090909090949,
                "tempo": 120.0
            },
            {
                "start_time": 63.64545454545454,
                "end_time": 63.97954545454545,
                "pitch": 75,
                "velocity": 51,
                "duration": 0.33409090909091077,
                "tempo": 120.0
            },
            {
                "start_time": 63.99772727272727,
                "end_time": 64.69545454545454,
                "pitch": 73,
                "velocity": 51,
                "duration": 0.6977272727272705,
                "tempo": 120.0
            },
            {
                "start_time": 64.71363636363635,
                "end_time": 65.38181818181818,
                "pitch": 80,
                "velocity": 51,
                "duration": 0.6681818181818215,
                "tempo": 120.0
            },
            {
                "start_time": 65.39999999999999,
                "end_time": 65.74090909090908,
                "pitch": 76,
                "velocity": 51,
                "duration": 0.3409090909090935,
                "tempo": 120.0
            },
            {
                "start_time": 65.7590909090909,
                "end_time": 66.43409090909091,
                "pitch": 83,
                "velocity": 51,
                "duration": 0.6750000000000114,
                "tempo": 120.0
            },
            {
                "start_time": 66.45,
                "end_time": 66.76818181818182,
                "pitch": 76,
                "velocity": 51,
                "duration": 0.318181818181813,
                "tempo": 120.0
            },
            {
                "start_time": 66.80227272727272,
                "end_time": 67.48636363636363,
                "pitch": 73,
                "velocity": 51,
                "duration": 0.6840909090909122,
                "tempo": 120.0
            },
            {
                "start_time": 67.50227272727273,
                "end_time": 68.17045454545455,
                "pitch": 80,
                "velocity": 51,
                "duration": 0.6681818181818215,
                "tempo": 120.0
            },
            {
                "start_time": 68.18636363636364,
                "end_time": 68.50454545454545,
                "pitch": 81,
                "velocity": 51,
                "duration": 0.318181818181813,
                "tempo": 120.0
            },
            {
                "start_time": 68.52045454545454,
                "end_time": 68.85681818181818,
                "pitch": 83,
                "velocity": 51,
                "duration": 0.3363636363636431,
                "tempo": 120.0
            },
            {
                "start_time": 68.87272727272727,
                "end_time": 69.20227272727273,
                "pitch": 85,
                "velocity": 51,
                "duration": 0.32954545454545325,
                "tempo": 120.0
            },
            {
                "start_time": 69.23636363636363,
                "end_time": 69.56363636363636,
                "pitch": 87,
                "velocity": 51,
                "duration": 0.32727272727272805,
                "tempo": 120.0
            },
            {
                "start_time": 69.58181818181818,
                "end_time": 72.33181818181818,
                "pitch": 88,
                "velocity": 51,
                "duration": 2.75,
                "tempo": 120.0
            }
        ],
        "Trumpet": [
            {
                "start_time": 13.863636363636363,
                "end_time": 14.531818181818181,
                "pitch": 76,
                "velocity": 40,
                "duration": 0.668181818181818,
                "tempo": 120.0
            },
            {
                "start_time": 14.547727272727272,
                "end_time": 15.209090909090909,
                "pitch": 83,
                "velocity": 40,
                "duration": 0.661363636363637,
                "tempo": 120.0
            },
            {
                "start_time": 15.24090909090909,
                "end_time": 15.94090909090909,
                "pitch": 88,
                "velocity": 40,
                "duration": 0.6999999999999993,
                "tempo": 120.0
            },
            {
                "start_time": 15.959090909090909,
                "end_time": 16.277272727272727,
                "pitch": 83,
                "velocity": 40,
                "duration": 0.31818181818181834,
                "tempo": 120.0
            },
            {
                "start_time": 16.293181818181818,
                "end_time": 16.627272727272725,
                "pitch": 84,
                "velocity": 40,
                "duration": 0.3340909090909072,
                "tempo": 120.0
            },
            {
                "start_time": 16.645454545454545,
                "end_time": 17.327272727272728,
                "pitch": 85,
                "velocity": 40,
                "duration": 0.6818181818181834,
                "tempo": 120.0
            },
            {
                "start_time": 17.345454545454544,
                "end_time": 18.00681818181818,
                "pitch": 87,
                "velocity": 40,
                "duration": 0.6613636363636353,
                "tempo": 120.0
            },
            {
                "start_time": 18.022727272727273,
                "end_time": 18.706818181818182,
                "pitch": 88,
                "velocity": 40,
                "duration": 0.6840909090909086,
                "tempo": 120.0
            },
            {
                "start_time": 18.722727272727273,
                "end_time": 19.40681818181818,
                "pitch": 92,
                "velocity": 40,
                "duration": 0.6840909090909086,
                "tempo": 120.0
            },
            {
                "start_time": 19.425,
                "end_time": 19.759090909090908,
                "pitch": 93,
                "velocity": 40,
                "duration": 0.3340909090909072,
                "tempo": 120.0
            },
            {
                "start_time": 19.775,
                "end_time": 20.09318181818182,
                "pitch": 92,
                "velocity": 40,
                "duration": 0.3181818181818201,
                "tempo": 120.0
            },
            {
                "start_time": 20.127272727272725,
                "end_time": 20.454545454545453,
                "pitch": 90,
                "velocity": 40,
                "duration": 0.32727272727272805,
                "tempo": 120.0
            },
            {
                "start_time": 20.472727272727273,
                "end_time": 20.818181818181817,
                "pitch": 88,
                "velocity": 40,
                "duration": 0.3454545454545439,
                "tempo": 120.0
            },
            {
                "start_time": 20.836363636363636,
                "end_time": 21.495454545454546,
                "pitch": 88,
                "velocity": 40,
                "duration": 0.6590909090909101,
                "tempo": 120.0
            },
            {
                "start_time": 21.513636363636362,
                "end_time": 21.84090909090909,
                "pitch": 87,
                "velocity": 40,
                "duration": 0.32727272727272805,
                "tempo": 120.0
            },
            {
                "start_time": 21.85909090909091,
                "end_time": 22.204545454545453,
                "pitch": 88,
                "velocity": 40,
                "duration": 0.3454545454545439,
                "tempo": 120.0
            },
            {
                "start_time": 22.222727272727273,
                "end_time": 24.970454545454544,
                "pitch": 90,
                "velocity": 40,
                "duration": 2.7477272727272712,
                "tempo": 120.0
            },
            {
                "start_time": 47.27272727272727,
                "end_time": 47.94090909090909,
                "pitch": 76,
                "velocity": 51,
                "duration": 0.6681818181818144,
                "tempo": 120.0
            },
            {
                "start_time": 47.959090909090904,
                "end_time": 48.61818181818182,
                "pitch": 83,
                "velocity": 51,
                "duration": 0.6590909090909136,
                "tempo": 120.0
            },
            {
                "start_time": 48.63636363636363,
                "end_time": 49.29772727272727,
                "pitch": 88,
                "velocity": 51,
                "duration": 0.6613636363636388,
                "tempo": 120.0
            },
            {
                "start_time": 49.32954545454545,
                "end_time": 49.66590909090909,
                "pitch": 83,
                "velocity": 51,
                "duration": 0.336363636363636,
                "tempo": 120.0
            },
            {
                "start_time": 49.684090909090905,
                "end_time": 50.038636363636364,
                "pitch": 84,
                "velocity": 51,
                "duration": 0.35454545454545894,
                "tempo": 120.0
            },
            {
                "start_time": 50.054545454545455,
                "end_time": 50.740909090909085,
                "pitch": 85,
                "velocity": 51,
                "duration": 0.6863636363636303,
                "tempo": 120.0
            },
            {
                "start_time": 50.75681818181818,
                "end_time": 51.41136363636363,
                "pitch": 87,
                "velocity": 51,
                "duration": 0.654545454545449,
                "tempo": 120.0
            },
            {
                "start_time": 51.42727272727272,
                "end_time": 52.111363636363635,
                "pitch": 88,
                "velocity": 51,
                "duration": 0.6840909090909122,
                "tempo": 120.0
            },
            {
                "start_time": 52.127272727272725,
                "end_time": 52.820454545454545,
                "pitch": 92,
                "velocity": 51,
                "duration": 0.6931818181818201,
                "tempo": 120.0
            },
            {
                "start_time": 52.836363636363636,
                "end_time": 53.17045454545454,
                "pitch": 93,
                "velocity": 51,
                "duration": 0.33409090909090366,
                "tempo": 120.0
            },
            {
                "start_time": 53.18863636363636,
                "end_time": 53.50681818181818,
                "pitch": 92,
                "velocity": 51,
                "duration": 0.3181818181818201,
                "tempo": 120.0
            },
            {
                "start_time": 53.52272727272727,
                "end_time": 53.85227272727273,
                "pitch": 90,
                "velocity": 51,
                "duration": 0.32954545454545325,
                "tempo": 120.0
            },
            {
                "start_time": 53.87045454545454,
                "end_time": 54.184090909090905,
                "pitch": 88,
                "velocity": 51,
                "duration": 0.3136363636363626,
                "tempo": 120.0
            },
            {
                "start_time": 54.215909090909086,
                "end_time": 54.91590909090909,
                "pitch": 88,
                "velocity": 51,
                "duration": 0.7000000000000028,
                "tempo": 120.0
            },
            {
                "start_time": 54.934090909090905,
                "end_time": 55.252272727272725,
                "pitch": 87,
                "velocity": 51,
                "duration": 0.3181818181818201,
                "tempo": 120.0
            },
            {
                "start_time": 55.268181818181816,
                "end_time": 55.60227272727273,
                "pitch": 88,
                "velocity": 51,
                "duration": 0.33409090909091077,
                "tempo": 120.0
            },
            {
                "start_time": 55.61818181818182,
                "end_time": 58.37272727272727,
                "pitch": 90,
                "velocity": 51,
                "duration": 2.7545454545454504,
                "tempo": 120.0
            }
        ],
        "Acoustic Grand Piano": [
            {
                "start_time": 0.00909090909090909,
                "end_time": 0.024999999999999998,
                "pitch": 65,
                "velocity": 51,
                "duration": 0.015909090909090907,
                "tempo": 120.0
            },
            {
                "start_time": 0.04090909090909091,
                "end_time": 2.0727272727272728,
                "pitch": 57,
                "velocity": 51,
                "duration": 2.0318181818181817,
                "tempo": 120.0
            },
            {
                "start_time": 2.0886363636363634,
                "end_time": 2.759090909090909,
                "pitch": 59,
                "velocity": 51,
                "duration": 0.6704545454545454,
                "tempo": 120.0
            },
            {
                "start_time": 2.775,
                "end_time": 4.861363636363636,
                "pitch": 52,
                "velocity": 51,
                "duration": 2.0863636363636364,
                "tempo": 120.0
            },
            {
                "start_time": 4.877272727272727,
                "end_time": 5.195454545454545,
                "pitch": 52,
                "velocity": 51,
                "duration": 0.31818181818181834,
                "tempo": 120.0
            },
            {
                "start_time": 5.213636363636363,
                "end_time": 5.547727272727273,
                "pitch": 51,
                "velocity": 51,
                "duration": 0.3340909090909099,
                "tempo": 120.0
            },
            {
                "start_time": 5.5659090909090905,
                "end_time": 7.643181818181818,
                "pitch": 49,
                "velocity": 51,
                "duration": 2.077272727272727,
                "tempo": 120.0
            },
            {
                "start_time": 7.659090909090908,
                "end_time": 7.993181818181818,
                "pitch": 49,
                "velocity": 51,
                "duration": 0.3340909090909099,
                "tempo": 120.0
            },
            {
                "start_time": 8.009090909090908,
                "end_time": 8.327272727272726,
                "pitch": 47,
                "velocity": 51,
                "duration": 0.31818181818181834,
                "tempo": 120.0
            },
            {
                "start_time": 8.361363636363636,
                "end_time": 10.415909090909091,
                "pitch": 45,
                "velocity": 51,
                "duration": 2.0545454545454547,
                "tempo": 120.0
            },
            {
                "start_time": 10.434090909090909,
                "end_time": 10.761363636363637,
                "pitch": 45,
                "velocity": 51,
                "duration": 0.32727272727272805,
                "tempo": 120.0
            },
            {
                "start_time": 10.797727272727272,
                "end_time": 11.125,
                "pitch": 49,
                "velocity": 51,
                "duration": 0.32727272727272805,
                "tempo": 120.0
            },
            {
                "start_time": 11.14090909090909,
                "end_time": 11.809090909090909,
                "pitch": 47,
                "velocity": 51,
                "duration": 0.668181818181818,
                "tempo": 120.0
            },
            {
                "start_time": 11.827272727272726,
                "end_time": 12.511363636363635,
                "pitch": 49,
                "velocity": 51,
                "duration": 0.6840909090909086,
                "tempo": 120.0
            },
            {
                "start_time": 12.527272727272727,
                "end_time": 13.195454545454545,
                "pitch": 51,
                "velocity": 51,
                "duration": 0.668181818181818,
                "tempo": 120.0
            },
            {
                "start_time": 13.229545454545454,
                "end_time": 13.913636363636362,
                "pitch": 47,
                "velocity": 51,
                "duration": 0.6840909090909086,
                "tempo": 120.0
            },
            {
                "start_time": 13.929545454545455,
                "end_time": 15.993181818181817,
                "pitch": 52,
                "velocity": 51,
                "duration": 2.0636363636363626,
                "tempo": 120.0
            },
            {
                "start_time": 16.009090909090908,
                "end_time": 16.34318181818182,
                "pitch": 52,
                "velocity": 51,
                "duration": 0.33409090909091077,
                "tempo": 120.0
            },
            {
                "start_time": 16.361363636363635,
                "end_time": 16.679545454545455,
                "pitch": 51,
                "velocity": 51,
                "duration": 0.3181818181818201,
                "tempo": 120.0
            },
            {
                "start_time": 16.695454545454545,
                "end_time": 18.775,
                "pitch": 49,
                "velocity": 51,
                "duration": 2.0795454545454533,
                "tempo": 120.0
            },
            {
                "start_time": 18.793181818181818,
                "end_time": 19.11590909090909,
                "pitch": 49,
                "velocity": 51,
                "duration": 0.32272727272727053,
                "tempo": 120.0
            },
            {
                "start_time": 19.134090909090908,
                "end_time": 19.474999999999998,
                "pitch": 47,
                "velocity": 51,
                "duration": 0.34090909090908994,
                "tempo": 120.0
            },
            {
                "start_time": 19.49090909090909,
                "end_time": 21.547727272727272,
                "pitch": 45,
                "velocity": 51,
                "duration": 2.0568181818181834,
                "tempo": 120.0
            },
            {
                "start_time": 21.563636363636363,
                "end_time": 21.911363636363635,
                "pitch": 45,
                "velocity": 51,
                "duration": 0.34772727272727266,
                "tempo": 120.0
            },
            {
                "start_time": 21.927272727272726,
                "end_time": 22.25681818181818,
                "pitch": 49,
                "velocity": 51,
                "duration": 0.32954545454545325,
                "tempo": 120.0
            },
            {
                "start_time": 22.272727272727273,
                "end_time": 22.956818181818182,
                "pitch": 47,
                "velocity": 51,
                "duration": 0.6840909090909086,
                "tempo": 120.0
            },
            {
                "start_time": 22.988636363636363,
                "end_time": 23.652272727272727,
                "pitch": 49,
                "velocity": 51,
                "duration": 0.663636363636364,
                "tempo": 120.0
            },
            {
                "start_time": 23.668181818181818,
                "end_time": 24.352272727272727,
                "pitch": 51,
                "velocity": 51,
                "duration": 0.6840909090909086,
                "tempo": 120.0
            },
            {
                "start_time": 24.368181818181817,
                "end_time": 25.038636363636364,
                "pitch": 52,
                "velocity": 51,
                "duration": 0.6704545454545467,
                "tempo": 120.0
            },
            {
                "start_time": 25.054545454545455,
                "end_time": 27.815909090909088,
                "pitch": 57,
                "velocity": 51,
                "duration": 2.761363636363633,
                "tempo": 120.0
            },
            {
                "start_time": 27.849999999999998,
                "end_time": 30.613636363636363,
                "pitch": 56,
                "velocity": 51,
                "duration": 2.7636363636363654,
                "tempo": 120.0
            },
            {
                "start_time": 30.63181818181818,
                "end_time": 30.96590909090909,
                "pitch": 54,
                "velocity": 51,
                "duration": 0.33409090909091077,
                "tempo": 120.0
            },
            {
                "start_time": 30.98181818181818,
                "end_time": 31.299999999999997,
                "pitch": 54,
                "velocity": 51,
                "duration": 0.31818181818181657,
                "tempo": 120.0
            },
            {
                "start_time": 31.318181818181817,
                "end_time": 31.659090909090907,
                "pitch": 52,
                "velocity": 51,
                "duration": 0.34090909090908994,
                "tempo": 120.0
            },
            {
                "start_time": 31.677272727272726,
                "end_time": 32.0,
                "pitch": 52,
                "velocity": 51,
                "duration": 0.3227272727272741,
                "tempo": 120.0
            },
            {
                "start_time": 32.018181818181816,
                "end_time": 32.35227272727273,
                "pitch": 49,
                "velocity": 51,
                "duration": 0.33409090909091077,
                "tempo": 120.0
            },
            {
                "start_time": 32.36818181818182,
                "end_time": 33.04545454545455,
                "pitch": 47,
                "velocity": 51,
                "duration": 0.6772727272727295,
                "tempo": 120.0
            },
            {
                "start_time": 33.06136363636364,
                "end_time": 33.402272727272724,
                "pitch": 49,
                "velocity": 51,
                "duration": 0.3409090909090864,
                "tempo": 120.0
            },
            {
                "start_time": 33.42045454545455,
                "end_time": 33.73863636363636,
                "pitch": 47,
                "velocity": 51,
                "duration": 0.318181818181813,
                "tempo": 120.0
            },
            {
                "start_time": 33.75454545454545,
                "end_time": 34.08863636363636,
                "pitch": 47,
                "velocity": 51,
                "duration": 0.33409090909091077,
                "tempo": 120.0
            },
            {
                "start_time": 34.10454545454545,
                "end_time": 34.42272727272727,
                "pitch": 45,
                "velocity": 51,
                "duration": 0.3181818181818201,
                "tempo": 120.0
            },
            {
                "start_time": 34.43863636363636,
                "end_time": 34.775,
                "pitch": 45,
                "velocity": 51,
                "duration": 0.336363636363636,
                "tempo": 120.0
            },
            {
                "start_time": 34.79090909090909,
                "end_time": 35.12045454545454,
                "pitch": 47,
                "velocity": 51,
                "duration": 0.32954545454545325,
                "tempo": 120.0
            },
            {
                "start_time": 35.154545454545456,
                "end_time": 35.48181818181818,
                "pitch": 49,
                "velocity": 51,
                "duration": 0.32727272727272094,
                "tempo": 120.0
            },
            {
                "start_time": 35.5,
                "end_time": 35.83409090909091,
                "pitch": 51,
                "velocity": 51,
                "duration": 0.33409090909091077,
                "tempo": 120.0
            },
            {
                "start_time": 35.85,
                "end_time": 36.168181818181814,
                "pitch": 47,
                "velocity": 51,
                "duration": 0.318181818181813,
                "tempo": 120.0
            },
            {
                "start_time": 36.18636363636364,
                "end_time": 38.25681818181818,
                "pitch": 52,
                "velocity": 51,
                "duration": 2.0704545454545453,
                "tempo": 120.0
            },
            {
                "start_time": 38.275,
                "end_time": 38.59772727272727,
                "pitch": 52,
                "velocity": 51,
                "duration": 0.32272727272727053,
                "tempo": 120.0
            },
            {
                "start_time": 38.61590909090909,
                "end_time": 38.95681818181818,
                "pitch": 51,
                "velocity": 51,
                "duration": 0.3409090909090864,
                "tempo": 120.0
            },
            {
                "start_time": 38.97272727272727,
                "end_time": 41.03636363636363,
                "pitch": 49,
                "velocity": 51,
                "duration": 2.0636363636363626,
                "tempo": 120.0
            },
            {
                "start_time": 41.054545454545455,
                "end_time": 41.39545454545454,
                "pitch": 49,
                "velocity": 51,
                "duration": 0.3409090909090864,
                "tempo": 120.0
            },
            {
                "start_time": 41.413636363636364,
                "end_time": 41.736363636363635,
                "pitch": 47,
                "velocity": 51,
                "duration": 0.32272727272727053,
                "tempo": 120.0
            },
            {
                "start_time": 41.75454545454545,
                "end_time": 43.824999999999996,
                "pitch": 45,
                "velocity": 51,
                "duration": 2.0704545454545453,
                "tempo": 120.0
            },
            {
                "start_time": 43.840909090909086,
                "end_time": 44.15909090909091,
                "pitch": 45,
                "velocity": 51,
                "duration": 0.3181818181818201,
                "tempo": 120.0
            },
            {
                "start_time": 44.175,
                "end_time": 44.51136363636363,
                "pitch": 49,
                "velocity": 51,
                "duration": 0.336363636363636,
                "tempo": 120.0
            },
            {
                "start_time": 44.52954545454545,
                "end_time": 45.220454545454544,
                "pitch": 47,
                "velocity": 51,
                "duration": 0.6909090909090949,
                "tempo": 120.0
            },
            {
                "start_time": 45.236363636363635,
                "end_time": 45.90454545454545,
                "pitch": 49,
                "velocity": 51,
                "duration": 0.6681818181818144,
                "tempo": 120.0
            },
            {
                "start_time": 45.92272727272727,
                "end_time": 46.60681818181818,
                "pitch": 51,
                "velocity": 51,
                "duration": 0.6840909090909051,
                "tempo": 120.0
            },
            {
                "start_time": 46.62272727272727,
                "end_time": 47.30681818181818,
                "pitch": 47,
                "velocity": 51,
                "duration": 0.6840909090909122,
                "tempo": 120.0
            },
            {
                "start_time": 47.340909090909086,
                "end_time": 49.36363636363636,
                "pitch": 52,
                "velocity": 51,
                "duration": 2.0227272727272734,
                "tempo": 120.0
            },
            {
                "start_time": 49.38181818181818,
                "end_time": 49.71818181818182,
                "pitch": 52,
                "velocity": 51,
                "duration": 0.336363636363636,
                "tempo": 120.0
            },
            {
                "start_time": 49.75454545454545,
                "end_time": 50.090909090909086,
                "pitch": 51,
                "velocity": 51,
                "duration": 0.336363636363636,
                "tempo": 120.0
            },
            {
                "start_time": 50.10681818181818,
                "end_time": 52.16136363636363,
                "pitch": 49,
                "velocity": 51,
                "duration": 2.0545454545454547,
                "tempo": 120.0
            },
            {
                "start_time": 52.19772727272727,
                "end_time": 52.525,
                "pitch": 49,
                "velocity": 51,
                "duration": 0.32727272727272805,
                "tempo": 120.0
            },
            {
                "start_time": 52.543181818181814,
                "end_time": 52.88636363636363,
                "pitch": 47,
                "velocity": 51,
                "duration": 0.3431818181818187,
                "tempo": 120.0
            },
            {
                "start_time": 52.90454545454545,
                "end_time": 54.96818181818182,
                "pitch": 45,
                "velocity": 51,
                "duration": 2.0636363636363697,
                "tempo": 120.0
            },
            {
                "start_time": 54.98409090909091,
                "end_time": 55.31818181818181,
                "pitch": 45,
                "velocity": 51,
                "duration": 0.33409090909090366,
                "tempo": 120.0
            },
            {
                "start_time": 55.334090909090904,
                "end_time": 55.652272727272724,
                "pitch": 49,
                "velocity": 51,
                "duration": 0.3181818181818201,
                "tempo": 120.0
            },
            {
                "start_time": 55.67045454545454,
                "end_time": 56.35227272727273,
                "pitch": 47,
                "velocity": 51,
                "duration": 0.681818181818187,
                "tempo": 120.0
            },
            {
                "start_time": 56.37045454545454,
                "end_time": 57.038636363636364,
                "pitch": 49,
                "velocity": 51,
                "duration": 0.6681818181818215,
                "tempo": 120.0
            },
            {
                "start_time": 57.07272727272727,
                "end_time": 57.740909090909085,
                "pitch": 51,
                "velocity": 51,
                "duration": 0.6681818181818144,
                "tempo": 120.0
            },
            {
                "start_time": 57.75909090909091,
                "end_time": 58.44090909090909,
                "pitch": 52,
                "velocity": 51,
                "duration": 0.6818181818181799,
                "tempo": 120.0
            },
            {
                "start_time": 58.45681818181818,
                "end_time": 61.20681818181818,
                "pitch": 57,
                "velocity": 51,
                "duration": 2.75,
                "tempo": 120.0
            },
            {
                "start_time": 61.22272727272727,
                "end_time": 63.97954545454545,
                "pitch": 56,
                "velocity": 51,
                "duration": 2.7568181818181827,
                "tempo": 120.0
            },
            {
                "start_time": 63.99772727272727,
                "end_time": 64.32954545454545,
                "pitch": 54,
                "velocity": 51,
                "duration": 0.33181818181818556,
                "tempo": 120.0
            },
            {
                "start_time": 64.36590909090908,
                "end_time": 64.69545454545454,
                "pitch": 54,
                "velocity": 51,
                "duration": 0.32954545454545325,
                "tempo": 120.0
            },
            {
                "start_time": 64.71363636363635,
                "end_time": 65.04772727272727,
                "pitch": 52,
                "velocity": 51,
                "duration": 0.3340909090909179,
                "tempo": 120.0
            },
            {
                "start_time": 65.06363636363636,
                "end_time": 65.38181818181818,
                "pitch": 52,
                "velocity": 51,
                "duration": 0.318181818181813,
                "tempo": 120.0
            },
            {
                "start_time": 65.39999999999999,
                "end_time": 65.74090909090908,
                "pitch": 49,
                "velocity": 51,
                "duration": 0.3409090909090935,
                "tempo": 120.0
            },
            {
                "start_time": 65.7590909090909,
                "end_time": 66.43409090909091,
                "pitch": 47,
                "velocity": 51,
                "duration": 0.6750000000000114,
                "tempo": 120.0
            },
            {
                "start_time": 66.45,
                "end_time": 66.76818181818182,
                "pitch": 49,
                "velocity": 51,
                "duration": 0.318181818181813,
                "tempo": 120.0
            },
            {
                "start_time": 66.80227272727272,
                "end_time": 67.12727272727273,
                "pitch": 47,
                "velocity": 51,
                "duration": 0.32500000000000284,
                "tempo": 120.0
            },
            {
                "start_time": 67.14318181818182,
                "end_time": 67.48636363636363,
                "pitch": 47,
                "velocity": 51,
                "duration": 0.3431818181818187,
                "tempo": 120.0
            },
            {
                "start_time": 67.50227272727273,
                "end_time": 67.82045454545454,
                "pitch": 45,
                "velocity": 51,
                "duration": 0.318181818181813,
                "tempo": 120.0
            },
            {
                "start_time": 67.83636363636363,
                "end_time": 68.17045454545455,
                "pitch": 45,
                "velocity": 51,
                "duration": 0.3340909090909179,
                "tempo": 120.0
            },
            {
                "start_time": 68.18636363636364,
                "end_time": 68.50454545454545,
                "pitch": 47,
                "velocity": 51,
                "duration": 0.318181818181813,
                "tempo": 120.0
            },
            {
                "start_time": 68.52045454545454,
                "end_time": 68.85681818181818,
                "pitch": 49,
                "velocity": 51,
                "duration": 0.3363636363636431,
                "tempo": 120.0
            },
            {
                "start_time": 68.87272727272727,
                "end_time": 69.20227272727273,
                "pitch": 51,
                "velocity": 51,
                "duration": 0.32954545454545325,
                "tempo": 120.0
            },
            {
                "start_time": 69.23636363636363,
                "end_time": 69.56363636363636,
                "pitch": 47,
                "velocity": 51,
                "duration": 0.32727272727272805,
                "tempo": 120.0
            },
            {
                "start_time": 69.58181818181818,
                "end_time": 72.33181818181818,
                "pitch": 52,
                "velocity": 51,
                "duration": 2.75,
                "tempo": 120.0
            }
        ]
    }
}