{
    "track_id": "Galactic Protector (FM) - 07 - Ending",
    "mood": "relaxed",
    "instruments": {
        "Church Organ": [
            {
                "start_time": 0.00909090909090909,
                "end_time": 1.7772727272727271,
                "pitch": 79,
                "velocity": 80,
                "duration": 1.768181818181818,
                "tempo": 120.0
            },
            {
                "start_time": 1.793181818181818,
                "end_time": 2.3886363636363637,
                "pitch": 76,
                "velocity": 80,
                "duration": 0.5954545454545457,
                "tempo": 120.0
            },
            {
                "start_time": 2.4045454545454543,
                "end_time": 2.9704545454545452,
                "pitch": 77,
                "velocity": 80,
                "duration": 0.5659090909090909,
                "tempo": 120.0
            },
            {
                "start_time": 2.9863636363636363,
                "end_time": 3.5818181818181816,
                "pitch": 79,
                "velocity": 80,
                "duration": 0.5954545454545452,
                "tempo": 120.0
            },
            {
                "start_time": 3.5977272727272727,
                "end_time": 4.177272727272727,
                "pitch": 72,
                "velocity": 80,
                "duration": 0.5795454545454541,
                "tempo": 120.0
            },
            {
                "start_time": 4.193181818181818,
                "end_time": 4.788636363636363,
                "pitch": 82,
                "velocity": 80,
                "duration": 0.5954545454545448,
                "tempo": 120.0
            },
            {
                "start_time": 4.804545454545455,
                "end_time": 6.6,
                "pitch": 84,
                "velocity": 80,
                "duration": 1.795454545454545,
                "tempo": 120.0
            },
            {
                "start_time": 6.618181818181818,
                "end_time": 7.206818181818181,
                "pitch": 82,
                "velocity": 80,
                "duration": 0.588636363636363,
                "tempo": 120.0
            },
            {
                "start_time": 7.222727272727273,
                "end_time": 9.631818181818181,
                "pitch": 81,
                "velocity": 80,
                "duration": 2.4090909090909083,
                "tempo": 120.0
            },
            {
                "start_time": 9.647727272727272,
                "end_time": 11.431818181818182,
                "pitch": 77,
                "velocity": 80,
                "duration": 1.78409090909091,
                "tempo": 120.0
            },
            {
                "start_time": 11.447727272727272,
                "end_time": 12.031818181818181,
                "pitch": 79,
                "velocity": 80,
                "duration": 0.584090909090909,
                "tempo": 120.0
            },
            {
                "start_time": 12.047727272727272,
                "end_time": 13.236363636363636,
                "pitch": 82,
                "velocity": 80,
                "duration": 1.1886363636363644,
                "tempo": 120.0
            },
            {
                "start_time": 13.254545454545454,
                "end_time": 13.831818181818182,
                "pitch": 81,
                "velocity": 80,
                "duration": 0.577272727272728,
                "tempo": 120.0
            },
            {
                "start_time": 13.847727272727273,
                "end_time": 14.443181818181818,
                "pitch": 82,
                "velocity": 80,
                "duration": 0.5954545454545457,
                "tempo": 120.0
            },
            {
                "start_time": 14.459090909090909,
                "end_time": 16.25,
                "pitch": 79,
                "velocity": 80,
                "duration": 1.790909090909091,
                "tempo": 120.0
            },
            {
                "start_time": 16.26590909090909,
                "end_time": 16.861363636363635,
                "pitch": 77,
                "velocity": 80,
                "duration": 0.5954545454545439,
                "tempo": 120.0
            },
            {
                "start_time": 16.877272727272725,
                "end_time": 19.275,
                "pitch": 79,
                "velocity": 80,
                "duration": 2.3977272727272734,
                "tempo": 120.0
            },
            {
                "start_time": 19.29090909090909,
                "end_time": 21.075,
                "pitch": 79,
                "velocity": 80,
                "duration": 1.78409090909091,
                "tempo": 120.0
            },
            {
                "start_time": 21.09090909090909,
                "end_time": 21.686363636363634,
                "pitch": 76,
                "velocity": 80,
                "duration": 0.5954545454545439,
                "tempo": 120.0
            },
            {
                "start_time": 21.702272727272724,
                "end_time": 22.268181818181816,
                "pitch": 77,
                "velocity": 80,
                "duration": 0.5659090909090914,
                "tempo": 120.0
            },
            {
                "start_time": 22.284090909090907,
                "end_time": 22.879545454545454,
                "pitch": 79,
                "velocity": 80,
                "duration": 0.5954545454545475,
                "tempo": 120.0
            },
            {
                "start_time": 22.897727272727273,
                "end_time": 23.474999999999998,
                "pitch": 72,
                "velocity": 80,
                "duration": 0.5772727272727245,
                "tempo": 120.0
            },
            {
                "start_time": 23.49090909090909,
                "end_time": 24.086363636363636,
                "pitch": 82,
                "velocity": 80,
                "duration": 0.5954545454545475,
                "tempo": 120.0
            },
            {
                "start_time": 24.102272727272727,
                "end_time": 25.89772727272727,
                "pitch": 84,
                "velocity": 80,
                "duration": 1.7954545454545432,
                "tempo": 120.0
            },
            {
                "start_time": 25.91590909090909,
                "end_time": 26.511363636363637,
                "pitch": 82,
                "velocity": 80,
                "duration": 0.5954545454545475,
                "tempo": 120.0
            },
            {
                "start_time": 26.527272727272727,
                "end_time": 28.911363636363635,
                "pitch": 81,
                "velocity": 80,
                "duration": 2.384090909090908,
                "tempo": 120.0
            },
            {
                "start_time": 28.927272727272726,
                "end_time": 31.32272727272727,
                "pitch": 77,
                "velocity": 80,
                "duration": 2.3954545454545446,
                "tempo": 120.0
            },
            {
                "start_time": 31.34090909090909,
                "end_time": 32.529545454545456,
                "pitch": 82,
                "velocity": 80,
                "duration": 1.1886363636363662,
                "tempo": 120.0
            },
            {
                "start_time": 32.54545454545455,
                "end_time": 33.12272727272727,
                "pitch": 81,
                "velocity": 80,
                "duration": 0.5772727272727209,
                "tempo": 120.0
            },
            {
                "start_time": 33.14090909090909,
                "end_time": 33.73409090909091,
                "pitch": 82,
                "velocity": 80,
                "duration": 0.5931818181818187,
                "tempo": 120.0
            },
            {
                "start_time": 33.752272727272725,
                "end_time": 36.16590909090909,
                "pitch": 81,
                "velocity": 80,
                "duration": 2.413636363636364,
                "tempo": 120.0
            },
            {
                "start_time": 36.18181818181818,
                "end_time": 38.57272727272727,
                "pitch": 79,
                "velocity": 80,
                "duration": 2.3909090909090907,
                "tempo": 120.0
            },
            {
                "start_time": 38.58863636363636,
                "end_time": 40.38409090909091,
                "pitch": 83,
                "velocity": 80,
                "duration": 1.7954545454545467,
                "tempo": 120.0
            },
            {
                "start_time": 40.4,
                "end_time": 40.99545454545454,
                "pitch": 83,
                "velocity": 80,
                "duration": 0.5954545454545439,
                "tempo": 120.0
            },
            {
                "start_time": 41.01136363636363,
                "end_time": 41.57954545454545,
                "pitch": 81,
                "velocity": 80,
                "duration": 0.5681818181818201,
                "tempo": 120.0
            },
            {
                "start_time": 41.595454545454544,
                "end_time": 42.19090909090909,
                "pitch": 83,
                "velocity": 80,
                "duration": 0.5954545454545439,
                "tempo": 120.0
            },
            {
                "start_time": 42.20681818181818,
                "end_time": 42.78409090909091,
                "pitch": 79,
                "velocity": 80,
                "duration": 0.577272727272728,
                "tempo": 120.0
            },
            {
                "start_time": 42.8,
                "end_time": 43.40909090909091,
                "pitch": 86,
                "velocity": 80,
                "duration": 0.6090909090909093,
                "tempo": 120.0
            },
            {
                "start_time": 43.425,
                "end_time": 45.209090909090904,
                "pitch": 83,
                "velocity": 80,
                "duration": 1.7840909090909065,
                "tempo": 120.0
            },
            {
                "start_time": 45.224999999999994,
                "end_time": 45.820454545454545,
                "pitch": 79,
                "velocity": 80,
                "duration": 0.595454545454551,
                "tempo": 120.0
            },
            {
                "start_time": 45.836363636363636,
                "end_time": 46.41590909090909,
                "pitch": 81,
                "velocity": 80,
                "duration": 0.5795454545454533,
                "tempo": 120.0
            },
            {
                "start_time": 46.43181818181818,
                "end_time": 47.02045454545454,
                "pitch": 83,
                "velocity": 80,
                "duration": 0.5886363636363612,
                "tempo": 120.0
            },
            {
                "start_time": 47.038636363636364,
                "end_time": 48.23863636363636,
                "pitch": 79,
                "velocity": 80,
                "duration": 1.1999999999999957,
                "tempo": 120.0
            },
            {
                "start_time": 48.25454545454545,
                "end_time": 50.64545454545454,
                "pitch": 80,
                "velocity": 80,
                "duration": 2.3909090909090907,
                "tempo": 120.0
            },
            {
                "start_time": 50.66136363636363,
                "end_time": 51.85681818181818,
                "pitch": 83,
                "velocity": 80,
                "duration": 1.1954545454545453,
                "tempo": 120.0
            },
            {
                "start_time": 51.87272727272727,
                "end_time": 53.06363636363636,
                "pitch": 79,
                "velocity": 80,
                "duration": 1.190909090909095,
                "tempo": 120.0
            },
            {
                "start_time": 53.07954545454545,
                "end_time": 55.474999999999994,
                "pitch": 84,
                "velocity": 80,
                "duration": 2.395454545454541,
                "tempo": 120.0
            }
        ],
        "Acoustic Bass": [
            {
                "start_time": 0.020454545454545454,
                "end_time": 2.3886363636363637,
                "pitch": 48,
                "velocity": 40,
                "duration": 2.368181818181818,
                "tempo": 120.0
            },
            {
                "start_time": 4.804545454545455,
                "end_time": 7.206818181818181,
                "pitch": 45,
                "velocity": 40,
                "duration": 2.4022727272727264,
                "tempo": 120.0
            },
            {
                "start_time": 8.429545454545455,
                "end_time": 9.018181818181818,
                "pitch": 43,
                "velocity": 40,
                "duration": 0.588636363636363,
                "tempo": 120.0
            },
            {
                "start_time": 9.036363636363635,
                "end_time": 9.631818181818181,
                "pitch": 45,
                "velocity": 40,
                "duration": 0.5954545454545457,
                "tempo": 120.0
            },
            {
                "start_time": 9.647727272727272,
                "end_time": 12.031818181818181,
                "pitch": 46,
                "velocity": 40,
                "duration": 2.3840909090909097,
                "tempo": 120.0
            },
            {
                "start_time": 13.254545454545454,
                "end_time": 13.831818181818182,
                "pitch": 45,
                "velocity": 40,
                "duration": 0.577272727272728,
                "tempo": 120.0
            },
            {
                "start_time": 13.847727272727273,
                "end_time": 14.443181818181818,
                "pitch": 46,
                "velocity": 40,
                "duration": 0.5954545454545457,
                "tempo": 120.0
            },
            {
                "start_time": 14.459090909090909,
                "end_time": 17.443181818181817,
                "pitch": 48,
                "velocity": 40,
                "duration": 2.9840909090909076,
                "tempo": 120.0
            },
            {
                "start_time": 17.459090909090907,
                "end_time": 18.068181818181817,
                "pitch": 40,
                "velocity": 40,
                "duration": 0.6090909090909093,
                "tempo": 120.0
            },
            {
                "start_time": 18.084090909090907,
                "end_time": 18.668181818181818,
                "pitch": 41,
                "velocity": 40,
                "duration": 0.5840909090909108,
                "tempo": 120.0
            },
            {
                "start_time": 18.68409090909091,
                "end_time": 19.275,
                "pitch": 43,
                "velocity": 40,
                "duration": 0.5909090909090899,
                "tempo": 120.0
            },
            {
                "start_time": 19.29090909090909,
                "end_time": 21.686363636363634,
                "pitch": 48,
                "velocity": 40,
                "duration": 2.3954545454545446,
                "tempo": 120.0
            },
            {
                "start_time": 23.49090909090909,
                "end_time": 24.086363636363636,
                "pitch": 48,
                "velocity": 40,
                "duration": 0.5954545454545475,
                "tempo": 120.0
            },
            {
                "start_time": 24.102272727272727,
                "end_time": 26.511363636363637,
                "pitch": 45,
                "velocity": 40,
                "duration": 2.40909090909091,
                "tempo": 120.0
            },
            {
                "start_time": 28.32272727272727,
                "end_time": 28.911363636363635,
                "pitch": 45,
                "velocity": 40,
                "duration": 0.5886363636363647,
                "tempo": 120.0
            },
            {
                "start_time": 28.927272727272726,
                "end_time": 31.32272727272727,
                "pitch": 46,
                "velocity": 40,
                "duration": 2.3954545454545446,
                "tempo": 120.0
            },
            {
                "start_time": 32.54545454545455,
                "end_time": 33.12272727272727,
                "pitch": 45,
                "velocity": 40,
                "duration": 0.5772727272727209,
                "tempo": 120.0
            },
            {
                "start_time": 33.14090909090909,
                "end_time": 33.73409090909091,
                "pitch": 46,
                "velocity": 40,
                "duration": 0.5931818181818187,
                "tempo": 120.0
            },
            {
                "start_time": 33.752272727272725,
                "end_time": 34.95227272727273,
                "pitch": 48,
                "velocity": 40,
                "duration": 1.2000000000000028,
                "tempo": 120.0
            },
            {
                "start_time": 34.970454545454544,
                "end_time": 36.16590909090909,
                "pitch": 43,
                "velocity": 40,
                "duration": 1.1954545454545453,
                "tempo": 120.0
            },
            {
                "start_time": 36.18181818181818,
                "end_time": 38.57272727272727,
                "pitch": 40,
                "velocity": 40,
                "duration": 2.3909090909090907,
                "tempo": 120.0
            },
            {
                "start_time": 38.58863636363636,
                "end_time": 38.62272727272727,
                "pitch": 40,
                "velocity": 40,
                "duration": 0.03409090909090651,
                "tempo": 120.0
            },
            {
                "start_time": 38.63863636363636,
                "end_time": 40.99545454545454,
                "pitch": 40,
                "velocity": 40,
                "duration": 2.356818181818184,
                "tempo": 120.0
            },
            {
                "start_time": 42.20681818181818,
                "end_time": 42.78409090909091,
                "pitch": 38,
                "velocity": 40,
                "duration": 0.577272727272728,
                "tempo": 120.0
            },
            {
                "start_time": 42.8,
                "end_time": 43.40909090909091,
                "pitch": 43,
                "velocity": 40,
                "duration": 0.6090909090909093,
                "tempo": 120.0
            },
            {
                "start_time": 43.425,
                "end_time": 45.820454545454545,
                "pitch": 41,
                "velocity": 40,
                "duration": 2.395454545454548,
                "tempo": 120.0
            },
            {
                "start_time": 45.836363636363636,
                "end_time": 47.02045454545454,
                "pitch": 48,
                "velocity": 40,
                "duration": 1.184090909090905,
                "tempo": 120.0
            },
            {
                "start_time": 47.038636363636364,
                "end_time": 48.23863636363636,
                "pitch": 41,
                "velocity": 40,
                "duration": 1.1999999999999957,
                "tempo": 120.0
            },
            {
                "start_time": 48.25454545454545,
                "end_time": 50.64545454545454,
                "pitch": 44,
                "velocity": 40,
                "duration": 2.3909090909090907,
                "tempo": 120.0
            },
            {
                "start_time": 50.66136363636363,
                "end_time": 53.06363636363636,
                "pitch": 39,
                "velocity": 40,
                "duration": 2.402272727272731,
                "tempo": 120.0
            },
            {
                "start_time": 53.07954545454545,
                "end_time": 55.474999999999994,
                "pitch": 48,
                "velocity": 40,
                "duration": 2.395454545454541,
                "tempo": 120.0
            }
        ]
    }
}