{
    "track_id": "Global Defense (FM) - 06 - SDI Blue Moon (Game Over)",
    "mood": "relaxed",
    "instruments": {
        "Acoustic Guitar (nylon)": [
            {
                "start_time": 53.28636363636363,
                "end_time": 54.25909090909091,
                "pitch": 67,
                "velocity": 40,
                "duration": 0.9727272727272762,
                "tempo": 120.0
            }
        ],
        "Acoustic Bass": [
            {
                "start_time": 0.18409090909090908,
                "end_time": 0.4318181818181818,
                "pitch": 39,
                "velocity": 51,
                "duration": 0.24772727272727274,
                "tempo": 120.0
            },
            {
                "start_time": 0.4477272727272727,
                "end_time": 0.6931818181818181,
                "pitch": 44,
                "velocity": 51,
                "duration": 0.24545454545454543,
                "tempo": 120.0
            },
            {
                "start_time": 0.7090909090909091,
                "end_time": 0.9545454545454545,
                "pitch": 51,
                "velocity": 51,
                "duration": 0.24545454545454537,
                "tempo": 120.0
            },
            {
                "start_time": 0.9727272727272727,
                "end_time": 1.218181818181818,
                "pitch": 56,
                "velocity": 51,
                "duration": 0.24545454545454537,
                "tempo": 120.0
            },
            {
                "start_time": 1.2340909090909091,
                "end_time": 2.275,
                "pitch": 40,
                "velocity": 51,
                "duration": 1.0409090909090908,
                "tempo": 120.0
            },
            {
                "start_time": 2.293181818181818,
                "end_time": 2.543181818181818,
                "pitch": 44,
                "velocity": 51,
                "duration": 0.25,
                "tempo": 120.0
            },
            {
                "start_time": 2.559090909090909,
                "end_time": 2.809090909090909,
                "pitch": 47,
                "velocity": 51,
                "duration": 0.25,
                "tempo": 120.0
            },
            {
                "start_time": 2.8249999999999997,
                "end_time": 3.4,
                "pitch": 54,
                "velocity": 51,
                "duration": 0.5750000000000002,
                "tempo": 120.0
            },
            {
                "start_time": 3.4,
                "end_time": 3.452272727272727,
                "pitch": 51,
                "velocity": 51,
                "duration": 0.05227272727272725,
                "tempo": 120.0
            },
            {
                "start_time": 3.452272727272727,
                "end_time": 3.4863636363636363,
                "pitch": 48,
                "velocity": 51,
                "duration": 0.03409090909090917,
                "tempo": 120.0
            },
            {
                "start_time": 3.4863636363636363,
                "end_time": 3.5204545454545455,
                "pitch": 46,
                "velocity": 51,
                "duration": 0.03409090909090917,
                "tempo": 120.0
            },
            {
                "start_time": 3.5204545454545455,
                "end_time": 3.536363636363636,
                "pitch": 44,
                "velocity": 51,
                "duration": 0.01590909090909065,
                "tempo": 120.0
            },
            {
                "start_time": 3.536363636363636,
                "end_time": 3.5886363636363634,
                "pitch": 42,
                "velocity": 51,
                "duration": 0.05227272727272725,
                "tempo": 120.0
            },
            {
                "start_time": 3.5886363636363634,
                "end_time": 3.6227272727272726,
                "pitch": 40,
                "velocity": 51,
                "duration": 0.03409090909090917,
                "tempo": 120.0
            },
            {
                "start_time": 3.893181818181818,
                "end_time": 4.384090909090909,
                "pitch": 51,
                "velocity": 51,
                "duration": 0.49090909090909074,
                "tempo": 120.0
            },
            {
                "start_time": 4.3999999999999995,
                "end_time": 5.965909090909091,
                "pitch": 49,
                "velocity": 51,
                "duration": 1.5659090909090914,
                "tempo": 120.0
            },
            {
                "start_time": 5.9818181818181815,
                "end_time": 6.763636363636364,
                "pitch": 47,
                "velocity": 51,
                "duration": 0.7818181818181822,
                "tempo": 120.0
            },
            {
                "start_time": 6.779545454545454,
                "end_time": 7.55,
                "pitch": 46,
                "velocity": 51,
                "duration": 0.7704545454545455,
                "tempo": 120.0
            },
            {
                "start_time": 7.5659090909090905,
                "end_time": 9.14090909090909,
                "pitch": 42,
                "velocity": 51,
                "duration": 1.5750000000000002,
                "tempo": 120.0
            },
            {
                "start_time": 9.159090909090908,
                "end_time": 10.206818181818182,
                "pitch": 51,
                "velocity": 51,
                "duration": 1.0477272727272737,
                "tempo": 120.0
            },
            {
                "start_time": 10.206818181818182,
                "end_time": 10.71590909090909,
                "pitch": 49,
                "velocity": 51,
                "duration": 0.5090909090909079,
                "tempo": 120.0
            },
            {
                "start_time": 10.73181818181818,
                "end_time": 11.511363636363637,
                "pitch": 48,
                "velocity": 51,
                "duration": 0.7795454545454561,
                "tempo": 120.0
            },
            {
                "start_time": 11.527272727272727,
                "end_time": 11.772727272727272,
                "pitch": 48,
                "velocity": 51,
                "duration": 0.24545454545454426,
                "tempo": 120.0
            },
            {
                "start_time": 11.790909090909091,
                "end_time": 12.036363636363635,
                "pitch": 48,
                "velocity": 51,
                "duration": 0.24545454545454426,
                "tempo": 120.0
            },
            {
                "start_time": 12.052272727272726,
                "end_time": 12.297727272727272,
                "pitch": 45,
                "velocity": 51,
                "duration": 0.24545454545454604,
                "tempo": 120.0
            },
            {
                "start_time": 12.313636363636363,
                "end_time": 12.831818181818182,
                "pitch": 44,
                "velocity": 51,
                "duration": 0.5181818181818194,
                "tempo": 120.0
            },
            {
                "start_time": 12.847727272727273,
                "end_time": 13.35681818181818,
                "pitch": 42,
                "velocity": 51,
                "duration": 0.5090909090909079,
                "tempo": 120.0
            },
            {
                "start_time": 13.372727272727271,
                "end_time": 13.89090909090909,
                "pitch": 39,
                "velocity": 51,
                "duration": 0.5181818181818194,
                "tempo": 120.0
            },
            {
                "start_time": 13.906818181818181,
                "end_time": 14.415909090909091,
                "pitch": 37,
                "velocity": 51,
                "duration": 0.5090909090909097,
                "tempo": 120.0
            },
            {
                "start_time": 14.431818181818182,
                "end_time": 16.259090909090908,
                "pitch": 40,
                "velocity": 51,
                "duration": 1.8272727272727263,
                "tempo": 120.0
            },
            {
                "start_time": 16.277272727272727,
                "end_time": 16.522727272727273,
                "pitch": 39,
                "velocity": 51,
                "duration": 0.24545454545454604,
                "tempo": 120.0
            },
            {
                "start_time": 16.538636363636364,
                "end_time": 16.788636363636364,
                "pitch": 40,
                "velocity": 51,
                "duration": 0.25,
                "tempo": 120.0
            },
            {
                "start_time": 16.804545454545455,
                "end_time": 17.05681818181818,
                "pitch": 42,
                "velocity": 51,
                "duration": 0.2522727272727252,
                "tempo": 120.0
            },
            {
                "start_time": 17.07272727272727,
                "end_time": 17.581818181818182,
                "pitch": 43,
                "velocity": 51,
                "duration": 0.5090909090909115,
                "tempo": 120.0
            },
            {
                "start_time": 17.597727272727273,
                "end_time": 18.104545454545455,
                "pitch": 45,
                "velocity": 51,
                "duration": 0.5068181818181827,
                "tempo": 120.0
            },
            {
                "start_time": 18.12272727272727,
                "end_time": 18.638636363636362,
                "pitch": 52,
                "velocity": 51,
                "duration": 0.5159090909090907,
                "tempo": 120.0
            },
            {
                "start_time": 18.654545454545453,
                "end_time": 19.163636363636364,
                "pitch": 51,
                "velocity": 51,
                "duration": 0.5090909090909115,
                "tempo": 120.0
            },
            {
                "start_time": 19.179545454545455,
                "end_time": 19.688636363636363,
                "pitch": 48,
                "velocity": 51,
                "duration": 0.5090909090909079,
                "tempo": 120.0
            },
            {
                "start_time": 19.704545454545453,
                "end_time": 20.21363636363636,
                "pitch": 49,
                "velocity": 51,
                "duration": 0.5090909090909079,
                "tempo": 120.0
            },
            {
                "start_time": 20.229545454545452,
                "end_time": 20.745454545454546,
                "pitch": 51,
                "velocity": 51,
                "duration": 0.5159090909090942,
                "tempo": 120.0
            },
            {
                "start_time": 20.763636363636362,
                "end_time": 21.270454545454545,
                "pitch": 45,
                "velocity": 51,
                "duration": 0.5068181818181827,
                "tempo": 120.0
            },
            {
                "start_time": 21.286363636363635,
                "end_time": 21.804545454545455,
                "pitch": 42,
                "velocity": 51,
                "duration": 0.5181818181818194,
                "tempo": 120.0
            },
            {
                "start_time": 21.820454545454545,
                "end_time": 23.379545454545454,
                "pitch": 37,
                "velocity": 51,
                "duration": 1.5590909090909086,
                "tempo": 120.0
            },
            {
                "start_time": 23.395454545454545,
                "end_time": 24.436363636363634,
                "pitch": 39,
                "velocity": 51,
                "duration": 1.0409090909090892,
                "tempo": 120.0
            },
            {
                "start_time": 24.452272727272724,
                "end_time": 24.7,
                "pitch": 51,
                "velocity": 51,
                "duration": 0.2477272727272748,
                "tempo": 120.0
            },
            {
                "start_time": 24.71590909090909,
                "end_time": 24.961363636363636,
                "pitch": 49,
                "velocity": 51,
                "duration": 0.24545454545454604,
                "tempo": 120.0
            },
            {
                "start_time": 24.977272727272727,
                "end_time": 26.020454545454545,
                "pitch": 42,
                "velocity": 51,
                "duration": 1.043181818181818,
                "tempo": 120.0
            },
            {
                "start_time": 26.036363636363635,
                "end_time": 26.543181818181818,
                "pitch": 44,
                "velocity": 51,
                "duration": 0.5068181818181827,
                "tempo": 120.0
            },
            {
                "start_time": 26.561363636363634,
                "end_time": 27.602272727272727,
                "pitch": 39,
                "velocity": 51,
                "duration": 1.0409090909090928,
                "tempo": 120.0
            },
            {
                "start_time": 27.618181818181817,
                "end_time": 27.87272727272727,
                "pitch": 42,
                "velocity": 51,
                "duration": 0.25454545454545396,
                "tempo": 120.0
            },
            {
                "start_time": 27.89090909090909,
                "end_time": 28.145454545454545,
                "pitch": 49,
                "velocity": 51,
                "duration": 0.25454545454545396,
                "tempo": 120.0
            },
            {
                "start_time": 28.161363636363635,
                "end_time": 28.661363636363635,
                "pitch": 47,
                "velocity": 51,
                "duration": 0.5,
                "tempo": 120.0
            },
            {
                "start_time": 28.677272727272726,
                "end_time": 29.195454545454545,
                "pitch": 46,
                "velocity": 51,
                "duration": 0.5181818181818194,
                "tempo": 120.0
            },
            {
                "start_time": 29.211363636363636,
                "end_time": 29.720454545454544,
                "pitch": 42,
                "velocity": 51,
                "duration": 0.5090909090909079,
                "tempo": 120.0
            },
            {
                "start_time": 29.736363636363635,
                "end_time": 31.293181818181818,
                "pitch": 44,
                "velocity": 51,
                "duration": 1.5568181818181834,
                "tempo": 120.0
            },
            {
                "start_time": 31.30909090909091,
                "end_time": 31.827272727272724,
                "pitch": 44,
                "velocity": 51,
                "duration": 0.5181818181818159,
                "tempo": 120.0
            },
            {
                "start_time": 31.843181818181815,
                "end_time": 32.35227272727273,
                "pitch": 42,
                "velocity": 51,
                "duration": 0.5090909090909115,
                "tempo": 120.0
            },
            {
                "start_time": 32.36818181818182,
                "end_time": 32.88409090909091,
                "pitch": 34,
                "velocity": 51,
                "duration": 0.5159090909090907,
                "tempo": 120.0
            },
            {
                "start_time": 32.902272727272724,
                "end_time": 33.934090909090905,
                "pitch": 37,
                "velocity": 51,
                "duration": 1.0318181818181813,
                "tempo": 120.0
            },
            {
                "start_time": 33.949999999999996,
                "end_time": 34.20454545454545,
                "pitch": 32,
                "velocity": 51,
                "duration": 0.2545454545454575,
                "tempo": 120.0
            },
            {
                "start_time": 34.22272727272727,
                "end_time": 34.47727272727273,
                "pitch": 37,
                "velocity": 51,
                "duration": 0.2545454545454575,
                "tempo": 120.0
            },
            {
                "start_time": 34.49318181818182,
                "end_time": 34.736363636363635,
                "pitch": 59,
                "velocity": 51,
                "duration": 0.24318181818181728,
                "tempo": 120.0
            },
            {
                "start_time": 34.752272727272725,
                "end_time": 35.27272727272727,
                "pitch": 54,
                "velocity": 51,
                "duration": 0.5204545454545482,
                "tempo": 120.0
            },
            {
                "start_time": 35.27272727272727,
                "end_time": 35.845454545454544,
                "pitch": 49,
                "velocity": 51,
                "duration": 0.5727272727272705,
                "tempo": 120.0
            },
            {
                "start_time": 35.845454545454544,
                "end_time": 35.89545454545454,
                "pitch": 47,
                "velocity": 51,
                "duration": 0.04999999999999716,
                "tempo": 120.0
            },
            {
                "start_time": 35.89545454545454,
                "end_time": 35.91136363636363,
                "pitch": 44,
                "velocity": 51,
                "duration": 0.01590909090909065,
                "tempo": 120.0
            },
            {
                "start_time": 35.91136363636363,
                "end_time": 35.97727272727273,
                "pitch": 43,
                "velocity": 51,
                "duration": 0.06590909090909491,
                "tempo": 120.0
            },
            {
                "start_time": 35.97727272727273,
                "end_time": 36.043181818181814,
                "pitch": 40,
                "velocity": 51,
                "duration": 0.06590909090908781,
                "tempo": 120.0
            },
            {
                "start_time": 36.043181818181814,
                "end_time": 36.059090909090905,
                "pitch": 38,
                "velocity": 51,
                "duration": 0.01590909090909065,
                "tempo": 120.0
            },
            {
                "start_time": 36.059090909090905,
                "end_time": 36.83863636363636,
                "pitch": 44,
                "velocity": 51,
                "duration": 0.7795454545454561,
                "tempo": 120.0
            },
            {
                "start_time": 36.85454545454545,
                "end_time": 37.1,
                "pitch": 39,
                "velocity": 51,
                "duration": 0.2454545454545496,
                "tempo": 120.0
            },
            {
                "start_time": 37.11590909090909,
                "end_time": 37.36818181818182,
                "pitch": 44,
                "velocity": 51,
                "duration": 0.2522727272727252,
                "tempo": 120.0
            },
            {
                "start_time": 37.38409090909091,
                "end_time": 37.63409090909091,
                "pitch": 51,
                "velocity": 51,
                "duration": 0.25,
                "tempo": 120.0
            },
            {
                "start_time": 37.65,
                "end_time": 38.15909090909091,
                "pitch": 48,
                "velocity": 51,
                "duration": 0.5090909090909079,
                "tempo": 120.0
            },
            {
                "start_time": 38.175,
                "end_time": 38.684090909090905,
                "pitch": 44,
                "velocity": 51,
                "duration": 0.5090909090909079,
                "tempo": 120.0
            },
            {
                "start_time": 38.699999999999996,
                "end_time": 39.21818181818182,
                "pitch": 39,
                "velocity": 51,
                "duration": 0.518181818181823,
                "tempo": 120.0
            },
            {
                "start_time": 39.23409090909091,
                "end_time": 40.00454545454545,
                "pitch": 43,
                "velocity": 51,
                "duration": 0.7704545454545411,
                "tempo": 120.0
            },
            {
                "start_time": 40.02045454545454,
                "end_time": 40.26590909090909,
                "pitch": 43,
                "velocity": 51,
                "duration": 0.2454545454545496,
                "tempo": 120.0
            },
            {
                "start_time": 40.28181818181818,
                "end_time": 40.53409090909091,
                "pitch": 42,
                "velocity": 51,
                "duration": 0.2522727272727252,
                "tempo": 120.0
            },
            {
                "start_time": 40.55,
                "end_time": 40.8,
                "pitch": 40,
                "velocity": 51,
                "duration": 0.25,
                "tempo": 120.0
            },
            {
                "start_time": 40.81590909090909,
                "end_time": 41.6,
                "pitch": 35,
                "velocity": 51,
                "duration": 0.7840909090909136,
                "tempo": 120.0
            },
            {
                "start_time": 41.61818181818182,
                "end_time": 42.777272727272724,
                "pitch": 37,
                "velocity": 51,
                "duration": 1.1590909090909065,
                "tempo": 120.0
            },
            {
                "start_time": 42.80227272727272,
                "end_time": 44.37272727272727,
                "pitch": 39,
                "velocity": 51,
                "duration": 1.5704545454545453,
                "tempo": 120.0
            },
            {
                "start_time": 44.39772727272727,
                "end_time": 44.768181818181816,
                "pitch": 43,
                "velocity": 51,
                "duration": 0.3704545454545425,
                "tempo": 120.0
            },
            {
                "start_time": 44.793181818181814,
                "end_time": 45.163636363636364,
                "pitch": 46,
                "velocity": 51,
                "duration": 0.3704545454545496,
                "tempo": 120.0
            },
            {
                "start_time": 45.18863636363636,
                "end_time": 45.98863636363636,
                "pitch": 50,
                "velocity": 51,
                "duration": 0.7999999999999972,
                "tempo": 120.0
            },
            {
                "start_time": 45.98863636363636,
                "end_time": 46.78409090909091,
                "pitch": 54,
                "velocity": 51,
                "duration": 0.7954545454545467,
                "tempo": 120.0
            },
            {
                "start_time": 46.78409090909091,
                "end_time": 47.574999999999996,
                "pitch": 51,
                "velocity": 51,
                "duration": 0.7909090909090892,
                "tempo": 120.0
            },
            {
                "start_time": 47.574999999999996,
                "end_time": 49.13636363636363,
                "pitch": 37,
                "velocity": 51,
                "duration": 1.5613636363636374,
                "tempo": 120.0
            },
            {
                "start_time": 49.16136363636363,
                "end_time": 49.53636363636363,
                "pitch": 41,
                "velocity": 51,
                "duration": 0.375,
                "tempo": 120.0
            },
            {
                "start_time": 49.56136363636364,
                "end_time": 49.93636363636364,
                "pitch": 44,
                "velocity": 51,
                "duration": 0.375,
                "tempo": 120.0
            },
            {
                "start_time": 49.961363636363636,
                "end_time": 51.52272727272727,
                "pitch": 47,
                "velocity": 51,
                "duration": 1.5613636363636374,
                "tempo": 120.0
            },
            {
                "start_time": 51.54772727272727,
                "end_time": 51.92272727272727,
                "pitch": 47,
                "velocity": 51,
                "duration": 0.375,
                "tempo": 120.0
            },
            {
                "start_time": 51.94772727272727,
                "end_time": 52.32272727272727,
                "pitch": 44,
                "velocity": 51,
                "duration": 0.375,
                "tempo": 120.0
            },
            {
                "start_time": 52.34772727272727,
                "end_time": 53.50909090909091,
                "pitch": 40,
                "velocity": 51,
                "duration": 1.1613636363636388,
                "tempo": 120.0
            },
            {
                "start_time": 53.53409090909091,
                "end_time": 53.809090909090905,
                "pitch": 63,
                "velocity": 51,
                "duration": 0.2749999999999986,
                "tempo": 120.0
            },
            {
                "start_time": 53.834090909090904,
                "end_time": 54.10909090909091,
                "pitch": 59,
                "velocity": 51,
                "duration": 0.2750000000000057,
                "tempo": 120.0
            },
            {
                "start_time": 54.13409090909091,
                "end_time": 54.40909090909091,
                "pitch": 55,
                "velocity": 51,
                "duration": 0.2749999999999986,
                "tempo": 120.0
            },
            {
                "start_time": 54.434090909090905,
                "end_time": 54.709090909090904,
                "pitch": 52,
                "velocity": 51,
                "duration": 0.2749999999999986,
                "tempo": 120.0
            },
            {
                "start_time": 54.73409090909091,
                "end_time": 55.586363636363636,
                "pitch": 48,
                "velocity": 51,
                "duration": 0.8522727272727266,
                "tempo": 120.0
            },
            {
                "start_time": 55.611363636363635,
                "end_time": 56.47954545454545,
                "pitch": 43,
                "velocity": 51,
                "duration": 0.8681818181818173,
                "tempo": 120.0
            },
            {
                "start_time": 56.50454545454545,
                "end_time": 57.07954545454545,
                "pitch": 40,
                "velocity": 51,
                "duration": 0.5750000000000028,
                "tempo": 120.0
            },
            {
                "start_time": 57.10681818181818,
                "end_time": 61.83863636363636,
                "pitch": 46,
                "velocity": 51,
                "duration": 4.731818181818184,
                "tempo": 120.0
            },
            {
                "start_time": 61.86363636363636,
                "end_time": 63.04090909090909,
                "pitch": 37,
                "velocity": 51,
                "duration": 1.1772727272727295,
                "tempo": 120.0
            },
            {
                "start_time": 63.06590909090909,
                "end_time": 64.24090909090908,
                "pitch": 35,
                "velocity": 51,
                "duration": 1.1749999999999972,
                "tempo": 120.0
            },
            {
                "start_time": 64.26590909090909,
                "end_time": 65.13181818181818,
                "pitch": 32,
                "velocity": 51,
                "duration": 0.865909090909085,
                "tempo": 120.0
            },
            {
                "start_time": 65.15681818181818,
                "end_time": 66.61363636363636,
                "pitch": 30,
                "velocity": 51,
                "duration": 1.4568181818181785,
                "tempo": 120.0
            },
            {
                "start_time": 66.63863636363637,
                "end_time": 67.81363636363636,
                "pitch": 36,
                "velocity": 51,
                "duration": 1.1749999999999972,
                "tempo": 120.0
            },
            {
                "start_time": 67.83863636363635,
                "end_time": 68.11136363636363,
                "pitch": 67,
                "velocity": 51,
                "duration": 0.2727272727272805,
                "tempo": 120.0
            },
            {
                "start_time": 68.13636363636363,
                "end_time": 68.40681818181818,
                "pitch": 64,
                "velocity": 51,
                "duration": 0.2704545454545553,
                "tempo": 120.0
            },
            {
                "start_time": 68.43181818181817,
                "end_time": 68.70454545454545,
                "pitch": 60,
                "velocity": 51,
                "duration": 0.2727272727272805,
                "tempo": 120.0
            },
            {
                "start_time": 68.72727272727272,
                "end_time": 69.0,
                "pitch": 59,
                "velocity": 51,
                "duration": 0.2727272727272805,
                "tempo": 120.0
            },
            {
                "start_time": 69.02499999999999,
                "end_time": 69.87727272727273,
                "pitch": 57,
                "velocity": 51,
                "duration": 0.8522727272727337,
                "tempo": 120.0
            },
            {
                "start_time": 69.90227272727273,
                "end_time": 70.77045454545454,
                "pitch": 55,
                "velocity": 51,
                "duration": 0.8681818181818102,
                "tempo": 120.0
            },
            {
                "start_time": 70.79545454545455,
                "end_time": 71.37045454545454,
                "pitch": 52,
                "velocity": 51,
                "duration": 0.5749999999999886,
                "tempo": 120.0
            },
            {
                "start_time": 71.39545454545454,
                "end_time": 71.66818181818182,
                "pitch": 36,
                "velocity": 51,
                "duration": 0.2727272727272805,
                "tempo": 120.0
            },
            {
                "start_time": 71.69090909090909,
                "end_time": 71.96363636363635,
                "pitch": 38,
                "velocity": 51,
                "duration": 0.27272727272726627,
                "tempo": 120.0
            },
            {
                "start_time": 71.98863636363636,
                "end_time": 73.75681818181818,
                "pitch": 43,
                "velocity": 51,
                "duration": 1.7681818181818159,
                "tempo": 120.0
            }
        ],
        "Acoustic Grand Piano": [
            {
                "start_time": 1.334090909090909,
                "end_time": 1.8499999999999999,
                "pitch": 75,
                "velocity": 40,
                "duration": 0.5159090909090909,
                "tempo": 120.0
            },
            {
                "start_time": 1.8659090909090907,
                "end_time": 4.4840909090909085,
                "pitch": 68,
                "velocity": 40,
                "duration": 2.6181818181818177,
                "tempo": 120.0
            },
            {
                "start_time": 6.081818181818181,
                "end_time": 6.597727272727273,
                "pitch": 68,
                "velocity": 40,
                "duration": 0.5159090909090915,
                "tempo": 120.0
            },
            {
                "start_time": 6.61590909090909,
                "end_time": 7.122727272727272,
                "pitch": 70,
                "velocity": 40,
                "duration": 0.5068181818181818,
                "tempo": 120.0
            },
            {
                "start_time": 7.138636363636364,
                "end_time": 7.386363636363636,
                "pitch": 71,
                "velocity": 40,
                "duration": 0.24772727272727213,
                "tempo": 120.0
            },
            {
                "start_time": 7.402272727272727,
                "end_time": 7.6499999999999995,
                "pitch": 73,
                "velocity": 40,
                "duration": 0.24772727272727213,
                "tempo": 120.0
            },
            {
                "start_time": 7.66590909090909,
                "end_time": 8.181818181818182,
                "pitch": 75,
                "velocity": 40,
                "duration": 0.5159090909090915,
                "tempo": 120.0
            },
            {
                "start_time": 8.197727272727272,
                "end_time": 10.81590909090909,
                "pitch": 66,
                "velocity": 40,
                "duration": 2.6181818181818173,
                "tempo": 120.0
            },
            {
                "start_time": 12.149999999999999,
                "end_time": 12.397727272727272,
                "pitch": 66,
                "velocity": 40,
                "duration": 0.24772727272727302,
                "tempo": 120.0
            },
            {
                "start_time": 12.413636363636362,
                "end_time": 12.929545454545455,
                "pitch": 78,
                "velocity": 40,
                "duration": 0.5159090909090924,
                "tempo": 120.0
            },
            {
                "start_time": 12.947727272727272,
                "end_time": 13.456818181818182,
                "pitch": 76,
                "velocity": 40,
                "duration": 0.5090909090909097,
                "tempo": 120.0
            },
            {
                "start_time": 13.472727272727273,
                "end_time": 13.722727272727273,
                "pitch": 75,
                "velocity": 40,
                "duration": 0.25,
                "tempo": 120.0
            },
            {
                "start_time": 13.74090909090909,
                "end_time": 13.988636363636363,
                "pitch": 76,
                "velocity": 40,
                "duration": 0.24772727272727302,
                "tempo": 120.0
            },
            {
                "start_time": 14.004545454545454,
                "end_time": 14.513636363636364,
                "pitch": 75,
                "velocity": 40,
                "duration": 0.5090909090909097,
                "tempo": 120.0
            },
            {
                "start_time": 14.529545454545454,
                "end_time": 17.154545454545453,
                "pitch": 71,
                "velocity": 40,
                "duration": 2.6249999999999982,
                "tempo": 120.0
            },
            {
                "start_time": 18.488636363636363,
                "end_time": 18.738636363636363,
                "pitch": 70,
                "velocity": 40,
                "duration": 0.25,
                "tempo": 120.0
            },
            {
                "start_time": 18.754545454545454,
                "end_time": 19.261363636363637,
                "pitch": 70,
                "velocity": 40,
                "duration": 0.5068181818181827,
                "tempo": 120.0
            },
            {
                "start_time": 19.277272727272727,
                "end_time": 19.786363636363635,
                "pitch": 71,
                "velocity": 40,
                "duration": 0.5090909090909079,
                "tempo": 120.0
            },
            {
                "start_time": 19.802272727272726,
                "end_time": 20.311363636363634,
                "pitch": 73,
                "velocity": 40,
                "duration": 0.5090909090909079,
                "tempo": 120.0
            },
            {
                "start_time": 20.329545454545453,
                "end_time": 21.902272727272727,
                "pitch": 75,
                "velocity": 40,
                "duration": 1.572727272727274,
                "tempo": 120.0
            },
            {
                "start_time": 21.920454545454543,
                "end_time": 22.427272727272726,
                "pitch": 78,
                "velocity": 40,
                "duration": 0.5068181818181827,
                "tempo": 120.0
            },
            {
                "start_time": 22.443181818181817,
                "end_time": 22.952272727272724,
                "pitch": 76,
                "velocity": 40,
                "duration": 0.5090909090909079,
                "tempo": 120.0
            },
            {
                "start_time": 22.96818181818182,
                "end_time": 23.477272727272727,
                "pitch": 78,
                "velocity": 40,
                "duration": 0.5090909090909079,
                "tempo": 120.0
            },
            {
                "start_time": 23.495454545454546,
                "end_time": 24.27272727272727,
                "pitch": 75,
                "velocity": 40,
                "duration": 0.7772727272727238,
                "tempo": 120.0
            },
            {
                "start_time": 24.288636363636364,
                "end_time": 24.536363636363635,
                "pitch": 75,
                "velocity": 40,
                "duration": 0.24772727272727124,
                "tempo": 120.0
            },
            {
                "start_time": 24.552272727272726,
                "end_time": 24.66590909090909,
                "pitch": 88,
                "velocity": 40,
                "duration": 0.11363636363636331,
                "tempo": 120.0
            },
            {
                "start_time": 24.68181818181818,
                "end_time": 24.797727272727272,
                "pitch": 90,
                "velocity": 40,
                "duration": 0.11590909090909207,
                "tempo": 120.0
            },
            {
                "start_time": 24.813636363636363,
                "end_time": 25.061363636363634,
                "pitch": 88,
                "velocity": 40,
                "duration": 0.24772727272727124,
                "tempo": 120.0
            },
            {
                "start_time": 25.077272727272724,
                "end_time": 25.59318181818182,
                "pitch": 87,
                "velocity": 40,
                "duration": 0.5159090909090942,
                "tempo": 120.0
            },
            {
                "start_time": 25.60909090909091,
                "end_time": 26.118181818181817,
                "pitch": 84,
                "velocity": 40,
                "duration": 0.5090909090909079,
                "tempo": 120.0
            },
            {
                "start_time": 26.134090909090908,
                "end_time": 26.643181818181816,
                "pitch": 80,
                "velocity": 40,
                "duration": 0.5090909090909079,
                "tempo": 120.0
            },
            {
                "start_time": 26.661363636363635,
                "end_time": 27.177272727272726,
                "pitch": 75,
                "velocity": 40,
                "duration": 0.5159090909090907,
                "tempo": 120.0
            },
            {
                "start_time": 27.193181818181817,
                "end_time": 29.818181818181817,
                "pitch": 68,
                "velocity": 40,
                "duration": 2.625,
                "tempo": 120.0
            },
            {
                "start_time": 31.145454545454545,
                "end_time": 31.393181818181816,
                "pitch": 68,
                "velocity": 40,
                "duration": 0.24772727272727124,
                "tempo": 120.0
            },
            {
                "start_time": 31.409090909090907,
                "end_time": 31.924999999999997,
                "pitch": 70,
                "velocity": 40,
                "duration": 0.5159090909090907,
                "tempo": 120.0
            },
            {
                "start_time": 31.940909090909088,
                "end_time": 32.45227272727273,
                "pitch": 71,
                "velocity": 40,
                "duration": 0.5113636363636402,
                "tempo": 120.0
            },
            {
                "start_time": 32.46818181818182,
                "end_time": 32.71818181818182,
                "pitch": 78,
                "velocity": 40,
                "duration": 0.25,
                "tempo": 120.0
            },
            {
                "start_time": 32.73409090909091,
                "end_time": 32.98409090909091,
                "pitch": 75,
                "velocity": 40,
                "duration": 0.25,
                "tempo": 120.0
            },
            {
                "start_time": 33.0,
                "end_time": 33.50909090909091,
                "pitch": 76,
                "velocity": 40,
                "duration": 0.5090909090909079,
                "tempo": 120.0
            },
            {
                "start_time": 33.525,
                "end_time": 35.35454545454545,
                "pitch": 75,
                "velocity": 40,
                "duration": 1.8295454545454533,
                "tempo": 120.0
            },
            {
                "start_time": 35.37045454545454,
                "end_time": 35.61590909090909,
                "pitch": 73,
                "velocity": 40,
                "duration": 0.2454545454545496,
                "tempo": 120.0
            },
            {
                "start_time": 35.63181818181818,
                "end_time": 35.877272727272725,
                "pitch": 75,
                "velocity": 40,
                "duration": 0.24545454545454248,
                "tempo": 120.0
            },
            {
                "start_time": 35.89545454545454,
                "end_time": 36.14090909090909,
                "pitch": 73,
                "velocity": 40,
                "duration": 0.2454545454545496,
                "tempo": 120.0
            },
            {
                "start_time": 36.15909090909091,
                "end_time": 37.46818181818182,
                "pitch": 72,
                "velocity": 40,
                "duration": 1.3090909090909122,
                "tempo": 120.0
            },
            {
                "start_time": 37.48409090909091,
                "end_time": 37.73181818181818,
                "pitch": 73,
                "velocity": 40,
                "duration": 0.2477272727272677,
                "tempo": 120.0
            },
            {
                "start_time": 37.75,
                "end_time": 38.25681818181818,
                "pitch": 75,
                "velocity": 40,
                "duration": 0.5068181818181827,
                "tempo": 120.0
            },
            {
                "start_time": 38.27272727272727,
                "end_time": 38.78409090909091,
                "pitch": 81,
                "velocity": 40,
                "duration": 0.5113636363636331,
                "tempo": 120.0
            },
            {
                "start_time": 38.8,
                "end_time": 39.05,
                "pitch": 80,
                "velocity": 40,
                "duration": 0.25,
                "tempo": 120.0
            },
            {
                "start_time": 39.06590909090909,
                "end_time": 39.31590909090909,
                "pitch": 78,
                "velocity": 40,
                "duration": 0.25,
                "tempo": 120.0
            },
            {
                "start_time": 39.33181818181818,
                "end_time": 39.840909090909086,
                "pitch": 78,
                "velocity": 40,
                "duration": 0.5090909090909079,
                "tempo": 120.0
            },
            {
                "start_time": 39.85681818181818,
                "end_time": 40.9,
                "pitch": 76,
                "velocity": 40,
                "duration": 1.0431818181818215,
                "tempo": 120.0
            },
            {
                "start_time": 40.91590909090909,
                "end_time": 42.92727272727272,
                "pitch": 75,
                "velocity": 40,
                "duration": 2.011363636363633,
                "tempo": 120.0
            },
            {
                "start_time": 42.95227272727273,
                "end_time": 43.72727272727273,
                "pitch": 70,
                "velocity": 40,
                "duration": 0.7749999999999986,
                "tempo": 120.0
            },
            {
                "start_time": 43.752272727272725,
                "end_time": 44.52045454545454,
                "pitch": 73,
                "velocity": 40,
                "duration": 0.7681818181818159,
                "tempo": 120.0
            },
            {
                "start_time": 44.54545454545455,
                "end_time": 45.31363636363636,
                "pitch": 78,
                "velocity": 40,
                "duration": 0.7681818181818159,
                "tempo": 120.0
            },
            {
                "start_time": 45.33863636363636,
                "end_time": 46.11363636363636,
                "pitch": 79,
                "velocity": 40,
                "duration": 0.7749999999999986,
                "tempo": 120.0
            },
            {
                "start_time": 46.13863636363636,
                "end_time": 46.90909090909091,
                "pitch": 82,
                "velocity": 40,
                "duration": 0.7704545454545482,
                "tempo": 120.0
            },
            {
                "start_time": 46.93181818181818,
                "end_time": 47.69772727272727,
                "pitch": 88,
                "velocity": 40,
                "duration": 0.7659090909090907,
                "tempo": 120.0
            },
            {
                "start_time": 47.72272727272727,
                "end_time": 48.48863636363636,
                "pitch": 87,
                "velocity": 40,
                "duration": 0.7659090909090907,
                "tempo": 120.0
            },
            {
                "start_time": 48.51363636363636,
                "end_time": 51.67272727272727,
                "pitch": 80,
                "velocity": 40,
                "duration": 3.1590909090909136,
                "tempo": 120.0
            },
            {
                "start_time": 51.69772727272727,
                "end_time": 52.07272727272727,
                "pitch": 68,
                "velocity": 40,
                "duration": 0.375,
                "tempo": 120.0
            },
            {
                "start_time": 52.09772727272727,
                "end_time": 52.47272727272727,
                "pitch": 75,
                "velocity": 40,
                "duration": 0.375,
                "tempo": 120.0
            },
            {
                "start_time": 52.49545454545454,
                "end_time": 54.53409090909091,
                "pitch": 73,
                "velocity": 40,
                "duration": 2.038636363636364,
                "tempo": 120.0
            },
            {
                "start_time": 54.53409090909091,
                "end_time": 54.559090909090905,
                "pitch": 52,
                "velocity": 40,
                "duration": 0.02499999999999858,
                "tempo": 120.0
            },
            {
                "start_time": 54.584090909090904,
                "end_time": 54.929545454545455,
                "pitch": 57,
                "velocity": 40,
                "duration": 0.345454545454551,
                "tempo": 120.0
            },
            {
                "start_time": 54.95454545454545,
                "end_time": 55.66136363636363,
                "pitch": 65,
                "velocity": 40,
                "duration": 0.7068181818181785,
                "tempo": 120.0
            },
            {
                "start_time": 55.684090909090905,
                "end_time": 56.47954545454545,
                "pitch": 70,
                "velocity": 40,
                "duration": 0.7954545454545467,
                "tempo": 120.0
            },
            {
                "start_time": 56.50454545454545,
                "end_time": 57.309090909090905,
                "pitch": 77,
                "velocity": 40,
                "duration": 0.8045454545454547,
                "tempo": 120.0
            },
            {
                "start_time": 57.334090909090904,
                "end_time": 58.070454545454545,
                "pitch": 82,
                "velocity": 40,
                "duration": 0.7363636363636417,
                "tempo": 120.0
            },
            {
                "start_time": 58.095454545454544,
                "end_time": 59.58863636363636,
                "pitch": 87,
                "velocity": 40,
                "duration": 1.4931818181818173,
                "tempo": 120.0
            },
            {
                "start_time": 59.61363636363636,
                "end_time": 61.98863636363636,
                "pitch": 87,
                "velocity": 40,
                "duration": 2.375,
                "tempo": 120.0
            },
            {
                "start_time": 62.01363636363636,
                "end_time": 63.19090909090909,
                "pitch": 73,
                "velocity": 40,
                "duration": 1.1772727272727295,
                "tempo": 120.0
            },
            {
                "start_time": 63.215909090909086,
                "end_time": 64.39090909090909,
                "pitch": 75,
                "velocity": 40,
                "duration": 1.1750000000000043,
                "tempo": 120.0
            },
            {
                "start_time": 64.41590909090908,
                "end_time": 65.27954545454546,
                "pitch": 76,
                "velocity": 40,
                "duration": 0.863636363636374,
                "tempo": 120.0
            },
            {
                "start_time": 65.30454545454545,
                "end_time": 66.76363636363637,
                "pitch": 78,
                "velocity": 40,
                "duration": 1.4590909090909179,
                "tempo": 120.0
            },
            {
                "start_time": 66.78863636363636,
                "end_time": 67.66363636363636,
                "pitch": 78,
                "velocity": 40,
                "duration": 0.875,
                "tempo": 120.0
            },
            {
                "start_time": 67.68863636363636,
                "end_time": 68.55454545454545,
                "pitch": 81,
                "velocity": 40,
                "duration": 0.865909090909085,
                "tempo": 120.0
            },
            {
                "start_time": 68.57954545454545,
                "end_time": 69.14545454545454,
                "pitch": 78,
                "velocity": 40,
                "duration": 0.5659090909090878,
                "tempo": 120.0
            },
            {
                "start_time": 69.17045454545455,
                "end_time": 70.02272727272727,
                "pitch": 74,
                "velocity": 40,
                "duration": 0.8522727272727195,
                "tempo": 120.0
            },
            {
                "start_time": 70.04772727272727,
                "end_time": 70.92045454545455,
                "pitch": 78,
                "velocity": 40,
                "duration": 0.8727272727272748,
                "tempo": 120.0
            },
            {
                "start_time": 70.94545454545454,
                "end_time": 71.81590909090909,
                "pitch": 78,
                "velocity": 40,
                "duration": 0.8704545454545496,
                "tempo": 120.0
            },
            {
                "start_time": 71.8409090909091,
                "end_time": 72.11136363636363,
                "pitch": 78,
                "velocity": 40,
                "duration": 0.27045454545454106,
                "tempo": 120.0
            },
            {
                "start_time": 72.13636363636363,
                "end_time": 73.90681818181818,
                "pitch": 78,
                "velocity": 40,
                "duration": 1.7704545454545553,
                "tempo": 120.0
            },
            {
                "start_time": 73.92954545454545,
                "end_time": 77.86363636363636,
                "pitch": 86,
                "velocity": 40,
                "duration": 3.934090909090912,
                "tempo": 120.0
            }
        ]
    }
}