{
    "track_id": "Golvellius - Valley of Doom (FM) - 06 - Fairy",
    "mood": "relaxed",
    "instruments": {
        "Vibraphone": [
            {
                "start_time": 0.013636363636363636,
                "end_time": 0.2477272727272727,
                "pitch": 52,
                "velocity": 80,
                "duration": 0.23409090909090907,
                "tempo": 120.0
            },
            {
                "start_time": 0.2477272727272727,
                "end_time": 0.4818181818181818,
                "pitch": 59,
                "velocity": 80,
                "duration": 0.2340909090909091,
                "tempo": 120.0
            },
            {
                "start_time": 0.4818181818181818,
                "end_time": 0.7113636363636363,
                "pitch": 64,
                "velocity": 80,
                "duration": 0.2295454545454545,
                "tempo": 120.0
            },
            {
                "start_time": 0.7113636363636363,
                "end_time": 1.175,
                "pitch": 68,
                "velocity": 80,
                "duration": 0.46363636363636374,
                "tempo": 120.0
            },
            {
                "start_time": 1.175,
                "end_time": 1.409090909090909,
                "pitch": 64,
                "velocity": 80,
                "duration": 0.2340909090909089,
                "tempo": 120.0
            },
            {
                "start_time": 1.409090909090909,
                "end_time": 1.6454545454545453,
                "pitch": 59,
                "velocity": 80,
                "duration": 0.23636363636363633,
                "tempo": 120.0
            },
            {
                "start_time": 1.6454545454545453,
                "end_time": 1.8795454545454544,
                "pitch": 64,
                "velocity": 80,
                "duration": 0.23409090909090913,
                "tempo": 120.0
            },
            {
                "start_time": 1.8795454545454544,
                "end_time": 2.1136363636363633,
                "pitch": 52,
                "velocity": 80,
                "duration": 0.2340909090909089,
                "tempo": 120.0
            },
            {
                "start_time": 2.1136363636363633,
                "end_time": 2.3477272727272727,
                "pitch": 59,
                "velocity": 80,
                "duration": 0.23409090909090935,
                "tempo": 120.0
            },
            {
                "start_time": 2.3477272727272727,
                "end_time": 2.577272727272727,
                "pitch": 64,
                "velocity": 80,
                "duration": 0.2295454545454545,
                "tempo": 120.0
            },
            {
                "start_time": 2.577272727272727,
                "end_time": 3.0409090909090906,
                "pitch": 68,
                "velocity": 80,
                "duration": 0.4636363636363634,
                "tempo": 120.0
            },
            {
                "start_time": 3.0409090909090906,
                "end_time": 3.275,
                "pitch": 64,
                "velocity": 80,
                "duration": 0.23409090909090935,
                "tempo": 120.0
            },
            {
                "start_time": 3.275,
                "end_time": 3.509090909090909,
                "pitch": 59,
                "velocity": 80,
                "duration": 0.2340909090909089,
                "tempo": 120.0
            },
            {
                "start_time": 3.509090909090909,
                "end_time": 3.743181818181818,
                "pitch": 64,
                "velocity": 80,
                "duration": 0.23409090909090935,
                "tempo": 120.0
            },
            {
                "start_time": 3.743181818181818,
                "end_time": 3.9727272727272727,
                "pitch": 49,
                "velocity": 80,
                "duration": 0.2295454545454545,
                "tempo": 120.0
            },
            {
                "start_time": 3.9727272727272727,
                "end_time": 4.202272727272727,
                "pitch": 61,
                "velocity": 80,
                "duration": 0.2295454545454545,
                "tempo": 120.0
            },
            {
                "start_time": 4.202272727272727,
                "end_time": 4.4363636363636365,
                "pitch": 64,
                "velocity": 80,
                "duration": 0.23409090909090935,
                "tempo": 120.0
            },
            {
                "start_time": 4.4363636363636365,
                "end_time": 4.8999999999999995,
                "pitch": 68,
                "velocity": 80,
                "duration": 0.46363636363636296,
                "tempo": 120.0
            },
            {
                "start_time": 4.8999999999999995,
                "end_time": 5.129545454545454,
                "pitch": 64,
                "velocity": 80,
                "duration": 0.2295454545454545,
                "tempo": 120.0
            },
            {
                "start_time": 5.129545454545454,
                "end_time": 5.363636363636363,
                "pitch": 59,
                "velocity": 80,
                "duration": 0.23409090909090935,
                "tempo": 120.0
            },
            {
                "start_time": 5.363636363636363,
                "end_time": 5.597727272727273,
                "pitch": 64,
                "velocity": 80,
                "duration": 0.23409090909090935,
                "tempo": 120.0
            },
            {
                "start_time": 5.597727272727273,
                "end_time": 5.831818181818181,
                "pitch": 47,
                "velocity": 80,
                "duration": 0.23409090909090846,
                "tempo": 120.0
            },
            {
                "start_time": 5.831818181818181,
                "end_time": 6.0681818181818175,
                "pitch": 59,
                "velocity": 80,
                "duration": 0.23636363636363633,
                "tempo": 120.0
            },
            {
                "start_time": 6.0681818181818175,
                "end_time": 6.295454545454545,
                "pitch": 64,
                "velocity": 80,
                "duration": 0.22727272727272751,
                "tempo": 120.0
            },
            {
                "start_time": 6.295454545454545,
                "end_time": 6.727272727272727,
                "pitch": 68,
                "velocity": 80,
                "duration": 0.43181818181818166,
                "tempo": 120.0
            },
            {
                "start_time": 6.727272727272727,
                "end_time": 6.945454545454545,
                "pitch": 64,
                "velocity": 80,
                "duration": 0.2181818181818187,
                "tempo": 120.0
            },
            {
                "start_time": 6.945454545454545,
                "end_time": 7.186363636363636,
                "pitch": 59,
                "velocity": 80,
                "duration": 0.2409090909090903,
                "tempo": 120.0
            },
            {
                "start_time": 7.186363636363636,
                "end_time": 7.427272727272727,
                "pitch": 64,
                "velocity": 80,
                "duration": 0.24090909090909118,
                "tempo": 120.0
            },
            {
                "start_time": 7.427272727272727,
                "end_time": 7.661363636363636,
                "pitch": 45,
                "velocity": 80,
                "duration": 0.23409090909090935,
                "tempo": 120.0
            },
            {
                "start_time": 7.661363636363636,
                "end_time": 7.8954545454545455,
                "pitch": 45,
                "velocity": 80,
                "duration": 0.23409090909090935,
                "tempo": 120.0
            },
            {
                "start_time": 7.8954545454545455,
                "end_time": 8.129545454545454,
                "pitch": 45,
                "velocity": 80,
                "duration": 0.23409090909090846,
                "tempo": 120.0
            },
            {
                "start_time": 8.129545454545454,
                "end_time": 8.363636363636363,
                "pitch": 45,
                "velocity": 80,
                "duration": 0.23409090909090935,
                "tempo": 120.0
            },
            {
                "start_time": 8.363636363636363,
                "end_time": 8.588636363636363,
                "pitch": 45,
                "velocity": 80,
                "duration": 0.22499999999999964,
                "tempo": 120.0
            },
            {
                "start_time": 8.588636363636363,
                "end_time": 8.811363636363636,
                "pitch": 45,
                "velocity": 80,
                "duration": 0.22272727272727266,
                "tempo": 120.0
            },
            {
                "start_time": 8.811363636363636,
                "end_time": 9.049999999999999,
                "pitch": 45,
                "velocity": 80,
                "duration": 0.2386363636363633,
                "tempo": 120.0
            },
            {
                "start_time": 9.049999999999999,
                "end_time": 9.286363636363635,
                "pitch": 45,
                "velocity": 80,
                "duration": 0.23636363636363633,
                "tempo": 120.0
            },
            {
                "start_time": 9.286363636363635,
                "end_time": 9.506818181818181,
                "pitch": 45,
                "velocity": 80,
                "duration": 0.22045454545454568,
                "tempo": 120.0
            },
            {
                "start_time": 9.506818181818181,
                "end_time": 9.725,
                "pitch": 45,
                "velocity": 80,
                "duration": 0.2181818181818187,
                "tempo": 120.0
            },
            {
                "start_time": 9.725,
                "end_time": 9.968181818181817,
                "pitch": 45,
                "velocity": 80,
                "duration": 0.24318181818181728,
                "tempo": 120.0
            },
            {
                "start_time": 9.968181818181817,
                "end_time": 10.211363636363636,
                "pitch": 45,
                "velocity": 80,
                "duration": 0.24318181818181905,
                "tempo": 120.0
            },
            {
                "start_time": 10.211363636363636,
                "end_time": 10.436363636363636,
                "pitch": 45,
                "velocity": 80,
                "duration": 0.22499999999999964,
                "tempo": 120.0
            },
            {
                "start_time": 10.436363636363636,
                "end_time": 10.659090909090908,
                "pitch": 45,
                "velocity": 80,
                "duration": 0.22272727272727266,
                "tempo": 120.0
            },
            {
                "start_time": 10.659090909090908,
                "end_time": 10.9,
                "pitch": 45,
                "velocity": 80,
                "duration": 0.24090909090909207,
                "tempo": 120.0
            },
            {
                "start_time": 10.9,
                "end_time": 11.14090909090909,
                "pitch": 45,
                "velocity": 80,
                "duration": 0.2409090909090903,
                "tempo": 120.0
            },
            {
                "start_time": 11.14090909090909,
                "end_time": 11.375,
                "pitch": 47,
                "velocity": 80,
                "duration": 0.23409090909090935,
                "tempo": 120.0
            },
            {
                "start_time": 11.375,
                "end_time": 11.60909090909091,
                "pitch": 47,
                "velocity": 80,
                "duration": 0.23409090909090935,
                "tempo": 120.0
            },
            {
                "start_time": 11.60909090909091,
                "end_time": 11.843181818181817,
                "pitch": 47,
                "velocity": 80,
                "duration": 0.23409090909090757,
                "tempo": 120.0
            },
            {
                "start_time": 11.843181818181817,
                "end_time": 12.077272727272726,
                "pitch": 47,
                "velocity": 80,
                "duration": 0.23409090909090935,
                "tempo": 120.0
            },
            {
                "start_time": 12.077272727272726,
                "end_time": 12.306818181818182,
                "pitch": 47,
                "velocity": 80,
                "duration": 0.22954545454545539,
                "tempo": 120.0
            },
            {
                "start_time": 12.306818181818182,
                "end_time": 12.536363636363635,
                "pitch": 47,
                "velocity": 80,
                "duration": 0.2295454545454536,
                "tempo": 120.0
            },
            {
                "start_time": 12.536363636363635,
                "end_time": 12.754545454545454,
                "pitch": 47,
                "velocity": 80,
                "duration": 0.2181818181818187,
                "tempo": 120.0
            },
            {
                "start_time": 12.754545454545454,
                "end_time": 12.988636363636363,
                "pitch": 47,
                "velocity": 80,
                "duration": 0.23409090909090935,
                "tempo": 120.0
            },
            {
                "start_time": 12.988636363636363,
                "end_time": 13.211363636363636,
                "pitch": 47,
                "velocity": 80,
                "duration": 0.22272727272727266,
                "tempo": 120.0
            },
            {
                "start_time": 13.211363636363636,
                "end_time": 13.436363636363636,
                "pitch": 47,
                "velocity": 80,
                "duration": 0.22499999999999964,
                "tempo": 120.0
            },
            {
                "start_time": 13.436363636363636,
                "end_time": 13.670454545454545,
                "pitch": 47,
                "velocity": 80,
                "duration": 0.23409090909090935,
                "tempo": 120.0
            },
            {
                "start_time": 13.670454545454545,
                "end_time": 13.904545454545454,
                "pitch": 49,
                "velocity": 80,
                "duration": 0.23409090909090935,
                "tempo": 120.0
            },
            {
                "start_time": 13.904545454545454,
                "end_time": 14.138636363636364,
                "pitch": 51,
                "velocity": 80,
                "duration": 0.23409090909090935,
                "tempo": 120.0
            },
            {
                "start_time": 14.138636363636364,
                "end_time": 14.375,
                "pitch": 51,
                "velocity": 80,
                "duration": 0.23636363636363633,
                "tempo": 120.0
            },
            {
                "start_time": 14.375,
                "end_time": 14.602272727272727,
                "pitch": 51,
                "velocity": 80,
                "duration": 0.22727272727272663,
                "tempo": 120.0
            },
            {
                "start_time": 14.602272727272727,
                "end_time": 14.83181818181818,
                "pitch": 52,
                "velocity": 80,
                "duration": 0.2295454545454536,
                "tempo": 120.0
            },
            {
                "start_time": 14.83181818181818,
                "end_time": 14.847727272727273,
                "pitch": 52,
                "velocity": 80,
                "duration": 0.015909090909092427,
                "tempo": 120.0
            }
        ]
    }
}