{
    "track_id": "Golvellius - Valley of Doom (FM) - 12 - Winkle",
    "mood": "relaxed",
    "instruments": {
        "Vibraphone": [
            {
                "start_time": 0.031818181818181815,
                "end_time": 0.8863636363636364,
                "pitch": 72,
                "velocity": 32,
                "duration": 0.8545454545454545,
                "tempo": 120.0
            },
            {
                "start_time": 0.8863636363636364,
                "end_time": 1.7659090909090909,
                "pitch": 84,
                "velocity": 32,
                "duration": 0.8795454545454545,
                "tempo": 120.0
            },
            {
                "start_time": 1.7659090909090909,
                "end_time": 2.618181818181818,
                "pitch": 81,
                "velocity": 32,
                "duration": 0.8522727272727273,
                "tempo": 120.0
            },
            {
                "start_time": 2.618181818181818,
                "end_time": 3.4795454545454545,
                "pitch": 81,
                "velocity": 32,
                "duration": 0.8613636363636363,
                "tempo": 120.0
            },
            {
                "start_time": 3.4795454545454545,
                "end_time": 4.3590909090909085,
                "pitch": 79,
                "velocity": 32,
                "duration": 0.879545454545454,
                "tempo": 120.0
            },
            {
                "start_time": 4.3590909090909085,
                "end_time": 5.202272727272727,
                "pitch": 82,
                "velocity": 32,
                "duration": 0.8431818181818187,
                "tempo": 120.0
            },
            {
                "start_time": 5.202272727272727,
                "end_time": 6.081818181818181,
                "pitch": 82,
                "velocity": 32,
                "duration": 0.879545454545454,
                "tempo": 120.0
            },
            {
                "start_time": 6.081818181818181,
                "end_time": 6.931818181818182,
                "pitch": 77,
                "velocity": 32,
                "duration": 0.8500000000000005,
                "tempo": 120.0
            },
            {
                "start_time": 6.931818181818182,
                "end_time": 7.795454545454545,
                "pitch": 72,
                "velocity": 32,
                "duration": 0.8636363636363633,
                "tempo": 120.0
            },
            {
                "start_time": 7.795454545454545,
                "end_time": 8.674999999999999,
                "pitch": 84,
                "velocity": 32,
                "duration": 0.879545454545454,
                "tempo": 120.0
            },
            {
                "start_time": 8.674999999999999,
                "end_time": 9.527272727272727,
                "pitch": 81,
                "velocity": 32,
                "duration": 0.8522727272727284,
                "tempo": 120.0
            },
            {
                "start_time": 9.527272727272727,
                "end_time": 10.397727272727272,
                "pitch": 81,
                "velocity": 32,
                "duration": 0.8704545454545443,
                "tempo": 120.0
            },
            {
                "start_time": 10.397727272727272,
                "end_time": 11.268181818181818,
                "pitch": 79,
                "velocity": 32,
                "duration": 0.870454545454546,
                "tempo": 120.0
            },
            {
                "start_time": 11.268181818181818,
                "end_time": 12.120454545454544,
                "pitch": 88,
                "velocity": 32,
                "duration": 0.8522727272727266,
                "tempo": 120.0
            }
        ],
        "Acoustic Guitar (nylon)": [
            {
                "start_time": 0.015909090909090907,
                "end_time": 0.44999999999999996,
                "pitch": 77,
                "velocity": 51,
                "duration": 0.434090909090909,
                "tempo": 120.0
            },
            {
                "start_time": 0.44999999999999996,
                "end_time": 0.8863636363636364,
                "pitch": 84,
                "velocity": 51,
                "duration": 0.4363636363636364,
                "tempo": 120.0
            },
            {
                "start_time": 0.8863636363636364,
                "end_time": 1.3295454545454546,
                "pitch": 81,
                "velocity": 51,
                "duration": 0.44318181818181823,
                "tempo": 120.0
            },
            {
                "start_time": 1.3295454545454546,
                "end_time": 1.7659090909090909,
                "pitch": 93,
                "velocity": 51,
                "duration": 0.4363636363636363,
                "tempo": 120.0
            },
            {
                "start_time": 1.7659090909090909,
                "end_time": 2.1999999999999997,
                "pitch": 93,
                "velocity": 51,
                "duration": 0.43409090909090886,
                "tempo": 120.0
            },
            {
                "start_time": 2.1999999999999997,
                "end_time": 2.618181818181818,
                "pitch": 89,
                "velocity": 51,
                "duration": 0.41818181818181843,
                "tempo": 120.0
            },
            {
                "start_time": 2.618181818181818,
                "end_time": 3.0454545454545454,
                "pitch": 89,
                "velocity": 51,
                "duration": 0.42727272727272725,
                "tempo": 120.0
            },
            {
                "start_time": 3.0454545454545454,
                "end_time": 3.4795454545454545,
                "pitch": 91,
                "velocity": 51,
                "duration": 0.4340909090909091,
                "tempo": 120.0
            },
            {
                "start_time": 3.4795454545454545,
                "end_time": 3.925,
                "pitch": 89,
                "velocity": 51,
                "duration": 0.4454545454545453,
                "tempo": 120.0
            },
            {
                "start_time": 3.925,
                "end_time": 4.3590909090909085,
                "pitch": 89,
                "velocity": 51,
                "duration": 0.43409090909090864,
                "tempo": 120.0
            },
            {
                "start_time": 4.3590909090909085,
                "end_time": 4.777272727272727,
                "pitch": 86,
                "velocity": 51,
                "duration": 0.4181818181818189,
                "tempo": 120.0
            },
            {
                "start_time": 4.777272727272727,
                "end_time": 5.202272727272727,
                "pitch": 89,
                "velocity": 51,
                "duration": 0.4249999999999998,
                "tempo": 120.0
            },
            {
                "start_time": 5.202272727272727,
                "end_time": 5.6477272727272725,
                "pitch": 89,
                "velocity": 51,
                "duration": 0.4454545454545453,
                "tempo": 120.0
            },
            {
                "start_time": 5.6477272727272725,
                "end_time": 6.081818181818181,
                "pitch": 86,
                "velocity": 51,
                "duration": 0.43409090909090864,
                "tempo": 120.0
            },
            {
                "start_time": 6.081818181818181,
                "end_time": 6.931818181818182,
                "pitch": 86,
                "velocity": 51,
                "duration": 0.8500000000000005,
                "tempo": 120.0
            },
            {
                "start_time": 6.931818181818182,
                "end_time": 7.368181818181818,
                "pitch": 77,
                "velocity": 51,
                "duration": 0.4363636363636365,
                "tempo": 120.0
            },
            {
                "start_time": 7.368181818181818,
                "end_time": 7.795454545454545,
                "pitch": 84,
                "velocity": 51,
                "duration": 0.4272727272727268,
                "tempo": 120.0
            },
            {
                "start_time": 7.795454545454545,
                "end_time": 8.238636363636363,
                "pitch": 81,
                "velocity": 51,
                "duration": 0.44318181818181834,
                "tempo": 120.0
            },
            {
                "start_time": 8.238636363636363,
                "end_time": 8.674999999999999,
                "pitch": 93,
                "velocity": 51,
                "duration": 0.4363636363636356,
                "tempo": 120.0
            },
            {
                "start_time": 8.674999999999999,
                "end_time": 9.10909090909091,
                "pitch": 93,
                "velocity": 51,
                "duration": 0.4340909090909104,
                "tempo": 120.0
            },
            {
                "start_time": 9.10909090909091,
                "end_time": 9.527272727272727,
                "pitch": 89,
                "velocity": 51,
                "duration": 0.418181818181818,
                "tempo": 120.0
            },
            {
                "start_time": 9.527272727272727,
                "end_time": 9.963636363636363,
                "pitch": 89,
                "velocity": 51,
                "duration": 0.4363636363636356,
                "tempo": 120.0
            },
            {
                "start_time": 9.963636363636363,
                "end_time": 10.397727272727272,
                "pitch": 91,
                "velocity": 51,
                "duration": 0.43409090909090864,
                "tempo": 120.0
            },
            {
                "start_time": 10.397727272727272,
                "end_time": 10.831818181818182,
                "pitch": 94,
                "velocity": 51,
                "duration": 0.4340909090909104,
                "tempo": 120.0
            },
            {
                "start_time": 10.831818181818182,
                "end_time": 11.268181818181818,
                "pitch": 94,
                "velocity": 51,
                "duration": 0.4363636363636356,
                "tempo": 120.0
            },
            {
                "start_time": 11.268181818181818,
                "end_time": 11.702272727272726,
                "pitch": 93,
                "velocity": 51,
                "duration": 0.43409090909090864,
                "tempo": 120.0
            },
            {
                "start_time": 11.702272727272726,
                "end_time": 12.120454545454544,
                "pitch": 96,
                "velocity": 51,
                "duration": 0.418181818181818,
                "tempo": 120.0
            },
            {
                "start_time": 12.120454545454544,
                "end_time": 13.84090909090909,
                "pitch": 93,
                "velocity": 51,
                "duration": 1.7204545454545457,
                "tempo": 120.0
            }
        ]
    }
}