{
    "track_id": "Golvellius - Valley of Doom (FM) - 21 - Overworld 4",
    "mood": "relaxed",
    "instruments": {
        "Clarinet": [
            {
                "start_time": 0.35,
                "end_time": 0.5659090909090909,
                "pitch": 67,
                "velocity": 40,
                "duration": 0.21590909090909094,
                "tempo": 120.0
            },
            {
                "start_time": 0.5840909090909091,
                "end_time": 0.7840909090909091,
                "pitch": 67,
                "velocity": 40,
                "duration": 0.19999999999999996,
                "tempo": 120.0
            },
            {
                "start_time": 0.7840909090909091,
                "end_time": 1.0204545454545455,
                "pitch": 69,
                "velocity": 40,
                "duration": 0.23636363636363644,
                "tempo": 120.0
            },
            {
                "start_time": 1.0204545454545455,
                "end_time": 1.2272727272727273,
                "pitch": 71,
                "velocity": 40,
                "duration": 0.2068181818181818,
                "tempo": 120.0
            },
            {
                "start_time": 1.2272727272727273,
                "end_time": 2.1045454545454545,
                "pitch": 72,
                "velocity": 40,
                "duration": 0.8772727272727272,
                "tempo": 120.0
            },
            {
                "start_time": 2.1045454545454545,
                "end_time": 2.734090909090909,
                "pitch": 74,
                "velocity": 40,
                "duration": 0.6295454545454544,
                "tempo": 120.0
            },
            {
                "start_time": 2.734090909090909,
                "end_time": 2.9681818181818183,
                "pitch": 76,
                "velocity": 40,
                "duration": 0.23409090909090935,
                "tempo": 120.0
            },
            {
                "start_time": 2.9681818181818183,
                "end_time": 3.811363636363636,
                "pitch": 72,
                "velocity": 40,
                "duration": 0.8431818181818178,
                "tempo": 120.0
            },
            {
                "start_time": 3.829545454545454,
                "end_time": 4.468181818181818,
                "pitch": 72,
                "velocity": 40,
                "duration": 0.6386363636363637,
                "tempo": 120.0
            },
            {
                "start_time": 4.468181818181818,
                "end_time": 4.584090909090909,
                "pitch": 72,
                "velocity": 40,
                "duration": 0.11590909090909118,
                "tempo": 120.0
            },
            {
                "start_time": 4.584090909090909,
                "end_time": 4.6863636363636365,
                "pitch": 71,
                "velocity": 40,
                "duration": 0.10227272727272751,
                "tempo": 120.0
            },
            {
                "start_time": 4.6863636363636365,
                "end_time": 5.113636363636363,
                "pitch": 69,
                "velocity": 40,
                "duration": 0.4272727272727268,
                "tempo": 120.0
            },
            {
                "start_time": 5.113636363636363,
                "end_time": 5.547727272727273,
                "pitch": 71,
                "velocity": 40,
                "duration": 0.4340909090909095,
                "tempo": 120.0
            },
            {
                "start_time": 5.547727272727273,
                "end_time": 6.184090909090909,
                "pitch": 71,
                "velocity": 40,
                "duration": 0.6363636363636358,
                "tempo": 120.0
            },
            {
                "start_time": 6.184090909090909,
                "end_time": 6.422727272727273,
                "pitch": 71,
                "velocity": 40,
                "duration": 0.2386363636363642,
                "tempo": 120.0
            },
            {
                "start_time": 6.422727272727273,
                "end_time": 7.3,
                "pitch": 69,
                "velocity": 40,
                "duration": 0.877272727272727,
                "tempo": 120.0
            },
            {
                "start_time": 7.3,
                "end_time": 7.502272727272727,
                "pitch": 69,
                "velocity": 40,
                "duration": 0.20227272727272716,
                "tempo": 120.0
            },
            {
                "start_time": 7.502272727272727,
                "end_time": 7.709090909090909,
                "pitch": 67,
                "velocity": 40,
                "duration": 0.206818181818182,
                "tempo": 120.0
            },
            {
                "start_time": 7.725,
                "end_time": 7.920454545454545,
                "pitch": 69,
                "velocity": 40,
                "duration": 0.19545454545454533,
                "tempo": 120.0
            },
            {
                "start_time": 7.920454545454545,
                "end_time": 8.154545454545454,
                "pitch": 71,
                "velocity": 40,
                "duration": 0.23409090909090935,
                "tempo": 120.0
            },
            {
                "start_time": 8.154545454545454,
                "end_time": 9.0,
                "pitch": 72,
                "velocity": 40,
                "duration": 0.8454545454545457,
                "tempo": 120.0
            },
            {
                "start_time": 9.0,
                "end_time": 9.668181818181818,
                "pitch": 74,
                "velocity": 40,
                "duration": 0.668181818181818,
                "tempo": 120.0
            },
            {
                "start_time": 9.668181818181818,
                "end_time": 9.863636363636363,
                "pitch": 76,
                "velocity": 40,
                "duration": 0.19545454545454533,
                "tempo": 120.0
            },
            {
                "start_time": 9.863636363636363,
                "end_time": 10.738636363636363,
                "pitch": 72,
                "velocity": 40,
                "duration": 0.875,
                "tempo": 120.0
            },
            {
                "start_time": 10.738636363636363,
                "end_time": 11.370454545454544,
                "pitch": 79,
                "velocity": 40,
                "duration": 0.631818181818181,
                "tempo": 120.0
            },
            {
                "start_time": 11.370454545454544,
                "end_time": 11.511363636363637,
                "pitch": 77,
                "velocity": 40,
                "duration": 0.14090909090909243,
                "tempo": 120.0
            },
            {
                "start_time": 11.511363636363637,
                "end_time": 11.61590909090909,
                "pitch": 77,
                "velocity": 40,
                "duration": 0.10454545454545361,
                "tempo": 120.0
            },
            {
                "start_time": 11.61590909090909,
                "end_time": 12.056818181818182,
                "pitch": 74,
                "velocity": 40,
                "duration": 0.44090909090909136,
                "tempo": 120.0
            },
            {
                "start_time": 12.056818181818182,
                "end_time": 12.48409090909091,
                "pitch": 74,
                "velocity": 40,
                "duration": 0.4272727272727277,
                "tempo": 120.0
            },
            {
                "start_time": 12.48409090909091,
                "end_time": 13.325,
                "pitch": 72,
                "velocity": 40,
                "duration": 0.8409090909090899,
                "tempo": 120.0
            },
            {
                "start_time": 13.325,
                "end_time": 14.195454545454545,
                "pitch": 72,
                "velocity": 40,
                "duration": 0.870454545454546,
                "tempo": 120.0
            },
            {
                "start_time": 14.213636363636363,
                "end_time": 15.061363636363636,
                "pitch": 79,
                "velocity": 40,
                "duration": 0.8477272727272727,
                "tempo": 120.0
            },
            {
                "start_time": 15.061363636363636,
                "end_time": 15.493181818181817,
                "pitch": 74,
                "velocity": 40,
                "duration": 0.43181818181818166,
                "tempo": 120.0
            },
            {
                "start_time": 15.493181818181817,
                "end_time": 15.934090909090909,
                "pitch": 79,
                "velocity": 40,
                "duration": 0.44090909090909136,
                "tempo": 120.0
            },
            {
                "start_time": 15.934090909090909,
                "end_time": 16.797727272727272,
                "pitch": 79,
                "velocity": 40,
                "duration": 0.8636363636363633,
                "tempo": 120.0
            },
            {
                "start_time": 16.797727272727272,
                "end_time": 17.64090909090909,
                "pitch": 77,
                "velocity": 40,
                "duration": 0.8431818181818187,
                "tempo": 120.0
            },
            {
                "start_time": 17.64090909090909,
                "end_time": 18.077272727272728,
                "pitch": 84,
                "velocity": 40,
                "duration": 0.4363636363636374,
                "tempo": 120.0
            },
            {
                "start_time": 18.077272727272728,
                "end_time": 18.513636363636362,
                "pitch": 84,
                "velocity": 40,
                "duration": 0.43636363636363384,
                "tempo": 120.0
            },
            {
                "start_time": 18.513636363636362,
                "end_time": 18.94772727272727,
                "pitch": 83,
                "velocity": 40,
                "duration": 0.43409090909090864,
                "tempo": 120.0
            },
            {
                "start_time": 18.94772727272727,
                "end_time": 19.377272727272725,
                "pitch": 81,
                "velocity": 40,
                "duration": 0.4295454545454547,
                "tempo": 120.0
            },
            {
                "start_time": 19.393181818181816,
                "end_time": 20.25,
                "pitch": 83,
                "velocity": 40,
                "duration": 0.8568181818181841,
                "tempo": 120.0
            },
            {
                "start_time": 20.25,
                "end_time": 21.12272727272727,
                "pitch": 83,
                "velocity": 40,
                "duration": 0.8727272727272712,
                "tempo": 120.0
            },
            {
                "start_time": 21.12272727272727,
                "end_time": 21.979545454545452,
                "pitch": 81,
                "velocity": 40,
                "duration": 0.8568181818181806,
                "tempo": 120.0
            },
            {
                "start_time": 21.979545454545452,
                "end_time": 22.39090909090909,
                "pitch": 74,
                "velocity": 40,
                "duration": 0.4113636363636388,
                "tempo": 120.0
            },
            {
                "start_time": 22.39090909090909,
                "end_time": 22.829545454545453,
                "pitch": 79,
                "velocity": 40,
                "duration": 0.4386363636363626,
                "tempo": 120.0
            },
            {
                "start_time": 22.829545454545453,
                "end_time": 23.704545454545453,
                "pitch": 79,
                "velocity": 40,
                "duration": 0.875,
                "tempo": 120.0
            },
            {
                "start_time": 23.704545454545453,
                "end_time": 24.563636363636363,
                "pitch": 77,
                "velocity": 40,
                "duration": 0.8590909090909093,
                "tempo": 120.0
            },
            {
                "start_time": 24.563636363636363,
                "end_time": 24.995454545454542,
                "pitch": 84,
                "velocity": 40,
                "duration": 0.4318181818181799,
                "tempo": 120.0
            },
            {
                "start_time": 24.995454545454542,
                "end_time": 25.43409090909091,
                "pitch": 84,
                "velocity": 40,
                "duration": 0.43863636363636616,
                "tempo": 120.0
            },
            {
                "start_time": 25.43409090909091,
                "end_time": 25.879545454545454,
                "pitch": 83,
                "velocity": 40,
                "duration": 0.4454545454545453,
                "tempo": 120.0
            },
            {
                "start_time": 25.879545454545454,
                "end_time": 26.299999999999997,
                "pitch": 81,
                "velocity": 40,
                "duration": 0.4204545454545432,
                "tempo": 120.0
            },
            {
                "start_time": 26.299999999999997,
                "end_time": 27.711363636363636,
                "pitch": 79,
                "velocity": 40,
                "duration": 1.4113636363636388,
                "tempo": 120.0
            }
        ],
        "Acoustic Bass": [
            {
                "start_time": 0.031818181818181815,
                "end_time": 0.1318181818181818,
                "pitch": 43,
                "velocity": 101,
                "duration": 0.09999999999999999,
                "tempo": 120.0
            },
            {
                "start_time": 0.1318181818181818,
                "end_time": 0.2318181818181818,
                "pitch": 43,
                "velocity": 101,
                "duration": 0.1,
                "tempo": 120.0
            },
            {
                "start_time": 0.2318181818181818,
                "end_time": 0.35,
                "pitch": 55,
                "velocity": 101,
                "duration": 0.11818181818181817,
                "tempo": 120.0
            },
            {
                "start_time": 0.35,
                "end_time": 0.44999999999999996,
                "pitch": 43,
                "velocity": 101,
                "duration": 0.09999999999999998,
                "tempo": 120.0
            },
            {
                "start_time": 0.44999999999999996,
                "end_time": 0.5659090909090909,
                "pitch": 43,
                "velocity": 101,
                "duration": 0.11590909090909096,
                "tempo": 120.0
            },
            {
                "start_time": 0.5659090909090909,
                "end_time": 0.6681818181818181,
                "pitch": 43,
                "velocity": 101,
                "duration": 0.10227272727272718,
                "tempo": 120.0
            },
            {
                "start_time": 0.6681818181818181,
                "end_time": 0.7840909090909091,
                "pitch": 55,
                "velocity": 101,
                "duration": 0.11590909090909096,
                "tempo": 120.0
            },
            {
                "start_time": 0.7840909090909091,
                "end_time": 0.9022727272727272,
                "pitch": 43,
                "velocity": 101,
                "duration": 0.11818181818181817,
                "tempo": 120.0
            },
            {
                "start_time": 0.9022727272727272,
                "end_time": 1.0045454545454544,
                "pitch": 43,
                "velocity": 101,
                "duration": 0.10227272727272718,
                "tempo": 120.0
            },
            {
                "start_time": 1.0045454545454544,
                "end_time": 1.1068181818181817,
                "pitch": 43,
                "velocity": 101,
                "duration": 0.10227272727272729,
                "tempo": 120.0
            },
            {
                "start_time": 1.1068181818181817,
                "end_time": 1.209090909090909,
                "pitch": 55,
                "velocity": 101,
                "duration": 0.10227272727272729,
                "tempo": 120.0
            },
            {
                "start_time": 1.209090909090909,
                "end_time": 1.3295454545454546,
                "pitch": 43,
                "velocity": 101,
                "duration": 0.12045454545454559,
                "tempo": 120.0
            },
            {
                "start_time": 1.3454545454545455,
                "end_time": 1.4272727272727272,
                "pitch": 43,
                "velocity": 101,
                "duration": 0.08181818181818179,
                "tempo": 120.0
            },
            {
                "start_time": 1.4272727272727272,
                "end_time": 1.5409090909090908,
                "pitch": 43,
                "velocity": 101,
                "duration": 0.11363636363636354,
                "tempo": 120.0
            },
            {
                "start_time": 1.5409090909090908,
                "end_time": 1.6409090909090909,
                "pitch": 55,
                "velocity": 101,
                "duration": 0.10000000000000009,
                "tempo": 120.0
            },
            {
                "start_time": 1.6409090909090909,
                "end_time": 1.7704545454545453,
                "pitch": 43,
                "velocity": 101,
                "duration": 0.1295454545454544,
                "tempo": 120.0
            },
            {
                "start_time": 1.7704545454545453,
                "end_time": 1.859090909090909,
                "pitch": 41,
                "velocity": 101,
                "duration": 0.08863636363636362,
                "tempo": 120.0
            },
            {
                "start_time": 1.859090909090909,
                "end_time": 1.9818181818181817,
                "pitch": 41,
                "velocity": 101,
                "duration": 0.1227272727272728,
                "tempo": 120.0
            },
            {
                "start_time": 1.9818181818181817,
                "end_time": 2.0863636363636364,
                "pitch": 53,
                "velocity": 101,
                "duration": 0.10454545454545472,
                "tempo": 120.0
            },
            {
                "start_time": 2.0863636363636364,
                "end_time": 2.209090909090909,
                "pitch": 41,
                "velocity": 101,
                "duration": 0.12272727272727257,
                "tempo": 120.0
            },
            {
                "start_time": 2.209090909090909,
                "end_time": 2.3068181818181817,
                "pitch": 41,
                "velocity": 101,
                "duration": 0.09772727272727266,
                "tempo": 120.0
            },
            {
                "start_time": 2.3068181818181817,
                "end_time": 2.4227272727272724,
                "pitch": 41,
                "velocity": 101,
                "duration": 0.11590909090909074,
                "tempo": 120.0
            },
            {
                "start_time": 2.4227272727272724,
                "end_time": 2.5204545454545455,
                "pitch": 53,
                "velocity": 101,
                "duration": 0.0977272727272731,
                "tempo": 120.0
            },
            {
                "start_time": 2.5204545454545455,
                "end_time": 2.634090909090909,
                "pitch": 41,
                "velocity": 101,
                "duration": 0.11363636363636331,
                "tempo": 120.0
            },
            {
                "start_time": 2.634090909090909,
                "end_time": 2.734090909090909,
                "pitch": 41,
                "velocity": 101,
                "duration": 0.10000000000000009,
                "tempo": 120.0
            },
            {
                "start_time": 2.734090909090909,
                "end_time": 2.8363636363636364,
                "pitch": 41,
                "velocity": 101,
                "duration": 0.10227272727272751,
                "tempo": 120.0
            },
            {
                "start_time": 2.8363636363636364,
                "end_time": 2.952272727272727,
                "pitch": 53,
                "velocity": 101,
                "duration": 0.11590909090909074,
                "tempo": 120.0
            },
            {
                "start_time": 2.952272727272727,
                "end_time": 3.0522727272727272,
                "pitch": 41,
                "velocity": 101,
                "duration": 0.10000000000000009,
                "tempo": 120.0
            },
            {
                "start_time": 3.0522727272727272,
                "end_time": 3.1704545454545454,
                "pitch": 41,
                "velocity": 101,
                "duration": 0.11818181818181817,
                "tempo": 120.0
            },
            {
                "start_time": 3.1704545454545454,
                "end_time": 3.2704545454545455,
                "pitch": 41,
                "velocity": 101,
                "duration": 0.10000000000000009,
                "tempo": 120.0
            },
            {
                "start_time": 3.2704545454545455,
                "end_time": 3.3886363636363637,
                "pitch": 53,
                "velocity": 101,
                "duration": 0.11818181818181817,
                "tempo": 120.0
            },
            {
                "start_time": 3.3886363636363637,
                "end_time": 3.5045454545454544,
                "pitch": 41,
                "velocity": 101,
                "duration": 0.11590909090909074,
                "tempo": 120.0
            },
            {
                "start_time": 3.5045454545454544,
                "end_time": 3.590909090909091,
                "pitch": 41,
                "velocity": 101,
                "duration": 0.08636363636363642,
                "tempo": 120.0
            },
            {
                "start_time": 3.590909090909091,
                "end_time": 3.709090909090909,
                "pitch": 40,
                "velocity": 101,
                "duration": 0.11818181818181817,
                "tempo": 120.0
            },
            {
                "start_time": 3.709090909090909,
                "end_time": 3.811363636363636,
                "pitch": 52,
                "velocity": 101,
                "duration": 0.10227272727272707,
                "tempo": 120.0
            },
            {
                "start_time": 3.811363636363636,
                "end_time": 3.9318181818181817,
                "pitch": 40,
                "velocity": 101,
                "duration": 0.12045454545454559,
                "tempo": 120.0
            },
            {
                "start_time": 3.9318181818181817,
                "end_time": 4.034090909090909,
                "pitch": 40,
                "velocity": 101,
                "duration": 0.10227272727272751,
                "tempo": 120.0
            },
            {
                "start_time": 4.034090909090909,
                "end_time": 4.1499999999999995,
                "pitch": 40,
                "velocity": 101,
                "duration": 0.1159090909090903,
                "tempo": 120.0
            },
            {
                "start_time": 4.1499999999999995,
                "end_time": 4.25,
                "pitch": 52,
                "velocity": 101,
                "duration": 0.10000000000000053,
                "tempo": 120.0
            },
            {
                "start_time": 4.25,
                "end_time": 4.384090909090909,
                "pitch": 40,
                "velocity": 101,
                "duration": 0.13409090909090882,
                "tempo": 120.0
            },
            {
                "start_time": 4.384090909090909,
                "end_time": 4.468181818181818,
                "pitch": 40,
                "velocity": 101,
                "duration": 0.084090909090909,
                "tempo": 120.0
            },
            {
                "start_time": 4.468181818181818,
                "end_time": 4.584090909090909,
                "pitch": 40,
                "velocity": 101,
                "duration": 0.11590909090909118,
                "tempo": 120.0
            },
            {
                "start_time": 4.584090909090909,
                "end_time": 4.6863636363636365,
                "pitch": 52,
                "velocity": 101,
                "duration": 0.10227272727272751,
                "tempo": 120.0
            },
            {
                "start_time": 4.6863636363636365,
                "end_time": 4.802272727272727,
                "pitch": 40,
                "velocity": 101,
                "duration": 0.1159090909090903,
                "tempo": 120.0
            },
            {
                "start_time": 4.802272727272727,
                "end_time": 4.8999999999999995,
                "pitch": 40,
                "velocity": 101,
                "duration": 0.09772727272727266,
                "tempo": 120.0
            },
            {
                "start_time": 4.8999999999999995,
                "end_time": 5.0,
                "pitch": 40,
                "velocity": 101,
                "duration": 0.10000000000000053,
                "tempo": 120.0
            },
            {
                "start_time": 5.0,
                "end_time": 5.113636363636363,
                "pitch": 52,
                "velocity": 101,
                "duration": 0.11363636363636331,
                "tempo": 120.0
            },
            {
                "start_time": 5.113636363636363,
                "end_time": 5.2295454545454545,
                "pitch": 40,
                "velocity": 101,
                "duration": 0.11590909090909118,
                "tempo": 120.0
            },
            {
                "start_time": 5.2295454545454545,
                "end_time": 5.329545454545454,
                "pitch": 38,
                "velocity": 101,
                "duration": 0.09999999999999964,
                "tempo": 120.0
            },
            {
                "start_time": 5.329545454545454,
                "end_time": 5.429545454545455,
                "pitch": 38,
                "velocity": 101,
                "duration": 0.10000000000000053,
                "tempo": 120.0
            },
            {
                "start_time": 5.429545454545455,
                "end_time": 5.547727272727273,
                "pitch": 50,
                "velocity": 101,
                "duration": 0.11818181818181817,
                "tempo": 120.0
            },
            {
                "start_time": 5.547727272727273,
                "end_time": 5.663636363636363,
                "pitch": 38,
                "velocity": 101,
                "duration": 0.1159090909090903,
                "tempo": 120.0
            },
            {
                "start_time": 5.663636363636363,
                "end_time": 5.763636363636364,
                "pitch": 38,
                "velocity": 101,
                "duration": 0.10000000000000053,
                "tempo": 120.0
            },
            {
                "start_time": 5.763636363636364,
                "end_time": 5.881818181818182,
                "pitch": 38,
                "velocity": 101,
                "duration": 0.11818181818181817,
                "tempo": 120.0
            },
            {
                "start_time": 5.881818181818182,
                "end_time": 5.965909090909091,
                "pitch": 50,
                "velocity": 101,
                "duration": 0.084090909090909,
                "tempo": 120.0
            },
            {
                "start_time": 5.965909090909091,
                "end_time": 6.097727272727273,
                "pitch": 38,
                "velocity": 101,
                "duration": 0.13181818181818183,
                "tempo": 120.0
            },
            {
                "start_time": 6.097727272727273,
                "end_time": 6.184090909090909,
                "pitch": 38,
                "velocity": 101,
                "duration": 0.08636363636363598,
                "tempo": 120.0
            },
            {
                "start_time": 6.184090909090909,
                "end_time": 6.304545454545455,
                "pitch": 38,
                "velocity": 101,
                "duration": 0.12045454545454604,
                "tempo": 120.0
            },
            {
                "start_time": 6.304545454545455,
                "end_time": 6.406818181818181,
                "pitch": 50,
                "velocity": 101,
                "duration": 0.10227272727272663,
                "tempo": 120.0
            },
            {
                "start_time": 6.406818181818181,
                "end_time": 6.543181818181818,
                "pitch": 38,
                "velocity": 101,
                "duration": 0.1363636363636367,
                "tempo": 120.0
            },
            {
                "start_time": 6.543181818181818,
                "end_time": 6.625,
                "pitch": 38,
                "velocity": 101,
                "duration": 0.08181818181818201,
                "tempo": 120.0
            },
            {
                "start_time": 6.625,
                "end_time": 6.738636363636363,
                "pitch": 38,
                "velocity": 101,
                "duration": 0.11363636363636331,
                "tempo": 120.0
            },
            {
                "start_time": 6.738636363636363,
                "end_time": 6.838636363636363,
                "pitch": 50,
                "velocity": 101,
                "duration": 0.09999999999999964,
                "tempo": 120.0
            },
            {
                "start_time": 6.838636363636363,
                "end_time": 6.968181818181818,
                "pitch": 38,
                "velocity": 101,
                "duration": 0.12954545454545485,
                "tempo": 120.0
            },
            {
                "start_time": 6.968181818181818,
                "end_time": 7.056818181818182,
                "pitch": 43,
                "velocity": 101,
                "duration": 0.08863636363636385,
                "tempo": 120.0
            },
            {
                "start_time": 7.056818181818182,
                "end_time": 7.161363636363636,
                "pitch": 43,
                "velocity": 101,
                "duration": 0.1045454545454545,
                "tempo": 120.0
            },
            {
                "start_time": 7.161363636363636,
                "end_time": 7.284090909090909,
                "pitch": 55,
                "velocity": 101,
                "duration": 0.12272727272727302,
                "tempo": 120.0
            },
            {
                "start_time": 7.284090909090909,
                "end_time": 7.404545454545454,
                "pitch": 43,
                "velocity": 101,
                "duration": 0.12045454545454515,
                "tempo": 120.0
            },
            {
                "start_time": 7.404545454545454,
                "end_time": 7.502272727272727,
                "pitch": 43,
                "velocity": 101,
                "duration": 0.09772727272727266,
                "tempo": 120.0
            },
            {
                "start_time": 7.502272727272727,
                "end_time": 7.597727272727273,
                "pitch": 43,
                "velocity": 101,
                "duration": 0.09545454545454568,
                "tempo": 120.0
            },
            {
                "start_time": 7.597727272727273,
                "end_time": 7.709090909090909,
                "pitch": 55,
                "velocity": 101,
                "duration": 0.11136363636363633,
                "tempo": 120.0
            },
            {
                "start_time": 7.709090909090909,
                "end_time": 7.820454545454545,
                "pitch": 43,
                "velocity": 101,
                "duration": 0.11136363636363633,
                "tempo": 120.0
            },
            {
                "start_time": 7.820454545454545,
                "end_time": 7.920454545454545,
                "pitch": 43,
                "velocity": 101,
                "duration": 0.09999999999999964,
                "tempo": 120.0
            },
            {
                "start_time": 7.920454545454545,
                "end_time": 8.020454545454545,
                "pitch": 43,
                "velocity": 101,
                "duration": 0.09999999999999964,
                "tempo": 120.0
            },
            {
                "start_time": 8.020454545454545,
                "end_time": 8.138636363636364,
                "pitch": 55,
                "velocity": 101,
                "duration": 0.11818181818181905,
                "tempo": 120.0
            },
            {
                "start_time": 8.138636363636364,
                "end_time": 8.254545454545454,
                "pitch": 43,
                "velocity": 101,
                "duration": 0.1159090909090903,
                "tempo": 120.0
            },
            {
                "start_time": 8.254545454545454,
                "end_time": 8.34090909090909,
                "pitch": 43,
                "velocity": 101,
                "duration": 0.08636363636363598,
                "tempo": 120.0
            },
            {
                "start_time": 8.34090909090909,
                "end_time": 8.461363636363636,
                "pitch": 43,
                "velocity": 101,
                "duration": 0.12045454545454604,
                "tempo": 120.0
            },
            {
                "start_time": 8.461363636363636,
                "end_time": 8.563636363636363,
                "pitch": 55,
                "velocity": 101,
                "duration": 0.10227272727272663,
                "tempo": 120.0
            },
            {
                "start_time": 8.563636363636363,
                "end_time": 8.7,
                "pitch": 43,
                "velocity": 101,
                "duration": 0.1363636363636367,
                "tempo": 120.0
            },
            {
                "start_time": 8.7,
                "end_time": 8.784090909090908,
                "pitch": 41,
                "velocity": 101,
                "duration": 0.084090909090909,
                "tempo": 120.0
            },
            {
                "start_time": 8.784090909090908,
                "end_time": 8.9,
                "pitch": 41,
                "velocity": 101,
                "duration": 0.11590909090909207,
                "tempo": 120.0
            },
            {
                "start_time": 8.9,
                "end_time": 9.0,
                "pitch": 53,
                "velocity": 101,
                "duration": 0.09999999999999964,
                "tempo": 120.0
            },
            {
                "start_time": 9.0,
                "end_time": 9.118181818181817,
                "pitch": 41,
                "velocity": 101,
                "duration": 0.11818181818181728,
                "tempo": 120.0
            },
            {
                "start_time": 9.118181818181817,
                "end_time": 9.218181818181817,
                "pitch": 41,
                "velocity": 101,
                "duration": 0.09999999999999964,
                "tempo": 120.0
            },
            {
                "start_time": 9.218181818181817,
                "end_time": 9.352272727272727,
                "pitch": 41,
                "velocity": 101,
                "duration": 0.1340909090909097,
                "tempo": 120.0
            },
            {
                "start_time": 9.352272727272727,
                "end_time": 9.436363636363636,
                "pitch": 53,
                "velocity": 101,
                "duration": 0.084090909090909,
                "tempo": 120.0
            },
            {
                "start_time": 9.436363636363636,
                "end_time": 9.552272727272728,
                "pitch": 41,
                "velocity": 101,
                "duration": 0.11590909090909207,
                "tempo": 120.0
            },
            {
                "start_time": 9.552272727272728,
                "end_time": 9.652272727272727,
                "pitch": 41,
                "velocity": 101,
                "duration": 0.09999999999999964,
                "tempo": 120.0
            },
            {
                "start_time": 9.652272727272727,
                "end_time": 9.75,
                "pitch": 41,
                "velocity": 101,
                "duration": 0.09772727272727266,
                "tempo": 120.0
            },
            {
                "start_time": 9.75,
                "end_time": 9.863636363636363,
                "pitch": 53,
                "velocity": 101,
                "duration": 0.11363636363636331,
                "tempo": 120.0
            },
            {
                "start_time": 9.863636363636363,
                "end_time": 9.963636363636363,
                "pitch": 41,
                "velocity": 101,
                "duration": 0.09999999999999964,
                "tempo": 120.0
            },
            {
                "start_time": 9.963636363636363,
                "end_time": 10.079545454545453,
                "pitch": 41,
                "velocity": 101,
                "duration": 0.1159090909090903,
                "tempo": 120.0
            },
            {
                "start_time": 10.079545454545453,
                "end_time": 10.179545454545455,
                "pitch": 41,
                "velocity": 101,
                "duration": 0.10000000000000142,
                "tempo": 120.0
            },
            {
                "start_time": 10.179545454545455,
                "end_time": 10.297727272727272,
                "pitch": 53,
                "velocity": 101,
                "duration": 0.11818181818181728,
                "tempo": 120.0
            },
            {
                "start_time": 10.297727272727272,
                "end_time": 10.413636363636362,
                "pitch": 41,
                "velocity": 101,
                "duration": 0.1159090909090903,
                "tempo": 120.0
            },
            {
                "start_time": 10.413636363636362,
                "end_time": 10.51590909090909,
                "pitch": 41,
                "velocity": 101,
                "duration": 0.1022727272727284,
                "tempo": 120.0
            },
            {
                "start_time": 10.51590909090909,
                "end_time": 10.618181818181817,
                "pitch": 40,
                "velocity": 101,
                "duration": 0.10227272727272663,
                "tempo": 120.0
            },
            {
                "start_time": 10.618181818181817,
                "end_time": 10.722727272727273,
                "pitch": 52,
                "velocity": 101,
                "duration": 0.10454545454545539,
                "tempo": 120.0
            },
            {
                "start_time": 10.722727272727273,
                "end_time": 10.84090909090909,
                "pitch": 40,
                "velocity": 101,
                "duration": 0.11818181818181728,
                "tempo": 120.0
            },
            {
                "start_time": 10.84090909090909,
                "end_time": 10.94090909090909,
                "pitch": 40,
                "velocity": 101,
                "duration": 0.09999999999999964,
                "tempo": 120.0
            },
            {
                "start_time": 10.94090909090909,
                "end_time": 11.054545454545455,
                "pitch": 40,
                "velocity": 101,
                "duration": 0.11363636363636509,
                "tempo": 120.0
            },
            {
                "start_time": 11.054545454545455,
                "end_time": 11.152272727272727,
                "pitch": 52,
                "velocity": 101,
                "duration": 0.09772727272727266,
                "tempo": 120.0
            },
            {
                "start_time": 11.152272727272727,
                "end_time": 11.284090909090908,
                "pitch": 40,
                "velocity": 101,
                "duration": 0.13181818181818095,
                "tempo": 120.0
            },
            {
                "start_time": 11.284090909090908,
                "end_time": 11.370454545454544,
                "pitch": 40,
                "velocity": 101,
                "duration": 0.08636363636363598,
                "tempo": 120.0
            },
            {
                "start_time": 11.370454545454544,
                "end_time": 11.493181818181817,
                "pitch": 40,
                "velocity": 101,
                "duration": 0.12272727272727302,
                "tempo": 120.0
            },
            {
                "start_time": 11.493181818181817,
                "end_time": 11.597727272727273,
                "pitch": 52,
                "velocity": 101,
                "duration": 0.10454545454545539,
                "tempo": 120.0
            },
            {
                "start_time": 11.597727272727273,
                "end_time": 11.738636363636363,
                "pitch": 40,
                "velocity": 101,
                "duration": 0.14090909090909065,
                "tempo": 120.0
            },
            {
                "start_time": 11.738636363636363,
                "end_time": 11.822727272727272,
                "pitch": 40,
                "velocity": 101,
                "duration": 0.084090909090909,
                "tempo": 120.0
            },
            {
                "start_time": 11.822727272727272,
                "end_time": 11.922727272727272,
                "pitch": 40,
                "velocity": 101,
                "duration": 0.09999999999999964,
                "tempo": 120.0
            },
            {
                "start_time": 11.922727272727272,
                "end_time": 12.038636363636362,
                "pitch": 52,
                "velocity": 101,
                "duration": 0.1159090909090903,
                "tempo": 120.0
            },
            {
                "start_time": 12.038636363636362,
                "end_time": 12.156818181818181,
                "pitch": 40,
                "velocity": 101,
                "duration": 0.11818181818181905,
                "tempo": 120.0
            },
            {
                "start_time": 12.156818181818181,
                "end_time": 12.254545454545454,
                "pitch": 38,
                "velocity": 101,
                "duration": 0.09772727272727266,
                "tempo": 120.0
            },
            {
                "start_time": 12.254545454545454,
                "end_time": 12.354545454545454,
                "pitch": 38,
                "velocity": 101,
                "duration": 0.09999999999999964,
                "tempo": 120.0
            },
            {
                "start_time": 12.354545454545454,
                "end_time": 12.468181818181817,
                "pitch": 50,
                "velocity": 101,
                "duration": 0.11363636363636331,
                "tempo": 120.0
            },
            {
                "start_time": 12.468181818181817,
                "end_time": 12.56590909090909,
                "pitch": 38,
                "velocity": 101,
                "duration": 0.09772727272727266,
                "tempo": 120.0
            },
            {
                "start_time": 12.56590909090909,
                "end_time": 12.684090909090909,
                "pitch": 38,
                "velocity": 101,
                "duration": 0.11818181818181905,
                "tempo": 120.0
            },
            {
                "start_time": 12.684090909090909,
                "end_time": 12.784090909090908,
                "pitch": 38,
                "velocity": 101,
                "duration": 0.09999999999999964,
                "tempo": 120.0
            },
            {
                "start_time": 12.784090909090908,
                "end_time": 12.884090909090908,
                "pitch": 50,
                "velocity": 101,
                "duration": 0.09999999999999964,
                "tempo": 120.0
            },
            {
                "start_time": 12.884090909090908,
                "end_time": 13.018181818181818,
                "pitch": 38,
                "velocity": 101,
                "duration": 0.1340909090909097,
                "tempo": 120.0
            },
            {
                "start_time": 13.018181818181818,
                "end_time": 13.102272727272727,
                "pitch": 38,
                "velocity": 101,
                "duration": 0.084090909090909,
                "tempo": 120.0
            },
            {
                "start_time": 13.102272727272727,
                "end_time": 13.222727272727273,
                "pitch": 38,
                "velocity": 101,
                "duration": 0.12045454545454604,
                "tempo": 120.0
            },
            {
                "start_time": 13.222727272727273,
                "end_time": 13.325,
                "pitch": 50,
                "velocity": 101,
                "duration": 0.10227272727272663,
                "tempo": 120.0
            },
            {
                "start_time": 13.325,
                "end_time": 13.445454545454545,
                "pitch": 38,
                "velocity": 101,
                "duration": 0.12045454545454604,
                "tempo": 120.0
            },
            {
                "start_time": 13.445454545454545,
                "end_time": 13.543181818181818,
                "pitch": 38,
                "velocity": 101,
                "duration": 0.09772727272727266,
                "tempo": 120.0
            },
            {
                "start_time": 13.543181818181818,
                "end_time": 13.659090909090908,
                "pitch": 38,
                "velocity": 101,
                "duration": 0.1159090909090903,
                "tempo": 120.0
            },
            {
                "start_time": 13.659090909090908,
                "end_time": 13.756818181818181,
                "pitch": 50,
                "velocity": 101,
                "duration": 0.09772727272727266,
                "tempo": 120.0
            },
            {
                "start_time": 13.756818181818181,
                "end_time": 13.888636363636364,
                "pitch": 38,
                "velocity": 101,
                "duration": 0.13181818181818272,
                "tempo": 120.0
            },
            {
                "start_time": 13.888636363636364,
                "end_time": 13.972727272727273,
                "pitch": 43,
                "velocity": 101,
                "duration": 0.084090909090909,
                "tempo": 120.0
            },
            {
                "start_time": 13.972727272727273,
                "end_time": 14.075,
                "pitch": 43,
                "velocity": 101,
                "duration": 0.10227272727272663,
                "tempo": 120.0
            },
            {
                "start_time": 14.075,
                "end_time": 14.195454545454545,
                "pitch": 55,
                "velocity": 101,
                "duration": 0.12045454545454604,
                "tempo": 120.0
            },
            {
                "start_time": 14.195454545454545,
                "end_time": 14.297727272727272,
                "pitch": 43,
                "velocity": 101,
                "duration": 0.10227272727272663,
                "tempo": 120.0
            },
            {
                "start_time": 14.297727272727272,
                "end_time": 14.411363636363635,
                "pitch": 43,
                "velocity": 101,
                "duration": 0.11363636363636331,
                "tempo": 120.0
            },
            {
                "start_time": 14.411363636363635,
                "end_time": 14.506818181818181,
                "pitch": 43,
                "velocity": 101,
                "duration": 0.09545454545454568,
                "tempo": 120.0
            },
            {
                "start_time": 14.506818181818181,
                "end_time": 14.618181818181817,
                "pitch": 55,
                "velocity": 101,
                "duration": 0.11136363636363633,
                "tempo": 120.0
            },
            {
                "start_time": 14.618181818181817,
                "end_time": 14.729545454545454,
                "pitch": 43,
                "velocity": 101,
                "duration": 0.11136363636363633,
                "tempo": 120.0
            },
            {
                "start_time": 14.729545454545454,
                "end_time": 14.834090909090909,
                "pitch": 43,
                "velocity": 101,
                "duration": 0.10454545454545539,
                "tempo": 120.0
            },
            {
                "start_time": 14.834090909090909,
                "end_time": 14.938636363636363,
                "pitch": 43,
                "velocity": 101,
                "duration": 0.10454545454545361,
                "tempo": 120.0
            },
            {
                "start_time": 14.938636363636363,
                "end_time": 15.061363636363636,
                "pitch": 55,
                "velocity": 101,
                "duration": 0.12272727272727302,
                "tempo": 120.0
            },
            {
                "start_time": 15.061363636363636,
                "end_time": 15.181818181818182,
                "pitch": 43,
                "velocity": 101,
                "duration": 0.12045454545454604,
                "tempo": 120.0
            },
            {
                "start_time": 15.181818181818182,
                "end_time": 15.26590909090909,
                "pitch": 43,
                "velocity": 101,
                "duration": 0.084090909090909,
                "tempo": 120.0
            },
            {
                "start_time": 15.26590909090909,
                "end_time": 15.379545454545454,
                "pitch": 43,
                "velocity": 101,
                "duration": 0.11363636363636331,
                "tempo": 120.0
            },
            {
                "start_time": 15.379545454545454,
                "end_time": 15.477272727272727,
                "pitch": 55,
                "velocity": 101,
                "duration": 0.09772727272727266,
                "tempo": 120.0
            },
            {
                "start_time": 15.477272727272727,
                "end_time": 15.609090909090908,
                "pitch": 43,
                "velocity": 101,
                "duration": 0.13181818181818095,
                "tempo": 120.0
            },
            {
                "start_time": 15.609090909090908,
                "end_time": 15.693181818181817,
                "pitch": 41,
                "velocity": 101,
                "duration": 0.084090909090909,
                "tempo": 120.0
            },
            {
                "start_time": 15.693181818181817,
                "end_time": 15.813636363636363,
                "pitch": 41,
                "velocity": 101,
                "duration": 0.12045454545454604,
                "tempo": 120.0
            },
            {
                "start_time": 15.813636363636363,
                "end_time": 15.915909090909091,
                "pitch": 53,
                "velocity": 101,
                "duration": 0.1022727272727284,
                "tempo": 120.0
            },
            {
                "start_time": 15.915909090909091,
                "end_time": 16.036363636363635,
                "pitch": 41,
                "velocity": 101,
                "duration": 0.12045454545454426,
                "tempo": 120.0
            },
            {
                "start_time": 16.052272727272726,
                "end_time": 16.134090909090908,
                "pitch": 41,
                "velocity": 101,
                "duration": 0.08181818181818201,
                "tempo": 120.0
            },
            {
                "start_time": 16.134090909090908,
                "end_time": 16.25,
                "pitch": 41,
                "velocity": 101,
                "duration": 0.11590909090909207,
                "tempo": 120.0
            },
            {
                "start_time": 16.25,
                "end_time": 16.347727272727273,
                "pitch": 53,
                "velocity": 101,
                "duration": 0.09772727272727266,
                "tempo": 120.0
            },
            {
                "start_time": 16.347727272727273,
                "end_time": 16.461363636363636,
                "pitch": 41,
                "velocity": 101,
                "duration": 0.11363636363636331,
                "tempo": 120.0
            },
            {
                "start_time": 16.461363636363636,
                "end_time": 16.563636363636363,
                "pitch": 41,
                "velocity": 101,
                "duration": 0.10227272727272663,
                "tempo": 120.0
            },
            {
                "start_time": 16.563636363636363,
                "end_time": 16.663636363636364,
                "pitch": 41,
                "velocity": 101,
                "duration": 0.10000000000000142,
                "tempo": 120.0
            },
            {
                "start_time": 16.663636363636364,
                "end_time": 16.779545454545453,
                "pitch": 53,
                "velocity": 101,
                "duration": 0.11590909090908852,
                "tempo": 120.0
            },
            {
                "start_time": 16.779545454545453,
                "end_time": 16.897727272727273,
                "pitch": 41,
                "velocity": 101,
                "duration": 0.11818181818182083,
                "tempo": 120.0
            },
            {
                "start_time": 16.897727272727273,
                "end_time": 16.99772727272727,
                "pitch": 41,
                "velocity": 101,
                "duration": 0.09999999999999787,
                "tempo": 120.0
            },
            {
                "start_time": 16.99772727272727,
                "end_time": 17.097727272727273,
                "pitch": 41,
                "velocity": 101,
                "duration": 0.10000000000000142,
                "tempo": 120.0
            },
            {
                "start_time": 17.097727272727273,
                "end_time": 17.21590909090909,
                "pitch": 53,
                "velocity": 101,
                "duration": 0.11818181818181728,
                "tempo": 120.0
            },
            {
                "start_time": 17.21590909090909,
                "end_time": 17.331818181818182,
                "pitch": 41,
                "velocity": 101,
                "duration": 0.11590909090909207,
                "tempo": 120.0
            },
            {
                "start_time": 17.331818181818182,
                "end_time": 17.43409090909091,
                "pitch": 41,
                "velocity": 101,
                "duration": 0.10227272727272663,
                "tempo": 120.0
            },
            {
                "start_time": 17.43409090909091,
                "end_time": 17.536363636363635,
                "pitch": 40,
                "velocity": 101,
                "duration": 0.10227272727272663,
                "tempo": 120.0
            },
            {
                "start_time": 17.536363636363635,
                "end_time": 17.64090909090909,
                "pitch": 52,
                "velocity": 101,
                "duration": 0.10454545454545539,
                "tempo": 120.0
            },
            {
                "start_time": 17.64090909090909,
                "end_time": 17.777272727272727,
                "pitch": 40,
                "velocity": 101,
                "duration": 0.1363636363636367,
                "tempo": 120.0
            },
            {
                "start_time": 17.777272727272727,
                "end_time": 17.861363636363635,
                "pitch": 40,
                "velocity": 101,
                "duration": 0.08409090909090722,
                "tempo": 120.0
            },
            {
                "start_time": 17.861363636363635,
                "end_time": 17.977272727272727,
                "pitch": 40,
                "velocity": 101,
                "duration": 0.11590909090909207,
                "tempo": 120.0
            },
            {
                "start_time": 17.977272727272727,
                "end_time": 18.077272727272728,
                "pitch": 52,
                "velocity": 101,
                "duration": 0.10000000000000142,
                "tempo": 120.0
            },
            {
                "start_time": 18.077272727272728,
                "end_time": 18.211363636363636,
                "pitch": 40,
                "velocity": 101,
                "duration": 0.13409090909090793,
                "tempo": 120.0
            },
            {
                "start_time": 18.211363636363636,
                "end_time": 18.295454545454543,
                "pitch": 40,
                "velocity": 101,
                "duration": 0.08409090909090722,
                "tempo": 120.0
            },
            {
                "start_time": 18.295454545454543,
                "end_time": 18.413636363636364,
                "pitch": 40,
                "velocity": 101,
                "duration": 0.11818181818182083,
                "tempo": 120.0
            },
            {
                "start_time": 18.413636363636364,
                "end_time": 18.513636363636362,
                "pitch": 52,
                "velocity": 101,
                "duration": 0.09999999999999787,
                "tempo": 120.0
            },
            {
                "start_time": 18.513636363636362,
                "end_time": 18.647727272727273,
                "pitch": 40,
                "velocity": 101,
                "duration": 0.13409090909091148,
                "tempo": 120.0
            },
            {
                "start_time": 18.647727272727273,
                "end_time": 18.73181818181818,
                "pitch": 40,
                "velocity": 101,
                "duration": 0.08409090909090722,
                "tempo": 120.0
            },
            {
                "start_time": 18.73181818181818,
                "end_time": 18.831818181818182,
                "pitch": 40,
                "velocity": 101,
                "duration": 0.10000000000000142,
                "tempo": 120.0
            },
            {
                "start_time": 18.831818181818182,
                "end_time": 18.94772727272727,
                "pitch": 52,
                "velocity": 101,
                "duration": 0.11590909090908852,
                "tempo": 120.0
            },
            {
                "start_time": 18.94772727272727,
                "end_time": 19.06590909090909,
                "pitch": 40,
                "velocity": 101,
                "duration": 0.11818181818182083,
                "tempo": 120.0
            },
            {
                "start_time": 19.06590909090909,
                "end_time": 19.163636363636364,
                "pitch": 38,
                "velocity": 101,
                "duration": 0.09772727272727266,
                "tempo": 120.0
            },
            {
                "start_time": 19.163636363636364,
                "end_time": 19.261363636363637,
                "pitch": 38,
                "velocity": 101,
                "duration": 0.09772727272727266,
                "tempo": 120.0
            },
            {
                "start_time": 19.261363636363637,
                "end_time": 19.377272727272725,
                "pitch": 50,
                "velocity": 101,
                "duration": 0.11590909090908852,
                "tempo": 120.0
            },
            {
                "start_time": 19.377272727272725,
                "end_time": 19.49090909090909,
                "pitch": 38,
                "velocity": 101,
                "duration": 0.11363636363636331,
                "tempo": 120.0
            },
            {
                "start_time": 19.49090909090909,
                "end_time": 19.58863636363636,
                "pitch": 38,
                "velocity": 101,
                "duration": 0.09772727272727266,
                "tempo": 120.0
            },
            {
                "start_time": 19.58863636363636,
                "end_time": 19.688636363636363,
                "pitch": 38,
                "velocity": 101,
                "duration": 0.10000000000000142,
                "tempo": 120.0
            },
            {
                "start_time": 19.688636363636363,
                "end_time": 19.802272727272726,
                "pitch": 50,
                "velocity": 101,
                "duration": 0.11363636363636331,
                "tempo": 120.0
            },
            {
                "start_time": 19.802272727272726,
                "end_time": 19.918181818181818,
                "pitch": 38,
                "velocity": 101,
                "duration": 0.11590909090909207,
                "tempo": 120.0
            },
            {
                "start_time": 19.918181818181818,
                "end_time": 20.004545454545454,
                "pitch": 38,
                "velocity": 101,
                "duration": 0.08636363636363598,
                "tempo": 120.0
            },
            {
                "start_time": 20.004545454545454,
                "end_time": 20.127272727272725,
                "pitch": 38,
                "velocity": 101,
                "duration": 0.12272727272727124,
                "tempo": 120.0
            },
            {
                "start_time": 20.127272727272725,
                "end_time": 20.23181818181818,
                "pitch": 50,
                "velocity": 101,
                "duration": 0.10454545454545539,
                "tempo": 120.0
            },
            {
                "start_time": 20.23181818181818,
                "end_time": 20.370454545454546,
                "pitch": 38,
                "velocity": 101,
                "duration": 0.13863636363636545,
                "tempo": 120.0
            },
            {
                "start_time": 20.370454545454546,
                "end_time": 20.452272727272728,
                "pitch": 38,
                "velocity": 101,
                "duration": 0.08181818181818201,
                "tempo": 120.0
            },
            {
                "start_time": 20.452272727272728,
                "end_time": 20.568181818181817,
                "pitch": 38,
                "velocity": 101,
                "duration": 0.11590909090908852,
                "tempo": 120.0
            },
            {
                "start_time": 20.568181818181817,
                "end_time": 20.66590909090909,
                "pitch": 50,
                "velocity": 101,
                "duration": 0.09772727272727266,
                "tempo": 120.0
            },
            {
                "start_time": 20.66590909090909,
                "end_time": 20.797727272727272,
                "pitch": 38,
                "velocity": 101,
                "duration": 0.13181818181818272,
                "tempo": 120.0
            },
            {
                "start_time": 20.797727272727272,
                "end_time": 20.88181818181818,
                "pitch": 43,
                "velocity": 101,
                "duration": 0.08409090909090722,
                "tempo": 120.0
            },
            {
                "start_time": 20.88181818181818,
                "end_time": 21.002272727272725,
                "pitch": 43,
                "velocity": 101,
                "duration": 0.12045454545454604,
                "tempo": 120.0
            },
            {
                "start_time": 21.002272727272725,
                "end_time": 21.104545454545452,
                "pitch": 55,
                "velocity": 101,
                "duration": 0.10227272727272663,
                "tempo": 120.0
            },
            {
                "start_time": 21.104545454545452,
                "end_time": 21.206818181818182,
                "pitch": 43,
                "velocity": 101,
                "duration": 0.10227272727273018,
                "tempo": 120.0
            },
            {
                "start_time": 21.206818181818182,
                "end_time": 21.320454545454545,
                "pitch": 43,
                "velocity": 101,
                "duration": 0.11363636363636331,
                "tempo": 120.0
            },
            {
                "start_time": 21.320454545454545,
                "end_time": 21.41590909090909,
                "pitch": 43,
                "velocity": 101,
                "duration": 0.0954545454545439,
                "tempo": 120.0
            },
            {
                "start_time": 21.41590909090909,
                "end_time": 21.527272727272727,
                "pitch": 55,
                "velocity": 101,
                "duration": 0.11136363636363811,
                "tempo": 120.0
            },
            {
                "start_time": 21.527272727272727,
                "end_time": 21.638636363636362,
                "pitch": 43,
                "velocity": 101,
                "duration": 0.11136363636363455,
                "tempo": 120.0
            },
            {
                "start_time": 21.638636363636362,
                "end_time": 21.74090909090909,
                "pitch": 43,
                "velocity": 101,
                "duration": 0.10227272727272663,
                "tempo": 120.0
            },
            {
                "start_time": 21.74090909090909,
                "end_time": 21.84318181818182,
                "pitch": 43,
                "velocity": 101,
                "duration": 0.10227272727273018,
                "tempo": 120.0
            },
            {
                "start_time": 21.84318181818182,
                "end_time": 21.96363636363636,
                "pitch": 55,
                "velocity": 101,
                "duration": 0.12045454545454248,
                "tempo": 120.0
            },
            {
                "start_time": 21.96363636363636,
                "end_time": 22.081818181818182,
                "pitch": 43,
                "velocity": 101,
                "duration": 0.11818181818182083,
                "tempo": 120.0
            },
            {
                "start_time": 22.081818181818182,
                "end_time": 22.186363636363634,
                "pitch": 43,
                "velocity": 101,
                "duration": 0.10454545454545183,
                "tempo": 120.0
            },
            {
                "start_time": 22.186363636363634,
                "end_time": 22.288636363636364,
                "pitch": 43,
                "velocity": 101,
                "duration": 0.10227272727273018,
                "tempo": 120.0
            },
            {
                "start_time": 22.288636363636364,
                "end_time": 22.39090909090909,
                "pitch": 55,
                "velocity": 101,
                "duration": 0.10227272727272663,
                "tempo": 120.0
            },
            {
                "start_time": 22.39090909090909,
                "end_time": 22.527272727272727,
                "pitch": 43,
                "velocity": 101,
                "duration": 0.1363636363636367,
                "tempo": 120.0
            },
            {
                "start_time": 22.527272727272727,
                "end_time": 22.611363636363635,
                "pitch": 41,
                "velocity": 101,
                "duration": 0.08409090909090722,
                "tempo": 120.0
            },
            {
                "start_time": 22.611363636363635,
                "end_time": 22.729545454545452,
                "pitch": 41,
                "velocity": 101,
                "duration": 0.11818181818181728,
                "tempo": 120.0
            },
            {
                "start_time": 22.729545454545452,
                "end_time": 22.829545454545453,
                "pitch": 53,
                "velocity": 101,
                "duration": 0.10000000000000142,
                "tempo": 120.0
            },
            {
                "start_time": 22.829545454545453,
                "end_time": 22.96363636363636,
                "pitch": 41,
                "velocity": 101,
                "duration": 0.13409090909090793,
                "tempo": 120.0
            },
            {
                "start_time": 22.96363636363636,
                "end_time": 23.045454545454543,
                "pitch": 41,
                "velocity": 101,
                "duration": 0.08181818181818201,
                "tempo": 120.0
            },
            {
                "start_time": 23.045454545454543,
                "end_time": 23.163636363636364,
                "pitch": 41,
                "velocity": 101,
                "duration": 0.11818181818182083,
                "tempo": 120.0
            },
            {
                "start_time": 23.163636363636364,
                "end_time": 23.263636363636362,
                "pitch": 53,
                "velocity": 101,
                "duration": 0.09999999999999787,
                "tempo": 120.0
            },
            {
                "start_time": 23.263636363636362,
                "end_time": 23.39772727272727,
                "pitch": 41,
                "velocity": 101,
                "duration": 0.13409090909090793,
                "tempo": 120.0
            },
            {
                "start_time": 23.39772727272727,
                "end_time": 23.48409090909091,
                "pitch": 41,
                "velocity": 101,
                "duration": 0.08636363636363953,
                "tempo": 120.0
            },
            {
                "start_time": 23.48409090909091,
                "end_time": 23.586363636363636,
                "pitch": 41,
                "velocity": 101,
                "duration": 0.10227272727272663,
                "tempo": 120.0
            },
            {
                "start_time": 23.586363636363636,
                "end_time": 23.704545454545453,
                "pitch": 53,
                "velocity": 101,
                "duration": 0.11818181818181728,
                "tempo": 120.0
            },
            {
                "start_time": 23.704545454545453,
                "end_time": 23.825,
                "pitch": 41,
                "velocity": 101,
                "duration": 0.12045454545454604,
                "tempo": 120.0
            },
            {
                "start_time": 23.825,
                "end_time": 23.920454545454543,
                "pitch": 41,
                "velocity": 101,
                "duration": 0.0954545454545439,
                "tempo": 120.0
            },
            {
                "start_time": 23.920454545454543,
                "end_time": 24.01590909090909,
                "pitch": 41,
                "velocity": 101,
                "duration": 0.09545454545454746,
                "tempo": 120.0
            },
            {
                "start_time": 24.01590909090909,
                "end_time": 24.127272727272725,
                "pitch": 53,
                "velocity": 101,
                "duration": 0.11136363636363455,
                "tempo": 120.0
            },
            {
                "start_time": 24.127272727272725,
                "end_time": 24.238636363636363,
                "pitch": 41,
                "velocity": 101,
                "duration": 0.11136363636363811,
                "tempo": 120.0
            },
            {
                "start_time": 24.238636363636363,
                "end_time": 24.34090909090909,
                "pitch": 41,
                "velocity": 101,
                "duration": 0.10227272727272663,
                "tempo": 120.0
            },
            {
                "start_time": 24.34090909090909,
                "end_time": 24.443181818181817,
                "pitch": 40,
                "velocity": 101,
                "duration": 0.10227272727272663,
                "tempo": 120.0
            },
            {
                "start_time": 24.443181818181817,
                "end_time": 24.563636363636363,
                "pitch": 52,
                "velocity": 101,
                "duration": 0.12045454545454604,
                "tempo": 120.0
            },
            {
                "start_time": 24.563636363636363,
                "end_time": 24.66590909090909,
                "pitch": 40,
                "velocity": 101,
                "duration": 0.10227272727272663,
                "tempo": 120.0
            },
            {
                "start_time": 24.68409090909091,
                "end_time": 24.76590909090909,
                "pitch": 40,
                "velocity": 101,
                "duration": 0.08181818181818201,
                "tempo": 120.0
            },
            {
                "start_time": 24.76590909090909,
                "end_time": 24.879545454545454,
                "pitch": 40,
                "velocity": 101,
                "duration": 0.11363636363636331,
                "tempo": 120.0
            },
            {
                "start_time": 24.879545454545454,
                "end_time": 24.977272727272727,
                "pitch": 52,
                "velocity": 101,
                "duration": 0.09772727272727266,
                "tempo": 120.0
            },
            {
                "start_time": 24.977272727272727,
                "end_time": 25.10909090909091,
                "pitch": 40,
                "velocity": 101,
                "duration": 0.13181818181818272,
                "tempo": 120.0
            },
            {
                "start_time": 25.10909090909091,
                "end_time": 25.195454545454545,
                "pitch": 40,
                "velocity": 101,
                "duration": 0.08636363636363598,
                "tempo": 120.0
            },
            {
                "start_time": 25.195454545454545,
                "end_time": 25.313636363636363,
                "pitch": 40,
                "velocity": 101,
                "duration": 0.11818181818181728,
                "tempo": 120.0
            },
            {
                "start_time": 25.313636363636363,
                "end_time": 25.418181818181818,
                "pitch": 52,
                "velocity": 101,
                "duration": 0.10454545454545539,
                "tempo": 120.0
            },
            {
                "start_time": 25.418181818181818,
                "end_time": 25.554545454545455,
                "pitch": 40,
                "velocity": 101,
                "duration": 0.1363636363636367,
                "tempo": 120.0
            },
            {
                "start_time": 25.554545454545455,
                "end_time": 25.638636363636362,
                "pitch": 40,
                "velocity": 101,
                "duration": 0.08409090909090722,
                "tempo": 120.0
            },
            {
                "start_time": 25.638636363636362,
                "end_time": 25.74090909090909,
                "pitch": 40,
                "velocity": 101,
                "duration": 0.10227272727272663,
                "tempo": 120.0
            },
            {
                "start_time": 25.74090909090909,
                "end_time": 25.861363636363635,
                "pitch": 52,
                "velocity": 101,
                "duration": 0.12045454545454604,
                "tempo": 120.0
            },
            {
                "start_time": 25.861363636363635,
                "end_time": 25.98181818181818,
                "pitch": 40,
                "velocity": 101,
                "duration": 0.12045454545454604,
                "tempo": 120.0
            },
            {
                "start_time": 25.98181818181818,
                "end_time": 26.077272727272724,
                "pitch": 38,
                "velocity": 101,
                "duration": 0.0954545454545439,
                "tempo": 120.0
            },
            {
                "start_time": 26.077272727272724,
                "end_time": 26.172727272727272,
                "pitch": 38,
                "velocity": 101,
                "duration": 0.09545454545454746,
                "tempo": 120.0
            },
            {
                "start_time": 26.172727272727272,
                "end_time": 26.284090909090907,
                "pitch": 50,
                "velocity": 101,
                "duration": 0.11136363636363455,
                "tempo": 120.0
            },
            {
                "start_time": 26.284090909090907,
                "end_time": 26.379545454545454,
                "pitch": 38,
                "velocity": 101,
                "duration": 0.09545454545454746,
                "tempo": 120.0
            },
            {
                "start_time": 26.379545454545454,
                "end_time": 26.495454545454542,
                "pitch": 38,
                "velocity": 101,
                "duration": 0.11590909090908852,
                "tempo": 120.0
            },
            {
                "start_time": 26.495454545454542,
                "end_time": 26.597727272727273,
                "pitch": 38,
                "velocity": 101,
                "duration": 0.10227272727273018,
                "tempo": 120.0
            },
            {
                "start_time": 26.597727272727273,
                "end_time": 26.71363636363636,
                "pitch": 50,
                "velocity": 101,
                "duration": 0.11590909090908852,
                "tempo": 120.0
            },
            {
                "start_time": 26.71363636363636,
                "end_time": 26.831818181818182,
                "pitch": 38,
                "velocity": 101,
                "duration": 0.11818181818182083,
                "tempo": 120.0
            },
            {
                "start_time": 26.831818181818182,
                "end_time": 26.91590909090909,
                "pitch": 38,
                "velocity": 101,
                "duration": 0.08409090909090722,
                "tempo": 120.0
            },
            {
                "start_time": 26.91590909090909,
                "end_time": 27.036363636363635,
                "pitch": 38,
                "velocity": 101,
                "duration": 0.12045454545454604,
                "tempo": 120.0
            },
            {
                "start_time": 27.036363636363635,
                "end_time": 27.138636363636362,
                "pitch": 50,
                "velocity": 101,
                "duration": 0.10227272727272663,
                "tempo": 120.0
            },
            {
                "start_time": 27.138636363636362,
                "end_time": 27.259090909090908,
                "pitch": 38,
                "velocity": 101,
                "duration": 0.12045454545454604,
                "tempo": 120.0
            },
            {
                "start_time": 27.259090909090908,
                "end_time": 27.35909090909091,
                "pitch": 38,
                "velocity": 101,
                "duration": 0.10000000000000142,
                "tempo": 120.0
            },
            {
                "start_time": 27.35909090909091,
                "end_time": 27.477272727272727,
                "pitch": 38,
                "velocity": 101,
                "duration": 0.11818181818181728,
                "tempo": 120.0
            },
            {
                "start_time": 27.477272727272727,
                "end_time": 27.577272727272724,
                "pitch": 50,
                "velocity": 101,
                "duration": 0.09999999999999787,
                "tempo": 120.0
            },
            {
                "start_time": 27.577272727272724,
                "end_time": 27.711363636363636,
                "pitch": 38,
                "velocity": 101,
                "duration": 0.13409090909091148,
                "tempo": 120.0
            }
        ]
    }
}