{
    "track_id": "Golvellius - Valley of Doom (FM) - 02 - Intro",
    "mood": "relaxed",
    "instruments": {
        "Acoustic Bass": [
            {
                "start_time": 0.11136363636363636,
                "end_time": 0.6,
                "pitch": 50,
                "velocity": 64,
                "duration": 0.48863636363636365,
                "tempo": 120.0
            },
            {
                "start_time": 0.6,
                "end_time": 1.093181818181818,
                "pitch": 50,
                "velocity": 64,
                "duration": 0.49318181818181805,
                "tempo": 120.0
            },
            {
                "start_time": 1.093181818181818,
                "end_time": 1.5818181818181818,
                "pitch": 50,
                "velocity": 64,
                "duration": 0.48863636363636376,
                "tempo": 120.0
            },
            {
                "start_time": 1.5818181818181818,
                "end_time": 2.077272727272727,
                "pitch": 50,
                "velocity": 64,
                "duration": 0.49545454545454537,
                "tempo": 120.0
            },
            {
                "start_time": 2.077272727272727,
                "end_time": 2.559090909090909,
                "pitch": 50,
                "velocity": 64,
                "duration": 0.4818181818181819,
                "tempo": 120.0
            },
            {
                "start_time": 2.559090909090909,
                "end_time": 3.043181818181818,
                "pitch": 50,
                "velocity": 64,
                "duration": 0.4840909090909089,
                "tempo": 120.0
            },
            {
                "start_time": 3.043181818181818,
                "end_time": 3.527272727272727,
                "pitch": 50,
                "velocity": 64,
                "duration": 0.4840909090909089,
                "tempo": 120.0
            },
            {
                "start_time": 3.527272727272727,
                "end_time": 4.0204545454545455,
                "pitch": 50,
                "velocity": 64,
                "duration": 0.4931818181818186,
                "tempo": 120.0
            },
            {
                "start_time": 4.0204545454545455,
                "end_time": 4.515909090909091,
                "pitch": 52,
                "velocity": 64,
                "duration": 0.49545454545454515,
                "tempo": 120.0
            },
            {
                "start_time": 4.515909090909091,
                "end_time": 5.004545454545454,
                "pitch": 52,
                "velocity": 64,
                "duration": 0.4886363636363633,
                "tempo": 120.0
            },
            {
                "start_time": 5.004545454545454,
                "end_time": 5.486363636363636,
                "pitch": 52,
                "velocity": 64,
                "duration": 0.48181818181818237,
                "tempo": 120.0
            },
            {
                "start_time": 5.486363636363636,
                "end_time": 5.975,
                "pitch": 52,
                "velocity": 64,
                "duration": 0.4886363636363633,
                "tempo": 120.0
            },
            {
                "start_time": 5.975,
                "end_time": 6.468181818181818,
                "pitch": 52,
                "velocity": 64,
                "duration": 0.49318181818181817,
                "tempo": 120.0
            },
            {
                "start_time": 6.468181818181818,
                "end_time": 6.952272727272727,
                "pitch": 52,
                "velocity": 64,
                "duration": 0.48409090909090935,
                "tempo": 120.0
            },
            {
                "start_time": 6.952272727272727,
                "end_time": 7.4409090909090905,
                "pitch": 52,
                "velocity": 64,
                "duration": 0.4886363636363633,
                "tempo": 120.0
            },
            {
                "start_time": 7.4409090909090905,
                "end_time": 7.934090909090909,
                "pitch": 52,
                "velocity": 64,
                "duration": 0.49318181818181817,
                "tempo": 120.0
            },
            {
                "start_time": 7.934090909090909,
                "end_time": 8.422727272727272,
                "pitch": 55,
                "velocity": 64,
                "duration": 0.4886363636363633,
                "tempo": 120.0
            },
            {
                "start_time": 8.422727272727272,
                "end_time": 8.904545454545454,
                "pitch": 55,
                "velocity": 64,
                "duration": 0.48181818181818237,
                "tempo": 120.0
            },
            {
                "start_time": 8.904545454545454,
                "end_time": 9.393181818181818,
                "pitch": 55,
                "velocity": 64,
                "duration": 0.4886363636363633,
                "tempo": 120.0
            },
            {
                "start_time": 9.393181818181818,
                "end_time": 9.888636363636364,
                "pitch": 55,
                "velocity": 64,
                "duration": 0.49545454545454604,
                "tempo": 120.0
            },
            {
                "start_time": 9.888636363636364,
                "end_time": 10.375,
                "pitch": 55,
                "velocity": 64,
                "duration": 0.48636363636363633,
                "tempo": 120.0
            },
            {
                "start_time": 10.375,
                "end_time": 10.870454545454544,
                "pitch": 55,
                "velocity": 64,
                "duration": 0.49545454545454426,
                "tempo": 120.0
            },
            {
                "start_time": 10.870454545454544,
                "end_time": 11.35681818181818,
                "pitch": 55,
                "velocity": 64,
                "duration": 0.48636363636363633,
                "tempo": 120.0
            },
            {
                "start_time": 11.35681818181818,
                "end_time": 11.852272727272727,
                "pitch": 55,
                "velocity": 64,
                "duration": 0.49545454545454604,
                "tempo": 120.0
            },
            {
                "start_time": 11.852272727272727,
                "end_time": 12.338636363636363,
                "pitch": 58,
                "velocity": 64,
                "duration": 0.48636363636363633,
                "tempo": 120.0
            },
            {
                "start_time": 12.338636363636363,
                "end_time": 12.827272727272726,
                "pitch": 58,
                "velocity": 64,
                "duration": 0.4886363636363633,
                "tempo": 120.0
            },
            {
                "start_time": 12.827272727272726,
                "end_time": 13.309090909090909,
                "pitch": 58,
                "velocity": 64,
                "duration": 0.48181818181818237,
                "tempo": 120.0
            },
            {
                "start_time": 13.309090909090909,
                "end_time": 13.804545454545455,
                "pitch": 58,
                "velocity": 64,
                "duration": 0.49545454545454604,
                "tempo": 120.0
            },
            {
                "start_time": 13.804545454545455,
                "end_time": 14.293181818181818,
                "pitch": 58,
                "velocity": 64,
                "duration": 0.4886363636363633,
                "tempo": 120.0
            },
            {
                "start_time": 14.293181818181818,
                "end_time": 14.779545454545454,
                "pitch": 58,
                "velocity": 64,
                "duration": 0.48636363636363633,
                "tempo": 120.0
            },
            {
                "start_time": 14.779545454545454,
                "end_time": 15.26590909090909,
                "pitch": 58,
                "velocity": 64,
                "duration": 0.48636363636363633,
                "tempo": 120.0
            },
            {
                "start_time": 15.26590909090909,
                "end_time": 15.761363636363635,
                "pitch": 58,
                "velocity": 64,
                "duration": 0.49545454545454426,
                "tempo": 120.0
            },
            {
                "start_time": 15.761363636363635,
                "end_time": 16.25,
                "pitch": 58,
                "velocity": 64,
                "duration": 0.4886363636363651,
                "tempo": 120.0
            },
            {
                "start_time": 16.25,
                "end_time": 16.743181818181817,
                "pitch": 57,
                "velocity": 64,
                "duration": 0.4931818181818173,
                "tempo": 120.0
            },
            {
                "start_time": 16.743181818181817,
                "end_time": 17.23181818181818,
                "pitch": 57,
                "velocity": 64,
                "duration": 0.4886363636363633,
                "tempo": 120.0
            },
            {
                "start_time": 17.23181818181818,
                "end_time": 17.71818181818182,
                "pitch": 57,
                "velocity": 64,
                "duration": 0.4863636363636381,
                "tempo": 120.0
            },
            {
                "start_time": 17.71818181818182,
                "end_time": 18.21363636363636,
                "pitch": 57,
                "velocity": 64,
                "duration": 0.4954545454545425,
                "tempo": 120.0
            },
            {
                "start_time": 18.21363636363636,
                "end_time": 18.7,
                "pitch": 57,
                "velocity": 64,
                "duration": 0.4863636363636381,
                "tempo": 120.0
            },
            {
                "start_time": 18.7,
                "end_time": 19.188636363636363,
                "pitch": 57,
                "velocity": 64,
                "duration": 0.4886363636363633,
                "tempo": 120.0
            },
            {
                "start_time": 19.188636363636363,
                "end_time": 19.68409090909091,
                "pitch": 57,
                "velocity": 64,
                "duration": 0.49545454545454604,
                "tempo": 120.0
            },
            {
                "start_time": 19.68409090909091,
                "end_time": 20.170454545454543,
                "pitch": 57,
                "velocity": 64,
                "duration": 0.48636363636363455,
                "tempo": 120.0
            },
            {
                "start_time": 20.170454545454543,
                "end_time": 20.65681818181818,
                "pitch": 58,
                "velocity": 64,
                "duration": 0.4863636363636381,
                "tempo": 120.0
            },
            {
                "start_time": 20.65681818181818,
                "end_time": 21.145454545454545,
                "pitch": 58,
                "velocity": 64,
                "duration": 0.4886363636363633,
                "tempo": 120.0
            },
            {
                "start_time": 21.145454545454545,
                "end_time": 21.638636363636362,
                "pitch": 58,
                "velocity": 64,
                "duration": 0.4931818181818173,
                "tempo": 120.0
            },
            {
                "start_time": 21.638636363636362,
                "end_time": 22.12272727272727,
                "pitch": 58,
                "velocity": 64,
                "duration": 0.48409090909090935,
                "tempo": 120.0
            },
            {
                "start_time": 22.12272727272727,
                "end_time": 22.618181818181817,
                "pitch": 58,
                "velocity": 64,
                "duration": 0.49545454545454604,
                "tempo": 120.0
            },
            {
                "start_time": 22.618181818181817,
                "end_time": 23.104545454545452,
                "pitch": 58,
                "velocity": 64,
                "duration": 0.48636363636363455,
                "tempo": 120.0
            },
            {
                "start_time": 23.104545454545452,
                "end_time": 23.59318181818182,
                "pitch": 58,
                "velocity": 64,
                "duration": 0.48863636363636687,
                "tempo": 120.0
            },
            {
                "start_time": 23.59318181818182,
                "end_time": 24.086363636363636,
                "pitch": 55,
                "velocity": 64,
                "duration": 0.4931818181818173,
                "tempo": 120.0
            },
            {
                "start_time": 24.086363636363636,
                "end_time": 24.575,
                "pitch": 55,
                "velocity": 64,
                "duration": 0.4886363636363633,
                "tempo": 120.0
            },
            {
                "start_time": 24.575,
                "end_time": 25.061363636363634,
                "pitch": 55,
                "velocity": 64,
                "duration": 0.48636363636363455,
                "tempo": 120.0
            },
            {
                "start_time": 25.061363636363634,
                "end_time": 25.55681818181818,
                "pitch": 55,
                "velocity": 64,
                "duration": 0.49545454545454604,
                "tempo": 120.0
            },
            {
                "start_time": 25.55681818181818,
                "end_time": 26.027272727272727,
                "pitch": 55,
                "velocity": 64,
                "duration": 0.47045454545454746,
                "tempo": 120.0
            },
            {
                "start_time": 26.027272727272727,
                "end_time": 26.502272727272725,
                "pitch": 55,
                "velocity": 64,
                "duration": 0.47499999999999787,
                "tempo": 120.0
            },
            {
                "start_time": 26.502272727272725,
                "end_time": 26.99090909090909,
                "pitch": 55,
                "velocity": 64,
                "duration": 0.4886363636363633,
                "tempo": 120.0
            },
            {
                "start_time": 26.99090909090909,
                "end_time": 27.477272727272727,
                "pitch": 55,
                "velocity": 64,
                "duration": 0.4863636363636381,
                "tempo": 120.0
            },
            {
                "start_time": 27.477272727272727,
                "end_time": 27.972727272727273,
                "pitch": 55,
                "velocity": 64,
                "duration": 0.49545454545454604,
                "tempo": 120.0
            },
            {
                "start_time": 27.972727272727273,
                "end_time": 28.459090909090907,
                "pitch": 57,
                "velocity": 64,
                "duration": 0.48636363636363455,
                "tempo": 120.0
            },
            {
                "start_time": 28.459090909090907,
                "end_time": 28.943181818181817,
                "pitch": 57,
                "velocity": 64,
                "duration": 0.48409090909090935,
                "tempo": 120.0
            },
            {
                "start_time": 28.943181818181817,
                "end_time": 29.438636363636363,
                "pitch": 57,
                "velocity": 64,
                "duration": 0.49545454545454604,
                "tempo": 120.0
            },
            {
                "start_time": 29.438636363636363,
                "end_time": 29.924999999999997,
                "pitch": 57,
                "velocity": 64,
                "duration": 0.48636363636363455,
                "tempo": 120.0
            },
            {
                "start_time": 29.924999999999997,
                "end_time": 30.41363636363636,
                "pitch": 57,
                "velocity": 64,
                "duration": 0.4886363636363633,
                "tempo": 120.0
            },
            {
                "start_time": 30.41363636363636,
                "end_time": 30.895454545454545,
                "pitch": 57,
                "velocity": 64,
                "duration": 0.48181818181818414,
                "tempo": 120.0
            },
            {
                "start_time": 30.895454545454545,
                "end_time": 31.39090909090909,
                "pitch": 57,
                "velocity": 64,
                "duration": 0.49545454545454604,
                "tempo": 120.0
            },
            {
                "start_time": 31.39090909090909,
                "end_time": 31.877272727272725,
                "pitch": 50,
                "velocity": 64,
                "duration": 0.48636363636363455,
                "tempo": 120.0
            },
            {
                "start_time": 31.877272727272725,
                "end_time": 32.220454545454544,
                "pitch": 50,
                "velocity": 64,
                "duration": 0.3431818181818187,
                "tempo": 120.0
            }
        ]
    }
}