{
    "track_id": "Maze Hunter 3-D (FM) - 07 - Ending",
    "mood": "relaxed",
    "instruments": {
        "Flute": [
            {
                "start_time": 0.0022727272727272726,
                "end_time": 0.08636363636363636,
                "pitch": 81,
                "velocity": 80,
                "duration": 0.08409090909090909,
                "tempo": 120.0
            },
            {
                "start_time": 0.12045454545454545,
                "end_time": 3.175,
                "pitch": 82,
                "velocity": 80,
                "duration": 3.0545454545454542,
                "tempo": 120.0
            },
            {
                "start_time": 3.2068181818181816,
                "end_time": 3.954545454545454,
                "pitch": 80,
                "velocity": 80,
                "duration": 0.7477272727272726,
                "tempo": 120.0
            },
            {
                "start_time": 3.9863636363636363,
                "end_time": 4.7318181818181815,
                "pitch": 79,
                "velocity": 80,
                "duration": 0.7454545454545451,
                "tempo": 120.0
            },
            {
                "start_time": 4.765909090909091,
                "end_time": 5.531818181818181,
                "pitch": 77,
                "velocity": 80,
                "duration": 0.7659090909090907,
                "tempo": 120.0
            },
            {
                "start_time": 5.5659090909090905,
                "end_time": 6.331818181818181,
                "pitch": 79,
                "velocity": 80,
                "duration": 0.7659090909090907,
                "tempo": 120.0
            },
            {
                "start_time": 6.36590909090909,
                "end_time": 9.595454545454546,
                "pitch": 80,
                "velocity": 80,
                "duration": 3.2295454545454554,
                "tempo": 120.0
            },
            {
                "start_time": 9.627272727272727,
                "end_time": 9.979545454545454,
                "pitch": 80,
                "velocity": 80,
                "duration": 0.3522727272727266,
                "tempo": 120.0
            },
            {
                "start_time": 10.013636363636364,
                "end_time": 11.134090909090908,
                "pitch": 80,
                "velocity": 80,
                "duration": 1.1204545454545443,
                "tempo": 120.0
            },
            {
                "start_time": 11.168181818181818,
                "end_time": 11.945454545454545,
                "pitch": 82,
                "velocity": 80,
                "duration": 0.7772727272727273,
                "tempo": 120.0
            },
            {
                "start_time": 11.979545454545454,
                "end_time": 12.756818181818181,
                "pitch": 80,
                "velocity": 80,
                "duration": 0.7772727272727273,
                "tempo": 120.0
            },
            {
                "start_time": 12.788636363636362,
                "end_time": 16.0,
                "pitch": 79,
                "velocity": 80,
                "duration": 3.2113636363636378,
                "tempo": 120.0
            },
            {
                "start_time": 16.03409090909091,
                "end_time": 17.18409090909091,
                "pitch": 77,
                "velocity": 80,
                "duration": 1.1499999999999986,
                "tempo": 120.0
            },
            {
                "start_time": 17.21818181818182,
                "end_time": 18.4,
                "pitch": 79,
                "velocity": 80,
                "duration": 1.1818181818181799,
                "tempo": 120.0
            },
            {
                "start_time": 18.43409090909091,
                "end_time": 19.220454545454544,
                "pitch": 80,
                "velocity": 80,
                "duration": 0.7863636363636353,
                "tempo": 120.0
            },
            {
                "start_time": 19.254545454545454,
                "end_time": 23.581818181818182,
                "pitch": 80,
                "velocity": 80,
                "duration": 4.327272727272728,
                "tempo": 120.0
            },
            {
                "start_time": 23.613636363636363,
                "end_time": 24.79090909090909,
                "pitch": 82,
                "velocity": 80,
                "duration": 1.177272727272726,
                "tempo": 120.0
            },
            {
                "start_time": 24.825,
                "end_time": 25.602272727272727,
                "pitch": 80,
                "velocity": 80,
                "duration": 0.7772727272727273,
                "tempo": 120.0
            },
            {
                "start_time": 25.636363636363637,
                "end_time": 28.045454545454543,
                "pitch": 79,
                "velocity": 80,
                "duration": 2.4090909090909065,
                "tempo": 120.0
            },
            {
                "start_time": 28.079545454545453,
                "end_time": 28.436363636363634,
                "pitch": 77,
                "velocity": 80,
                "duration": 0.3568181818181806,
                "tempo": 120.0
            },
            {
                "start_time": 28.468181818181815,
                "end_time": 32.13409090909091,
                "pitch": 79,
                "velocity": 80,
                "duration": 3.665909090909093,
                "tempo": 120.0
            },
            {
                "start_time": 32.168181818181814,
                "end_time": 34.54545454545455,
                "pitch": 77,
                "velocity": 80,
                "duration": 2.3772727272727323,
                "tempo": 120.0
            },
            {
                "start_time": 34.57954545454545,
                "end_time": 34.949999999999996,
                "pitch": 75,
                "velocity": 80,
                "duration": 0.3704545454545425,
                "tempo": 120.0
            },
            {
                "start_time": 34.98409090909091,
                "end_time": 36.16590909090909,
                "pitch": 77,
                "velocity": 80,
                "duration": 1.1818181818181799,
                "tempo": 120.0
            },
            {
                "start_time": 36.199999999999996,
                "end_time": 36.97727272727273,
                "pitch": 79,
                "velocity": 80,
                "duration": 0.7772727272727309,
                "tempo": 120.0
            },
            {
                "start_time": 37.01136363636363,
                "end_time": 37.768181818181816,
                "pitch": 80,
                "velocity": 80,
                "duration": 0.7568181818181827,
                "tempo": 120.0
            },
            {
                "start_time": 37.8,
                "end_time": 38.55681818181818,
                "pitch": 79,
                "velocity": 80,
                "duration": 0.7568181818181827,
                "tempo": 120.0
            },
            {
                "start_time": 38.590909090909086,
                "end_time": 40.98863636363636,
                "pitch": 77,
                "velocity": 80,
                "duration": 2.3977272727272734,
                "tempo": 120.0
            },
            {
                "start_time": 41.02272727272727,
                "end_time": 41.8,
                "pitch": 75,
                "velocity": 80,
                "duration": 0.7772727272727238,
                "tempo": 120.0
            },
            {
                "start_time": 41.834090909090904,
                "end_time": 44.209090909090904,
                "pitch": 77,
                "velocity": 80,
                "duration": 2.375,
                "tempo": 120.0
            },
            {
                "start_time": 44.24318181818182,
                "end_time": 45.02045454545454,
                "pitch": 79,
                "velocity": 80,
                "duration": 0.7772727272727238,
                "tempo": 120.0
            },
            {
                "start_time": 45.054545454545455,
                "end_time": 48.26363636363636,
                "pitch": 77,
                "velocity": 80,
                "duration": 3.2090909090909037,
                "tempo": 120.0
            },
            {
                "start_time": 48.29772727272727,
                "end_time": 49.88636363636363,
                "pitch": 79,
                "velocity": 80,
                "duration": 1.5886363636363612,
                "tempo": 120.0
            },
            {
                "start_time": 49.92045454545454,
                "end_time": 51.486363636363635,
                "pitch": 80,
                "velocity": 80,
                "duration": 1.565909090909095,
                "tempo": 120.0
            },
            {
                "start_time": 51.52045454545454,
                "end_time": 51.62045454545454,
                "pitch": 81,
                "velocity": 80,
                "duration": 0.10000000000000142,
                "tempo": 120.0
            },
            {
                "start_time": 51.65454545454545,
                "end_time": 54.72954545454545,
                "pitch": 82,
                "velocity": 80,
                "duration": 3.075000000000003,
                "tempo": 120.0
            },
            {
                "start_time": 54.76136363636363,
                "end_time": 55.518181818181816,
                "pitch": 80,
                "velocity": 80,
                "duration": 0.7568181818181827,
                "tempo": 120.0
            },
            {
                "start_time": 55.55227272727272,
                "end_time": 56.309090909090905,
                "pitch": 79,
                "velocity": 80,
                "duration": 0.7568181818181827,
                "tempo": 120.0
            },
            {
                "start_time": 56.340909090909086,
                "end_time": 57.10909090909091,
                "pitch": 77,
                "velocity": 80,
                "duration": 0.768181818181823,
                "tempo": 120.0
            },
            {
                "start_time": 57.14090909090909,
                "end_time": 57.90909090909091,
                "pitch": 79,
                "velocity": 80,
                "duration": 0.7681818181818159,
                "tempo": 120.0
            },
            {
                "start_time": 57.94090909090909,
                "end_time": 61.17272727272727,
                "pitch": 80,
                "velocity": 80,
                "duration": 3.231818181818184,
                "tempo": 120.0
            },
            {
                "start_time": 61.20454545454545,
                "end_time": 61.55681818181818,
                "pitch": 80,
                "velocity": 80,
                "duration": 0.3522727272727266,
                "tempo": 120.0
            },
            {
                "start_time": 61.58863636363636,
                "end_time": 62.711363636363636,
                "pitch": 80,
                "velocity": 80,
                "duration": 1.1227272727272748,
                "tempo": 120.0
            },
            {
                "start_time": 62.74545454545454,
                "end_time": 63.52045454545454,
                "pitch": 82,
                "velocity": 80,
                "duration": 0.7749999999999986,
                "tempo": 120.0
            },
            {
                "start_time": 63.554545454545455,
                "end_time": 64.33181818181818,
                "pitch": 80,
                "velocity": 80,
                "duration": 0.7772727272727238,
                "tempo": 120.0
            },
            {
                "start_time": 64.36590909090908,
                "end_time": 67.59772727272727,
                "pitch": 79,
                "velocity": 80,
                "duration": 3.231818181818184,
                "tempo": 120.0
            },
            {
                "start_time": 67.63181818181818,
                "end_time": 68.8,
                "pitch": 77,
                "velocity": 80,
                "duration": 1.1681818181818215,
                "tempo": 120.0
            },
            {
                "start_time": 68.83181818181818,
                "end_time": 70.0,
                "pitch": 79,
                "velocity": 80,
                "duration": 1.1681818181818215,
                "tempo": 120.0
            },
            {
                "start_time": 70.03181818181818,
                "end_time": 70.8,
                "pitch": 80,
                "velocity": 80,
                "duration": 0.7681818181818159,
                "tempo": 120.0
            },
            {
                "start_time": 70.83181818181818,
                "end_time": 75.19545454545454,
                "pitch": 80,
                "velocity": 80,
                "duration": 4.36363636363636,
                "tempo": 120.0
            },
            {
                "start_time": 75.22727272727272,
                "end_time": 76.44318181818181,
                "pitch": 82,
                "velocity": 80,
                "duration": 1.2159090909090935,
                "tempo": 120.0
            },
            {
                "start_time": 76.47727272727272,
                "end_time": 77.28636363636363,
                "pitch": 80,
                "velocity": 80,
                "duration": 0.8090909090909122,
                "tempo": 120.0
            },
            {
                "start_time": 77.32272727272726,
                "end_time": 79.66818181818181,
                "pitch": 79,
                "velocity": 80,
                "duration": 2.345454545454544,
                "tempo": 120.0
            },
            {
                "start_time": 79.70227272727273,
                "end_time": 80.05909090909091,
                "pitch": 77,
                "velocity": 80,
                "duration": 0.35681818181818414,
                "tempo": 120.0
            },
            {
                "start_time": 80.0909090909091,
                "end_time": 83.73636363636363,
                "pitch": 79,
                "velocity": 80,
                "duration": 3.645454545454541,
                "tempo": 120.0
            },
            {
                "start_time": 83.77045454545454,
                "end_time": 86.14545454545454,
                "pitch": 77,
                "velocity": 80,
                "duration": 2.375,
                "tempo": 120.0
            },
            {
                "start_time": 86.17954545454545,
                "end_time": 86.55227272727272,
                "pitch": 75,
                "velocity": 80,
                "duration": 0.3727272727272748,
                "tempo": 120.0
            },
            {
                "start_time": 86.58636363636363,
                "end_time": 87.7590909090909,
                "pitch": 77,
                "velocity": 80,
                "duration": 1.172727272727272,
                "tempo": 120.0
            },
            {
                "start_time": 87.79090909090908,
                "end_time": 88.5590909090909,
                "pitch": 79,
                "velocity": 80,
                "duration": 0.7681818181818159,
                "tempo": 120.0
            },
            {
                "start_time": 88.5909090909091,
                "end_time": 89.34772727272727,
                "pitch": 80,
                "velocity": 80,
                "duration": 0.7568181818181756,
                "tempo": 120.0
            },
            {
                "start_time": 89.38181818181818,
                "end_time": 90.13636363636363,
                "pitch": 79,
                "velocity": 80,
                "duration": 0.7545454545454504,
                "tempo": 120.0
            },
            {
                "start_time": 90.17045454545455,
                "end_time": 92.56818181818181,
                "pitch": 77,
                "velocity": 80,
                "duration": 2.3977272727272663,
                "tempo": 120.0
            },
            {
                "start_time": 92.60227272727272,
                "end_time": 93.37954545454545,
                "pitch": 75,
                "velocity": 80,
                "duration": 0.7772727272727309,
                "tempo": 120.0
            },
            {
                "start_time": 93.41363636363636,
                "end_time": 95.79090909090908,
                "pitch": 77,
                "velocity": 80,
                "duration": 2.377272727272725,
                "tempo": 120.0
            },
            {
                "start_time": 95.82272727272726,
                "end_time": 96.6,
                "pitch": 79,
                "velocity": 80,
                "duration": 0.7772727272727309,
                "tempo": 120.0
            },
            {
                "start_time": 96.6340909090909,
                "end_time": 99.82272727272726,
                "pitch": 77,
                "velocity": 80,
                "duration": 3.1886363636363626,
                "tempo": 120.0
            },
            {
                "start_time": 99.85681818181817,
                "end_time": 101.42272727272727,
                "pitch": 79,
                "velocity": 80,
                "duration": 1.565909090909102,
                "tempo": 120.0
            },
            {
                "start_time": 101.45681818181818,
                "end_time": 103.04318181818181,
                "pitch": 80,
                "velocity": 80,
                "duration": 1.5863636363636289,
                "tempo": 120.0
            }
        ],
        "Vibraphone": [
            {
                "start_time": 104.01136363636363,
                "end_time": 107.17727272727272,
                "pitch": 70,
                "velocity": 40,
                "duration": 3.1659090909090963,
                "tempo": 120.0
            },
            {
                "start_time": 107.21136363636363,
                "end_time": 109.6,
                "pitch": 79,
                "velocity": 40,
                "duration": 2.3886363636363654,
                "tempo": 120.0
            },
            {
                "start_time": 109.63181818181818,
                "end_time": 111.975,
                "pitch": 82,
                "velocity": 40,
                "duration": 2.3431818181818187,
                "tempo": 120.0
            },
            {
                "start_time": 112.00681818181818,
                "end_time": 115.80454545454545,
                "pitch": 82,
                "velocity": 40,
                "duration": 3.797727272727272,
                "tempo": 120.0
            }
        ],
        "Acoustic Bass": [
            {
                "start_time": 0.020454545454545454,
                "end_time": 6.331818181818181,
                "pitch": 51,
                "velocity": 64,
                "duration": 6.311363636363636,
                "tempo": 120.0
            },
            {
                "start_time": 6.36590909090909,
                "end_time": 12.756818181818181,
                "pitch": 52,
                "velocity": 64,
                "duration": 6.390909090909091,
                "tempo": 120.0
            },
            {
                "start_time": 12.788636363636362,
                "end_time": 19.220454545454544,
                "pitch": 53,
                "velocity": 64,
                "duration": 6.431818181818182,
                "tempo": 120.0
            },
            {
                "start_time": 19.254545454545454,
                "end_time": 25.602272727272727,
                "pitch": 52,
                "velocity": 64,
                "duration": 6.347727272727273,
                "tempo": 120.0
            },
            {
                "start_time": 25.636363636363637,
                "end_time": 32.13409090909091,
                "pitch": 56,
                "velocity": 64,
                "duration": 6.497727272727271,
                "tempo": 120.0
            },
            {
                "start_time": 32.168181818181814,
                "end_time": 38.55681818181818,
                "pitch": 58,
                "velocity": 64,
                "duration": 6.3886363636363654,
                "tempo": 120.0
            },
            {
                "start_time": 38.590909090909086,
                "end_time": 41.8,
                "pitch": 59,
                "velocity": 64,
                "duration": 3.2090909090909108,
                "tempo": 120.0
            },
            {
                "start_time": 41.834090909090904,
                "end_time": 45.02045454545454,
                "pitch": 58,
                "velocity": 64,
                "duration": 3.1863636363636374,
                "tempo": 120.0
            },
            {
                "start_time": 45.054545454545455,
                "end_time": 51.486363636363635,
                "pitch": 56,
                "velocity": 64,
                "duration": 6.43181818181818,
                "tempo": 120.0
            },
            {
                "start_time": 51.52045454545454,
                "end_time": 57.90909090909091,
                "pitch": 51,
                "velocity": 64,
                "duration": 6.3886363636363654,
                "tempo": 120.0
            },
            {
                "start_time": 57.94090909090909,
                "end_time": 64.33181818181818,
                "pitch": 52,
                "velocity": 64,
                "duration": 6.390909090909091,
                "tempo": 120.0
            },
            {
                "start_time": 64.36590909090908,
                "end_time": 70.8,
                "pitch": 53,
                "velocity": 64,
                "duration": 6.434090909090912,
                "tempo": 120.0
            },
            {
                "start_time": 70.83181818181818,
                "end_time": 77.28636363636363,
                "pitch": 52,
                "velocity": 64,
                "duration": 6.454545454545453,
                "tempo": 120.0
            },
            {
                "start_time": 77.32272727272726,
                "end_time": 83.73636363636363,
                "pitch": 56,
                "velocity": 64,
                "duration": 6.413636363636371,
                "tempo": 120.0
            },
            {
                "start_time": 83.77045454545454,
                "end_time": 90.13636363636363,
                "pitch": 58,
                "velocity": 64,
                "duration": 6.365909090909085,
                "tempo": 120.0
            },
            {
                "start_time": 90.17045454545455,
                "end_time": 93.37954545454545,
                "pitch": 59,
                "velocity": 64,
                "duration": 3.2090909090909037,
                "tempo": 120.0
            },
            {
                "start_time": 93.41363636363636,
                "end_time": 96.6,
                "pitch": 58,
                "velocity": 64,
                "duration": 3.1863636363636374,
                "tempo": 120.0
            },
            {
                "start_time": 96.6340909090909,
                "end_time": 103.04318181818181,
                "pitch": 56,
                "velocity": 64,
                "duration": 6.4090909090909065,
                "tempo": 120.0
            },
            {
                "start_time": 103.07727272727273,
                "end_time": 105.44318181818181,
                "pitch": 53,
                "velocity": 64,
                "duration": 2.365909090909085,
                "tempo": 120.0
            },
            {
                "start_time": 105.47727272727272,
                "end_time": 109.46590909090908,
                "pitch": 51,
                "velocity": 64,
                "duration": 3.9886363636363598,
                "tempo": 120.0
            },
            {
                "start_time": 109.49772727272726,
                "end_time": 111.84545454545454,
                "pitch": 56,
                "velocity": 64,
                "duration": 2.3477272727272833,
                "tempo": 120.0
            },
            {
                "start_time": 111.87727272727273,
                "end_time": 115.80454545454545,
                "pitch": 51,
                "velocity": 64,
                "duration": 3.9272727272727224,
                "tempo": 120.0
            }
        ]
    }
}