{
    "track_id": "Out Run (FM) - 04 - Last Wave",
    "mood": "relaxed",
    "instruments": {
        "Acoustic Grand Piano": [
            {
                "start_time": 0.0,
                "end_time": 0.3659090909090909,
                "pitch": 67,
                "velocity": 80,
                "duration": 0.3659090909090909,
                "tempo": 120.0
            },
            {
                "start_time": 0.39999999999999997,
                "end_time": 0.5659090909090909,
                "pitch": 65,
                "velocity": 80,
                "duration": 0.16590909090909095,
                "tempo": 120.0
            },
            {
                "start_time": 0.6,
                "end_time": 2.3545454545454545,
                "pitch": 67,
                "velocity": 80,
                "duration": 1.7545454545454544,
                "tempo": 120.0
            },
            {
                "start_time": 2.4227272727272724,
                "end_time": 3.1568181818181817,
                "pitch": 0,
                "velocity": 80,
                "duration": 0.7340909090909093,
                "tempo": 120.0
            },
            {
                "start_time": 3.2227272727272727,
                "end_time": 3.9568181818181816,
                "pitch": 67,
                "velocity": 80,
                "duration": 0.7340909090909089,
                "tempo": 120.0
            },
            {
                "start_time": 4.0227272727272725,
                "end_time": 4.756818181818182,
                "pitch": 65,
                "velocity": 80,
                "duration": 0.7340909090909093,
                "tempo": 120.0
            },
            {
                "start_time": 4.822727272727272,
                "end_time": 5.556818181818182,
                "pitch": 67,
                "velocity": 80,
                "duration": 0.7340909090909093,
                "tempo": 120.0
            },
            {
                "start_time": 5.622727272727272,
                "end_time": 7.975,
                "pitch": 70,
                "velocity": 80,
                "duration": 2.3522727272727275,
                "tempo": 120.0
            },
            {
                "start_time": 8.043181818181818,
                "end_time": 8.386363636363637,
                "pitch": 65,
                "velocity": 80,
                "duration": 0.3431818181818187,
                "tempo": 120.0
            },
            {
                "start_time": 8.454545454545453,
                "end_time": 10.420454545454545,
                "pitch": 67,
                "velocity": 80,
                "duration": 1.9659090909090917,
                "tempo": 120.0
            },
            {
                "start_time": 10.488636363636363,
                "end_time": 10.818181818181818,
                "pitch": 58,
                "velocity": 80,
                "duration": 0.32954545454545503,
                "tempo": 120.0
            },
            {
                "start_time": 10.881818181818181,
                "end_time": 11.211363636363636,
                "pitch": 60,
                "velocity": 80,
                "duration": 0.32954545454545503,
                "tempo": 120.0
            },
            {
                "start_time": 11.277272727272727,
                "end_time": 11.60681818181818,
                "pitch": 63,
                "velocity": 80,
                "duration": 0.32954545454545325,
                "tempo": 120.0
            },
            {
                "start_time": 11.672727272727272,
                "end_time": 12.002272727272727,
                "pitch": 65,
                "velocity": 80,
                "duration": 0.32954545454545503,
                "tempo": 120.0
            },
            {
                "start_time": 12.068181818181818,
                "end_time": 12.811363636363636,
                "pitch": 67,
                "velocity": 80,
                "duration": 0.7431818181818173,
                "tempo": 120.0
            },
            {
                "start_time": 12.877272727272727,
                "end_time": 13.21590909090909,
                "pitch": 65,
                "velocity": 80,
                "duration": 0.33863636363636296,
                "tempo": 120.0
            },
            {
                "start_time": 13.284090909090908,
                "end_time": 15.243181818181817,
                "pitch": 67,
                "velocity": 80,
                "duration": 1.959090909090909,
                "tempo": 120.0
            },
            {
                "start_time": 15.311363636363636,
                "end_time": 16.043181818181818,
                "pitch": 0,
                "velocity": 80,
                "duration": 0.7318181818181824,
                "tempo": 120.0
            },
            {
                "start_time": 16.111363636363635,
                "end_time": 16.84318181818182,
                "pitch": 67,
                "velocity": 80,
                "duration": 0.7318181818181841,
                "tempo": 120.0
            },
            {
                "start_time": 16.911363636363635,
                "end_time": 17.654545454545453,
                "pitch": 65,
                "velocity": 80,
                "duration": 0.7431818181818173,
                "tempo": 120.0
            },
            {
                "start_time": 17.720454545454544,
                "end_time": 18.46363636363636,
                "pitch": 63,
                "velocity": 80,
                "duration": 0.7431818181818173,
                "tempo": 120.0
            },
            {
                "start_time": 18.53181818181818,
                "end_time": 20.06590909090909,
                "pitch": 62,
                "velocity": 80,
                "duration": 1.53409090909091,
                "tempo": 120.0
            },
            {
                "start_time": 20.13181818181818,
                "end_time": 20.854545454545452,
                "pitch": 0,
                "velocity": 80,
                "duration": 0.7227272727272727,
                "tempo": 120.0
            },
            {
                "start_time": 20.920454545454543,
                "end_time": 21.25,
                "pitch": 58,
                "velocity": 80,
                "duration": 0.3295454545454568,
                "tempo": 120.0
            },
            {
                "start_time": 21.31590909090909,
                "end_time": 23.30681818181818,
                "pitch": 55,
                "velocity": 80,
                "duration": 1.9909090909090885,
                "tempo": 120.0
            },
            {
                "start_time": 23.375,
                "end_time": 24.909090909090907,
                "pitch": 0,
                "velocity": 80,
                "duration": 1.5340909090909065,
                "tempo": 120.0
            },
            {
                "start_time": 24.977272727272727,
                "end_time": 26.10909090909091,
                "pitch": 62,
                "velocity": 80,
                "duration": 1.1318181818181827,
                "tempo": 120.0
            },
            {
                "start_time": 26.177272727272726,
                "end_time": 28.129545454545454,
                "pitch": 65,
                "velocity": 80,
                "duration": 1.952272727272728,
                "tempo": 120.0
            },
            {
                "start_time": 28.19772727272727,
                "end_time": 28.940909090909088,
                "pitch": 0,
                "velocity": 80,
                "duration": 0.7431818181818173,
                "tempo": 120.0
            },
            {
                "start_time": 29.009090909090908,
                "end_time": 29.752272727272725,
                "pitch": 58,
                "velocity": 80,
                "duration": 0.7431818181818173,
                "tempo": 120.0
            },
            {
                "start_time": 29.820454545454545,
                "end_time": 30.286363636363635,
                "pitch": 60,
                "velocity": 80,
                "duration": 0.46590909090908994,
                "tempo": 120.0
            },
            {
                "start_time": 30.352272727272727,
                "end_time": 30.820454545454545,
                "pitch": 63,
                "velocity": 80,
                "duration": 0.4681818181818187,
                "tempo": 120.0
            },
            {
                "start_time": 30.886363636363633,
                "end_time": 31.352272727272727,
                "pitch": 65,
                "velocity": 80,
                "duration": 0.4659090909090935,
                "tempo": 120.0
            },
            {
                "start_time": 31.420454545454543,
                "end_time": 32.56818181818182,
                "pitch": 65,
                "velocity": 80,
                "duration": 1.147727272727277,
                "tempo": 120.0
            },
            {
                "start_time": 32.63636363636363,
                "end_time": 34.595454545454544,
                "pitch": 67,
                "velocity": 80,
                "duration": 1.9590909090909108,
                "tempo": 120.0
            },
            {
                "start_time": 34.663636363636364,
                "end_time": 35.38636363636363,
                "pitch": 0,
                "velocity": 80,
                "duration": 0.7227272727272691,
                "tempo": 120.0
            },
            {
                "start_time": 35.45227272727273,
                "end_time": 35.78181818181818,
                "pitch": 61,
                "velocity": 80,
                "duration": 0.32954545454545325,
                "tempo": 120.0
            },
            {
                "start_time": 35.84772727272727,
                "end_time": 36.175,
                "pitch": 64,
                "velocity": 80,
                "duration": 0.32727272727272805,
                "tempo": 120.0
            },
            {
                "start_time": 36.24090909090909,
                "end_time": 36.574999999999996,
                "pitch": 67,
                "velocity": 80,
                "duration": 0.33409090909090366,
                "tempo": 120.0
            },
            {
                "start_time": 36.64090909090909,
                "end_time": 36.975,
                "pitch": 73,
                "velocity": 80,
                "duration": 0.33409090909091077,
                "tempo": 120.0
            },
            {
                "start_time": 37.04090909090909,
                "end_time": 37.375,
                "pitch": 72,
                "velocity": 80,
                "duration": 0.33409090909091077,
                "tempo": 120.0
            },
            {
                "start_time": 37.44090909090909,
                "end_time": 37.775,
                "pitch": 70,
                "velocity": 80,
                "duration": 0.33409090909091077,
                "tempo": 120.0
            },
            {
                "start_time": 37.840909090909086,
                "end_time": 40.20681818181818,
                "pitch": 68,
                "velocity": 80,
                "duration": 2.365909090909092,
                "tempo": 120.0
            },
            {
                "start_time": 40.275,
                "end_time": 40.611363636363635,
                "pitch": 67,
                "velocity": 80,
                "duration": 0.336363636363636,
                "tempo": 120.0
            },
            {
                "start_time": 40.679545454545455,
                "end_time": 42.63863636363636,
                "pitch": 68,
                "velocity": 80,
                "duration": 1.9590909090909037,
                "tempo": 120.0
            },
            {
                "start_time": 42.70454545454545,
                "end_time": 43.03409090909091,
                "pitch": 0,
                "velocity": 80,
                "duration": 0.32954545454545325,
                "tempo": 120.0
            },
            {
                "start_time": 43.1,
                "end_time": 43.824999999999996,
                "pitch": 70,
                "velocity": 80,
                "duration": 0.7249999999999943,
                "tempo": 120.0
            },
            {
                "start_time": 43.88863636363636,
                "end_time": 44.21818181818182,
                "pitch": 69,
                "velocity": 80,
                "duration": 0.32954545454546036,
                "tempo": 120.0
            },
            {
                "start_time": 44.28409090909091,
                "end_time": 46.25454545454545,
                "pitch": 70,
                "velocity": 80,
                "duration": 1.970454545454544,
                "tempo": 120.0
            },
            {
                "start_time": 46.320454545454545,
                "end_time": 47.04545454545454,
                "pitch": 72,
                "velocity": 80,
                "duration": 0.7249999999999943,
                "tempo": 120.0
            },
            {
                "start_time": 47.111363636363635,
                "end_time": 47.44090909090909,
                "pitch": 70,
                "velocity": 80,
                "duration": 0.32954545454545325,
                "tempo": 120.0
            },
            {
                "start_time": 47.50454545454545,
                "end_time": 47.84772727272727,
                "pitch": 72,
                "velocity": 80,
                "duration": 0.3431818181818187,
                "tempo": 120.0
            },
            {
                "start_time": 47.91590909090909,
                "end_time": 48.67045454545454,
                "pitch": 73,
                "velocity": 80,
                "duration": 0.7545454545454504,
                "tempo": 120.0
            },
            {
                "start_time": 48.73863636363636,
                "end_time": 49.47727272727273,
                "pitch": 75,
                "velocity": 80,
                "duration": 0.7386363636363669,
                "tempo": 120.0
            },
            {
                "start_time": 49.543181818181814,
                "end_time": 50.26590909090909,
                "pitch": 77,
                "velocity": 80,
                "duration": 0.7227272727272762,
                "tempo": 120.0
            },
            {
                "start_time": 50.33181818181818,
                "end_time": 50.66136363636363,
                "pitch": 79,
                "velocity": 80,
                "duration": 0.32954545454545325,
                "tempo": 120.0
            },
            {
                "start_time": 50.72727272727273,
                "end_time": 51.06818181818181,
                "pitch": 79,
                "velocity": 80,
                "duration": 0.3409090909090864,
                "tempo": 120.0
            },
            {
                "start_time": 51.13863636363636,
                "end_time": 51.47954545454545,
                "pitch": 79,
                "velocity": 80,
                "duration": 0.3409090909090935,
                "tempo": 120.0
            },
            {
                "start_time": 51.54772727272727,
                "end_time": 51.89090909090909,
                "pitch": 77,
                "velocity": 80,
                "duration": 0.3431818181818187,
                "tempo": 120.0
            },
            {
                "start_time": 51.959090909090904,
                "end_time": 53.90454545454545,
                "pitch": 79,
                "velocity": 80,
                "duration": 1.9454545454545453,
                "tempo": 120.0
            },
            {
                "start_time": 53.970454545454544,
                "end_time": 54.70454545454545,
                "pitch": 0,
                "velocity": 80,
                "duration": 0.7340909090909093,
                "tempo": 120.0
            },
            {
                "start_time": 54.77045454545454,
                "end_time": 55.50454545454545,
                "pitch": 67,
                "velocity": 80,
                "duration": 0.7340909090909093,
                "tempo": 120.0
            },
            {
                "start_time": 55.570454545454545,
                "end_time": 56.32272727272727,
                "pitch": 65,
                "velocity": 80,
                "duration": 0.7522727272727252,
                "tempo": 120.0
            },
            {
                "start_time": 56.39090909090909,
                "end_time": 57.14545454545454,
                "pitch": 63,
                "velocity": 80,
                "duration": 0.7545454545454504,
                "tempo": 120.0
            },
            {
                "start_time": 57.21363636363636,
                "end_time": 58.768181818181816,
                "pitch": 70,
                "velocity": 80,
                "duration": 1.5545454545454547,
                "tempo": 120.0
            },
            {
                "start_time": 58.836363636363636,
                "end_time": 59.57954545454545,
                "pitch": 0,
                "velocity": 80,
                "duration": 0.7431818181818173,
                "tempo": 120.0
            },
            {
                "start_time": 59.64545454545454,
                "end_time": 59.98409090909091,
                "pitch": 65,
                "velocity": 80,
                "duration": 0.3386363636363683,
                "tempo": 120.0
            },
            {
                "start_time": 60.05227272727272,
                "end_time": 62.01136363636363,
                "pitch": 67,
                "velocity": 80,
                "duration": 1.9590909090909108,
                "tempo": 120.0
            },
            {
                "start_time": 62.07727272727272,
                "end_time": 62.402272727272724,
                "pitch": 0,
                "velocity": 80,
                "duration": 0.32500000000000284,
                "tempo": 120.0
            },
            {
                "start_time": 62.465909090909086,
                "end_time": 62.79090909090909,
                "pitch": 72,
                "velocity": 80,
                "duration": 0.32500000000000284,
                "tempo": 120.0
            },
            {
                "start_time": 62.85681818181818,
                "end_time": 63.18181818181818,
                "pitch": 75,
                "velocity": 80,
                "duration": 0.32500000000000284,
                "tempo": 120.0
            },
            {
                "start_time": 63.24545454545454,
                "end_time": 63.570454545454545,
                "pitch": 77,
                "velocity": 80,
                "duration": 0.32500000000000284,
                "tempo": 120.0
            },
            {
                "start_time": 63.63636363636363,
                "end_time": 63.97727272727273,
                "pitch": 79,
                "velocity": 80,
                "duration": 0.3409090909090935,
                "tempo": 120.0
            },
            {
                "start_time": 64.04772727272727,
                "end_time": 64.38863636363637,
                "pitch": 79,
                "velocity": 80,
                "duration": 0.3409090909090935,
                "tempo": 120.0
            },
            {
                "start_time": 64.45681818181818,
                "end_time": 64.8,
                "pitch": 77,
                "velocity": 80,
                "duration": 0.3431818181818187,
                "tempo": 120.0
            },
            {
                "start_time": 64.86818181818181,
                "end_time": 66.81136363636364,
                "pitch": 79,
                "velocity": 80,
                "duration": 1.9431818181818272,
                "tempo": 120.0
            },
            {
                "start_time": 66.87954545454545,
                "end_time": 67.61136363636363,
                "pitch": 0,
                "velocity": 80,
                "duration": 0.7318181818181841,
                "tempo": 120.0
            },
            {
                "start_time": 67.67954545454545,
                "end_time": 68.41136363636363,
                "pitch": 67,
                "velocity": 80,
                "duration": 0.7318181818181841,
                "tempo": 120.0
            },
            {
                "start_time": 68.47954545454544,
                "end_time": 69.23181818181818,
                "pitch": 65,
                "velocity": 80,
                "duration": 0.7522727272727394,
                "tempo": 120.0
            },
            {
                "start_time": 69.3,
                "end_time": 70.05454545454545,
                "pitch": 63,
                "velocity": 80,
                "duration": 0.7545454545454504,
                "tempo": 120.0
            },
            {
                "start_time": 70.12272727272727,
                "end_time": 70.86590909090908,
                "pitch": 70,
                "velocity": 80,
                "duration": 0.7431818181818102,
                "tempo": 120.0
            },
            {
                "start_time": 70.93409090909091,
                "end_time": 71.67727272727272,
                "pitch": 70,
                "velocity": 80,
                "duration": 0.7431818181818102,
                "tempo": 120.0
            },
            {
                "start_time": 71.74545454545454,
                "end_time": 72.47727272727272,
                "pitch": 0,
                "velocity": 80,
                "duration": 0.7318181818181841,
                "tempo": 120.0
            },
            {
                "start_time": 72.54545454545455,
                "end_time": 73.27727272727272,
                "pitch": 74,
                "velocity": 80,
                "duration": 0.7318181818181699,
                "tempo": 120.0
            },
            {
                "start_time": 73.34545454545454,
                "end_time": 73.67727272727272,
                "pitch": 74,
                "velocity": 80,
                "duration": 0.33181818181817846,
                "tempo": 120.0
            },
            {
                "start_time": 73.74545454545454,
                "end_time": 76.47727272727272,
                "pitch": 70,
                "velocity": 80,
                "duration": 2.731818181818184,
                "tempo": 120.0
            },
            {
                "start_time": 76.54545454545455,
                "end_time": 77.28863636363636,
                "pitch": 67,
                "velocity": 80,
                "duration": 0.7431818181818102,
                "tempo": 120.0
            },
            {
                "start_time": 77.35454545454544,
                "end_time": 77.69318181818181,
                "pitch": 65,
                "velocity": 80,
                "duration": 0.3386363636363683,
                "tempo": 120.0
            },
            {
                "start_time": 77.76136363636363,
                "end_time": 78.9090909090909,
                "pitch": 65,
                "velocity": 80,
                "duration": 1.1477272727272805,
                "tempo": 120.0
            },
            {
                "start_time": 78.97727272727272,
                "end_time": 79.31363636363636,
                "pitch": 63,
                "velocity": 80,
                "duration": 0.3363636363636431,
                "tempo": 120.0
            },
            {
                "start_time": 79.38181818181818,
                "end_time": 80.54090909090908,
                "pitch": 63,
                "velocity": 80,
                "duration": 1.1590909090909065,
                "tempo": 120.0
            },
            {
                "start_time": 80.60909090909091,
                "end_time": 80.95227272727273,
                "pitch": 62,
                "velocity": 80,
                "duration": 0.3431818181818187,
                "tempo": 120.0
            },
            {
                "start_time": 81.02045454545454,
                "end_time": 81.74772727272727,
                "pitch": 62,
                "velocity": 80,
                "duration": 0.7272727272727337,
                "tempo": 120.0
            },
            {
                "start_time": 81.81363636363636,
                "end_time": 82.1340909090909,
                "pitch": 58,
                "velocity": 80,
                "duration": 0.3204545454545382,
                "tempo": 120.0
            },
            {
                "start_time": 82.19772727272726,
                "end_time": 82.51818181818182,
                "pitch": 59,
                "velocity": 80,
                "duration": 0.32045454545455243,
                "tempo": 120.0
            },
            {
                "start_time": 82.58181818181818,
                "end_time": 82.90227272727272,
                "pitch": 60,
                "velocity": 80,
                "duration": 0.3204545454545382,
                "tempo": 120.0
            },
            {
                "start_time": 82.9659090909091,
                "end_time": 84.13181818181818,
                "pitch": 72,
                "velocity": 80,
                "duration": 1.1659090909090821,
                "tempo": 120.0
            },
            {
                "start_time": 84.2,
                "end_time": 86.18636363636364,
                "pitch": 70,
                "velocity": 80,
                "duration": 1.9863636363636346,
                "tempo": 120.0
            },
            {
                "start_time": 86.25454545454545,
                "end_time": 86.7159090909091,
                "pitch": 67,
                "velocity": 80,
                "duration": 0.4613636363636431,
                "tempo": 120.0
            },
            {
                "start_time": 86.78181818181818,
                "end_time": 87.24090909090908,
                "pitch": 73,
                "velocity": 80,
                "duration": 0.45909090909090366,
                "tempo": 120.0
            },
            {
                "start_time": 87.30681818181817,
                "end_time": 87.76818181818182,
                "pitch": 72,
                "velocity": 80,
                "duration": 0.4613636363636431,
                "tempo": 120.0
            },
            {
                "start_time": 87.8340909090909,
                "end_time": 88.3,
                "pitch": 70,
                "velocity": 80,
                "duration": 0.4659090909090935,
                "tempo": 120.0
            },
            {
                "start_time": 88.36590909090908,
                "end_time": 88.8340909090909,
                "pitch": 68,
                "velocity": 80,
                "duration": 0.4681818181818187,
                "tempo": 120.0
            },
            {
                "start_time": 88.89999999999999,
                "end_time": 89.36590909090908,
                "pitch": 67,
                "velocity": 80,
                "duration": 0.4659090909090935,
                "tempo": 120.0
            },
            {
                "start_time": 89.4340909090909,
                "end_time": 90.9659090909091,
                "pitch": 67,
                "velocity": 80,
                "duration": 1.5318181818181955,
                "tempo": 120.0
            },
            {
                "start_time": 91.0340909090909,
                "end_time": 91.37045454545454,
                "pitch": 0,
                "velocity": 80,
                "duration": 0.33636363636362887,
                "tempo": 120.0
            },
            {
                "start_time": 91.43863636363636,
                "end_time": 92.18181818181817,
                "pitch": 79,
                "velocity": 80,
                "duration": 0.7431818181818102,
                "tempo": 120.0
            },
            {
                "start_time": 92.25,
                "end_time": 92.58636363636363,
                "pitch": 79,
                "velocity": 80,
                "duration": 0.33636363636362887,
                "tempo": 120.0
            },
            {
                "start_time": 92.65454545454546,
                "end_time": 95.00681818181818,
                "pitch": 77,
                "velocity": 80,
                "duration": 2.3522727272727195,
                "tempo": 120.0
            },
            {
                "start_time": 95.07499999999999,
                "end_time": 95.41818181818181,
                "pitch": 75,
                "velocity": 80,
                "duration": 0.3431818181818187,
                "tempo": 120.0
            },
            {
                "start_time": 95.48636363636363,
                "end_time": 98.24090909090908,
                "pitch": 75,
                "velocity": 80,
                "duration": 2.7545454545454504,
                "tempo": 120.0
            },
            {
                "start_time": 98.3090909090909,
                "end_time": 101.45227272727273,
                "pitch": 79,
                "velocity": 80,
                "duration": 3.14318181818183,
                "tempo": 120.0
            },
            {
                "start_time": 101.52045454545454,
                "end_time": 101.85227272727272,
                "pitch": 72,
                "velocity": 80,
                "duration": 0.33181818181817846,
                "tempo": 120.0
            },
            {
                "start_time": 101.92045454545455,
                "end_time": 102.25227272727273,
                "pitch": 74,
                "velocity": 80,
                "duration": 0.33181818181817846,
                "tempo": 120.0
            },
            {
                "start_time": 102.32045454545454,
                "end_time": 107.09545454545454,
                "pitch": 70,
                "velocity": 80,
                "duration": 4.775000000000006,
                "tempo": 120.0
            },
            {
                "start_time": 107.16363636363636,
                "end_time": 107.89545454545454,
                "pitch": 0,
                "velocity": 80,
                "duration": 0.7318181818181841,
                "tempo": 120.0
            },
            {
                "start_time": 107.96363636363635,
                "end_time": 108.29545454545455,
                "pitch": 72,
                "velocity": 80,
                "duration": 0.33181818181819267,
                "tempo": 120.0
            },
            {
                "start_time": 108.36363636363636,
                "end_time": 108.69545454545454,
                "pitch": 74,
                "velocity": 80,
                "duration": 0.33181818181817846,
                "tempo": 120.0
            },
            {
                "start_time": 108.76363636363637,
                "end_time": 113.51818181818182,
                "pitch": 70,
                "velocity": 80,
                "duration": 4.75454545454545,
                "tempo": 120.0
            },
            {
                "start_time": 113.5840909090909,
                "end_time": 114.32727272727273,
                "pitch": 0,
                "velocity": 80,
                "duration": 0.7431818181818244,
                "tempo": 120.0
            },
            {
                "start_time": 114.39545454545454,
                "end_time": 114.73181818181817,
                "pitch": 72,
                "velocity": 80,
                "duration": 0.33636363636362887,
                "tempo": 120.0
            },
            {
                "start_time": 114.8,
                "end_time": 115.13863636363635,
                "pitch": 74,
                "velocity": 80,
                "duration": 0.3386363636363541,
                "tempo": 120.0
            },
            {
                "start_time": 115.20681818181818,
                "end_time": 117.53863636363636,
                "pitch": 72,
                "velocity": 80,
                "duration": 2.3318181818181785,
                "tempo": 120.0
            },
            {
                "start_time": 117.60681818181817,
                "end_time": 121.58181818181818,
                "pitch": 79,
                "velocity": 80,
                "duration": 3.9750000000000085,
                "tempo": 120.0
            },
            {
                "start_time": 121.64999999999999,
                "end_time": 122.38181818181818,
                "pitch": 60,
                "velocity": 80,
                "duration": 0.7318181818181841,
                "tempo": 120.0
            },
            {
                "start_time": 122.44999999999999,
                "end_time": 123.18181818181817,
                "pitch": 65,
                "velocity": 80,
                "duration": 0.7318181818181841,
                "tempo": 120.0
            },
            {
                "start_time": 123.25,
                "end_time": 123.99318181818181,
                "pitch": 67,
                "velocity": 80,
                "duration": 0.7431818181818102,
                "tempo": 120.0
            },
            {
                "start_time": 124.0590909090909,
                "end_time": 124.80227272727272,
                "pitch": 72,
                "velocity": 80,
                "duration": 0.7431818181818244,
                "tempo": 120.0
            },
            {
                "start_time": 124.87045454545454,
                "end_time": 125.60454545454544,
                "pitch": 77,
                "velocity": 80,
                "duration": 0.7340909090909093,
                "tempo": 120.0
            },
            {
                "start_time": 125.67045454545453,
                "end_time": 126.40454545454544,
                "pitch": 79,
                "velocity": 80,
                "duration": 0.7340909090909093,
                "tempo": 120.0
            },
            {
                "start_time": 126.47045454545454,
                "end_time": 128.025,
                "pitch": 84,
                "velocity": 80,
                "duration": 1.5545454545454618,
                "tempo": 120.0
            },
            {
                "start_time": 128.09318181818182,
                "end_time": 134.56136363636364,
                "pitch": 58,
                "velocity": 80,
                "duration": 6.468181818181819,
                "tempo": 120.0
            }
        ],
        "Acoustic Bass": [
            {
                "start_time": 2.4227272727272724,
                "end_time": 3.9568181818181816,
                "pitch": 32,
                "velocity": 80,
                "duration": 1.5340909090909092,
                "tempo": 120.0
            },
            {
                "start_time": 4.0227272727272725,
                "end_time": 5.556818181818182,
                "pitch": 44,
                "velocity": 80,
                "duration": 1.5340909090909092,
                "tempo": 120.0
            },
            {
                "start_time": 5.622727272727272,
                "end_time": 8.797727272727272,
                "pitch": 43,
                "velocity": 80,
                "duration": 3.175,
                "tempo": 120.0
            },
            {
                "start_time": 8.86590909090909,
                "end_time": 10.420454545454545,
                "pitch": 31,
                "velocity": 80,
                "duration": 1.5545454545454547,
                "tempo": 120.0
            },
            {
                "start_time": 10.488636363636363,
                "end_time": 12.002272727272727,
                "pitch": 43,
                "velocity": 80,
                "duration": 1.5136363636363637,
                "tempo": 120.0
            },
            {
                "start_time": 12.068181818181818,
                "end_time": 15.243181818181817,
                "pitch": 44,
                "velocity": 80,
                "duration": 3.174999999999999,
                "tempo": 120.0
            },
            {
                "start_time": 15.311363636363636,
                "end_time": 16.84318181818182,
                "pitch": 32,
                "velocity": 80,
                "duration": 1.531818181818183,
                "tempo": 120.0
            },
            {
                "start_time": 16.911363636363635,
                "end_time": 18.46363636363636,
                "pitch": 44,
                "velocity": 80,
                "duration": 1.552272727272726,
                "tempo": 120.0
            },
            {
                "start_time": 18.53181818181818,
                "end_time": 20.06590909090909,
                "pitch": 43,
                "velocity": 80,
                "duration": 1.53409090909091,
                "tempo": 120.0
            },
            {
                "start_time": 20.13181818181818,
                "end_time": 21.645454545454545,
                "pitch": 0,
                "velocity": 80,
                "duration": 1.5136363636363654,
                "tempo": 120.0
            },
            {
                "start_time": 21.711363636363636,
                "end_time": 23.30681818181818,
                "pitch": 0,
                "velocity": 80,
                "duration": 1.595454545454544,
                "tempo": 120.0
            },
            {
                "start_time": 23.375,
                "end_time": 23.709090909090907,
                "pitch": 31,
                "velocity": 80,
                "duration": 0.3340909090909072,
                "tempo": 120.0
            },
            {
                "start_time": 23.777272727272727,
                "end_time": 24.10909090909091,
                "pitch": 41,
                "velocity": 80,
                "duration": 0.331818181818182,
                "tempo": 120.0
            },
            {
                "start_time": 24.177272727272726,
                "end_time": 24.909090909090907,
                "pitch": 43,
                "velocity": 80,
                "duration": 0.7318181818181806,
                "tempo": 120.0
            },
            {
                "start_time": 24.977272727272727,
                "end_time": 28.129545454545454,
                "pitch": 41,
                "velocity": 80,
                "duration": 3.1522727272727273,
                "tempo": 120.0
            },
            {
                "start_time": 28.19772727272727,
                "end_time": 31.352272727272727,
                "pitch": 34,
                "velocity": 80,
                "duration": 3.154545454545456,
                "tempo": 120.0
            },
            {
                "start_time": 31.420454545454543,
                "end_time": 34.595454545454544,
                "pitch": 39,
                "velocity": 80,
                "duration": 3.1750000000000007,
                "tempo": 120.0
            },
            {
                "start_time": 34.663636363636364,
                "end_time": 37.775,
                "pitch": 46,
                "velocity": 80,
                "duration": 3.1113636363636346,
                "tempo": 120.0
            },
            {
                "start_time": 37.840909090909086,
                "end_time": 41.018181818181816,
                "pitch": 41,
                "velocity": 80,
                "duration": 3.1772727272727295,
                "tempo": 120.0
            },
            {
                "start_time": 41.084090909090904,
                "end_time": 44.21818181818182,
                "pitch": 34,
                "velocity": 80,
                "duration": 3.134090909090915,
                "tempo": 120.0
            },
            {
                "start_time": 44.28409090909091,
                "end_time": 47.44090909090909,
                "pitch": 39,
                "velocity": 80,
                "duration": 3.1568181818181813,
                "tempo": 120.0
            },
            {
                "start_time": 47.50454545454545,
                "end_time": 50.66136363636363,
                "pitch": 49,
                "velocity": 80,
                "duration": 3.1568181818181813,
                "tempo": 120.0
            },
            {
                "start_time": 50.72727272727273,
                "end_time": 51.06818181818181,
                "pitch": 44,
                "velocity": 80,
                "duration": 0.3409090909090864,
                "tempo": 120.0
            },
            {
                "start_time": 51.13863636363636,
                "end_time": 51.89090909090909,
                "pitch": 0,
                "velocity": 80,
                "duration": 0.7522727272727323,
                "tempo": 120.0
            },
            {
                "start_time": 51.959090909090904,
                "end_time": 55.50454545454545,
                "pitch": 32,
                "velocity": 80,
                "duration": 3.5454545454545467,
                "tempo": 120.0
            },
            {
                "start_time": 55.570454545454545,
                "end_time": 57.14545454545454,
                "pitch": 0,
                "velocity": 80,
                "duration": 1.5749999999999957,
                "tempo": 120.0
            },
            {
                "start_time": 57.21363636363636,
                "end_time": 60.38863636363636,
                "pitch": 31,
                "velocity": 80,
                "duration": 3.174999999999997,
                "tempo": 120.0
            },
            {
                "start_time": 60.45681818181818,
                "end_time": 63.570454545454545,
                "pitch": 43,
                "velocity": 80,
                "duration": 3.113636363636367,
                "tempo": 120.0
            },
            {
                "start_time": 63.63636363636363,
                "end_time": 63.97727272727273,
                "pitch": 44,
                "velocity": 80,
                "duration": 0.3409090909090935,
                "tempo": 120.0
            },
            {
                "start_time": 64.04772727272727,
                "end_time": 64.8,
                "pitch": 0,
                "velocity": 80,
                "duration": 0.7522727272727252,
                "tempo": 120.0
            },
            {
                "start_time": 64.86818181818181,
                "end_time": 68.41136363636363,
                "pitch": 32,
                "velocity": 80,
                "duration": 3.5431818181818215,
                "tempo": 120.0
            },
            {
                "start_time": 68.47954545454544,
                "end_time": 70.05454545454545,
                "pitch": 0,
                "velocity": 80,
                "duration": 1.5750000000000028,
                "tempo": 120.0
            },
            {
                "start_time": 70.12272727272727,
                "end_time": 70.86590909090908,
                "pitch": 43,
                "velocity": 80,
                "duration": 0.7431818181818102,
                "tempo": 120.0
            },
            {
                "start_time": 70.93409090909091,
                "end_time": 71.67727272727272,
                "pitch": 31,
                "velocity": 80,
                "duration": 0.7431818181818102,
                "tempo": 120.0
            },
            {
                "start_time": 71.74545454545454,
                "end_time": 73.27727272727272,
                "pitch": 0,
                "velocity": 80,
                "duration": 1.5318181818181813,
                "tempo": 120.0
            },
            {
                "start_time": 73.34545454545454,
                "end_time": 76.47727272727272,
                "pitch": 31,
                "velocity": 80,
                "duration": 3.1318181818181756,
                "tempo": 120.0
            },
            {
                "start_time": 76.54545454545455,
                "end_time": 79.31363636363636,
                "pitch": 29,
                "velocity": 80,
                "duration": 2.768181818181816,
                "tempo": 120.0
            },
            {
                "start_time": 79.38181818181818,
                "end_time": 82.90227272727272,
                "pitch": 34,
                "velocity": 80,
                "duration": 3.520454545454541,
                "tempo": 120.0
            },
            {
                "start_time": 82.9659090909091,
                "end_time": 86.18636363636364,
                "pitch": 39,
                "velocity": 80,
                "duration": 3.220454545454544,
                "tempo": 120.0
            },
            {
                "start_time": 86.25454545454545,
                "end_time": 89.36590909090908,
                "pitch": 36,
                "velocity": 80,
                "duration": 3.1113636363636346,
                "tempo": 120.0
            },
            {
                "start_time": 89.4340909090909,
                "end_time": 92.58636363636363,
                "pitch": 41,
                "velocity": 80,
                "duration": 3.152272727272731,
                "tempo": 120.0
            },
            {
                "start_time": 92.65454545454546,
                "end_time": 95.82954545454545,
                "pitch": 34,
                "velocity": 80,
                "duration": 3.174999999999997,
                "tempo": 120.0
            },
            {
                "start_time": 95.89772727272727,
                "end_time": 99.05227272727272,
                "pitch": 41,
                "velocity": 80,
                "duration": 3.154545454545456,
                "tempo": 120.0
            },
            {
                "start_time": 99.12045454545454,
                "end_time": 100.65227272727272,
                "pitch": 41,
                "velocity": 80,
                "duration": 1.5318181818181813,
                "tempo": 120.0
            },
            {
                "start_time": 100.72045454545454,
                "end_time": 102.25227272727273,
                "pitch": 43,
                "velocity": 80,
                "duration": 1.5318181818181813,
                "tempo": 120.0
            },
            {
                "start_time": 102.32045454545454,
                "end_time": 103.85227272727272,
                "pitch": 36,
                "velocity": 80,
                "duration": 1.5318181818181813,
                "tempo": 120.0
            },
            {
                "start_time": 103.92045454545455,
                "end_time": 105.47272727272727,
                "pitch": 46,
                "velocity": 80,
                "duration": 1.5522727272727224,
                "tempo": 120.0
            },
            {
                "start_time": 105.54090909090908,
                "end_time": 107.09545454545454,
                "pitch": 41,
                "velocity": 80,
                "duration": 1.5545454545454618,
                "tempo": 120.0
            },
            {
                "start_time": 107.16363636363636,
                "end_time": 108.69545454545454,
                "pitch": 34,
                "velocity": 80,
                "duration": 1.5318181818181813,
                "tempo": 120.0
            },
            {
                "start_time": 108.76363636363637,
                "end_time": 110.29545454545455,
                "pitch": 39,
                "velocity": 80,
                "duration": 1.5318181818181813,
                "tempo": 120.0
            },
            {
                "start_time": 110.36363636363636,
                "end_time": 111.91590909090908,
                "pitch": 43,
                "velocity": 80,
                "duration": 1.5522727272727224,
                "tempo": 120.0
            },
            {
                "start_time": 111.98409090909091,
                "end_time": 113.51818181818182,
                "pitch": 41,
                "velocity": 80,
                "duration": 1.5340909090909065,
                "tempo": 120.0
            },
            {
                "start_time": 113.5840909090909,
                "end_time": 115.13863636363635,
                "pitch": 44,
                "velocity": 80,
                "duration": 1.5545454545454476,
                "tempo": 120.0
            },
            {
                "start_time": 115.20681818181818,
                "end_time": 118.33863636363635,
                "pitch": 39,
                "velocity": 80,
                "duration": 3.1318181818181756,
                "tempo": 120.0
            },
            {
                "start_time": 118.40681818181818,
                "end_time": 119.43181818181817,
                "pitch": 44,
                "velocity": 80,
                "duration": 1.0249999999999915,
                "tempo": 120.0
            },
            {
                "start_time": 119.50227272727273,
                "end_time": 128.025,
                "pitch": 44,
                "velocity": 80,
                "duration": 8.52272727272728,
                "tempo": 120.0
            },
            {
                "start_time": 128.09318181818182,
                "end_time": 134.56136363636364,
                "pitch": 34,
                "velocity": 80,
                "duration": 6.468181818181819,
                "tempo": 120.0
            }
        ],
        "Vibraphone": [
            {
                "start_time": 2.4227272727272724,
                "end_time": 3.1568181818181817,
                "pitch": 0,
                "velocity": 80,
                "duration": 0.7340909090909093,
                "tempo": 120.0
            },
            {
                "start_time": 3.2227272727272727,
                "end_time": 5.556818181818182,
                "pitch": 72,
                "velocity": 80,
                "duration": 2.334090909090909,
                "tempo": 120.0
            },
            {
                "start_time": 5.622727272727272,
                "end_time": 8.386363636363637,
                "pitch": 65,
                "velocity": 80,
                "duration": 2.7636363636363646,
                "tempo": 120.0
            },
            {
                "start_time": 8.454545454545453,
                "end_time": 10.420454545454545,
                "pitch": 62,
                "velocity": 80,
                "duration": 1.9659090909090917,
                "tempo": 120.0
            },
            {
                "start_time": 10.488636363636363,
                "end_time": 10.818181818181818,
                "pitch": 58,
                "velocity": 80,
                "duration": 0.32954545454545503,
                "tempo": 120.0
            },
            {
                "start_time": 10.881818181818181,
                "end_time": 11.211363636363636,
                "pitch": 60,
                "velocity": 80,
                "duration": 0.32954545454545503,
                "tempo": 120.0
            },
            {
                "start_time": 11.277272727272727,
                "end_time": 11.60681818181818,
                "pitch": 63,
                "velocity": 80,
                "duration": 0.32954545454545325,
                "tempo": 120.0
            },
            {
                "start_time": 11.672727272727272,
                "end_time": 12.002272727272727,
                "pitch": 65,
                "velocity": 80,
                "duration": 0.32954545454545503,
                "tempo": 120.0
            },
            {
                "start_time": 12.068181818181818,
                "end_time": 15.243181818181817,
                "pitch": 60,
                "velocity": 80,
                "duration": 3.174999999999999,
                "tempo": 120.0
            },
            {
                "start_time": 15.311363636363636,
                "end_time": 16.043181818181818,
                "pitch": 0,
                "velocity": 80,
                "duration": 0.7318181818181824,
                "tempo": 120.0
            },
            {
                "start_time": 16.111363636363635,
                "end_time": 18.46363636363636,
                "pitch": 60,
                "velocity": 80,
                "duration": 2.3522727272727266,
                "tempo": 120.0
            },
            {
                "start_time": 18.53181818181818,
                "end_time": 20.06590909090909,
                "pitch": 58,
                "velocity": 80,
                "duration": 1.53409090909091,
                "tempo": 120.0
            },
            {
                "start_time": 20.13181818181818,
                "end_time": 20.854545454545452,
                "pitch": 0,
                "velocity": 80,
                "duration": 0.7227272727272727,
                "tempo": 120.0
            },
            {
                "start_time": 20.920454545454543,
                "end_time": 21.25,
                "pitch": 58,
                "velocity": 80,
                "duration": 0.3295454545454568,
                "tempo": 120.0
            },
            {
                "start_time": 21.31590909090909,
                "end_time": 23.30681818181818,
                "pitch": 55,
                "velocity": 80,
                "duration": 1.9909090909090885,
                "tempo": 120.0
            },
            {
                "start_time": 23.375,
                "end_time": 24.909090909090907,
                "pitch": 0,
                "velocity": 80,
                "duration": 1.5340909090909065,
                "tempo": 120.0
            },
            {
                "start_time": 24.977272727272727,
                "end_time": 26.10909090909091,
                "pitch": 62,
                "velocity": 80,
                "duration": 1.1318181818181827,
                "tempo": 120.0
            },
            {
                "start_time": 26.177272727272726,
                "end_time": 28.129545454545454,
                "pitch": 60,
                "velocity": 80,
                "duration": 1.952272727272728,
                "tempo": 120.0
            },
            {
                "start_time": 28.19772727272727,
                "end_time": 28.940909090909088,
                "pitch": 0,
                "velocity": 80,
                "duration": 0.7431818181818173,
                "tempo": 120.0
            },
            {
                "start_time": 29.009090909090908,
                "end_time": 29.752272727272725,
                "pitch": 58,
                "velocity": 80,
                "duration": 0.7431818181818173,
                "tempo": 120.0
            },
            {
                "start_time": 29.820454545454545,
                "end_time": 30.286363636363635,
                "pitch": 60,
                "velocity": 80,
                "duration": 0.46590909090908994,
                "tempo": 120.0
            },
            {
                "start_time": 30.352272727272727,
                "end_time": 30.820454545454545,
                "pitch": 63,
                "velocity": 80,
                "duration": 0.4681818181818187,
                "tempo": 120.0
            },
            {
                "start_time": 30.886363636363633,
                "end_time": 31.352272727272727,
                "pitch": 65,
                "velocity": 80,
                "duration": 0.4659090909090935,
                "tempo": 120.0
            },
            {
                "start_time": 31.420454545454543,
                "end_time": 32.56818181818182,
                "pitch": 62,
                "velocity": 80,
                "duration": 1.147727272727277,
                "tempo": 120.0
            },
            {
                "start_time": 32.63636363636363,
                "end_time": 34.595454545454544,
                "pitch": 63,
                "velocity": 80,
                "duration": 1.9590909090909108,
                "tempo": 120.0
            },
            {
                "start_time": 34.663636363636364,
                "end_time": 37.775,
                "pitch": 58,
                "velocity": 80,
                "duration": 3.1113636363636346,
                "tempo": 120.0
            },
            {
                "start_time": 37.840909090909086,
                "end_time": 41.018181818181816,
                "pitch": 63,
                "velocity": 80,
                "duration": 3.1772727272727295,
                "tempo": 120.0
            },
            {
                "start_time": 41.084090909090904,
                "end_time": 42.63863636363636,
                "pitch": 62,
                "velocity": 80,
                "duration": 1.5545454545454547,
                "tempo": 120.0
            },
            {
                "start_time": 42.70454545454545,
                "end_time": 43.03409090909091,
                "pitch": 0,
                "velocity": 80,
                "duration": 0.32954545454545325,
                "tempo": 120.0
            },
            {
                "start_time": 43.1,
                "end_time": 43.824999999999996,
                "pitch": 70,
                "velocity": 80,
                "duration": 0.7249999999999943,
                "tempo": 120.0
            },
            {
                "start_time": 43.88863636363636,
                "end_time": 44.21818181818182,
                "pitch": 69,
                "velocity": 80,
                "duration": 0.32954545454546036,
                "tempo": 120.0
            },
            {
                "start_time": 44.28409090909091,
                "end_time": 47.44090909090909,
                "pitch": 67,
                "velocity": 80,
                "duration": 3.1568181818181813,
                "tempo": 120.0
            },
            {
                "start_time": 47.50454545454545,
                "end_time": 50.66136363636363,
                "pitch": 67,
                "velocity": 80,
                "duration": 3.1568181818181813,
                "tempo": 120.0
            },
            {
                "start_time": 50.72727272727273,
                "end_time": 51.06818181818181,
                "pitch": 70,
                "velocity": 80,
                "duration": 0.3409090909090864,
                "tempo": 120.0
            },
            {
                "start_time": 51.13863636363636,
                "end_time": 51.47954545454545,
                "pitch": 79,
                "velocity": 80,
                "duration": 0.3409090909090935,
                "tempo": 120.0
            },
            {
                "start_time": 51.54772727272727,
                "end_time": 51.89090909090909,
                "pitch": 77,
                "velocity": 80,
                "duration": 0.3431818181818187,
                "tempo": 120.0
            },
            {
                "start_time": 51.959090909090904,
                "end_time": 53.90454545454545,
                "pitch": 70,
                "velocity": 80,
                "duration": 1.9454545454545453,
                "tempo": 120.0
            },
            {
                "start_time": 53.970454545454544,
                "end_time": 54.70454545454545,
                "pitch": 0,
                "velocity": 80,
                "duration": 0.7340909090909093,
                "tempo": 120.0
            },
            {
                "start_time": 54.77045454545454,
                "end_time": 55.50454545454545,
                "pitch": 63,
                "velocity": 80,
                "duration": 0.7340909090909093,
                "tempo": 120.0
            },
            {
                "start_time": 55.570454545454545,
                "end_time": 56.32272727272727,
                "pitch": 65,
                "velocity": 80,
                "duration": 0.7522727272727252,
                "tempo": 120.0
            },
            {
                "start_time": 56.39090909090909,
                "end_time": 57.14545454545454,
                "pitch": 63,
                "velocity": 80,
                "duration": 0.7545454545454504,
                "tempo": 120.0
            },
            {
                "start_time": 57.21363636363636,
                "end_time": 58.768181818181816,
                "pitch": 65,
                "velocity": 80,
                "duration": 1.5545454545454547,
                "tempo": 120.0
            },
            {
                "start_time": 58.836363636363636,
                "end_time": 59.98409090909091,
                "pitch": 0,
                "velocity": 80,
                "duration": 1.1477272727272734,
                "tempo": 120.0
            },
            {
                "start_time": 60.05227272727272,
                "end_time": 62.01136363636363,
                "pitch": 50,
                "velocity": 80,
                "duration": 1.9590909090909108,
                "tempo": 120.0
            },
            {
                "start_time": 62.07727272727272,
                "end_time": 62.402272727272724,
                "pitch": 0,
                "velocity": 80,
                "duration": 0.32500000000000284,
                "tempo": 120.0
            },
            {
                "start_time": 62.465909090909086,
                "end_time": 62.79090909090909,
                "pitch": 72,
                "velocity": 80,
                "duration": 0.32500000000000284,
                "tempo": 120.0
            },
            {
                "start_time": 62.85681818181818,
                "end_time": 63.18181818181818,
                "pitch": 75,
                "velocity": 80,
                "duration": 0.32500000000000284,
                "tempo": 120.0
            },
            {
                "start_time": 63.24545454545454,
                "end_time": 63.570454545454545,
                "pitch": 77,
                "velocity": 80,
                "duration": 0.32500000000000284,
                "tempo": 120.0
            },
            {
                "start_time": 63.63636363636363,
                "end_time": 63.97727272727273,
                "pitch": 70,
                "velocity": 80,
                "duration": 0.3409090909090935,
                "tempo": 120.0
            },
            {
                "start_time": 64.04772727272727,
                "end_time": 64.38863636363637,
                "pitch": 79,
                "velocity": 80,
                "duration": 0.3409090909090935,
                "tempo": 120.0
            },
            {
                "start_time": 64.45681818181818,
                "end_time": 64.8,
                "pitch": 77,
                "velocity": 80,
                "duration": 0.3431818181818187,
                "tempo": 120.0
            },
            {
                "start_time": 64.86818181818181,
                "end_time": 66.81136363636364,
                "pitch": 70,
                "velocity": 80,
                "duration": 1.9431818181818272,
                "tempo": 120.0
            },
            {
                "start_time": 66.87954545454545,
                "end_time": 67.61136363636363,
                "pitch": 0,
                "velocity": 80,
                "duration": 0.7318181818181841,
                "tempo": 120.0
            },
            {
                "start_time": 67.67954545454545,
                "end_time": 68.41136363636363,
                "pitch": 63,
                "velocity": 80,
                "duration": 0.7318181818181841,
                "tempo": 120.0
            },
            {
                "start_time": 68.47954545454544,
                "end_time": 69.23181818181818,
                "pitch": 65,
                "velocity": 80,
                "duration": 0.7522727272727394,
                "tempo": 120.0
            },
            {
                "start_time": 69.3,
                "end_time": 70.05454545454545,
                "pitch": 63,
                "velocity": 80,
                "duration": 0.7545454545454504,
                "tempo": 120.0
            },
            {
                "start_time": 70.12272727272727,
                "end_time": 70.86590909090908,
                "pitch": 65,
                "velocity": 80,
                "duration": 0.7431818181818102,
                "tempo": 120.0
            },
            {
                "start_time": 70.93409090909091,
                "end_time": 71.67727272727272,
                "pitch": 65,
                "velocity": 80,
                "duration": 0.7431818181818102,
                "tempo": 120.0
            },
            {
                "start_time": 71.74545454545454,
                "end_time": 72.47727272727272,
                "pitch": 0,
                "velocity": 80,
                "duration": 0.7318181818181841,
                "tempo": 120.0
            },
            {
                "start_time": 72.54545454545455,
                "end_time": 73.27727272727272,
                "pitch": 74,
                "velocity": 80,
                "duration": 0.7318181818181699,
                "tempo": 120.0
            },
            {
                "start_time": 73.34545454545454,
                "end_time": 73.67727272727272,
                "pitch": 70,
                "velocity": 80,
                "duration": 0.33181818181817846,
                "tempo": 120.0
            },
            {
                "start_time": 73.74545454545454,
                "end_time": 76.47727272727272,
                "pitch": 65,
                "velocity": 80,
                "duration": 2.731818181818184,
                "tempo": 120.0
            },
            {
                "start_time": 76.54545454545455,
                "end_time": 77.28863636363636,
                "pitch": 56,
                "velocity": 80,
                "duration": 0.7431818181818102,
                "tempo": 120.0
            },
            {
                "start_time": 77.35454545454544,
                "end_time": 79.31363636363636,
                "pitch": 0,
                "velocity": 80,
                "duration": 1.9590909090909179,
                "tempo": 120.0
            },
            {
                "start_time": 79.38181818181818,
                "end_time": 80.54090909090908,
                "pitch": 56,
                "velocity": 80,
                "duration": 1.1590909090909065,
                "tempo": 120.0
            },
            {
                "start_time": 80.60909090909091,
                "end_time": 82.90227272727272,
                "pitch": 0,
                "velocity": 80,
                "duration": 2.2931818181818073,
                "tempo": 120.0
            },
            {
                "start_time": 82.9659090909091,
                "end_time": 84.13181818181818,
                "pitch": 72,
                "velocity": 80,
                "duration": 1.1659090909090821,
                "tempo": 120.0
            },
            {
                "start_time": 84.2,
                "end_time": 86.18636363636364,
                "pitch": 67,
                "velocity": 80,
                "duration": 1.9863636363636346,
                "tempo": 120.0
            },
            {
                "start_time": 86.25454545454545,
                "end_time": 86.7159090909091,
                "pitch": 67,
                "velocity": 80,
                "duration": 0.4613636363636431,
                "tempo": 120.0
            },
            {
                "start_time": 86.78181818181818,
                "end_time": 89.36590909090908,
                "pitch": 64,
                "velocity": 80,
                "duration": 2.5840909090909037,
                "tempo": 120.0
            },
            {
                "start_time": 89.4340909090909,
                "end_time": 90.9659090909091,
                "pitch": 63,
                "velocity": 80,
                "duration": 1.5318181818181955,
                "tempo": 120.0
            },
            {
                "start_time": 91.0340909090909,
                "end_time": 91.37045454545454,
                "pitch": 0,
                "velocity": 80,
                "duration": 0.33636363636362887,
                "tempo": 120.0
            },
            {
                "start_time": 91.43863636363636,
                "end_time": 92.18181818181817,
                "pitch": 77,
                "velocity": 80,
                "duration": 0.7431818181818102,
                "tempo": 120.0
            },
            {
                "start_time": 92.25,
                "end_time": 92.58636363636363,
                "pitch": 79,
                "velocity": 80,
                "duration": 0.33636363636362887,
                "tempo": 120.0
            },
            {
                "start_time": 92.65454545454546,
                "end_time": 95.00681818181818,
                "pitch": 72,
                "velocity": 80,
                "duration": 2.3522727272727195,
                "tempo": 120.0
            },
            {
                "start_time": 95.07499999999999,
                "end_time": 95.82954545454545,
                "pitch": 0,
                "velocity": 80,
                "duration": 0.7545454545454646,
                "tempo": 120.0
            },
            {
                "start_time": 95.89772727272727,
                "end_time": 98.24090909090908,
                "pitch": 67,
                "velocity": 80,
                "duration": 2.3431818181818187,
                "tempo": 120.0
            },
            {
                "start_time": 98.3090909090909,
                "end_time": 101.45227272727273,
                "pitch": 68,
                "velocity": 80,
                "duration": 3.14318181818183,
                "tempo": 120.0
            },
            {
                "start_time": 101.52045454545454,
                "end_time": 101.85227272727272,
                "pitch": 72,
                "velocity": 80,
                "duration": 0.33181818181817846,
                "tempo": 120.0
            },
            {
                "start_time": 101.92045454545455,
                "end_time": 102.25227272727273,
                "pitch": 74,
                "velocity": 80,
                "duration": 0.33181818181817846,
                "tempo": 120.0
            },
            {
                "start_time": 102.32045454545454,
                "end_time": 107.09545454545454,
                "pitch": 67,
                "velocity": 80,
                "duration": 4.775000000000006,
                "tempo": 120.0
            },
            {
                "start_time": 107.16363636363636,
                "end_time": 107.89545454545454,
                "pitch": 0,
                "velocity": 80,
                "duration": 0.7318181818181841,
                "tempo": 120.0
            },
            {
                "start_time": 107.96363636363635,
                "end_time": 108.29545454545455,
                "pitch": 72,
                "velocity": 80,
                "duration": 0.33181818181819267,
                "tempo": 120.0
            },
            {
                "start_time": 108.36363636363636,
                "end_time": 108.69545454545454,
                "pitch": 74,
                "velocity": 80,
                "duration": 0.33181818181817846,
                "tempo": 120.0
            },
            {
                "start_time": 108.76363636363637,
                "end_time": 113.51818181818182,
                "pitch": 67,
                "velocity": 80,
                "duration": 4.75454545454545,
                "tempo": 120.0
            },
            {
                "start_time": 113.5840909090909,
                "end_time": 114.32727272727273,
                "pitch": 0,
                "velocity": 80,
                "duration": 0.7431818181818244,
                "tempo": 120.0
            },
            {
                "start_time": 114.39545454545454,
                "end_time": 114.73181818181817,
                "pitch": 72,
                "velocity": 80,
                "duration": 0.33636363636362887,
                "tempo": 120.0
            },
            {
                "start_time": 114.8,
                "end_time": 115.13863636363635,
                "pitch": 74,
                "velocity": 80,
                "duration": 0.3386363636363541,
                "tempo": 120.0
            },
            {
                "start_time": 115.20681818181818,
                "end_time": 117.53863636363636,
                "pitch": 67,
                "velocity": 80,
                "duration": 2.3318181818181785,
                "tempo": 120.0
            },
            {
                "start_time": 117.60681818181817,
                "end_time": 121.58181818181818,
                "pitch": 67,
                "velocity": 80,
                "duration": 3.9750000000000085,
                "tempo": 120.0
            },
            {
                "start_time": 121.64999999999999,
                "end_time": 122.38181818181818,
                "pitch": 60,
                "velocity": 80,
                "duration": 0.7318181818181841,
                "tempo": 120.0
            },
            {
                "start_time": 122.44999999999999,
                "end_time": 123.18181818181817,
                "pitch": 65,
                "velocity": 80,
                "duration": 0.7318181818181841,
                "tempo": 120.0
            },
            {
                "start_time": 123.25,
                "end_time": 123.99318181818181,
                "pitch": 67,
                "velocity": 80,
                "duration": 0.7431818181818102,
                "tempo": 120.0
            },
            {
                "start_time": 124.0590909090909,
                "end_time": 124.80227272727272,
                "pitch": 72,
                "velocity": 80,
                "duration": 0.7431818181818244,
                "tempo": 120.0
            },
            {
                "start_time": 124.87045454545454,
                "end_time": 125.60454545454544,
                "pitch": 77,
                "velocity": 80,
                "duration": 0.7340909090909093,
                "tempo": 120.0
            },
            {
                "start_time": 125.67045454545453,
                "end_time": 126.40454545454544,
                "pitch": 79,
                "velocity": 80,
                "duration": 0.7340909090909093,
                "tempo": 120.0
            },
            {
                "start_time": 126.47045454545454,
                "end_time": 128.025,
                "pitch": 84,
                "velocity": 80,
                "duration": 1.5545454545454618,
                "tempo": 120.0
            },
            {
                "start_time": 128.09318181818182,
                "end_time": 134.56136363636364,
                "pitch": 53,
                "velocity": 80,
                "duration": 6.468181818181819,
                "tempo": 120.0
            }
        ]
    }
}