{
    "track_id": "Out Run 3D (FM) - 05 - Last Wave",
    "mood": "relaxed",
    "instruments": {
        "Vibraphone": [
            {
                "start_time": 0.0,
                "end_time": 0.029545454545454545,
                "pitch": 64,
                "velocity": 40,
                "duration": 0.029545454545454545,
                "tempo": 120.0
            },
            {
                "start_time": 0.045454545454545456,
                "end_time": 1.7954545454545454,
                "pitch": 81,
                "velocity": 40,
                "duration": 1.75,
                "tempo": 120.0
            },
            {
                "start_time": 2.2477272727272726,
                "end_time": 2.690909090909091,
                "pitch": 72,
                "velocity": 40,
                "duration": 0.44318181818181834,
                "tempo": 120.0
            },
            {
                "start_time": 2.7068181818181816,
                "end_time": 3.1409090909090907,
                "pitch": 71,
                "velocity": 40,
                "duration": 0.4340909090909091,
                "tempo": 120.0
            },
            {
                "start_time": 3.1590909090909087,
                "end_time": 3.593181818181818,
                "pitch": 69,
                "velocity": 40,
                "duration": 0.4340909090909091,
                "tempo": 120.0
            },
            {
                "start_time": 3.6113636363636363,
                "end_time": 4.9386363636363635,
                "pitch": 76,
                "velocity": 40,
                "duration": 1.3272727272727272,
                "tempo": 120.0
            },
            {
                "start_time": 4.954545454545454,
                "end_time": 5.3999999999999995,
                "pitch": 76,
                "velocity": 40,
                "duration": 0.4454545454545453,
                "tempo": 120.0
            },
            {
                "start_time": 5.415909090909091,
                "end_time": 6.077272727272727,
                "pitch": 76,
                "velocity": 40,
                "duration": 0.6613636363636362,
                "tempo": 120.0
            },
            {
                "start_time": 6.111363636363636,
                "end_time": 6.754545454545454,
                "pitch": 76,
                "velocity": 40,
                "duration": 0.6431818181818176,
                "tempo": 120.0
            },
            {
                "start_time": 6.7704545454545455,
                "end_time": 7.204545454545454,
                "pitch": 76,
                "velocity": 40,
                "duration": 0.43409090909090864,
                "tempo": 120.0
            },
            {
                "start_time": 7.222727272727273,
                "end_time": 9.018181818181818,
                "pitch": 81,
                "velocity": 40,
                "duration": 1.795454545454545,
                "tempo": 120.0
            },
            {
                "start_time": 9.477272727272727,
                "end_time": 9.913636363636364,
                "pitch": 72,
                "velocity": 40,
                "duration": 0.4363636363636374,
                "tempo": 120.0
            },
            {
                "start_time": 9.929545454545455,
                "end_time": 10.363636363636363,
                "pitch": 71,
                "velocity": 40,
                "duration": 0.43409090909090864,
                "tempo": 120.0
            },
            {
                "start_time": 10.381818181818181,
                "end_time": 10.825,
                "pitch": 69,
                "velocity": 40,
                "duration": 0.44318181818181834,
                "tempo": 120.0
            },
            {
                "start_time": 10.843181818181817,
                "end_time": 11.718181818181817,
                "pitch": 55,
                "velocity": 40,
                "duration": 0.875,
                "tempo": 120.0
            },
            {
                "start_time": 11.73409090909091,
                "end_time": 12.170454545454545,
                "pitch": 59,
                "velocity": 40,
                "duration": 0.4363636363636356,
                "tempo": 120.0
            },
            {
                "start_time": 12.186363636363636,
                "end_time": 12.393181818181818,
                "pitch": 55,
                "velocity": 40,
                "duration": 0.206818181818182,
                "tempo": 120.0
            },
            {
                "start_time": 12.427272727272726,
                "end_time": 13.522727272727272,
                "pitch": 52,
                "velocity": 40,
                "duration": 1.0954545454545457,
                "tempo": 120.0
            },
            {
                "start_time": 14.434090909090909,
                "end_time": 15.636363636363635,
                "pitch": 74,
                "velocity": 40,
                "duration": 1.2022727272727263,
                "tempo": 120.0
            },
            {
                "start_time": 15.654545454545454,
                "end_time": 16.23181818181818,
                "pitch": 77,
                "velocity": 40,
                "duration": 0.5772727272727263,
                "tempo": 120.0
            },
            {
                "start_time": 16.24772727272727,
                "end_time": 17.125,
                "pitch": 74,
                "velocity": 40,
                "duration": 0.8772727272727288,
                "tempo": 120.0
            },
            {
                "start_time": 17.14090909090909,
                "end_time": 18.036363636363635,
                "pitch": 74,
                "velocity": 40,
                "duration": 0.8954545454545446,
                "tempo": 120.0
            },
            {
                "start_time": 18.054545454545455,
                "end_time": 18.938636363636363,
                "pitch": 74,
                "velocity": 40,
                "duration": 0.8840909090909079,
                "tempo": 120.0
            },
            {
                "start_time": 19.18409090909091,
                "end_time": 19.38181818181818,
                "pitch": 76,
                "velocity": 40,
                "duration": 0.19772727272727053,
                "tempo": 120.0
            },
            {
                "start_time": 19.4,
                "end_time": 19.60909090909091,
                "pitch": 80,
                "velocity": 40,
                "duration": 0.20909090909091077,
                "tempo": 120.0
            },
            {
                "start_time": 19.643181818181816,
                "end_time": 19.852272727272727,
                "pitch": 86,
                "velocity": 40,
                "duration": 0.20909090909091077,
                "tempo": 120.0
            },
            {
                "start_time": 20.320454545454545,
                "end_time": 20.754545454545454,
                "pitch": 85,
                "velocity": 40,
                "duration": 0.43409090909090864,
                "tempo": 120.0
            },
            {
                "start_time": 20.772727272727273,
                "end_time": 21.206818181818182,
                "pitch": 86,
                "velocity": 40,
                "duration": 0.43409090909090864,
                "tempo": 120.0
            },
            {
                "start_time": 21.222727272727273,
                "end_time": 21.65681818181818,
                "pitch": 88,
                "velocity": 40,
                "duration": 0.43409090909090864,
                "tempo": 120.0
            },
            {
                "start_time": 21.675,
                "end_time": 23.011363636363637,
                "pitch": 81,
                "velocity": 40,
                "duration": 1.336363636363636,
                "tempo": 120.0
            },
            {
                "start_time": 23.027272727272727,
                "end_time": 24.36590909090909,
                "pitch": 84,
                "velocity": 40,
                "duration": 1.3386363636363612,
                "tempo": 120.0
            },
            {
                "start_time": 24.38181818181818,
                "end_time": 24.81590909090909,
                "pitch": 83,
                "velocity": 40,
                "duration": 0.4340909090909122,
                "tempo": 120.0
            },
            {
                "start_time": 24.831818181818182,
                "end_time": 25.259090909090908,
                "pitch": 86,
                "velocity": 40,
                "duration": 0.4272727272727259,
                "tempo": 120.0
            },
            {
                "start_time": 25.275,
                "end_time": 26.170454545454543,
                "pitch": 83,
                "velocity": 40,
                "duration": 0.8954545454545446,
                "tempo": 120.0
            },
            {
                "start_time": 26.188636363636363,
                "end_time": 27.063636363636363,
                "pitch": 83,
                "velocity": 40,
                "duration": 0.875,
                "tempo": 120.0
            },
            {
                "start_time": 27.081818181818182,
                "end_time": 27.525,
                "pitch": 76,
                "velocity": 40,
                "duration": 0.44318181818181657,
                "tempo": 120.0
            },
            {
                "start_time": 27.54090909090909,
                "end_time": 27.977272727272727,
                "pitch": 77,
                "velocity": 40,
                "duration": 0.4363636363636374,
                "tempo": 120.0
            },
            {
                "start_time": 27.993181818181817,
                "end_time": 28.193181818181817,
                "pitch": 79,
                "velocity": 40,
                "duration": 0.1999999999999993,
                "tempo": 120.0
            },
            {
                "start_time": 28.227272727272727,
                "end_time": 28.424999999999997,
                "pitch": 79,
                "velocity": 40,
                "duration": 0.19772727272727053,
                "tempo": 120.0
            },
            {
                "start_time": 28.877272727272725,
                "end_time": 29.081818181818182,
                "pitch": 84,
                "velocity": 51,
                "duration": 0.2045454545454568,
                "tempo": 120.0
            },
            {
                "start_time": 29.11590909090909,
                "end_time": 29.320454545454545,
                "pitch": 84,
                "velocity": 51,
                "duration": 0.2045454545454568,
                "tempo": 120.0
            },
            {
                "start_time": 30.238636363636363,
                "end_time": 32.470454545454544,
                "pitch": 84,
                "velocity": 51,
                "duration": 2.2318181818181806,
                "tempo": 120.0
            },
            {
                "start_time": 32.486363636363635,
                "end_time": 32.69318181818182,
                "pitch": 83,
                "velocity": 51,
                "duration": 0.20681818181818556,
                "tempo": 120.0
            },
            {
                "start_time": 32.72727272727273,
                "end_time": 32.929545454545455,
                "pitch": 83,
                "velocity": 51,
                "duration": 0.20227272727272805,
                "tempo": 120.0
            },
            {
                "start_time": 33.840909090909086,
                "end_time": 36.07954545454545,
                "pitch": 83,
                "velocity": 51,
                "duration": 2.238636363636367,
                "tempo": 120.0
            },
            {
                "start_time": 36.09772727272727,
                "end_time": 36.30227272727272,
                "pitch": 84,
                "velocity": 51,
                "duration": 0.20454545454545325,
                "tempo": 120.0
            },
            {
                "start_time": 36.336363636363636,
                "end_time": 36.54090909090909,
                "pitch": 84,
                "velocity": 51,
                "duration": 0.20454545454545325,
                "tempo": 120.0
            },
            {
                "start_time": 37.461363636363636,
                "end_time": 39.699999999999996,
                "pitch": 84,
                "velocity": 51,
                "duration": 2.2386363636363598,
                "tempo": 120.0
            },
            {
                "start_time": 39.71818181818182,
                "end_time": 40.152272727272724,
                "pitch": 83,
                "velocity": 51,
                "duration": 0.4340909090909051,
                "tempo": 120.0
            },
            {
                "start_time": 40.168181818181814,
                "end_time": 40.61363636363636,
                "pitch": 83,
                "velocity": 51,
                "duration": 0.4454545454545453,
                "tempo": 120.0
            },
            {
                "start_time": 41.07954545454545,
                "end_time": 42.40909090909091,
                "pitch": 83,
                "velocity": 51,
                "duration": 1.3295454545454533,
                "tempo": 120.0
            },
            {
                "start_time": 42.42727272727272,
                "end_time": 42.63181818181818,
                "pitch": 76,
                "velocity": 51,
                "duration": 0.20454545454546036,
                "tempo": 120.0
            },
            {
                "start_time": 42.66590909090909,
                "end_time": 42.87045454545454,
                "pitch": 79,
                "velocity": 51,
                "duration": 0.20454545454545325,
                "tempo": 120.0
            },
            {
                "start_time": 42.88636363636363,
                "end_time": 43.08181818181818,
                "pitch": 83,
                "velocity": 51,
                "duration": 0.19545454545454533,
                "tempo": 120.0
            },
            {
                "start_time": 43.11590909090909,
                "end_time": 43.31136363636364,
                "pitch": 86,
                "velocity": 51,
                "duration": 0.19545454545454533,
                "tempo": 120.0
            },
            {
                "start_time": 43.32954545454545,
                "end_time": 44.43636363636364,
                "pitch": 84,
                "velocity": 51,
                "duration": 1.1068181818181841,
                "tempo": 120.0
            },
            {
                "start_time": 44.46818181818182,
                "end_time": 45.11818181818182,
                "pitch": 84,
                "velocity": 51,
                "duration": 0.6499999999999986,
                "tempo": 120.0
            },
            {
                "start_time": 45.13409090909091,
                "end_time": 46.92272727272727,
                "pitch": 86,
                "velocity": 51,
                "duration": 1.788636363636364,
                "tempo": 120.0
            },
            {
                "start_time": 46.93863636363636,
                "end_time": 48.277272727272724,
                "pitch": 86,
                "velocity": 51,
                "duration": 1.3386363636363612,
                "tempo": 120.0
            },
            {
                "start_time": 48.293181818181814,
                "end_time": 48.72727272727273,
                "pitch": 86,
                "velocity": 51,
                "duration": 0.4340909090909122,
                "tempo": 120.0
            },
            {
                "start_time": 48.74545454545454,
                "end_time": 49.62954545454545,
                "pitch": 88,
                "velocity": 51,
                "duration": 0.8840909090909079,
                "tempo": 120.0
            },
            {
                "start_time": 49.64772727272727,
                "end_time": 49.84772727272727,
                "pitch": 79,
                "velocity": 51,
                "duration": 0.19999999999999574,
                "tempo": 120.0
            },
            {
                "start_time": 49.88181818181818,
                "end_time": 50.08181818181818,
                "pitch": 85,
                "velocity": 51,
                "duration": 0.19999999999999574,
                "tempo": 120.0
            },
            {
                "start_time": 50.099999999999994,
                "end_time": 50.543181818181814,
                "pitch": 88,
                "velocity": 51,
                "duration": 0.4431818181818201,
                "tempo": 120.0
            },
            {
                "start_time": 50.559090909090905,
                "end_time": 52.34772727272727,
                "pitch": 81,
                "velocity": 51,
                "duration": 1.788636363636364,
                "tempo": 120.0
            },
            {
                "start_time": 52.36363636363636,
                "end_time": 54.143181818181816,
                "pitch": 77,
                "velocity": 51,
                "duration": 1.779545454545456,
                "tempo": 120.0
            },
            {
                "start_time": 54.16136363636363,
                "end_time": 54.595454545454544,
                "pitch": 72,
                "velocity": 51,
                "duration": 0.4340909090909122,
                "tempo": 120.0
            },
            {
                "start_time": 54.61363636363636,
                "end_time": 55.05681818181818,
                "pitch": 72,
                "velocity": 51,
                "duration": 0.4431818181818201,
                "tempo": 120.0
            },
            {
                "start_time": 55.52272727272727,
                "end_time": 57.71363636363636,
                "pitch": 67,
                "velocity": 51,
                "duration": 2.190909090909088,
                "tempo": 120.0
            },
            {
                "start_time": 57.73181818181818,
                "end_time": 58.15681818181818,
                "pitch": 60,
                "velocity": 51,
                "duration": 0.42500000000000426,
                "tempo": 120.0
            },
            {
                "start_time": 58.17272727272727,
                "end_time": 58.615909090909085,
                "pitch": 60,
                "velocity": 51,
                "duration": 0.443181818181813,
                "tempo": 120.0
            },
            {
                "start_time": 59.06363636363636,
                "end_time": 61.304545454545455,
                "pitch": 62,
                "velocity": 51,
                "duration": 2.240909090909092,
                "tempo": 120.0
            },
            {
                "start_time": 61.320454545454545,
                "end_time": 61.76590909090909,
                "pitch": 60,
                "velocity": 51,
                "duration": 0.4454545454545453,
                "tempo": 120.0
            },
            {
                "start_time": 61.78409090909091,
                "end_time": 62.22727272727273,
                "pitch": 60,
                "velocity": 51,
                "duration": 0.4431818181818201,
                "tempo": 120.0
            },
            {
                "start_time": 62.675,
                "end_time": 64.91818181818182,
                "pitch": 62,
                "velocity": 51,
                "duration": 2.2431818181818244,
                "tempo": 120.0
            },
            {
                "start_time": 64.93409090909091,
                "end_time": 65.37727272727273,
                "pitch": 60,
                "velocity": 51,
                "duration": 0.443181818181813,
                "tempo": 120.0
            },
            {
                "start_time": 65.39545454545454,
                "end_time": 65.82954545454545,
                "pitch": 60,
                "velocity": 51,
                "duration": 0.4340909090909122,
                "tempo": 120.0
            },
            {
                "start_time": 66.28636363636363,
                "end_time": 67.64545454545454,
                "pitch": 67,
                "velocity": 51,
                "duration": 1.3590909090909093,
                "tempo": 120.0
            },
            {
                "start_time": 67.66136363636363,
                "end_time": 67.89090909090909,
                "pitch": 62,
                "velocity": 51,
                "duration": 0.22954545454545894,
                "tempo": 120.0
            },
            {
                "start_time": 67.90681818181818,
                "end_time": 68.10227272727272,
                "pitch": 64,
                "velocity": 51,
                "duration": 0.19545454545453822,
                "tempo": 120.0
            },
            {
                "start_time": 68.13636363636363,
                "end_time": 68.33636363636363,
                "pitch": 67,
                "velocity": 51,
                "duration": 0.20000000000000284,
                "tempo": 120.0
            },
            {
                "start_time": 68.35454545454544,
                "end_time": 68.55454545454545,
                "pitch": 72,
                "velocity": 51,
                "duration": 0.20000000000000284,
                "tempo": 120.0
            },
            {
                "start_time": 68.58863636363635,
                "end_time": 68.85454545454544,
                "pitch": 76,
                "velocity": 51,
                "duration": 0.26590909090909065,
                "tempo": 120.0
            },
            {
                "start_time": 68.88863636363637,
                "end_time": 69.23409090909091,
                "pitch": 79,
                "velocity": 51,
                "duration": 0.3454545454545439,
                "tempo": 120.0
            },
            {
                "start_time": 69.25,
                "end_time": 69.68636363636364,
                "pitch": 81,
                "velocity": 51,
                "duration": 0.4363636363636374,
                "tempo": 120.0
            },
            {
                "start_time": 69.70227272727273,
                "end_time": 73.075,
                "pitch": 84,
                "velocity": 51,
                "duration": 3.372727272727275,
                "tempo": 120.0
            },
            {
                "start_time": 73.12954545454545,
                "end_time": 76.875,
                "pitch": 52,
                "velocity": 51,
                "duration": 3.7454545454545496,
                "tempo": 120.0
            }
        ],
        "Acoustic Grand Piano": [
            {
                "start_time": 0.0,
                "end_time": 2.6409090909090907,
                "pitch": 41,
                "velocity": 64,
                "duration": 2.6409090909090907,
                "tempo": 120.0
            },
            {
                "start_time": 2.6568181818181817,
                "end_time": 3.090909090909091,
                "pitch": 41,
                "velocity": 64,
                "duration": 0.4340909090909091,
                "tempo": 120.0
            },
            {
                "start_time": 3.109090909090909,
                "end_time": 3.543181818181818,
                "pitch": 45,
                "velocity": 64,
                "duration": 0.4340909090909091,
                "tempo": 120.0
            },
            {
                "start_time": 3.559090909090909,
                "end_time": 6.261363636363636,
                "pitch": 40,
                "velocity": 64,
                "duration": 2.7022727272727267,
                "tempo": 120.0
            },
            {
                "start_time": 6.279545454545454,
                "end_time": 7.154545454545454,
                "pitch": 40,
                "velocity": 64,
                "duration": 0.875,
                "tempo": 120.0
            },
            {
                "start_time": 7.170454545454545,
                "end_time": 9.861363636363636,
                "pitch": 41,
                "velocity": 64,
                "duration": 2.6909090909090914,
                "tempo": 120.0
            },
            {
                "start_time": 9.879545454545454,
                "end_time": 10.313636363636363,
                "pitch": 41,
                "velocity": 64,
                "duration": 0.43409090909090864,
                "tempo": 120.0
            },
            {
                "start_time": 10.329545454545453,
                "end_time": 10.775,
                "pitch": 36,
                "velocity": 64,
                "duration": 0.4454545454545471,
                "tempo": 120.0
            },
            {
                "start_time": 10.790909090909091,
                "end_time": 12.118181818181817,
                "pitch": 40,
                "velocity": 64,
                "duration": 1.3272727272727263,
                "tempo": 120.0
            },
            {
                "start_time": 12.136363636363635,
                "end_time": 13.472727272727273,
                "pitch": 40,
                "velocity": 64,
                "duration": 1.3363636363636378,
                "tempo": 120.0
            },
            {
                "start_time": 13.49090909090909,
                "end_time": 13.69090909090909,
                "pitch": 40,
                "velocity": 64,
                "duration": 0.1999999999999993,
                "tempo": 120.0
            },
            {
                "start_time": 13.725,
                "end_time": 13.924999999999999,
                "pitch": 35,
                "velocity": 64,
                "duration": 0.1999999999999993,
                "tempo": 120.0
            },
            {
                "start_time": 13.94090909090909,
                "end_time": 14.36590909090909,
                "pitch": 40,
                "velocity": 64,
                "duration": 0.4250000000000007,
                "tempo": 120.0
            },
            {
                "start_time": 14.381818181818181,
                "end_time": 15.279545454545454,
                "pitch": 38,
                "velocity": 64,
                "duration": 0.8977272727272734,
                "tempo": 120.0
            },
            {
                "start_time": 15.295454545454545,
                "end_time": 16.18181818181818,
                "pitch": 38,
                "velocity": 64,
                "duration": 0.8863636363636349,
                "tempo": 120.0
            },
            {
                "start_time": 16.19772727272727,
                "end_time": 17.075,
                "pitch": 31,
                "velocity": 64,
                "duration": 0.8772727272727288,
                "tempo": 120.0
            },
            {
                "start_time": 17.09090909090909,
                "end_time": 17.545454545454543,
                "pitch": 38,
                "velocity": 64,
                "duration": 0.45454545454545325,
                "tempo": 120.0
            },
            {
                "start_time": 17.561363636363634,
                "end_time": 17.986363636363635,
                "pitch": 35,
                "velocity": 64,
                "duration": 0.4250000000000007,
                "tempo": 120.0
            },
            {
                "start_time": 18.002272727272725,
                "end_time": 19.802272727272726,
                "pitch": 31,
                "velocity": 64,
                "duration": 1.8000000000000007,
                "tempo": 120.0
            },
            {
                "start_time": 19.818181818181817,
                "end_time": 20.704545454545453,
                "pitch": 37,
                "velocity": 64,
                "duration": 0.8863636363636367,
                "tempo": 120.0
            },
            {
                "start_time": 20.722727272727273,
                "end_time": 21.15681818181818,
                "pitch": 43,
                "velocity": 64,
                "duration": 0.43409090909090864,
                "tempo": 120.0
            },
            {
                "start_time": 21.172727272727272,
                "end_time": 21.60681818181818,
                "pitch": 40,
                "velocity": 64,
                "duration": 0.43409090909090864,
                "tempo": 120.0
            },
            {
                "start_time": 21.625,
                "end_time": 23.402272727272727,
                "pitch": 38,
                "velocity": 64,
                "duration": 1.7772727272727273,
                "tempo": 120.0
            },
            {
                "start_time": 23.420454545454543,
                "end_time": 24.31590909090909,
                "pitch": 43,
                "velocity": 64,
                "duration": 0.8954545454545482,
                "tempo": 120.0
            },
            {
                "start_time": 24.331818181818182,
                "end_time": 24.76590909090909,
                "pitch": 47,
                "velocity": 64,
                "duration": 0.43409090909090864,
                "tempo": 120.0
            },
            {
                "start_time": 24.784090909090907,
                "end_time": 25.209090909090907,
                "pitch": 43,
                "velocity": 64,
                "duration": 0.4250000000000007,
                "tempo": 120.0
            },
            {
                "start_time": 25.224999999999998,
                "end_time": 26.120454545454542,
                "pitch": 36,
                "velocity": 64,
                "duration": 0.8954545454545446,
                "tempo": 120.0
            },
            {
                "start_time": 26.138636363636362,
                "end_time": 26.57272727272727,
                "pitch": 36,
                "velocity": 64,
                "duration": 0.43409090909090864,
                "tempo": 120.0
            },
            {
                "start_time": 26.58863636363636,
                "end_time": 27.013636363636362,
                "pitch": 36,
                "velocity": 64,
                "duration": 0.4250000000000007,
                "tempo": 120.0
            },
            {
                "start_time": 27.029545454545453,
                "end_time": 27.924999999999997,
                "pitch": 36,
                "velocity": 64,
                "duration": 0.8954545454545446,
                "tempo": 120.0
            },
            {
                "start_time": 27.943181818181817,
                "end_time": 28.143181818181816,
                "pitch": 36,
                "velocity": 64,
                "duration": 0.1999999999999993,
                "tempo": 120.0
            },
            {
                "start_time": 28.177272727272726,
                "end_time": 28.377272727272725,
                "pitch": 36,
                "velocity": 64,
                "duration": 0.1999999999999993,
                "tempo": 120.0
            },
            {
                "start_time": 28.825,
                "end_time": 29.029545454545453,
                "pitch": 41,
                "velocity": 51,
                "duration": 0.20454545454545325,
                "tempo": 120.0
            },
            {
                "start_time": 29.063636363636363,
                "end_time": 29.270454545454545,
                "pitch": 41,
                "velocity": 51,
                "duration": 0.206818181818182,
                "tempo": 120.0
            },
            {
                "start_time": 30.188636363636363,
                "end_time": 32.42045454545455,
                "pitch": 41,
                "velocity": 51,
                "duration": 2.231818181818184,
                "tempo": 120.0
            },
            {
                "start_time": 32.43636363636364,
                "end_time": 32.64090909090909,
                "pitch": 40,
                "velocity": 51,
                "duration": 0.20454545454545325,
                "tempo": 120.0
            },
            {
                "start_time": 32.675,
                "end_time": 32.87954545454545,
                "pitch": 40,
                "velocity": 51,
                "duration": 0.20454545454545325,
                "tempo": 120.0
            },
            {
                "start_time": 33.788636363636364,
                "end_time": 36.029545454545456,
                "pitch": 40,
                "velocity": 51,
                "duration": 2.240909090909092,
                "tempo": 120.0
            },
            {
                "start_time": 36.04545454545455,
                "end_time": 36.252272727272725,
                "pitch": 41,
                "velocity": 51,
                "duration": 0.20681818181817846,
                "tempo": 120.0
            },
            {
                "start_time": 36.28636363636363,
                "end_time": 36.49090909090909,
                "pitch": 41,
                "velocity": 51,
                "duration": 0.20454545454546036,
                "tempo": 120.0
            },
            {
                "start_time": 37.41136363636363,
                "end_time": 39.65,
                "pitch": 41,
                "velocity": 51,
                "duration": 2.238636363636367,
                "tempo": 120.0
            },
            {
                "start_time": 39.66590909090909,
                "end_time": 40.10227272727273,
                "pitch": 40,
                "velocity": 51,
                "duration": 0.4363636363636374,
                "tempo": 120.0
            },
            {
                "start_time": 40.11818181818182,
                "end_time": 40.56363636363636,
                "pitch": 40,
                "velocity": 51,
                "duration": 0.4454545454545453,
                "tempo": 120.0
            },
            {
                "start_time": 41.03181818181818,
                "end_time": 43.26136363636363,
                "pitch": 40,
                "velocity": 51,
                "duration": 2.229545454545452,
                "tempo": 120.0
            },
            {
                "start_time": 43.277272727272724,
                "end_time": 44.17272727272727,
                "pitch": 38,
                "velocity": 51,
                "duration": 0.8954545454545482,
                "tempo": 120.0
            },
            {
                "start_time": 44.19090909090909,
                "end_time": 45.06590909090909,
                "pitch": 38,
                "velocity": 51,
                "duration": 0.875,
                "tempo": 120.0
            },
            {
                "start_time": 45.084090909090904,
                "end_time": 45.970454545454544,
                "pitch": 43,
                "velocity": 51,
                "duration": 0.8863636363636402,
                "tempo": 120.0
            },
            {
                "start_time": 45.986363636363635,
                "end_time": 46.41136363636363,
                "pitch": 47,
                "velocity": 51,
                "duration": 0.42499999999999716,
                "tempo": 120.0
            },
            {
                "start_time": 46.42727272727272,
                "end_time": 46.87272727272727,
                "pitch": 43,
                "velocity": 51,
                "duration": 0.4454545454545453,
                "tempo": 120.0
            },
            {
                "start_time": 46.88863636363636,
                "end_time": 48.67727272727272,
                "pitch": 36,
                "velocity": 51,
                "duration": 1.788636363636364,
                "tempo": 120.0
            },
            {
                "start_time": 48.695454545454545,
                "end_time": 50.03181818181818,
                "pitch": 37,
                "velocity": 51,
                "duration": 1.336363636363636,
                "tempo": 120.0
            },
            {
                "start_time": 50.04772727272727,
                "end_time": 50.49318181818182,
                "pitch": 40,
                "velocity": 51,
                "duration": 0.4454545454545453,
                "tempo": 120.0
            },
            {
                "start_time": 50.50909090909091,
                "end_time": 52.29772727272727,
                "pitch": 38,
                "velocity": 51,
                "duration": 1.788636363636364,
                "tempo": 120.0
            },
            {
                "start_time": 52.31590909090909,
                "end_time": 53.199999999999996,
                "pitch": 43,
                "velocity": 51,
                "duration": 0.8840909090909079,
                "tempo": 120.0
            },
            {
                "start_time": 53.21818181818182,
                "end_time": 54.09318181818182,
                "pitch": 47,
                "velocity": 51,
                "duration": 0.875,
                "tempo": 120.0
            },
            {
                "start_time": 54.111363636363635,
                "end_time": 54.54545454545454,
                "pitch": 36,
                "velocity": 51,
                "duration": 0.4340909090909051,
                "tempo": 120.0
            },
            {
                "start_time": 54.56136363636363,
                "end_time": 55.006818181818176,
                "pitch": 36,
                "velocity": 51,
                "duration": 0.4454545454545453,
                "tempo": 120.0
            },
            {
                "start_time": 55.474999999999994,
                "end_time": 57.25454545454545,
                "pitch": 38,
                "velocity": 51,
                "duration": 1.779545454545456,
                "tempo": 120.0
            },
            {
                "start_time": 57.27045454545454,
                "end_time": 57.71363636363636,
                "pitch": 31,
                "velocity": 51,
                "duration": 0.4431818181818201,
                "tempo": 120.0
            },
            {
                "start_time": 57.73181818181818,
                "end_time": 58.15681818181818,
                "pitch": 40,
                "velocity": 51,
                "duration": 0.42500000000000426,
                "tempo": 120.0
            },
            {
                "start_time": 58.17272727272727,
                "end_time": 58.615909090909085,
                "pitch": 40,
                "velocity": 51,
                "duration": 0.443181818181813,
                "tempo": 120.0
            },
            {
                "start_time": 59.06363636363636,
                "end_time": 61.304545454545455,
                "pitch": 41,
                "velocity": 51,
                "duration": 2.240909090909092,
                "tempo": 120.0
            },
            {
                "start_time": 61.320454545454545,
                "end_time": 61.76590909090909,
                "pitch": 40,
                "velocity": 51,
                "duration": 0.4454545454545453,
                "tempo": 120.0
            },
            {
                "start_time": 61.78409090909091,
                "end_time": 62.22727272727273,
                "pitch": 40,
                "velocity": 51,
                "duration": 0.4431818181818201,
                "tempo": 120.0
            },
            {
                "start_time": 62.675,
                "end_time": 64.91818181818182,
                "pitch": 41,
                "velocity": 51,
                "duration": 2.2431818181818244,
                "tempo": 120.0
            },
            {
                "start_time": 64.93409090909091,
                "end_time": 65.37727272727273,
                "pitch": 40,
                "velocity": 51,
                "duration": 0.443181818181813,
                "tempo": 120.0
            },
            {
                "start_time": 65.39545454545454,
                "end_time": 65.82954545454545,
                "pitch": 40,
                "velocity": 51,
                "duration": 0.4340909090909122,
                "tempo": 120.0
            },
            {
                "start_time": 66.28636363636363,
                "end_time": 68.53863636363636,
                "pitch": 38,
                "velocity": 51,
                "duration": 2.252272727272725,
                "tempo": 120.0
            },
            {
                "start_time": 73.075,
                "end_time": 76.82272727272726,
                "pitch": 36,
                "velocity": 51,
                "duration": 3.7477272727272606,
                "tempo": 120.0
            }
        ]
    }
}