{
    "track_id": "Out Run 3D (FM) - 03 - Color Ocean",
    "mood": "relaxed",
    "instruments": {
        "Church Organ": [
            {
                "start_time": 0.0,
                "end_time": 1.134090909090909,
                "pitch": 65,
                "velocity": 101,
                "duration": 1.134090909090909,
                "tempo": 120.0
            },
            {
                "start_time": 1.15,
                "end_time": 1.384090909090909,
                "pitch": 65,
                "velocity": 101,
                "duration": 0.23409090909090913,
                "tempo": 120.0
            },
            {
                "start_time": 1.4,
                "end_time": 1.7659090909090909,
                "pitch": 66,
                "velocity": 101,
                "duration": 0.36590909090909096,
                "tempo": 120.0
            },
            {
                "start_time": 1.784090909090909,
                "end_time": 1.884090909090909,
                "pitch": 65,
                "velocity": 101,
                "duration": 0.10000000000000009,
                "tempo": 120.0
            },
            {
                "start_time": 1.9,
                "end_time": 3.134090909090909,
                "pitch": 68,
                "velocity": 101,
                "duration": 1.234090909090909,
                "tempo": 120.0
            },
            {
                "start_time": 3.15,
                "end_time": 3.384090909090909,
                "pitch": 68,
                "velocity": 101,
                "duration": 0.2340909090909089,
                "tempo": 120.0
            },
            {
                "start_time": 3.4,
                "end_time": 3.634090909090909,
                "pitch": 70,
                "velocity": 101,
                "duration": 0.2340909090909089,
                "tempo": 120.0
            },
            {
                "start_time": 3.65,
                "end_time": 3.884090909090909,
                "pitch": 68,
                "velocity": 101,
                "duration": 0.2340909090909089,
                "tempo": 120.0
            },
            {
                "start_time": 3.9,
                "end_time": 5.134090909090909,
                "pitch": 73,
                "velocity": 101,
                "duration": 1.234090909090909,
                "tempo": 120.0
            },
            {
                "start_time": 5.1499999999999995,
                "end_time": 5.384090909090909,
                "pitch": 73,
                "velocity": 101,
                "duration": 0.23409090909090935,
                "tempo": 120.0
            },
            {
                "start_time": 5.3999999999999995,
                "end_time": 5.634090909090909,
                "pitch": 75,
                "velocity": 101,
                "duration": 0.23409090909090935,
                "tempo": 120.0
            },
            {
                "start_time": 5.6499999999999995,
                "end_time": 5.884090909090909,
                "pitch": 73,
                "velocity": 101,
                "duration": 0.23409090909090935,
                "tempo": 120.0
            },
            {
                "start_time": 5.8999999999999995,
                "end_time": 6.134090909090909,
                "pitch": 72,
                "velocity": 101,
                "duration": 0.23409090909090935,
                "tempo": 120.0
            },
            {
                "start_time": 6.1499999999999995,
                "end_time": 6.384090909090909,
                "pitch": 70,
                "velocity": 101,
                "duration": 0.23409090909090935,
                "tempo": 120.0
            },
            {
                "start_time": 6.3999999999999995,
                "end_time": 7.884090909090909,
                "pitch": 68,
                "velocity": 101,
                "duration": 1.4840909090909093,
                "tempo": 120.0
            },
            {
                "start_time": 7.8999999999999995,
                "end_time": 9.134090909090908,
                "pitch": 66,
                "velocity": 101,
                "duration": 1.2340909090909085,
                "tempo": 120.0
            },
            {
                "start_time": 9.15,
                "end_time": 9.384090909090908,
                "pitch": 66,
                "velocity": 101,
                "duration": 0.23409090909090757,
                "tempo": 120.0
            },
            {
                "start_time": 9.4,
                "end_time": 9.634090909090908,
                "pitch": 68,
                "velocity": 101,
                "duration": 0.23409090909090757,
                "tempo": 120.0
            },
            {
                "start_time": 9.65,
                "end_time": 9.884090909090908,
                "pitch": 66,
                "velocity": 101,
                "duration": 0.23409090909090757,
                "tempo": 120.0
            },
            {
                "start_time": 9.9,
                "end_time": 11.134090909090908,
                "pitch": 68,
                "velocity": 101,
                "duration": 1.2340909090909076,
                "tempo": 120.0
            },
            {
                "start_time": 11.149999999999999,
                "end_time": 11.384090909090908,
                "pitch": 68,
                "velocity": 101,
                "duration": 0.23409090909090935,
                "tempo": 120.0
            },
            {
                "start_time": 11.399999999999999,
                "end_time": 11.634090909090908,
                "pitch": 70,
                "velocity": 101,
                "duration": 0.23409090909090935,
                "tempo": 120.0
            },
            {
                "start_time": 11.649999999999999,
                "end_time": 11.884090909090908,
                "pitch": 68,
                "velocity": 101,
                "duration": 0.23409090909090935,
                "tempo": 120.0
            },
            {
                "start_time": 11.899999999999999,
                "end_time": 13.134090909090908,
                "pitch": 70,
                "velocity": 101,
                "duration": 1.2340909090909093,
                "tempo": 120.0
            },
            {
                "start_time": 13.149999999999999,
                "end_time": 13.384090909090908,
                "pitch": 70,
                "velocity": 101,
                "duration": 0.23409090909090935,
                "tempo": 120.0
            },
            {
                "start_time": 13.399999999999999,
                "end_time": 13.634090909090908,
                "pitch": 72,
                "velocity": 101,
                "duration": 0.23409090909090935,
                "tempo": 120.0
            },
            {
                "start_time": 13.649999999999999,
                "end_time": 13.884090909090908,
                "pitch": 73,
                "velocity": 101,
                "duration": 0.23409090909090935,
                "tempo": 120.0
            },
            {
                "start_time": 13.899999999999999,
                "end_time": 14.884090909090908,
                "pitch": 74,
                "velocity": 101,
                "duration": 0.9840909090909093,
                "tempo": 120.0
            },
            {
                "start_time": 14.899999999999999,
                "end_time": 15.884090909090908,
                "pitch": 75,
                "velocity": 101,
                "duration": 0.9840909090909093,
                "tempo": 120.0
            },
            {
                "start_time": 15.899999999999999,
                "end_time": 17.134090909090908,
                "pitch": 65,
                "velocity": 101,
                "duration": 1.2340909090909093,
                "tempo": 120.0
            },
            {
                "start_time": 17.15,
                "end_time": 17.384090909090908,
                "pitch": 65,
                "velocity": 101,
                "duration": 0.23409090909090935,
                "tempo": 120.0
            },
            {
                "start_time": 17.4,
                "end_time": 17.76590909090909,
                "pitch": 66,
                "velocity": 101,
                "duration": 0.36590909090909207,
                "tempo": 120.0
            },
            {
                "start_time": 17.784090909090907,
                "end_time": 17.884090909090908,
                "pitch": 65,
                "velocity": 101,
                "duration": 0.10000000000000142,
                "tempo": 120.0
            },
            {
                "start_time": 17.9,
                "end_time": 19.134090909090908,
                "pitch": 68,
                "velocity": 101,
                "duration": 1.2340909090909093,
                "tempo": 120.0
            },
            {
                "start_time": 19.15,
                "end_time": 19.384090909090908,
                "pitch": 68,
                "velocity": 101,
                "duration": 0.23409090909090935,
                "tempo": 120.0
            },
            {
                "start_time": 19.4,
                "end_time": 19.634090909090908,
                "pitch": 70,
                "velocity": 101,
                "duration": 0.23409090909090935,
                "tempo": 120.0
            },
            {
                "start_time": 19.65,
                "end_time": 19.884090909090908,
                "pitch": 68,
                "velocity": 101,
                "duration": 0.23409090909090935,
                "tempo": 120.0
            },
            {
                "start_time": 19.9,
                "end_time": 21.134090909090908,
                "pitch": 73,
                "velocity": 101,
                "duration": 1.2340909090909093,
                "tempo": 120.0
            },
            {
                "start_time": 21.15,
                "end_time": 21.384090909090908,
                "pitch": 73,
                "velocity": 101,
                "duration": 0.23409090909090935,
                "tempo": 120.0
            },
            {
                "start_time": 21.4,
                "end_time": 21.634090909090908,
                "pitch": 75,
                "velocity": 101,
                "duration": 0.23409090909090935,
                "tempo": 120.0
            },
            {
                "start_time": 21.65,
                "end_time": 21.884090909090908,
                "pitch": 73,
                "velocity": 101,
                "duration": 0.23409090909090935,
                "tempo": 120.0
            },
            {
                "start_time": 21.9,
                "end_time": 22.134090909090908,
                "pitch": 72,
                "velocity": 101,
                "duration": 0.23409090909090935,
                "tempo": 120.0
            },
            {
                "start_time": 22.15,
                "end_time": 22.384090909090908,
                "pitch": 70,
                "velocity": 101,
                "duration": 0.23409090909090935,
                "tempo": 120.0
            },
            {
                "start_time": 22.4,
                "end_time": 23.884090909090908,
                "pitch": 68,
                "velocity": 101,
                "duration": 1.4840909090909093,
                "tempo": 120.0
            },
            {
                "start_time": 23.9,
                "end_time": 24.884090909090908,
                "pitch": 78,
                "velocity": 101,
                "duration": 0.9840909090909093,
                "tempo": 120.0
            },
            {
                "start_time": 24.9,
                "end_time": 25.384090909090908,
                "pitch": 70,
                "velocity": 101,
                "duration": 0.48409090909090935,
                "tempo": 120.0
            },
            {
                "start_time": 25.4,
                "end_time": 25.884090909090908,
                "pitch": 78,
                "velocity": 101,
                "duration": 0.48409090909090935,
                "tempo": 120.0
            },
            {
                "start_time": 25.9,
                "end_time": 26.884090909090908,
                "pitch": 79,
                "velocity": 101,
                "duration": 0.9840909090909093,
                "tempo": 120.0
            },
            {
                "start_time": 26.9,
                "end_time": 27.26590909090909,
                "pitch": 80,
                "velocity": 101,
                "duration": 0.36590909090909207,
                "tempo": 120.0
            },
            {
                "start_time": 27.4,
                "end_time": 27.884090909090908,
                "pitch": 73,
                "velocity": 101,
                "duration": 0.48409090909090935,
                "tempo": 120.0
            },
            {
                "start_time": 27.9,
                "end_time": 28.884090909090908,
                "pitch": 77,
                "velocity": 101,
                "duration": 0.9840909090909093,
                "tempo": 120.0
            },
            {
                "start_time": 28.9,
                "end_time": 29.634090909090908,
                "pitch": 75,
                "velocity": 101,
                "duration": 0.7340909090909093,
                "tempo": 120.0
            },
            {
                "start_time": 29.65,
                "end_time": 29.884090909090908,
                "pitch": 73,
                "velocity": 101,
                "duration": 0.23409090909090935,
                "tempo": 120.0
            },
            {
                "start_time": 29.9,
                "end_time": 31.888636363636362,
                "pitch": 73,
                "velocity": 101,
                "duration": 1.9886363636363633,
                "tempo": 120.0
            },
            {
                "start_time": 31.904545454545453,
                "end_time": 33.138636363636365,
                "pitch": 71,
                "velocity": 101,
                "duration": 1.234090909090913,
                "tempo": 120.0
            },
            {
                "start_time": 33.154545454545456,
                "end_time": 33.388636363636365,
                "pitch": 71,
                "velocity": 101,
                "duration": 0.23409090909090935,
                "tempo": 120.0
            },
            {
                "start_time": 33.404545454545456,
                "end_time": 33.638636363636365,
                "pitch": 73,
                "velocity": 101,
                "duration": 0.23409090909090935,
                "tempo": 120.0
            },
            {
                "start_time": 33.654545454545456,
                "end_time": 33.888636363636365,
                "pitch": 75,
                "velocity": 101,
                "duration": 0.23409090909090935,
                "tempo": 120.0
            },
            {
                "start_time": 33.904545454545456,
                "end_time": 35.138636363636365,
                "pitch": 77,
                "velocity": 101,
                "duration": 1.2340909090909093,
                "tempo": 120.0
            },
            {
                "start_time": 35.154545454545456,
                "end_time": 35.388636363636365,
                "pitch": 77,
                "velocity": 101,
                "duration": 0.23409090909090935,
                "tempo": 120.0
            },
            {
                "start_time": 35.404545454545456,
                "end_time": 35.638636363636365,
                "pitch": 78,
                "velocity": 101,
                "duration": 0.23409090909090935,
                "tempo": 120.0
            },
            {
                "start_time": 35.654545454545456,
                "end_time": 35.888636363636365,
                "pitch": 80,
                "velocity": 101,
                "duration": 0.23409090909090935,
                "tempo": 120.0
            },
            {
                "start_time": 35.904545454545456,
                "end_time": 37.13863636363636,
                "pitch": 78,
                "velocity": 101,
                "duration": 1.2340909090909022,
                "tempo": 120.0
            },
            {
                "start_time": 37.154545454545456,
                "end_time": 37.38863636363636,
                "pitch": 80,
                "velocity": 101,
                "duration": 0.23409090909090224,
                "tempo": 120.0
            },
            {
                "start_time": 37.404545454545456,
                "end_time": 37.63863636363636,
                "pitch": 78,
                "velocity": 101,
                "duration": 0.23409090909090224,
                "tempo": 120.0
            },
            {
                "start_time": 37.654545454545456,
                "end_time": 37.88863636363636,
                "pitch": 77,
                "velocity": 101,
                "duration": 0.23409090909090224,
                "tempo": 120.0
            },
            {
                "start_time": 37.904545454545456,
                "end_time": 38.13863636363636,
                "pitch": 78,
                "velocity": 101,
                "duration": 0.23409090909090224,
                "tempo": 120.0
            },
            {
                "start_time": 38.154545454545456,
                "end_time": 38.38863636363636,
                "pitch": 77,
                "velocity": 101,
                "duration": 0.23409090909090224,
                "tempo": 120.0
            },
            {
                "start_time": 38.404545454545456,
                "end_time": 39.88863636363636,
                "pitch": 75,
                "velocity": 101,
                "duration": 1.4840909090909022,
                "tempo": 120.0
            },
            {
                "start_time": 39.904545454545456,
                "end_time": 41.13863636363636,
                "pitch": 71,
                "velocity": 101,
                "duration": 1.2340909090909022,
                "tempo": 120.0
            },
            {
                "start_time": 41.154545454545456,
                "end_time": 41.38863636363636,
                "pitch": 71,
                "velocity": 101,
                "duration": 0.23409090909090224,
                "tempo": 120.0
            },
            {
                "start_time": 41.40454545454545,
                "end_time": 41.63863636363636,
                "pitch": 73,
                "velocity": 101,
                "duration": 0.23409090909090935,
                "tempo": 120.0
            },
            {
                "start_time": 41.65454545454545,
                "end_time": 41.88863636363636,
                "pitch": 75,
                "velocity": 101,
                "duration": 0.23409090909090935,
                "tempo": 120.0
            },
            {
                "start_time": 41.90454545454545,
                "end_time": 43.13863636363636,
                "pitch": 77,
                "velocity": 101,
                "duration": 1.2340909090909093,
                "tempo": 120.0
            },
            {
                "start_time": 43.15454545454545,
                "end_time": 43.38863636363636,
                "pitch": 77,
                "velocity": 101,
                "duration": 0.23409090909090935,
                "tempo": 120.0
            },
            {
                "start_time": 43.40454545454545,
                "end_time": 43.63863636363636,
                "pitch": 78,
                "velocity": 101,
                "duration": 0.23409090909090935,
                "tempo": 120.0
            },
            {
                "start_time": 43.65454545454545,
                "end_time": 43.88863636363636,
                "pitch": 79,
                "velocity": 101,
                "duration": 0.23409090909090935,
                "tempo": 120.0
            },
            {
                "start_time": 43.90454545454545,
                "end_time": 44.88863636363636,
                "pitch": 79,
                "velocity": 101,
                "duration": 0.9840909090909093,
                "tempo": 120.0
            },
            {
                "start_time": 44.90454545454545,
                "end_time": 45.88863636363636,
                "pitch": 80,
                "velocity": 101,
                "duration": 0.9840909090909093,
                "tempo": 120.0
            },
            {
                "start_time": 47.90909090909091,
                "end_time": 49.143181818181816,
                "pitch": 65,
                "velocity": 101,
                "duration": 1.2340909090909093,
                "tempo": 120.0
            },
            {
                "start_time": 49.15909090909091,
                "end_time": 49.393181818181816,
                "pitch": 65,
                "velocity": 101,
                "duration": 0.23409090909090935,
                "tempo": 120.0
            },
            {
                "start_time": 49.40909090909091,
                "end_time": 49.775,
                "pitch": 66,
                "velocity": 101,
                "duration": 0.36590909090909207,
                "tempo": 120.0
            },
            {
                "start_time": 49.793181818181814,
                "end_time": 49.893181818181816,
                "pitch": 65,
                "velocity": 101,
                "duration": 0.10000000000000142,
                "tempo": 120.0
            },
            {
                "start_time": 49.90909090909091,
                "end_time": 51.143181818181816,
                "pitch": 68,
                "velocity": 101,
                "duration": 1.2340909090909093,
                "tempo": 120.0
            },
            {
                "start_time": 51.15909090909091,
                "end_time": 51.393181818181816,
                "pitch": 68,
                "velocity": 101,
                "duration": 0.23409090909090935,
                "tempo": 120.0
            },
            {
                "start_time": 51.40909090909091,
                "end_time": 51.643181818181816,
                "pitch": 70,
                "velocity": 101,
                "duration": 0.23409090909090935,
                "tempo": 120.0
            },
            {
                "start_time": 51.65909090909091,
                "end_time": 51.893181818181816,
                "pitch": 68,
                "velocity": 101,
                "duration": 0.23409090909090935,
                "tempo": 120.0
            },
            {
                "start_time": 51.90909090909091,
                "end_time": 53.143181818181816,
                "pitch": 73,
                "velocity": 101,
                "duration": 1.2340909090909093,
                "tempo": 120.0
            },
            {
                "start_time": 53.15909090909091,
                "end_time": 53.393181818181816,
                "pitch": 73,
                "velocity": 101,
                "duration": 0.23409090909090935,
                "tempo": 120.0
            },
            {
                "start_time": 53.40909090909091,
                "end_time": 53.643181818181816,
                "pitch": 75,
                "velocity": 101,
                "duration": 0.23409090909090935,
                "tempo": 120.0
            },
            {
                "start_time": 53.65909090909091,
                "end_time": 53.893181818181816,
                "pitch": 73,
                "velocity": 101,
                "duration": 0.23409090909090935,
                "tempo": 120.0
            },
            {
                "start_time": 53.90909090909091,
                "end_time": 54.143181818181816,
                "pitch": 72,
                "velocity": 101,
                "duration": 0.23409090909090935,
                "tempo": 120.0
            },
            {
                "start_time": 54.15909090909091,
                "end_time": 54.393181818181816,
                "pitch": 70,
                "velocity": 101,
                "duration": 0.23409090909090935,
                "tempo": 120.0
            },
            {
                "start_time": 54.40909090909091,
                "end_time": 55.893181818181816,
                "pitch": 68,
                "velocity": 101,
                "duration": 1.4840909090909093,
                "tempo": 120.0
            },
            {
                "start_time": 55.90909090909091,
                "end_time": 57.143181818181816,
                "pitch": 66,
                "velocity": 101,
                "duration": 1.2340909090909093,
                "tempo": 120.0
            },
            {
                "start_time": 57.15909090909091,
                "end_time": 57.393181818181816,
                "pitch": 66,
                "velocity": 101,
                "duration": 0.23409090909090935,
                "tempo": 120.0
            },
            {
                "start_time": 57.40909090909091,
                "end_time": 57.643181818181816,
                "pitch": 68,
                "velocity": 101,
                "duration": 0.23409090909090935,
                "tempo": 120.0
            },
            {
                "start_time": 57.65909090909091,
                "end_time": 57.893181818181816,
                "pitch": 66,
                "velocity": 101,
                "duration": 0.23409090909090935,
                "tempo": 120.0
            },
            {
                "start_time": 57.90909090909091,
                "end_time": 59.143181818181816,
                "pitch": 68,
                "velocity": 101,
                "duration": 1.2340909090909093,
                "tempo": 120.0
            },
            {
                "start_time": 59.15909090909091,
                "end_time": 59.393181818181816,
                "pitch": 68,
                "velocity": 101,
                "duration": 0.23409090909090935,
                "tempo": 120.0
            },
            {
                "start_time": 59.40909090909091,
                "end_time": 59.643181818181816,
                "pitch": 70,
                "velocity": 101,
                "duration": 0.23409090909090935,
                "tempo": 120.0
            },
            {
                "start_time": 59.65909090909091,
                "end_time": 59.893181818181816,
                "pitch": 68,
                "velocity": 101,
                "duration": 0.23409090909090935,
                "tempo": 120.0
            },
            {
                "start_time": 59.90909090909091,
                "end_time": 61.143181818181816,
                "pitch": 70,
                "velocity": 101,
                "duration": 1.2340909090909093,
                "tempo": 120.0
            },
            {
                "start_time": 61.15909090909091,
                "end_time": 61.393181818181816,
                "pitch": 70,
                "velocity": 101,
                "duration": 0.23409090909090935,
                "tempo": 120.0
            },
            {
                "start_time": 61.40909090909091,
                "end_time": 61.643181818181816,
                "pitch": 72,
                "velocity": 101,
                "duration": 0.23409090909090935,
                "tempo": 120.0
            },
            {
                "start_time": 61.65909090909091,
                "end_time": 61.893181818181816,
                "pitch": 73,
                "velocity": 101,
                "duration": 0.23409090909090935,
                "tempo": 120.0
            },
            {
                "start_time": 61.90909090909091,
                "end_time": 62.893181818181816,
                "pitch": 74,
                "velocity": 101,
                "duration": 0.9840909090909093,
                "tempo": 120.0
            },
            {
                "start_time": 62.90909090909091,
                "end_time": 63.893181818181816,
                "pitch": 75,
                "velocity": 101,
                "duration": 0.9840909090909093,
                "tempo": 120.0
            },
            {
                "start_time": 63.90909090909091,
                "end_time": 65.14318181818182,
                "pitch": 65,
                "velocity": 101,
                "duration": 1.2340909090909093,
                "tempo": 120.0
            },
            {
                "start_time": 65.1590909090909,
                "end_time": 65.39318181818182,
                "pitch": 65,
                "velocity": 101,
                "duration": 0.23409090909090935,
                "tempo": 120.0
            },
            {
                "start_time": 65.4090909090909,
                "end_time": 65.77499999999999,
                "pitch": 66,
                "velocity": 101,
                "duration": 0.36590909090908497,
                "tempo": 120.0
            },
            {
                "start_time": 65.79318181818182,
                "end_time": 65.89318181818182,
                "pitch": 65,
                "velocity": 101,
                "duration": 0.09999999999999432,
                "tempo": 120.0
            },
            {
                "start_time": 65.9090909090909,
                "end_time": 67.14318181818182,
                "pitch": 68,
                "velocity": 101,
                "duration": 1.2340909090909093,
                "tempo": 120.0
            },
            {
                "start_time": 67.1590909090909,
                "end_time": 67.39318181818182,
                "pitch": 68,
                "velocity": 101,
                "duration": 0.23409090909090935,
                "tempo": 120.0
            },
            {
                "start_time": 67.4090909090909,
                "end_time": 67.64318181818182,
                "pitch": 70,
                "velocity": 101,
                "duration": 0.23409090909090935,
                "tempo": 120.0
            },
            {
                "start_time": 67.6590909090909,
                "end_time": 67.89318181818182,
                "pitch": 68,
                "velocity": 101,
                "duration": 0.23409090909090935,
                "tempo": 120.0
            },
            {
                "start_time": 67.9090909090909,
                "end_time": 69.14318181818182,
                "pitch": 73,
                "velocity": 101,
                "duration": 1.2340909090909093,
                "tempo": 120.0
            },
            {
                "start_time": 69.1590909090909,
                "end_time": 69.39318181818182,
                "pitch": 73,
                "velocity": 101,
                "duration": 0.23409090909090935,
                "tempo": 120.0
            },
            {
                "start_time": 69.4090909090909,
                "end_time": 69.64318181818182,
                "pitch": 75,
                "velocity": 101,
                "duration": 0.23409090909090935,
                "tempo": 120.0
            },
            {
                "start_time": 69.6590909090909,
                "end_time": 69.89318181818182,
                "pitch": 73,
                "velocity": 101,
                "duration": 0.23409090909090935,
                "tempo": 120.0
            },
            {
                "start_time": 69.9090909090909,
                "end_time": 70.14318181818182,
                "pitch": 72,
                "velocity": 101,
                "duration": 0.23409090909090935,
                "tempo": 120.0
            },
            {
                "start_time": 70.1590909090909,
                "end_time": 70.39318181818182,
                "pitch": 70,
                "velocity": 101,
                "duration": 0.23409090909090935,
                "tempo": 120.0
            },
            {
                "start_time": 70.4090909090909,
                "end_time": 71.89318181818182,
                "pitch": 68,
                "velocity": 101,
                "duration": 1.4840909090909093,
                "tempo": 120.0
            },
            {
                "start_time": 71.9090909090909,
                "end_time": 72.89318181818182,
                "pitch": 78,
                "velocity": 101,
                "duration": 0.9840909090909093,
                "tempo": 120.0
            },
            {
                "start_time": 72.9090909090909,
                "end_time": 73.39318181818182,
                "pitch": 70,
                "velocity": 101,
                "duration": 0.48409090909090935,
                "tempo": 120.0
            },
            {
                "start_time": 73.4090909090909,
                "end_time": 73.89318181818182,
                "pitch": 78,
                "velocity": 101,
                "duration": 0.48409090909090935,
                "tempo": 120.0
            },
            {
                "start_time": 73.9090909090909,
                "end_time": 74.89318181818182,
                "pitch": 79,
                "velocity": 101,
                "duration": 0.9840909090909093,
                "tempo": 120.0
            },
            {
                "start_time": 74.9090909090909,
                "end_time": 75.27499999999999,
                "pitch": 80,
                "velocity": 101,
                "duration": 0.36590909090908497,
                "tempo": 120.0
            },
            {
                "start_time": 75.4090909090909,
                "end_time": 75.89318181818182,
                "pitch": 73,
                "velocity": 101,
                "duration": 0.48409090909090935,
                "tempo": 120.0
            },
            {
                "start_time": 75.9090909090909,
                "end_time": 76.89318181818182,
                "pitch": 77,
                "velocity": 101,
                "duration": 0.9840909090909093,
                "tempo": 120.0
            },
            {
                "start_time": 76.9090909090909,
                "end_time": 77.64318181818182,
                "pitch": 75,
                "velocity": 101,
                "duration": 0.7340909090909093,
                "tempo": 120.0
            },
            {
                "start_time": 77.6590909090909,
                "end_time": 77.89318181818182,
                "pitch": 73,
                "velocity": 101,
                "duration": 0.23409090909090935,
                "tempo": 120.0
            },
            {
                "start_time": 77.9090909090909,
                "end_time": 79.89545454545454,
                "pitch": 73,
                "velocity": 101,
                "duration": 1.9863636363636346,
                "tempo": 120.0
            },
            {
                "start_time": 79.91363636363636,
                "end_time": 81.89545454545454,
                "pitch": 70,
                "velocity": 101,
                "duration": 1.9818181818181841,
                "tempo": 120.0
            },
            {
                "start_time": 81.91363636363636,
                "end_time": 83.89545454545454,
                "pitch": 68,
                "velocity": 101,
                "duration": 1.9818181818181841,
                "tempo": 120.0
            },
            {
                "start_time": 83.91363636363636,
                "end_time": 85.89545454545454,
                "pitch": 66,
                "velocity": 101,
                "duration": 1.9818181818181841,
                "tempo": 120.0
            },
            {
                "start_time": 85.91363636363636,
                "end_time": 87.89999999999999,
                "pitch": 68,
                "velocity": 101,
                "duration": 1.9863636363636346,
                "tempo": 120.0
            },
            {
                "start_time": 87.91818181818181,
                "end_time": 89.90454545454546,
                "pitch": 70,
                "velocity": 101,
                "duration": 1.9863636363636488,
                "tempo": 120.0
            },
            {
                "start_time": 89.92272727272727,
                "end_time": 91.90454545454546,
                "pitch": 68,
                "velocity": 101,
                "duration": 1.9818181818181841,
                "tempo": 120.0
            },
            {
                "start_time": 91.92272727272727,
                "end_time": 93.9090909090909,
                "pitch": 66,
                "velocity": 101,
                "duration": 1.9863636363636346,
                "tempo": 120.0
            },
            {
                "start_time": 93.92727272727272,
                "end_time": 94.29318181818181,
                "pitch": 80,
                "velocity": 101,
                "duration": 0.36590909090908497,
                "tempo": 120.0
            },
            {
                "start_time": 94.3090909090909,
                "end_time": 94.4090909090909,
                "pitch": 80,
                "velocity": 101,
                "duration": 0.10000000000000853,
                "tempo": 120.0
            },
            {
                "start_time": 94.42727272727272,
                "end_time": 94.79318181818181,
                "pitch": 80,
                "velocity": 101,
                "duration": 0.36590909090908497,
                "tempo": 120.0
            },
            {
                "start_time": 94.8090909090909,
                "end_time": 94.9090909090909,
                "pitch": 77,
                "velocity": 101,
                "duration": 0.10000000000000853,
                "tempo": 120.0
            },
            {
                "start_time": 94.92727272727272,
                "end_time": 95.29318181818181,
                "pitch": 77,
                "velocity": 101,
                "duration": 0.36590909090908497,
                "tempo": 120.0
            },
            {
                "start_time": 95.3090909090909,
                "end_time": 95.4090909090909,
                "pitch": 73,
                "velocity": 101,
                "duration": 0.10000000000000853,
                "tempo": 120.0
            },
            {
                "start_time": 95.42727272727272,
                "end_time": 95.79318181818181,
                "pitch": 73,
                "velocity": 101,
                "duration": 0.36590909090908497,
                "tempo": 120.0
            },
            {
                "start_time": 95.8090909090909,
                "end_time": 95.9090909090909,
                "pitch": 68,
                "velocity": 101,
                "duration": 0.10000000000000853,
                "tempo": 120.0
            },
            {
                "start_time": 95.92727272727272,
                "end_time": 96.9090909090909,
                "pitch": 66,
                "velocity": 101,
                "duration": 0.9818181818181841,
                "tempo": 120.0
            },
            {
                "start_time": 96.92727272727272,
                "end_time": 97.6590909090909,
                "pitch": 68,
                "velocity": 101,
                "duration": 0.7318181818181841,
                "tempo": 120.0
            },
            {
                "start_time": 97.67727272727272,
                "end_time": 97.9090909090909,
                "pitch": 73,
                "velocity": 101,
                "duration": 0.23181818181818414,
                "tempo": 120.0
            },
            {
                "start_time": 97.92727272727272,
                "end_time": 98.9090909090909,
                "pitch": 78,
                "velocity": 101,
                "duration": 0.9818181818181841,
                "tempo": 120.0
            },
            {
                "start_time": 98.92727272727272,
                "end_time": 99.9090909090909,
                "pitch": 66,
                "velocity": 101,
                "duration": 0.9818181818181841,
                "tempo": 120.0
            },
            {
                "start_time": 99.92727272727272,
                "end_time": 100.9090909090909,
                "pitch": 71,
                "velocity": 101,
                "duration": 0.9818181818181841,
                "tempo": 120.0
            },
            {
                "start_time": 100.92727272727272,
                "end_time": 101.6590909090909,
                "pitch": 70,
                "velocity": 101,
                "duration": 0.7318181818181841,
                "tempo": 120.0
            },
            {
                "start_time": 101.67727272727272,
                "end_time": 101.9090909090909,
                "pitch": 73,
                "velocity": 101,
                "duration": 0.23181818181818414,
                "tempo": 120.0
            },
            {
                "start_time": 101.92727272727272,
                "end_time": 103.6590909090909,
                "pitch": 71,
                "velocity": 101,
                "duration": 1.7318181818181841,
                "tempo": 120.0
            },
            {
                "start_time": 103.67727272727272,
                "end_time": 103.9090909090909,
                "pitch": 68,
                "velocity": 101,
                "duration": 0.23181818181818414,
                "tempo": 120.0
            },
            {
                "start_time": 103.92727272727272,
                "end_time": 105.4090909090909,
                "pitch": 70,
                "velocity": 101,
                "duration": 1.4818181818181841,
                "tempo": 120.0
            },
            {
                "start_time": 105.42727272727272,
                "end_time": 105.57727272727273,
                "pitch": 70,
                "velocity": 101,
                "duration": 0.15000000000000568,
                "tempo": 120.0
            },
            {
                "start_time": 105.59318181818182,
                "end_time": 105.74318181818181,
                "pitch": 71,
                "velocity": 101,
                "duration": 0.14999999999999147,
                "tempo": 120.0
            },
            {
                "start_time": 105.7590909090909,
                "end_time": 105.9090909090909,
                "pitch": 73,
                "velocity": 101,
                "duration": 0.15000000000000568,
                "tempo": 120.0
            },
            {
                "start_time": 105.92727272727272,
                "end_time": 106.9090909090909,
                "pitch": 78,
                "velocity": 101,
                "duration": 0.9818181818181841,
                "tempo": 120.0
            },
            {
                "start_time": 106.92727272727272,
                "end_time": 107.9090909090909,
                "pitch": 66,
                "velocity": 101,
                "duration": 0.9818181818181841,
                "tempo": 120.0
            },
            {
                "start_time": 107.92727272727272,
                "end_time": 108.9090909090909,
                "pitch": 71,
                "velocity": 101,
                "duration": 0.9818181818181841,
                "tempo": 120.0
            },
            {
                "start_time": 108.92727272727272,
                "end_time": 109.4090909090909,
                "pitch": 73,
                "velocity": 101,
                "duration": 0.48181818181818414,
                "tempo": 120.0
            },
            {
                "start_time": 109.42727272727272,
                "end_time": 109.9090909090909,
                "pitch": 71,
                "velocity": 101,
                "duration": 0.48181818181818414,
                "tempo": 120.0
            },
            {
                "start_time": 109.92727272727272,
                "end_time": 111.9090909090909,
                "pitch": 70,
                "velocity": 101,
                "duration": 1.9818181818181841,
                "tempo": 120.0
            },
            {
                "start_time": 111.92727272727272,
                "end_time": 112.9090909090909,
                "pitch": 70,
                "velocity": 101,
                "duration": 0.9818181818181841,
                "tempo": 120.0
            },
            {
                "start_time": 112.92727272727272,
                "end_time": 113.6590909090909,
                "pitch": 65,
                "velocity": 101,
                "duration": 0.7318181818181841,
                "tempo": 120.0
            },
            {
                "start_time": 113.67727272727272,
                "end_time": 113.9090909090909,
                "pitch": 66,
                "velocity": 101,
                "duration": 0.23181818181818414,
                "tempo": 120.0
            },
            {
                "start_time": 113.92727272727272,
                "end_time": 115.9090909090909,
                "pitch": 75,
                "velocity": 101,
                "duration": 1.9818181818181841,
                "tempo": 120.0
            },
            {
                "start_time": 115.92727272727272,
                "end_time": 116.9090909090909,
                "pitch": 80,
                "velocity": 101,
                "duration": 0.9818181818181841,
                "tempo": 120.0
            },
            {
                "start_time": 116.92727272727272,
                "end_time": 117.6590909090909,
                "pitch": 75,
                "velocity": 101,
                "duration": 0.7318181818181841,
                "tempo": 120.0
            },
            {
                "start_time": 117.67727272727272,
                "end_time": 117.9090909090909,
                "pitch": 78,
                "velocity": 101,
                "duration": 0.23181818181818414,
                "tempo": 120.0
            },
            {
                "start_time": 117.92727272727272,
                "end_time": 119.9090909090909,
                "pitch": 77,
                "velocity": 101,
                "duration": 1.9818181818181841,
                "tempo": 120.0
            },
            {
                "start_time": 119.92727272727272,
                "end_time": 120.6590909090909,
                "pitch": 70,
                "velocity": 101,
                "duration": 0.7318181818181841,
                "tempo": 120.0
            },
            {
                "start_time": 120.67727272727272,
                "end_time": 120.9090909090909,
                "pitch": 70,
                "velocity": 101,
                "duration": 0.23181818181818414,
                "tempo": 120.0
            },
            {
                "start_time": 120.92727272727272,
                "end_time": 121.6590909090909,
                "pitch": 70,
                "velocity": 101,
                "duration": 0.7318181818181841,
                "tempo": 120.0
            },
            {
                "start_time": 121.67727272727272,
                "end_time": 121.9090909090909,
                "pitch": 70,
                "velocity": 101,
                "duration": 0.23181818181818414,
                "tempo": 120.0
            },
            {
                "start_time": 121.92727272727272,
                "end_time": 122.6590909090909,
                "pitch": 70,
                "velocity": 101,
                "duration": 0.7318181818181841,
                "tempo": 120.0
            },
            {
                "start_time": 122.67727272727272,
                "end_time": 122.9090909090909,
                "pitch": 70,
                "velocity": 101,
                "duration": 0.23181818181818414,
                "tempo": 120.0
            },
            {
                "start_time": 122.92727272727272,
                "end_time": 123.9090909090909,
                "pitch": 78,
                "velocity": 101,
                "duration": 0.9818181818181841,
                "tempo": 120.0
            },
            {
                "start_time": 123.92727272727272,
                "end_time": 124.9090909090909,
                "pitch": 77,
                "velocity": 101,
                "duration": 0.9818181818181841,
                "tempo": 120.0
            },
            {
                "start_time": 124.92727272727272,
                "end_time": 125.9090909090909,
                "pitch": 73,
                "velocity": 101,
                "duration": 0.9818181818181841,
                "tempo": 120.0
            }
        ],
        "Acoustic Bass": [
            {
                "start_time": 0.0,
                "end_time": 0.29318181818181815,
                "pitch": 49,
                "velocity": 64,
                "duration": 0.29318181818181815,
                "tempo": 120.0
            },
            {
                "start_time": 0.3068181818181818,
                "end_time": 0.634090909090909,
                "pitch": 49,
                "velocity": 64,
                "duration": 0.3272727272727272,
                "tempo": 120.0
            },
            {
                "start_time": 0.65,
                "end_time": 0.884090909090909,
                "pitch": 49,
                "velocity": 64,
                "duration": 0.23409090909090902,
                "tempo": 120.0
            },
            {
                "start_time": 1.15,
                "end_time": 1.384090909090909,
                "pitch": 49,
                "velocity": 64,
                "duration": 0.23409090909090913,
                "tempo": 120.0
            },
            {
                "start_time": 1.4,
                "end_time": 1.884090909090909,
                "pitch": 49,
                "velocity": 64,
                "duration": 0.4840909090909091,
                "tempo": 120.0
            },
            {
                "start_time": 1.9,
                "end_time": 2.2659090909090907,
                "pitch": 48,
                "velocity": 64,
                "duration": 0.36590909090909074,
                "tempo": 120.0
            },
            {
                "start_time": 2.284090909090909,
                "end_time": 2.634090909090909,
                "pitch": 48,
                "velocity": 64,
                "duration": 0.34999999999999964,
                "tempo": 120.0
            },
            {
                "start_time": 2.65,
                "end_time": 2.884090909090909,
                "pitch": 48,
                "velocity": 64,
                "duration": 0.2340909090909089,
                "tempo": 120.0
            },
            {
                "start_time": 3.15,
                "end_time": 3.384090909090909,
                "pitch": 48,
                "velocity": 64,
                "duration": 0.2340909090909089,
                "tempo": 120.0
            },
            {
                "start_time": 3.4,
                "end_time": 3.884090909090909,
                "pitch": 48,
                "velocity": 64,
                "duration": 0.4840909090909089,
                "tempo": 120.0
            },
            {
                "start_time": 3.9,
                "end_time": 4.265909090909091,
                "pitch": 46,
                "velocity": 64,
                "duration": 0.36590909090909074,
                "tempo": 120.0
            },
            {
                "start_time": 4.284090909090909,
                "end_time": 4.634090909090909,
                "pitch": 46,
                "velocity": 64,
                "duration": 0.34999999999999964,
                "tempo": 120.0
            },
            {
                "start_time": 4.6499999999999995,
                "end_time": 4.884090909090909,
                "pitch": 46,
                "velocity": 64,
                "duration": 0.23409090909090935,
                "tempo": 120.0
            },
            {
                "start_time": 5.1499999999999995,
                "end_time": 5.384090909090909,
                "pitch": 46,
                "velocity": 64,
                "duration": 0.23409090909090935,
                "tempo": 120.0
            },
            {
                "start_time": 5.3999999999999995,
                "end_time": 5.884090909090909,
                "pitch": 46,
                "velocity": 64,
                "duration": 0.48409090909090935,
                "tempo": 120.0
            },
            {
                "start_time": 5.8999999999999995,
                "end_time": 6.265909090909091,
                "pitch": 44,
                "velocity": 64,
                "duration": 0.3659090909090912,
                "tempo": 120.0
            },
            {
                "start_time": 6.284090909090909,
                "end_time": 6.634090909090909,
                "pitch": 44,
                "velocity": 64,
                "duration": 0.34999999999999964,
                "tempo": 120.0
            },
            {
                "start_time": 6.6499999999999995,
                "end_time": 6.884090909090909,
                "pitch": 44,
                "velocity": 64,
                "duration": 0.23409090909090935,
                "tempo": 120.0
            },
            {
                "start_time": 7.1499999999999995,
                "end_time": 7.384090909090909,
                "pitch": 44,
                "velocity": 64,
                "duration": 0.23409090909090935,
                "tempo": 120.0
            },
            {
                "start_time": 7.3999999999999995,
                "end_time": 7.884090909090909,
                "pitch": 44,
                "velocity": 64,
                "duration": 0.48409090909090935,
                "tempo": 120.0
            },
            {
                "start_time": 7.8999999999999995,
                "end_time": 8.26590909090909,
                "pitch": 42,
                "velocity": 64,
                "duration": 0.3659090909090912,
                "tempo": 120.0
            },
            {
                "start_time": 8.284090909090908,
                "end_time": 8.634090909090908,
                "pitch": 42,
                "velocity": 64,
                "duration": 0.34999999999999964,
                "tempo": 120.0
            },
            {
                "start_time": 8.65,
                "end_time": 8.884090909090908,
                "pitch": 42,
                "velocity": 64,
                "duration": 0.23409090909090757,
                "tempo": 120.0
            },
            {
                "start_time": 9.15,
                "end_time": 9.384090909090908,
                "pitch": 42,
                "velocity": 64,
                "duration": 0.23409090909090757,
                "tempo": 120.0
            },
            {
                "start_time": 9.4,
                "end_time": 9.884090909090908,
                "pitch": 42,
                "velocity": 64,
                "duration": 0.4840909090909076,
                "tempo": 120.0
            },
            {
                "start_time": 9.9,
                "end_time": 10.26590909090909,
                "pitch": 41,
                "velocity": 64,
                "duration": 0.3659090909090903,
                "tempo": 120.0
            },
            {
                "start_time": 10.284090909090908,
                "end_time": 10.634090909090908,
                "pitch": 41,
                "velocity": 64,
                "duration": 0.34999999999999964,
                "tempo": 120.0
            },
            {
                "start_time": 10.65,
                "end_time": 10.884090909090908,
                "pitch": 41,
                "velocity": 64,
                "duration": 0.23409090909090757,
                "tempo": 120.0
            },
            {
                "start_time": 11.149999999999999,
                "end_time": 11.384090909090908,
                "pitch": 41,
                "velocity": 64,
                "duration": 0.23409090909090935,
                "tempo": 120.0
            },
            {
                "start_time": 11.399999999999999,
                "end_time": 11.884090909090908,
                "pitch": 41,
                "velocity": 64,
                "duration": 0.48409090909090935,
                "tempo": 120.0
            },
            {
                "start_time": 11.899999999999999,
                "end_time": 12.26590909090909,
                "pitch": 42,
                "velocity": 64,
                "duration": 0.36590909090909207,
                "tempo": 120.0
            },
            {
                "start_time": 12.284090909090908,
                "end_time": 12.634090909090908,
                "pitch": 42,
                "velocity": 64,
                "duration": 0.34999999999999964,
                "tempo": 120.0
            },
            {
                "start_time": 12.649999999999999,
                "end_time": 12.884090909090908,
                "pitch": 42,
                "velocity": 64,
                "duration": 0.23409090909090935,
                "tempo": 120.0
            },
            {
                "start_time": 13.149999999999999,
                "end_time": 13.384090909090908,
                "pitch": 42,
                "velocity": 64,
                "duration": 0.23409090909090935,
                "tempo": 120.0
            },
            {
                "start_time": 13.399999999999999,
                "end_time": 13.884090909090908,
                "pitch": 42,
                "velocity": 64,
                "duration": 0.48409090909090935,
                "tempo": 120.0
            },
            {
                "start_time": 13.899999999999999,
                "end_time": 14.26590909090909,
                "pitch": 44,
                "velocity": 64,
                "duration": 0.36590909090909207,
                "tempo": 120.0
            },
            {
                "start_time": 14.284090909090908,
                "end_time": 14.634090909090908,
                "pitch": 44,
                "velocity": 64,
                "duration": 0.34999999999999964,
                "tempo": 120.0
            },
            {
                "start_time": 14.649999999999999,
                "end_time": 14.884090909090908,
                "pitch": 44,
                "velocity": 64,
                "duration": 0.23409090909090935,
                "tempo": 120.0
            },
            {
                "start_time": 15.149999999999999,
                "end_time": 15.384090909090908,
                "pitch": 44,
                "velocity": 64,
                "duration": 0.23409090909090935,
                "tempo": 120.0
            },
            {
                "start_time": 15.399999999999999,
                "end_time": 15.884090909090908,
                "pitch": 44,
                "velocity": 64,
                "duration": 0.48409090909090935,
                "tempo": 120.0
            },
            {
                "start_time": 15.899999999999999,
                "end_time": 16.26590909090909,
                "pitch": 49,
                "velocity": 64,
                "duration": 0.36590909090909207,
                "tempo": 120.0
            },
            {
                "start_time": 16.28409090909091,
                "end_time": 16.634090909090908,
                "pitch": 49,
                "velocity": 64,
                "duration": 0.34999999999999787,
                "tempo": 120.0
            },
            {
                "start_time": 16.65,
                "end_time": 16.884090909090908,
                "pitch": 49,
                "velocity": 64,
                "duration": 0.23409090909090935,
                "tempo": 120.0
            },
            {
                "start_time": 17.15,
                "end_time": 17.384090909090908,
                "pitch": 49,
                "velocity": 64,
                "duration": 0.23409090909090935,
                "tempo": 120.0
            },
            {
                "start_time": 17.4,
                "end_time": 17.884090909090908,
                "pitch": 49,
                "velocity": 64,
                "duration": 0.48409090909090935,
                "tempo": 120.0
            },
            {
                "start_time": 17.9,
                "end_time": 18.26590909090909,
                "pitch": 48,
                "velocity": 64,
                "duration": 0.36590909090909207,
                "tempo": 120.0
            },
            {
                "start_time": 18.284090909090907,
                "end_time": 18.634090909090908,
                "pitch": 48,
                "velocity": 64,
                "duration": 0.3500000000000014,
                "tempo": 120.0
            },
            {
                "start_time": 18.65,
                "end_time": 18.884090909090908,
                "pitch": 48,
                "velocity": 64,
                "duration": 0.23409090909090935,
                "tempo": 120.0
            },
            {
                "start_time": 19.15,
                "end_time": 19.384090909090908,
                "pitch": 48,
                "velocity": 64,
                "duration": 0.23409090909090935,
                "tempo": 120.0
            },
            {
                "start_time": 19.4,
                "end_time": 19.884090909090908,
                "pitch": 48,
                "velocity": 64,
                "duration": 0.48409090909090935,
                "tempo": 120.0
            },
            {
                "start_time": 19.9,
                "end_time": 20.26590909090909,
                "pitch": 46,
                "velocity": 64,
                "duration": 0.36590909090909207,
                "tempo": 120.0
            },
            {
                "start_time": 20.284090909090907,
                "end_time": 20.634090909090908,
                "pitch": 46,
                "velocity": 64,
                "duration": 0.3500000000000014,
                "tempo": 120.0
            },
            {
                "start_time": 20.65,
                "end_time": 20.884090909090908,
                "pitch": 46,
                "velocity": 64,
                "duration": 0.23409090909090935,
                "tempo": 120.0
            },
            {
                "start_time": 21.15,
                "end_time": 21.384090909090908,
                "pitch": 46,
                "velocity": 64,
                "duration": 0.23409090909090935,
                "tempo": 120.0
            },
            {
                "start_time": 21.4,
                "end_time": 21.884090909090908,
                "pitch": 46,
                "velocity": 64,
                "duration": 0.48409090909090935,
                "tempo": 120.0
            },
            {
                "start_time": 21.9,
                "end_time": 22.26590909090909,
                "pitch": 44,
                "velocity": 64,
                "duration": 0.36590909090909207,
                "tempo": 120.0
            },
            {
                "start_time": 22.284090909090907,
                "end_time": 22.634090909090908,
                "pitch": 44,
                "velocity": 64,
                "duration": 0.3500000000000014,
                "tempo": 120.0
            },
            {
                "start_time": 22.65,
                "end_time": 22.884090909090908,
                "pitch": 44,
                "velocity": 64,
                "duration": 0.23409090909090935,
                "tempo": 120.0
            },
            {
                "start_time": 23.15,
                "end_time": 23.384090909090908,
                "pitch": 44,
                "velocity": 64,
                "duration": 0.23409090909090935,
                "tempo": 120.0
            },
            {
                "start_time": 23.4,
                "end_time": 23.884090909090908,
                "pitch": 44,
                "velocity": 64,
                "duration": 0.48409090909090935,
                "tempo": 120.0
            },
            {
                "start_time": 23.9,
                "end_time": 24.26590909090909,
                "pitch": 42,
                "velocity": 64,
                "duration": 0.36590909090909207,
                "tempo": 120.0
            },
            {
                "start_time": 24.284090909090907,
                "end_time": 24.634090909090908,
                "pitch": 42,
                "velocity": 64,
                "duration": 0.3500000000000014,
                "tempo": 120.0
            },
            {
                "start_time": 24.65,
                "end_time": 24.884090909090908,
                "pitch": 42,
                "velocity": 64,
                "duration": 0.23409090909090935,
                "tempo": 120.0
            },
            {
                "start_time": 25.15,
                "end_time": 25.384090909090908,
                "pitch": 42,
                "velocity": 64,
                "duration": 0.23409090909090935,
                "tempo": 120.0
            },
            {
                "start_time": 25.4,
                "end_time": 25.884090909090908,
                "pitch": 42,
                "velocity": 64,
                "duration": 0.48409090909090935,
                "tempo": 120.0
            },
            {
                "start_time": 25.9,
                "end_time": 26.26590909090909,
                "pitch": 41,
                "velocity": 64,
                "duration": 0.36590909090909207,
                "tempo": 120.0
            },
            {
                "start_time": 26.284090909090907,
                "end_time": 26.634090909090908,
                "pitch": 41,
                "velocity": 64,
                "duration": 0.3500000000000014,
                "tempo": 120.0
            },
            {
                "start_time": 26.65,
                "end_time": 26.884090909090908,
                "pitch": 41,
                "velocity": 64,
                "duration": 0.23409090909090935,
                "tempo": 120.0
            },
            {
                "start_time": 27.15,
                "end_time": 27.384090909090908,
                "pitch": 41,
                "velocity": 64,
                "duration": 0.23409090909090935,
                "tempo": 120.0
            },
            {
                "start_time": 27.4,
                "end_time": 27.884090909090908,
                "pitch": 41,
                "velocity": 64,
                "duration": 0.48409090909090935,
                "tempo": 120.0
            },
            {
                "start_time": 27.9,
                "end_time": 28.26590909090909,
                "pitch": 44,
                "velocity": 64,
                "duration": 0.36590909090909207,
                "tempo": 120.0
            },
            {
                "start_time": 28.284090909090907,
                "end_time": 28.634090909090908,
                "pitch": 44,
                "velocity": 64,
                "duration": 0.3500000000000014,
                "tempo": 120.0
            },
            {
                "start_time": 28.65,
                "end_time": 28.884090909090908,
                "pitch": 44,
                "velocity": 64,
                "duration": 0.23409090909090935,
                "tempo": 120.0
            },
            {
                "start_time": 29.15,
                "end_time": 29.384090909090908,
                "pitch": 44,
                "velocity": 64,
                "duration": 0.23409090909090935,
                "tempo": 120.0
            },
            {
                "start_time": 29.4,
                "end_time": 29.884090909090908,
                "pitch": 44,
                "velocity": 64,
                "duration": 0.48409090909090935,
                "tempo": 120.0
            },
            {
                "start_time": 29.9,
                "end_time": 30.275,
                "pitch": 49,
                "velocity": 64,
                "duration": 0.375,
                "tempo": 120.0
            },
            {
                "start_time": 30.293181818181818,
                "end_time": 30.643181818181816,
                "pitch": 49,
                "velocity": 64,
                "duration": 0.34999999999999787,
                "tempo": 120.0
            },
            {
                "start_time": 30.659090909090907,
                "end_time": 30.888636363636362,
                "pitch": 49,
                "velocity": 64,
                "duration": 0.22954545454545539,
                "tempo": 120.0
            },
            {
                "start_time": 31.154545454545453,
                "end_time": 31.388636363636362,
                "pitch": 49,
                "velocity": 64,
                "duration": 0.23409090909090935,
                "tempo": 120.0
            },
            {
                "start_time": 31.404545454545453,
                "end_time": 31.888636363636362,
                "pitch": 49,
                "velocity": 64,
                "duration": 0.48409090909090935,
                "tempo": 120.0
            },
            {
                "start_time": 31.904545454545453,
                "end_time": 32.27045454545454,
                "pitch": 44,
                "velocity": 64,
                "duration": 0.3659090909090885,
                "tempo": 120.0
            },
            {
                "start_time": 32.288636363636364,
                "end_time": 32.638636363636365,
                "pitch": 44,
                "velocity": 64,
                "duration": 0.3500000000000014,
                "tempo": 120.0
            },
            {
                "start_time": 32.654545454545456,
                "end_time": 32.888636363636365,
                "pitch": 44,
                "velocity": 64,
                "duration": 0.23409090909090935,
                "tempo": 120.0
            },
            {
                "start_time": 33.154545454545456,
                "end_time": 33.388636363636365,
                "pitch": 44,
                "velocity": 64,
                "duration": 0.23409090909090935,
                "tempo": 120.0
            },
            {
                "start_time": 33.404545454545456,
                "end_time": 33.888636363636365,
                "pitch": 44,
                "velocity": 64,
                "duration": 0.48409090909090935,
                "tempo": 120.0
            },
            {
                "start_time": 33.904545454545456,
                "end_time": 34.27045454545454,
                "pitch": 44,
                "velocity": 64,
                "duration": 0.36590909090908497,
                "tempo": 120.0
            },
            {
                "start_time": 34.288636363636364,
                "end_time": 34.638636363636365,
                "pitch": 44,
                "velocity": 64,
                "duration": 0.3500000000000014,
                "tempo": 120.0
            },
            {
                "start_time": 34.654545454545456,
                "end_time": 34.888636363636365,
                "pitch": 44,
                "velocity": 64,
                "duration": 0.23409090909090935,
                "tempo": 120.0
            },
            {
                "start_time": 35.154545454545456,
                "end_time": 35.388636363636365,
                "pitch": 44,
                "velocity": 64,
                "duration": 0.23409090909090935,
                "tempo": 120.0
            },
            {
                "start_time": 35.404545454545456,
                "end_time": 35.888636363636365,
                "pitch": 44,
                "velocity": 64,
                "duration": 0.48409090909090935,
                "tempo": 120.0
            },
            {
                "start_time": 35.904545454545456,
                "end_time": 36.27045454545454,
                "pitch": 39,
                "velocity": 64,
                "duration": 0.36590909090908497,
                "tempo": 120.0
            },
            {
                "start_time": 36.288636363636364,
                "end_time": 36.63863636363636,
                "pitch": 39,
                "velocity": 64,
                "duration": 0.3499999999999943,
                "tempo": 120.0
            },
            {
                "start_time": 36.654545454545456,
                "end_time": 36.88863636363636,
                "pitch": 39,
                "velocity": 64,
                "duration": 0.23409090909090224,
                "tempo": 120.0
            },
            {
                "start_time": 37.154545454545456,
                "end_time": 37.38863636363636,
                "pitch": 39,
                "velocity": 64,
                "duration": 0.23409090909090224,
                "tempo": 120.0
            },
            {
                "start_time": 37.404545454545456,
                "end_time": 37.88863636363636,
                "pitch": 39,
                "velocity": 64,
                "duration": 0.48409090909090224,
                "tempo": 120.0
            },
            {
                "start_time": 37.904545454545456,
                "end_time": 38.27045454545454,
                "pitch": 39,
                "velocity": 64,
                "duration": 0.36590909090908497,
                "tempo": 120.0
            },
            {
                "start_time": 38.288636363636364,
                "end_time": 38.63863636363636,
                "pitch": 39,
                "velocity": 64,
                "duration": 0.3499999999999943,
                "tempo": 120.0
            },
            {
                "start_time": 38.654545454545456,
                "end_time": 38.88863636363636,
                "pitch": 39,
                "velocity": 64,
                "duration": 0.23409090909090224,
                "tempo": 120.0
            },
            {
                "start_time": 39.154545454545456,
                "end_time": 39.38863636363636,
                "pitch": 39,
                "velocity": 64,
                "duration": 0.23409090909090224,
                "tempo": 120.0
            },
            {
                "start_time": 39.404545454545456,
                "end_time": 39.88863636363636,
                "pitch": 39,
                "velocity": 64,
                "duration": 0.48409090909090224,
                "tempo": 120.0
            },
            {
                "start_time": 39.904545454545456,
                "end_time": 40.27045454545454,
                "pitch": 44,
                "velocity": 64,
                "duration": 0.36590909090908497,
                "tempo": 120.0
            },
            {
                "start_time": 40.288636363636364,
                "end_time": 40.63863636363636,
                "pitch": 44,
                "velocity": 64,
                "duration": 0.3499999999999943,
                "tempo": 120.0
            },
            {
                "start_time": 40.654545454545456,
                "end_time": 40.88863636363636,
                "pitch": 44,
                "velocity": 64,
                "duration": 0.23409090909090224,
                "tempo": 120.0
            },
            {
                "start_time": 41.154545454545456,
                "end_time": 41.38863636363636,
                "pitch": 44,
                "velocity": 64,
                "duration": 0.23409090909090224,
                "tempo": 120.0
            },
            {
                "start_time": 41.40454545454545,
                "end_time": 41.88863636363636,
                "pitch": 44,
                "velocity": 64,
                "duration": 0.48409090909090935,
                "tempo": 120.0
            },
            {
                "start_time": 41.90454545454545,
                "end_time": 42.27045454545454,
                "pitch": 44,
                "velocity": 64,
                "duration": 0.36590909090909207,
                "tempo": 120.0
            },
            {
                "start_time": 42.288636363636364,
                "end_time": 42.63863636363636,
                "pitch": 44,
                "velocity": 64,
                "duration": 0.3499999999999943,
                "tempo": 120.0
            },
            {
                "start_time": 42.65454545454545,
                "end_time": 42.88863636363636,
                "pitch": 44,
                "velocity": 64,
                "duration": 0.23409090909090935,
                "tempo": 120.0
            },
            {
                "start_time": 43.15454545454545,
                "end_time": 43.38863636363636,
                "pitch": 44,
                "velocity": 64,
                "duration": 0.23409090909090935,
                "tempo": 120.0
            },
            {
                "start_time": 43.40454545454545,
                "end_time": 43.88863636363636,
                "pitch": 44,
                "velocity": 64,
                "duration": 0.48409090909090935,
                "tempo": 120.0
            },
            {
                "start_time": 43.90454545454545,
                "end_time": 44.27045454545454,
                "pitch": 44,
                "velocity": 64,
                "duration": 0.36590909090909207,
                "tempo": 120.0
            },
            {
                "start_time": 44.288636363636364,
                "end_time": 44.63863636363636,
                "pitch": 44,
                "velocity": 64,
                "duration": 0.3499999999999943,
                "tempo": 120.0
            },
            {
                "start_time": 44.65454545454545,
                "end_time": 44.88863636363636,
                "pitch": 44,
                "velocity": 64,
                "duration": 0.23409090909090935,
                "tempo": 120.0
            },
            {
                "start_time": 45.15454545454545,
                "end_time": 45.38863636363636,
                "pitch": 44,
                "velocity": 64,
                "duration": 0.23409090909090935,
                "tempo": 120.0
            },
            {
                "start_time": 45.40454545454545,
                "end_time": 45.88863636363636,
                "pitch": 44,
                "velocity": 64,
                "duration": 0.48409090909090935,
                "tempo": 120.0
            },
            {
                "start_time": 45.90454545454545,
                "end_time": 46.27954545454545,
                "pitch": 49,
                "velocity": 64,
                "duration": 0.375,
                "tempo": 120.0
            },
            {
                "start_time": 46.29772727272727,
                "end_time": 46.64545454545454,
                "pitch": 49,
                "velocity": 64,
                "duration": 0.3477272727272691,
                "tempo": 120.0
            },
            {
                "start_time": 46.663636363636364,
                "end_time": 46.893181818181816,
                "pitch": 49,
                "velocity": 64,
                "duration": 0.22954545454545183,
                "tempo": 120.0
            },
            {
                "start_time": 47.15909090909091,
                "end_time": 47.393181818181816,
                "pitch": 49,
                "velocity": 64,
                "duration": 0.23409090909090935,
                "tempo": 120.0
            },
            {
                "start_time": 47.40909090909091,
                "end_time": 47.893181818181816,
                "pitch": 49,
                "velocity": 64,
                "duration": 0.48409090909090935,
                "tempo": 120.0
            },
            {
                "start_time": 47.90909090909091,
                "end_time": 48.275,
                "pitch": 49,
                "velocity": 64,
                "duration": 0.36590909090909207,
                "tempo": 120.0
            },
            {
                "start_time": 48.293181818181814,
                "end_time": 48.643181818181816,
                "pitch": 49,
                "velocity": 64,
                "duration": 0.3500000000000014,
                "tempo": 120.0
            },
            {
                "start_time": 48.65909090909091,
                "end_time": 48.893181818181816,
                "pitch": 49,
                "velocity": 64,
                "duration": 0.23409090909090935,
                "tempo": 120.0
            },
            {
                "start_time": 49.15909090909091,
                "end_time": 49.393181818181816,
                "pitch": 49,
                "velocity": 64,
                "duration": 0.23409090909090935,
                "tempo": 120.0
            },
            {
                "start_time": 49.40909090909091,
                "end_time": 49.893181818181816,
                "pitch": 49,
                "velocity": 64,
                "duration": 0.48409090909090935,
                "tempo": 120.0
            },
            {
                "start_time": 49.90909090909091,
                "end_time": 50.275,
                "pitch": 48,
                "velocity": 64,
                "duration": 0.36590909090909207,
                "tempo": 120.0
            },
            {
                "start_time": 50.293181818181814,
                "end_time": 50.643181818181816,
                "pitch": 48,
                "velocity": 64,
                "duration": 0.3500000000000014,
                "tempo": 120.0
            },
            {
                "start_time": 50.65909090909091,
                "end_time": 50.893181818181816,
                "pitch": 48,
                "velocity": 64,
                "duration": 0.23409090909090935,
                "tempo": 120.0
            },
            {
                "start_time": 51.15909090909091,
                "end_time": 51.393181818181816,
                "pitch": 48,
                "velocity": 64,
                "duration": 0.23409090909090935,
                "tempo": 120.0
            },
            {
                "start_time": 51.40909090909091,
                "end_time": 51.893181818181816,
                "pitch": 48,
                "velocity": 64,
                "duration": 0.48409090909090935,
                "tempo": 120.0
            },
            {
                "start_time": 51.90909090909091,
                "end_time": 52.275,
                "pitch": 46,
                "velocity": 64,
                "duration": 0.36590909090909207,
                "tempo": 120.0
            },
            {
                "start_time": 52.293181818181814,
                "end_time": 52.643181818181816,
                "pitch": 46,
                "velocity": 64,
                "duration": 0.3500000000000014,
                "tempo": 120.0
            },
            {
                "start_time": 52.65909090909091,
                "end_time": 52.893181818181816,
                "pitch": 46,
                "velocity": 64,
                "duration": 0.23409090909090935,
                "tempo": 120.0
            },
            {
                "start_time": 53.15909090909091,
                "end_time": 53.393181818181816,
                "pitch": 46,
                "velocity": 64,
                "duration": 0.23409090909090935,
                "tempo": 120.0
            },
            {
                "start_time": 53.40909090909091,
                "end_time": 53.893181818181816,
                "pitch": 46,
                "velocity": 64,
                "duration": 0.48409090909090935,
                "tempo": 120.0
            },
            {
                "start_time": 53.90909090909091,
                "end_time": 54.275,
                "pitch": 44,
                "velocity": 64,
                "duration": 0.36590909090909207,
                "tempo": 120.0
            },
            {
                "start_time": 54.293181818181814,
                "end_time": 54.643181818181816,
                "pitch": 44,
                "velocity": 64,
                "duration": 0.3500000000000014,
                "tempo": 120.0
            },
            {
                "start_time": 54.65909090909091,
                "end_time": 54.893181818181816,
                "pitch": 44,
                "velocity": 64,
                "duration": 0.23409090909090935,
                "tempo": 120.0
            },
            {
                "start_time": 55.15909090909091,
                "end_time": 55.393181818181816,
                "pitch": 44,
                "velocity": 64,
                "duration": 0.23409090909090935,
                "tempo": 120.0
            },
            {
                "start_time": 55.40909090909091,
                "end_time": 55.893181818181816,
                "pitch": 44,
                "velocity": 64,
                "duration": 0.48409090909090935,
                "tempo": 120.0
            },
            {
                "start_time": 55.90909090909091,
                "end_time": 56.275,
                "pitch": 42,
                "velocity": 64,
                "duration": 0.36590909090909207,
                "tempo": 120.0
            },
            {
                "start_time": 56.293181818181814,
                "end_time": 56.643181818181816,
                "pitch": 42,
                "velocity": 64,
                "duration": 0.3500000000000014,
                "tempo": 120.0
            },
            {
                "start_time": 56.65909090909091,
                "end_time": 56.893181818181816,
                "pitch": 42,
                "velocity": 64,
                "duration": 0.23409090909090935,
                "tempo": 120.0
            },
            {
                "start_time": 57.15909090909091,
                "end_time": 57.393181818181816,
                "pitch": 42,
                "velocity": 64,
                "duration": 0.23409090909090935,
                "tempo": 120.0
            },
            {
                "start_time": 57.40909090909091,
                "end_time": 57.893181818181816,
                "pitch": 42,
                "velocity": 64,
                "duration": 0.48409090909090935,
                "tempo": 120.0
            },
            {
                "start_time": 57.90909090909091,
                "end_time": 58.275,
                "pitch": 41,
                "velocity": 64,
                "duration": 0.36590909090909207,
                "tempo": 120.0
            },
            {
                "start_time": 58.293181818181814,
                "end_time": 58.643181818181816,
                "pitch": 41,
                "velocity": 64,
                "duration": 0.3500000000000014,
                "tempo": 120.0
            },
            {
                "start_time": 58.65909090909091,
                "end_time": 58.893181818181816,
                "pitch": 41,
                "velocity": 64,
                "duration": 0.23409090909090935,
                "tempo": 120.0
            },
            {
                "start_time": 59.15909090909091,
                "end_time": 59.393181818181816,
                "pitch": 41,
                "velocity": 64,
                "duration": 0.23409090909090935,
                "tempo": 120.0
            },
            {
                "start_time": 59.40909090909091,
                "end_time": 59.893181818181816,
                "pitch": 41,
                "velocity": 64,
                "duration": 0.48409090909090935,
                "tempo": 120.0
            },
            {
                "start_time": 59.90909090909091,
                "end_time": 60.275,
                "pitch": 42,
                "velocity": 64,
                "duration": 0.36590909090909207,
                "tempo": 120.0
            },
            {
                "start_time": 60.293181818181814,
                "end_time": 60.643181818181816,
                "pitch": 42,
                "velocity": 64,
                "duration": 0.3500000000000014,
                "tempo": 120.0
            },
            {
                "start_time": 60.65909090909091,
                "end_time": 60.893181818181816,
                "pitch": 42,
                "velocity": 64,
                "duration": 0.23409090909090935,
                "tempo": 120.0
            },
            {
                "start_time": 61.15909090909091,
                "end_time": 61.393181818181816,
                "pitch": 42,
                "velocity": 64,
                "duration": 0.23409090909090935,
                "tempo": 120.0
            },
            {
                "start_time": 61.40909090909091,
                "end_time": 61.893181818181816,
                "pitch": 42,
                "velocity": 64,
                "duration": 0.48409090909090935,
                "tempo": 120.0
            },
            {
                "start_time": 61.90909090909091,
                "end_time": 62.275,
                "pitch": 44,
                "velocity": 64,
                "duration": 0.36590909090909207,
                "tempo": 120.0
            },
            {
                "start_time": 62.293181818181814,
                "end_time": 62.643181818181816,
                "pitch": 44,
                "velocity": 64,
                "duration": 0.3500000000000014,
                "tempo": 120.0
            },
            {
                "start_time": 62.65909090909091,
                "end_time": 62.893181818181816,
                "pitch": 44,
                "velocity": 64,
                "duration": 0.23409090909090935,
                "tempo": 120.0
            },
            {
                "start_time": 63.15909090909091,
                "end_time": 63.393181818181816,
                "pitch": 44,
                "velocity": 64,
                "duration": 0.23409090909090935,
                "tempo": 120.0
            },
            {
                "start_time": 63.40909090909091,
                "end_time": 63.893181818181816,
                "pitch": 44,
                "velocity": 64,
                "duration": 0.48409090909090935,
                "tempo": 120.0
            },
            {
                "start_time": 63.90909090909091,
                "end_time": 64.27499999999999,
                "pitch": 49,
                "velocity": 64,
                "duration": 0.36590909090908497,
                "tempo": 120.0
            },
            {
                "start_time": 64.29318181818182,
                "end_time": 64.64318181818182,
                "pitch": 49,
                "velocity": 64,
                "duration": 0.3499999999999943,
                "tempo": 120.0
            },
            {
                "start_time": 64.6590909090909,
                "end_time": 64.89318181818182,
                "pitch": 49,
                "velocity": 64,
                "duration": 0.23409090909090935,
                "tempo": 120.0
            },
            {
                "start_time": 65.1590909090909,
                "end_time": 65.39318181818182,
                "pitch": 49,
                "velocity": 64,
                "duration": 0.23409090909090935,
                "tempo": 120.0
            },
            {
                "start_time": 65.4090909090909,
                "end_time": 65.89318181818182,
                "pitch": 49,
                "velocity": 64,
                "duration": 0.48409090909090935,
                "tempo": 120.0
            },
            {
                "start_time": 65.9090909090909,
                "end_time": 66.27499999999999,
                "pitch": 48,
                "velocity": 64,
                "duration": 0.36590909090908497,
                "tempo": 120.0
            },
            {
                "start_time": 66.29318181818182,
                "end_time": 66.64318181818182,
                "pitch": 48,
                "velocity": 64,
                "duration": 0.3499999999999943,
                "tempo": 120.0
            },
            {
                "start_time": 66.6590909090909,
                "end_time": 66.89318181818182,
                "pitch": 48,
                "velocity": 64,
                "duration": 0.23409090909090935,
                "tempo": 120.0
            },
            {
                "start_time": 67.1590909090909,
                "end_time": 67.39318181818182,
                "pitch": 48,
                "velocity": 64,
                "duration": 0.23409090909090935,
                "tempo": 120.0
            },
            {
                "start_time": 67.4090909090909,
                "end_time": 67.89318181818182,
                "pitch": 48,
                "velocity": 64,
                "duration": 0.48409090909090935,
                "tempo": 120.0
            },
            {
                "start_time": 67.9090909090909,
                "end_time": 68.27499999999999,
                "pitch": 46,
                "velocity": 64,
                "duration": 0.36590909090908497,
                "tempo": 120.0
            },
            {
                "start_time": 68.29318181818182,
                "end_time": 68.64318181818182,
                "pitch": 46,
                "velocity": 64,
                "duration": 0.3499999999999943,
                "tempo": 120.0
            },
            {
                "start_time": 68.6590909090909,
                "end_time": 68.89318181818182,
                "pitch": 46,
                "velocity": 64,
                "duration": 0.23409090909090935,
                "tempo": 120.0
            },
            {
                "start_time": 69.1590909090909,
                "end_time": 69.39318181818182,
                "pitch": 46,
                "velocity": 64,
                "duration": 0.23409090909090935,
                "tempo": 120.0
            },
            {
                "start_time": 69.4090909090909,
                "end_time": 69.89318181818182,
                "pitch": 46,
                "velocity": 64,
                "duration": 0.48409090909090935,
                "tempo": 120.0
            },
            {
                "start_time": 69.9090909090909,
                "end_time": 70.27499999999999,
                "pitch": 44,
                "velocity": 64,
                "duration": 0.36590909090908497,
                "tempo": 120.0
            },
            {
                "start_time": 70.29318181818182,
                "end_time": 70.64318181818182,
                "pitch": 44,
                "velocity": 64,
                "duration": 0.3499999999999943,
                "tempo": 120.0
            },
            {
                "start_time": 70.6590909090909,
                "end_time": 70.89318181818182,
                "pitch": 44,
                "velocity": 64,
                "duration": 0.23409090909090935,
                "tempo": 120.0
            },
            {
                "start_time": 71.1590909090909,
                "end_time": 71.39318181818182,
                "pitch": 44,
                "velocity": 64,
                "duration": 0.23409090909090935,
                "tempo": 120.0
            },
            {
                "start_time": 71.4090909090909,
                "end_time": 71.89318181818182,
                "pitch": 44,
                "velocity": 64,
                "duration": 0.48409090909090935,
                "tempo": 120.0
            },
            {
                "start_time": 71.9090909090909,
                "end_time": 72.27499999999999,
                "pitch": 42,
                "velocity": 64,
                "duration": 0.36590909090908497,
                "tempo": 120.0
            },
            {
                "start_time": 72.29318181818182,
                "end_time": 72.64318181818182,
                "pitch": 42,
                "velocity": 64,
                "duration": 0.3499999999999943,
                "tempo": 120.0
            },
            {
                "start_time": 72.6590909090909,
                "end_time": 72.89318181818182,
                "pitch": 42,
                "velocity": 64,
                "duration": 0.23409090909090935,
                "tempo": 120.0
            },
            {
                "start_time": 73.1590909090909,
                "end_time": 73.39318181818182,
                "pitch": 42,
                "velocity": 64,
                "duration": 0.23409090909090935,
                "tempo": 120.0
            },
            {
                "start_time": 73.4090909090909,
                "end_time": 73.89318181818182,
                "pitch": 42,
                "velocity": 64,
                "duration": 0.48409090909090935,
                "tempo": 120.0
            },
            {
                "start_time": 73.9090909090909,
                "end_time": 74.27499999999999,
                "pitch": 41,
                "velocity": 64,
                "duration": 0.36590909090908497,
                "tempo": 120.0
            },
            {
                "start_time": 74.29318181818182,
                "end_time": 74.64318181818182,
                "pitch": 41,
                "velocity": 64,
                "duration": 0.3499999999999943,
                "tempo": 120.0
            },
            {
                "start_time": 74.6590909090909,
                "end_time": 74.89318181818182,
                "pitch": 41,
                "velocity": 64,
                "duration": 0.23409090909090935,
                "tempo": 120.0
            },
            {
                "start_time": 75.1590909090909,
                "end_time": 75.39318181818182,
                "pitch": 41,
                "velocity": 64,
                "duration": 0.23409090909090935,
                "tempo": 120.0
            },
            {
                "start_time": 75.4090909090909,
                "end_time": 75.89318181818182,
                "pitch": 41,
                "velocity": 64,
                "duration": 0.48409090909090935,
                "tempo": 120.0
            },
            {
                "start_time": 75.9090909090909,
                "end_time": 76.27499999999999,
                "pitch": 44,
                "velocity": 64,
                "duration": 0.36590909090908497,
                "tempo": 120.0
            },
            {
                "start_time": 76.29318181818182,
                "end_time": 76.64318181818182,
                "pitch": 44,
                "velocity": 64,
                "duration": 0.3499999999999943,
                "tempo": 120.0
            },
            {
                "start_time": 76.6590909090909,
                "end_time": 76.89318181818182,
                "pitch": 44,
                "velocity": 64,
                "duration": 0.23409090909090935,
                "tempo": 120.0
            },
            {
                "start_time": 77.1590909090909,
                "end_time": 77.39318181818182,
                "pitch": 44,
                "velocity": 64,
                "duration": 0.23409090909090935,
                "tempo": 120.0
            },
            {
                "start_time": 77.4090909090909,
                "end_time": 77.89318181818182,
                "pitch": 44,
                "velocity": 64,
                "duration": 0.48409090909090935,
                "tempo": 120.0
            },
            {
                "start_time": 77.9090909090909,
                "end_time": 78.2840909090909,
                "pitch": 49,
                "velocity": 64,
                "duration": 0.375,
                "tempo": 120.0
            },
            {
                "start_time": 78.30227272727272,
                "end_time": 78.64999999999999,
                "pitch": 49,
                "velocity": 64,
                "duration": 0.3477272727272691,
                "tempo": 120.0
            },
            {
                "start_time": 78.66818181818181,
                "end_time": 78.89772727272727,
                "pitch": 49,
                "velocity": 64,
                "duration": 0.22954545454545894,
                "tempo": 120.0
            },
            {
                "start_time": 79.16363636363636,
                "end_time": 79.39545454545454,
                "pitch": 49,
                "velocity": 64,
                "duration": 0.23181818181818414,
                "tempo": 120.0
            },
            {
                "start_time": 79.41363636363636,
                "end_time": 79.89545454545454,
                "pitch": 49,
                "velocity": 64,
                "duration": 0.48181818181818414,
                "tempo": 120.0
            },
            {
                "start_time": 79.91363636363636,
                "end_time": 80.27954545454546,
                "pitch": 49,
                "velocity": 64,
                "duration": 0.3659090909090992,
                "tempo": 120.0
            },
            {
                "start_time": 80.29545454545455,
                "end_time": 80.64545454545454,
                "pitch": 49,
                "velocity": 64,
                "duration": 0.3499999999999943,
                "tempo": 120.0
            },
            {
                "start_time": 80.66363636363636,
                "end_time": 80.89545454545454,
                "pitch": 49,
                "velocity": 64,
                "duration": 0.23181818181818414,
                "tempo": 120.0
            },
            {
                "start_time": 81.16363636363636,
                "end_time": 81.39545454545454,
                "pitch": 49,
                "velocity": 64,
                "duration": 0.23181818181818414,
                "tempo": 120.0
            },
            {
                "start_time": 81.41363636363636,
                "end_time": 81.89545454545454,
                "pitch": 49,
                "velocity": 64,
                "duration": 0.48181818181818414,
                "tempo": 120.0
            },
            {
                "start_time": 81.91363636363636,
                "end_time": 82.27954545454546,
                "pitch": 49,
                "velocity": 64,
                "duration": 0.3659090909090992,
                "tempo": 120.0
            },
            {
                "start_time": 82.29545454545455,
                "end_time": 82.64545454545454,
                "pitch": 49,
                "velocity": 64,
                "duration": 0.3499999999999943,
                "tempo": 120.0
            },
            {
                "start_time": 82.66363636363636,
                "end_time": 82.89545454545454,
                "pitch": 49,
                "velocity": 64,
                "duration": 0.23181818181818414,
                "tempo": 120.0
            },
            {
                "start_time": 83.16363636363636,
                "end_time": 83.39545454545454,
                "pitch": 49,
                "velocity": 64,
                "duration": 0.23181818181818414,
                "tempo": 120.0
            },
            {
                "start_time": 83.41363636363636,
                "end_time": 83.89545454545454,
                "pitch": 49,
                "velocity": 64,
                "duration": 0.48181818181818414,
                "tempo": 120.0
            },
            {
                "start_time": 83.91363636363636,
                "end_time": 84.27954545454546,
                "pitch": 49,
                "velocity": 64,
                "duration": 0.3659090909090992,
                "tempo": 120.0
            },
            {
                "start_time": 84.29545454545455,
                "end_time": 84.64545454545454,
                "pitch": 49,
                "velocity": 64,
                "duration": 0.3499999999999943,
                "tempo": 120.0
            },
            {
                "start_time": 84.66363636363636,
                "end_time": 84.89545454545454,
                "pitch": 49,
                "velocity": 64,
                "duration": 0.23181818181818414,
                "tempo": 120.0
            },
            {
                "start_time": 85.16363636363636,
                "end_time": 85.39545454545454,
                "pitch": 49,
                "velocity": 64,
                "duration": 0.23181818181818414,
                "tempo": 120.0
            },
            {
                "start_time": 85.41363636363636,
                "end_time": 85.89545454545454,
                "pitch": 49,
                "velocity": 64,
                "duration": 0.48181818181818414,
                "tempo": 120.0
            },
            {
                "start_time": 85.91363636363636,
                "end_time": 86.27954545454546,
                "pitch": 49,
                "velocity": 64,
                "duration": 0.3659090909090992,
                "tempo": 120.0
            },
            {
                "start_time": 86.29545454545455,
                "end_time": 86.64545454545454,
                "pitch": 49,
                "velocity": 64,
                "duration": 0.3499999999999943,
                "tempo": 120.0
            },
            {
                "start_time": 86.66363636363636,
                "end_time": 86.89545454545454,
                "pitch": 49,
                "velocity": 64,
                "duration": 0.23181818181818414,
                "tempo": 120.0
            },
            {
                "start_time": 87.16818181818181,
                "end_time": 87.4090909090909,
                "pitch": 49,
                "velocity": 64,
                "duration": 0.24090909090909918,
                "tempo": 120.0
            },
            {
                "start_time": 87.425,
                "end_time": 87.89999999999999,
                "pitch": 49,
                "velocity": 64,
                "duration": 0.4749999999999943,
                "tempo": 120.0
            },
            {
                "start_time": 87.91818181818181,
                "end_time": 88.2840909090909,
                "pitch": 49,
                "velocity": 64,
                "duration": 0.3659090909090992,
                "tempo": 120.0
            },
            {
                "start_time": 88.3,
                "end_time": 88.64999999999999,
                "pitch": 49,
                "velocity": 64,
                "duration": 0.3499999999999943,
                "tempo": 120.0
            },
            {
                "start_time": 88.66818181818181,
                "end_time": 88.89999999999999,
                "pitch": 49,
                "velocity": 64,
                "duration": 0.23181818181818414,
                "tempo": 120.0
            },
            {
                "start_time": 89.17272727272727,
                "end_time": 89.41363636363636,
                "pitch": 49,
                "velocity": 64,
                "duration": 0.24090909090908497,
                "tempo": 120.0
            },
            {
                "start_time": 89.42954545454545,
                "end_time": 89.90454545454546,
                "pitch": 49,
                "velocity": 64,
                "duration": 0.4750000000000085,
                "tempo": 120.0
            },
            {
                "start_time": 89.92272727272727,
                "end_time": 90.28863636363636,
                "pitch": 49,
                "velocity": 64,
                "duration": 0.36590909090908497,
                "tempo": 120.0
            },
            {
                "start_time": 90.30454545454545,
                "end_time": 90.65454545454546,
                "pitch": 49,
                "velocity": 64,
                "duration": 0.3500000000000085,
                "tempo": 120.0
            },
            {
                "start_time": 90.67272727272727,
                "end_time": 90.90454545454546,
                "pitch": 49,
                "velocity": 64,
                "duration": 0.23181818181818414,
                "tempo": 120.0
            },
            {
                "start_time": 91.17272727272727,
                "end_time": 91.40454545454546,
                "pitch": 49,
                "velocity": 64,
                "duration": 0.23181818181818414,
                "tempo": 120.0
            },
            {
                "start_time": 91.42272727272727,
                "end_time": 91.90454545454546,
                "pitch": 49,
                "velocity": 64,
                "duration": 0.48181818181818414,
                "tempo": 120.0
            },
            {
                "start_time": 91.92272727272727,
                "end_time": 92.28863636363636,
                "pitch": 49,
                "velocity": 64,
                "duration": 0.36590909090908497,
                "tempo": 120.0
            },
            {
                "start_time": 92.30454545454545,
                "end_time": 92.65454545454546,
                "pitch": 49,
                "velocity": 64,
                "duration": 0.3500000000000085,
                "tempo": 120.0
            },
            {
                "start_time": 92.67272727272727,
                "end_time": 92.90454545454546,
                "pitch": 49,
                "velocity": 64,
                "duration": 0.23181818181818414,
                "tempo": 120.0
            },
            {
                "start_time": 93.17727272727272,
                "end_time": 93.41818181818181,
                "pitch": 49,
                "velocity": 64,
                "duration": 0.24090909090908497,
                "tempo": 120.0
            },
            {
                "start_time": 93.4340909090909,
                "end_time": 93.9090909090909,
                "pitch": 49,
                "velocity": 64,
                "duration": 0.4750000000000085,
                "tempo": 120.0
            },
            {
                "start_time": 93.92727272727272,
                "end_time": 94.29318181818181,
                "pitch": 49,
                "velocity": 64,
                "duration": 0.36590909090908497,
                "tempo": 120.0
            },
            {
                "start_time": 94.3090909090909,
                "end_time": 94.6590909090909,
                "pitch": 49,
                "velocity": 64,
                "duration": 0.3500000000000085,
                "tempo": 120.0
            },
            {
                "start_time": 94.67727272727272,
                "end_time": 94.9090909090909,
                "pitch": 49,
                "velocity": 64,
                "duration": 0.23181818181818414,
                "tempo": 120.0
            },
            {
                "start_time": 95.17727272727272,
                "end_time": 95.4090909090909,
                "pitch": 49,
                "velocity": 64,
                "duration": 0.23181818181818414,
                "tempo": 120.0
            },
            {
                "start_time": 95.42727272727272,
                "end_time": 95.9090909090909,
                "pitch": 49,
                "velocity": 64,
                "duration": 0.48181818181818414,
                "tempo": 120.0
            },
            {
                "start_time": 95.92727272727272,
                "end_time": 96.29318181818181,
                "pitch": 42,
                "velocity": 64,
                "duration": 0.36590909090908497,
                "tempo": 120.0
            },
            {
                "start_time": 96.3090909090909,
                "end_time": 96.4090909090909,
                "pitch": 42,
                "velocity": 64,
                "duration": 0.10000000000000853,
                "tempo": 120.0
            },
            {
                "start_time": 96.42727272727272,
                "end_time": 96.6590909090909,
                "pitch": 49,
                "velocity": 64,
                "duration": 0.23181818181818414,
                "tempo": 120.0
            },
            {
                "start_time": 96.67727272727272,
                "end_time": 96.9090909090909,
                "pitch": 54,
                "velocity": 64,
                "duration": 0.23181818181818414,
                "tempo": 120.0
            },
            {
                "start_time": 96.92727272727272,
                "end_time": 97.29318181818181,
                "pitch": 41,
                "velocity": 64,
                "duration": 0.36590909090908497,
                "tempo": 120.0
            },
            {
                "start_time": 97.3090909090909,
                "end_time": 97.4090909090909,
                "pitch": 41,
                "velocity": 64,
                "duration": 0.10000000000000853,
                "tempo": 120.0
            },
            {
                "start_time": 97.42727272727272,
                "end_time": 97.6590909090909,
                "pitch": 49,
                "velocity": 64,
                "duration": 0.23181818181818414,
                "tempo": 120.0
            },
            {
                "start_time": 97.67727272727272,
                "end_time": 97.9090909090909,
                "pitch": 53,
                "velocity": 64,
                "duration": 0.23181818181818414,
                "tempo": 120.0
            },
            {
                "start_time": 97.92727272727272,
                "end_time": 98.29318181818181,
                "pitch": 39,
                "velocity": 64,
                "duration": 0.36590909090908497,
                "tempo": 120.0
            },
            {
                "start_time": 98.3090909090909,
                "end_time": 98.4090909090909,
                "pitch": 39,
                "velocity": 64,
                "duration": 0.10000000000000853,
                "tempo": 120.0
            },
            {
                "start_time": 98.42727272727272,
                "end_time": 98.6590909090909,
                "pitch": 46,
                "velocity": 64,
                "duration": 0.23181818181818414,
                "tempo": 120.0
            },
            {
                "start_time": 98.67727272727272,
                "end_time": 98.9090909090909,
                "pitch": 51,
                "velocity": 64,
                "duration": 0.23181818181818414,
                "tempo": 120.0
            },
            {
                "start_time": 98.92727272727272,
                "end_time": 99.29318181818181,
                "pitch": 37,
                "velocity": 64,
                "duration": 0.36590909090908497,
                "tempo": 120.0
            },
            {
                "start_time": 99.3090909090909,
                "end_time": 99.4090909090909,
                "pitch": 37,
                "velocity": 64,
                "duration": 0.10000000000000853,
                "tempo": 120.0
            },
            {
                "start_time": 99.42727272727272,
                "end_time": 99.6590909090909,
                "pitch": 46,
                "velocity": 64,
                "duration": 0.23181818181818414,
                "tempo": 120.0
            },
            {
                "start_time": 99.67727272727272,
                "end_time": 99.9090909090909,
                "pitch": 49,
                "velocity": 64,
                "duration": 0.23181818181818414,
                "tempo": 120.0
            },
            {
                "start_time": 99.92727272727272,
                "end_time": 100.29318181818181,
                "pitch": 44,
                "velocity": 64,
                "duration": 0.36590909090908497,
                "tempo": 120.0
            },
            {
                "start_time": 100.3090909090909,
                "end_time": 100.4090909090909,
                "pitch": 44,
                "velocity": 64,
                "duration": 0.10000000000000853,
                "tempo": 120.0
            },
            {
                "start_time": 100.42727272727272,
                "end_time": 100.6590909090909,
                "pitch": 51,
                "velocity": 64,
                "duration": 0.23181818181818414,
                "tempo": 120.0
            },
            {
                "start_time": 100.67727272727272,
                "end_time": 100.9090909090909,
                "pitch": 56,
                "velocity": 64,
                "duration": 0.23181818181818414,
                "tempo": 120.0
            },
            {
                "start_time": 100.92727272727272,
                "end_time": 101.29318181818181,
                "pitch": 43,
                "velocity": 64,
                "duration": 0.36590909090908497,
                "tempo": 120.0
            },
            {
                "start_time": 101.3090909090909,
                "end_time": 101.4090909090909,
                "pitch": 43,
                "velocity": 64,
                "duration": 0.10000000000000853,
                "tempo": 120.0
            },
            {
                "start_time": 101.42727272727272,
                "end_time": 101.6590909090909,
                "pitch": 51,
                "velocity": 64,
                "duration": 0.23181818181818414,
                "tempo": 120.0
            },
            {
                "start_time": 101.67727272727272,
                "end_time": 101.9090909090909,
                "pitch": 55,
                "velocity": 64,
                "duration": 0.23181818181818414,
                "tempo": 120.0
            },
            {
                "start_time": 101.92727272727272,
                "end_time": 102.29318181818181,
                "pitch": 42,
                "velocity": 64,
                "duration": 0.36590909090908497,
                "tempo": 120.0
            },
            {
                "start_time": 102.3090909090909,
                "end_time": 102.4090909090909,
                "pitch": 42,
                "velocity": 64,
                "duration": 0.10000000000000853,
                "tempo": 120.0
            },
            {
                "start_time": 102.42727272727272,
                "end_time": 102.6590909090909,
                "pitch": 51,
                "velocity": 64,
                "duration": 0.23181818181818414,
                "tempo": 120.0
            },
            {
                "start_time": 102.67727272727272,
                "end_time": 102.9090909090909,
                "pitch": 54,
                "velocity": 64,
                "duration": 0.23181818181818414,
                "tempo": 120.0
            },
            {
                "start_time": 102.92727272727272,
                "end_time": 103.29318181818181,
                "pitch": 41,
                "velocity": 64,
                "duration": 0.36590909090908497,
                "tempo": 120.0
            },
            {
                "start_time": 103.3090909090909,
                "end_time": 103.4090909090909,
                "pitch": 41,
                "velocity": 64,
                "duration": 0.10000000000000853,
                "tempo": 120.0
            },
            {
                "start_time": 103.42727272727272,
                "end_time": 103.6590909090909,
                "pitch": 49,
                "velocity": 64,
                "duration": 0.23181818181818414,
                "tempo": 120.0
            },
            {
                "start_time": 103.67727272727272,
                "end_time": 103.9090909090909,
                "pitch": 53,
                "velocity": 64,
                "duration": 0.23181818181818414,
                "tempo": 120.0
            },
            {
                "start_time": 103.92727272727272,
                "end_time": 104.29318181818181,
                "pitch": 42,
                "velocity": 64,
                "duration": 0.36590909090908497,
                "tempo": 120.0
            },
            {
                "start_time": 104.3090909090909,
                "end_time": 104.4090909090909,
                "pitch": 42,
                "velocity": 64,
                "duration": 0.10000000000000853,
                "tempo": 120.0
            },
            {
                "start_time": 104.42727272727272,
                "end_time": 104.6590909090909,
                "pitch": 49,
                "velocity": 64,
                "duration": 0.23181818181818414,
                "tempo": 120.0
            },
            {
                "start_time": 104.67727272727272,
                "end_time": 104.9090909090909,
                "pitch": 54,
                "velocity": 64,
                "duration": 0.23181818181818414,
                "tempo": 120.0
            },
            {
                "start_time": 104.92727272727272,
                "end_time": 105.29318181818181,
                "pitch": 41,
                "velocity": 64,
                "duration": 0.36590909090908497,
                "tempo": 120.0
            },
            {
                "start_time": 105.3090909090909,
                "end_time": 105.4090909090909,
                "pitch": 41,
                "velocity": 64,
                "duration": 0.10000000000000853,
                "tempo": 120.0
            },
            {
                "start_time": 105.42727272727272,
                "end_time": 105.6590909090909,
                "pitch": 49,
                "velocity": 64,
                "duration": 0.23181818181818414,
                "tempo": 120.0
            },
            {
                "start_time": 105.67727272727272,
                "end_time": 105.9090909090909,
                "pitch": 53,
                "velocity": 64,
                "duration": 0.23181818181818414,
                "tempo": 120.0
            },
            {
                "start_time": 105.92727272727272,
                "end_time": 106.29318181818181,
                "pitch": 39,
                "velocity": 64,
                "duration": 0.36590909090908497,
                "tempo": 120.0
            },
            {
                "start_time": 106.3090909090909,
                "end_time": 106.4090909090909,
                "pitch": 39,
                "velocity": 64,
                "duration": 0.10000000000000853,
                "tempo": 120.0
            },
            {
                "start_time": 106.42727272727272,
                "end_time": 106.6590909090909,
                "pitch": 46,
                "velocity": 64,
                "duration": 0.23181818181818414,
                "tempo": 120.0
            },
            {
                "start_time": 106.67727272727272,
                "end_time": 106.9090909090909,
                "pitch": 51,
                "velocity": 64,
                "duration": 0.23181818181818414,
                "tempo": 120.0
            },
            {
                "start_time": 106.92727272727272,
                "end_time": 107.29318181818181,
                "pitch": 37,
                "velocity": 64,
                "duration": 0.36590909090908497,
                "tempo": 120.0
            },
            {
                "start_time": 107.3090909090909,
                "end_time": 107.4090909090909,
                "pitch": 37,
                "velocity": 64,
                "duration": 0.10000000000000853,
                "tempo": 120.0
            },
            {
                "start_time": 107.42727272727272,
                "end_time": 107.6590909090909,
                "pitch": 46,
                "velocity": 64,
                "duration": 0.23181818181818414,
                "tempo": 120.0
            },
            {
                "start_time": 107.67727272727272,
                "end_time": 107.9090909090909,
                "pitch": 49,
                "velocity": 64,
                "duration": 0.23181818181818414,
                "tempo": 120.0
            },
            {
                "start_time": 107.92727272727272,
                "end_time": 108.29318181818181,
                "pitch": 47,
                "velocity": 64,
                "duration": 0.36590909090908497,
                "tempo": 120.0
            },
            {
                "start_time": 108.3090909090909,
                "end_time": 108.4090909090909,
                "pitch": 47,
                "velocity": 64,
                "duration": 0.10000000000000853,
                "tempo": 120.0
            },
            {
                "start_time": 108.42727272727272,
                "end_time": 108.6590909090909,
                "pitch": 42,
                "velocity": 64,
                "duration": 0.23181818181818414,
                "tempo": 120.0
            },
            {
                "start_time": 108.67727272727272,
                "end_time": 108.9090909090909,
                "pitch": 47,
                "velocity": 64,
                "duration": 0.23181818181818414,
                "tempo": 120.0
            },
            {
                "start_time": 108.92727272727272,
                "end_time": 109.29318181818181,
                "pitch": 37,
                "velocity": 64,
                "duration": 0.36590909090908497,
                "tempo": 120.0
            },
            {
                "start_time": 109.3090909090909,
                "end_time": 109.4090909090909,
                "pitch": 37,
                "velocity": 64,
                "duration": 0.10000000000000853,
                "tempo": 120.0
            },
            {
                "start_time": 109.42727272727272,
                "end_time": 109.6590909090909,
                "pitch": 44,
                "velocity": 64,
                "duration": 0.23181818181818414,
                "tempo": 120.0
            },
            {
                "start_time": 109.67727272727272,
                "end_time": 109.9090909090909,
                "pitch": 49,
                "velocity": 64,
                "duration": 0.23181818181818414,
                "tempo": 120.0
            },
            {
                "start_time": 109.92727272727272,
                "end_time": 110.29318181818181,
                "pitch": 42,
                "velocity": 64,
                "duration": 0.36590909090908497,
                "tempo": 120.0
            },
            {
                "start_time": 110.3090909090909,
                "end_time": 110.4090909090909,
                "pitch": 42,
                "velocity": 64,
                "duration": 0.10000000000000853,
                "tempo": 120.0
            },
            {
                "start_time": 110.42727272727272,
                "end_time": 110.6590909090909,
                "pitch": 49,
                "velocity": 64,
                "duration": 0.23181818181818414,
                "tempo": 120.0
            },
            {
                "start_time": 110.67727272727272,
                "end_time": 110.9090909090909,
                "pitch": 54,
                "velocity": 64,
                "duration": 0.23181818181818414,
                "tempo": 120.0
            },
            {
                "start_time": 110.92727272727272,
                "end_time": 111.29318181818181,
                "pitch": 41,
                "velocity": 64,
                "duration": 0.36590909090908497,
                "tempo": 120.0
            },
            {
                "start_time": 111.3090909090909,
                "end_time": 111.4090909090909,
                "pitch": 41,
                "velocity": 64,
                "duration": 0.10000000000000853,
                "tempo": 120.0
            },
            {
                "start_time": 111.42727272727272,
                "end_time": 111.6590909090909,
                "pitch": 49,
                "velocity": 64,
                "duration": 0.23181818181818414,
                "tempo": 120.0
            },
            {
                "start_time": 111.67727272727272,
                "end_time": 111.9090909090909,
                "pitch": 52,
                "velocity": 64,
                "duration": 0.23181818181818414,
                "tempo": 120.0
            },
            {
                "start_time": 111.92727272727272,
                "end_time": 112.29318181818181,
                "pitch": 39,
                "velocity": 64,
                "duration": 0.36590909090908497,
                "tempo": 120.0
            },
            {
                "start_time": 112.3090909090909,
                "end_time": 112.4090909090909,
                "pitch": 39,
                "velocity": 64,
                "duration": 0.10000000000000853,
                "tempo": 120.0
            },
            {
                "start_time": 112.42727272727272,
                "end_time": 112.6590909090909,
                "pitch": 46,
                "velocity": 64,
                "duration": 0.23181818181818414,
                "tempo": 120.0
            },
            {
                "start_time": 112.67727272727272,
                "end_time": 112.9090909090909,
                "pitch": 51,
                "velocity": 64,
                "duration": 0.23181818181818414,
                "tempo": 120.0
            },
            {
                "start_time": 112.92727272727272,
                "end_time": 113.29318181818181,
                "pitch": 38,
                "velocity": 64,
                "duration": 0.36590909090908497,
                "tempo": 120.0
            },
            {
                "start_time": 113.3090909090909,
                "end_time": 113.4090909090909,
                "pitch": 38,
                "velocity": 64,
                "duration": 0.10000000000000853,
                "tempo": 120.0
            },
            {
                "start_time": 113.42727272727272,
                "end_time": 113.6590909090909,
                "pitch": 46,
                "velocity": 64,
                "duration": 0.23181818181818414,
                "tempo": 120.0
            },
            {
                "start_time": 113.67727272727272,
                "end_time": 113.9090909090909,
                "pitch": 50,
                "velocity": 64,
                "duration": 0.23181818181818414,
                "tempo": 120.0
            },
            {
                "start_time": 113.92727272727272,
                "end_time": 114.29318181818181,
                "pitch": 37,
                "velocity": 64,
                "duration": 0.36590909090908497,
                "tempo": 120.0
            },
            {
                "start_time": 114.3090909090909,
                "end_time": 114.4090909090909,
                "pitch": 37,
                "velocity": 64,
                "duration": 0.10000000000000853,
                "tempo": 120.0
            },
            {
                "start_time": 114.42727272727272,
                "end_time": 114.6590909090909,
                "pitch": 46,
                "velocity": 64,
                "duration": 0.23181818181818414,
                "tempo": 120.0
            },
            {
                "start_time": 114.67727272727272,
                "end_time": 114.9090909090909,
                "pitch": 49,
                "velocity": 64,
                "duration": 0.23181818181818414,
                "tempo": 120.0
            },
            {
                "start_time": 114.92727272727272,
                "end_time": 115.29318181818181,
                "pitch": 36,
                "velocity": 64,
                "duration": 0.36590909090908497,
                "tempo": 120.0
            },
            {
                "start_time": 115.3090909090909,
                "end_time": 115.4090909090909,
                "pitch": 36,
                "velocity": 64,
                "duration": 0.10000000000000853,
                "tempo": 120.0
            },
            {
                "start_time": 115.42727272727272,
                "end_time": 115.6590909090909,
                "pitch": 46,
                "velocity": 64,
                "duration": 0.23181818181818414,
                "tempo": 120.0
            },
            {
                "start_time": 115.67727272727272,
                "end_time": 115.9090909090909,
                "pitch": 48,
                "velocity": 64,
                "duration": 0.23181818181818414,
                "tempo": 120.0
            },
            {
                "start_time": 115.92727272727272,
                "end_time": 116.29318181818181,
                "pitch": 47,
                "velocity": 64,
                "duration": 0.36590909090908497,
                "tempo": 120.0
            },
            {
                "start_time": 116.3090909090909,
                "end_time": 116.4090909090909,
                "pitch": 47,
                "velocity": 64,
                "duration": 0.10000000000000853,
                "tempo": 120.0
            },
            {
                "start_time": 116.42727272727272,
                "end_time": 116.6590909090909,
                "pitch": 42,
                "velocity": 64,
                "duration": 0.23181818181818414,
                "tempo": 120.0
            },
            {
                "start_time": 116.67727272727272,
                "end_time": 116.9090909090909,
                "pitch": 47,
                "velocity": 64,
                "duration": 0.23181818181818414,
                "tempo": 120.0
            },
            {
                "start_time": 116.92727272727272,
                "end_time": 117.29318181818181,
                "pitch": 48,
                "velocity": 64,
                "duration": 0.36590909090908497,
                "tempo": 120.0
            },
            {
                "start_time": 117.3090909090909,
                "end_time": 117.4090909090909,
                "pitch": 48,
                "velocity": 64,
                "duration": 0.10000000000000853,
                "tempo": 120.0
            },
            {
                "start_time": 117.42727272727272,
                "end_time": 117.6590909090909,
                "pitch": 44,
                "velocity": 64,
                "duration": 0.23181818181818414,
                "tempo": 120.0
            },
            {
                "start_time": 117.67727272727272,
                "end_time": 117.9090909090909,
                "pitch": 47,
                "velocity": 64,
                "duration": 0.23181818181818414,
                "tempo": 120.0
            },
            {
                "start_time": 117.92727272727272,
                "end_time": 118.29318181818181,
                "pitch": 37,
                "velocity": 64,
                "duration": 0.36590909090908497,
                "tempo": 120.0
            },
            {
                "start_time": 118.3090909090909,
                "end_time": 118.4090909090909,
                "pitch": 37,
                "velocity": 64,
                "duration": 0.10000000000000853,
                "tempo": 120.0
            },
            {
                "start_time": 118.42727272727272,
                "end_time": 118.6590909090909,
                "pitch": 44,
                "velocity": 64,
                "duration": 0.23181818181818414,
                "tempo": 120.0
            },
            {
                "start_time": 118.67727272727272,
                "end_time": 118.9090909090909,
                "pitch": 49,
                "velocity": 64,
                "duration": 0.23181818181818414,
                "tempo": 120.0
            },
            {
                "start_time": 118.92727272727272,
                "end_time": 119.29318181818181,
                "pitch": 38,
                "velocity": 64,
                "duration": 0.36590909090908497,
                "tempo": 120.0
            },
            {
                "start_time": 119.3090909090909,
                "end_time": 119.4090909090909,
                "pitch": 38,
                "velocity": 64,
                "duration": 0.10000000000000853,
                "tempo": 120.0
            },
            {
                "start_time": 119.42727272727272,
                "end_time": 119.6590909090909,
                "pitch": 46,
                "velocity": 64,
                "duration": 0.23181818181818414,
                "tempo": 120.0
            },
            {
                "start_time": 119.67727272727272,
                "end_time": 119.9090909090909,
                "pitch": 50,
                "velocity": 64,
                "duration": 0.23181818181818414,
                "tempo": 120.0
            },
            {
                "start_time": 119.92727272727272,
                "end_time": 120.29318181818181,
                "pitch": 39,
                "velocity": 64,
                "duration": 0.36590909090908497,
                "tempo": 120.0
            },
            {
                "start_time": 120.3090909090909,
                "end_time": 120.4090909090909,
                "pitch": 39,
                "velocity": 64,
                "duration": 0.10000000000000853,
                "tempo": 120.0
            },
            {
                "start_time": 120.42727272727272,
                "end_time": 120.6590909090909,
                "pitch": 46,
                "velocity": 64,
                "duration": 0.23181818181818414,
                "tempo": 120.0
            },
            {
                "start_time": 120.67727272727272,
                "end_time": 120.9090909090909,
                "pitch": 51,
                "velocity": 64,
                "duration": 0.23181818181818414,
                "tempo": 120.0
            },
            {
                "start_time": 120.92727272727272,
                "end_time": 121.29318181818181,
                "pitch": 37,
                "velocity": 64,
                "duration": 0.36590909090908497,
                "tempo": 120.0
            },
            {
                "start_time": 121.3090909090909,
                "end_time": 121.4090909090909,
                "pitch": 37,
                "velocity": 64,
                "duration": 0.10000000000000853,
                "tempo": 120.0
            },
            {
                "start_time": 121.42727272727272,
                "end_time": 121.6590909090909,
                "pitch": 46,
                "velocity": 64,
                "duration": 0.23181818181818414,
                "tempo": 120.0
            },
            {
                "start_time": 121.67727272727272,
                "end_time": 121.9090909090909,
                "pitch": 51,
                "velocity": 64,
                "duration": 0.23181818181818414,
                "tempo": 120.0
            },
            {
                "start_time": 121.92727272727272,
                "end_time": 122.29318181818181,
                "pitch": 35,
                "velocity": 64,
                "duration": 0.36590909090908497,
                "tempo": 120.0
            },
            {
                "start_time": 122.3090909090909,
                "end_time": 122.4090909090909,
                "pitch": 35,
                "velocity": 64,
                "duration": 0.10000000000000853,
                "tempo": 120.0
            },
            {
                "start_time": 122.42727272727272,
                "end_time": 122.6590909090909,
                "pitch": 42,
                "velocity": 64,
                "duration": 0.23181818181818414,
                "tempo": 120.0
            },
            {
                "start_time": 122.67727272727272,
                "end_time": 122.9090909090909,
                "pitch": 51,
                "velocity": 64,
                "duration": 0.23181818181818414,
                "tempo": 120.0
            },
            {
                "start_time": 122.92727272727272,
                "end_time": 123.29318181818181,
                "pitch": 47,
                "velocity": 64,
                "duration": 0.36590909090908497,
                "tempo": 120.0
            },
            {
                "start_time": 123.3090909090909,
                "end_time": 123.4090909090909,
                "pitch": 47,
                "velocity": 64,
                "duration": 0.10000000000000853,
                "tempo": 120.0
            },
            {
                "start_time": 123.42727272727272,
                "end_time": 123.6590909090909,
                "pitch": 42,
                "velocity": 64,
                "duration": 0.23181818181818414,
                "tempo": 120.0
            },
            {
                "start_time": 123.67727272727272,
                "end_time": 123.9090909090909,
                "pitch": 47,
                "velocity": 64,
                "duration": 0.23181818181818414,
                "tempo": 120.0
            },
            {
                "start_time": 123.92727272727272,
                "end_time": 124.29318181818181,
                "pitch": 37,
                "velocity": 64,
                "duration": 0.36590909090908497,
                "tempo": 120.0
            },
            {
                "start_time": 124.3090909090909,
                "end_time": 124.4090909090909,
                "pitch": 37,
                "velocity": 64,
                "duration": 0.10000000000000853,
                "tempo": 120.0
            },
            {
                "start_time": 124.42727272727272,
                "end_time": 124.6590909090909,
                "pitch": 44,
                "velocity": 64,
                "duration": 0.23181818181818414,
                "tempo": 120.0
            },
            {
                "start_time": 124.67727272727272,
                "end_time": 124.9090909090909,
                "pitch": 49,
                "velocity": 64,
                "duration": 0.23181818181818414,
                "tempo": 120.0
            },
            {
                "start_time": 124.92727272727272,
                "end_time": 125.29318181818181,
                "pitch": 37,
                "velocity": 64,
                "duration": 0.36590909090908497,
                "tempo": 120.0
            },
            {
                "start_time": 125.3090909090909,
                "end_time": 125.4090909090909,
                "pitch": 37,
                "velocity": 64,
                "duration": 0.10000000000000853,
                "tempo": 120.0
            },
            {
                "start_time": 125.42727272727272,
                "end_time": 125.6590909090909,
                "pitch": 44,
                "velocity": 64,
                "duration": 0.23181818181818414,
                "tempo": 120.0
            },
            {
                "start_time": 125.67727272727272,
                "end_time": 125.9090909090909,
                "pitch": 49,
                "velocity": 64,
                "duration": 0.23181818181818414,
                "tempo": 120.0
            }
        ],
        "Acoustic Guitar (nylon)": [
            {
                "start_time": 0.19999999999999998,
                "end_time": 0.29318181818181815,
                "pitch": 61,
                "velocity": 64,
                "duration": 0.09318181818181817,
                "tempo": 120.0
            },
            {
                "start_time": 0.3068181818181818,
                "end_time": 0.38636363636363635,
                "pitch": 56,
                "velocity": 64,
                "duration": 0.07954545454545453,
                "tempo": 120.0
            },
            {
                "start_time": 0.5340909090909091,
                "end_time": 0.634090909090909,
                "pitch": 61,
                "velocity": 64,
                "duration": 0.09999999999999998,
                "tempo": 120.0
            },
            {
                "start_time": 0.65,
                "end_time": 0.7659090909090909,
                "pitch": 56,
                "velocity": 64,
                "duration": 0.11590909090909085,
                "tempo": 120.0
            },
            {
                "start_time": 0.8999999999999999,
                "end_time": 1.0159090909090909,
                "pitch": 61,
                "velocity": 64,
                "duration": 0.11590909090909096,
                "tempo": 120.0
            },
            {
                "start_time": 1.034090909090909,
                "end_time": 1.134090909090909,
                "pitch": 56,
                "velocity": 64,
                "duration": 0.10000000000000009,
                "tempo": 120.0
            },
            {
                "start_time": 1.284090909090909,
                "end_time": 1.384090909090909,
                "pitch": 61,
                "velocity": 64,
                "duration": 0.10000000000000009,
                "tempo": 120.0
            },
            {
                "start_time": 1.4,
                "end_time": 1.5159090909090909,
                "pitch": 56,
                "velocity": 64,
                "duration": 0.11590909090909096,
                "tempo": 120.0
            },
            {
                "start_time": 1.65,
                "end_time": 1.7659090909090909,
                "pitch": 61,
                "velocity": 64,
                "duration": 0.11590909090909096,
                "tempo": 120.0
            },
            {
                "start_time": 2.15,
                "end_time": 2.2659090909090907,
                "pitch": 60,
                "velocity": 64,
                "duration": 0.11590909090909074,
                "tempo": 120.0
            },
            {
                "start_time": 2.284090909090909,
                "end_time": 2.384090909090909,
                "pitch": 56,
                "velocity": 64,
                "duration": 0.09999999999999964,
                "tempo": 120.0
            },
            {
                "start_time": 2.534090909090909,
                "end_time": 2.634090909090909,
                "pitch": 60,
                "velocity": 64,
                "duration": 0.09999999999999964,
                "tempo": 120.0
            },
            {
                "start_time": 2.65,
                "end_time": 2.7659090909090907,
                "pitch": 56,
                "velocity": 64,
                "duration": 0.11590909090909074,
                "tempo": 120.0
            },
            {
                "start_time": 2.9,
                "end_time": 3.0159090909090907,
                "pitch": 60,
                "velocity": 64,
                "duration": 0.11590909090909074,
                "tempo": 120.0
            },
            {
                "start_time": 3.0340909090909087,
                "end_time": 3.134090909090909,
                "pitch": 56,
                "velocity": 64,
                "duration": 0.10000000000000009,
                "tempo": 120.0
            },
            {
                "start_time": 3.2840909090909087,
                "end_time": 3.384090909090909,
                "pitch": 60,
                "velocity": 64,
                "duration": 0.10000000000000009,
                "tempo": 120.0
            },
            {
                "start_time": 3.4,
                "end_time": 3.5159090909090907,
                "pitch": 56,
                "velocity": 64,
                "duration": 0.11590909090909074,
                "tempo": 120.0
            },
            {
                "start_time": 3.65,
                "end_time": 3.7659090909090907,
                "pitch": 60,
                "velocity": 64,
                "duration": 0.11590909090909074,
                "tempo": 120.0
            },
            {
                "start_time": 4.1499999999999995,
                "end_time": 4.265909090909091,
                "pitch": 58,
                "velocity": 64,
                "duration": 0.11590909090909118,
                "tempo": 120.0
            },
            {
                "start_time": 4.284090909090909,
                "end_time": 4.384090909090909,
                "pitch": 53,
                "velocity": 64,
                "duration": 0.09999999999999964,
                "tempo": 120.0
            },
            {
                "start_time": 4.534090909090909,
                "end_time": 4.634090909090909,
                "pitch": 58,
                "velocity": 64,
                "duration": 0.09999999999999964,
                "tempo": 120.0
            },
            {
                "start_time": 4.6499999999999995,
                "end_time": 4.765909090909091,
                "pitch": 53,
                "velocity": 64,
                "duration": 0.11590909090909118,
                "tempo": 120.0
            },
            {
                "start_time": 4.8999999999999995,
                "end_time": 5.015909090909091,
                "pitch": 58,
                "velocity": 64,
                "duration": 0.11590909090909118,
                "tempo": 120.0
            },
            {
                "start_time": 5.034090909090909,
                "end_time": 5.134090909090909,
                "pitch": 53,
                "velocity": 64,
                "duration": 0.09999999999999964,
                "tempo": 120.0
            },
            {
                "start_time": 5.284090909090909,
                "end_time": 5.384090909090909,
                "pitch": 58,
                "velocity": 64,
                "duration": 0.09999999999999964,
                "tempo": 120.0
            },
            {
                "start_time": 5.3999999999999995,
                "end_time": 5.515909090909091,
                "pitch": 53,
                "velocity": 64,
                "duration": 0.11590909090909118,
                "tempo": 120.0
            },
            {
                "start_time": 5.6499999999999995,
                "end_time": 5.765909090909091,
                "pitch": 58,
                "velocity": 64,
                "duration": 0.11590909090909118,
                "tempo": 120.0
            },
            {
                "start_time": 6.1499999999999995,
                "end_time": 6.265909090909091,
                "pitch": 56,
                "velocity": 64,
                "duration": 0.11590909090909118,
                "tempo": 120.0
            },
            {
                "start_time": 6.284090909090909,
                "end_time": 6.384090909090909,
                "pitch": 51,
                "velocity": 64,
                "duration": 0.09999999999999964,
                "tempo": 120.0
            },
            {
                "start_time": 6.534090909090909,
                "end_time": 6.634090909090909,
                "pitch": 56,
                "velocity": 64,
                "duration": 0.09999999999999964,
                "tempo": 120.0
            },
            {
                "start_time": 6.6499999999999995,
                "end_time": 6.765909090909091,
                "pitch": 51,
                "velocity": 64,
                "duration": 0.11590909090909118,
                "tempo": 120.0
            },
            {
                "start_time": 6.8999999999999995,
                "end_time": 7.015909090909091,
                "pitch": 56,
                "velocity": 64,
                "duration": 0.11590909090909118,
                "tempo": 120.0
            },
            {
                "start_time": 7.034090909090909,
                "end_time": 7.134090909090909,
                "pitch": 51,
                "velocity": 64,
                "duration": 0.09999999999999964,
                "tempo": 120.0
            },
            {
                "start_time": 7.284090909090909,
                "end_time": 7.384090909090909,
                "pitch": 56,
                "velocity": 64,
                "duration": 0.09999999999999964,
                "tempo": 120.0
            },
            {
                "start_time": 7.3999999999999995,
                "end_time": 7.515909090909091,
                "pitch": 51,
                "velocity": 64,
                "duration": 0.11590909090909118,
                "tempo": 120.0
            },
            {
                "start_time": 7.6499999999999995,
                "end_time": 7.765909090909091,
                "pitch": 56,
                "velocity": 64,
                "duration": 0.11590909090909118,
                "tempo": 120.0
            },
            {
                "start_time": 8.15,
                "end_time": 8.26590909090909,
                "pitch": 54,
                "velocity": 64,
                "duration": 0.1159090909090903,
                "tempo": 120.0
            },
            {
                "start_time": 8.284090909090908,
                "end_time": 8.384090909090908,
                "pitch": 49,
                "velocity": 64,
                "duration": 0.09999999999999964,
                "tempo": 120.0
            },
            {
                "start_time": 8.534090909090908,
                "end_time": 8.634090909090908,
                "pitch": 54,
                "velocity": 64,
                "duration": 0.09999999999999964,
                "tempo": 120.0
            },
            {
                "start_time": 8.65,
                "end_time": 8.76590909090909,
                "pitch": 49,
                "velocity": 64,
                "duration": 0.1159090909090903,
                "tempo": 120.0
            },
            {
                "start_time": 8.9,
                "end_time": 9.01590909090909,
                "pitch": 54,
                "velocity": 64,
                "duration": 0.1159090909090903,
                "tempo": 120.0
            },
            {
                "start_time": 9.034090909090908,
                "end_time": 9.134090909090908,
                "pitch": 49,
                "velocity": 64,
                "duration": 0.09999999999999964,
                "tempo": 120.0
            },
            {
                "start_time": 9.284090909090908,
                "end_time": 9.384090909090908,
                "pitch": 54,
                "velocity": 64,
                "duration": 0.09999999999999964,
                "tempo": 120.0
            },
            {
                "start_time": 9.4,
                "end_time": 9.51590909090909,
                "pitch": 49,
                "velocity": 64,
                "duration": 0.1159090909090903,
                "tempo": 120.0
            },
            {
                "start_time": 9.65,
                "end_time": 9.76590909090909,
                "pitch": 54,
                "velocity": 64,
                "duration": 0.1159090909090903,
                "tempo": 120.0
            },
            {
                "start_time": 10.15,
                "end_time": 10.26590909090909,
                "pitch": 56,
                "velocity": 64,
                "duration": 0.1159090909090903,
                "tempo": 120.0
            },
            {
                "start_time": 10.284090909090908,
                "end_time": 10.384090909090908,
                "pitch": 56,
                "velocity": 64,
                "duration": 0.09999999999999964,
                "tempo": 120.0
            },
            {
                "start_time": 10.534090909090908,
                "end_time": 10.634090909090908,
                "pitch": 56,
                "velocity": 64,
                "duration": 0.09999999999999964,
                "tempo": 120.0
            },
            {
                "start_time": 10.65,
                "end_time": 10.76590909090909,
                "pitch": 56,
                "velocity": 64,
                "duration": 0.1159090909090903,
                "tempo": 120.0
            },
            {
                "start_time": 10.9,
                "end_time": 11.01590909090909,
                "pitch": 56,
                "velocity": 64,
                "duration": 0.1159090909090903,
                "tempo": 120.0
            },
            {
                "start_time": 11.034090909090908,
                "end_time": 11.134090909090908,
                "pitch": 56,
                "velocity": 64,
                "duration": 0.09999999999999964,
                "tempo": 120.0
            },
            {
                "start_time": 11.284090909090908,
                "end_time": 11.384090909090908,
                "pitch": 56,
                "velocity": 64,
                "duration": 0.09999999999999964,
                "tempo": 120.0
            },
            {
                "start_time": 11.399999999999999,
                "end_time": 11.51590909090909,
                "pitch": 56,
                "velocity": 64,
                "duration": 0.11590909090909207,
                "tempo": 120.0
            },
            {
                "start_time": 11.649999999999999,
                "end_time": 11.76590909090909,
                "pitch": 56,
                "velocity": 64,
                "duration": 0.11590909090909207,
                "tempo": 120.0
            },
            {
                "start_time": 12.149999999999999,
                "end_time": 12.26590909090909,
                "pitch": 58,
                "velocity": 64,
                "duration": 0.11590909090909207,
                "tempo": 120.0
            },
            {
                "start_time": 12.284090909090908,
                "end_time": 12.384090909090908,
                "pitch": 58,
                "velocity": 64,
                "duration": 0.09999999999999964,
                "tempo": 120.0
            },
            {
                "start_time": 12.534090909090908,
                "end_time": 12.634090909090908,
                "pitch": 58,
                "velocity": 64,
                "duration": 0.09999999999999964,
                "tempo": 120.0
            },
            {
                "start_time": 12.649999999999999,
                "end_time": 12.76590909090909,
                "pitch": 58,
                "velocity": 64,
                "duration": 0.11590909090909207,
                "tempo": 120.0
            },
            {
                "start_time": 12.899999999999999,
                "end_time": 13.01590909090909,
                "pitch": 58,
                "velocity": 64,
                "duration": 0.11590909090909207,
                "tempo": 120.0
            },
            {
                "start_time": 13.034090909090908,
                "end_time": 13.134090909090908,
                "pitch": 58,
                "velocity": 64,
                "duration": 0.09999999999999964,
                "tempo": 120.0
            },
            {
                "start_time": 13.284090909090908,
                "end_time": 13.384090909090908,
                "pitch": 58,
                "velocity": 64,
                "duration": 0.09999999999999964,
                "tempo": 120.0
            },
            {
                "start_time": 13.399999999999999,
                "end_time": 13.51590909090909,
                "pitch": 58,
                "velocity": 64,
                "duration": 0.11590909090909207,
                "tempo": 120.0
            },
            {
                "start_time": 13.649999999999999,
                "end_time": 13.76590909090909,
                "pitch": 58,
                "velocity": 64,
                "duration": 0.11590909090909207,
                "tempo": 120.0
            },
            {
                "start_time": 14.149999999999999,
                "end_time": 14.26590909090909,
                "pitch": 63,
                "velocity": 64,
                "duration": 0.11590909090909207,
                "tempo": 120.0
            },
            {
                "start_time": 14.284090909090908,
                "end_time": 14.384090909090908,
                "pitch": 60,
                "velocity": 64,
                "duration": 0.09999999999999964,
                "tempo": 120.0
            },
            {
                "start_time": 14.534090909090908,
                "end_time": 14.634090909090908,
                "pitch": 63,
                "velocity": 64,
                "duration": 0.09999999999999964,
                "tempo": 120.0
            },
            {
                "start_time": 14.649999999999999,
                "end_time": 14.76590909090909,
                "pitch": 60,
                "velocity": 64,
                "duration": 0.11590909090909207,
                "tempo": 120.0
            },
            {
                "start_time": 14.899999999999999,
                "end_time": 15.01590909090909,
                "pitch": 63,
                "velocity": 64,
                "duration": 0.11590909090909207,
                "tempo": 120.0
            },
            {
                "start_time": 15.034090909090908,
                "end_time": 15.134090909090908,
                "pitch": 60,
                "velocity": 64,
                "duration": 0.09999999999999964,
                "tempo": 120.0
            },
            {
                "start_time": 15.284090909090908,
                "end_time": 15.384090909090908,
                "pitch": 63,
                "velocity": 64,
                "duration": 0.09999999999999964,
                "tempo": 120.0
            },
            {
                "start_time": 15.399999999999999,
                "end_time": 15.51590909090909,
                "pitch": 60,
                "velocity": 64,
                "duration": 0.11590909090909207,
                "tempo": 120.0
            },
            {
                "start_time": 15.649999999999999,
                "end_time": 15.76590909090909,
                "pitch": 63,
                "velocity": 64,
                "duration": 0.11590909090909207,
                "tempo": 120.0
            },
            {
                "start_time": 16.15,
                "end_time": 16.26590909090909,
                "pitch": 61,
                "velocity": 64,
                "duration": 0.11590909090909207,
                "tempo": 120.0
            },
            {
                "start_time": 16.28409090909091,
                "end_time": 16.384090909090908,
                "pitch": 56,
                "velocity": 64,
                "duration": 0.09999999999999787,
                "tempo": 120.0
            },
            {
                "start_time": 16.53409090909091,
                "end_time": 16.634090909090908,
                "pitch": 61,
                "velocity": 64,
                "duration": 0.09999999999999787,
                "tempo": 120.0
            },
            {
                "start_time": 16.65,
                "end_time": 16.76590909090909,
                "pitch": 56,
                "velocity": 64,
                "duration": 0.11590909090909207,
                "tempo": 120.0
            },
            {
                "start_time": 16.9,
                "end_time": 17.01590909090909,
                "pitch": 61,
                "velocity": 64,
                "duration": 0.11590909090909207,
                "tempo": 120.0
            },
            {
                "start_time": 17.034090909090907,
                "end_time": 17.134090909090908,
                "pitch": 56,
                "velocity": 64,
                "duration": 0.10000000000000142,
                "tempo": 120.0
            },
            {
                "start_time": 17.284090909090907,
                "end_time": 17.384090909090908,
                "pitch": 61,
                "velocity": 64,
                "duration": 0.10000000000000142,
                "tempo": 120.0
            },
            {
                "start_time": 17.4,
                "end_time": 17.51590909090909,
                "pitch": 56,
                "velocity": 64,
                "duration": 0.11590909090909207,
                "tempo": 120.0
            },
            {
                "start_time": 17.65,
                "end_time": 17.76590909090909,
                "pitch": 61,
                "velocity": 64,
                "duration": 0.11590909090909207,
                "tempo": 120.0
            },
            {
                "start_time": 18.15,
                "end_time": 18.26590909090909,
                "pitch": 60,
                "velocity": 64,
                "duration": 0.11590909090909207,
                "tempo": 120.0
            },
            {
                "start_time": 18.284090909090907,
                "end_time": 18.384090909090908,
                "pitch": 56,
                "velocity": 64,
                "duration": 0.10000000000000142,
                "tempo": 120.0
            },
            {
                "start_time": 18.534090909090907,
                "end_time": 18.634090909090908,
                "pitch": 60,
                "velocity": 64,
                "duration": 0.10000000000000142,
                "tempo": 120.0
            },
            {
                "start_time": 18.65,
                "end_time": 18.76590909090909,
                "pitch": 56,
                "velocity": 64,
                "duration": 0.11590909090909207,
                "tempo": 120.0
            },
            {
                "start_time": 18.9,
                "end_time": 19.01590909090909,
                "pitch": 60,
                "velocity": 64,
                "duration": 0.11590909090909207,
                "tempo": 120.0
            },
            {
                "start_time": 19.034090909090907,
                "end_time": 19.134090909090908,
                "pitch": 56,
                "velocity": 64,
                "duration": 0.10000000000000142,
                "tempo": 120.0
            },
            {
                "start_time": 19.284090909090907,
                "end_time": 19.384090909090908,
                "pitch": 60,
                "velocity": 64,
                "duration": 0.10000000000000142,
                "tempo": 120.0
            },
            {
                "start_time": 19.4,
                "end_time": 19.51590909090909,
                "pitch": 56,
                "velocity": 64,
                "duration": 0.11590909090909207,
                "tempo": 120.0
            },
            {
                "start_time": 19.65,
                "end_time": 19.76590909090909,
                "pitch": 60,
                "velocity": 64,
                "duration": 0.11590909090909207,
                "tempo": 120.0
            },
            {
                "start_time": 20.15,
                "end_time": 20.26590909090909,
                "pitch": 58,
                "velocity": 64,
                "duration": 0.11590909090909207,
                "tempo": 120.0
            },
            {
                "start_time": 20.284090909090907,
                "end_time": 20.384090909090908,
                "pitch": 53,
                "velocity": 64,
                "duration": 0.10000000000000142,
                "tempo": 120.0
            },
            {
                "start_time": 20.534090909090907,
                "end_time": 20.634090909090908,
                "pitch": 58,
                "velocity": 64,
                "duration": 0.10000000000000142,
                "tempo": 120.0
            },
            {
                "start_time": 20.65,
                "end_time": 20.76590909090909,
                "pitch": 53,
                "velocity": 64,
                "duration": 0.11590909090909207,
                "tempo": 120.0
            },
            {
                "start_time": 20.9,
                "end_time": 21.01590909090909,
                "pitch": 58,
                "velocity": 64,
                "duration": 0.11590909090909207,
                "tempo": 120.0
            },
            {
                "start_time": 21.034090909090907,
                "end_time": 21.134090909090908,
                "pitch": 53,
                "velocity": 64,
                "duration": 0.10000000000000142,
                "tempo": 120.0
            },
            {
                "start_time": 21.284090909090907,
                "end_time": 21.384090909090908,
                "pitch": 58,
                "velocity": 64,
                "duration": 0.10000000000000142,
                "tempo": 120.0
            },
            {
                "start_time": 21.4,
                "end_time": 21.51590909090909,
                "pitch": 53,
                "velocity": 64,
                "duration": 0.11590909090909207,
                "tempo": 120.0
            },
            {
                "start_time": 21.65,
                "end_time": 21.76590909090909,
                "pitch": 58,
                "velocity": 64,
                "duration": 0.11590909090909207,
                "tempo": 120.0
            },
            {
                "start_time": 22.15,
                "end_time": 22.26590909090909,
                "pitch": 56,
                "velocity": 64,
                "duration": 0.11590909090909207,
                "tempo": 120.0
            },
            {
                "start_time": 22.284090909090907,
                "end_time": 22.384090909090908,
                "pitch": 51,
                "velocity": 64,
                "duration": 0.10000000000000142,
                "tempo": 120.0
            },
            {
                "start_time": 22.534090909090907,
                "end_time": 22.634090909090908,
                "pitch": 56,
                "velocity": 64,
                "duration": 0.10000000000000142,
                "tempo": 120.0
            },
            {
                "start_time": 22.65,
                "end_time": 22.76590909090909,
                "pitch": 51,
                "velocity": 64,
                "duration": 0.11590909090909207,
                "tempo": 120.0
            },
            {
                "start_time": 22.9,
                "end_time": 23.01590909090909,
                "pitch": 56,
                "velocity": 64,
                "duration": 0.11590909090909207,
                "tempo": 120.0
            },
            {
                "start_time": 23.034090909090907,
                "end_time": 23.134090909090908,
                "pitch": 51,
                "velocity": 64,
                "duration": 0.10000000000000142,
                "tempo": 120.0
            },
            {
                "start_time": 23.284090909090907,
                "end_time": 23.384090909090908,
                "pitch": 56,
                "velocity": 64,
                "duration": 0.10000000000000142,
                "tempo": 120.0
            },
            {
                "start_time": 23.4,
                "end_time": 23.51590909090909,
                "pitch": 51,
                "velocity": 64,
                "duration": 0.11590909090909207,
                "tempo": 120.0
            },
            {
                "start_time": 23.65,
                "end_time": 23.76590909090909,
                "pitch": 56,
                "velocity": 64,
                "duration": 0.11590909090909207,
                "tempo": 120.0
            },
            {
                "start_time": 24.15,
                "end_time": 24.26590909090909,
                "pitch": 54,
                "velocity": 64,
                "duration": 0.11590909090909207,
                "tempo": 120.0
            },
            {
                "start_time": 24.284090909090907,
                "end_time": 24.384090909090908,
                "pitch": 54,
                "velocity": 64,
                "duration": 0.10000000000000142,
                "tempo": 120.0
            },
            {
                "start_time": 24.534090909090907,
                "end_time": 24.634090909090908,
                "pitch": 54,
                "velocity": 64,
                "duration": 0.10000000000000142,
                "tempo": 120.0
            },
            {
                "start_time": 24.65,
                "end_time": 24.76590909090909,
                "pitch": 54,
                "velocity": 64,
                "duration": 0.11590909090909207,
                "tempo": 120.0
            },
            {
                "start_time": 24.9,
                "end_time": 25.01590909090909,
                "pitch": 54,
                "velocity": 64,
                "duration": 0.11590909090909207,
                "tempo": 120.0
            },
            {
                "start_time": 25.034090909090907,
                "end_time": 25.134090909090908,
                "pitch": 54,
                "velocity": 64,
                "duration": 0.10000000000000142,
                "tempo": 120.0
            },
            {
                "start_time": 25.284090909090907,
                "end_time": 25.384090909090908,
                "pitch": 54,
                "velocity": 64,
                "duration": 0.10000000000000142,
                "tempo": 120.0
            },
            {
                "start_time": 25.4,
                "end_time": 25.51590909090909,
                "pitch": 54,
                "velocity": 64,
                "duration": 0.11590909090909207,
                "tempo": 120.0
            },
            {
                "start_time": 25.65,
                "end_time": 25.76590909090909,
                "pitch": 54,
                "velocity": 64,
                "duration": 0.11590909090909207,
                "tempo": 120.0
            },
            {
                "start_time": 26.15,
                "end_time": 26.26590909090909,
                "pitch": 56,
                "velocity": 64,
                "duration": 0.11590909090909207,
                "tempo": 120.0
            },
            {
                "start_time": 26.284090909090907,
                "end_time": 26.384090909090908,
                "pitch": 56,
                "velocity": 64,
                "duration": 0.10000000000000142,
                "tempo": 120.0
            },
            {
                "start_time": 26.534090909090907,
                "end_time": 26.634090909090908,
                "pitch": 56,
                "velocity": 64,
                "duration": 0.10000000000000142,
                "tempo": 120.0
            },
            {
                "start_time": 26.65,
                "end_time": 26.76590909090909,
                "pitch": 56,
                "velocity": 64,
                "duration": 0.11590909090909207,
                "tempo": 120.0
            },
            {
                "start_time": 26.9,
                "end_time": 27.01590909090909,
                "pitch": 56,
                "velocity": 64,
                "duration": 0.11590909090909207,
                "tempo": 120.0
            },
            {
                "start_time": 27.034090909090907,
                "end_time": 27.134090909090908,
                "pitch": 56,
                "velocity": 64,
                "duration": 0.10000000000000142,
                "tempo": 120.0
            },
            {
                "start_time": 27.284090909090907,
                "end_time": 27.384090909090908,
                "pitch": 56,
                "velocity": 64,
                "duration": 0.10000000000000142,
                "tempo": 120.0
            },
            {
                "start_time": 27.4,
                "end_time": 27.51590909090909,
                "pitch": 56,
                "velocity": 64,
                "duration": 0.11590909090909207,
                "tempo": 120.0
            },
            {
                "start_time": 27.65,
                "end_time": 27.76590909090909,
                "pitch": 56,
                "velocity": 64,
                "duration": 0.11590909090909207,
                "tempo": 120.0
            },
            {
                "start_time": 28.15,
                "end_time": 28.26590909090909,
                "pitch": 56,
                "velocity": 64,
                "duration": 0.11590909090909207,
                "tempo": 120.0
            },
            {
                "start_time": 28.284090909090907,
                "end_time": 28.384090909090908,
                "pitch": 56,
                "velocity": 64,
                "duration": 0.10000000000000142,
                "tempo": 120.0
            },
            {
                "start_time": 28.534090909090907,
                "end_time": 28.634090909090908,
                "pitch": 56,
                "velocity": 64,
                "duration": 0.10000000000000142,
                "tempo": 120.0
            },
            {
                "start_time": 28.65,
                "end_time": 28.76590909090909,
                "pitch": 56,
                "velocity": 64,
                "duration": 0.11590909090909207,
                "tempo": 120.0
            },
            {
                "start_time": 28.9,
                "end_time": 29.01590909090909,
                "pitch": 56,
                "velocity": 64,
                "duration": 0.11590909090909207,
                "tempo": 120.0
            },
            {
                "start_time": 29.034090909090907,
                "end_time": 29.134090909090908,
                "pitch": 56,
                "velocity": 64,
                "duration": 0.10000000000000142,
                "tempo": 120.0
            },
            {
                "start_time": 29.284090909090907,
                "end_time": 29.384090909090908,
                "pitch": 56,
                "velocity": 64,
                "duration": 0.10000000000000142,
                "tempo": 120.0
            },
            {
                "start_time": 29.4,
                "end_time": 29.51590909090909,
                "pitch": 56,
                "velocity": 64,
                "duration": 0.11590909090909207,
                "tempo": 120.0
            },
            {
                "start_time": 29.65,
                "end_time": 29.76590909090909,
                "pitch": 56,
                "velocity": 64,
                "duration": 0.11590909090909207,
                "tempo": 120.0
            },
            {
                "start_time": 30.15681818181818,
                "end_time": 30.275,
                "pitch": 61,
                "velocity": 64,
                "duration": 0.11818181818181728,
                "tempo": 120.0
            },
            {
                "start_time": 30.293181818181818,
                "end_time": 30.395454545454545,
                "pitch": 58,
                "velocity": 64,
                "duration": 0.10227272727272663,
                "tempo": 120.0
            },
            {
                "start_time": 30.543181818181818,
                "end_time": 30.643181818181816,
                "pitch": 61,
                "velocity": 64,
                "duration": 0.09999999999999787,
                "tempo": 120.0
            },
            {
                "start_time": 30.659090909090907,
                "end_time": 30.77272727272727,
                "pitch": 58,
                "velocity": 64,
                "duration": 0.11363636363636331,
                "tempo": 120.0
            },
            {
                "start_time": 30.904545454545453,
                "end_time": 31.888636363636362,
                "pitch": 56,
                "velocity": 64,
                "duration": 0.9840909090909093,
                "tempo": 120.0
            },
            {
                "start_time": 32.154545454545456,
                "end_time": 32.27045454545454,
                "pitch": 56,
                "velocity": 64,
                "duration": 0.11590909090908497,
                "tempo": 120.0
            },
            {
                "start_time": 32.288636363636364,
                "end_time": 32.388636363636365,
                "pitch": 51,
                "velocity": 64,
                "duration": 0.10000000000000142,
                "tempo": 120.0
            },
            {
                "start_time": 32.538636363636364,
                "end_time": 32.638636363636365,
                "pitch": 56,
                "velocity": 64,
                "duration": 0.10000000000000142,
                "tempo": 120.0
            },
            {
                "start_time": 32.654545454545456,
                "end_time": 32.77045454545454,
                "pitch": 51,
                "velocity": 64,
                "duration": 0.11590909090908497,
                "tempo": 120.0
            },
            {
                "start_time": 32.904545454545456,
                "end_time": 33.02045454545454,
                "pitch": 56,
                "velocity": 64,
                "duration": 0.11590909090908497,
                "tempo": 120.0
            },
            {
                "start_time": 33.038636363636364,
                "end_time": 33.138636363636365,
                "pitch": 51,
                "velocity": 64,
                "duration": 0.10000000000000142,
                "tempo": 120.0
            },
            {
                "start_time": 33.288636363636364,
                "end_time": 33.388636363636365,
                "pitch": 56,
                "velocity": 64,
                "duration": 0.10000000000000142,
                "tempo": 120.0
            },
            {
                "start_time": 33.404545454545456,
                "end_time": 33.52045454545454,
                "pitch": 51,
                "velocity": 64,
                "duration": 0.11590909090908497,
                "tempo": 120.0
            },
            {
                "start_time": 33.654545454545456,
                "end_time": 33.77045454545454,
                "pitch": 56,
                "velocity": 64,
                "duration": 0.11590909090908497,
                "tempo": 120.0
            },
            {
                "start_time": 34.154545454545456,
                "end_time": 34.27045454545454,
                "pitch": 53,
                "velocity": 64,
                "duration": 0.11590909090908497,
                "tempo": 120.0
            },
            {
                "start_time": 34.288636363636364,
                "end_time": 34.388636363636365,
                "pitch": 53,
                "velocity": 64,
                "duration": 0.10000000000000142,
                "tempo": 120.0
            },
            {
                "start_time": 34.538636363636364,
                "end_time": 34.638636363636365,
                "pitch": 53,
                "velocity": 64,
                "duration": 0.10000000000000142,
                "tempo": 120.0
            },
            {
                "start_time": 34.654545454545456,
                "end_time": 34.77045454545454,
                "pitch": 53,
                "velocity": 64,
                "duration": 0.11590909090908497,
                "tempo": 120.0
            },
            {
                "start_time": 34.904545454545456,
                "end_time": 35.02045454545454,
                "pitch": 53,
                "velocity": 64,
                "duration": 0.11590909090908497,
                "tempo": 120.0
            },
            {
                "start_time": 35.038636363636364,
                "end_time": 35.138636363636365,
                "pitch": 53,
                "velocity": 64,
                "duration": 0.10000000000000142,
                "tempo": 120.0
            },
            {
                "start_time": 35.288636363636364,
                "end_time": 35.388636363636365,
                "pitch": 53,
                "velocity": 64,
                "duration": 0.10000000000000142,
                "tempo": 120.0
            },
            {
                "start_time": 35.404545454545456,
                "end_time": 35.52045454545454,
                "pitch": 53,
                "velocity": 64,
                "duration": 0.11590909090908497,
                "tempo": 120.0
            },
            {
                "start_time": 35.654545454545456,
                "end_time": 35.77045454545454,
                "pitch": 53,
                "velocity": 64,
                "duration": 0.11590909090908497,
                "tempo": 120.0
            },
            {
                "start_time": 36.154545454545456,
                "end_time": 36.27045454545454,
                "pitch": 51,
                "velocity": 64,
                "duration": 0.11590909090908497,
                "tempo": 120.0
            },
            {
                "start_time": 36.288636363636364,
                "end_time": 36.38863636363636,
                "pitch": 51,
                "velocity": 64,
                "duration": 0.09999999999999432,
                "tempo": 120.0
            },
            {
                "start_time": 36.538636363636364,
                "end_time": 36.63863636363636,
                "pitch": 51,
                "velocity": 64,
                "duration": 0.09999999999999432,
                "tempo": 120.0
            },
            {
                "start_time": 36.654545454545456,
                "end_time": 36.77045454545454,
                "pitch": 51,
                "velocity": 64,
                "duration": 0.11590909090908497,
                "tempo": 120.0
            },
            {
                "start_time": 36.904545454545456,
                "end_time": 37.02045454545454,
                "pitch": 51,
                "velocity": 64,
                "duration": 0.11590909090908497,
                "tempo": 120.0
            },
            {
                "start_time": 37.038636363636364,
                "end_time": 37.13863636363636,
                "pitch": 51,
                "velocity": 64,
                "duration": 0.09999999999999432,
                "tempo": 120.0
            },
            {
                "start_time": 37.288636363636364,
                "end_time": 37.38863636363636,
                "pitch": 51,
                "velocity": 64,
                "duration": 0.09999999999999432,
                "tempo": 120.0
            },
            {
                "start_time": 37.404545454545456,
                "end_time": 37.52045454545454,
                "pitch": 51,
                "velocity": 64,
                "duration": 0.11590909090908497,
                "tempo": 120.0
            },
            {
                "start_time": 37.654545454545456,
                "end_time": 37.77045454545454,
                "pitch": 51,
                "velocity": 64,
                "duration": 0.11590909090908497,
                "tempo": 120.0
            },
            {
                "start_time": 38.154545454545456,
                "end_time": 38.27045454545454,
                "pitch": 63,
                "velocity": 64,
                "duration": 0.11590909090908497,
                "tempo": 120.0
            },
            {
                "start_time": 38.288636363636364,
                "end_time": 38.38863636363636,
                "pitch": 58,
                "velocity": 64,
                "duration": 0.09999999999999432,
                "tempo": 120.0
            },
            {
                "start_time": 38.538636363636364,
                "end_time": 38.63863636363636,
                "pitch": 63,
                "velocity": 64,
                "duration": 0.09999999999999432,
                "tempo": 120.0
            },
            {
                "start_time": 38.654545454545456,
                "end_time": 38.77045454545454,
                "pitch": 58,
                "velocity": 64,
                "duration": 0.11590909090908497,
                "tempo": 120.0
            },
            {
                "start_time": 38.904545454545456,
                "end_time": 39.02045454545454,
                "pitch": 63,
                "velocity": 64,
                "duration": 0.11590909090908497,
                "tempo": 120.0
            },
            {
                "start_time": 39.038636363636364,
                "end_time": 39.13863636363636,
                "pitch": 58,
                "velocity": 64,
                "duration": 0.09999999999999432,
                "tempo": 120.0
            },
            {
                "start_time": 39.288636363636364,
                "end_time": 39.38863636363636,
                "pitch": 63,
                "velocity": 64,
                "duration": 0.09999999999999432,
                "tempo": 120.0
            },
            {
                "start_time": 39.404545454545456,
                "end_time": 39.52045454545454,
                "pitch": 58,
                "velocity": 64,
                "duration": 0.11590909090908497,
                "tempo": 120.0
            },
            {
                "start_time": 39.654545454545456,
                "end_time": 39.77045454545454,
                "pitch": 63,
                "velocity": 64,
                "duration": 0.11590909090908497,
                "tempo": 120.0
            },
            {
                "start_time": 40.154545454545456,
                "end_time": 40.27045454545454,
                "pitch": 56,
                "velocity": 64,
                "duration": 0.11590909090908497,
                "tempo": 120.0
            },
            {
                "start_time": 40.288636363636364,
                "end_time": 40.38863636363636,
                "pitch": 51,
                "velocity": 64,
                "duration": 0.09999999999999432,
                "tempo": 120.0
            },
            {
                "start_time": 40.538636363636364,
                "end_time": 40.63863636363636,
                "pitch": 56,
                "velocity": 64,
                "duration": 0.09999999999999432,
                "tempo": 120.0
            },
            {
                "start_time": 40.654545454545456,
                "end_time": 40.77045454545454,
                "pitch": 51,
                "velocity": 64,
                "duration": 0.11590909090908497,
                "tempo": 120.0
            },
            {
                "start_time": 40.904545454545456,
                "end_time": 41.02045454545454,
                "pitch": 56,
                "velocity": 64,
                "duration": 0.11590909090908497,
                "tempo": 120.0
            },
            {
                "start_time": 41.038636363636364,
                "end_time": 41.13863636363636,
                "pitch": 51,
                "velocity": 64,
                "duration": 0.09999999999999432,
                "tempo": 120.0
            },
            {
                "start_time": 41.288636363636364,
                "end_time": 41.38863636363636,
                "pitch": 56,
                "velocity": 64,
                "duration": 0.09999999999999432,
                "tempo": 120.0
            },
            {
                "start_time": 41.40454545454545,
                "end_time": 41.52045454545454,
                "pitch": 51,
                "velocity": 64,
                "duration": 0.11590909090909207,
                "tempo": 120.0
            },
            {
                "start_time": 41.65454545454545,
                "end_time": 41.77045454545454,
                "pitch": 56,
                "velocity": 64,
                "duration": 0.11590909090909207,
                "tempo": 120.0
            },
            {
                "start_time": 42.15454545454545,
                "end_time": 42.27045454545454,
                "pitch": 56,
                "velocity": 64,
                "duration": 0.11590909090909207,
                "tempo": 120.0
            },
            {
                "start_time": 42.288636363636364,
                "end_time": 42.38863636363636,
                "pitch": 51,
                "velocity": 64,
                "duration": 0.09999999999999432,
                "tempo": 120.0
            },
            {
                "start_time": 42.538636363636364,
                "end_time": 42.63863636363636,
                "pitch": 56,
                "velocity": 64,
                "duration": 0.09999999999999432,
                "tempo": 120.0
            },
            {
                "start_time": 42.65454545454545,
                "end_time": 42.77045454545454,
                "pitch": 51,
                "velocity": 64,
                "duration": 0.11590909090909207,
                "tempo": 120.0
            },
            {
                "start_time": 42.90454545454545,
                "end_time": 43.02045454545454,
                "pitch": 56,
                "velocity": 64,
                "duration": 0.11590909090909207,
                "tempo": 120.0
            },
            {
                "start_time": 43.038636363636364,
                "end_time": 43.13863636363636,
                "pitch": 51,
                "velocity": 64,
                "duration": 0.09999999999999432,
                "tempo": 120.0
            },
            {
                "start_time": 43.288636363636364,
                "end_time": 43.38863636363636,
                "pitch": 56,
                "velocity": 64,
                "duration": 0.09999999999999432,
                "tempo": 120.0
            },
            {
                "start_time": 43.40454545454545,
                "end_time": 43.52045454545454,
                "pitch": 51,
                "velocity": 64,
                "duration": 0.11590909090909207,
                "tempo": 120.0
            },
            {
                "start_time": 43.65454545454545,
                "end_time": 43.77045454545454,
                "pitch": 56,
                "velocity": 64,
                "duration": 0.11590909090909207,
                "tempo": 120.0
            },
            {
                "start_time": 44.15454545454545,
                "end_time": 44.27045454545454,
                "pitch": 56,
                "velocity": 64,
                "duration": 0.11590909090909207,
                "tempo": 120.0
            },
            {
                "start_time": 44.288636363636364,
                "end_time": 44.38863636363636,
                "pitch": 53,
                "velocity": 64,
                "duration": 0.09999999999999432,
                "tempo": 120.0
            },
            {
                "start_time": 44.538636363636364,
                "end_time": 44.63863636363636,
                "pitch": 56,
                "velocity": 64,
                "duration": 0.09999999999999432,
                "tempo": 120.0
            },
            {
                "start_time": 44.65454545454545,
                "end_time": 44.77045454545454,
                "pitch": 53,
                "velocity": 64,
                "duration": 0.11590909090909207,
                "tempo": 120.0
            },
            {
                "start_time": 44.90454545454545,
                "end_time": 45.02045454545454,
                "pitch": 56,
                "velocity": 64,
                "duration": 0.11590909090909207,
                "tempo": 120.0
            },
            {
                "start_time": 45.038636363636364,
                "end_time": 45.13863636363636,
                "pitch": 53,
                "velocity": 64,
                "duration": 0.09999999999999432,
                "tempo": 120.0
            },
            {
                "start_time": 45.288636363636364,
                "end_time": 45.38863636363636,
                "pitch": 56,
                "velocity": 64,
                "duration": 0.09999999999999432,
                "tempo": 120.0
            },
            {
                "start_time": 45.40454545454545,
                "end_time": 45.52045454545454,
                "pitch": 53,
                "velocity": 64,
                "duration": 0.11590909090909207,
                "tempo": 120.0
            },
            {
                "start_time": 45.65454545454545,
                "end_time": 45.77045454545454,
                "pitch": 56,
                "velocity": 64,
                "duration": 0.11590909090909207,
                "tempo": 120.0
            },
            {
                "start_time": 46.29772727272727,
                "end_time": 46.4,
                "pitch": 61,
                "velocity": 64,
                "duration": 0.10227272727272663,
                "tempo": 120.0
            },
            {
                "start_time": 46.41590909090909,
                "end_time": 46.777272727272724,
                "pitch": 61,
                "velocity": 64,
                "duration": 0.36136363636363455,
                "tempo": 120.0
            },
            {
                "start_time": 46.793181818181814,
                "end_time": 46.893181818181816,
                "pitch": 56,
                "velocity": 64,
                "duration": 0.10000000000000142,
                "tempo": 120.0
            },
            {
                "start_time": 46.90909090909091,
                "end_time": 47.275,
                "pitch": 56,
                "velocity": 64,
                "duration": 0.36590909090909207,
                "tempo": 120.0
            },
            {
                "start_time": 47.293181818181814,
                "end_time": 47.393181818181816,
                "pitch": 53,
                "velocity": 64,
                "duration": 0.10000000000000142,
                "tempo": 120.0
            },
            {
                "start_time": 47.40909090909091,
                "end_time": 47.643181818181816,
                "pitch": 53,
                "velocity": 64,
                "duration": 0.23409090909090935,
                "tempo": 120.0
            },
            {
                "start_time": 47.65909090909091,
                "end_time": 47.893181818181816,
                "pitch": 49,
                "velocity": 64,
                "duration": 0.23409090909090935,
                "tempo": 120.0
            },
            {
                "start_time": 48.15909090909091,
                "end_time": 48.275,
                "pitch": 61,
                "velocity": 64,
                "duration": 0.11590909090909207,
                "tempo": 120.0
            },
            {
                "start_time": 48.293181818181814,
                "end_time": 48.393181818181816,
                "pitch": 56,
                "velocity": 64,
                "duration": 0.10000000000000142,
                "tempo": 120.0
            },
            {
                "start_time": 48.543181818181814,
                "end_time": 48.643181818181816,
                "pitch": 61,
                "velocity": 64,
                "duration": 0.10000000000000142,
                "tempo": 120.0
            },
            {
                "start_time": 48.65909090909091,
                "end_time": 48.775,
                "pitch": 56,
                "velocity": 64,
                "duration": 0.11590909090909207,
                "tempo": 120.0
            },
            {
                "start_time": 48.90909090909091,
                "end_time": 49.025,
                "pitch": 61,
                "velocity": 64,
                "duration": 0.11590909090909207,
                "tempo": 120.0
            },
            {
                "start_time": 49.043181818181814,
                "end_time": 49.143181818181816,
                "pitch": 56,
                "velocity": 64,
                "duration": 0.10000000000000142,
                "tempo": 120.0
            },
            {
                "start_time": 49.293181818181814,
                "end_time": 49.393181818181816,
                "pitch": 61,
                "velocity": 64,
                "duration": 0.10000000000000142,
                "tempo": 120.0
            },
            {
                "start_time": 49.40909090909091,
                "end_time": 49.525,
                "pitch": 56,
                "velocity": 64,
                "duration": 0.11590909090909207,
                "tempo": 120.0
            },
            {
                "start_time": 49.65909090909091,
                "end_time": 49.775,
                "pitch": 61,
                "velocity": 64,
                "duration": 0.11590909090909207,
                "tempo": 120.0
            },
            {
                "start_time": 50.15909090909091,
                "end_time": 50.275,
                "pitch": 60,
                "velocity": 64,
                "duration": 0.11590909090909207,
                "tempo": 120.0
            },
            {
                "start_time": 50.293181818181814,
                "end_time": 50.393181818181816,
                "pitch": 56,
                "velocity": 64,
                "duration": 0.10000000000000142,
                "tempo": 120.0
            },
            {
                "start_time": 50.543181818181814,
                "end_time": 50.643181818181816,
                "pitch": 60,
                "velocity": 64,
                "duration": 0.10000000000000142,
                "tempo": 120.0
            },
            {
                "start_time": 50.65909090909091,
                "end_time": 50.775,
                "pitch": 56,
                "velocity": 64,
                "duration": 0.11590909090909207,
                "tempo": 120.0
            },
            {
                "start_time": 50.90909090909091,
                "end_time": 51.025,
                "pitch": 60,
                "velocity": 64,
                "duration": 0.11590909090909207,
                "tempo": 120.0
            },
            {
                "start_time": 51.043181818181814,
                "end_time": 51.143181818181816,
                "pitch": 56,
                "velocity": 64,
                "duration": 0.10000000000000142,
                "tempo": 120.0
            },
            {
                "start_time": 51.293181818181814,
                "end_time": 51.393181818181816,
                "pitch": 60,
                "velocity": 64,
                "duration": 0.10000000000000142,
                "tempo": 120.0
            },
            {
                "start_time": 51.40909090909091,
                "end_time": 51.525,
                "pitch": 56,
                "velocity": 64,
                "duration": 0.11590909090909207,
                "tempo": 120.0
            },
            {
                "start_time": 51.65909090909091,
                "end_time": 51.775,
                "pitch": 60,
                "velocity": 64,
                "duration": 0.11590909090909207,
                "tempo": 120.0
            },
            {
                "start_time": 52.15909090909091,
                "end_time": 52.275,
                "pitch": 58,
                "velocity": 64,
                "duration": 0.11590909090909207,
                "tempo": 120.0
            },
            {
                "start_time": 52.293181818181814,
                "end_time": 52.393181818181816,
                "pitch": 53,
                "velocity": 64,
                "duration": 0.10000000000000142,
                "tempo": 120.0
            },
            {
                "start_time": 52.543181818181814,
                "end_time": 52.643181818181816,
                "pitch": 58,
                "velocity": 64,
                "duration": 0.10000000000000142,
                "tempo": 120.0
            },
            {
                "start_time": 52.65909090909091,
                "end_time": 52.775,
                "pitch": 53,
                "velocity": 64,
                "duration": 0.11590909090909207,
                "tempo": 120.0
            },
            {
                "start_time": 52.90909090909091,
                "end_time": 53.025,
                "pitch": 58,
                "velocity": 64,
                "duration": 0.11590909090909207,
                "tempo": 120.0
            },
            {
                "start_time": 53.043181818181814,
                "end_time": 53.143181818181816,
                "pitch": 53,
                "velocity": 64,
                "duration": 0.10000000000000142,
                "tempo": 120.0
            },
            {
                "start_time": 53.293181818181814,
                "end_time": 53.393181818181816,
                "pitch": 58,
                "velocity": 64,
                "duration": 0.10000000000000142,
                "tempo": 120.0
            },
            {
                "start_time": 53.40909090909091,
                "end_time": 53.525,
                "pitch": 53,
                "velocity": 64,
                "duration": 0.11590909090909207,
                "tempo": 120.0
            },
            {
                "start_time": 53.65909090909091,
                "end_time": 53.775,
                "pitch": 58,
                "velocity": 64,
                "duration": 0.11590909090909207,
                "tempo": 120.0
            },
            {
                "start_time": 54.15909090909091,
                "end_time": 54.275,
                "pitch": 56,
                "velocity": 64,
                "duration": 0.11590909090909207,
                "tempo": 120.0
            },
            {
                "start_time": 54.293181818181814,
                "end_time": 54.393181818181816,
                "pitch": 51,
                "velocity": 64,
                "duration": 0.10000000000000142,
                "tempo": 120.0
            },
            {
                "start_time": 54.543181818181814,
                "end_time": 54.643181818181816,
                "pitch": 56,
                "velocity": 64,
                "duration": 0.10000000000000142,
                "tempo": 120.0
            },
            {
                "start_time": 54.65909090909091,
                "end_time": 54.775,
                "pitch": 51,
                "velocity": 64,
                "duration": 0.11590909090909207,
                "tempo": 120.0
            },
            {
                "start_time": 54.90909090909091,
                "end_time": 55.025,
                "pitch": 56,
                "velocity": 64,
                "duration": 0.11590909090909207,
                "tempo": 120.0
            },
            {
                "start_time": 55.043181818181814,
                "end_time": 55.143181818181816,
                "pitch": 51,
                "velocity": 64,
                "duration": 0.10000000000000142,
                "tempo": 120.0
            },
            {
                "start_time": 55.293181818181814,
                "end_time": 55.393181818181816,
                "pitch": 56,
                "velocity": 64,
                "duration": 0.10000000000000142,
                "tempo": 120.0
            },
            {
                "start_time": 55.40909090909091,
                "end_time": 55.525,
                "pitch": 51,
                "velocity": 64,
                "duration": 0.11590909090909207,
                "tempo": 120.0
            },
            {
                "start_time": 55.65909090909091,
                "end_time": 55.775,
                "pitch": 56,
                "velocity": 64,
                "duration": 0.11590909090909207,
                "tempo": 120.0
            },
            {
                "start_time": 56.15909090909091,
                "end_time": 56.275,
                "pitch": 54,
                "velocity": 64,
                "duration": 0.11590909090909207,
                "tempo": 120.0
            },
            {
                "start_time": 56.293181818181814,
                "end_time": 56.393181818181816,
                "pitch": 49,
                "velocity": 64,
                "duration": 0.10000000000000142,
                "tempo": 120.0
            },
            {
                "start_time": 56.543181818181814,
                "end_time": 56.643181818181816,
                "pitch": 54,
                "velocity": 64,
                "duration": 0.10000000000000142,
                "tempo": 120.0
            },
            {
                "start_time": 56.65909090909091,
                "end_time": 56.775,
                "pitch": 49,
                "velocity": 64,
                "duration": 0.11590909090909207,
                "tempo": 120.0
            },
            {
                "start_time": 56.90909090909091,
                "end_time": 57.025,
                "pitch": 54,
                "velocity": 64,
                "duration": 0.11590909090909207,
                "tempo": 120.0
            },
            {
                "start_time": 57.043181818181814,
                "end_time": 57.143181818181816,
                "pitch": 49,
                "velocity": 64,
                "duration": 0.10000000000000142,
                "tempo": 120.0
            },
            {
                "start_time": 57.293181818181814,
                "end_time": 57.393181818181816,
                "pitch": 54,
                "velocity": 64,
                "duration": 0.10000000000000142,
                "tempo": 120.0
            },
            {
                "start_time": 57.40909090909091,
                "end_time": 57.525,
                "pitch": 49,
                "velocity": 64,
                "duration": 0.11590909090909207,
                "tempo": 120.0
            },
            {
                "start_time": 57.65909090909091,
                "end_time": 57.775,
                "pitch": 54,
                "velocity": 64,
                "duration": 0.11590909090909207,
                "tempo": 120.0
            },
            {
                "start_time": 58.15909090909091,
                "end_time": 58.275,
                "pitch": 56,
                "velocity": 64,
                "duration": 0.11590909090909207,
                "tempo": 120.0
            },
            {
                "start_time": 58.293181818181814,
                "end_time": 58.393181818181816,
                "pitch": 56,
                "velocity": 64,
                "duration": 0.10000000000000142,
                "tempo": 120.0
            },
            {
                "start_time": 58.543181818181814,
                "end_time": 58.643181818181816,
                "pitch": 56,
                "velocity": 64,
                "duration": 0.10000000000000142,
                "tempo": 120.0
            },
            {
                "start_time": 58.65909090909091,
                "end_time": 58.775,
                "pitch": 56,
                "velocity": 64,
                "duration": 0.11590909090909207,
                "tempo": 120.0
            },
            {
                "start_time": 58.90909090909091,
                "end_time": 59.025,
                "pitch": 56,
                "velocity": 64,
                "duration": 0.11590909090909207,
                "tempo": 120.0
            },
            {
                "start_time": 59.043181818181814,
                "end_time": 59.143181818181816,
                "pitch": 56,
                "velocity": 64,
                "duration": 0.10000000000000142,
                "tempo": 120.0
            },
            {
                "start_time": 59.293181818181814,
                "end_time": 59.393181818181816,
                "pitch": 56,
                "velocity": 64,
                "duration": 0.10000000000000142,
                "tempo": 120.0
            },
            {
                "start_time": 59.40909090909091,
                "end_time": 59.525,
                "pitch": 56,
                "velocity": 64,
                "duration": 0.11590909090909207,
                "tempo": 120.0
            },
            {
                "start_time": 59.65909090909091,
                "end_time": 59.775,
                "pitch": 56,
                "velocity": 64,
                "duration": 0.11590909090909207,
                "tempo": 120.0
            },
            {
                "start_time": 60.15909090909091,
                "end_time": 60.275,
                "pitch": 58,
                "velocity": 64,
                "duration": 0.11590909090909207,
                "tempo": 120.0
            },
            {
                "start_time": 60.293181818181814,
                "end_time": 60.393181818181816,
                "pitch": 58,
                "velocity": 64,
                "duration": 0.10000000000000142,
                "tempo": 120.0
            },
            {
                "start_time": 60.543181818181814,
                "end_time": 60.643181818181816,
                "pitch": 58,
                "velocity": 64,
                "duration": 0.10000000000000142,
                "tempo": 120.0
            },
            {
                "start_time": 60.65909090909091,
                "end_time": 60.775,
                "pitch": 58,
                "velocity": 64,
                "duration": 0.11590909090909207,
                "tempo": 120.0
            },
            {
                "start_time": 60.90909090909091,
                "end_time": 61.025,
                "pitch": 58,
                "velocity": 64,
                "duration": 0.11590909090909207,
                "tempo": 120.0
            },
            {
                "start_time": 61.043181818181814,
                "end_time": 61.143181818181816,
                "pitch": 58,
                "velocity": 64,
                "duration": 0.10000000000000142,
                "tempo": 120.0
            },
            {
                "start_time": 61.293181818181814,
                "end_time": 61.393181818181816,
                "pitch": 58,
                "velocity": 64,
                "duration": 0.10000000000000142,
                "tempo": 120.0
            },
            {
                "start_time": 61.40909090909091,
                "end_time": 61.525,
                "pitch": 58,
                "velocity": 64,
                "duration": 0.11590909090909207,
                "tempo": 120.0
            },
            {
                "start_time": 61.65909090909091,
                "end_time": 61.775,
                "pitch": 58,
                "velocity": 64,
                "duration": 0.11590909090909207,
                "tempo": 120.0
            },
            {
                "start_time": 62.15909090909091,
                "end_time": 62.275,
                "pitch": 63,
                "velocity": 64,
                "duration": 0.11590909090909207,
                "tempo": 120.0
            },
            {
                "start_time": 62.293181818181814,
                "end_time": 62.393181818181816,
                "pitch": 60,
                "velocity": 64,
                "duration": 0.10000000000000142,
                "tempo": 120.0
            },
            {
                "start_time": 62.543181818181814,
                "end_time": 62.643181818181816,
                "pitch": 63,
                "velocity": 64,
                "duration": 0.10000000000000142,
                "tempo": 120.0
            },
            {
                "start_time": 62.65909090909091,
                "end_time": 62.775,
                "pitch": 60,
                "velocity": 64,
                "duration": 0.11590909090909207,
                "tempo": 120.0
            },
            {
                "start_time": 62.90909090909091,
                "end_time": 63.025,
                "pitch": 63,
                "velocity": 64,
                "duration": 0.11590909090909207,
                "tempo": 120.0
            },
            {
                "start_time": 63.043181818181814,
                "end_time": 63.143181818181816,
                "pitch": 60,
                "velocity": 64,
                "duration": 0.10000000000000142,
                "tempo": 120.0
            },
            {
                "start_time": 63.293181818181814,
                "end_time": 63.393181818181816,
                "pitch": 63,
                "velocity": 64,
                "duration": 0.10000000000000142,
                "tempo": 120.0
            },
            {
                "start_time": 63.40909090909091,
                "end_time": 63.525,
                "pitch": 60,
                "velocity": 64,
                "duration": 0.11590909090909207,
                "tempo": 120.0
            },
            {
                "start_time": 63.65909090909091,
                "end_time": 63.775,
                "pitch": 63,
                "velocity": 64,
                "duration": 0.11590909090909207,
                "tempo": 120.0
            },
            {
                "start_time": 64.1590909090909,
                "end_time": 64.27499999999999,
                "pitch": 61,
                "velocity": 64,
                "duration": 0.11590909090908497,
                "tempo": 120.0
            },
            {
                "start_time": 64.29318181818182,
                "end_time": 64.39318181818182,
                "pitch": 56,
                "velocity": 64,
                "duration": 0.09999999999999432,
                "tempo": 120.0
            },
            {
                "start_time": 64.54318181818182,
                "end_time": 64.64318181818182,
                "pitch": 61,
                "velocity": 64,
                "duration": 0.09999999999999432,
                "tempo": 120.0
            },
            {
                "start_time": 64.6590909090909,
                "end_time": 64.77499999999999,
                "pitch": 56,
                "velocity": 64,
                "duration": 0.11590909090908497,
                "tempo": 120.0
            },
            {
                "start_time": 64.9090909090909,
                "end_time": 65.02499999999999,
                "pitch": 61,
                "velocity": 64,
                "duration": 0.11590909090908497,
                "tempo": 120.0
            },
            {
                "start_time": 65.04318181818182,
                "end_time": 65.14318181818182,
                "pitch": 56,
                "velocity": 64,
                "duration": 0.09999999999999432,
                "tempo": 120.0
            },
            {
                "start_time": 65.29318181818182,
                "end_time": 65.39318181818182,
                "pitch": 61,
                "velocity": 64,
                "duration": 0.09999999999999432,
                "tempo": 120.0
            },
            {
                "start_time": 65.4090909090909,
                "end_time": 65.52499999999999,
                "pitch": 56,
                "velocity": 64,
                "duration": 0.11590909090908497,
                "tempo": 120.0
            },
            {
                "start_time": 65.6590909090909,
                "end_time": 65.77499999999999,
                "pitch": 61,
                "velocity": 64,
                "duration": 0.11590909090908497,
                "tempo": 120.0
            },
            {
                "start_time": 66.1590909090909,
                "end_time": 66.27499999999999,
                "pitch": 60,
                "velocity": 64,
                "duration": 0.11590909090908497,
                "tempo": 120.0
            },
            {
                "start_time": 66.29318181818182,
                "end_time": 66.39318181818182,
                "pitch": 56,
                "velocity": 64,
                "duration": 0.09999999999999432,
                "tempo": 120.0
            },
            {
                "start_time": 66.54318181818182,
                "end_time": 66.64318181818182,
                "pitch": 60,
                "velocity": 64,
                "duration": 0.09999999999999432,
                "tempo": 120.0
            },
            {
                "start_time": 66.6590909090909,
                "end_time": 66.77499999999999,
                "pitch": 56,
                "velocity": 64,
                "duration": 0.11590909090908497,
                "tempo": 120.0
            },
            {
                "start_time": 66.9090909090909,
                "end_time": 67.02499999999999,
                "pitch": 60,
                "velocity": 64,
                "duration": 0.11590909090908497,
                "tempo": 120.0
            },
            {
                "start_time": 67.04318181818182,
                "end_time": 67.14318181818182,
                "pitch": 56,
                "velocity": 64,
                "duration": 0.09999999999999432,
                "tempo": 120.0
            },
            {
                "start_time": 67.29318181818182,
                "end_time": 67.39318181818182,
                "pitch": 60,
                "velocity": 64,
                "duration": 0.09999999999999432,
                "tempo": 120.0
            },
            {
                "start_time": 67.4090909090909,
                "end_time": 67.52499999999999,
                "pitch": 56,
                "velocity": 64,
                "duration": 0.11590909090908497,
                "tempo": 120.0
            },
            {
                "start_time": 67.6590909090909,
                "end_time": 67.77499999999999,
                "pitch": 60,
                "velocity": 64,
                "duration": 0.11590909090908497,
                "tempo": 120.0
            },
            {
                "start_time": 68.1590909090909,
                "end_time": 68.27499999999999,
                "pitch": 58,
                "velocity": 64,
                "duration": 0.11590909090908497,
                "tempo": 120.0
            },
            {
                "start_time": 68.29318181818182,
                "end_time": 68.39318181818182,
                "pitch": 53,
                "velocity": 64,
                "duration": 0.09999999999999432,
                "tempo": 120.0
            },
            {
                "start_time": 68.54318181818182,
                "end_time": 68.64318181818182,
                "pitch": 58,
                "velocity": 64,
                "duration": 0.09999999999999432,
                "tempo": 120.0
            },
            {
                "start_time": 68.6590909090909,
                "end_time": 68.77499999999999,
                "pitch": 53,
                "velocity": 64,
                "duration": 0.11590909090908497,
                "tempo": 120.0
            },
            {
                "start_time": 68.9090909090909,
                "end_time": 69.02499999999999,
                "pitch": 58,
                "velocity": 64,
                "duration": 0.11590909090908497,
                "tempo": 120.0
            },
            {
                "start_time": 69.04318181818182,
                "end_time": 69.14318181818182,
                "pitch": 53,
                "velocity": 64,
                "duration": 0.09999999999999432,
                "tempo": 120.0
            },
            {
                "start_time": 69.29318181818182,
                "end_time": 69.39318181818182,
                "pitch": 58,
                "velocity": 64,
                "duration": 0.09999999999999432,
                "tempo": 120.0
            },
            {
                "start_time": 69.4090909090909,
                "end_time": 69.52499999999999,
                "pitch": 53,
                "velocity": 64,
                "duration": 0.11590909090908497,
                "tempo": 120.0
            },
            {
                "start_time": 69.6590909090909,
                "end_time": 69.77499999999999,
                "pitch": 58,
                "velocity": 64,
                "duration": 0.11590909090908497,
                "tempo": 120.0
            },
            {
                "start_time": 70.1590909090909,
                "end_time": 70.27499999999999,
                "pitch": 56,
                "velocity": 64,
                "duration": 0.11590909090908497,
                "tempo": 120.0
            },
            {
                "start_time": 70.29318181818182,
                "end_time": 70.39318181818182,
                "pitch": 51,
                "velocity": 64,
                "duration": 0.09999999999999432,
                "tempo": 120.0
            },
            {
                "start_time": 70.54318181818182,
                "end_time": 70.64318181818182,
                "pitch": 56,
                "velocity": 64,
                "duration": 0.09999999999999432,
                "tempo": 120.0
            },
            {
                "start_time": 70.6590909090909,
                "end_time": 70.77499999999999,
                "pitch": 51,
                "velocity": 64,
                "duration": 0.11590909090908497,
                "tempo": 120.0
            },
            {
                "start_time": 70.9090909090909,
                "end_time": 71.02499999999999,
                "pitch": 56,
                "velocity": 64,
                "duration": 0.11590909090908497,
                "tempo": 120.0
            },
            {
                "start_time": 71.04318181818182,
                "end_time": 71.14318181818182,
                "pitch": 51,
                "velocity": 64,
                "duration": 0.09999999999999432,
                "tempo": 120.0
            },
            {
                "start_time": 71.29318181818182,
                "end_time": 71.39318181818182,
                "pitch": 56,
                "velocity": 64,
                "duration": 0.09999999999999432,
                "tempo": 120.0
            },
            {
                "start_time": 71.4090909090909,
                "end_time": 71.52499999999999,
                "pitch": 51,
                "velocity": 64,
                "duration": 0.11590909090908497,
                "tempo": 120.0
            },
            {
                "start_time": 71.6590909090909,
                "end_time": 71.77499999999999,
                "pitch": 56,
                "velocity": 64,
                "duration": 0.11590909090908497,
                "tempo": 120.0
            },
            {
                "start_time": 72.1590909090909,
                "end_time": 72.27499999999999,
                "pitch": 54,
                "velocity": 64,
                "duration": 0.11590909090908497,
                "tempo": 120.0
            },
            {
                "start_time": 72.29318181818182,
                "end_time": 72.39318181818182,
                "pitch": 54,
                "velocity": 64,
                "duration": 0.09999999999999432,
                "tempo": 120.0
            },
            {
                "start_time": 72.54318181818182,
                "end_time": 72.64318181818182,
                "pitch": 54,
                "velocity": 64,
                "duration": 0.09999999999999432,
                "tempo": 120.0
            },
            {
                "start_time": 72.6590909090909,
                "end_time": 72.77499999999999,
                "pitch": 54,
                "velocity": 64,
                "duration": 0.11590909090908497,
                "tempo": 120.0
            },
            {
                "start_time": 72.9090909090909,
                "end_time": 73.02499999999999,
                "pitch": 54,
                "velocity": 64,
                "duration": 0.11590909090908497,
                "tempo": 120.0
            },
            {
                "start_time": 73.04318181818182,
                "end_time": 73.14318181818182,
                "pitch": 54,
                "velocity": 64,
                "duration": 0.09999999999999432,
                "tempo": 120.0
            },
            {
                "start_time": 73.29318181818182,
                "end_time": 73.39318181818182,
                "pitch": 54,
                "velocity": 64,
                "duration": 0.09999999999999432,
                "tempo": 120.0
            },
            {
                "start_time": 73.4090909090909,
                "end_time": 73.52499999999999,
                "pitch": 54,
                "velocity": 64,
                "duration": 0.11590909090908497,
                "tempo": 120.0
            },
            {
                "start_time": 73.6590909090909,
                "end_time": 73.77499999999999,
                "pitch": 54,
                "velocity": 64,
                "duration": 0.11590909090908497,
                "tempo": 120.0
            },
            {
                "start_time": 74.1590909090909,
                "end_time": 74.27499999999999,
                "pitch": 56,
                "velocity": 64,
                "duration": 0.11590909090908497,
                "tempo": 120.0
            },
            {
                "start_time": 74.29318181818182,
                "end_time": 74.39318181818182,
                "pitch": 56,
                "velocity": 64,
                "duration": 0.09999999999999432,
                "tempo": 120.0
            },
            {
                "start_time": 74.54318181818182,
                "end_time": 74.64318181818182,
                "pitch": 56,
                "velocity": 64,
                "duration": 0.09999999999999432,
                "tempo": 120.0
            },
            {
                "start_time": 74.6590909090909,
                "end_time": 74.77499999999999,
                "pitch": 56,
                "velocity": 64,
                "duration": 0.11590909090908497,
                "tempo": 120.0
            },
            {
                "start_time": 74.9090909090909,
                "end_time": 75.02499999999999,
                "pitch": 56,
                "velocity": 64,
                "duration": 0.11590909090908497,
                "tempo": 120.0
            },
            {
                "start_time": 75.04318181818182,
                "end_time": 75.14318181818182,
                "pitch": 56,
                "velocity": 64,
                "duration": 0.09999999999999432,
                "tempo": 120.0
            },
            {
                "start_time": 75.29318181818182,
                "end_time": 75.39318181818182,
                "pitch": 56,
                "velocity": 64,
                "duration": 0.09999999999999432,
                "tempo": 120.0
            },
            {
                "start_time": 75.4090909090909,
                "end_time": 75.52499999999999,
                "pitch": 56,
                "velocity": 64,
                "duration": 0.11590909090908497,
                "tempo": 120.0
            },
            {
                "start_time": 75.6590909090909,
                "end_time": 75.77499999999999,
                "pitch": 56,
                "velocity": 64,
                "duration": 0.11590909090908497,
                "tempo": 120.0
            },
            {
                "start_time": 76.1590909090909,
                "end_time": 76.27499999999999,
                "pitch": 56,
                "velocity": 64,
                "duration": 0.11590909090908497,
                "tempo": 120.0
            },
            {
                "start_time": 76.29318181818182,
                "end_time": 76.39318181818182,
                "pitch": 56,
                "velocity": 64,
                "duration": 0.09999999999999432,
                "tempo": 120.0
            },
            {
                "start_time": 76.54318181818182,
                "end_time": 76.64318181818182,
                "pitch": 56,
                "velocity": 64,
                "duration": 0.09999999999999432,
                "tempo": 120.0
            },
            {
                "start_time": 76.6590909090909,
                "end_time": 76.77499999999999,
                "pitch": 56,
                "velocity": 64,
                "duration": 0.11590909090908497,
                "tempo": 120.0
            },
            {
                "start_time": 76.9090909090909,
                "end_time": 77.02499999999999,
                "pitch": 56,
                "velocity": 64,
                "duration": 0.11590909090908497,
                "tempo": 120.0
            },
            {
                "start_time": 77.04318181818182,
                "end_time": 77.14318181818182,
                "pitch": 56,
                "velocity": 64,
                "duration": 0.09999999999999432,
                "tempo": 120.0
            },
            {
                "start_time": 77.29318181818181,
                "end_time": 77.39318181818182,
                "pitch": 56,
                "velocity": 64,
                "duration": 0.10000000000000853,
                "tempo": 120.0
            },
            {
                "start_time": 77.4090909090909,
                "end_time": 77.52499999999999,
                "pitch": 56,
                "velocity": 64,
                "duration": 0.11590909090908497,
                "tempo": 120.0
            },
            {
                "start_time": 77.6590909090909,
                "end_time": 77.77499999999999,
                "pitch": 56,
                "velocity": 64,
                "duration": 0.11590909090908497,
                "tempo": 120.0
            },
            {
                "start_time": 78.16590909090908,
                "end_time": 78.2840909090909,
                "pitch": 61,
                "velocity": 64,
                "duration": 0.11818181818182438,
                "tempo": 120.0
            },
            {
                "start_time": 78.30227272727272,
                "end_time": 78.40454545454546,
                "pitch": 58,
                "velocity": 64,
                "duration": 0.10227272727273373,
                "tempo": 120.0
            },
            {
                "start_time": 78.55227272727272,
                "end_time": 78.64999999999999,
                "pitch": 61,
                "velocity": 64,
                "duration": 0.09772727272726911,
                "tempo": 120.0
            },
            {
                "start_time": 78.66818181818181,
                "end_time": 78.78181818181818,
                "pitch": 58,
                "velocity": 64,
                "duration": 0.11363636363637397,
                "tempo": 120.0
            },
            {
                "start_time": 78.91363636363636,
                "end_time": 79.89545454545454,
                "pitch": 56,
                "velocity": 64,
                "duration": 0.9818181818181841,
                "tempo": 120.0
            },
            {
                "start_time": 79.91363636363636,
                "end_time": 81.89545454545454,
                "pitch": 58,
                "velocity": 64,
                "duration": 1.9818181818181841,
                "tempo": 120.0
            },
            {
                "start_time": 81.91363636363636,
                "end_time": 83.89545454545454,
                "pitch": 56,
                "velocity": 64,
                "duration": 1.9818181818181841,
                "tempo": 120.0
            },
            {
                "start_time": 83.91363636363636,
                "end_time": 85.89545454545454,
                "pitch": 54,
                "velocity": 64,
                "duration": 1.9818181818181841,
                "tempo": 120.0
            },
            {
                "start_time": 85.91363636363636,
                "end_time": 87.89999999999999,
                "pitch": 56,
                "velocity": 64,
                "duration": 1.9863636363636346,
                "tempo": 120.0
            },
            {
                "start_time": 87.91818181818181,
                "end_time": 89.90454545454546,
                "pitch": 58,
                "velocity": 64,
                "duration": 1.9863636363636488,
                "tempo": 120.0
            },
            {
                "start_time": 89.92272727272727,
                "end_time": 91.90454545454546,
                "pitch": 56,
                "velocity": 64,
                "duration": 1.9818181818181841,
                "tempo": 120.0
            },
            {
                "start_time": 91.92272727272727,
                "end_time": 93.9090909090909,
                "pitch": 54,
                "velocity": 64,
                "duration": 1.9863636363636346,
                "tempo": 120.0
            },
            {
                "start_time": 93.92727272727272,
                "end_time": 94.29318181818181,
                "pitch": 56,
                "velocity": 64,
                "duration": 0.36590909090908497,
                "tempo": 120.0
            },
            {
                "start_time": 94.3090909090909,
                "end_time": 94.4090909090909,
                "pitch": 56,
                "velocity": 64,
                "duration": 0.10000000000000853,
                "tempo": 120.0
            },
            {
                "start_time": 94.42727272727272,
                "end_time": 94.79318181818181,
                "pitch": 56,
                "velocity": 64,
                "duration": 0.36590909090908497,
                "tempo": 120.0
            },
            {
                "start_time": 94.8090909090909,
                "end_time": 94.9090909090909,
                "pitch": 53,
                "velocity": 64,
                "duration": 0.10000000000000853,
                "tempo": 120.0
            },
            {
                "start_time": 94.92727272727272,
                "end_time": 95.29318181818181,
                "pitch": 53,
                "velocity": 64,
                "duration": 0.36590909090908497,
                "tempo": 120.0
            },
            {
                "start_time": 95.3090909090909,
                "end_time": 95.4090909090909,
                "pitch": 49,
                "velocity": 64,
                "duration": 0.10000000000000853,
                "tempo": 120.0
            },
            {
                "start_time": 95.42727272727272,
                "end_time": 95.79318181818181,
                "pitch": 49,
                "velocity": 64,
                "duration": 0.36590909090908497,
                "tempo": 120.0
            },
            {
                "start_time": 95.8090909090909,
                "end_time": 95.9090909090909,
                "pitch": 44,
                "velocity": 64,
                "duration": 0.10000000000000853,
                "tempo": 120.0
            }
        ],
        "French Horn": [
            {
                "start_time": 0.0,
                "end_time": 1.884090909090909,
                "pitch": 65,
                "velocity": 51,
                "duration": 1.884090909090909,
                "tempo": 120.0
            },
            {
                "start_time": 1.9,
                "end_time": 3.884090909090909,
                "pitch": 75,
                "velocity": 51,
                "duration": 1.984090909090909,
                "tempo": 120.0
            },
            {
                "start_time": 3.9,
                "end_time": 5.884090909090909,
                "pitch": 73,
                "velocity": 51,
                "duration": 1.984090909090909,
                "tempo": 120.0
            },
            {
                "start_time": 7.8999999999999995,
                "end_time": 9.884090909090908,
                "pitch": 58,
                "velocity": 51,
                "duration": 1.9840909090909085,
                "tempo": 120.0
            },
            {
                "start_time": 9.9,
                "end_time": 11.884090909090908,
                "pitch": 56,
                "velocity": 51,
                "duration": 1.9840909090909076,
                "tempo": 120.0
            },
            {
                "start_time": 11.899999999999999,
                "end_time": 13.884090909090908,
                "pitch": 58,
                "velocity": 51,
                "duration": 1.9840909090909093,
                "tempo": 120.0
            },
            {
                "start_time": 15.899999999999999,
                "end_time": 17.884090909090908,
                "pitch": 65,
                "velocity": 51,
                "duration": 1.9840909090909093,
                "tempo": 120.0
            },
            {
                "start_time": 17.9,
                "end_time": 19.884090909090908,
                "pitch": 75,
                "velocity": 51,
                "duration": 1.9840909090909093,
                "tempo": 120.0
            },
            {
                "start_time": 19.9,
                "end_time": 21.884090909090908,
                "pitch": 73,
                "velocity": 51,
                "duration": 1.9840909090909093,
                "tempo": 120.0
            },
            {
                "start_time": 23.9,
                "end_time": 25.884090909090908,
                "pitch": 58,
                "velocity": 51,
                "duration": 1.9840909090909093,
                "tempo": 120.0
            },
            {
                "start_time": 25.9,
                "end_time": 27.884090909090908,
                "pitch": 56,
                "velocity": 51,
                "duration": 1.9840909090909093,
                "tempo": 120.0
            },
            {
                "start_time": 27.9,
                "end_time": 28.884090909090908,
                "pitch": 65,
                "velocity": 51,
                "duration": 0.9840909090909093,
                "tempo": 120.0
            },
            {
                "start_time": 28.9,
                "end_time": 29.634090909090908,
                "pitch": 63,
                "velocity": 51,
                "duration": 0.7340909090909093,
                "tempo": 120.0
            },
            {
                "start_time": 29.65,
                "end_time": 29.884090909090908,
                "pitch": 65,
                "velocity": 51,
                "duration": 0.23409090909090935,
                "tempo": 120.0
            },
            {
                "start_time": 29.9,
                "end_time": 31.888636363636362,
                "pitch": 65,
                "velocity": 51,
                "duration": 1.9886363636363633,
                "tempo": 120.0
            },
            {
                "start_time": 31.904545454545453,
                "end_time": 33.888636363636365,
                "pitch": 63,
                "velocity": 51,
                "duration": 1.984090909090913,
                "tempo": 120.0
            },
            {
                "start_time": 33.904545454545456,
                "end_time": 35.888636363636365,
                "pitch": 62,
                "velocity": 51,
                "duration": 1.9840909090909093,
                "tempo": 120.0
            },
            {
                "start_time": 35.904545454545456,
                "end_time": 37.88863636363636,
                "pitch": 63,
                "velocity": 51,
                "duration": 1.9840909090909022,
                "tempo": 120.0
            },
            {
                "start_time": 39.904545454545456,
                "end_time": 41.88863636363636,
                "pitch": 63,
                "velocity": 51,
                "duration": 1.9840909090909022,
                "tempo": 120.0
            },
            {
                "start_time": 41.90454545454545,
                "end_time": 43.88863636363636,
                "pitch": 63,
                "velocity": 51,
                "duration": 1.9840909090909093,
                "tempo": 120.0
            },
            {
                "start_time": 43.90454545454545,
                "end_time": 45.88863636363636,
                "pitch": 61,
                "velocity": 51,
                "duration": 1.9840909090909093,
                "tempo": 120.0
            },
            {
                "start_time": 47.90909090909091,
                "end_time": 49.893181818181816,
                "pitch": 65,
                "velocity": 51,
                "duration": 1.9840909090909093,
                "tempo": 120.0
            },
            {
                "start_time": 49.90909090909091,
                "end_time": 51.893181818181816,
                "pitch": 75,
                "velocity": 51,
                "duration": 1.9840909090909093,
                "tempo": 120.0
            },
            {
                "start_time": 51.90909090909091,
                "end_time": 53.893181818181816,
                "pitch": 73,
                "velocity": 51,
                "duration": 1.9840909090909093,
                "tempo": 120.0
            },
            {
                "start_time": 55.90909090909091,
                "end_time": 57.893181818181816,
                "pitch": 58,
                "velocity": 51,
                "duration": 1.9840909090909093,
                "tempo": 120.0
            },
            {
                "start_time": 57.90909090909091,
                "end_time": 59.893181818181816,
                "pitch": 56,
                "velocity": 51,
                "duration": 1.9840909090909093,
                "tempo": 120.0
            },
            {
                "start_time": 59.90909090909091,
                "end_time": 61.893181818181816,
                "pitch": 58,
                "velocity": 51,
                "duration": 1.9840909090909093,
                "tempo": 120.0
            },
            {
                "start_time": 63.90909090909091,
                "end_time": 65.89318181818182,
                "pitch": 65,
                "velocity": 51,
                "duration": 1.9840909090909093,
                "tempo": 120.0
            },
            {
                "start_time": 65.9090909090909,
                "end_time": 67.89318181818182,
                "pitch": 75,
                "velocity": 51,
                "duration": 1.9840909090909093,
                "tempo": 120.0
            },
            {
                "start_time": 67.9090909090909,
                "end_time": 69.89318181818182,
                "pitch": 73,
                "velocity": 51,
                "duration": 1.9840909090909093,
                "tempo": 120.0
            },
            {
                "start_time": 71.9090909090909,
                "end_time": 73.89318181818182,
                "pitch": 58,
                "velocity": 51,
                "duration": 1.9840909090909093,
                "tempo": 120.0
            },
            {
                "start_time": 73.9090909090909,
                "end_time": 75.89318181818182,
                "pitch": 56,
                "velocity": 51,
                "duration": 1.9840909090909093,
                "tempo": 120.0
            },
            {
                "start_time": 75.9090909090909,
                "end_time": 76.89318181818182,
                "pitch": 65,
                "velocity": 51,
                "duration": 0.9840909090909093,
                "tempo": 120.0
            },
            {
                "start_time": 76.9090909090909,
                "end_time": 77.64318181818182,
                "pitch": 63,
                "velocity": 51,
                "duration": 0.7340909090909093,
                "tempo": 120.0
            },
            {
                "start_time": 77.6590909090909,
                "end_time": 77.89318181818182,
                "pitch": 65,
                "velocity": 51,
                "duration": 0.23409090909090935,
                "tempo": 120.0
            },
            {
                "start_time": 77.9090909090909,
                "end_time": 79.89545454545454,
                "pitch": 65,
                "velocity": 51,
                "duration": 1.9863636363636346,
                "tempo": 120.0
            },
            {
                "start_time": 79.91363636363636,
                "end_time": 81.89545454545454,
                "pitch": 61,
                "velocity": 51,
                "duration": 1.9818181818181841,
                "tempo": 120.0
            },
            {
                "start_time": 81.91363636363636,
                "end_time": 83.89545454545454,
                "pitch": 60,
                "velocity": 51,
                "duration": 1.9818181818181841,
                "tempo": 120.0
            },
            {
                "start_time": 83.91363636363636,
                "end_time": 85.89545454545454,
                "pitch": 58,
                "velocity": 51,
                "duration": 1.9818181818181841,
                "tempo": 120.0
            },
            {
                "start_time": 85.91363636363636,
                "end_time": 87.89999999999999,
                "pitch": 60,
                "velocity": 51,
                "duration": 1.9863636363636346,
                "tempo": 120.0
            },
            {
                "start_time": 87.91818181818181,
                "end_time": 89.90454545454546,
                "pitch": 61,
                "velocity": 51,
                "duration": 1.9863636363636488,
                "tempo": 120.0
            },
            {
                "start_time": 89.92272727272727,
                "end_time": 91.90454545454546,
                "pitch": 60,
                "velocity": 51,
                "duration": 1.9818181818181841,
                "tempo": 120.0
            },
            {
                "start_time": 91.92272727272727,
                "end_time": 93.9090909090909,
                "pitch": 58,
                "velocity": 51,
                "duration": 1.9863636363636346,
                "tempo": 120.0
            },
            {
                "start_time": 93.92727272727272,
                "end_time": 94.29318181818181,
                "pitch": 68,
                "velocity": 51,
                "duration": 0.36590909090908497,
                "tempo": 120.0
            },
            {
                "start_time": 94.3090909090909,
                "end_time": 94.4090909090909,
                "pitch": 68,
                "velocity": 51,
                "duration": 0.10000000000000853,
                "tempo": 120.0
            },
            {
                "start_time": 94.42727272727272,
                "end_time": 94.79318181818181,
                "pitch": 68,
                "velocity": 51,
                "duration": 0.36590909090908497,
                "tempo": 120.0
            },
            {
                "start_time": 94.8090909090909,
                "end_time": 94.9090909090909,
                "pitch": 65,
                "velocity": 51,
                "duration": 0.10000000000000853,
                "tempo": 120.0
            },
            {
                "start_time": 94.92727272727272,
                "end_time": 95.29318181818181,
                "pitch": 65,
                "velocity": 51,
                "duration": 0.36590909090908497,
                "tempo": 120.0
            },
            {
                "start_time": 95.3090909090909,
                "end_time": 95.4090909090909,
                "pitch": 61,
                "velocity": 51,
                "duration": 0.10000000000000853,
                "tempo": 120.0
            },
            {
                "start_time": 95.42727272727272,
                "end_time": 95.79318181818181,
                "pitch": 61,
                "velocity": 51,
                "duration": 0.36590909090908497,
                "tempo": 120.0
            },
            {
                "start_time": 95.8090909090909,
                "end_time": 95.9090909090909,
                "pitch": 56,
                "velocity": 51,
                "duration": 0.10000000000000853,
                "tempo": 120.0
            }
        ],
        "Acoustic Grand Piano": [
            {
                "start_time": 6.284090909090909,
                "end_time": 6.384090909090909,
                "pitch": 80,
                "velocity": 51,
                "duration": 0.09999999999999964,
                "tempo": 120.0
            },
            {
                "start_time": 6.3999999999999995,
                "end_time": 6.765909090909091,
                "pitch": 80,
                "velocity": 51,
                "duration": 0.3659090909090912,
                "tempo": 120.0
            },
            {
                "start_time": 6.784090909090909,
                "end_time": 6.884090909090909,
                "pitch": 75,
                "velocity": 51,
                "duration": 0.09999999999999964,
                "tempo": 120.0
            },
            {
                "start_time": 6.8999999999999995,
                "end_time": 7.265909090909091,
                "pitch": 75,
                "velocity": 51,
                "duration": 0.3659090909090912,
                "tempo": 120.0
            },
            {
                "start_time": 7.284090909090909,
                "end_time": 7.384090909090909,
                "pitch": 72,
                "velocity": 51,
                "duration": 0.09999999999999964,
                "tempo": 120.0
            },
            {
                "start_time": 7.3999999999999995,
                "end_time": 7.634090909090909,
                "pitch": 72,
                "velocity": 51,
                "duration": 0.23409090909090935,
                "tempo": 120.0
            },
            {
                "start_time": 7.6499999999999995,
                "end_time": 7.884090909090909,
                "pitch": 68,
                "velocity": 51,
                "duration": 0.23409090909090935,
                "tempo": 120.0
            },
            {
                "start_time": 14.284090909090908,
                "end_time": 14.384090909090908,
                "pitch": 84,
                "velocity": 51,
                "duration": 0.09999999999999964,
                "tempo": 120.0
            },
            {
                "start_time": 14.399999999999999,
                "end_time": 14.76590909090909,
                "pitch": 84,
                "velocity": 51,
                "duration": 0.36590909090909207,
                "tempo": 120.0
            },
            {
                "start_time": 14.784090909090908,
                "end_time": 14.884090909090908,
                "pitch": 80,
                "velocity": 51,
                "duration": 0.09999999999999964,
                "tempo": 120.0
            },
            {
                "start_time": 14.899999999999999,
                "end_time": 15.26590909090909,
                "pitch": 80,
                "velocity": 51,
                "duration": 0.36590909090909207,
                "tempo": 120.0
            },
            {
                "start_time": 15.284090909090908,
                "end_time": 15.384090909090908,
                "pitch": 75,
                "velocity": 51,
                "duration": 0.09999999999999964,
                "tempo": 120.0
            },
            {
                "start_time": 15.399999999999999,
                "end_time": 15.634090909090908,
                "pitch": 75,
                "velocity": 51,
                "duration": 0.23409090909090935,
                "tempo": 120.0
            },
            {
                "start_time": 15.649999999999999,
                "end_time": 15.884090909090908,
                "pitch": 72,
                "velocity": 51,
                "duration": 0.23409090909090935,
                "tempo": 120.0
            },
            {
                "start_time": 22.284090909090907,
                "end_time": 22.384090909090908,
                "pitch": 80,
                "velocity": 51,
                "duration": 0.10000000000000142,
                "tempo": 120.0
            },
            {
                "start_time": 22.4,
                "end_time": 22.76590909090909,
                "pitch": 80,
                "velocity": 51,
                "duration": 0.36590909090909207,
                "tempo": 120.0
            },
            {
                "start_time": 22.784090909090907,
                "end_time": 22.884090909090908,
                "pitch": 75,
                "velocity": 51,
                "duration": 0.10000000000000142,
                "tempo": 120.0
            },
            {
                "start_time": 22.9,
                "end_time": 23.26590909090909,
                "pitch": 75,
                "velocity": 51,
                "duration": 0.36590909090909207,
                "tempo": 120.0
            },
            {
                "start_time": 23.284090909090907,
                "end_time": 23.384090909090908,
                "pitch": 72,
                "velocity": 51,
                "duration": 0.10000000000000142,
                "tempo": 120.0
            },
            {
                "start_time": 23.4,
                "end_time": 23.634090909090908,
                "pitch": 72,
                "velocity": 51,
                "duration": 0.23409090909090935,
                "tempo": 120.0
            },
            {
                "start_time": 23.65,
                "end_time": 23.884090909090908,
                "pitch": 68,
                "velocity": 51,
                "duration": 0.23409090909090935,
                "tempo": 120.0
            },
            {
                "start_time": 38.288636363636364,
                "end_time": 38.38863636363636,
                "pitch": 78,
                "velocity": 51,
                "duration": 0.09999999999999432,
                "tempo": 120.0
            },
            {
                "start_time": 38.404545454545456,
                "end_time": 38.77045454545454,
                "pitch": 78,
                "velocity": 51,
                "duration": 0.36590909090908497,
                "tempo": 120.0
            },
            {
                "start_time": 38.788636363636364,
                "end_time": 38.88863636363636,
                "pitch": 75,
                "velocity": 51,
                "duration": 0.09999999999999432,
                "tempo": 120.0
            },
            {
                "start_time": 38.904545454545456,
                "end_time": 39.27045454545454,
                "pitch": 75,
                "velocity": 51,
                "duration": 0.36590909090908497,
                "tempo": 120.0
            },
            {
                "start_time": 39.288636363636364,
                "end_time": 39.38863636363636,
                "pitch": 70,
                "velocity": 51,
                "duration": 0.09999999999999432,
                "tempo": 120.0
            },
            {
                "start_time": 39.404545454545456,
                "end_time": 39.63863636363636,
                "pitch": 70,
                "velocity": 51,
                "duration": 0.23409090909090224,
                "tempo": 120.0
            },
            {
                "start_time": 39.654545454545456,
                "end_time": 39.88863636363636,
                "pitch": 66,
                "velocity": 51,
                "duration": 0.23409090909090224,
                "tempo": 120.0
            },
            {
                "start_time": 46.29772727272727,
                "end_time": 46.4,
                "pitch": 77,
                "velocity": 51,
                "duration": 0.10227272727272663,
                "tempo": 120.0
            },
            {
                "start_time": 46.41590909090909,
                "end_time": 46.777272727272724,
                "pitch": 77,
                "velocity": 51,
                "duration": 0.36136363636363455,
                "tempo": 120.0
            },
            {
                "start_time": 46.793181818181814,
                "end_time": 46.893181818181816,
                "pitch": 73,
                "velocity": 51,
                "duration": 0.10000000000000142,
                "tempo": 120.0
            },
            {
                "start_time": 46.90909090909091,
                "end_time": 47.275,
                "pitch": 73,
                "velocity": 51,
                "duration": 0.36590909090909207,
                "tempo": 120.0
            },
            {
                "start_time": 47.293181818181814,
                "end_time": 47.393181818181816,
                "pitch": 68,
                "velocity": 51,
                "duration": 0.10000000000000142,
                "tempo": 120.0
            },
            {
                "start_time": 47.40909090909091,
                "end_time": 47.643181818181816,
                "pitch": 68,
                "velocity": 51,
                "duration": 0.23409090909090935,
                "tempo": 120.0
            },
            {
                "start_time": 47.65909090909091,
                "end_time": 47.893181818181816,
                "pitch": 65,
                "velocity": 51,
                "duration": 0.23409090909090935,
                "tempo": 120.0
            },
            {
                "start_time": 54.293181818181814,
                "end_time": 54.393181818181816,
                "pitch": 80,
                "velocity": 51,
                "duration": 0.10000000000000142,
                "tempo": 120.0
            },
            {
                "start_time": 54.40909090909091,
                "end_time": 54.775,
                "pitch": 80,
                "velocity": 51,
                "duration": 0.36590909090909207,
                "tempo": 120.0
            },
            {
                "start_time": 54.793181818181814,
                "end_time": 54.893181818181816,
                "pitch": 75,
                "velocity": 51,
                "duration": 0.10000000000000142,
                "tempo": 120.0
            },
            {
                "start_time": 54.90909090909091,
                "end_time": 55.275,
                "pitch": 75,
                "velocity": 51,
                "duration": 0.36590909090909207,
                "tempo": 120.0
            },
            {
                "start_time": 55.293181818181814,
                "end_time": 55.393181818181816,
                "pitch": 72,
                "velocity": 51,
                "duration": 0.10000000000000142,
                "tempo": 120.0
            },
            {
                "start_time": 55.40909090909091,
                "end_time": 55.643181818181816,
                "pitch": 72,
                "velocity": 51,
                "duration": 0.23409090909090935,
                "tempo": 120.0
            },
            {
                "start_time": 55.65909090909091,
                "end_time": 55.893181818181816,
                "pitch": 68,
                "velocity": 51,
                "duration": 0.23409090909090935,
                "tempo": 120.0
            },
            {
                "start_time": 62.293181818181814,
                "end_time": 62.393181818181816,
                "pitch": 84,
                "velocity": 51,
                "duration": 0.10000000000000142,
                "tempo": 120.0
            },
            {
                "start_time": 62.40909090909091,
                "end_time": 62.775,
                "pitch": 84,
                "velocity": 51,
                "duration": 0.36590909090909207,
                "tempo": 120.0
            },
            {
                "start_time": 62.793181818181814,
                "end_time": 62.893181818181816,
                "pitch": 80,
                "velocity": 51,
                "duration": 0.10000000000000142,
                "tempo": 120.0
            },
            {
                "start_time": 62.90909090909091,
                "end_time": 63.275,
                "pitch": 80,
                "velocity": 51,
                "duration": 0.36590909090909207,
                "tempo": 120.0
            },
            {
                "start_time": 63.293181818181814,
                "end_time": 63.393181818181816,
                "pitch": 75,
                "velocity": 51,
                "duration": 0.10000000000000142,
                "tempo": 120.0
            },
            {
                "start_time": 63.40909090909091,
                "end_time": 63.643181818181816,
                "pitch": 75,
                "velocity": 51,
                "duration": 0.23409090909090935,
                "tempo": 120.0
            },
            {
                "start_time": 63.65909090909091,
                "end_time": 63.893181818181816,
                "pitch": 72,
                "velocity": 51,
                "duration": 0.23409090909090935,
                "tempo": 120.0
            },
            {
                "start_time": 70.29318181818182,
                "end_time": 70.39318181818182,
                "pitch": 80,
                "velocity": 51,
                "duration": 0.09999999999999432,
                "tempo": 120.0
            },
            {
                "start_time": 70.4090909090909,
                "end_time": 70.77499999999999,
                "pitch": 80,
                "velocity": 51,
                "duration": 0.36590909090908497,
                "tempo": 120.0
            },
            {
                "start_time": 70.79318181818182,
                "end_time": 70.89318181818182,
                "pitch": 75,
                "velocity": 51,
                "duration": 0.09999999999999432,
                "tempo": 120.0
            },
            {
                "start_time": 70.9090909090909,
                "end_time": 71.27499999999999,
                "pitch": 75,
                "velocity": 51,
                "duration": 0.36590909090908497,
                "tempo": 120.0
            },
            {
                "start_time": 71.29318181818182,
                "end_time": 71.39318181818182,
                "pitch": 72,
                "velocity": 51,
                "duration": 0.09999999999999432,
                "tempo": 120.0
            },
            {
                "start_time": 71.4090909090909,
                "end_time": 71.64318181818182,
                "pitch": 72,
                "velocity": 51,
                "duration": 0.23409090909090935,
                "tempo": 120.0
            },
            {
                "start_time": 71.6590909090909,
                "end_time": 71.89318181818182,
                "pitch": 68,
                "velocity": 51,
                "duration": 0.23409090909090935,
                "tempo": 120.0
            },
            {
                "start_time": 95.92727272727272,
                "end_time": 96.29318181818181,
                "pitch": 58,
                "velocity": 51,
                "duration": 0.36590909090908497,
                "tempo": 120.0
            },
            {
                "start_time": 96.3090909090909,
                "end_time": 96.6590909090909,
                "pitch": 58,
                "velocity": 51,
                "duration": 0.3500000000000085,
                "tempo": 120.0
            },
            {
                "start_time": 96.67727272727272,
                "end_time": 96.9090909090909,
                "pitch": 58,
                "velocity": 51,
                "duration": 0.23181818181818414,
                "tempo": 120.0
            },
            {
                "start_time": 96.92727272727272,
                "end_time": 97.29318181818181,
                "pitch": 56,
                "velocity": 51,
                "duration": 0.36590909090908497,
                "tempo": 120.0
            },
            {
                "start_time": 97.3090909090909,
                "end_time": 97.6590909090909,
                "pitch": 56,
                "velocity": 51,
                "duration": 0.3500000000000085,
                "tempo": 120.0
            },
            {
                "start_time": 97.67727272727272,
                "end_time": 97.9090909090909,
                "pitch": 56,
                "velocity": 51,
                "duration": 0.23181818181818414,
                "tempo": 120.0
            },
            {
                "start_time": 97.92727272727272,
                "end_time": 98.29318181818181,
                "pitch": 58,
                "velocity": 51,
                "duration": 0.36590909090908497,
                "tempo": 120.0
            },
            {
                "start_time": 98.3090909090909,
                "end_time": 98.6590909090909,
                "pitch": 58,
                "velocity": 51,
                "duration": 0.3500000000000085,
                "tempo": 120.0
            },
            {
                "start_time": 98.67727272727272,
                "end_time": 98.9090909090909,
                "pitch": 58,
                "velocity": 51,
                "duration": 0.23181818181818414,
                "tempo": 120.0
            },
            {
                "start_time": 98.92727272727272,
                "end_time": 99.29318181818181,
                "pitch": 58,
                "velocity": 51,
                "duration": 0.36590909090908497,
                "tempo": 120.0
            },
            {
                "start_time": 99.3090909090909,
                "end_time": 99.6590909090909,
                "pitch": 58,
                "velocity": 51,
                "duration": 0.3500000000000085,
                "tempo": 120.0
            },
            {
                "start_time": 99.67727272727272,
                "end_time": 99.9090909090909,
                "pitch": 58,
                "velocity": 51,
                "duration": 0.23181818181818414,
                "tempo": 120.0
            },
            {
                "start_time": 99.92727272727272,
                "end_time": 100.29318181818181,
                "pitch": 59,
                "velocity": 51,
                "duration": 0.36590909090908497,
                "tempo": 120.0
            },
            {
                "start_time": 100.3090909090909,
                "end_time": 100.6590909090909,
                "pitch": 59,
                "velocity": 51,
                "duration": 0.3500000000000085,
                "tempo": 120.0
            },
            {
                "start_time": 100.67727272727272,
                "end_time": 100.9090909090909,
                "pitch": 59,
                "velocity": 51,
                "duration": 0.23181818181818414,
                "tempo": 120.0
            },
            {
                "start_time": 100.92727272727272,
                "end_time": 101.29318181818181,
                "pitch": 61,
                "velocity": 51,
                "duration": 0.36590909090908497,
                "tempo": 120.0
            },
            {
                "start_time": 101.3090909090909,
                "end_time": 101.6590909090909,
                "pitch": 61,
                "velocity": 51,
                "duration": 0.3500000000000085,
                "tempo": 120.0
            },
            {
                "start_time": 101.67727272727272,
                "end_time": 101.9090909090909,
                "pitch": 61,
                "velocity": 51,
                "duration": 0.23181818181818414,
                "tempo": 120.0
            },
            {
                "start_time": 101.92727272727272,
                "end_time": 102.29318181818181,
                "pitch": 63,
                "velocity": 51,
                "duration": 0.36590909090908497,
                "tempo": 120.0
            },
            {
                "start_time": 102.3090909090909,
                "end_time": 102.6590909090909,
                "pitch": 63,
                "velocity": 51,
                "duration": 0.3500000000000085,
                "tempo": 120.0
            },
            {
                "start_time": 102.67727272727272,
                "end_time": 102.9090909090909,
                "pitch": 63,
                "velocity": 51,
                "duration": 0.23181818181818414,
                "tempo": 120.0
            },
            {
                "start_time": 102.92727272727272,
                "end_time": 103.29318181818181,
                "pitch": 56,
                "velocity": 51,
                "duration": 0.36590909090908497,
                "tempo": 120.0
            },
            {
                "start_time": 103.3090909090909,
                "end_time": 103.6590909090909,
                "pitch": 56,
                "velocity": 51,
                "duration": 0.3500000000000085,
                "tempo": 120.0
            },
            {
                "start_time": 103.67727272727272,
                "end_time": 103.9090909090909,
                "pitch": 56,
                "velocity": 51,
                "duration": 0.23181818181818414,
                "tempo": 120.0
            },
            {
                "start_time": 103.92727272727272,
                "end_time": 104.29318181818181,
                "pitch": 58,
                "velocity": 51,
                "duration": 0.36590909090908497,
                "tempo": 120.0
            },
            {
                "start_time": 104.3090909090909,
                "end_time": 104.6590909090909,
                "pitch": 58,
                "velocity": 51,
                "duration": 0.3500000000000085,
                "tempo": 120.0
            },
            {
                "start_time": 104.67727272727272,
                "end_time": 104.9090909090909,
                "pitch": 58,
                "velocity": 51,
                "duration": 0.23181818181818414,
                "tempo": 120.0
            },
            {
                "start_time": 104.92727272727272,
                "end_time": 105.29318181818181,
                "pitch": 56,
                "velocity": 51,
                "duration": 0.36590909090908497,
                "tempo": 120.0
            },
            {
                "start_time": 105.3090909090909,
                "end_time": 105.6590909090909,
                "pitch": 56,
                "velocity": 51,
                "duration": 0.3500000000000085,
                "tempo": 120.0
            },
            {
                "start_time": 105.67727272727272,
                "end_time": 105.9090909090909,
                "pitch": 56,
                "velocity": 51,
                "duration": 0.23181818181818414,
                "tempo": 120.0
            },
            {
                "start_time": 105.92727272727272,
                "end_time": 106.29318181818181,
                "pitch": 58,
                "velocity": 51,
                "duration": 0.36590909090908497,
                "tempo": 120.0
            },
            {
                "start_time": 106.3090909090909,
                "end_time": 106.6590909090909,
                "pitch": 58,
                "velocity": 51,
                "duration": 0.3500000000000085,
                "tempo": 120.0
            },
            {
                "start_time": 106.67727272727272,
                "end_time": 106.9090909090909,
                "pitch": 58,
                "velocity": 51,
                "duration": 0.23181818181818414,
                "tempo": 120.0
            },
            {
                "start_time": 106.92727272727272,
                "end_time": 107.29318181818181,
                "pitch": 58,
                "velocity": 51,
                "duration": 0.36590909090908497,
                "tempo": 120.0
            },
            {
                "start_time": 107.3090909090909,
                "end_time": 107.6590909090909,
                "pitch": 58,
                "velocity": 51,
                "duration": 0.3500000000000085,
                "tempo": 120.0
            },
            {
                "start_time": 107.67727272727272,
                "end_time": 107.9090909090909,
                "pitch": 58,
                "velocity": 51,
                "duration": 0.23181818181818414,
                "tempo": 120.0
            },
            {
                "start_time": 107.92727272727272,
                "end_time": 108.29318181818181,
                "pitch": 59,
                "velocity": 51,
                "duration": 0.36590909090908497,
                "tempo": 120.0
            },
            {
                "start_time": 108.3090909090909,
                "end_time": 108.6590909090909,
                "pitch": 59,
                "velocity": 51,
                "duration": 0.3500000000000085,
                "tempo": 120.0
            },
            {
                "start_time": 108.67727272727272,
                "end_time": 108.9090909090909,
                "pitch": 59,
                "velocity": 51,
                "duration": 0.23181818181818414,
                "tempo": 120.0
            },
            {
                "start_time": 108.92727272727272,
                "end_time": 109.29318181818181,
                "pitch": 53,
                "velocity": 51,
                "duration": 0.36590909090908497,
                "tempo": 120.0
            },
            {
                "start_time": 109.3090909090909,
                "end_time": 109.6590909090909,
                "pitch": 53,
                "velocity": 51,
                "duration": 0.3500000000000085,
                "tempo": 120.0
            },
            {
                "start_time": 109.67727272727272,
                "end_time": 109.9090909090909,
                "pitch": 53,
                "velocity": 51,
                "duration": 0.23181818181818414,
                "tempo": 120.0
            },
            {
                "start_time": 109.92727272727272,
                "end_time": 110.29318181818181,
                "pitch": 58,
                "velocity": 51,
                "duration": 0.36590909090908497,
                "tempo": 120.0
            },
            {
                "start_time": 110.3090909090909,
                "end_time": 110.6590909090909,
                "pitch": 58,
                "velocity": 51,
                "duration": 0.3500000000000085,
                "tempo": 120.0
            },
            {
                "start_time": 110.67727272727272,
                "end_time": 110.9090909090909,
                "pitch": 58,
                "velocity": 51,
                "duration": 0.23181818181818414,
                "tempo": 120.0
            },
            {
                "start_time": 110.92727272727272,
                "end_time": 111.29318181818181,
                "pitch": 58,
                "velocity": 51,
                "duration": 0.36590909090908497,
                "tempo": 120.0
            },
            {
                "start_time": 111.3090909090909,
                "end_time": 111.6590909090909,
                "pitch": 58,
                "velocity": 51,
                "duration": 0.3500000000000085,
                "tempo": 120.0
            },
            {
                "start_time": 111.67727272727272,
                "end_time": 111.9090909090909,
                "pitch": 58,
                "velocity": 51,
                "duration": 0.23181818181818414,
                "tempo": 120.0
            },
            {
                "start_time": 111.92727272727272,
                "end_time": 112.29318181818181,
                "pitch": 58,
                "velocity": 51,
                "duration": 0.36590909090908497,
                "tempo": 120.0
            },
            {
                "start_time": 112.3090909090909,
                "end_time": 112.6590909090909,
                "pitch": 58,
                "velocity": 51,
                "duration": 0.3500000000000085,
                "tempo": 120.0
            },
            {
                "start_time": 112.67727272727272,
                "end_time": 112.9090909090909,
                "pitch": 58,
                "velocity": 51,
                "duration": 0.23181818181818414,
                "tempo": 120.0
            },
            {
                "start_time": 112.92727272727272,
                "end_time": 113.29318181818181,
                "pitch": 58,
                "velocity": 51,
                "duration": 0.36590909090908497,
                "tempo": 120.0
            },
            {
                "start_time": 113.3090909090909,
                "end_time": 113.6590909090909,
                "pitch": 58,
                "velocity": 51,
                "duration": 0.3500000000000085,
                "tempo": 120.0
            },
            {
                "start_time": 113.67727272727272,
                "end_time": 113.9090909090909,
                "pitch": 58,
                "velocity": 51,
                "duration": 0.23181818181818414,
                "tempo": 120.0
            },
            {
                "start_time": 113.92727272727272,
                "end_time": 114.29318181818181,
                "pitch": 58,
                "velocity": 51,
                "duration": 0.36590909090908497,
                "tempo": 120.0
            },
            {
                "start_time": 114.3090909090909,
                "end_time": 114.6590909090909,
                "pitch": 58,
                "velocity": 51,
                "duration": 0.3500000000000085,
                "tempo": 120.0
            },
            {
                "start_time": 114.67727272727272,
                "end_time": 114.9090909090909,
                "pitch": 58,
                "velocity": 51,
                "duration": 0.23181818181818414,
                "tempo": 120.0
            },
            {
                "start_time": 114.92727272727272,
                "end_time": 115.29318181818181,
                "pitch": 58,
                "velocity": 51,
                "duration": 0.36590909090908497,
                "tempo": 120.0
            },
            {
                "start_time": 115.3090909090909,
                "end_time": 115.6590909090909,
                "pitch": 58,
                "velocity": 51,
                "duration": 0.3500000000000085,
                "tempo": 120.0
            },
            {
                "start_time": 115.67727272727272,
                "end_time": 115.9090909090909,
                "pitch": 58,
                "velocity": 51,
                "duration": 0.23181818181818414,
                "tempo": 120.0
            },
            {
                "start_time": 115.92727272727272,
                "end_time": 116.29318181818181,
                "pitch": 58,
                "velocity": 51,
                "duration": 0.36590909090908497,
                "tempo": 120.0
            },
            {
                "start_time": 116.3090909090909,
                "end_time": 116.6590909090909,
                "pitch": 58,
                "velocity": 51,
                "duration": 0.3500000000000085,
                "tempo": 120.0
            },
            {
                "start_time": 116.67727272727272,
                "end_time": 116.9090909090909,
                "pitch": 58,
                "velocity": 51,
                "duration": 0.23181818181818414,
                "tempo": 120.0
            },
            {
                "start_time": 116.92727272727272,
                "end_time": 117.29318181818181,
                "pitch": 58,
                "velocity": 51,
                "duration": 0.36590909090908497,
                "tempo": 120.0
            },
            {
                "start_time": 117.3090909090909,
                "end_time": 117.6590909090909,
                "pitch": 58,
                "velocity": 51,
                "duration": 0.3500000000000085,
                "tempo": 120.0
            },
            {
                "start_time": 117.67727272727272,
                "end_time": 117.9090909090909,
                "pitch": 58,
                "velocity": 51,
                "duration": 0.23181818181818414,
                "tempo": 120.0
            },
            {
                "start_time": 117.92727272727272,
                "end_time": 118.29318181818181,
                "pitch": 56,
                "velocity": 51,
                "duration": 0.36590909090908497,
                "tempo": 120.0
            },
            {
                "start_time": 118.3090909090909,
                "end_time": 118.6590909090909,
                "pitch": 56,
                "velocity": 51,
                "duration": 0.3500000000000085,
                "tempo": 120.0
            },
            {
                "start_time": 118.67727272727272,
                "end_time": 118.9090909090909,
                "pitch": 56,
                "velocity": 51,
                "duration": 0.23181818181818414,
                "tempo": 120.0
            },
            {
                "start_time": 118.92727272727272,
                "end_time": 119.29318181818181,
                "pitch": 56,
                "velocity": 51,
                "duration": 0.36590909090908497,
                "tempo": 120.0
            },
            {
                "start_time": 119.3090909090909,
                "end_time": 119.6590909090909,
                "pitch": 56,
                "velocity": 51,
                "duration": 0.3500000000000085,
                "tempo": 120.0
            },
            {
                "start_time": 119.67727272727272,
                "end_time": 119.9090909090909,
                "pitch": 56,
                "velocity": 51,
                "duration": 0.23181818181818414,
                "tempo": 120.0
            },
            {
                "start_time": 119.92727272727272,
                "end_time": 120.29318181818181,
                "pitch": 54,
                "velocity": 51,
                "duration": 0.36590909090908497,
                "tempo": 120.0
            },
            {
                "start_time": 120.3090909090909,
                "end_time": 120.6590909090909,
                "pitch": 54,
                "velocity": 51,
                "duration": 0.3500000000000085,
                "tempo": 120.0
            },
            {
                "start_time": 120.67727272727272,
                "end_time": 120.9090909090909,
                "pitch": 54,
                "velocity": 51,
                "duration": 0.23181818181818414,
                "tempo": 120.0
            },
            {
                "start_time": 120.92727272727272,
                "end_time": 121.29318181818181,
                "pitch": 54,
                "velocity": 51,
                "duration": 0.36590909090908497,
                "tempo": 120.0
            },
            {
                "start_time": 121.3090909090909,
                "end_time": 121.6590909090909,
                "pitch": 54,
                "velocity": 51,
                "duration": 0.3500000000000085,
                "tempo": 120.0
            },
            {
                "start_time": 121.67727272727272,
                "end_time": 121.9090909090909,
                "pitch": 54,
                "velocity": 51,
                "duration": 0.23181818181818414,
                "tempo": 120.0
            },
            {
                "start_time": 121.92727272727272,
                "end_time": 122.29318181818181,
                "pitch": 54,
                "velocity": 51,
                "duration": 0.36590909090908497,
                "tempo": 120.0
            },
            {
                "start_time": 122.3090909090909,
                "end_time": 122.6590909090909,
                "pitch": 54,
                "velocity": 51,
                "duration": 0.3500000000000085,
                "tempo": 120.0
            },
            {
                "start_time": 122.67727272727272,
                "end_time": 122.9090909090909,
                "pitch": 54,
                "velocity": 51,
                "duration": 0.23181818181818414,
                "tempo": 120.0
            },
            {
                "start_time": 122.92727272727272,
                "end_time": 123.29318181818181,
                "pitch": 54,
                "velocity": 51,
                "duration": 0.36590909090908497,
                "tempo": 120.0
            },
            {
                "start_time": 123.3090909090909,
                "end_time": 123.6590909090909,
                "pitch": 54,
                "velocity": 51,
                "duration": 0.3500000000000085,
                "tempo": 120.0
            },
            {
                "start_time": 123.67727272727272,
                "end_time": 123.9090909090909,
                "pitch": 54,
                "velocity": 51,
                "duration": 0.23181818181818414,
                "tempo": 120.0
            },
            {
                "start_time": 123.92727272727272,
                "end_time": 124.29318181818181,
                "pitch": 53,
                "velocity": 51,
                "duration": 0.36590909090908497,
                "tempo": 120.0
            },
            {
                "start_time": 124.3090909090909,
                "end_time": 124.6590909090909,
                "pitch": 53,
                "velocity": 51,
                "duration": 0.3500000000000085,
                "tempo": 120.0
            },
            {
                "start_time": 124.67727272727272,
                "end_time": 124.9090909090909,
                "pitch": 53,
                "velocity": 51,
                "duration": 0.23181818181818414,
                "tempo": 120.0
            },
            {
                "start_time": 124.92727272727272,
                "end_time": 125.29318181818181,
                "pitch": 53,
                "velocity": 51,
                "duration": 0.36590909090908497,
                "tempo": 120.0
            },
            {
                "start_time": 125.3090909090909,
                "end_time": 125.6590909090909,
                "pitch": 53,
                "velocity": 51,
                "duration": 0.3500000000000085,
                "tempo": 120.0
            },
            {
                "start_time": 125.67727272727272,
                "end_time": 125.9090909090909,
                "pitch": 53,
                "velocity": 51,
                "duration": 0.23181818181818414,
                "tempo": 120.0
            }
        ],
        "Violin": [
            {
                "start_time": 95.92727272727272,
                "end_time": 96.9090909090909,
                "pitch": 78,
                "velocity": 64,
                "duration": 0.9818181818181841,
                "tempo": 120.0
            },
            {
                "start_time": 96.92727272727272,
                "end_time": 97.6590909090909,
                "pitch": 80,
                "velocity": 64,
                "duration": 0.7318181818181841,
                "tempo": 120.0
            },
            {
                "start_time": 97.67727272727272,
                "end_time": 97.9090909090909,
                "pitch": 85,
                "velocity": 64,
                "duration": 0.23181818181818414,
                "tempo": 120.0
            },
            {
                "start_time": 97.92727272727272,
                "end_time": 98.9090909090909,
                "pitch": 90,
                "velocity": 64,
                "duration": 0.9818181818181841,
                "tempo": 120.0
            },
            {
                "start_time": 98.92727272727272,
                "end_time": 99.9090909090909,
                "pitch": 78,
                "velocity": 64,
                "duration": 0.9818181818181841,
                "tempo": 120.0
            },
            {
                "start_time": 99.92727272727272,
                "end_time": 100.9090909090909,
                "pitch": 83,
                "velocity": 64,
                "duration": 0.9818181818181841,
                "tempo": 120.0
            },
            {
                "start_time": 100.92727272727272,
                "end_time": 101.6590909090909,
                "pitch": 82,
                "velocity": 64,
                "duration": 0.7318181818181841,
                "tempo": 120.0
            },
            {
                "start_time": 101.67727272727272,
                "end_time": 101.9090909090909,
                "pitch": 85,
                "velocity": 64,
                "duration": 0.23181818181818414,
                "tempo": 120.0
            },
            {
                "start_time": 101.92727272727272,
                "end_time": 103.6590909090909,
                "pitch": 83,
                "velocity": 64,
                "duration": 1.7318181818181841,
                "tempo": 120.0
            },
            {
                "start_time": 103.67727272727272,
                "end_time": 103.9090909090909,
                "pitch": 80,
                "velocity": 64,
                "duration": 0.23181818181818414,
                "tempo": 120.0
            },
            {
                "start_time": 103.92727272727272,
                "end_time": 105.4090909090909,
                "pitch": 82,
                "velocity": 64,
                "duration": 1.4818181818181841,
                "tempo": 120.0
            },
            {
                "start_time": 105.42727272727272,
                "end_time": 105.57727272727273,
                "pitch": 82,
                "velocity": 64,
                "duration": 0.15000000000000568,
                "tempo": 120.0
            },
            {
                "start_time": 105.59318181818182,
                "end_time": 105.74318181818181,
                "pitch": 83,
                "velocity": 64,
                "duration": 0.14999999999999147,
                "tempo": 120.0
            },
            {
                "start_time": 105.7590909090909,
                "end_time": 105.9090909090909,
                "pitch": 85,
                "velocity": 64,
                "duration": 0.15000000000000568,
                "tempo": 120.0
            },
            {
                "start_time": 105.92727272727272,
                "end_time": 106.9090909090909,
                "pitch": 90,
                "velocity": 64,
                "duration": 0.9818181818181841,
                "tempo": 120.0
            },
            {
                "start_time": 106.92727272727272,
                "end_time": 107.9090909090909,
                "pitch": 78,
                "velocity": 64,
                "duration": 0.9818181818181841,
                "tempo": 120.0
            },
            {
                "start_time": 107.92727272727272,
                "end_time": 108.9090909090909,
                "pitch": 83,
                "velocity": 64,
                "duration": 0.9818181818181841,
                "tempo": 120.0
            },
            {
                "start_time": 108.92727272727272,
                "end_time": 109.4090909090909,
                "pitch": 85,
                "velocity": 64,
                "duration": 0.48181818181818414,
                "tempo": 120.0
            },
            {
                "start_time": 109.42727272727272,
                "end_time": 109.9090909090909,
                "pitch": 83,
                "velocity": 64,
                "duration": 0.48181818181818414,
                "tempo": 120.0
            },
            {
                "start_time": 109.92727272727272,
                "end_time": 111.9090909090909,
                "pitch": 82,
                "velocity": 64,
                "duration": 1.9818181818181841,
                "tempo": 120.0
            },
            {
                "start_time": 111.92727272727272,
                "end_time": 112.9090909090909,
                "pitch": 82,
                "velocity": 64,
                "duration": 0.9818181818181841,
                "tempo": 120.0
            },
            {
                "start_time": 112.92727272727272,
                "end_time": 113.6590909090909,
                "pitch": 77,
                "velocity": 64,
                "duration": 0.7318181818181841,
                "tempo": 120.0
            },
            {
                "start_time": 113.67727272727272,
                "end_time": 113.9090909090909,
                "pitch": 78,
                "velocity": 64,
                "duration": 0.23181818181818414,
                "tempo": 120.0
            },
            {
                "start_time": 113.92727272727272,
                "end_time": 115.9090909090909,
                "pitch": 87,
                "velocity": 64,
                "duration": 1.9818181818181841,
                "tempo": 120.0
            },
            {
                "start_time": 115.92727272727272,
                "end_time": 116.9090909090909,
                "pitch": 92,
                "velocity": 64,
                "duration": 0.9818181818181841,
                "tempo": 120.0
            },
            {
                "start_time": 116.92727272727272,
                "end_time": 117.6590909090909,
                "pitch": 87,
                "velocity": 64,
                "duration": 0.7318181818181841,
                "tempo": 120.0
            },
            {
                "start_time": 117.67727272727272,
                "end_time": 117.9090909090909,
                "pitch": 90,
                "velocity": 64,
                "duration": 0.23181818181818414,
                "tempo": 120.0
            },
            {
                "start_time": 117.92727272727272,
                "end_time": 119.9090909090909,
                "pitch": 89,
                "velocity": 64,
                "duration": 1.9818181818181841,
                "tempo": 120.0
            },
            {
                "start_time": 119.92727272727272,
                "end_time": 120.6590909090909,
                "pitch": 82,
                "velocity": 64,
                "duration": 0.7318181818181841,
                "tempo": 120.0
            },
            {
                "start_time": 120.67727272727272,
                "end_time": 120.9090909090909,
                "pitch": 82,
                "velocity": 64,
                "duration": 0.23181818181818414,
                "tempo": 120.0
            },
            {
                "start_time": 120.92727272727272,
                "end_time": 121.6590909090909,
                "pitch": 82,
                "velocity": 64,
                "duration": 0.7318181818181841,
                "tempo": 120.0
            },
            {
                "start_time": 121.67727272727272,
                "end_time": 121.9090909090909,
                "pitch": 82,
                "velocity": 64,
                "duration": 0.23181818181818414,
                "tempo": 120.0
            },
            {
                "start_time": 121.92727272727272,
                "end_time": 122.6590909090909,
                "pitch": 82,
                "velocity": 64,
                "duration": 0.7318181818181841,
                "tempo": 120.0
            },
            {
                "start_time": 122.67727272727272,
                "end_time": 122.9090909090909,
                "pitch": 82,
                "velocity": 64,
                "duration": 0.23181818181818414,
                "tempo": 120.0
            },
            {
                "start_time": 122.92727272727272,
                "end_time": 123.9090909090909,
                "pitch": 90,
                "velocity": 64,
                "duration": 0.9818181818181841,
                "tempo": 120.0
            },
            {
                "start_time": 123.92727272727272,
                "end_time": 124.9090909090909,
                "pitch": 89,
                "velocity": 64,
                "duration": 0.9818181818181841,
                "tempo": 120.0
            },
            {
                "start_time": 124.92727272727272,
                "end_time": 125.9090909090909,
                "pitch": 85,
                "velocity": 64,
                "duration": 0.9818181818181841,
                "tempo": 120.0
            }
        ]
    }
}