{
    "track_id": "Phantasy Star (FM) - 13 - Village",
    "mood": "relaxed",
    "instruments": {
        "Trumpet": [
            {
                "start_time": 0.0,
                "end_time": 1.184090909090909,
                "pitch": 68,
                "velocity": 80,
                "duration": 1.184090909090909,
                "tempo": 120.0
            },
            {
                "start_time": 1.2,
                "end_time": 1.9863636363636363,
                "pitch": 67,
                "velocity": 80,
                "duration": 0.7863636363636364,
                "tempo": 120.0
            },
            {
                "start_time": 2.002272727272727,
                "end_time": 2.186363636363636,
                "pitch": 63,
                "velocity": 80,
                "duration": 0.18409090909090908,
                "tempo": 120.0
            },
            {
                "start_time": 2.202272727272727,
                "end_time": 2.3863636363636362,
                "pitch": 65,
                "velocity": 80,
                "duration": 0.18409090909090908,
                "tempo": 120.0
            },
            {
                "start_time": 2.4022727272727273,
                "end_time": 3.5886363636363634,
                "pitch": 67,
                "velocity": 80,
                "duration": 1.186363636363636,
                "tempo": 120.0
            },
            {
                "start_time": 3.6045454545454545,
                "end_time": 4.790909090909091,
                "pitch": 61,
                "velocity": 80,
                "duration": 1.1863636363636365,
                "tempo": 120.0
            },
            {
                "start_time": 4.809090909090909,
                "end_time": 5.593181818181818,
                "pitch": 63,
                "velocity": 80,
                "duration": 0.7840909090909092,
                "tempo": 120.0
            },
            {
                "start_time": 5.611363636363636,
                "end_time": 5.993181818181818,
                "pitch": 67,
                "velocity": 80,
                "duration": 0.38181818181818183,
                "tempo": 120.0
            },
            {
                "start_time": 6.011363636363636,
                "end_time": 6.8,
                "pitch": 65,
                "velocity": 80,
                "duration": 0.788636363636364,
                "tempo": 120.0
            },
            {
                "start_time": 6.8159090909090905,
                "end_time": 7.199999999999999,
                "pitch": 63,
                "velocity": 80,
                "duration": 0.3840909090909088,
                "tempo": 120.0
            },
            {
                "start_time": 7.215909090909091,
                "end_time": 8.002272727272727,
                "pitch": 60,
                "velocity": 80,
                "duration": 0.7863636363636362,
                "tempo": 120.0
            },
            {
                "start_time": 8.018181818181818,
                "end_time": 8.202272727272726,
                "pitch": 60,
                "velocity": 80,
                "duration": 0.18409090909090864,
                "tempo": 120.0
            },
            {
                "start_time": 8.220454545454546,
                "end_time": 8.404545454545454,
                "pitch": 61,
                "velocity": 80,
                "duration": 0.18409090909090864,
                "tempo": 120.0
            },
            {
                "start_time": 8.420454545454545,
                "end_time": 9.60909090909091,
                "pitch": 63,
                "velocity": 80,
                "duration": 1.1886363636363644,
                "tempo": 120.0
            },
            {
                "start_time": 9.627272727272727,
                "end_time": 10.818181818181818,
                "pitch": 68,
                "velocity": 80,
                "duration": 1.1909090909090914,
                "tempo": 120.0
            },
            {
                "start_time": 10.834090909090909,
                "end_time": 11.620454545454544,
                "pitch": 67,
                "velocity": 80,
                "duration": 0.7863636363636353,
                "tempo": 120.0
            },
            {
                "start_time": 11.638636363636364,
                "end_time": 11.822727272727272,
                "pitch": 63,
                "velocity": 80,
                "duration": 0.18409090909090864,
                "tempo": 120.0
            },
            {
                "start_time": 11.838636363636363,
                "end_time": 12.022727272727272,
                "pitch": 65,
                "velocity": 80,
                "duration": 0.18409090909090864,
                "tempo": 120.0
            },
            {
                "start_time": 12.040909090909091,
                "end_time": 12.829545454545453,
                "pitch": 67,
                "velocity": 80,
                "duration": 0.7886363636363622,
                "tempo": 120.0
            },
            {
                "start_time": 12.845454545454546,
                "end_time": 13.23181818181818,
                "pitch": 61,
                "velocity": 80,
                "duration": 0.3863636363636349,
                "tempo": 120.0
            },
            {
                "start_time": 13.247727272727271,
                "end_time": 14.436363636363636,
                "pitch": 61,
                "velocity": 80,
                "duration": 1.1886363636363644,
                "tempo": 120.0
            },
            {
                "start_time": 14.454545454545453,
                "end_time": 15.243181818181817,
                "pitch": 63,
                "velocity": 80,
                "duration": 0.788636363636364,
                "tempo": 120.0
            },
            {
                "start_time": 15.259090909090908,
                "end_time": 15.643181818181818,
                "pitch": 67,
                "velocity": 80,
                "duration": 0.3840909090909097,
                "tempo": 120.0
            },
            {
                "start_time": 15.659090909090908,
                "end_time": 16.44772727272727,
                "pitch": 70,
                "velocity": 80,
                "duration": 0.7886363636363622,
                "tempo": 120.0
            },
            {
                "start_time": 16.46363636363636,
                "end_time": 16.847727272727273,
                "pitch": 65,
                "velocity": 80,
                "duration": 0.3840909090909115,
                "tempo": 120.0
            },
            {
                "start_time": 16.863636363636363,
                "end_time": 18.052272727272726,
                "pitch": 68,
                "velocity": 80,
                "duration": 1.1886363636363626,
                "tempo": 120.0
            }
        ],
        "Harpsichord": [
            {
                "start_time": 0.0,
                "end_time": 1.684090909090909,
                "pitch": 72,
                "velocity": 80,
                "duration": 1.684090909090909,
                "tempo": 120.0
            },
            {
                "start_time": 4.004545454545454,
                "end_time": 4.388636363636364,
                "pitch": 70,
                "velocity": 80,
                "duration": 0.3840909090909097,
                "tempo": 120.0
            },
            {
                "start_time": 4.404545454545454,
                "end_time": 4.790909090909091,
                "pitch": 72,
                "velocity": 80,
                "duration": 0.3863636363636367,
                "tempo": 120.0
            },
            {
                "start_time": 4.809090909090909,
                "end_time": 6.8,
                "pitch": 73,
                "velocity": 80,
                "duration": 1.9909090909090912,
                "tempo": 120.0
            },
            {
                "start_time": 8.825,
                "end_time": 9.209090909090909,
                "pitch": 73,
                "velocity": 80,
                "duration": 0.3840909090909097,
                "tempo": 120.0
            },
            {
                "start_time": 9.227272727272727,
                "end_time": 9.60909090909091,
                "pitch": 72,
                "velocity": 80,
                "duration": 0.3818181818181827,
                "tempo": 120.0
            },
            {
                "start_time": 9.627272727272727,
                "end_time": 10.818181818181818,
                "pitch": 72,
                "velocity": 80,
                "duration": 1.1909090909090914,
                "tempo": 120.0
            },
            {
                "start_time": 10.834090909090909,
                "end_time": 12.022727272727272,
                "pitch": 70,
                "velocity": 80,
                "duration": 1.1886363636363626,
                "tempo": 120.0
            },
            {
                "start_time": 12.040909090909091,
                "end_time": 13.23181818181818,
                "pitch": 67,
                "velocity": 80,
                "duration": 1.1909090909090896,
                "tempo": 120.0
            },
            {
                "start_time": 13.247727272727271,
                "end_time": 14.436363636363636,
                "pitch": 68,
                "velocity": 80,
                "duration": 1.1886363636363644,
                "tempo": 120.0
            },
            {
                "start_time": 14.454545454545453,
                "end_time": 15.643181818181818,
                "pitch": 72,
                "velocity": 80,
                "duration": 1.1886363636363644,
                "tempo": 120.0
            },
            {
                "start_time": 15.659090909090908,
                "end_time": 16.847727272727273,
                "pitch": 73,
                "velocity": 80,
                "duration": 1.1886363636363644,
                "tempo": 120.0
            },
            {
                "start_time": 16.863636363636363,
                "end_time": 18.020454545454545,
                "pitch": 72,
                "velocity": 80,
                "duration": 1.1568181818181813,
                "tempo": 120.0
            }
        ],
        "Church Organ": [
            {
                "start_time": 0.0,
                "end_time": 0.3840909090909091,
                "pitch": 44,
                "velocity": 51,
                "duration": 0.3840909090909091,
                "tempo": 120.0
            },
            {
                "start_time": 0.39999999999999997,
                "end_time": 0.7840909090909091,
                "pitch": 44,
                "velocity": 51,
                "duration": 0.3840909090909091,
                "tempo": 120.0
            },
            {
                "start_time": 1.2,
                "end_time": 1.9863636363636363,
                "pitch": 44,
                "velocity": 51,
                "duration": 0.7863636363636364,
                "tempo": 120.0
            },
            {
                "start_time": 2.002272727272727,
                "end_time": 2.3863636363636362,
                "pitch": 39,
                "velocity": 51,
                "duration": 0.38409090909090926,
                "tempo": 120.0
            },
            {
                "start_time": 2.4022727272727273,
                "end_time": 2.786363636363636,
                "pitch": 37,
                "velocity": 51,
                "duration": 0.3840909090909088,
                "tempo": 120.0
            },
            {
                "start_time": 3.202272727272727,
                "end_time": 3.5886363636363634,
                "pitch": 37,
                "velocity": 51,
                "duration": 0.38636363636363624,
                "tempo": 120.0
            },
            {
                "start_time": 3.6045454545454545,
                "end_time": 3.9886363636363633,
                "pitch": 37,
                "velocity": 51,
                "duration": 0.3840909090909088,
                "tempo": 120.0
            },
            {
                "start_time": 4.809090909090909,
                "end_time": 5.1909090909090905,
                "pitch": 39,
                "velocity": 51,
                "duration": 0.38181818181818183,
                "tempo": 120.0
            },
            {
                "start_time": 5.209090909090909,
                "end_time": 5.593181818181818,
                "pitch": 39,
                "velocity": 51,
                "duration": 0.3840909090909088,
                "tempo": 120.0
            },
            {
                "start_time": 6.011363636363636,
                "end_time": 6.3977272727272725,
                "pitch": 39,
                "velocity": 51,
                "duration": 0.3863636363636367,
                "tempo": 120.0
            },
            {
                "start_time": 6.413636363636363,
                "end_time": 6.8,
                "pitch": 39,
                "velocity": 51,
                "duration": 0.3863636363636367,
                "tempo": 120.0
            },
            {
                "start_time": 7.215909090909091,
                "end_time": 7.602272727272727,
                "pitch": 36,
                "velocity": 51,
                "duration": 0.3863636363636358,
                "tempo": 120.0
            },
            {
                "start_time": 7.618181818181818,
                "end_time": 8.002272727272727,
                "pitch": 36,
                "velocity": 51,
                "duration": 0.3840909090909088,
                "tempo": 120.0
            },
            {
                "start_time": 8.420454545454545,
                "end_time": 8.806818181818182,
                "pitch": 39,
                "velocity": 51,
                "duration": 0.3863636363636367,
                "tempo": 120.0
            },
            {
                "start_time": 8.825,
                "end_time": 9.60909090909091,
                "pitch": 39,
                "velocity": 51,
                "duration": 0.7840909090909101,
                "tempo": 120.0
            },
            {
                "start_time": 9.627272727272727,
                "end_time": 10.013636363636364,
                "pitch": 44,
                "velocity": 51,
                "duration": 0.3863636363636367,
                "tempo": 120.0
            },
            {
                "start_time": 10.029545454545454,
                "end_time": 10.415909090909091,
                "pitch": 44,
                "velocity": 51,
                "duration": 0.3863636363636367,
                "tempo": 120.0
            },
            {
                "start_time": 10.834090909090909,
                "end_time": 11.620454545454544,
                "pitch": 44,
                "velocity": 51,
                "duration": 0.7863636363636353,
                "tempo": 120.0
            },
            {
                "start_time": 11.638636363636364,
                "end_time": 12.022727272727272,
                "pitch": 39,
                "velocity": 51,
                "duration": 0.38409090909090793,
                "tempo": 120.0
            },
            {
                "start_time": 12.040909090909091,
                "end_time": 12.427272727272726,
                "pitch": 37,
                "velocity": 51,
                "duration": 0.3863636363636349,
                "tempo": 120.0
            },
            {
                "start_time": 12.845454545454546,
                "end_time": 13.23181818181818,
                "pitch": 37,
                "velocity": 51,
                "duration": 0.3863636363636349,
                "tempo": 120.0
            },
            {
                "start_time": 13.247727272727271,
                "end_time": 13.631818181818181,
                "pitch": 37,
                "velocity": 51,
                "duration": 0.3840909090909097,
                "tempo": 120.0
            },
            {
                "start_time": 14.454545454545453,
                "end_time": 14.838636363636363,
                "pitch": 39,
                "velocity": 51,
                "duration": 0.3840909090909097,
                "tempo": 120.0
            },
            {
                "start_time": 14.85681818181818,
                "end_time": 15.243181818181817,
                "pitch": 39,
                "velocity": 51,
                "duration": 0.3863636363636367,
                "tempo": 120.0
            },
            {
                "start_time": 15.659090909090908,
                "end_time": 16.045454545454543,
                "pitch": 39,
                "velocity": 51,
                "duration": 0.3863636363636349,
                "tempo": 120.0
            },
            {
                "start_time": 16.061363636363634,
                "end_time": 16.44772727272727,
                "pitch": 39,
                "velocity": 51,
                "duration": 0.3863636363636367,
                "tempo": 120.0
            },
            {
                "start_time": 16.46363636363636,
                "end_time": 16.647727272727273,
                "pitch": 39,
                "velocity": 51,
                "duration": 0.1840909090909122,
                "tempo": 120.0
            },
            {
                "start_time": 16.663636363636364,
                "end_time": 16.847727272727273,
                "pitch": 41,
                "velocity": 51,
                "duration": 0.18409090909090864,
                "tempo": 120.0
            },
            {
                "start_time": 16.863636363636363,
                "end_time": 17.25,
                "pitch": 44,
                "velocity": 51,
                "duration": 0.3863636363636367,
                "tempo": 120.0
            },
            {
                "start_time": 17.268181818181816,
                "end_time": 17.65,
                "pitch": 44,
                "velocity": 51,
                "duration": 0.3818181818181827,
                "tempo": 120.0
            },
            {
                "start_time": 17.668181818181818,
                "end_time": 18.052272727272726,
                "pitch": 44,
                "velocity": 51,
                "duration": 0.38409090909090793,
                "tempo": 120.0
            },
            {
                "start_time": 18.070454545454545,
                "end_time": 19.25681818181818,
                "pitch": 44,
                "velocity": 51,
                "duration": 1.1863636363636338,
                "tempo": 120.0
            }
        ]
    }
}