{
    "track_id": "Rampage (FM) - 05 - Ending",
    "mood": "relaxed",
    "instruments": {
        "Acoustic Bass": [
            {
                "start_time": 0.0,
                "end_time": 1.1659090909090908,
                "pitch": 35,
                "velocity": 64,
                "duration": 1.1659090909090908,
                "tempo": 120.0
            },
            {
                "start_time": 1.1818181818181817,
                "end_time": 1.565909090909091,
                "pitch": 42,
                "velocity": 64,
                "duration": 0.38409090909090926,
                "tempo": 120.0
            },
            {
                "start_time": 1.5818181818181818,
                "end_time": 3.168181818181818,
                "pitch": 47,
                "velocity": 64,
                "duration": 1.5863636363636362,
                "tempo": 120.0
            },
            {
                "start_time": 3.184090909090909,
                "end_time": 4.370454545454545,
                "pitch": 35,
                "velocity": 64,
                "duration": 1.186363636363636,
                "tempo": 120.0
            },
            {
                "start_time": 4.388636363636364,
                "end_time": 4.7727272727272725,
                "pitch": 42,
                "velocity": 64,
                "duration": 0.3840909090909088,
                "tempo": 120.0
            },
            {
                "start_time": 4.790909090909091,
                "end_time": 6.379545454545454,
                "pitch": 47,
                "velocity": 64,
                "duration": 1.588636363636363,
                "tempo": 120.0
            },
            {
                "start_time": 6.3954545454545455,
                "end_time": 7.584090909090909,
                "pitch": 34,
                "velocity": 64,
                "duration": 1.1886363636363635,
                "tempo": 120.0
            },
            {
                "start_time": 7.6,
                "end_time": 7.9840909090909085,
                "pitch": 41,
                "velocity": 64,
                "duration": 0.3840909090909088,
                "tempo": 120.0
            },
            {
                "start_time": 8.0,
                "end_time": 9.593181818181817,
                "pitch": 46,
                "velocity": 64,
                "duration": 1.593181818181817,
                "tempo": 120.0
            },
            {
                "start_time": 9.60909090909091,
                "end_time": 10.799999999999999,
                "pitch": 34,
                "velocity": 64,
                "duration": 1.1909090909090896,
                "tempo": 120.0
            },
            {
                "start_time": 10.818181818181818,
                "end_time": 11.202272727272726,
                "pitch": 41,
                "velocity": 64,
                "duration": 0.38409090909090793,
                "tempo": 120.0
            },
            {
                "start_time": 11.220454545454546,
                "end_time": 12.811363636363636,
                "pitch": 46,
                "velocity": 64,
                "duration": 1.59090909090909,
                "tempo": 120.0
            },
            {
                "start_time": 12.827272727272726,
                "end_time": 14.01590909090909,
                "pitch": 32,
                "velocity": 64,
                "duration": 1.1886363636363644,
                "tempo": 120.0
            },
            {
                "start_time": 14.034090909090908,
                "end_time": 14.418181818181818,
                "pitch": 39,
                "velocity": 64,
                "duration": 0.3840909090909097,
                "tempo": 120.0
            },
            {
                "start_time": 14.436363636363636,
                "end_time": 16.027272727272727,
                "pitch": 44,
                "velocity": 64,
                "duration": 1.5909090909090917,
                "tempo": 120.0
            },
            {
                "start_time": 16.043181818181818,
                "end_time": 17.23181818181818,
                "pitch": 37,
                "velocity": 64,
                "duration": 1.1886363636363626,
                "tempo": 120.0
            },
            {
                "start_time": 17.25,
                "end_time": 17.631818181818183,
                "pitch": 44,
                "velocity": 64,
                "duration": 0.3818181818181827,
                "tempo": 120.0
            },
            {
                "start_time": 17.65,
                "end_time": 19.238636363636363,
                "pitch": 49,
                "velocity": 64,
                "duration": 1.5886363636363647,
                "tempo": 120.0
            },
            {
                "start_time": 19.254545454545454,
                "end_time": 20.44090909090909,
                "pitch": 35,
                "velocity": 64,
                "duration": 1.1863636363636374,
                "tempo": 120.0
            },
            {
                "start_time": 20.456818181818182,
                "end_time": 20.849999999999998,
                "pitch": 42,
                "velocity": 64,
                "duration": 0.39318181818181586,
                "tempo": 120.0
            },
            {
                "start_time": 20.868181818181817,
                "end_time": 22.445454545454545,
                "pitch": 47,
                "velocity": 64,
                "duration": 1.577272727272728,
                "tempo": 120.0
            },
            {
                "start_time": 22.46363636363636,
                "end_time": 23.65,
                "pitch": 35,
                "velocity": 64,
                "duration": 1.1863636363636374,
                "tempo": 120.0
            },
            {
                "start_time": 23.66590909090909,
                "end_time": 24.052272727272726,
                "pitch": 42,
                "velocity": 64,
                "duration": 0.3863636363636367,
                "tempo": 120.0
            },
            {
                "start_time": 24.068181818181817,
                "end_time": 25.654545454545453,
                "pitch": 47,
                "velocity": 64,
                "duration": 1.586363636363636,
                "tempo": 120.0
            },
            {
                "start_time": 25.670454545454543,
                "end_time": 26.85681818181818,
                "pitch": 34,
                "velocity": 64,
                "duration": 1.1863636363636374,
                "tempo": 120.0
            },
            {
                "start_time": 26.87272727272727,
                "end_time": 27.259090909090908,
                "pitch": 41,
                "velocity": 64,
                "duration": 0.3863636363636367,
                "tempo": 120.0
            },
            {
                "start_time": 27.277272727272727,
                "end_time": 28.861363636363635,
                "pitch": 46,
                "velocity": 64,
                "duration": 1.5840909090909072,
                "tempo": 120.0
            },
            {
                "start_time": 28.879545454545454,
                "end_time": 30.068181818181817,
                "pitch": 34,
                "velocity": 64,
                "duration": 1.1886363636363626,
                "tempo": 120.0
            },
            {
                "start_time": 30.084090909090907,
                "end_time": 30.468181818181815,
                "pitch": 41,
                "velocity": 64,
                "duration": 0.38409090909090793,
                "tempo": 120.0
            },
            {
                "start_time": 30.48409090909091,
                "end_time": 32.07272727272727,
                "pitch": 46,
                "velocity": 64,
                "duration": 1.5886363636363612,
                "tempo": 120.0
            },
            {
                "start_time": 32.08863636363636,
                "end_time": 33.27272727272727,
                "pitch": 32,
                "velocity": 64,
                "duration": 1.1840909090909122,
                "tempo": 120.0
            },
            {
                "start_time": 33.288636363636364,
                "end_time": 33.675,
                "pitch": 39,
                "velocity": 64,
                "duration": 0.38636363636363313,
                "tempo": 120.0
            },
            {
                "start_time": 33.69318181818181,
                "end_time": 35.275,
                "pitch": 44,
                "velocity": 64,
                "duration": 1.5818181818181856,
                "tempo": 120.0
            },
            {
                "start_time": 35.293181818181814,
                "end_time": 36.47954545454545,
                "pitch": 37,
                "velocity": 64,
                "duration": 1.1863636363636374,
                "tempo": 120.0
            },
            {
                "start_time": 36.49545454545454,
                "end_time": 36.87954545454545,
                "pitch": 44,
                "velocity": 64,
                "duration": 0.38409090909090793,
                "tempo": 120.0
            },
            {
                "start_time": 36.89545454545454,
                "end_time": 38.48181818181818,
                "pitch": 49,
                "velocity": 64,
                "duration": 1.586363636363636,
                "tempo": 120.0
            },
            {
                "start_time": 38.49772727272727,
                "end_time": 39.69318181818181,
                "pitch": 42,
                "velocity": 64,
                "duration": 1.1954545454545453,
                "tempo": 120.0
            },
            {
                "start_time": 39.711363636363636,
                "end_time": 41.73181818181818,
                "pitch": 42,
                "velocity": 64,
                "duration": 2.020454545454541,
                "tempo": 120.0
            }
        ],
        "Vibraphone": [
            {
                "start_time": 0.0,
                "end_time": 0.049999999999999996,
                "pitch": 63,
                "velocity": 51,
                "duration": 0.049999999999999996,
                "tempo": 120.0
            },
            {
                "start_time": 0.0659090909090909,
                "end_time": 1.2318181818181817,
                "pitch": 47,
                "velocity": 51,
                "duration": 1.1659090909090908,
                "tempo": 120.0
            },
            {
                "start_time": 1.2477272727272726,
                "end_time": 1.6318181818181818,
                "pitch": 54,
                "velocity": 51,
                "duration": 0.38409090909090926,
                "tempo": 120.0
            },
            {
                "start_time": 1.65,
                "end_time": 3.234090909090909,
                "pitch": 59,
                "velocity": 51,
                "duration": 1.584090909090909,
                "tempo": 120.0
            },
            {
                "start_time": 3.252272727272727,
                "end_time": 4.4386363636363635,
                "pitch": 47,
                "velocity": 51,
                "duration": 1.1863636363636365,
                "tempo": 120.0
            },
            {
                "start_time": 4.454545454545454,
                "end_time": 4.840909090909091,
                "pitch": 54,
                "velocity": 51,
                "duration": 0.3863636363636367,
                "tempo": 120.0
            },
            {
                "start_time": 4.8568181818181815,
                "end_time": 6.445454545454545,
                "pitch": 59,
                "velocity": 51,
                "duration": 1.5886363636363638,
                "tempo": 120.0
            },
            {
                "start_time": 6.463636363636363,
                "end_time": 7.6499999999999995,
                "pitch": 46,
                "velocity": 51,
                "duration": 1.1863636363636365,
                "tempo": 120.0
            },
            {
                "start_time": 7.668181818181818,
                "end_time": 8.052272727272728,
                "pitch": 53,
                "velocity": 51,
                "duration": 0.3840909090909097,
                "tempo": 120.0
            },
            {
                "start_time": 8.068181818181818,
                "end_time": 9.659090909090908,
                "pitch": 58,
                "velocity": 51,
                "duration": 1.59090909090909,
                "tempo": 120.0
            },
            {
                "start_time": 9.674999999999999,
                "end_time": 10.868181818181817,
                "pitch": 46,
                "velocity": 51,
                "duration": 1.1931818181818183,
                "tempo": 120.0
            },
            {
                "start_time": 10.884090909090908,
                "end_time": 11.270454545454545,
                "pitch": 53,
                "velocity": 51,
                "duration": 0.3863636363636367,
                "tempo": 120.0
            },
            {
                "start_time": 11.286363636363635,
                "end_time": 12.877272727272727,
                "pitch": 58,
                "velocity": 51,
                "duration": 1.5909090909090917,
                "tempo": 120.0
            },
            {
                "start_time": 12.895454545454545,
                "end_time": 14.084090909090909,
                "pitch": 44,
                "velocity": 51,
                "duration": 1.1886363636363644,
                "tempo": 120.0
            },
            {
                "start_time": 14.1,
                "end_time": 14.486363636363636,
                "pitch": 51,
                "velocity": 51,
                "duration": 0.3863636363636367,
                "tempo": 120.0
            },
            {
                "start_time": 14.502272727272727,
                "end_time": 16.09318181818182,
                "pitch": 56,
                "velocity": 51,
                "duration": 1.5909090909090917,
                "tempo": 120.0
            },
            {
                "start_time": 16.111363636363635,
                "end_time": 17.3,
                "pitch": 49,
                "velocity": 51,
                "duration": 1.1886363636363662,
                "tempo": 120.0
            },
            {
                "start_time": 17.31590909090909,
                "end_time": 17.7,
                "pitch": 56,
                "velocity": 51,
                "duration": 0.38409090909090793,
                "tempo": 120.0
            },
            {
                "start_time": 17.71590909090909,
                "end_time": 19.304545454545455,
                "pitch": 61,
                "velocity": 51,
                "duration": 1.5886363636363647,
                "tempo": 120.0
            },
            {
                "start_time": 19.320454545454545,
                "end_time": 20.509090909090908,
                "pitch": 47,
                "velocity": 51,
                "duration": 1.1886363636363626,
                "tempo": 120.0
            },
            {
                "start_time": 20.525,
                "end_time": 20.918181818181818,
                "pitch": 54,
                "velocity": 51,
                "duration": 0.3931818181818194,
                "tempo": 120.0
            },
            {
                "start_time": 20.93409090909091,
                "end_time": 22.513636363636362,
                "pitch": 59,
                "velocity": 51,
                "duration": 1.5795454545454533,
                "tempo": 120.0
            },
            {
                "start_time": 22.529545454545453,
                "end_time": 23.71590909090909,
                "pitch": 47,
                "velocity": 51,
                "duration": 1.1863636363636374,
                "tempo": 120.0
            },
            {
                "start_time": 23.73181818181818,
                "end_time": 24.118181818181817,
                "pitch": 54,
                "velocity": 51,
                "duration": 0.3863636363636367,
                "tempo": 120.0
            },
            {
                "start_time": 24.134090909090908,
                "end_time": 25.720454545454544,
                "pitch": 59,
                "velocity": 51,
                "duration": 1.586363636363636,
                "tempo": 120.0
            },
            {
                "start_time": 25.738636363636363,
                "end_time": 26.924999999999997,
                "pitch": 46,
                "velocity": 51,
                "duration": 1.1863636363636338,
                "tempo": 120.0
            },
            {
                "start_time": 26.94090909090909,
                "end_time": 27.327272727272724,
                "pitch": 53,
                "velocity": 51,
                "duration": 0.38636363636363313,
                "tempo": 120.0
            },
            {
                "start_time": 27.343181818181815,
                "end_time": 28.929545454545455,
                "pitch": 58,
                "velocity": 51,
                "duration": 1.5863636363636395,
                "tempo": 120.0
            },
            {
                "start_time": 28.945454545454545,
                "end_time": 30.134090909090908,
                "pitch": 46,
                "velocity": 51,
                "duration": 1.1886363636363626,
                "tempo": 120.0
            },
            {
                "start_time": 30.15,
                "end_time": 30.534090909090907,
                "pitch": 53,
                "velocity": 51,
                "duration": 0.38409090909090793,
                "tempo": 120.0
            },
            {
                "start_time": 30.549999999999997,
                "end_time": 32.138636363636365,
                "pitch": 58,
                "velocity": 51,
                "duration": 1.5886363636363683,
                "tempo": 120.0
            },
            {
                "start_time": 32.15681818181818,
                "end_time": 33.340909090909086,
                "pitch": 44,
                "velocity": 51,
                "duration": 1.184090909090905,
                "tempo": 120.0
            },
            {
                "start_time": 33.35681818181818,
                "end_time": 33.74318181818182,
                "pitch": 51,
                "velocity": 51,
                "duration": 0.38636363636364024,
                "tempo": 120.0
            },
            {
                "start_time": 33.75909090909091,
                "end_time": 35.34318181818182,
                "pitch": 56,
                "velocity": 51,
                "duration": 1.5840909090909108,
                "tempo": 120.0
            },
            {
                "start_time": 35.35909090909091,
                "end_time": 36.54545454545455,
                "pitch": 49,
                "velocity": 51,
                "duration": 1.1863636363636374,
                "tempo": 120.0
            },
            {
                "start_time": 36.56136363636364,
                "end_time": 36.945454545454545,
                "pitch": 56,
                "velocity": 51,
                "duration": 0.38409090909090793,
                "tempo": 120.0
            },
            {
                "start_time": 36.961363636363636,
                "end_time": 38.54772727272727,
                "pitch": 61,
                "velocity": 51,
                "duration": 1.586363636363636,
                "tempo": 120.0
            },
            {
                "start_time": 38.56363636363636,
                "end_time": 39.76136363636363,
                "pitch": 54,
                "velocity": 51,
                "duration": 1.1977272727272705,
                "tempo": 120.0
            },
            {
                "start_time": 39.777272727272724,
                "end_time": 41.80227272727272,
                "pitch": 54,
                "velocity": 51,
                "duration": 2.0249999999999986,
                "tempo": 120.0
            }
        ]
    }
}