{
    "track_id": "Rastan (FM) - 01 - Opening",
    "mood": "relaxed",
    "instruments": {
        "Harpsichord": [
            {
                "start_time": 0.01818181818181818,
                "end_time": 0.21818181818181817,
                "pitch": 88,
                "velocity": 101,
                "duration": 0.19999999999999998,
                "tempo": 120.0
            },
            {
                "start_time": 0.21818181818181817,
                "end_time": 0.4204545454545454,
                "pitch": 89,
                "velocity": 101,
                "duration": 0.20227272727272724,
                "tempo": 120.0
            },
            {
                "start_time": 0.4204545454545454,
                "end_time": 0.6204545454545454,
                "pitch": 93,
                "velocity": 101,
                "duration": 0.19999999999999996,
                "tempo": 120.0
            },
            {
                "start_time": 0.6204545454545454,
                "end_time": 0.8204545454545454,
                "pitch": 88,
                "velocity": 101,
                "duration": 0.20000000000000007,
                "tempo": 120.0
            },
            {
                "start_time": 0.4204545454545454,
                "end_time": 1.0227272727272727,
                "pitch": 81,
                "velocity": 101,
                "duration": 0.6022727272727273,
                "tempo": 120.0
            },
            {
                "start_time": 0.8204545454545454,
                "end_time": 1.0227272727272727,
                "pitch": 89,
                "velocity": 101,
                "duration": 0.20227272727272727,
                "tempo": 120.0
            },
            {
                "start_time": 1.0227272727272727,
                "end_time": 1.2249999999999999,
                "pitch": 93,
                "velocity": 101,
                "duration": 0.20227272727272716,
                "tempo": 120.0
            },
            {
                "start_time": 0.6204545454545454,
                "end_time": 1.2249999999999999,
                "pitch": 100,
                "velocity": 101,
                "duration": 0.6045454545454545,
                "tempo": 120.0
            },
            {
                "start_time": 1.2249999999999999,
                "end_time": 1.4249999999999998,
                "pitch": 88,
                "velocity": 101,
                "duration": 0.19999999999999996,
                "tempo": 120.0
            },
            {
                "start_time": 1.0227272727272727,
                "end_time": 1.625,
                "pitch": 81,
                "velocity": 101,
                "duration": 0.6022727272727273,
                "tempo": 120.0
            },
            {
                "start_time": 1.4249999999999998,
                "end_time": 1.625,
                "pitch": 89,
                "velocity": 101,
                "duration": 0.20000000000000018,
                "tempo": 120.0
            },
            {
                "start_time": 1.625,
                "end_time": 1.8272727272727272,
                "pitch": 93,
                "velocity": 101,
                "duration": 0.20227272727272716,
                "tempo": 120.0
            },
            {
                "start_time": 1.2249999999999999,
                "end_time": 1.8272727272727272,
                "pitch": 100,
                "velocity": 101,
                "duration": 0.6022727272727273,
                "tempo": 120.0
            },
            {
                "start_time": 1.8272727272727272,
                "end_time": 2.0272727272727273,
                "pitch": 88,
                "velocity": 101,
                "duration": 0.20000000000000018,
                "tempo": 120.0
            },
            {
                "start_time": 1.625,
                "end_time": 2.227272727272727,
                "pitch": 81,
                "velocity": 101,
                "duration": 0.6022727272727271,
                "tempo": 120.0
            },
            {
                "start_time": 2.0272727272727273,
                "end_time": 2.227272727272727,
                "pitch": 89,
                "velocity": 101,
                "duration": 0.19999999999999973,
                "tempo": 120.0
            },
            {
                "start_time": 2.227272727272727,
                "end_time": 2.4272727272727272,
                "pitch": 93,
                "velocity": 101,
                "duration": 0.20000000000000018,
                "tempo": 120.0
            },
            {
                "start_time": 1.8272727272727272,
                "end_time": 2.4272727272727272,
                "pitch": 100,
                "velocity": 101,
                "duration": 0.6000000000000001,
                "tempo": 120.0
            },
            {
                "start_time": 2.4295454545454542,
                "end_time": 2.634090909090909,
                "pitch": 88,
                "velocity": 101,
                "duration": 0.20454545454545459,
                "tempo": 120.0
            },
            {
                "start_time": 2.227272727272727,
                "end_time": 2.8386363636363634,
                "pitch": 81,
                "velocity": 101,
                "duration": 0.6113636363636363,
                "tempo": 120.0
            },
            {
                "start_time": 2.634090909090909,
                "end_time": 2.8386363636363634,
                "pitch": 89,
                "velocity": 101,
                "duration": 0.20454545454545459,
                "tempo": 120.0
            },
            {
                "start_time": 2.8386363636363634,
                "end_time": 3.036363636363636,
                "pitch": 93,
                "velocity": 101,
                "duration": 0.19772727272727275,
                "tempo": 120.0
            },
            {
                "start_time": 2.4272727272727272,
                "end_time": 3.036363636363636,
                "pitch": 100,
                "velocity": 101,
                "duration": 0.6090909090909089,
                "tempo": 120.0
            },
            {
                "start_time": 3.036363636363636,
                "end_time": 3.2318181818181815,
                "pitch": 88,
                "velocity": 101,
                "duration": 0.19545454545454533,
                "tempo": 120.0
            },
            {
                "start_time": 2.8386363636363634,
                "end_time": 3.4318181818181817,
                "pitch": 81,
                "velocity": 101,
                "duration": 0.5931818181818183,
                "tempo": 120.0
            },
            {
                "start_time": 3.2318181818181815,
                "end_time": 3.4318181818181817,
                "pitch": 89,
                "velocity": 101,
                "duration": 0.20000000000000018,
                "tempo": 120.0
            },
            {
                "start_time": 3.4318181818181817,
                "end_time": 3.631818181818182,
                "pitch": 93,
                "velocity": 101,
                "duration": 0.20000000000000018,
                "tempo": 120.0
            },
            {
                "start_time": 3.036363636363636,
                "end_time": 3.631818181818182,
                "pitch": 100,
                "velocity": 101,
                "duration": 0.5954545454545457,
                "tempo": 120.0
            },
            {
                "start_time": 3.631818181818182,
                "end_time": 3.8386363636363634,
                "pitch": 88,
                "velocity": 101,
                "duration": 0.20681818181818157,
                "tempo": 120.0
            },
            {
                "start_time": 3.4318181818181817,
                "end_time": 4.043181818181818,
                "pitch": 81,
                "velocity": 101,
                "duration": 0.6113636363636363,
                "tempo": 120.0
            },
            {
                "start_time": 3.8386363636363634,
                "end_time": 4.043181818181818,
                "pitch": 89,
                "velocity": 101,
                "duration": 0.20454545454545459,
                "tempo": 120.0
            },
            {
                "start_time": 4.043181818181818,
                "end_time": 4.24090909090909,
                "pitch": 93,
                "velocity": 101,
                "duration": 0.1977272727272723,
                "tempo": 120.0
            },
            {
                "start_time": 3.631818181818182,
                "end_time": 4.24090909090909,
                "pitch": 100,
                "velocity": 101,
                "duration": 0.6090909090909085,
                "tempo": 120.0
            },
            {
                "start_time": 4.24090909090909,
                "end_time": 4.4363636363636365,
                "pitch": 88,
                "velocity": 101,
                "duration": 0.1954545454545462,
                "tempo": 120.0
            },
            {
                "start_time": 4.043181818181818,
                "end_time": 4.643181818181818,
                "pitch": 81,
                "velocity": 101,
                "duration": 0.5999999999999996,
                "tempo": 120.0
            },
            {
                "start_time": 4.4363636363636365,
                "end_time": 4.643181818181818,
                "pitch": 89,
                "velocity": 101,
                "duration": 0.20681818181818112,
                "tempo": 120.0
            },
            {
                "start_time": 4.643181818181818,
                "end_time": 4.847727272727273,
                "pitch": 93,
                "velocity": 101,
                "duration": 0.20454545454545503,
                "tempo": 120.0
            },
            {
                "start_time": 4.24090909090909,
                "end_time": 4.847727272727273,
                "pitch": 100,
                "velocity": 101,
                "duration": 0.6068181818181824,
                "tempo": 120.0
            },
            {
                "start_time": 4.847727272727273,
                "end_time": 5.05,
                "pitch": 88,
                "velocity": 101,
                "duration": 0.20227272727272716,
                "tempo": 120.0
            },
            {
                "start_time": 4.643181818181818,
                "end_time": 5.25,
                "pitch": 81,
                "velocity": 101,
                "duration": 0.6068181818181824,
                "tempo": 120.0
            },
            {
                "start_time": 5.05,
                "end_time": 5.25,
                "pitch": 89,
                "velocity": 101,
                "duration": 0.20000000000000018,
                "tempo": 120.0
            },
            {
                "start_time": 5.25,
                "end_time": 5.447727272727272,
                "pitch": 93,
                "velocity": 101,
                "duration": 0.1977272727272723,
                "tempo": 120.0
            },
            {
                "start_time": 4.847727272727273,
                "end_time": 5.447727272727272,
                "pitch": 100,
                "velocity": 101,
                "duration": 0.5999999999999996,
                "tempo": 120.0
            },
            {
                "start_time": 5.447727272727272,
                "end_time": 5.643181818181818,
                "pitch": 88,
                "velocity": 101,
                "duration": 0.19545454545454533,
                "tempo": 120.0
            },
            {
                "start_time": 5.25,
                "end_time": 5.85,
                "pitch": 81,
                "velocity": 101,
                "duration": 0.5999999999999996,
                "tempo": 120.0
            },
            {
                "start_time": 5.643181818181818,
                "end_time": 5.85,
                "pitch": 89,
                "velocity": 101,
                "duration": 0.206818181818182,
                "tempo": 120.0
            },
            {
                "start_time": 5.85,
                "end_time": 6.054545454545455,
                "pitch": 93,
                "velocity": 101,
                "duration": 0.20454545454545503,
                "tempo": 120.0
            },
            {
                "start_time": 5.447727272727272,
                "end_time": 6.054545454545455,
                "pitch": 100,
                "velocity": 101,
                "duration": 0.6068181818181824,
                "tempo": 120.0
            },
            {
                "start_time": 6.054545454545455,
                "end_time": 6.254545454545454,
                "pitch": 88,
                "velocity": 101,
                "duration": 0.1999999999999993,
                "tempo": 120.0
            },
            {
                "start_time": 5.85,
                "end_time": 6.456818181818181,
                "pitch": 81,
                "velocity": 101,
                "duration": 0.6068181818181815,
                "tempo": 120.0
            },
            {
                "start_time": 6.254545454545454,
                "end_time": 6.456818181818181,
                "pitch": 89,
                "velocity": 101,
                "duration": 0.20227272727272716,
                "tempo": 120.0
            },
            {
                "start_time": 6.456818181818181,
                "end_time": 6.656818181818181,
                "pitch": 93,
                "velocity": 101,
                "duration": 0.20000000000000018,
                "tempo": 120.0
            },
            {
                "start_time": 6.054545454545455,
                "end_time": 6.656818181818181,
                "pitch": 100,
                "velocity": 101,
                "duration": 0.6022727272727266,
                "tempo": 120.0
            },
            {
                "start_time": 6.656818181818181,
                "end_time": 6.8590909090909085,
                "pitch": 88,
                "velocity": 101,
                "duration": 0.20227272727272716,
                "tempo": 120.0
            },
            {
                "start_time": 6.456818181818181,
                "end_time": 7.061363636363636,
                "pitch": 81,
                "velocity": 101,
                "duration": 0.6045454545454545,
                "tempo": 120.0
            },
            {
                "start_time": 6.8590909090909085,
                "end_time": 7.061363636363636,
                "pitch": 89,
                "velocity": 101,
                "duration": 0.20227272727272716,
                "tempo": 120.0
            },
            {
                "start_time": 7.061363636363636,
                "end_time": 7.261363636363636,
                "pitch": 93,
                "velocity": 101,
                "duration": 0.20000000000000018,
                "tempo": 120.0
            },
            {
                "start_time": 6.656818181818181,
                "end_time": 7.261363636363636,
                "pitch": 100,
                "velocity": 101,
                "duration": 0.6045454545454545,
                "tempo": 120.0
            },
            {
                "start_time": 7.261363636363636,
                "end_time": 7.463636363636363,
                "pitch": 88,
                "velocity": 101,
                "duration": 0.20227272727272716,
                "tempo": 120.0
            },
            {
                "start_time": 7.061363636363636,
                "end_time": 7.663636363636363,
                "pitch": 81,
                "velocity": 101,
                "duration": 0.6022727272727275,
                "tempo": 120.0
            },
            {
                "start_time": 7.463636363636363,
                "end_time": 7.663636363636363,
                "pitch": 89,
                "velocity": 101,
                "duration": 0.20000000000000018,
                "tempo": 120.0
            },
            {
                "start_time": 7.663636363636363,
                "end_time": 7.863636363636363,
                "pitch": 93,
                "velocity": 101,
                "duration": 0.20000000000000018,
                "tempo": 120.0
            },
            {
                "start_time": 7.261363636363636,
                "end_time": 7.863636363636363,
                "pitch": 100,
                "velocity": 101,
                "duration": 0.6022727272727275,
                "tempo": 120.0
            },
            {
                "start_time": 7.863636363636363,
                "end_time": 8.065909090909091,
                "pitch": 88,
                "velocity": 101,
                "duration": 0.20227272727272805,
                "tempo": 120.0
            },
            {
                "start_time": 7.663636363636363,
                "end_time": 8.26590909090909,
                "pitch": 81,
                "velocity": 101,
                "duration": 0.6022727272727275,
                "tempo": 120.0
            },
            {
                "start_time": 8.065909090909091,
                "end_time": 8.26590909090909,
                "pitch": 89,
                "velocity": 101,
                "duration": 0.1999999999999993,
                "tempo": 120.0
            },
            {
                "start_time": 8.26590909090909,
                "end_time": 8.46590909090909,
                "pitch": 93,
                "velocity": 101,
                "duration": 0.1999999999999993,
                "tempo": 120.0
            },
            {
                "start_time": 7.863636363636363,
                "end_time": 8.46590909090909,
                "pitch": 100,
                "velocity": 101,
                "duration": 0.6022727272727266,
                "tempo": 120.0
            },
            {
                "start_time": 8.46590909090909,
                "end_time": 8.668181818181818,
                "pitch": 88,
                "velocity": 101,
                "duration": 0.20227272727272805,
                "tempo": 120.0
            },
            {
                "start_time": 8.26590909090909,
                "end_time": 8.870454545454544,
                "pitch": 81,
                "velocity": 101,
                "duration": 0.6045454545454536,
                "tempo": 120.0
            },
            {
                "start_time": 8.668181818181818,
                "end_time": 8.870454545454544,
                "pitch": 89,
                "velocity": 101,
                "duration": 0.20227272727272627,
                "tempo": 120.0
            },
            {
                "start_time": 8.870454545454544,
                "end_time": 9.070454545454545,
                "pitch": 93,
                "velocity": 101,
                "duration": 0.20000000000000107,
                "tempo": 120.0
            },
            {
                "start_time": 8.46590909090909,
                "end_time": 9.070454545454545,
                "pitch": 100,
                "velocity": 101,
                "duration": 0.6045454545454554,
                "tempo": 120.0
            },
            {
                "start_time": 9.070454545454545,
                "end_time": 9.272727272727272,
                "pitch": 88,
                "velocity": 101,
                "duration": 0.20227272727272627,
                "tempo": 120.0
            },
            {
                "start_time": 8.870454545454544,
                "end_time": 9.475,
                "pitch": 81,
                "velocity": 101,
                "duration": 0.6045454545454554,
                "tempo": 120.0
            },
            {
                "start_time": 9.272727272727272,
                "end_time": 9.475,
                "pitch": 89,
                "velocity": 101,
                "duration": 0.20227272727272805,
                "tempo": 120.0
            },
            {
                "start_time": 9.475,
                "end_time": 9.674999999999999,
                "pitch": 93,
                "velocity": 101,
                "duration": 0.1999999999999993,
                "tempo": 120.0
            }
        ],
        "Clarinet": [
            {
                "start_time": 0.01818181818181818,
                "end_time": 0.2863636363636364,
                "pitch": 88,
                "velocity": 80,
                "duration": 0.2681818181818182,
                "tempo": 120.0
            },
            {
                "start_time": 0.2863636363636364,
                "end_time": 0.48636363636363633,
                "pitch": 89,
                "velocity": 80,
                "duration": 0.19999999999999996,
                "tempo": 120.0
            },
            {
                "start_time": 0.48636363636363633,
                "end_time": 0.6863636363636363,
                "pitch": 93,
                "velocity": 80,
                "duration": 0.19999999999999996,
                "tempo": 120.0
            },
            {
                "start_time": 0.6863636363636363,
                "end_time": 0.8886363636363636,
                "pitch": 88,
                "velocity": 80,
                "duration": 0.20227272727272727,
                "tempo": 120.0
            },
            {
                "start_time": 0.48636363636363633,
                "end_time": 1.0886363636363636,
                "pitch": 81,
                "velocity": 80,
                "duration": 0.6022727272727273,
                "tempo": 120.0
            },
            {
                "start_time": 0.8886363636363636,
                "end_time": 1.0886363636363636,
                "pitch": 89,
                "velocity": 80,
                "duration": 0.20000000000000007,
                "tempo": 120.0
            },
            {
                "start_time": 1.0909090909090908,
                "end_time": 1.2909090909090908,
                "pitch": 93,
                "velocity": 80,
                "duration": 0.19999999999999996,
                "tempo": 120.0
            },
            {
                "start_time": 0.6863636363636363,
                "end_time": 1.2909090909090908,
                "pitch": 100,
                "velocity": 80,
                "duration": 0.6045454545454545,
                "tempo": 120.0
            },
            {
                "start_time": 1.2909090909090908,
                "end_time": 1.4909090909090907,
                "pitch": 88,
                "velocity": 80,
                "duration": 0.19999999999999996,
                "tempo": 120.0
            },
            {
                "start_time": 1.0886363636363636,
                "end_time": 1.690909090909091,
                "pitch": 81,
                "velocity": 80,
                "duration": 0.6022727272727273,
                "tempo": 120.0
            },
            {
                "start_time": 1.4909090909090907,
                "end_time": 1.690909090909091,
                "pitch": 89,
                "velocity": 80,
                "duration": 0.20000000000000018,
                "tempo": 120.0
            },
            {
                "start_time": 1.690909090909091,
                "end_time": 1.893181818181818,
                "pitch": 93,
                "velocity": 80,
                "duration": 0.20227272727272716,
                "tempo": 120.0
            },
            {
                "start_time": 1.2909090909090908,
                "end_time": 1.893181818181818,
                "pitch": 100,
                "velocity": 80,
                "duration": 0.6022727272727273,
                "tempo": 120.0
            },
            {
                "start_time": 1.893181818181818,
                "end_time": 2.0954545454545452,
                "pitch": 88,
                "velocity": 80,
                "duration": 0.20227272727272716,
                "tempo": 120.0
            },
            {
                "start_time": 1.690909090909091,
                "end_time": 2.2954545454545454,
                "pitch": 81,
                "velocity": 80,
                "duration": 0.6045454545454545,
                "tempo": 120.0
            },
            {
                "start_time": 2.0954545454545452,
                "end_time": 2.2954545454545454,
                "pitch": 89,
                "velocity": 80,
                "duration": 0.20000000000000018,
                "tempo": 120.0
            },
            {
                "start_time": 2.2954545454545454,
                "end_time": 4.847727272727273,
                "pitch": 93,
                "velocity": 80,
                "duration": 2.5522727272727272,
                "tempo": 120.0
            },
            {
                "start_time": 4.847727272727273,
                "end_time": 5.11590909090909,
                "pitch": 88,
                "velocity": 80,
                "duration": 0.26818181818181763,
                "tempo": 120.0
            },
            {
                "start_time": 2.2954545454545454,
                "end_time": 5.3159090909090905,
                "pitch": 81,
                "velocity": 80,
                "duration": 3.020454545454545,
                "tempo": 120.0
            },
            {
                "start_time": 5.11590909090909,
                "end_time": 5.3159090909090905,
                "pitch": 89,
                "velocity": 80,
                "duration": 0.20000000000000018,
                "tempo": 120.0
            },
            {
                "start_time": 5.3159090909090905,
                "end_time": 5.513636363636364,
                "pitch": 93,
                "velocity": 80,
                "duration": 0.1977272727272732,
                "tempo": 120.0
            },
            {
                "start_time": 1.893181818181818,
                "end_time": 5.513636363636364,
                "pitch": 100,
                "velocity": 80,
                "duration": 3.6204545454545456,
                "tempo": 120.0
            },
            {
                "start_time": 5.513636363636364,
                "end_time": 5.711363636363636,
                "pitch": 88,
                "velocity": 80,
                "duration": 0.1977272727272723,
                "tempo": 120.0
            },
            {
                "start_time": 5.3159090909090905,
                "end_time": 5.918181818181818,
                "pitch": 81,
                "velocity": 80,
                "duration": 0.6022727272727275,
                "tempo": 120.0
            },
            {
                "start_time": 5.713636363636363,
                "end_time": 5.918181818181818,
                "pitch": 89,
                "velocity": 80,
                "duration": 0.20454545454545503,
                "tempo": 120.0
            },
            {
                "start_time": 5.918181818181818,
                "end_time": 6.122727272727272,
                "pitch": 93,
                "velocity": 80,
                "duration": 0.20454545454545414,
                "tempo": 120.0
            },
            {
                "start_time": 5.513636363636364,
                "end_time": 6.122727272727272,
                "pitch": 100,
                "velocity": 80,
                "duration": 0.6090909090909085,
                "tempo": 120.0
            },
            {
                "start_time": 6.122727272727272,
                "end_time": 6.322727272727272,
                "pitch": 88,
                "velocity": 80,
                "duration": 0.20000000000000018,
                "tempo": 120.0
            },
            {
                "start_time": 5.918181818181818,
                "end_time": 6.5227272727272725,
                "pitch": 81,
                "velocity": 80,
                "duration": 0.6045454545454545,
                "tempo": 120.0
            },
            {
                "start_time": 6.322727272727272,
                "end_time": 6.5227272727272725,
                "pitch": 89,
                "velocity": 80,
                "duration": 0.20000000000000018,
                "tempo": 120.0
            },
            {
                "start_time": 6.5227272727272725,
                "end_time": 6.725,
                "pitch": 93,
                "velocity": 80,
                "duration": 0.20227272727272716,
                "tempo": 120.0
            },
            {
                "start_time": 6.122727272727272,
                "end_time": 6.725,
                "pitch": 100,
                "velocity": 80,
                "duration": 0.6022727272727275,
                "tempo": 120.0
            },
            {
                "start_time": 6.725,
                "end_time": 6.927272727272727,
                "pitch": 88,
                "velocity": 80,
                "duration": 0.20227272727272716,
                "tempo": 120.0
            },
            {
                "start_time": 6.5227272727272725,
                "end_time": 7.127272727272727,
                "pitch": 81,
                "velocity": 80,
                "duration": 0.6045454545454545,
                "tempo": 120.0
            },
            {
                "start_time": 6.927272727272727,
                "end_time": 7.127272727272727,
                "pitch": 89,
                "velocity": 80,
                "duration": 0.20000000000000018,
                "tempo": 120.0
            }
        ],
        "French Horn": [
            {
                "start_time": 2.4454545454545453,
                "end_time": 7.279545454545454,
                "pitch": 50,
                "velocity": 101,
                "duration": 4.834090909090909,
                "tempo": 120.0
            },
            {
                "start_time": 7.279545454545454,
                "end_time": 9.674999999999999,
                "pitch": 50,
                "velocity": 101,
                "duration": 2.3954545454545446,
                "tempo": 120.0
            }
        ],
        "Trumpet": [
            {
                "start_time": 0.01818181818181818,
                "end_time": 1.2249999999999999,
                "pitch": 86,
                "velocity": 32,
                "duration": 1.2068181818181818,
                "tempo": 120.0
            },
            {
                "start_time": 1.2249999999999999,
                "end_time": 4.847727272727273,
                "pitch": 86,
                "velocity": 32,
                "duration": 3.622727272727273,
                "tempo": 120.0
            },
            {
                "start_time": 4.847727272727273,
                "end_time": 6.054545454545455,
                "pitch": 86,
                "velocity": 32,
                "duration": 1.206818181818182,
                "tempo": 120.0
            }
        ],
        "Electric Guitar (clean)": [
            {
                "start_time": 2.4295454545454542,
                "end_time": 7.261363636363636,
                "pitch": 38,
                "velocity": 127,
                "duration": 4.831818181818182,
                "tempo": 120.0
            },
            {
                "start_time": 7.261363636363636,
                "end_time": 9.674999999999999,
                "pitch": 38,
                "velocity": 127,
                "duration": 2.413636363636363,
                "tempo": 120.0
            }
        ]
    }
}