{
    "track_id": "Shanghai (FM) - 01 - Title Screen",
    "mood": "relaxed",
    "instruments": {
        "Harpsichord": [
            {
                "start_time": 0.00909090909090909,
                "end_time": 0.35909090909090907,
                "pitch": 50,
                "velocity": 40,
                "duration": 0.35,
                "tempo": 120.0
            },
            {
                "start_time": 0.375,
                "end_time": 0.7113636363636363,
                "pitch": 55,
                "velocity": 40,
                "duration": 0.3363636363636363,
                "tempo": 120.0
            },
            {
                "start_time": 0.7272727272727273,
                "end_time": 1.0795454545454546,
                "pitch": 57,
                "velocity": 40,
                "duration": 0.3522727272727273,
                "tempo": 120.0
            },
            {
                "start_time": 1.0954545454545455,
                "end_time": 1.4295454545454545,
                "pitch": 61,
                "velocity": 40,
                "duration": 0.334090909090909,
                "tempo": 120.0
            },
            {
                "start_time": 1.4636363636363636,
                "end_time": 1.8022727272727272,
                "pitch": 62,
                "velocity": 40,
                "duration": 0.3386363636363636,
                "tempo": 120.0
            },
            {
                "start_time": 1.8204545454545453,
                "end_time": 2.175,
                "pitch": 61,
                "velocity": 40,
                "duration": 0.3545454545454545,
                "tempo": 120.0
            },
            {
                "start_time": 2.190909090909091,
                "end_time": 2.5272727272727273,
                "pitch": 55,
                "velocity": 40,
                "duration": 0.3363636363636364,
                "tempo": 120.0
            },
            {
                "start_time": 2.543181818181818,
                "end_time": 2.8954545454545455,
                "pitch": 57,
                "velocity": 40,
                "duration": 0.3522727272727275,
                "tempo": 120.0
            },
            {
                "start_time": 2.911363636363636,
                "end_time": 3.25,
                "pitch": 50,
                "velocity": 40,
                "duration": 0.33863636363636385,
                "tempo": 120.0
            },
            {
                "start_time": 3.2840909090909087,
                "end_time": 3.6227272727272726,
                "pitch": 55,
                "velocity": 40,
                "duration": 0.33863636363636385,
                "tempo": 120.0
            },
            {
                "start_time": 3.6409090909090907,
                "end_time": 3.9863636363636363,
                "pitch": 57,
                "velocity": 40,
                "duration": 0.3454545454545457,
                "tempo": 120.0
            },
            {
                "start_time": 4.004545454545454,
                "end_time": 4.334090909090909,
                "pitch": 61,
                "velocity": 40,
                "duration": 0.32954545454545503,
                "tempo": 120.0
            },
            {
                "start_time": 4.352272727272727,
                "end_time": 4.697727272727272,
                "pitch": 62,
                "velocity": 40,
                "duration": 0.3454545454545457,
                "tempo": 120.0
            },
            {
                "start_time": 4.715909090909091,
                "end_time": 5.045454545454545,
                "pitch": 61,
                "velocity": 40,
                "duration": 0.32954545454545414,
                "tempo": 120.0
            },
            {
                "start_time": 5.079545454545454,
                "end_time": 5.418181818181818,
                "pitch": 55,
                "velocity": 40,
                "duration": 0.33863636363636385,
                "tempo": 120.0
            },
            {
                "start_time": 5.434090909090909,
                "end_time": 5.790909090909091,
                "pitch": 57,
                "velocity": 40,
                "duration": 0.35681818181818237,
                "tempo": 120.0
            },
            {
                "start_time": 5.806818181818182,
                "end_time": 6.1454545454545455,
                "pitch": 50,
                "velocity": 40,
                "duration": 0.33863636363636385,
                "tempo": 120.0
            },
            {
                "start_time": 6.163636363636363,
                "end_time": 6.518181818181818,
                "pitch": 55,
                "velocity": 40,
                "duration": 0.3545454545454545,
                "tempo": 120.0
            },
            {
                "start_time": 6.536363636363636,
                "end_time": 6.86590909090909,
                "pitch": 57,
                "velocity": 40,
                "duration": 0.32954545454545414,
                "tempo": 120.0
            },
            {
                "start_time": 6.8999999999999995,
                "end_time": 7.2295454545454545,
                "pitch": 61,
                "velocity": 40,
                "duration": 0.32954545454545503,
                "tempo": 120.0
            },
            {
                "start_time": 7.247727272727272,
                "end_time": 7.597727272727273,
                "pitch": 62,
                "velocity": 40,
                "duration": 0.35000000000000053,
                "tempo": 120.0
            },
            {
                "start_time": 7.613636363636363,
                "end_time": 7.949999999999999,
                "pitch": 61,
                "velocity": 40,
                "duration": 0.336363636363636,
                "tempo": 120.0
            },
            {
                "start_time": 7.965909090909091,
                "end_time": 8.318181818181818,
                "pitch": 55,
                "velocity": 40,
                "duration": 0.3522727272727275,
                "tempo": 120.0
            },
            {
                "start_time": 8.334090909090909,
                "end_time": 8.668181818181818,
                "pitch": 57,
                "velocity": 40,
                "duration": 0.334090909090909,
                "tempo": 120.0
            },
            {
                "start_time": 8.702272727272726,
                "end_time": 9.040909090909091,
                "pitch": 50,
                "velocity": 40,
                "duration": 0.33863636363636473,
                "tempo": 120.0
            },
            {
                "start_time": 9.056818181818182,
                "end_time": 9.413636363636364,
                "pitch": 55,
                "velocity": 40,
                "duration": 0.35681818181818237,
                "tempo": 120.0
            },
            {
                "start_time": 9.429545454545455,
                "end_time": 9.76590909090909,
                "pitch": 57,
                "velocity": 40,
                "duration": 0.336363636363636,
                "tempo": 120.0
            },
            {
                "start_time": 9.781818181818181,
                "end_time": 10.134090909090908,
                "pitch": 61,
                "velocity": 40,
                "duration": 0.3522727272727266,
                "tempo": 120.0
            },
            {
                "start_time": 10.15,
                "end_time": 10.477272727272727,
                "pitch": 62,
                "velocity": 40,
                "duration": 0.32727272727272627,
                "tempo": 120.0
            },
            {
                "start_time": 10.509090909090908,
                "end_time": 10.836363636363636,
                "pitch": 61,
                "velocity": 40,
                "duration": 0.32727272727272805,
                "tempo": 120.0
            },
            {
                "start_time": 10.852272727272727,
                "end_time": 11.209090909090909,
                "pitch": 55,
                "velocity": 40,
                "duration": 0.35681818181818237,
                "tempo": 120.0
            },
            {
                "start_time": 11.225,
                "end_time": 11.563636363636363,
                "pitch": 57,
                "velocity": 40,
                "duration": 0.33863636363636296,
                "tempo": 120.0
            },
            {
                "start_time": 11.581818181818182,
                "end_time": 13.002272727272727,
                "pitch": 66,
                "velocity": 40,
                "duration": 1.420454545454545,
                "tempo": 120.0
            }
        ],
        "Oboe": [
            {
                "start_time": 0.00909090909090909,
                "end_time": 0.05909090909090909,
                "pitch": 58,
                "velocity": 40,
                "duration": 0.05,
                "tempo": 120.0
            },
            {
                "start_time": 0.075,
                "end_time": 1.1295454545454544,
                "pitch": 69,
                "velocity": 40,
                "duration": 1.0545454545454545,
                "tempo": 120.0
            },
            {
                "start_time": 1.1613636363636364,
                "end_time": 1.8704545454545454,
                "pitch": 67,
                "velocity": 40,
                "duration": 0.709090909090909,
                "tempo": 120.0
            },
            {
                "start_time": 1.8863636363636362,
                "end_time": 2.0386363636363636,
                "pitch": 66,
                "velocity": 40,
                "duration": 0.15227272727272734,
                "tempo": 120.0
            },
            {
                "start_time": 2.0727272727272728,
                "end_time": 2.225,
                "pitch": 67,
                "velocity": 40,
                "duration": 0.15227272727272734,
                "tempo": 120.0
            },
            {
                "start_time": 2.243181818181818,
                "end_time": 2.5931818181818183,
                "pitch": 66,
                "velocity": 40,
                "duration": 0.3500000000000001,
                "tempo": 120.0
            },
            {
                "start_time": 2.6113636363636363,
                "end_time": 2.9454545454545453,
                "pitch": 62,
                "velocity": 40,
                "duration": 0.334090909090909,
                "tempo": 120.0
            },
            {
                "start_time": 2.9795454545454545,
                "end_time": 3.318181818181818,
                "pitch": 66,
                "velocity": 40,
                "duration": 0.3386363636363634,
                "tempo": 120.0
            },
            {
                "start_time": 3.334090909090909,
                "end_time": 3.6886363636363635,
                "pitch": 67,
                "velocity": 40,
                "duration": 0.3545454545454545,
                "tempo": 120.0
            },
            {
                "start_time": 3.7068181818181816,
                "end_time": 4.036363636363636,
                "pitch": 69,
                "velocity": 40,
                "duration": 0.3295454545454546,
                "tempo": 120.0
            },
            {
                "start_time": 4.054545454545455,
                "end_time": 4.3999999999999995,
                "pitch": 73,
                "velocity": 40,
                "duration": 0.3454545454545448,
                "tempo": 120.0
            },
            {
                "start_time": 4.418181818181818,
                "end_time": 4.747727272727272,
                "pitch": 74,
                "velocity": 40,
                "duration": 0.32954545454545414,
                "tempo": 120.0
            },
            {
                "start_time": 4.781818181818181,
                "end_time": 5.113636363636363,
                "pitch": 73,
                "velocity": 40,
                "duration": 0.331818181818182,
                "tempo": 120.0
            },
            {
                "start_time": 5.129545454545454,
                "end_time": 5.4840909090909085,
                "pitch": 67,
                "velocity": 40,
                "duration": 0.3545454545454545,
                "tempo": 120.0
            },
            {
                "start_time": 5.502272727272727,
                "end_time": 5.840909090909091,
                "pitch": 69,
                "velocity": 40,
                "duration": 0.33863636363636385,
                "tempo": 120.0
            },
            {
                "start_time": 5.8568181818181815,
                "end_time": 6.931818181818182,
                "pitch": 69,
                "velocity": 40,
                "duration": 1.0750000000000002,
                "tempo": 120.0
            },
            {
                "start_time": 6.949999999999999,
                "end_time": 7.6477272727272725,
                "pitch": 67,
                "velocity": 40,
                "duration": 0.6977272727272732,
                "tempo": 120.0
            },
            {
                "start_time": 7.66590909090909,
                "end_time": 7.831818181818181,
                "pitch": 66,
                "velocity": 40,
                "duration": 0.165909090909091,
                "tempo": 120.0
            },
            {
                "start_time": 7.85,
                "end_time": 8.01590909090909,
                "pitch": 67,
                "velocity": 40,
                "duration": 0.165909090909091,
                "tempo": 120.0
            },
            {
                "start_time": 8.034090909090908,
                "end_time": 8.368181818181817,
                "pitch": 66,
                "velocity": 40,
                "duration": 0.334090909090909,
                "tempo": 120.0
            },
            {
                "start_time": 8.402272727272727,
                "end_time": 8.736363636363636,
                "pitch": 62,
                "velocity": 40,
                "duration": 0.334090909090909,
                "tempo": 120.0
            },
            {
                "start_time": 8.752272727272727,
                "end_time": 9.463636363636363,
                "pitch": 66,
                "velocity": 40,
                "duration": 0.711363636363636,
                "tempo": 120.0
            },
            {
                "start_time": 9.48181818181818,
                "end_time": 9.831818181818182,
                "pitch": 67,
                "velocity": 40,
                "duration": 0.3500000000000014,
                "tempo": 120.0
            },
            {
                "start_time": 9.85,
                "end_time": 10.543181818181818,
                "pitch": 69,
                "velocity": 40,
                "duration": 0.6931818181818183,
                "tempo": 120.0
            },
            {
                "start_time": 10.559090909090909,
                "end_time": 10.902272727272727,
                "pitch": 73,
                "velocity": 40,
                "duration": 0.3431818181818187,
                "tempo": 120.0
            },
            {
                "start_time": 10.920454545454545,
                "end_time": 11.631818181818181,
                "pitch": 74,
                "velocity": 40,
                "duration": 0.711363636363636,
                "tempo": 120.0
            },
            {
                "start_time": 11.647727272727272,
                "end_time": 13.002272727272727,
                "pitch": 69,
                "velocity": 40,
                "duration": 1.3545454545454554,
                "tempo": 120.0
            }
        ]
    }
}