{
    "track_id": "Shanghai (FM) - 08 - Unknown 2",
    "mood": "relaxed",
    "instruments": {
        "Acoustic Bass": [
            {
                "start_time": 0.015909090909090907,
                "end_time": 0.18863636363636363,
                "pitch": 48,
                "velocity": 80,
                "duration": 0.17272727272727273,
                "tempo": 120.0
            },
            {
                "start_time": 0.22272727272727272,
                "end_time": 0.4113636363636363,
                "pitch": 48,
                "velocity": 80,
                "duration": 0.1886363636363636,
                "tempo": 120.0
            },
            {
                "start_time": 0.42727272727272725,
                "end_time": 0.8113636363636363,
                "pitch": 48,
                "velocity": 80,
                "duration": 0.38409090909090904,
                "tempo": 120.0
            },
            {
                "start_time": 0.8272727272727273,
                "end_time": 1.0068181818181818,
                "pitch": 48,
                "velocity": 80,
                "duration": 0.17954545454545456,
                "tempo": 120.0
            },
            {
                "start_time": 1.0227272727272727,
                "end_time": 1.1386363636363637,
                "pitch": 48,
                "velocity": 80,
                "duration": 0.11590909090909096,
                "tempo": 120.0
            },
            {
                "start_time": 2.05,
                "end_time": 2.243181818181818,
                "pitch": 53,
                "velocity": 80,
                "duration": 0.19318181818181834,
                "tempo": 120.0
            },
            {
                "start_time": 2.2613636363636362,
                "end_time": 2.6522727272727273,
                "pitch": 53,
                "velocity": 80,
                "duration": 0.3909090909090911,
                "tempo": 120.0
            },
            {
                "start_time": 2.668181818181818,
                "end_time": 3.0477272727272724,
                "pitch": 60,
                "velocity": 80,
                "duration": 0.3795454545454544,
                "tempo": 120.0
            },
            {
                "start_time": 3.0636363636363635,
                "end_time": 3.2477272727272726,
                "pitch": 55,
                "velocity": 80,
                "duration": 0.18409090909090908,
                "tempo": 120.0
            },
            {
                "start_time": 3.2636363636363637,
                "end_time": 3.675,
                "pitch": 53,
                "velocity": 80,
                "duration": 0.41136363636363615,
                "tempo": 120.0
            },
            {
                "start_time": 3.709090909090909,
                "end_time": 4.097727272727273,
                "pitch": 55,
                "velocity": 80,
                "duration": 0.38863636363636367,
                "tempo": 120.0
            },
            {
                "start_time": 4.131818181818182,
                "end_time": 4.302272727272727,
                "pitch": 48,
                "velocity": 80,
                "duration": 0.17045454545454497,
                "tempo": 120.0
            },
            {
                "start_time": 4.336363636363636,
                "end_time": 4.456818181818182,
                "pitch": 48,
                "velocity": 80,
                "duration": 0.12045454545454604,
                "tempo": 120.0
            },
            {
                "start_time": 5.361363636363636,
                "end_time": 5.556818181818182,
                "pitch": 53,
                "velocity": 80,
                "duration": 0.19545454545454533,
                "tempo": 120.0
            },
            {
                "start_time": 5.572727272727272,
                "end_time": 5.963636363636363,
                "pitch": 53,
                "velocity": 80,
                "duration": 0.39090909090909065,
                "tempo": 120.0
            },
            {
                "start_time": 5.9795454545454545,
                "end_time": 6.161363636363636,
                "pitch": 48,
                "velocity": 80,
                "duration": 0.18181818181818166,
                "tempo": 120.0
            },
            {
                "start_time": 6.177272727272727,
                "end_time": 6.361363636363636,
                "pitch": 53,
                "velocity": 80,
                "duration": 0.18409090909090953,
                "tempo": 120.0
            },
            {
                "start_time": 6.377272727272727,
                "end_time": 6.9818181818181815,
                "pitch": 55,
                "velocity": 80,
                "duration": 0.6045454545454545,
                "tempo": 120.0
            },
            {
                "start_time": 7.0,
                "end_time": 7.393181818181818,
                "pitch": 55,
                "velocity": 80,
                "duration": 0.39318181818181763,
                "tempo": 120.0
            },
            {
                "start_time": 7.409090909090909,
                "end_time": 7.595454545454545,
                "pitch": 48,
                "velocity": 80,
                "duration": 0.18636363636363562,
                "tempo": 120.0
            },
            {
                "start_time": 7.611363636363636,
                "end_time": 7.7295454545454545,
                "pitch": 48,
                "velocity": 80,
                "duration": 0.11818181818181817,
                "tempo": 120.0
            },
            {
                "start_time": 8.64090909090909,
                "end_time": 8.834090909090909,
                "pitch": 53,
                "velocity": 80,
                "duration": 0.19318181818181834,
                "tempo": 120.0
            },
            {
                "start_time": 8.852272727272727,
                "end_time": 9.643181818181818,
                "pitch": 53,
                "velocity": 80,
                "duration": 0.790909090909091,
                "tempo": 120.0
            },
            {
                "start_time": 9.659090909090908,
                "end_time": 9.847727272727273,
                "pitch": 55,
                "velocity": 80,
                "duration": 0.18863636363636438,
                "tempo": 120.0
            },
            {
                "start_time": 9.86590909090909,
                "end_time": 10.268181818181818,
                "pitch": 53,
                "velocity": 80,
                "duration": 0.40227272727272734,
                "tempo": 120.0
            },
            {
                "start_time": 10.284090909090908,
                "end_time": 10.677272727272726,
                "pitch": 55,
                "velocity": 80,
                "duration": 0.39318181818181763,
                "tempo": 120.0
            },
            {
                "start_time": 10.695454545454545,
                "end_time": 10.879545454545454,
                "pitch": 48,
                "velocity": 80,
                "duration": 0.18409090909090864,
                "tempo": 120.0
            },
            {
                "start_time": 10.895454545454545,
                "end_time": 11.029545454545454,
                "pitch": 48,
                "velocity": 80,
                "duration": 0.1340909090909097,
                "tempo": 120.0
            },
            {
                "start_time": 11.934090909090909,
                "end_time": 12.534090909090908,
                "pitch": 53,
                "velocity": 80,
                "duration": 0.5999999999999996,
                "tempo": 120.0
            },
            {
                "start_time": 12.568181818181818,
                "end_time": 12.73409090909091,
                "pitch": 48,
                "velocity": 80,
                "duration": 0.165909090909091,
                "tempo": 120.0
            },
            {
                "start_time": 12.768181818181818,
                "end_time": 12.94090909090909,
                "pitch": 51,
                "velocity": 80,
                "duration": 0.17272727272727195,
                "tempo": 120.0
            },
            {
                "start_time": 12.975,
                "end_time": 13.145454545454545,
                "pitch": 55,
                "velocity": 80,
                "duration": 0.17045454545454497,
                "tempo": 120.0
            },
            {
                "start_time": 13.179545454545455,
                "end_time": 13.581818181818182,
                "pitch": 60,
                "velocity": 80,
                "duration": 0.40227272727272734,
                "tempo": 120.0
            },
            {
                "start_time": 13.6,
                "end_time": 13.993181818181817,
                "pitch": 55,
                "velocity": 80,
                "duration": 0.39318181818181763,
                "tempo": 120.0
            },
            {
                "start_time": 14.009090909090908,
                "end_time": 15.222727272727273,
                "pitch": 41,
                "velocity": 80,
                "duration": 1.2136363636363647,
                "tempo": 120.0
            },
            {
                "start_time": 15.24090909090909,
                "end_time": 15.645454545454545,
                "pitch": 41,
                "velocity": 80,
                "duration": 0.4045454545454543,
                "tempo": 120.0
            },
            {
                "start_time": 15.661363636363635,
                "end_time": 16.44772727272727,
                "pitch": 41,
                "velocity": 80,
                "duration": 0.7863636363636353,
                "tempo": 120.0
            },
            {
                "start_time": 16.46590909090909,
                "end_time": 16.85681818181818,
                "pitch": 41,
                "velocity": 80,
                "duration": 0.39090909090909065,
                "tempo": 120.0
            },
            {
                "start_time": 16.87272727272727,
                "end_time": 17.277272727272727,
                "pitch": 43,
                "velocity": 80,
                "duration": 0.4045454545454561,
                "tempo": 120.0
            },
            {
                "start_time": 17.295454545454543,
                "end_time": 18.49772727272727,
                "pitch": 48,
                "velocity": 80,
                "duration": 1.202272727272728,
                "tempo": 120.0
            },
            {
                "start_time": 18.51590909090909,
                "end_time": 18.909090909090907,
                "pitch": 48,
                "velocity": 80,
                "duration": 0.39318181818181586,
                "tempo": 120.0
            },
            {
                "start_time": 18.925,
                "end_time": 20.129545454545454,
                "pitch": 48,
                "velocity": 80,
                "duration": 1.2045454545454533,
                "tempo": 120.0
            },
            {
                "start_time": 20.161363636363635,
                "end_time": 20.55681818181818,
                "pitch": 48,
                "velocity": 80,
                "duration": 0.3954545454545446,
                "tempo": 120.0
            },
            {
                "start_time": 20.59318181818182,
                "end_time": 21.80681818181818,
                "pitch": 41,
                "velocity": 80,
                "duration": 1.2136363636363612,
                "tempo": 120.0
            },
            {
                "start_time": 21.825,
                "end_time": 22.229545454545452,
                "pitch": 41,
                "velocity": 80,
                "duration": 0.40454545454545254,
                "tempo": 120.0
            },
            {
                "start_time": 22.245454545454546,
                "end_time": 23.03181818181818,
                "pitch": 41,
                "velocity": 80,
                "duration": 0.7863636363636353,
                "tempo": 120.0
            },
            {
                "start_time": 23.049999999999997,
                "end_time": 23.452272727272724,
                "pitch": 41,
                "velocity": 80,
                "duration": 0.40227272727272734,
                "tempo": 120.0
            },
            {
                "start_time": 23.46818181818182,
                "end_time": 23.863636363636363,
                "pitch": 43,
                "velocity": 80,
                "duration": 0.3954545454545446,
                "tempo": 120.0
            },
            {
                "start_time": 23.879545454545454,
                "end_time": 25.081818181818182,
                "pitch": 35,
                "velocity": 80,
                "duration": 1.202272727272728,
                "tempo": 120.0
            },
            {
                "start_time": 25.099999999999998,
                "end_time": 27.134090909090908,
                "pitch": 36,
                "velocity": 80,
                "duration": 2.03409090909091,
                "tempo": 120.0
            }
        ],
        "Oboe": [
            {
                "start_time": 0.015909090909090907,
                "end_time": 0.06818181818181818,
                "pitch": 81,
                "velocity": 51,
                "duration": 0.05227272727272727,
                "tempo": 120.0
            },
            {
                "start_time": 0.08409090909090909,
                "end_time": 0.2727272727272727,
                "pitch": 83,
                "velocity": 51,
                "duration": 0.1886363636363636,
                "tempo": 120.0
            },
            {
                "start_time": 0.2909090909090909,
                "end_time": 0.47727272727272724,
                "pitch": 84,
                "velocity": 51,
                "duration": 0.18636363636363634,
                "tempo": 120.0
            },
            {
                "start_time": 0.49318181818181817,
                "end_time": 0.8772727272727272,
                "pitch": 83,
                "velocity": 51,
                "duration": 0.38409090909090904,
                "tempo": 120.0
            },
            {
                "start_time": 0.8931818181818182,
                "end_time": 1.0727272727272728,
                "pitch": 77,
                "velocity": 51,
                "duration": 0.17954545454545456,
                "tempo": 120.0
            },
            {
                "start_time": 1.0886363636363636,
                "end_time": 2.102272727272727,
                "pitch": 67,
                "velocity": 51,
                "duration": 1.0136363636363634,
                "tempo": 120.0
            },
            {
                "start_time": 2.120454545454545,
                "end_time": 3.3318181818181816,
                "pitch": 72,
                "velocity": 51,
                "duration": 1.2113636363636364,
                "tempo": 120.0
            },
            {
                "start_time": 3.3499999999999996,
                "end_time": 3.5386363636363636,
                "pitch": 76,
                "velocity": 51,
                "duration": 0.18863636363636394,
                "tempo": 120.0
            },
            {
                "start_time": 3.5545454545454542,
                "end_time": 3.745454545454545,
                "pitch": 77,
                "velocity": 51,
                "duration": 0.19090909090909092,
                "tempo": 120.0
            },
            {
                "start_time": 3.7613636363636362,
                "end_time": 4.165909090909091,
                "pitch": 79,
                "velocity": 51,
                "duration": 0.40454545454545476,
                "tempo": 120.0
            },
            {
                "start_time": 4.184090909090909,
                "end_time": 4.372727272727272,
                "pitch": 71,
                "velocity": 51,
                "duration": 0.1886363636363635,
                "tempo": 120.0
            },
            {
                "start_time": 4.388636363636364,
                "end_time": 5.3977272727272725,
                "pitch": 67,
                "velocity": 51,
                "duration": 1.0090909090909088,
                "tempo": 120.0
            },
            {
                "start_time": 5.415909090909091,
                "end_time": 6.629545454545454,
                "pitch": 72,
                "velocity": 51,
                "duration": 1.213636363636363,
                "tempo": 120.0
            },
            {
                "start_time": 6.663636363636363,
                "end_time": 6.831818181818181,
                "pitch": 83,
                "velocity": 51,
                "duration": 0.168181818181818,
                "tempo": 120.0
            },
            {
                "start_time": 6.863636363636363,
                "end_time": 7.034090909090909,
                "pitch": 84,
                "velocity": 51,
                "duration": 0.17045454545454586,
                "tempo": 120.0
            },
            {
                "start_time": 7.0681818181818175,
                "end_time": 7.4431818181818175,
                "pitch": 83,
                "velocity": 51,
                "duration": 0.375,
                "tempo": 120.0
            },
            {
                "start_time": 7.477272727272727,
                "end_time": 7.6454545454545455,
                "pitch": 77,
                "velocity": 51,
                "duration": 0.16818181818181888,
                "tempo": 120.0
            },
            {
                "start_time": 7.677272727272727,
                "end_time": 8.693181818181818,
                "pitch": 67,
                "velocity": 51,
                "duration": 1.0159090909090915,
                "tempo": 120.0
            },
            {
                "start_time": 8.711363636363636,
                "end_time": 9.931818181818182,
                "pitch": 72,
                "velocity": 51,
                "duration": 1.2204545454545457,
                "tempo": 120.0
            },
            {
                "start_time": 9.95,
                "end_time": 10.134090909090908,
                "pitch": 76,
                "velocity": 51,
                "duration": 0.18409090909090864,
                "tempo": 120.0
            },
            {
                "start_time": 10.15,
                "end_time": 10.336363636363636,
                "pitch": 77,
                "velocity": 51,
                "duration": 0.18636363636363562,
                "tempo": 120.0
            },
            {
                "start_time": 10.352272727272727,
                "end_time": 10.745454545454544,
                "pitch": 79,
                "velocity": 51,
                "duration": 0.39318181818181763,
                "tempo": 120.0
            },
            {
                "start_time": 10.761363636363637,
                "end_time": 10.945454545454545,
                "pitch": 71,
                "velocity": 51,
                "duration": 0.18409090909090864,
                "tempo": 120.0
            },
            {
                "start_time": 10.961363636363636,
                "end_time": 11.970454545454546,
                "pitch": 67,
                "velocity": 51,
                "duration": 1.0090909090909097,
                "tempo": 120.0
            },
            {
                "start_time": 11.988636363636363,
                "end_time": 14.043181818181818,
                "pitch": 72,
                "velocity": 51,
                "duration": 2.0545454545454547,
                "tempo": 120.0
            },
            {
                "start_time": 14.059090909090909,
                "end_time": 14.870454545454544,
                "pitch": 76,
                "velocity": 51,
                "duration": 0.8113636363636356,
                "tempo": 120.0
            },
            {
                "start_time": 14.904545454545454,
                "end_time": 15.274999999999999,
                "pitch": 77,
                "velocity": 51,
                "duration": 0.37045454545454426,
                "tempo": 120.0
            },
            {
                "start_time": 15.311363636363636,
                "end_time": 16.08863636363636,
                "pitch": 77,
                "velocity": 51,
                "duration": 0.7772727272727256,
                "tempo": 120.0
            },
            {
                "start_time": 16.138636363636362,
                "end_time": 16.529545454545453,
                "pitch": 76,
                "velocity": 51,
                "duration": 0.39090909090909065,
                "tempo": 120.0
            },
            {
                "start_time": 16.547727272727272,
                "end_time": 16.927272727272726,
                "pitch": 77,
                "velocity": 51,
                "duration": 0.37954545454545396,
                "tempo": 120.0
            },
            {
                "start_time": 16.943181818181817,
                "end_time": 17.345454545454544,
                "pitch": 79,
                "velocity": 51,
                "duration": 0.40227272727272734,
                "tempo": 120.0
            },
            {
                "start_time": 17.361363636363635,
                "end_time": 17.409090909090907,
                "pitch": 83,
                "velocity": 51,
                "duration": 0.04772727272727195,
                "tempo": 120.0
            },
            {
                "start_time": 17.443181818181817,
                "end_time": 18.16590909090909,
                "pitch": 84,
                "velocity": 51,
                "duration": 0.7227272727272727,
                "tempo": 120.0
            },
            {
                "start_time": 18.18181818181818,
                "end_time": 18.974999999999998,
                "pitch": 83,
                "velocity": 51,
                "duration": 0.793181818181818,
                "tempo": 120.0
            },
            {
                "start_time": 18.993181818181817,
                "end_time": 19.802272727272726,
                "pitch": 77,
                "velocity": 51,
                "duration": 0.8090909090909086,
                "tempo": 120.0
            },
            {
                "start_time": 19.818181818181817,
                "end_time": 20.627272727272725,
                "pitch": 79,
                "velocity": 51,
                "duration": 0.8090909090909086,
                "tempo": 120.0
            },
            {
                "start_time": 20.645454545454545,
                "end_time": 21.456818181818182,
                "pitch": 76,
                "velocity": 51,
                "duration": 0.8113636363636374,
                "tempo": 120.0
            },
            {
                "start_time": 21.474999999999998,
                "end_time": 21.85909090909091,
                "pitch": 77,
                "velocity": 51,
                "duration": 0.3840909090909115,
                "tempo": 120.0
            },
            {
                "start_time": 21.877272727272725,
                "end_time": 22.672727272727272,
                "pitch": 77,
                "velocity": 51,
                "duration": 0.7954545454545467,
                "tempo": 120.0
            },
            {
                "start_time": 22.722727272727273,
                "end_time": 23.099999999999998,
                "pitch": 76,
                "velocity": 51,
                "duration": 0.3772727272727252,
                "tempo": 120.0
            },
            {
                "start_time": 23.134090909090908,
                "end_time": 23.502272727272725,
                "pitch": 77,
                "velocity": 51,
                "duration": 0.3681818181818173,
                "tempo": 120.0
            },
            {
                "start_time": 23.536363636363635,
                "end_time": 23.913636363636364,
                "pitch": 79,
                "velocity": 51,
                "duration": 0.37727272727272876,
                "tempo": 120.0
            },
            {
                "start_time": 23.945454545454545,
                "end_time": 24.74772727272727,
                "pitch": 71,
                "velocity": 51,
                "duration": 0.8022727272727259,
                "tempo": 120.0
            },
            {
                "start_time": 24.763636363636362,
                "end_time": 25.152272727272727,
                "pitch": 71,
                "velocity": 51,
                "duration": 0.38863636363636545,
                "tempo": 120.0
            },
            {
                "start_time": 25.170454545454543,
                "end_time": 27.134090909090908,
                "pitch": 72,
                "velocity": 51,
                "duration": 1.9636363636363647,
                "tempo": 120.0
            }
        ]
    }
}