{
    "track_id": "Shanghai (FM) - 07 - Unknown 1",
    "mood": "relaxed",
    "instruments": {
        "Vibraphone": [
            {
                "start_time": 0.013636363636363636,
                "end_time": 0.9681818181818181,
                "pitch": 77,
                "velocity": 80,
                "duration": 0.9545454545454545,
                "tempo": 120.0
            },
            {
                "start_time": 0.984090909090909,
                "end_time": 1.9159090909090908,
                "pitch": 75,
                "velocity": 80,
                "duration": 0.9318181818181818,
                "tempo": 120.0
            },
            {
                "start_time": 1.95,
                "end_time": 2.877272727272727,
                "pitch": 72,
                "velocity": 80,
                "duration": 0.927272727272727,
                "tempo": 120.0
            },
            {
                "start_time": 2.893181818181818,
                "end_time": 3.370454545454545,
                "pitch": 70,
                "velocity": 80,
                "duration": 0.47727272727272707,
                "tempo": 120.0
            },
            {
                "start_time": 3.3886363636363637,
                "end_time": 6.7295454545454545,
                "pitch": 72,
                "velocity": 80,
                "duration": 3.340909090909091,
                "tempo": 120.0
            },
            {
                "start_time": 6.761363636363636,
                "end_time": 7.699999999999999,
                "pitch": 87,
                "velocity": 80,
                "duration": 0.9386363636363635,
                "tempo": 120.0
            }
        ],
        "Electric Guitar (clean)": [
            {
                "start_time": 0.013636363636363636,
                "end_time": 0.2477272727272727,
                "pitch": 53,
                "velocity": 64,
                "duration": 0.23409090909090907,
                "tempo": 120.0
            },
            {
                "start_time": 0.2659090909090909,
                "end_time": 0.48409090909090907,
                "pitch": 51,
                "velocity": 64,
                "duration": 0.2181818181818182,
                "tempo": 120.0
            },
            {
                "start_time": 0.5,
                "end_time": 0.7181818181818181,
                "pitch": 48,
                "velocity": 64,
                "duration": 0.21818181818181814,
                "tempo": 120.0
            },
            {
                "start_time": 0.75,
                "end_time": 0.9681818181818181,
                "pitch": 46,
                "velocity": 64,
                "duration": 0.21818181818181814,
                "tempo": 120.0
            },
            {
                "start_time": 0.984090909090909,
                "end_time": 1.2,
                "pitch": 48,
                "velocity": 64,
                "duration": 0.21590909090909094,
                "tempo": 120.0
            },
            {
                "start_time": 1.218181818181818,
                "end_time": 1.45,
                "pitch": 46,
                "velocity": 64,
                "duration": 0.23181818181818192,
                "tempo": 120.0
            },
            {
                "start_time": 1.468181818181818,
                "end_time": 1.684090909090909,
                "pitch": 41,
                "velocity": 64,
                "duration": 0.21590909090909105,
                "tempo": 120.0
            },
            {
                "start_time": 1.7,
                "end_time": 1.9159090909090908,
                "pitch": 43,
                "velocity": 64,
                "duration": 0.21590909090909083,
                "tempo": 120.0
            },
            {
                "start_time": 1.95,
                "end_time": 2.172727272727273,
                "pitch": 46,
                "velocity": 64,
                "duration": 0.22272727272727288,
                "tempo": 120.0
            },
            {
                "start_time": 2.1886363636363635,
                "end_time": 2.411363636363636,
                "pitch": 48,
                "velocity": 64,
                "duration": 0.22272727272727266,
                "tempo": 120.0
            },
            {
                "start_time": 2.4272727272727272,
                "end_time": 2.6522727272727273,
                "pitch": 51,
                "velocity": 64,
                "duration": 0.2250000000000001,
                "tempo": 120.0
            },
            {
                "start_time": 2.668181818181818,
                "end_time": 2.877272727272727,
                "pitch": 53,
                "velocity": 64,
                "duration": 0.209090909090909,
                "tempo": 120.0
            },
            {
                "start_time": 2.893181818181818,
                "end_time": 3.1136363636363633,
                "pitch": 51,
                "velocity": 64,
                "duration": 0.22045454545454524,
                "tempo": 120.0
            },
            {
                "start_time": 3.1477272727272725,
                "end_time": 3.370454545454545,
                "pitch": 48,
                "velocity": 64,
                "duration": 0.22272727272727266,
                "tempo": 120.0
            },
            {
                "start_time": 3.3886363636363637,
                "end_time": 3.6045454545454545,
                "pitch": 46,
                "velocity": 64,
                "duration": 0.21590909090909083,
                "tempo": 120.0
            },
            {
                "start_time": 3.620454545454545,
                "end_time": 3.8545454545454545,
                "pitch": 48,
                "velocity": 64,
                "duration": 0.23409090909090935,
                "tempo": 120.0
            },
            {
                "start_time": 3.870454545454545,
                "end_time": 4.088636363636364,
                "pitch": 41,
                "velocity": 64,
                "duration": 0.2181818181818187,
                "tempo": 120.0
            },
            {
                "start_time": 4.1045454545454545,
                "end_time": 4.320454545454545,
                "pitch": 43,
                "velocity": 64,
                "duration": 0.21590909090909083,
                "tempo": 120.0
            },
            {
                "start_time": 4.3545454545454545,
                "end_time": 4.577272727272727,
                "pitch": 46,
                "velocity": 64,
                "duration": 0.22272727272727266,
                "tempo": 120.0
            },
            {
                "start_time": 4.593181818181818,
                "end_time": 4.8159090909090905,
                "pitch": 48,
                "velocity": 64,
                "duration": 0.22272727272727266,
                "tempo": 120.0
            },
            {
                "start_time": 4.831818181818182,
                "end_time": 5.0613636363636365,
                "pitch": 51,
                "velocity": 64,
                "duration": 0.2295454545454545,
                "tempo": 120.0
            },
            {
                "start_time": 5.079545454545454,
                "end_time": 5.290909090909091,
                "pitch": 53,
                "velocity": 64,
                "duration": 0.21136363636363686,
                "tempo": 120.0
            },
            {
                "start_time": 5.309090909090909,
                "end_time": 5.5204545454545455,
                "pitch": 51,
                "velocity": 64,
                "duration": 0.21136363636363686,
                "tempo": 120.0
            },
            {
                "start_time": 5.554545454545455,
                "end_time": 5.768181818181818,
                "pitch": 48,
                "velocity": 64,
                "duration": 0.21363636363636296,
                "tempo": 120.0
            },
            {
                "start_time": 5.784090909090909,
                "end_time": 6.006818181818182,
                "pitch": 53,
                "velocity": 64,
                "duration": 0.22272727272727266,
                "tempo": 120.0
            },
            {
                "start_time": 6.0227272727272725,
                "end_time": 6.261363636363636,
                "pitch": 51,
                "velocity": 64,
                "duration": 0.2386363636363633,
                "tempo": 120.0
            },
            {
                "start_time": 6.279545454545454,
                "end_time": 6.495454545454545,
                "pitch": 48,
                "velocity": 64,
                "duration": 0.21590909090909083,
                "tempo": 120.0
            },
            {
                "start_time": 6.511363636363636,
                "end_time": 6.7295454545454545,
                "pitch": 46,
                "velocity": 64,
                "duration": 0.2181818181818187,
                "tempo": 120.0
            },
            {
                "start_time": 6.761363636363636,
                "end_time": 7.699999999999999,
                "pitch": 67,
                "velocity": 64,
                "duration": 0.9386363636363635,
                "tempo": 120.0
            }
        ],
        "Oboe": [
            {
                "start_time": 0.013636363636363636,
                "end_time": 0.07954545454545454,
                "pitch": 58,
                "velocity": 40,
                "duration": 0.0659090909090909,
                "tempo": 120.0
            },
            {
                "start_time": 0.09772727272727272,
                "end_time": 1.05,
                "pitch": 77,
                "velocity": 40,
                "duration": 0.9522727272727274,
                "tempo": 120.0
            },
            {
                "start_time": 1.0681818181818181,
                "end_time": 2.002272727272727,
                "pitch": 75,
                "velocity": 40,
                "duration": 0.9340909090909089,
                "tempo": 120.0
            },
            {
                "start_time": 2.018181818181818,
                "end_time": 2.9613636363636364,
                "pitch": 72,
                "velocity": 40,
                "duration": 0.9431818181818183,
                "tempo": 120.0
            },
            {
                "start_time": 2.977272727272727,
                "end_time": 3.4545454545454546,
                "pitch": 70,
                "velocity": 40,
                "duration": 0.4772727272727275,
                "tempo": 120.0
            },
            {
                "start_time": 3.4704545454545452,
                "end_time": 6.8136363636363635,
                "pitch": 72,
                "velocity": 40,
                "duration": 3.3431818181818183,
                "tempo": 120.0
            },
            {
                "start_time": 6.831818181818181,
                "end_time": 7.699999999999999,
                "pitch": 87,
                "velocity": 40,
                "duration": 0.8681818181818182,
                "tempo": 120.0
            }
        ],
        "Acoustic Grand Piano": [
            {
                "start_time": 0.013636363636363636,
                "end_time": 0.2477272727272727,
                "pitch": 65,
                "velocity": 80,
                "duration": 0.23409090909090907,
                "tempo": 120.0
            },
            {
                "start_time": 0.2659090909090909,
                "end_time": 0.48409090909090907,
                "pitch": 63,
                "velocity": 80,
                "duration": 0.2181818181818182,
                "tempo": 120.0
            },
            {
                "start_time": 0.5,
                "end_time": 0.7181818181818181,
                "pitch": 60,
                "velocity": 80,
                "duration": 0.21818181818181814,
                "tempo": 120.0
            },
            {
                "start_time": 0.75,
                "end_time": 0.9681818181818181,
                "pitch": 58,
                "velocity": 80,
                "duration": 0.21818181818181814,
                "tempo": 120.0
            },
            {
                "start_time": 0.984090909090909,
                "end_time": 1.2,
                "pitch": 60,
                "velocity": 80,
                "duration": 0.21590909090909094,
                "tempo": 120.0
            },
            {
                "start_time": 1.218181818181818,
                "end_time": 1.45,
                "pitch": 58,
                "velocity": 80,
                "duration": 0.23181818181818192,
                "tempo": 120.0
            },
            {
                "start_time": 1.468181818181818,
                "end_time": 1.684090909090909,
                "pitch": 53,
                "velocity": 80,
                "duration": 0.21590909090909105,
                "tempo": 120.0
            },
            {
                "start_time": 1.7,
                "end_time": 1.9159090909090908,
                "pitch": 55,
                "velocity": 80,
                "duration": 0.21590909090909083,
                "tempo": 120.0
            },
            {
                "start_time": 1.95,
                "end_time": 2.172727272727273,
                "pitch": 58,
                "velocity": 80,
                "duration": 0.22272727272727288,
                "tempo": 120.0
            },
            {
                "start_time": 2.1886363636363635,
                "end_time": 2.411363636363636,
                "pitch": 60,
                "velocity": 80,
                "duration": 0.22272727272727266,
                "tempo": 120.0
            },
            {
                "start_time": 2.4272727272727272,
                "end_time": 2.6522727272727273,
                "pitch": 63,
                "velocity": 80,
                "duration": 0.2250000000000001,
                "tempo": 120.0
            },
            {
                "start_time": 2.668181818181818,
                "end_time": 2.877272727272727,
                "pitch": 65,
                "velocity": 80,
                "duration": 0.209090909090909,
                "tempo": 120.0
            },
            {
                "start_time": 2.893181818181818,
                "end_time": 3.1136363636363633,
                "pitch": 63,
                "velocity": 80,
                "duration": 0.22045454545454524,
                "tempo": 120.0
            },
            {
                "start_time": 3.1477272727272725,
                "end_time": 3.370454545454545,
                "pitch": 60,
                "velocity": 80,
                "duration": 0.22272727272727266,
                "tempo": 120.0
            },
            {
                "start_time": 3.3886363636363637,
                "end_time": 3.6045454545454545,
                "pitch": 58,
                "velocity": 80,
                "duration": 0.21590909090909083,
                "tempo": 120.0
            },
            {
                "start_time": 3.620454545454545,
                "end_time": 3.8545454545454545,
                "pitch": 60,
                "velocity": 80,
                "duration": 0.23409090909090935,
                "tempo": 120.0
            },
            {
                "start_time": 3.870454545454545,
                "end_time": 4.088636363636364,
                "pitch": 53,
                "velocity": 80,
                "duration": 0.2181818181818187,
                "tempo": 120.0
            },
            {
                "start_time": 4.1045454545454545,
                "end_time": 4.320454545454545,
                "pitch": 55,
                "velocity": 80,
                "duration": 0.21590909090909083,
                "tempo": 120.0
            },
            {
                "start_time": 4.3545454545454545,
                "end_time": 4.577272727272727,
                "pitch": 58,
                "velocity": 80,
                "duration": 0.22272727272727266,
                "tempo": 120.0
            },
            {
                "start_time": 4.593181818181818,
                "end_time": 4.8159090909090905,
                "pitch": 60,
                "velocity": 80,
                "duration": 0.22272727272727266,
                "tempo": 120.0
            },
            {
                "start_time": 4.831818181818182,
                "end_time": 5.0613636363636365,
                "pitch": 63,
                "velocity": 80,
                "duration": 0.2295454545454545,
                "tempo": 120.0
            },
            {
                "start_time": 5.079545454545454,
                "end_time": 5.290909090909091,
                "pitch": 65,
                "velocity": 80,
                "duration": 0.21136363636363686,
                "tempo": 120.0
            },
            {
                "start_time": 5.309090909090909,
                "end_time": 5.5204545454545455,
                "pitch": 63,
                "velocity": 80,
                "duration": 0.21136363636363686,
                "tempo": 120.0
            },
            {
                "start_time": 5.554545454545455,
                "end_time": 5.768181818181818,
                "pitch": 60,
                "velocity": 80,
                "duration": 0.21363636363636296,
                "tempo": 120.0
            },
            {
                "start_time": 5.784090909090909,
                "end_time": 6.006818181818182,
                "pitch": 65,
                "velocity": 80,
                "duration": 0.22272727272727266,
                "tempo": 120.0
            },
            {
                "start_time": 6.0227272727272725,
                "end_time": 6.261363636363636,
                "pitch": 63,
                "velocity": 80,
                "duration": 0.2386363636363633,
                "tempo": 120.0
            },
            {
                "start_time": 6.279545454545454,
                "end_time": 6.495454545454545,
                "pitch": 60,
                "velocity": 80,
                "duration": 0.21590909090909083,
                "tempo": 120.0
            },
            {
                "start_time": 6.511363636363636,
                "end_time": 6.7295454545454545,
                "pitch": 58,
                "velocity": 80,
                "duration": 0.2181818181818187,
                "tempo": 120.0
            },
            {
                "start_time": 6.761363636363636,
                "end_time": 7.699999999999999,
                "pitch": 79,
                "velocity": 80,
                "duration": 0.9386363636363635,
                "tempo": 120.0
            }
        ]
    }
}