{
    "track_id": "Sky_Adventure_(Alpha-68K)_16 Game Over",
    "mood": "relaxed",
    "instruments": {
        "Trumpet": [
            {
                "start_time": 0.15454545454545454,
                "end_time": 3.2545454545454544,
                "pitch": 60,
                "velocity": 80,
                "duration": 3.0999999999999996,
                "tempo": 120.0
            },
            {
                "start_time": 3.881818181818182,
                "end_time": 5.388636363636364,
                "pitch": 65,
                "velocity": 80,
                "duration": 1.5068181818181818,
                "tempo": 120.0
            },
            {
                "start_time": 5.6909090909090905,
                "end_time": 7.220454545454545,
                "pitch": 68,
                "velocity": 80,
                "duration": 1.5295454545454543,
                "tempo": 120.0
            },
            {
                "start_time": 7.538636363636363,
                "end_time": 12.772727272727272,
                "pitch": 64,
                "velocity": 80,
                "duration": 5.2340909090909085,
                "tempo": 120.0
            }
        ],
        "French Horn": [
            {
                "start_time": 0.045454545454545456,
                "end_time": 2.3477272727272727,
                "pitch": 60,
                "velocity": 127,
                "duration": 2.3022727272727272,
                "tempo": 120.0
            },
            {
                "start_time": 2.506818181818182,
                "end_time": 2.9795454545454545,
                "pitch": 55,
                "velocity": 127,
                "duration": 0.47272727272727266,
                "tempo": 120.0
            },
            {
                "start_time": 0.045454545454545456,
                "end_time": 3.1386363636363637,
                "pitch": 0,
                "velocity": 127,
                "duration": 3.0931818181818183,
                "tempo": 120.0
            },
            {
                "start_time": 3.1386363636363637,
                "end_time": 3.609090909090909,
                "pitch": 60,
                "velocity": 127,
                "duration": 0.47045454545454524,
                "tempo": 120.0
            },
            {
                "start_time": 3.770454545454545,
                "end_time": 5.2749999999999995,
                "pitch": 62,
                "velocity": 127,
                "duration": 1.5045454545454544,
                "tempo": 120.0
            },
            {
                "start_time": 5.577272727272727,
                "end_time": 7.1068181818181815,
                "pitch": 56,
                "velocity": 127,
                "duration": 1.5295454545454543,
                "tempo": 120.0
            },
            {
                "start_time": 7.41590909090909,
                "end_time": 12.638636363636364,
                "pitch": 56,
                "velocity": 127,
                "duration": 5.2227272727272736,
                "tempo": 120.0
            }
        ],
        "Vibraphone": [
            {
                "start_time": 0.04772727272727272,
                "end_time": 3.1386363636363637,
                "pitch": 72,
                "velocity": 101,
                "duration": 3.090909090909091,
                "tempo": 120.0
            },
            {
                "start_time": 3.7727272727272725,
                "end_time": 5.2749999999999995,
                "pitch": 74,
                "velocity": 101,
                "duration": 1.502272727272727,
                "tempo": 120.0
            },
            {
                "start_time": 5.579545454545454,
                "end_time": 6.379545454545454,
                "pitch": 77,
                "velocity": 101,
                "duration": 0.7999999999999998,
                "tempo": 120.0
            },
            {
                "start_time": 6.495454545454545,
                "end_time": 6.877272727272727,
                "pitch": 77,
                "velocity": 101,
                "duration": 0.38181818181818183,
                "tempo": 120.0
            },
            {
                "start_time": 5.579545454545454,
                "end_time": 7.334090909090909,
                "pitch": 74,
                "velocity": 101,
                "duration": 1.7545454545454549,
                "tempo": 120.0
            },
            {
                "start_time": 6.952272727272727,
                "end_time": 7.334090909090909,
                "pitch": 74,
                "velocity": 101,
                "duration": 0.38181818181818183,
                "tempo": 120.0
            },
            {
                "start_time": 3.7727272727272725,
                "end_time": 7.852272727272727,
                "pitch": 72,
                "velocity": 101,
                "duration": 4.079545454545454,
                "tempo": 120.0
            },
            {
                "start_time": 7.41590909090909,
                "end_time": 7.852272727272727,
                "pitch": 72,
                "velocity": 101,
                "duration": 0.4363636363636365,
                "tempo": 120.0
            },
            {
                "start_time": 6.952272727272727,
                "end_time": 8.386363636363637,
                "pitch": 76,
                "velocity": 101,
                "duration": 1.4340909090909095,
                "tempo": 120.0
            },
            {
                "start_time": 7.9409090909090905,
                "end_time": 8.386363636363637,
                "pitch": 76,
                "velocity": 101,
                "duration": 0.4454545454545462,
                "tempo": 120.0
            },
            {
                "start_time": 8.477272727272727,
                "end_time": 8.922727272727272,
                "pitch": 79,
                "velocity": 101,
                "duration": 0.4454545454545453,
                "tempo": 120.0
            },
            {
                "start_time": 9.011363636363637,
                "end_time": 9.461363636363636,
                "pitch": 83,
                "velocity": 101,
                "duration": 0.4499999999999993,
                "tempo": 120.0
            },
            {
                "start_time": 7.41590909090909,
                "end_time": 9.69090909090909,
                "pitch": 74,
                "velocity": 101,
                "duration": 2.2749999999999995,
                "tempo": 120.0
            },
            {
                "start_time": 9.554545454545455,
                "end_time": 9.69090909090909,
                "pitch": 74,
                "velocity": 101,
                "duration": 0.1363636363636349,
                "tempo": 120.0
            },
            {
                "start_time": 9.738636363636363,
                "end_time": 9.877272727272727,
                "pitch": 84,
                "velocity": 101,
                "duration": 0.13863636363636367,
                "tempo": 120.0
            },
            {
                "start_time": 9.922727272727272,
                "end_time": 10.061363636363636,
                "pitch": 88,
                "velocity": 101,
                "duration": 0.13863636363636367,
                "tempo": 120.0
            },
            {
                "start_time": 10.10681818181818,
                "end_time": 10.245454545454544,
                "pitch": 91,
                "velocity": 101,
                "duration": 0.13863636363636367,
                "tempo": 120.0
            },
            {
                "start_time": 0.04772727272727272,
                "end_time": 10.290909090909091,
                "pitch": 0,
                "velocity": 101,
                "duration": 10.243181818181819,
                "tempo": 120.0
            },
            {
                "start_time": 10.290909090909091,
                "end_time": 11.211363636363636,
                "pitch": 98,
                "velocity": 101,
                "duration": 0.920454545454545,
                "tempo": 120.0
            }
        ]
    }
}