{
    "track_id": "Solomon no Kagi (FM) - 08 - Ending",
    "mood": "relaxed",
    "instruments": {
        "Acoustic Grand Piano": [
            {
                "start_time": 29.29090909090909,
                "end_time": 29.438636363636363,
                "pitch": 70,
                "velocity": 64,
                "duration": 0.14772727272727337,
                "tempo": 120.0
            },
            {
                "start_time": 29.486363636363635,
                "end_time": 29.799999999999997,
                "pitch": 72,
                "velocity": 64,
                "duration": 0.3136363636363626,
                "tempo": 120.0
            },
            {
                "start_time": 30.486363636363635,
                "end_time": 30.802272727272726,
                "pitch": 69,
                "velocity": 64,
                "duration": 0.31590909090909136,
                "tempo": 120.0
            },
            {
                "start_time": 30.886363636363633,
                "end_time": 31.036363636363635,
                "pitch": 70,
                "velocity": 64,
                "duration": 0.15000000000000213,
                "tempo": 120.0
            },
            {
                "start_time": 31.08863636363636,
                "end_time": 31.404545454545453,
                "pitch": 72,
                "velocity": 64,
                "duration": 0.31590909090909136,
                "tempo": 120.0
            },
            {
                "start_time": 32.08863636363636,
                "end_time": 32.40681818181818,
                "pitch": 74,
                "velocity": 64,
                "duration": 0.3181818181818201,
                "tempo": 120.0
            },
            {
                "start_time": 32.49090909090909,
                "end_time": 32.81136363636364,
                "pitch": 76,
                "velocity": 64,
                "duration": 0.3204545454545453,
                "tempo": 120.0
            },
            {
                "start_time": 32.893181818181816,
                "end_time": 33.211363636363636,
                "pitch": 77,
                "velocity": 64,
                "duration": 0.3181818181818201,
                "tempo": 120.0
            },
            {
                "start_time": 33.293181818181814,
                "end_time": 33.44318181818181,
                "pitch": 79,
                "velocity": 64,
                "duration": 0.14999999999999858,
                "tempo": 120.0
            },
            {
                "start_time": 33.49318181818182,
                "end_time": 33.809090909090905,
                "pitch": 81,
                "velocity": 64,
                "duration": 0.3159090909090878,
                "tempo": 120.0
            },
            {
                "start_time": 33.89090909090909,
                "end_time": 34.20227272727273,
                "pitch": 79,
                "velocity": 64,
                "duration": 0.3113636363636374,
                "tempo": 120.0
            },
            {
                "start_time": 34.28636363636363,
                "end_time": 34.43636363636364,
                "pitch": 77,
                "velocity": 64,
                "duration": 0.15000000000000568,
                "tempo": 120.0
            },
            {
                "start_time": 34.486363636363635,
                "end_time": 34.820454545454545,
                "pitch": 76,
                "velocity": 64,
                "duration": 0.33409090909091077,
                "tempo": 120.0
            },
            {
                "start_time": 34.90909090909091,
                "end_time": 35.21818181818182,
                "pitch": 74,
                "velocity": 64,
                "duration": 0.3090909090909122,
                "tempo": 120.0
            },
            {
                "start_time": 35.3,
                "end_time": 35.61818181818182,
                "pitch": 69,
                "velocity": 64,
                "duration": 0.3181818181818201,
                "tempo": 120.0
            },
            {
                "start_time": 35.699999999999996,
                "end_time": 35.85,
                "pitch": 70,
                "velocity": 64,
                "duration": 0.15000000000000568,
                "tempo": 120.0
            },
            {
                "start_time": 35.9,
                "end_time": 36.21818181818182,
                "pitch": 72,
                "velocity": 64,
                "duration": 0.3181818181818201,
                "tempo": 120.0
            },
            {
                "start_time": 36.902272727272724,
                "end_time": 37.220454545454544,
                "pitch": 69,
                "velocity": 64,
                "duration": 0.3181818181818201,
                "tempo": 120.0
            },
            {
                "start_time": 37.30227272727272,
                "end_time": 37.45227272727273,
                "pitch": 70,
                "velocity": 64,
                "duration": 0.15000000000000568,
                "tempo": 120.0
            },
            {
                "start_time": 37.502272727272725,
                "end_time": 37.820454545454545,
                "pitch": 72,
                "velocity": 64,
                "duration": 0.3181818181818201,
                "tempo": 120.0
            },
            {
                "start_time": 38.502272727272725,
                "end_time": 38.82272727272727,
                "pitch": 74,
                "velocity": 64,
                "duration": 0.3204545454545453,
                "tempo": 120.0
            },
            {
                "start_time": 38.90681818181818,
                "end_time": 39.22272727272727,
                "pitch": 76,
                "velocity": 64,
                "duration": 0.3159090909090878,
                "tempo": 120.0
            },
            {
                "start_time": 39.30681818181818,
                "end_time": 39.63181818181818,
                "pitch": 77,
                "velocity": 64,
                "duration": 0.32500000000000284,
                "tempo": 120.0
            },
            {
                "start_time": 39.715909090909086,
                "end_time": 39.86363636363636,
                "pitch": 79,
                "velocity": 64,
                "duration": 0.14772727272727337,
                "tempo": 120.0
            },
            {
                "start_time": 39.913636363636364,
                "end_time": 40.22272727272727,
                "pitch": 81,
                "velocity": 64,
                "duration": 0.3090909090909051,
                "tempo": 120.0
            },
            {
                "start_time": 40.304545454545455,
                "end_time": 40.61818181818182,
                "pitch": 79,
                "velocity": 64,
                "duration": 0.3136363636363626,
                "tempo": 120.0
            },
            {
                "start_time": 40.699999999999996,
                "end_time": 40.85,
                "pitch": 77,
                "velocity": 64,
                "duration": 0.15000000000000568,
                "tempo": 120.0
            },
            {
                "start_time": 40.902272727272724,
                "end_time": 41.22727272727273,
                "pitch": 81,
                "velocity": 64,
                "duration": 0.32500000000000284,
                "tempo": 120.0
            },
            {
                "start_time": 41.31136363636364,
                "end_time": 41.62954545454545,
                "pitch": 79,
                "velocity": 64,
                "duration": 0.318181818181813,
                "tempo": 120.0
            },
            {
                "start_time": 41.72954545454545,
                "end_time": 42.03636363636363,
                "pitch": 82,
                "velocity": 64,
                "duration": 0.3068181818181799,
                "tempo": 120.0
            },
            {
                "start_time": 42.31818181818181,
                "end_time": 42.465909090909086,
                "pitch": 81,
                "velocity": 64,
                "duration": 0.14772727272727337,
                "tempo": 120.0
            },
            {
                "start_time": 42.51590909090909,
                "end_time": 43.15454545454545,
                "pitch": 81,
                "velocity": 64,
                "duration": 0.6386363636363583,
                "tempo": 120.0
            },
            {
                "start_time": 43.31818181818181,
                "end_time": 43.643181818181816,
                "pitch": 79,
                "velocity": 64,
                "duration": 0.32500000000000284,
                "tempo": 120.0
            },
            {
                "start_time": 43.925,
                "end_time": 44.070454545454545,
                "pitch": 77,
                "velocity": 64,
                "duration": 0.14545454545454817,
                "tempo": 120.0
            },
            {
                "start_time": 44.12045454545454,
                "end_time": 44.75909090909091,
                "pitch": 77,
                "velocity": 64,
                "duration": 0.6386363636363654,
                "tempo": 120.0
            },
            {
                "start_time": 44.92272727272727,
                "end_time": 45.24772727272727,
                "pitch": 82,
                "velocity": 64,
                "duration": 0.32499999999999574,
                "tempo": 120.0
            },
            {
                "start_time": 45.52954545454545,
                "end_time": 45.67727272727272,
                "pitch": 84,
                "velocity": 64,
                "duration": 0.14772727272727337,
                "tempo": 120.0
            },
            {
                "start_time": 45.724999999999994,
                "end_time": 46.36363636363636,
                "pitch": 84,
                "velocity": 64,
                "duration": 0.6386363636363654,
                "tempo": 120.0
            },
            {
                "start_time": 48.15,
                "end_time": 48.449999999999996,
                "pitch": 82,
                "velocity": 64,
                "duration": 0.29999999999999716,
                "tempo": 120.0
            },
            {
                "start_time": 48.73409090909091,
                "end_time": 48.88636363636363,
                "pitch": 81,
                "velocity": 64,
                "duration": 0.15227272727272378,
                "tempo": 120.0
            },
            {
                "start_time": 48.93636363636364,
                "end_time": 49.574999999999996,
                "pitch": 81,
                "velocity": 64,
                "duration": 0.6386363636363583,
                "tempo": 120.0
            },
            {
                "start_time": 49.73863636363636,
                "end_time": 50.06363636363636,
                "pitch": 79,
                "velocity": 64,
                "duration": 0.32500000000000284,
                "tempo": 120.0
            },
            {
                "start_time": 50.345454545454544,
                "end_time": 50.49318181818182,
                "pitch": 77,
                "velocity": 64,
                "duration": 0.14772727272727337,
                "tempo": 120.0
            },
            {
                "start_time": 50.54090909090909,
                "end_time": 51.18181818181818,
                "pitch": 77,
                "velocity": 64,
                "duration": 0.6409090909090907,
                "tempo": 120.0
            },
            {
                "start_time": 51.345454545454544,
                "end_time": 51.67045454545454,
                "pitch": 82,
                "velocity": 64,
                "duration": 0.32499999999999574,
                "tempo": 120.0
            },
            {
                "start_time": 51.949999999999996,
                "end_time": 52.09772727272727,
                "pitch": 84,
                "velocity": 64,
                "duration": 0.14772727272727337,
                "tempo": 120.0
            },
            {
                "start_time": 52.14772727272727,
                "end_time": 52.78636363636363,
                "pitch": 84,
                "velocity": 64,
                "duration": 0.6386363636363583,
                "tempo": 120.0
            },
            {
                "start_time": 54.56590909090909,
                "end_time": 55.18863636363636,
                "pitch": 74,
                "velocity": 64,
                "duration": 0.6227272727272748,
                "tempo": 120.0
            },
            {
                "start_time": 55.752272727272725,
                "end_time": 56.07727272727273,
                "pitch": 74,
                "velocity": 64,
                "duration": 0.32500000000000284,
                "tempo": 120.0
            },
            {
                "start_time": 56.163636363636364,
                "end_time": 56.47954545454545,
                "pitch": 76,
                "velocity": 64,
                "duration": 0.3159090909090878,
                "tempo": 120.0
            },
            {
                "start_time": 56.76363636363636,
                "end_time": 57.07727272727273,
                "pitch": 72,
                "velocity": 64,
                "duration": 0.3136363636363697,
                "tempo": 120.0
            },
            {
                "start_time": 57.35681818181818,
                "end_time": 57.68181818181818,
                "pitch": 76,
                "velocity": 64,
                "duration": 0.32500000000000284,
                "tempo": 120.0
            },
            {
                "start_time": 57.76590909090909,
                "end_time": 57.918181818181814,
                "pitch": 81,
                "velocity": 64,
                "duration": 0.15227272727272378,
                "tempo": 120.0
            },
            {
                "start_time": 57.96818181818182,
                "end_time": 58.11818181818182,
                "pitch": 79,
                "velocity": 64,
                "duration": 0.14999999999999858,
                "tempo": 120.0
            },
            {
                "start_time": 58.168181818181814,
                "end_time": 58.31818181818181,
                "pitch": 77,
                "velocity": 64,
                "duration": 0.14999999999999858,
                "tempo": 120.0
            },
            {
                "start_time": 58.36818181818182,
                "end_time": 58.518181818181816,
                "pitch": 79,
                "velocity": 64,
                "duration": 0.14999999999999858,
                "tempo": 120.0
            },
            {
                "start_time": 58.56818181818181,
                "end_time": 58.715909090909086,
                "pitch": 77,
                "velocity": 64,
                "duration": 0.14772727272727337,
                "tempo": 120.0
            },
            {
                "start_time": 58.76590909090909,
                "end_time": 58.91136363636363,
                "pitch": 76,
                "velocity": 64,
                "duration": 0.14545454545454106,
                "tempo": 120.0
            },
            {
                "start_time": 58.961363636363636,
                "end_time": 59.115909090909085,
                "pitch": 77,
                "velocity": 64,
                "duration": 0.154545454545449,
                "tempo": 120.0
            },
            {
                "start_time": 59.16590909090909,
                "end_time": 59.320454545454545,
                "pitch": 76,
                "velocity": 64,
                "duration": 0.1545454545454561,
                "tempo": 120.0
            },
            {
                "start_time": 59.37272727272727,
                "end_time": 60.006818181818176,
                "pitch": 74,
                "velocity": 64,
                "duration": 0.6340909090909079,
                "tempo": 120.0
            },
            {
                "start_time": 60.97727272727273,
                "end_time": 61.127272727272725,
                "pitch": 70,
                "velocity": 64,
                "duration": 0.14999999999999858,
                "tempo": 120.0
            },
            {
                "start_time": 61.17727272727272,
                "end_time": 61.32727272727272,
                "pitch": 72,
                "velocity": 64,
                "duration": 0.14999999999999858,
                "tempo": 120.0
            },
            {
                "start_time": 61.377272727272725,
                "end_time": 61.527272727272724,
                "pitch": 74,
                "velocity": 64,
                "duration": 0.14999999999999858,
                "tempo": 120.0
            },
            {
                "start_time": 61.57727272727272,
                "end_time": 61.72727272727273,
                "pitch": 76,
                "velocity": 64,
                "duration": 0.15000000000000568,
                "tempo": 120.0
            },
            {
                "start_time": 61.777272727272724,
                "end_time": 61.925,
                "pitch": 77,
                "velocity": 64,
                "duration": 0.14772727272727337,
                "tempo": 120.0
            },
            {
                "start_time": 61.97272727272727,
                "end_time": 62.12045454545454,
                "pitch": 76,
                "velocity": 64,
                "duration": 0.14772727272727337,
                "tempo": 120.0
            },
            {
                "start_time": 62.17045454545454,
                "end_time": 62.32272727272727,
                "pitch": 74,
                "velocity": 64,
                "duration": 0.1522727272727309,
                "tempo": 120.0
            },
            {
                "start_time": 62.375,
                "end_time": 62.52954545454545,
                "pitch": 76,
                "velocity": 64,
                "duration": 0.154545454545449,
                "tempo": 120.0
            },
            {
                "start_time": 62.57954545454545,
                "end_time": 62.72954545454545,
                "pitch": 81,
                "velocity": 64,
                "duration": 0.14999999999999858,
                "tempo": 120.0
            },
            {
                "start_time": 62.77954545454545,
                "end_time": 62.929545454545455,
                "pitch": 79,
                "velocity": 64,
                "duration": 0.15000000000000568,
                "tempo": 120.0
            },
            {
                "start_time": 62.97954545454545,
                "end_time": 63.12954545454545,
                "pitch": 77,
                "velocity": 64,
                "duration": 0.14999999999999858,
                "tempo": 120.0
            },
            {
                "start_time": 63.179545454545455,
                "end_time": 63.32954545454545,
                "pitch": 79,
                "velocity": 64,
                "duration": 0.14999999999999858,
                "tempo": 120.0
            },
            {
                "start_time": 63.37954545454545,
                "end_time": 63.527272727272724,
                "pitch": 77,
                "velocity": 64,
                "duration": 0.14772727272727337,
                "tempo": 120.0
            },
            {
                "start_time": 63.57727272727272,
                "end_time": 63.72272727272727,
                "pitch": 76,
                "velocity": 64,
                "duration": 0.14545454545454817,
                "tempo": 120.0
            },
            {
                "start_time": 63.772727272727266,
                "end_time": 63.92727272727272,
                "pitch": 74,
                "velocity": 64,
                "duration": 0.1545454545454561,
                "tempo": 120.0
            },
            {
                "start_time": 63.97727272727273,
                "end_time": 64.13181818181818,
                "pitch": 76,
                "velocity": 64,
                "duration": 0.154545454545449,
                "tempo": 120.0
            },
            {
                "start_time": 64.18409090909091,
                "end_time": 64.3340909090909,
                "pitch": 74,
                "velocity": 64,
                "duration": 0.14999999999999147,
                "tempo": 120.0
            },
            {
                "start_time": 64.3840909090909,
                "end_time": 64.5340909090909,
                "pitch": 76,
                "velocity": 64,
                "duration": 0.15000000000000568,
                "tempo": 120.0
            },
            {
                "start_time": 64.5840909090909,
                "end_time": 64.73409090909091,
                "pitch": 77,
                "velocity": 64,
                "duration": 0.15000000000000568,
                "tempo": 120.0
            },
            {
                "start_time": 64.7840909090909,
                "end_time": 64.93409090909091,
                "pitch": 79,
                "velocity": 64,
                "duration": 0.15000000000000568,
                "tempo": 120.0
            },
            {
                "start_time": 64.98409090909091,
                "end_time": 65.29318181818182,
                "pitch": 81,
                "velocity": 64,
                "duration": 0.3090909090909122,
                "tempo": 120.0
            },
            {
                "start_time": 65.375,
                "end_time": 65.69545454545454,
                "pitch": 82,
                "velocity": 64,
                "duration": 0.3204545454545382,
                "tempo": 120.0
            },
            {
                "start_time": 65.77727272727273,
                "end_time": 66.41363636363636,
                "pitch": 84,
                "velocity": 64,
                "duration": 0.636363636363626,
                "tempo": 120.0
            },
            {
                "start_time": 66.58181818181818,
                "end_time": 67.2159090909091,
                "pitch": 81,
                "velocity": 64,
                "duration": 0.634090909090915,
                "tempo": 120.0
            },
            {
                "start_time": 67.3840909090909,
                "end_time": 68.65681818181818,
                "pitch": 77,
                "velocity": 64,
                "duration": 1.2727272727272805,
                "tempo": 120.0
            },
            {
                "start_time": 71.00681818181818,
                "end_time": 71.31818181818181,
                "pitch": 82,
                "velocity": 64,
                "duration": 0.3113636363636374,
                "tempo": 120.0
            },
            {
                "start_time": 71.39999999999999,
                "end_time": 71.71818181818182,
                "pitch": 81,
                "velocity": 64,
                "duration": 0.3181818181818272,
                "tempo": 120.0
            },
            {
                "start_time": 71.80227272727272,
                "end_time": 72.12727272727273,
                "pitch": 79,
                "velocity": 64,
                "duration": 0.32500000000000284,
                "tempo": 120.0
            },
            {
                "start_time": 72.21363636363635,
                "end_time": 72.52499999999999,
                "pitch": 77,
                "velocity": 64,
                "duration": 0.3113636363636374,
                "tempo": 120.0
            },
            {
                "start_time": 72.60454545454544,
                "end_time": 72.92954545454545,
                "pitch": 76,
                "velocity": 64,
                "duration": 0.32500000000000284,
                "tempo": 120.0
            },
            {
                "start_time": 73.01590909090909,
                "end_time": 73.16363636363636,
                "pitch": 74,
                "velocity": 64,
                "duration": 0.14772727272726627,
                "tempo": 120.0
            },
            {
                "start_time": 73.21136363636363,
                "end_time": 73.52499999999999,
                "pitch": 76,
                "velocity": 64,
                "duration": 0.3136363636363626,
                "tempo": 120.0
            },
            {
                "start_time": 73.60909090909091,
                "end_time": 73.92727272727272,
                "pitch": 77,
                "velocity": 64,
                "duration": 0.318181818181813,
                "tempo": 120.0
            },
            {
                "start_time": 77.425,
                "end_time": 77.74318181818181,
                "pitch": 74,
                "velocity": 64,
                "duration": 0.318181818181813,
                "tempo": 120.0
            },
            {
                "start_time": 77.82727272727273,
                "end_time": 77.97727272727272,
                "pitch": 82,
                "velocity": 64,
                "duration": 0.14999999999999147,
                "tempo": 120.0
            },
            {
                "start_time": 78.02727272727272,
                "end_time": 78.34772727272727,
                "pitch": 81,
                "velocity": 64,
                "duration": 0.32045454545455243,
                "tempo": 120.0
            },
            {
                "start_time": 78.43181818181817,
                "end_time": 78.75227272727273,
                "pitch": 79,
                "velocity": 64,
                "duration": 0.32045454545455243,
                "tempo": 120.0
            },
            {
                "start_time": 79.02954545454546,
                "end_time": 79.34772727272727,
                "pitch": 77,
                "velocity": 64,
                "duration": 0.318181818181813,
                "tempo": 120.0
            },
            {
                "start_time": 79.43181818181817,
                "end_time": 79.5840909090909,
                "pitch": 76,
                "velocity": 64,
                "duration": 0.1522727272727309,
                "tempo": 120.0
            },
            {
                "start_time": 79.6340909090909,
                "end_time": 79.95454545454545,
                "pitch": 77,
                "velocity": 64,
                "duration": 0.32045454545455243,
                "tempo": 120.0
            },
            {
                "start_time": 80.04090909090908,
                "end_time": 80.36363636363636,
                "pitch": 84,
                "velocity": 64,
                "duration": 0.32272727272727764,
                "tempo": 120.0
            },
            {
                "start_time": 83.85227272727272,
                "end_time": 84.16818181818181,
                "pitch": 74,
                "velocity": 64,
                "duration": 0.3159090909090878,
                "tempo": 120.0
            },
            {
                "start_time": 84.25227272727273,
                "end_time": 84.57045454545454,
                "pitch": 76,
                "velocity": 64,
                "duration": 0.318181818181813,
                "tempo": 120.0
            },
            {
                "start_time": 84.65454545454546,
                "end_time": 84.97045454545454,
                "pitch": 77,
                "velocity": 64,
                "duration": 0.3159090909090878,
                "tempo": 120.0
            },
            {
                "start_time": 85.05454545454545,
                "end_time": 85.37272727272727,
                "pitch": 79,
                "velocity": 64,
                "duration": 0.3181818181818272,
                "tempo": 120.0
            },
            {
                "start_time": 85.45681818181818,
                "end_time": 85.78181818181818,
                "pitch": 77,
                "velocity": 64,
                "duration": 0.32500000000000284,
                "tempo": 120.0
            },
            {
                "start_time": 85.86818181818181,
                "end_time": 86.01590909090909,
                "pitch": 76,
                "velocity": 64,
                "duration": 0.14772727272728048,
                "tempo": 120.0
            },
            {
                "start_time": 86.06363636363636,
                "end_time": 86.37727272727273,
                "pitch": 77,
                "velocity": 64,
                "duration": 0.3136363636363626,
                "tempo": 120.0
            },
            {
                "start_time": 86.66363636363636,
                "end_time": 86.97954545454544,
                "pitch": 81,
                "velocity": 64,
                "duration": 0.3159090909090878,
                "tempo": 120.0
            },
            {
                "start_time": 87.26363636363637,
                "end_time": 87.5840909090909,
                "pitch": 82,
                "velocity": 64,
                "duration": 0.3204545454545382,
                "tempo": 120.0
            },
            {
                "start_time": 87.86818181818181,
                "end_time": 88.1840909090909,
                "pitch": 81,
                "velocity": 64,
                "duration": 0.3159090909090878,
                "tempo": 120.0
            },
            {
                "start_time": 88.26818181818182,
                "end_time": 88.58636363636363,
                "pitch": 79,
                "velocity": 64,
                "duration": 0.318181818181813,
                "tempo": 120.0
            },
            {
                "start_time": 88.87045454545454,
                "end_time": 89.18863636363636,
                "pitch": 77,
                "velocity": 64,
                "duration": 0.3181818181818272,
                "tempo": 120.0
            },
            {
                "start_time": 90.27727272727272,
                "end_time": 90.59545454545454,
                "pitch": 86,
                "velocity": 64,
                "duration": 0.3181818181818272,
                "tempo": 120.0
            },
            {
                "start_time": 90.67954545454545,
                "end_time": 90.99545454545454,
                "pitch": 84,
                "velocity": 64,
                "duration": 0.3159090909090878,
                "tempo": 120.0
            },
            {
                "start_time": 91.07954545454545,
                "end_time": 91.39772727272727,
                "pitch": 82,
                "velocity": 64,
                "duration": 0.318181818181813,
                "tempo": 120.0
            },
            {
                "start_time": 91.48181818181818,
                "end_time": 91.8,
                "pitch": 81,
                "velocity": 64,
                "duration": 0.318181818181813,
                "tempo": 120.0
            },
            {
                "start_time": 91.8840909090909,
                "end_time": 92.19999999999999,
                "pitch": 79,
                "velocity": 64,
                "duration": 0.3159090909090878,
                "tempo": 120.0
            },
            {
                "start_time": 92.2840909090909,
                "end_time": 92.43636363636364,
                "pitch": 81,
                "velocity": 64,
                "duration": 0.1522727272727309,
                "tempo": 120.0
            },
            {
                "start_time": 92.48636363636363,
                "end_time": 92.80454545454545,
                "pitch": 82,
                "velocity": 64,
                "duration": 0.318181818181813,
                "tempo": 120.0
            },
            {
                "start_time": 93.89090909090909,
                "end_time": 94.04318181818181,
                "pitch": 79,
                "velocity": 64,
                "duration": 0.15227272727271668,
                "tempo": 120.0
            },
            {
                "start_time": 94.09545454545454,
                "end_time": 94.25,
                "pitch": 81,
                "velocity": 64,
                "duration": 0.1545454545454561,
                "tempo": 120.0
            },
            {
                "start_time": 94.3,
                "end_time": 94.44772727272726,
                "pitch": 82,
                "velocity": 64,
                "duration": 0.14772727272726627,
                "tempo": 120.0
            },
            {
                "start_time": 94.49545454545454,
                "end_time": 94.64318181818182,
                "pitch": 84,
                "velocity": 64,
                "duration": 0.14772727272728048,
                "tempo": 120.0
            },
            {
                "start_time": 96.90454545454546,
                "end_time": 97.05227272727272,
                "pitch": 81,
                "velocity": 64,
                "duration": 0.14772727272726627,
                "tempo": 120.0
            },
            {
                "start_time": 97.1,
                "end_time": 97.74090909090908,
                "pitch": 81,
                "velocity": 64,
                "duration": 0.6409090909090907,
                "tempo": 120.0
            },
            {
                "start_time": 97.90227272727272,
                "end_time": 98.22727272727272,
                "pitch": 79,
                "velocity": 64,
                "duration": 0.32500000000000284,
                "tempo": 120.0
            },
            {
                "start_time": 98.5090909090909,
                "end_time": 98.65681818181818,
                "pitch": 77,
                "velocity": 64,
                "duration": 0.14772727272728048,
                "tempo": 120.0
            },
            {
                "start_time": 98.70681818181818,
                "end_time": 99.34545454545454,
                "pitch": 77,
                "velocity": 64,
                "duration": 0.6386363636363654,
                "tempo": 120.0
            },
            {
                "start_time": 99.5090909090909,
                "end_time": 99.8340909090909,
                "pitch": 82,
                "velocity": 64,
                "duration": 0.32500000000000284,
                "tempo": 120.0
            },
            {
                "start_time": 100.11590909090908,
                "end_time": 100.26136363636363,
                "pitch": 84,
                "velocity": 64,
                "duration": 0.14545454545454106,
                "tempo": 120.0
            },
            {
                "start_time": 100.31136363636364,
                "end_time": 100.94999999999999,
                "pitch": 84,
                "velocity": 64,
                "duration": 0.6386363636363512,
                "tempo": 120.0
            },
            {
                "start_time": 102.73863636363636,
                "end_time": 103.04772727272727,
                "pitch": 82,
                "velocity": 64,
                "duration": 0.3090909090909122,
                "tempo": 120.0
            },
            {
                "start_time": 103.32954545454545,
                "end_time": 103.475,
                "pitch": 81,
                "velocity": 64,
                "duration": 0.14545454545454106,
                "tempo": 120.0
            },
            {
                "start_time": 103.52499999999999,
                "end_time": 104.16363636363636,
                "pitch": 81,
                "velocity": 64,
                "duration": 0.6386363636363654,
                "tempo": 120.0
            },
            {
                "start_time": 104.32727272727273,
                "end_time": 104.65227272727272,
                "pitch": 79,
                "velocity": 64,
                "duration": 0.32499999999998863,
                "tempo": 120.0
            },
            {
                "start_time": 104.9340909090909,
                "end_time": 105.08181818181818,
                "pitch": 77,
                "velocity": 64,
                "duration": 0.14772727272728048,
                "tempo": 120.0
            },
            {
                "start_time": 105.12954545454545,
                "end_time": 105.76818181818182,
                "pitch": 77,
                "velocity": 64,
                "duration": 0.6386363636363654,
                "tempo": 120.0
            },
            {
                "start_time": 105.93636363636364,
                "end_time": 106.25227272727273,
                "pitch": 82,
                "velocity": 64,
                "duration": 0.3159090909090878,
                "tempo": 120.0
            },
            {
                "start_time": 106.53636363636363,
                "end_time": 106.68863636363636,
                "pitch": 84,
                "velocity": 64,
                "duration": 0.1522727272727309,
                "tempo": 120.0
            },
            {
                "start_time": 106.73863636363636,
                "end_time": 107.37727272727273,
                "pitch": 84,
                "velocity": 64,
                "duration": 0.6386363636363654,
                "tempo": 120.0
            },
            {
                "start_time": 109.16363636363636,
                "end_time": 109.78636363636363,
                "pitch": 74,
                "velocity": 64,
                "duration": 0.6227272727272748,
                "tempo": 120.0
            },
            {
                "start_time": 110.35,
                "end_time": 110.66818181818181,
                "pitch": 74,
                "velocity": 64,
                "duration": 0.318181818181813,
                "tempo": 120.0
            },
            {
                "start_time": 110.75227272727273,
                "end_time": 111.07727272727273,
                "pitch": 76,
                "velocity": 64,
                "duration": 0.32500000000000284,
                "tempo": 120.0
            },
            {
                "start_time": 111.35909090909091,
                "end_time": 111.67272727272727,
                "pitch": 72,
                "velocity": 64,
                "duration": 0.3136363636363626,
                "tempo": 120.0
            },
            {
                "start_time": 111.95681818181818,
                "end_time": 112.28181818181818,
                "pitch": 76,
                "velocity": 64,
                "duration": 0.32500000000000284,
                "tempo": 120.0
            },
            {
                "start_time": 112.36818181818181,
                "end_time": 112.51818181818182,
                "pitch": 81,
                "velocity": 64,
                "duration": 0.15000000000000568,
                "tempo": 120.0
            },
            {
                "start_time": 112.56818181818181,
                "end_time": 112.71818181818182,
                "pitch": 79,
                "velocity": 64,
                "duration": 0.15000000000000568,
                "tempo": 120.0
            },
            {
                "start_time": 112.76818181818182,
                "end_time": 112.91590909090908,
                "pitch": 77,
                "velocity": 64,
                "duration": 0.14772727272726627,
                "tempo": 120.0
            },
            {
                "start_time": 112.96363636363635,
                "end_time": 113.11136363636363,
                "pitch": 79,
                "velocity": 64,
                "duration": 0.14772727272728048,
                "tempo": 120.0
            },
            {
                "start_time": 113.16136363636363,
                "end_time": 113.31136363636364,
                "pitch": 77,
                "velocity": 64,
                "duration": 0.15000000000000568,
                "tempo": 120.0
            },
            {
                "start_time": 113.36136363636363,
                "end_time": 113.51363636363635,
                "pitch": 76,
                "velocity": 64,
                "duration": 0.15227272727271668,
                "tempo": 120.0
            },
            {
                "start_time": 113.56363636363636,
                "end_time": 113.71818181818182,
                "pitch": 77,
                "velocity": 64,
                "duration": 0.1545454545454561,
                "tempo": 120.0
            },
            {
                "start_time": 113.76818181818182,
                "end_time": 113.92272727272727,
                "pitch": 76,
                "velocity": 64,
                "duration": 0.1545454545454561,
                "tempo": 120.0
            },
            {
                "start_time": 113.975,
                "end_time": 114.60681818181817,
                "pitch": 74,
                "velocity": 64,
                "duration": 0.6318181818181756,
                "tempo": 120.0
            },
            {
                "start_time": 115.57954545454545,
                "end_time": 115.72727272727272,
                "pitch": 70,
                "velocity": 64,
                "duration": 0.14772727272726627,
                "tempo": 120.0
            },
            {
                "start_time": 115.77499999999999,
                "end_time": 115.92272727272727,
                "pitch": 72,
                "velocity": 64,
                "duration": 0.14772727272728048,
                "tempo": 120.0
            },
            {
                "start_time": 115.97272727272727,
                "end_time": 116.125,
                "pitch": 74,
                "velocity": 64,
                "duration": 0.1522727272727309,
                "tempo": 120.0
            },
            {
                "start_time": 116.17727272727272,
                "end_time": 116.33181818181818,
                "pitch": 76,
                "velocity": 64,
                "duration": 0.1545454545454561,
                "tempo": 120.0
            },
            {
                "start_time": 116.38181818181818,
                "end_time": 116.52954545454544,
                "pitch": 77,
                "velocity": 64,
                "duration": 0.14772727272726627,
                "tempo": 120.0
            },
            {
                "start_time": 116.57954545454545,
                "end_time": 116.725,
                "pitch": 76,
                "velocity": 64,
                "duration": 0.14545454545454106,
                "tempo": 120.0
            },
            {
                "start_time": 116.77499999999999,
                "end_time": 116.92954545454545,
                "pitch": 74,
                "velocity": 64,
                "duration": 0.1545454545454561,
                "tempo": 120.0
            },
            {
                "start_time": 116.97954545454544,
                "end_time": 117.1340909090909,
                "pitch": 76,
                "velocity": 64,
                "duration": 0.1545454545454561,
                "tempo": 120.0
            },
            {
                "start_time": 117.18636363636364,
                "end_time": 117.33636363636363,
                "pitch": 81,
                "velocity": 64,
                "duration": 0.14999999999999147,
                "tempo": 120.0
            },
            {
                "start_time": 117.38636363636363,
                "end_time": 117.53863636363636,
                "pitch": 79,
                "velocity": 64,
                "duration": 0.1522727272727309,
                "tempo": 120.0
            },
            {
                "start_time": 117.58863636363635,
                "end_time": 117.73863636363636,
                "pitch": 77,
                "velocity": 64,
                "duration": 0.15000000000000568,
                "tempo": 120.0
            },
            {
                "start_time": 117.78863636363636,
                "end_time": 117.93863636363636,
                "pitch": 79,
                "velocity": 64,
                "duration": 0.15000000000000568,
                "tempo": 120.0
            },
            {
                "start_time": 117.98863636363636,
                "end_time": 118.13636363636363,
                "pitch": 77,
                "velocity": 64,
                "duration": 0.14772727272726627,
                "tempo": 120.0
            },
            {
                "start_time": 118.1840909090909,
                "end_time": 118.33181818181818,
                "pitch": 76,
                "velocity": 64,
                "duration": 0.14772727272728048,
                "tempo": 120.0
            },
            {
                "start_time": 118.37954545454545,
                "end_time": 118.5340909090909,
                "pitch": 74,
                "velocity": 64,
                "duration": 0.1545454545454561,
                "tempo": 120.0
            },
            {
                "start_time": 118.58636363636363,
                "end_time": 118.73863636363636,
                "pitch": 76,
                "velocity": 64,
                "duration": 0.1522727272727309,
                "tempo": 120.0
            },
            {
                "start_time": 118.79090909090908,
                "end_time": 118.94318181818181,
                "pitch": 74,
                "velocity": 64,
                "duration": 0.1522727272727309,
                "tempo": 120.0
            },
            {
                "start_time": 118.99318181818181,
                "end_time": 119.14318181818182,
                "pitch": 76,
                "velocity": 64,
                "duration": 0.15000000000000568,
                "tempo": 120.0
            },
            {
                "start_time": 119.19318181818181,
                "end_time": 119.34545454545454,
                "pitch": 77,
                "velocity": 64,
                "duration": 0.1522727272727309,
                "tempo": 120.0
            },
            {
                "start_time": 119.39545454545454,
                "end_time": 119.54545454545455,
                "pitch": 79,
                "velocity": 64,
                "duration": 0.15000000000000568,
                "tempo": 120.0
            },
            {
                "start_time": 119.59545454545454,
                "end_time": 119.90681818181818,
                "pitch": 81,
                "velocity": 64,
                "duration": 0.3113636363636374,
                "tempo": 120.0
            },
            {
                "start_time": 119.98863636363636,
                "end_time": 120.30454545454545,
                "pitch": 82,
                "velocity": 64,
                "duration": 0.3159090909090878,
                "tempo": 120.0
            },
            {
                "start_time": 120.38863636363635,
                "end_time": 121.02499999999999,
                "pitch": 84,
                "velocity": 64,
                "duration": 0.6363636363636402,
                "tempo": 120.0
            },
            {
                "start_time": 121.19090909090909,
                "end_time": 121.8340909090909,
                "pitch": 81,
                "velocity": 64,
                "duration": 0.6431818181818159,
                "tempo": 120.0
            },
            {
                "start_time": 122.00454545454545,
                "end_time": 123.26136363636363,
                "pitch": 77,
                "velocity": 64,
                "duration": 1.2568181818181756,
                "tempo": 120.0
            }
        ],
        "Trumpet": [
            {
                "start_time": 123.19318181818181,
                "end_time": 123.34545454545454,
                "pitch": 70,
                "velocity": 51,
                "duration": 0.1522727272727309,
                "tempo": 120.0
            },
            {
                "start_time": 123.39772727272727,
                "end_time": 123.55227272727272,
                "pitch": 70,
                "velocity": 51,
                "duration": 0.1545454545454561,
                "tempo": 120.0
            },
            {
                "start_time": 123.60227272727272,
                "end_time": 124.24318181818181,
                "pitch": 70,
                "velocity": 51,
                "duration": 0.6409090909090907,
                "tempo": 120.0
            },
            {
                "start_time": 124.8090909090909,
                "end_time": 124.9590909090909,
                "pitch": 70,
                "velocity": 51,
                "duration": 0.15000000000000568,
                "tempo": 120.0
            },
            {
                "start_time": 125.0090909090909,
                "end_time": 125.1590909090909,
                "pitch": 70,
                "velocity": 51,
                "duration": 0.15000000000000568,
                "tempo": 120.0
            },
            {
                "start_time": 125.2090909090909,
                "end_time": 126.48181818181817,
                "pitch": 69,
                "velocity": 51,
                "duration": 1.2727272727272663,
                "tempo": 120.0
            }
        ],
        "Church Organ": [
            {
                "start_time": 71.39999999999999,
                "end_time": 71.71818181818182,
                "pitch": 74,
                "velocity": 32,
                "duration": 0.3181818181818272,
                "tempo": 120.0
            },
            {
                "start_time": 71.80227272727272,
                "end_time": 71.95681818181818,
                "pitch": 74,
                "velocity": 25,
                "duration": 0.1545454545454561,
                "tempo": 120.0
            },
            {
                "start_time": 72.0090909090909,
                "end_time": 73.27727272727272,
                "pitch": 72,
                "velocity": 40,
                "duration": 1.2681818181818159,
                "tempo": 120.0
            },
            {
                "start_time": 73.81136363636364,
                "end_time": 76.37045454545454,
                "pitch": 72,
                "velocity": 40,
                "duration": 2.559090909090898,
                "tempo": 120.0
            },
            {
                "start_time": 77.02272727272727,
                "end_time": 77.6590909090909,
                "pitch": 74,
                "velocity": 40,
                "duration": 0.6363636363636402,
                "tempo": 120.0
            },
            {
                "start_time": 77.82727272727273,
                "end_time": 78.14318181818182,
                "pitch": 74,
                "velocity": 32,
                "duration": 0.3159090909090878,
                "tempo": 120.0
            },
            {
                "start_time": 78.22727272727272,
                "end_time": 78.38181818181818,
                "pitch": 74,
                "velocity": 25,
                "duration": 0.1545454545454561,
                "tempo": 120.0
            },
            {
                "start_time": 78.43181818181817,
                "end_time": 79.7,
                "pitch": 72,
                "velocity": 40,
                "duration": 1.26818181818183,
                "tempo": 120.0
            },
            {
                "start_time": 80.24545454545454,
                "end_time": 82.79545454545455,
                "pitch": 72,
                "velocity": 40,
                "duration": 2.5500000000000114,
                "tempo": 120.0
            },
            {
                "start_time": 83.45,
                "end_time": 84.08636363636363,
                "pitch": 74,
                "velocity": 40,
                "duration": 0.636363636363626,
                "tempo": 120.0
            },
            {
                "start_time": 84.25227272727273,
                "end_time": 84.57045454545454,
                "pitch": 74,
                "velocity": 32,
                "duration": 0.318181818181813,
                "tempo": 120.0
            },
            {
                "start_time": 84.65454545454546,
                "end_time": 84.80454545454545,
                "pitch": 74,
                "velocity": 25,
                "duration": 0.14999999999999147,
                "tempo": 120.0
            },
            {
                "start_time": 84.85454545454544,
                "end_time": 86.12954545454545,
                "pitch": 72,
                "velocity": 40,
                "duration": 1.2750000000000057,
                "tempo": 120.0
            },
            {
                "start_time": 86.66363636363636,
                "end_time": 87.9340909090909,
                "pitch": 72,
                "velocity": 40,
                "duration": 1.270454545454541,
                "tempo": 120.0
            },
            {
                "start_time": 88.26818181818182,
                "end_time": 89.54090909090908,
                "pitch": 72,
                "velocity": 40,
                "duration": 1.2727272727272663,
                "tempo": 120.0
            },
            {
                "start_time": 89.87727272727273,
                "end_time": 92.43636363636364,
                "pitch": 77,
                "velocity": 40,
                "duration": 2.559090909090912,
                "tempo": 120.0
            }
        ],
        "Electric Guitar (clean)": [
            {
                "start_time": 0.0,
                "end_time": 0.3,
                "pitch": 41,
                "velocity": 64,
                "duration": 0.3,
                "tempo": 120.0
            },
            {
                "start_time": 5.793181818181818,
                "end_time": 5.9431818181818175,
                "pitch": 36,
                "velocity": 64,
                "duration": 0.14999999999999947,
                "tempo": 120.0
            },
            {
                "start_time": 5.995454545454545,
                "end_time": 6.1454545454545455,
                "pitch": 38,
                "velocity": 64,
                "duration": 0.15000000000000036,
                "tempo": 120.0
            },
            {
                "start_time": 6.195454545454545,
                "end_time": 6.347727272727273,
                "pitch": 40,
                "velocity": 64,
                "duration": 0.15227272727272734,
                "tempo": 120.0
            },
            {
                "start_time": 6.3977272727272725,
                "end_time": 6.552272727272727,
                "pitch": 41,
                "velocity": 64,
                "duration": 0.15454545454545432,
                "tempo": 120.0
            },
            {
                "start_time": 6.602272727272727,
                "end_time": 6.756818181818182,
                "pitch": 41,
                "velocity": 64,
                "duration": 0.1545454545454552,
                "tempo": 120.0
            },
            {
                "start_time": 6.806818181818182,
                "end_time": 6.954545454545454,
                "pitch": 41,
                "velocity": 64,
                "duration": 0.14772727272727249,
                "tempo": 120.0
            },
            {
                "start_time": 7.004545454545454,
                "end_time": 7.1499999999999995,
                "pitch": 41,
                "velocity": 64,
                "duration": 0.1454545454545455,
                "tempo": 120.0
            },
            {
                "start_time": 7.199999999999999,
                "end_time": 7.35,
                "pitch": 41,
                "velocity": 64,
                "duration": 0.15000000000000036,
                "tempo": 120.0
            },
            {
                "start_time": 7.3999999999999995,
                "end_time": 7.55,
                "pitch": 41,
                "velocity": 64,
                "duration": 0.15000000000000036,
                "tempo": 120.0
            },
            {
                "start_time": 7.6,
                "end_time": 7.75,
                "pitch": 41,
                "velocity": 64,
                "duration": 0.15000000000000036,
                "tempo": 120.0
            },
            {
                "start_time": 7.802272727272727,
                "end_time": 7.952272727272727,
                "pitch": 41,
                "velocity": 64,
                "duration": 0.15000000000000036,
                "tempo": 120.0
            },
            {
                "start_time": 8.002272727272727,
                "end_time": 8.156818181818181,
                "pitch": 41,
                "velocity": 64,
                "duration": 0.15454545454545432,
                "tempo": 120.0
            },
            {
                "start_time": 8.209090909090909,
                "end_time": 8.361363636363636,
                "pitch": 41,
                "velocity": 64,
                "duration": 0.15227272727272734,
                "tempo": 120.0
            },
            {
                "start_time": 8.413636363636364,
                "end_time": 8.561363636363636,
                "pitch": 41,
                "velocity": 64,
                "duration": 0.1477272727272716,
                "tempo": 120.0
            },
            {
                "start_time": 8.60909090909091,
                "end_time": 8.756818181818181,
                "pitch": 41,
                "velocity": 64,
                "duration": 0.1477272727272716,
                "tempo": 120.0
            },
            {
                "start_time": 8.804545454545455,
                "end_time": 8.959090909090909,
                "pitch": 41,
                "velocity": 64,
                "duration": 0.15454545454545432,
                "tempo": 120.0
            },
            {
                "start_time": 9.011363636363637,
                "end_time": 9.165909090909091,
                "pitch": 41,
                "velocity": 64,
                "duration": 0.15454545454545432,
                "tempo": 120.0
            },
            {
                "start_time": 9.21590909090909,
                "end_time": 9.363636363636363,
                "pitch": 40,
                "velocity": 64,
                "duration": 0.14772727272727337,
                "tempo": 120.0
            },
            {
                "start_time": 9.411363636363635,
                "end_time": 9.559090909090909,
                "pitch": 38,
                "velocity": 64,
                "duration": 0.14772727272727337,
                "tempo": 120.0
            },
            {
                "start_time": 9.60909090909091,
                "end_time": 9.761363636363637,
                "pitch": 34,
                "velocity": 64,
                "duration": 0.15227272727272734,
                "tempo": 120.0
            },
            {
                "start_time": 9.813636363636363,
                "end_time": 9.968181818181817,
                "pitch": 34,
                "velocity": 64,
                "duration": 0.15454545454545432,
                "tempo": 120.0
            },
            {
                "start_time": 10.018181818181818,
                "end_time": 10.165909090909091,
                "pitch": 34,
                "velocity": 64,
                "duration": 0.14772727272727337,
                "tempo": 120.0
            },
            {
                "start_time": 10.21590909090909,
                "end_time": 10.361363636363636,
                "pitch": 35,
                "velocity": 64,
                "duration": 0.1454545454545464,
                "tempo": 120.0
            },
            {
                "start_time": 10.411363636363635,
                "end_time": 10.563636363636363,
                "pitch": 36,
                "velocity": 64,
                "duration": 0.15227272727272734,
                "tempo": 120.0
            },
            {
                "start_time": 10.61590909090909,
                "end_time": 10.770454545454545,
                "pitch": 36,
                "velocity": 64,
                "duration": 0.15454545454545432,
                "tempo": 120.0
            },
            {
                "start_time": 10.820454545454545,
                "end_time": 10.968181818181817,
                "pitch": 36,
                "velocity": 64,
                "duration": 0.1477272727272716,
                "tempo": 120.0
            },
            {
                "start_time": 11.018181818181818,
                "end_time": 11.163636363636362,
                "pitch": 36,
                "velocity": 64,
                "duration": 0.14545454545454461,
                "tempo": 120.0
            },
            {
                "start_time": 11.213636363636363,
                "end_time": 11.363636363636363,
                "pitch": 36,
                "velocity": 64,
                "duration": 0.15000000000000036,
                "tempo": 120.0
            },
            {
                "start_time": 11.415909090909091,
                "end_time": 11.56590909090909,
                "pitch": 36,
                "velocity": 64,
                "duration": 0.14999999999999858,
                "tempo": 120.0
            },
            {
                "start_time": 11.61590909090909,
                "end_time": 11.768181818181818,
                "pitch": 36,
                "velocity": 64,
                "duration": 0.15227272727272734,
                "tempo": 120.0
            },
            {
                "start_time": 11.818181818181818,
                "end_time": 11.968181818181817,
                "pitch": 36,
                "velocity": 64,
                "duration": 0.14999999999999858,
                "tempo": 120.0
            },
            {
                "start_time": 12.018181818181818,
                "end_time": 12.172727272727272,
                "pitch": 36,
                "velocity": 64,
                "duration": 0.15454545454545432,
                "tempo": 120.0
            },
            {
                "start_time": 12.225,
                "end_time": 12.379545454545454,
                "pitch": 36,
                "velocity": 64,
                "duration": 0.15454545454545432,
                "tempo": 120.0
            },
            {
                "start_time": 12.429545454545455,
                "end_time": 12.577272727272726,
                "pitch": 38,
                "velocity": 64,
                "duration": 0.1477272727272716,
                "tempo": 120.0
            },
            {
                "start_time": 12.625,
                "end_time": 12.772727272727272,
                "pitch": 40,
                "velocity": 64,
                "duration": 0.1477272727272716,
                "tempo": 120.0
            },
            {
                "start_time": 12.838636363636363,
                "end_time": 13.456818181818182,
                "pitch": 38,
                "velocity": 64,
                "duration": 0.618181818181819,
                "tempo": 120.0
            },
            {
                "start_time": 13.625,
                "end_time": 13.774999999999999,
                "pitch": 38,
                "velocity": 64,
                "duration": 0.14999999999999858,
                "tempo": 120.0
            },
            {
                "start_time": 13.825,
                "end_time": 13.977272727272727,
                "pitch": 29,
                "velocity": 64,
                "duration": 0.15227272727272734,
                "tempo": 120.0
            },
            {
                "start_time": 14.027272727272727,
                "end_time": 14.181818181818182,
                "pitch": 34,
                "velocity": 64,
                "duration": 0.15454545454545432,
                "tempo": 120.0
            },
            {
                "start_time": 14.23181818181818,
                "end_time": 14.386363636363635,
                "pitch": 38,
                "velocity": 64,
                "duration": 0.15454545454545432,
                "tempo": 120.0
            },
            {
                "start_time": 14.438636363636363,
                "end_time": 14.756818181818181,
                "pitch": 40,
                "velocity": 64,
                "duration": 0.31818181818181834,
                "tempo": 120.0
            },
            {
                "start_time": 15.036363636363635,
                "end_time": 15.35,
                "pitch": 36,
                "velocity": 64,
                "duration": 0.3136363636363644,
                "tempo": 120.0
            },
            {
                "start_time": 15.636363636363635,
                "end_time": 15.961363636363636,
                "pitch": 31,
                "velocity": 64,
                "duration": 0.32500000000000107,
                "tempo": 120.0
            },
            {
                "start_time": 16.045454545454543,
                "end_time": 16.677272727272726,
                "pitch": 40,
                "velocity": 64,
                "duration": 0.6318181818181827,
                "tempo": 120.0
            },
            {
                "start_time": 17.043181818181818,
                "end_time": 17.193181818181817,
                "pitch": 33,
                "velocity": 64,
                "duration": 0.14999999999999858,
                "tempo": 120.0
            },
            {
                "start_time": 17.243181818181817,
                "end_time": 17.397727272727273,
                "pitch": 36,
                "velocity": 64,
                "duration": 0.1545454545454561,
                "tempo": 120.0
            },
            {
                "start_time": 17.45,
                "end_time": 17.604545454545455,
                "pitch": 40,
                "velocity": 64,
                "duration": 0.1545454545454561,
                "tempo": 120.0
            },
            {
                "start_time": 17.654545454545453,
                "end_time": 17.972727272727273,
                "pitch": 43,
                "velocity": 64,
                "duration": 0.3181818181818201,
                "tempo": 120.0
            },
            {
                "start_time": 18.254545454545454,
                "end_time": 18.570454545454545,
                "pitch": 41,
                "velocity": 64,
                "duration": 0.31590909090909136,
                "tempo": 120.0
            },
            {
                "start_time": 18.847727272727273,
                "end_time": 19.172727272727272,
                "pitch": 40,
                "velocity": 64,
                "duration": 0.3249999999999993,
                "tempo": 120.0
            },
            {
                "start_time": 19.259090909090908,
                "end_time": 19.893181818181816,
                "pitch": 46,
                "velocity": 64,
                "duration": 0.6340909090909079,
                "tempo": 120.0
            },
            {
                "start_time": 20.061363636363634,
                "end_time": 20.370454545454546,
                "pitch": 38,
                "velocity": 64,
                "duration": 0.3090909090909122,
                "tempo": 120.0
            },
            {
                "start_time": 20.452272727272728,
                "end_time": 20.60681818181818,
                "pitch": 45,
                "velocity": 64,
                "duration": 0.15454545454545254,
                "tempo": 120.0
            },
            {
                "start_time": 20.659090909090907,
                "end_time": 20.811363636363634,
                "pitch": 43,
                "velocity": 64,
                "duration": 0.15227272727272734,
                "tempo": 120.0
            },
            {
                "start_time": 20.863636363636363,
                "end_time": 21.179545454545455,
                "pitch": 41,
                "velocity": 64,
                "duration": 0.31590909090909136,
                "tempo": 120.0
            },
            {
                "start_time": 21.263636363636362,
                "end_time": 21.581818181818182,
                "pitch": 41,
                "velocity": 64,
                "duration": 0.3181818181818201,
                "tempo": 120.0
            },
            {
                "start_time": 21.66590909090909,
                "end_time": 21.977272727272727,
                "pitch": 40,
                "velocity": 64,
                "duration": 0.3113636363636374,
                "tempo": 120.0
            },
            {
                "start_time": 22.05909090909091,
                "end_time": 22.384090909090908,
                "pitch": 40,
                "velocity": 64,
                "duration": 0.3249999999999993,
                "tempo": 120.0
            },
            {
                "start_time": 22.46818181818182,
                "end_time": 22.788636363636364,
                "pitch": 41,
                "velocity": 64,
                "duration": 0.3204545454545453,
                "tempo": 120.0
            },
            {
                "start_time": 22.87272727272727,
                "end_time": 23.188636363636363,
                "pitch": 38,
                "velocity": 64,
                "duration": 0.31590909090909136,
                "tempo": 120.0
            },
            {
                "start_time": 23.272727272727273,
                "end_time": 23.581818181818182,
                "pitch": 34,
                "velocity": 64,
                "duration": 0.30909090909090864,
                "tempo": 120.0
            },
            {
                "start_time": 23.663636363636364,
                "end_time": 23.813636363636363,
                "pitch": 38,
                "velocity": 64,
                "duration": 0.14999999999999858,
                "tempo": 120.0
            },
            {
                "start_time": 23.863636363636363,
                "end_time": 24.013636363636362,
                "pitch": 41,
                "velocity": 64,
                "duration": 0.14999999999999858,
                "tempo": 120.0
            },
            {
                "start_time": 24.063636363636363,
                "end_time": 24.38181818181818,
                "pitch": 44,
                "velocity": 64,
                "duration": 0.31818181818181657,
                "tempo": 120.0
            },
            {
                "start_time": 24.46590909090909,
                "end_time": 24.784090909090907,
                "pitch": 46,
                "velocity": 64,
                "duration": 0.31818181818181657,
                "tempo": 120.0
            },
            {
                "start_time": 24.86590909090909,
                "end_time": 25.018181818181816,
                "pitch": 48,
                "velocity": 64,
                "duration": 0.15227272727272734,
                "tempo": 120.0
            },
            {
                "start_time": 25.068181818181817,
                "end_time": 25.384090909090908,
                "pitch": 45,
                "velocity": 64,
                "duration": 0.31590909090909136,
                "tempo": 120.0
            },
            {
                "start_time": 25.661363636363635,
                "end_time": 25.986363636363635,
                "pitch": 41,
                "velocity": 64,
                "duration": 0.3249999999999993,
                "tempo": 120.0
            },
            {
                "start_time": 26.07272727272727,
                "end_time": 26.222727272727273,
                "pitch": 41,
                "velocity": 64,
                "duration": 0.15000000000000213,
                "tempo": 120.0
            },
            {
                "start_time": 26.27272727272727,
                "end_time": 26.424999999999997,
                "pitch": 41,
                "velocity": 64,
                "duration": 0.15227272727272734,
                "tempo": 120.0
            },
            {
                "start_time": 26.474999999999998,
                "end_time": 26.79090909090909,
                "pitch": 41,
                "velocity": 64,
                "duration": 0.31590909090909136,
                "tempo": 120.0
            },
            {
                "start_time": 26.875,
                "end_time": 27.025,
                "pitch": 41,
                "velocity": 64,
                "duration": 0.14999999999999858,
                "tempo": 120.0
            },
            {
                "start_time": 27.077272727272724,
                "end_time": 27.227272727272727,
                "pitch": 41,
                "velocity": 64,
                "duration": 0.15000000000000213,
                "tempo": 120.0
            },
            {
                "start_time": 27.477272727272727,
                "end_time": 27.627272727272725,
                "pitch": 41,
                "velocity": 64,
                "duration": 0.14999999999999858,
                "tempo": 120.0
            },
            {
                "start_time": 27.877272727272725,
                "end_time": 28.027272727272727,
                "pitch": 41,
                "velocity": 64,
                "duration": 0.15000000000000213,
                "tempo": 120.0
            },
            {
                "start_time": 28.077272727272724,
                "end_time": 28.402272727272727,
                "pitch": 38,
                "velocity": 64,
                "duration": 0.32500000000000284,
                "tempo": 120.0
            },
            {
                "start_time": 28.488636363636363,
                "end_time": 28.80681818181818,
                "pitch": 36,
                "velocity": 64,
                "duration": 0.31818181818181657,
                "tempo": 120.0
            },
            {
                "start_time": 28.909090909090907,
                "end_time": 29.04090909090909,
                "pitch": 33,
                "velocity": 64,
                "duration": 0.13181818181818272,
                "tempo": 120.0
            },
            {
                "start_time": 29.09090909090909,
                "end_time": 29.24090909090909,
                "pitch": 33,
                "velocity": 64,
                "duration": 0.14999999999999858,
                "tempo": 120.0
            },
            {
                "start_time": 29.29090909090909,
                "end_time": 29.438636363636363,
                "pitch": 34,
                "velocity": 64,
                "duration": 0.14772727272727337,
                "tempo": 120.0
            },
            {
                "start_time": 29.486363636363635,
                "end_time": 29.799999999999997,
                "pitch": 36,
                "velocity": 64,
                "duration": 0.3136363636363626,
                "tempo": 120.0
            },
            {
                "start_time": 29.884090909090908,
                "end_time": 30.034090909090907,
                "pitch": 36,
                "velocity": 64,
                "duration": 0.14999999999999858,
                "tempo": 120.0
            },
            {
                "start_time": 30.084090909090907,
                "end_time": 30.23409090909091,
                "pitch": 33,
                "velocity": 64,
                "duration": 0.15000000000000213,
                "tempo": 120.0
            },
            {
                "start_time": 30.284090909090907,
                "end_time": 30.436363636363634,
                "pitch": 36,
                "velocity": 64,
                "duration": 0.15227272727272734,
                "tempo": 120.0
            },
            {
                "start_time": 30.486363636363635,
                "end_time": 30.636363636363633,
                "pitch": 33,
                "velocity": 64,
                "duration": 0.14999999999999858,
                "tempo": 120.0
            },
            {
                "start_time": 30.686363636363634,
                "end_time": 30.836363636363636,
                "pitch": 33,
                "velocity": 64,
                "duration": 0.15000000000000213,
                "tempo": 120.0
            },
            {
                "start_time": 30.886363636363633,
                "end_time": 31.036363636363635,
                "pitch": 34,
                "velocity": 64,
                "duration": 0.15000000000000213,
                "tempo": 120.0
            },
            {
                "start_time": 31.08863636363636,
                "end_time": 31.404545454545453,
                "pitch": 36,
                "velocity": 64,
                "duration": 0.31590909090909136,
                "tempo": 120.0
            },
            {
                "start_time": 31.488636363636363,
                "end_time": 31.638636363636362,
                "pitch": 36,
                "velocity": 64,
                "duration": 0.14999999999999858,
                "tempo": 120.0
            },
            {
                "start_time": 31.688636363636363,
                "end_time": 31.83863636363636,
                "pitch": 33,
                "velocity": 64,
                "duration": 0.14999999999999858,
                "tempo": 120.0
            },
            {
                "start_time": 31.888636363636362,
                "end_time": 32.038636363636364,
                "pitch": 36,
                "velocity": 64,
                "duration": 0.15000000000000213,
                "tempo": 120.0
            },
            {
                "start_time": 32.08863636363636,
                "end_time": 32.40681818181818,
                "pitch": 38,
                "velocity": 64,
                "duration": 0.3181818181818201,
                "tempo": 120.0
            },
            {
                "start_time": 32.49090909090909,
                "end_time": 32.81136363636364,
                "pitch": 38,
                "velocity": 64,
                "duration": 0.3204545454545453,
                "tempo": 120.0
            },
            {
                "start_time": 32.893181818181816,
                "end_time": 33.211363636363636,
                "pitch": 34,
                "velocity": 64,
                "duration": 0.3181818181818201,
                "tempo": 120.0
            },
            {
                "start_time": 33.293181818181814,
                "end_time": 33.44318181818181,
                "pitch": 38,
                "velocity": 64,
                "duration": 0.14999999999999858,
                "tempo": 120.0
            },
            {
                "start_time": 33.49318181818182,
                "end_time": 33.809090909090905,
                "pitch": 40,
                "velocity": 64,
                "duration": 0.3159090909090878,
                "tempo": 120.0
            },
            {
                "start_time": 33.89090909090909,
                "end_time": 34.20227272727273,
                "pitch": 40,
                "velocity": 64,
                "duration": 0.3113636363636374,
                "tempo": 120.0
            },
            {
                "start_time": 34.28636363636363,
                "end_time": 34.43636363636364,
                "pitch": 40,
                "velocity": 64,
                "duration": 0.15000000000000568,
                "tempo": 120.0
            },
            {
                "start_time": 34.486363636363635,
                "end_time": 34.820454545454545,
                "pitch": 40,
                "velocity": 64,
                "duration": 0.33409090909091077,
                "tempo": 120.0
            },
            {
                "start_time": 34.90909090909091,
                "end_time": 35.21818181818182,
                "pitch": 38,
                "velocity": 64,
                "duration": 0.3090909090909122,
                "tempo": 120.0
            },
            {
                "start_time": 35.31818181818181,
                "end_time": 35.449999999999996,
                "pitch": 33,
                "velocity": 64,
                "duration": 0.13181818181818272,
                "tempo": 120.0
            },
            {
                "start_time": 35.5,
                "end_time": 35.65,
                "pitch": 33,
                "velocity": 64,
                "duration": 0.14999999999999858,
                "tempo": 120.0
            },
            {
                "start_time": 35.699999999999996,
                "end_time": 35.85,
                "pitch": 34,
                "velocity": 64,
                "duration": 0.15000000000000568,
                "tempo": 120.0
            },
            {
                "start_time": 35.9,
                "end_time": 36.21818181818182,
                "pitch": 36,
                "velocity": 64,
                "duration": 0.3181818181818201,
                "tempo": 120.0
            },
            {
                "start_time": 36.3,
                "end_time": 36.449999999999996,
                "pitch": 36,
                "velocity": 64,
                "duration": 0.14999999999999858,
                "tempo": 120.0
            },
            {
                "start_time": 36.5,
                "end_time": 36.652272727272724,
                "pitch": 33,
                "velocity": 64,
                "duration": 0.15227272727272378,
                "tempo": 120.0
            },
            {
                "start_time": 36.70227272727273,
                "end_time": 36.85227272727273,
                "pitch": 36,
                "velocity": 64,
                "duration": 0.14999999999999858,
                "tempo": 120.0
            },
            {
                "start_time": 36.902272727272724,
                "end_time": 37.05227272727272,
                "pitch": 33,
                "velocity": 64,
                "duration": 0.14999999999999858,
                "tempo": 120.0
            },
            {
                "start_time": 37.10227272727273,
                "end_time": 37.252272727272725,
                "pitch": 33,
                "velocity": 64,
                "duration": 0.14999999999999858,
                "tempo": 120.0
            },
            {
                "start_time": 37.30227272727272,
                "end_time": 37.45227272727273,
                "pitch": 34,
                "velocity": 64,
                "duration": 0.15000000000000568,
                "tempo": 120.0
            },
            {
                "start_time": 37.502272727272725,
                "end_time": 37.820454545454545,
                "pitch": 36,
                "velocity": 64,
                "duration": 0.3181818181818201,
                "tempo": 120.0
            },
            {
                "start_time": 37.902272727272724,
                "end_time": 38.05227272727272,
                "pitch": 36,
                "velocity": 64,
                "duration": 0.14999999999999858,
                "tempo": 120.0
            },
            {
                "start_time": 38.10227272727273,
                "end_time": 38.252272727272725,
                "pitch": 33,
                "velocity": 64,
                "duration": 0.14999999999999858,
                "tempo": 120.0
            },
            {
                "start_time": 38.30227272727272,
                "end_time": 38.45227272727273,
                "pitch": 36,
                "velocity": 64,
                "duration": 0.15000000000000568,
                "tempo": 120.0
            },
            {
                "start_time": 38.502272727272725,
                "end_time": 38.82272727272727,
                "pitch": 38,
                "velocity": 64,
                "duration": 0.3204545454545453,
                "tempo": 120.0
            },
            {
                "start_time": 38.90681818181818,
                "end_time": 39.22272727272727,
                "pitch": 38,
                "velocity": 64,
                "duration": 0.3159090909090878,
                "tempo": 120.0
            },
            {
                "start_time": 39.30681818181818,
                "end_time": 39.63181818181818,
                "pitch": 34,
                "velocity": 64,
                "duration": 0.32500000000000284,
                "tempo": 120.0
            },
            {
                "start_time": 39.715909090909086,
                "end_time": 39.86363636363636,
                "pitch": 38,
                "velocity": 64,
                "duration": 0.14772727272727337,
                "tempo": 120.0
            },
            {
                "start_time": 39.913636363636364,
                "end_time": 40.22272727272727,
                "pitch": 40,
                "velocity": 64,
                "duration": 0.3090909090909051,
                "tempo": 120.0
            },
            {
                "start_time": 40.304545454545455,
                "end_time": 40.61818181818182,
                "pitch": 40,
                "velocity": 64,
                "duration": 0.3136363636363626,
                "tempo": 120.0
            },
            {
                "start_time": 40.699999999999996,
                "end_time": 40.85,
                "pitch": 40,
                "velocity": 64,
                "duration": 0.15000000000000568,
                "tempo": 120.0
            },
            {
                "start_time": 40.902272727272724,
                "end_time": 41.22727272727273,
                "pitch": 38,
                "velocity": 64,
                "duration": 0.32500000000000284,
                "tempo": 120.0
            },
            {
                "start_time": 41.31136363636364,
                "end_time": 41.62954545454545,
                "pitch": 40,
                "velocity": 64,
                "duration": 0.318181818181813,
                "tempo": 120.0
            },
            {
                "start_time": 41.72954545454545,
                "end_time": 41.86590909090909,
                "pitch": 41,
                "velocity": 64,
                "duration": 0.13636363636364024,
                "tempo": 120.0
            },
            {
                "start_time": 41.918181818181814,
                "end_time": 42.070454545454545,
                "pitch": 41,
                "velocity": 64,
                "duration": 0.1522727272727309,
                "tempo": 120.0
            },
            {
                "start_time": 42.12272727272727,
                "end_time": 42.27045454545454,
                "pitch": 41,
                "velocity": 64,
                "duration": 0.14772727272727337,
                "tempo": 120.0
            },
            {
                "start_time": 42.31818181818181,
                "end_time": 42.465909090909086,
                "pitch": 41,
                "velocity": 64,
                "duration": 0.14772727272727337,
                "tempo": 120.0
            },
            {
                "start_time": 42.51590909090909,
                "end_time": 42.668181818181814,
                "pitch": 41,
                "velocity": 64,
                "duration": 0.15227272727272378,
                "tempo": 120.0
            },
            {
                "start_time": 42.720454545454544,
                "end_time": 42.875,
                "pitch": 41,
                "velocity": 64,
                "duration": 0.1545454545454561,
                "tempo": 120.0
            },
            {
                "start_time": 42.925,
                "end_time": 43.07272727272727,
                "pitch": 41,
                "velocity": 64,
                "duration": 0.14772727272727337,
                "tempo": 120.0
            },
            {
                "start_time": 43.12045454545454,
                "end_time": 43.268181818181816,
                "pitch": 41,
                "velocity": 64,
                "duration": 0.14772727272727337,
                "tempo": 120.0
            },
            {
                "start_time": 43.31818181818181,
                "end_time": 43.470454545454544,
                "pitch": 41,
                "velocity": 64,
                "duration": 0.1522727272727309,
                "tempo": 120.0
            },
            {
                "start_time": 43.52272727272727,
                "end_time": 43.67727272727272,
                "pitch": 41,
                "velocity": 64,
                "duration": 0.154545454545449,
                "tempo": 120.0
            },
            {
                "start_time": 43.72727272727273,
                "end_time": 43.875,
                "pitch": 41,
                "velocity": 64,
                "duration": 0.14772727272727337,
                "tempo": 120.0
            },
            {
                "start_time": 43.925,
                "end_time": 44.070454545454545,
                "pitch": 41,
                "velocity": 64,
                "duration": 0.14545454545454817,
                "tempo": 120.0
            },
            {
                "start_time": 44.12045454545454,
                "end_time": 44.275,
                "pitch": 41,
                "velocity": 64,
                "duration": 0.1545454545454561,
                "tempo": 120.0
            },
            {
                "start_time": 44.324999999999996,
                "end_time": 44.47954545454545,
                "pitch": 41,
                "velocity": 64,
                "duration": 0.1545454545454561,
                "tempo": 120.0
            },
            {
                "start_time": 44.52954545454545,
                "end_time": 44.67727272727272,
                "pitch": 40,
                "velocity": 64,
                "duration": 0.14772727272727337,
                "tempo": 120.0
            },
            {
                "start_time": 44.72727272727273,
                "end_time": 44.87272727272727,
                "pitch": 38,
                "velocity": 64,
                "duration": 0.14545454545454106,
                "tempo": 120.0
            },
            {
                "start_time": 44.92272727272727,
                "end_time": 45.07727272727273,
                "pitch": 34,
                "velocity": 64,
                "duration": 0.1545454545454561,
                "tempo": 120.0
            },
            {
                "start_time": 45.127272727272725,
                "end_time": 45.28181818181818,
                "pitch": 34,
                "velocity": 64,
                "duration": 0.1545454545454561,
                "tempo": 120.0
            },
            {
                "start_time": 45.334090909090904,
                "end_time": 45.47954545454545,
                "pitch": 34,
                "velocity": 64,
                "duration": 0.14545454545454817,
                "tempo": 120.0
            },
            {
                "start_time": 45.52954545454545,
                "end_time": 45.67727272727272,
                "pitch": 35,
                "velocity": 64,
                "duration": 0.14772727272727337,
                "tempo": 120.0
            },
            {
                "start_time": 45.724999999999994,
                "end_time": 45.87954545454545,
                "pitch": 36,
                "velocity": 64,
                "duration": 0.1545454545454561,
                "tempo": 120.0
            },
            {
                "start_time": 45.929545454545455,
                "end_time": 46.084090909090904,
                "pitch": 36,
                "velocity": 64,
                "duration": 0.154545454545449,
                "tempo": 120.0
            },
            {
                "start_time": 46.13636363636363,
                "end_time": 46.28409090909091,
                "pitch": 36,
                "velocity": 64,
                "duration": 0.14772727272727337,
                "tempo": 120.0
            },
            {
                "start_time": 46.33181818181818,
                "end_time": 46.47954545454545,
                "pitch": 36,
                "velocity": 64,
                "duration": 0.14772727272727337,
                "tempo": 120.0
            },
            {
                "start_time": 46.527272727272724,
                "end_time": 46.679545454545455,
                "pitch": 36,
                "velocity": 64,
                "duration": 0.1522727272727309,
                "tempo": 120.0
            },
            {
                "start_time": 46.72954545454545,
                "end_time": 46.87954545454545,
                "pitch": 36,
                "velocity": 64,
                "duration": 0.14999999999999858,
                "tempo": 120.0
            },
            {
                "start_time": 46.93181818181818,
                "end_time": 47.08181818181818,
                "pitch": 36,
                "velocity": 64,
                "duration": 0.14999999999999858,
                "tempo": 120.0
            },
            {
                "start_time": 47.13181818181818,
                "end_time": 47.28181818181818,
                "pitch": 36,
                "velocity": 64,
                "duration": 0.14999999999999858,
                "tempo": 120.0
            },
            {
                "start_time": 47.33181818181818,
                "end_time": 47.48409090909091,
                "pitch": 36,
                "velocity": 64,
                "duration": 0.1522727272727309,
                "tempo": 120.0
            },
            {
                "start_time": 47.53636363636363,
                "end_time": 47.69090909090909,
                "pitch": 36,
                "velocity": 64,
                "duration": 0.1545454545454561,
                "tempo": 120.0
            },
            {
                "start_time": 47.74090909090909,
                "end_time": 47.88863636363636,
                "pitch": 38,
                "velocity": 64,
                "duration": 0.14772727272726627,
                "tempo": 120.0
            },
            {
                "start_time": 47.93863636363636,
                "end_time": 48.084090909090904,
                "pitch": 40,
                "velocity": 64,
                "duration": 0.14545454545454106,
                "tempo": 120.0
            },
            {
                "start_time": 48.15,
                "end_time": 48.28409090909091,
                "pitch": 41,
                "velocity": 64,
                "duration": 0.13409090909090793,
                "tempo": 120.0
            },
            {
                "start_time": 48.334090909090904,
                "end_time": 48.48409090909091,
                "pitch": 41,
                "velocity": 64,
                "duration": 0.15000000000000568,
                "tempo": 120.0
            },
            {
                "start_time": 48.53409090909091,
                "end_time": 48.684090909090905,
                "pitch": 41,
                "velocity": 64,
                "duration": 0.14999999999999858,
                "tempo": 120.0
            },
            {
                "start_time": 48.73409090909091,
                "end_time": 48.88636363636363,
                "pitch": 41,
                "velocity": 64,
                "duration": 0.15227272727272378,
                "tempo": 120.0
            },
            {
                "start_time": 48.93636363636364,
                "end_time": 49.090909090909086,
                "pitch": 41,
                "velocity": 64,
                "duration": 0.154545454545449,
                "tempo": 120.0
            },
            {
                "start_time": 49.14090909090909,
                "end_time": 49.29545454545454,
                "pitch": 41,
                "velocity": 64,
                "duration": 0.154545454545449,
                "tempo": 120.0
            },
            {
                "start_time": 49.34772727272727,
                "end_time": 49.49318181818182,
                "pitch": 41,
                "velocity": 64,
                "duration": 0.14545454545454817,
                "tempo": 120.0
            },
            {
                "start_time": 49.543181818181814,
                "end_time": 49.69090909090909,
                "pitch": 41,
                "velocity": 64,
                "duration": 0.14772727272727337,
                "tempo": 120.0
            },
            {
                "start_time": 49.73863636363636,
                "end_time": 49.893181818181816,
                "pitch": 41,
                "velocity": 64,
                "duration": 0.1545454545454561,
                "tempo": 120.0
            },
            {
                "start_time": 49.945454545454545,
                "end_time": 50.09772727272727,
                "pitch": 41,
                "velocity": 64,
                "duration": 0.15227272727272378,
                "tempo": 120.0
            },
            {
                "start_time": 50.15,
                "end_time": 50.29772727272727,
                "pitch": 41,
                "velocity": 64,
                "duration": 0.14772727272727337,
                "tempo": 120.0
            },
            {
                "start_time": 50.345454545454544,
                "end_time": 50.49318181818182,
                "pitch": 41,
                "velocity": 64,
                "duration": 0.14772727272727337,
                "tempo": 120.0
            },
            {
                "start_time": 50.54090909090909,
                "end_time": 50.695454545454545,
                "pitch": 41,
                "velocity": 64,
                "duration": 0.1545454545454561,
                "tempo": 120.0
            },
            {
                "start_time": 50.74772727272727,
                "end_time": 50.9,
                "pitch": 41,
                "velocity": 64,
                "duration": 0.1522727272727309,
                "tempo": 120.0
            },
            {
                "start_time": 50.95227272727273,
                "end_time": 51.099999999999994,
                "pitch": 40,
                "velocity": 64,
                "duration": 0.14772727272726627,
                "tempo": 120.0
            },
            {
                "start_time": 51.14772727272727,
                "end_time": 51.29545454545454,
                "pitch": 38,
                "velocity": 64,
                "duration": 0.14772727272726627,
                "tempo": 120.0
            },
            {
                "start_time": 51.345454545454544,
                "end_time": 51.49772727272727,
                "pitch": 34,
                "velocity": 64,
                "duration": 0.15227272727272378,
                "tempo": 120.0
            },
            {
                "start_time": 51.55,
                "end_time": 51.70454545454545,
                "pitch": 34,
                "velocity": 64,
                "duration": 0.1545454545454561,
                "tempo": 120.0
            },
            {
                "start_time": 51.75454545454545,
                "end_time": 51.902272727272724,
                "pitch": 34,
                "velocity": 64,
                "duration": 0.14772727272727337,
                "tempo": 120.0
            },
            {
                "start_time": 51.949999999999996,
                "end_time": 52.09772727272727,
                "pitch": 35,
                "velocity": 64,
                "duration": 0.14772727272727337,
                "tempo": 120.0
            },
            {
                "start_time": 52.14772727272727,
                "end_time": 52.3,
                "pitch": 36,
                "velocity": 64,
                "duration": 0.15227272727272378,
                "tempo": 120.0
            },
            {
                "start_time": 52.35227272727273,
                "end_time": 52.50681818181818,
                "pitch": 36,
                "velocity": 64,
                "duration": 0.1545454545454561,
                "tempo": 120.0
            },
            {
                "start_time": 52.55681818181818,
                "end_time": 52.70454545454545,
                "pitch": 36,
                "velocity": 64,
                "duration": 0.14772727272727337,
                "tempo": 120.0
            },
            {
                "start_time": 52.75454545454545,
                "end_time": 52.9,
                "pitch": 36,
                "velocity": 64,
                "duration": 0.14545454545454817,
                "tempo": 120.0
            },
            {
                "start_time": 52.949999999999996,
                "end_time": 53.099999999999994,
                "pitch": 36,
                "velocity": 64,
                "duration": 0.14999999999999858,
                "tempo": 120.0
            },
            {
                "start_time": 53.15,
                "end_time": 53.3,
                "pitch": 36,
                "velocity": 64,
                "duration": 0.14999999999999858,
                "tempo": 120.0
            },
            {
                "start_time": 53.349999999999994,
                "end_time": 53.5,
                "pitch": 36,
                "velocity": 64,
                "duration": 0.15000000000000568,
                "tempo": 120.0
            },
            {
                "start_time": 53.55,
                "end_time": 53.699999999999996,
                "pitch": 36,
                "velocity": 64,
                "duration": 0.14999999999999858,
                "tempo": 120.0
            },
            {
                "start_time": 53.75,
                "end_time": 53.9,
                "pitch": 36,
                "velocity": 64,
                "duration": 0.14999999999999858,
                "tempo": 120.0
            },
            {
                "start_time": 53.949999999999996,
                "end_time": 54.099999999999994,
                "pitch": 36,
                "velocity": 64,
                "duration": 0.14999999999999858,
                "tempo": 120.0
            },
            {
                "start_time": 54.15,
                "end_time": 54.3,
                "pitch": 38,
                "velocity": 64,
                "duration": 0.14999999999999858,
                "tempo": 120.0
            },
            {
                "start_time": 54.349999999999994,
                "end_time": 54.5,
                "pitch": 36,
                "velocity": 64,
                "duration": 0.15000000000000568,
                "tempo": 120.0
            },
            {
                "start_time": 54.56590909090909,
                "end_time": 55.18863636363636,
                "pitch": 38,
                "velocity": 64,
                "duration": 0.6227272727272748,
                "tempo": 120.0
            },
            {
                "start_time": 55.35227272727273,
                "end_time": 55.502272727272725,
                "pitch": 38,
                "velocity": 64,
                "duration": 0.14999999999999858,
                "tempo": 120.0
            },
            {
                "start_time": 55.55227272727272,
                "end_time": 55.70227272727273,
                "pitch": 29,
                "velocity": 64,
                "duration": 0.15000000000000568,
                "tempo": 120.0
            },
            {
                "start_time": 55.752272727272725,
                "end_time": 55.90681818181818,
                "pitch": 34,
                "velocity": 64,
                "duration": 0.1545454545454561,
                "tempo": 120.0
            },
            {
                "start_time": 55.959090909090904,
                "end_time": 56.111363636363635,
                "pitch": 38,
                "velocity": 64,
                "duration": 0.1522727272727309,
                "tempo": 120.0
            },
            {
                "start_time": 56.163636363636364,
                "end_time": 56.47954545454545,
                "pitch": 40,
                "velocity": 64,
                "duration": 0.3159090909090878,
                "tempo": 120.0
            },
            {
                "start_time": 56.76363636363636,
                "end_time": 57.07727272727273,
                "pitch": 36,
                "velocity": 64,
                "duration": 0.3136363636363697,
                "tempo": 120.0
            },
            {
                "start_time": 57.35681818181818,
                "end_time": 57.68181818181818,
                "pitch": 31,
                "velocity": 64,
                "duration": 0.32500000000000284,
                "tempo": 120.0
            },
            {
                "start_time": 57.76590909090909,
                "end_time": 58.402272727272724,
                "pitch": 40,
                "velocity": 64,
                "duration": 0.6363636363636331,
                "tempo": 120.0
            },
            {
                "start_time": 58.76590909090909,
                "end_time": 58.91136363636363,
                "pitch": 33,
                "velocity": 64,
                "duration": 0.14545454545454106,
                "tempo": 120.0
            },
            {
                "start_time": 58.961363636363636,
                "end_time": 59.115909090909085,
                "pitch": 36,
                "velocity": 64,
                "duration": 0.154545454545449,
                "tempo": 120.0
            },
            {
                "start_time": 59.16590909090909,
                "end_time": 59.320454545454545,
                "pitch": 40,
                "velocity": 64,
                "duration": 0.1545454545454561,
                "tempo": 120.0
            },
            {
                "start_time": 59.37272727272727,
                "end_time": 59.68863636363636,
                "pitch": 43,
                "velocity": 64,
                "duration": 0.3159090909090949,
                "tempo": 120.0
            },
            {
                "start_time": 59.97272727272727,
                "end_time": 60.288636363636364,
                "pitch": 41,
                "velocity": 64,
                "duration": 0.3159090909090949,
                "tempo": 120.0
            },
            {
                "start_time": 60.56590909090909,
                "end_time": 60.89090909090909,
                "pitch": 40,
                "velocity": 64,
                "duration": 0.32500000000000284,
                "tempo": 120.0
            },
            {
                "start_time": 60.97727272727273,
                "end_time": 61.29545454545454,
                "pitch": 38,
                "velocity": 64,
                "duration": 0.318181818181813,
                "tempo": 120.0
            },
            {
                "start_time": 61.57727272727272,
                "end_time": 61.89090909090909,
                "pitch": 34,
                "velocity": 64,
                "duration": 0.3136363636363697,
                "tempo": 120.0
            },
            {
                "start_time": 62.17045454545454,
                "end_time": 62.49545454545454,
                "pitch": 38,
                "velocity": 64,
                "duration": 0.32500000000000284,
                "tempo": 120.0
            },
            {
                "start_time": 62.57954545454545,
                "end_time": 62.897727272727266,
                "pitch": 40,
                "velocity": 64,
                "duration": 0.318181818181813,
                "tempo": 120.0
            },
            {
                "start_time": 63.179545454545455,
                "end_time": 63.49545454545454,
                "pitch": 36,
                "velocity": 64,
                "duration": 0.3159090909090878,
                "tempo": 120.0
            },
            {
                "start_time": 63.772727272727266,
                "end_time": 64.09772727272727,
                "pitch": 40,
                "velocity": 64,
                "duration": 0.32500000000000284,
                "tempo": 120.0
            },
            {
                "start_time": 64.18409090909091,
                "end_time": 64.5,
                "pitch": 41,
                "velocity": 64,
                "duration": 0.3159090909090878,
                "tempo": 120.0
            },
            {
                "start_time": 64.5840909090909,
                "end_time": 64.73409090909091,
                "pitch": 41,
                "velocity": 64,
                "duration": 0.15000000000000568,
                "tempo": 120.0
            },
            {
                "start_time": 64.7840909090909,
                "end_time": 65.09772727272727,
                "pitch": 41,
                "velocity": 64,
                "duration": 0.3136363636363626,
                "tempo": 120.0
            },
            {
                "start_time": 65.375,
                "end_time": 65.69545454545454,
                "pitch": 34,
                "velocity": 64,
                "duration": 0.3204545454545382,
                "tempo": 120.0
            },
            {
                "start_time": 65.77727272727273,
                "end_time": 66.09545454545454,
                "pitch": 44,
                "velocity": 64,
                "duration": 0.318181818181813,
                "tempo": 120.0
            },
            {
                "start_time": 66.17954545454545,
                "end_time": 66.49772727272727,
                "pitch": 46,
                "velocity": 64,
                "duration": 0.3181818181818272,
                "tempo": 120.0
            },
            {
                "start_time": 66.58181818181818,
                "end_time": 66.73181818181818,
                "pitch": 48,
                "velocity": 64,
                "duration": 0.15000000000000568,
                "tempo": 120.0
            },
            {
                "start_time": 66.78181818181818,
                "end_time": 67.09772727272727,
                "pitch": 45,
                "velocity": 64,
                "duration": 0.3159090909090878,
                "tempo": 120.0
            },
            {
                "start_time": 67.3840909090909,
                "end_time": 67.70227272727273,
                "pitch": 41,
                "velocity": 64,
                "duration": 0.3181818181818272,
                "tempo": 120.0
            },
            {
                "start_time": 67.98636363636363,
                "end_time": 68.13636363636363,
                "pitch": 41,
                "velocity": 64,
                "duration": 0.14999999999999147,
                "tempo": 120.0
            },
            {
                "start_time": 68.18636363636364,
                "end_time": 68.50454545454545,
                "pitch": 41,
                "velocity": 64,
                "duration": 0.318181818181813,
                "tempo": 120.0
            },
            {
                "start_time": 68.78863636363636,
                "end_time": 68.93863636363636,
                "pitch": 41,
                "velocity": 64,
                "duration": 0.15000000000000568,
                "tempo": 120.0
            },
            {
                "start_time": 69.19090909090909,
                "end_time": 69.3409090909091,
                "pitch": 41,
                "velocity": 64,
                "duration": 0.15000000000000568,
                "tempo": 120.0
            },
            {
                "start_time": 69.59318181818182,
                "end_time": 69.74318181818181,
                "pitch": 41,
                "velocity": 64,
                "duration": 0.14999999999999147,
                "tempo": 120.0
            },
            {
                "start_time": 69.79545454545455,
                "end_time": 70.12045454545454,
                "pitch": 41,
                "velocity": 64,
                "duration": 0.32499999999998863,
                "tempo": 120.0
            },
            {
                "start_time": 70.20454545454545,
                "end_time": 70.51590909090909,
                "pitch": 36,
                "velocity": 64,
                "duration": 0.3113636363636374,
                "tempo": 120.0
            },
            {
                "start_time": 70.61363636363636,
                "end_time": 70.92272727272727,
                "pitch": 38,
                "velocity": 64,
                "duration": 0.3090909090909122,
                "tempo": 120.0
            },
            {
                "start_time": 71.20454545454545,
                "end_time": 71.35,
                "pitch": 38,
                "velocity": 64,
                "duration": 0.14545454545454106,
                "tempo": 120.0
            },
            {
                "start_time": 71.39999999999999,
                "end_time": 71.71818181818182,
                "pitch": 38,
                "velocity": 64,
                "duration": 0.3181818181818272,
                "tempo": 120.0
            },
            {
                "start_time": 71.80227272727272,
                "end_time": 71.95681818181818,
                "pitch": 34,
                "velocity": 64,
                "duration": 0.1545454545454561,
                "tempo": 120.0
            },
            {
                "start_time": 72.0090909090909,
                "end_time": 72.16136363636363,
                "pitch": 40,
                "velocity": 64,
                "duration": 0.1522727272727309,
                "tempo": 120.0
            },
            {
                "start_time": 72.4090909090909,
                "end_time": 72.55681818181817,
                "pitch": 40,
                "velocity": 64,
                "duration": 0.14772727272726627,
                "tempo": 120.0
            },
            {
                "start_time": 72.81136363636364,
                "end_time": 72.9659090909091,
                "pitch": 40,
                "velocity": 64,
                "duration": 0.1545454545454561,
                "tempo": 120.0
            },
            {
                "start_time": 73.01590909090909,
                "end_time": 73.32727272727273,
                "pitch": 38,
                "velocity": 64,
                "duration": 0.3113636363636374,
                "tempo": 120.0
            },
            {
                "start_time": 73.4090909090909,
                "end_time": 73.72727272727272,
                "pitch": 40,
                "velocity": 64,
                "duration": 0.318181818181813,
                "tempo": 120.0
            },
            {
                "start_time": 73.81136363636364,
                "end_time": 74.12727272727273,
                "pitch": 41,
                "velocity": 64,
                "duration": 0.3159090909090878,
                "tempo": 120.0
            },
            {
                "start_time": 74.41136363636363,
                "end_time": 74.56363636363636,
                "pitch": 41,
                "velocity": 64,
                "duration": 0.1522727272727309,
                "tempo": 120.0
            },
            {
                "start_time": 74.61363636363636,
                "end_time": 74.92954545454545,
                "pitch": 41,
                "velocity": 64,
                "duration": 0.3159090909090878,
                "tempo": 120.0
            },
            {
                "start_time": 75.2159090909091,
                "end_time": 75.36590909090908,
                "pitch": 41,
                "velocity": 64,
                "duration": 0.14999999999999147,
                "tempo": 120.0
            },
            {
                "start_time": 75.61818181818181,
                "end_time": 75.76818181818182,
                "pitch": 41,
                "velocity": 64,
                "duration": 0.15000000000000568,
                "tempo": 120.0
            },
            {
                "start_time": 76.01818181818182,
                "end_time": 76.16818181818182,
                "pitch": 41,
                "velocity": 64,
                "duration": 0.15000000000000568,
                "tempo": 120.0
            },
            {
                "start_time": 76.21818181818182,
                "end_time": 76.53863636363636,
                "pitch": 41,
                "velocity": 64,
                "duration": 0.3204545454545382,
                "tempo": 120.0
            },
            {
                "start_time": 76.62272727272727,
                "end_time": 76.93863636363636,
                "pitch": 36,
                "velocity": 64,
                "duration": 0.3159090909090878,
                "tempo": 120.0
            },
            {
                "start_time": 77.02272727272727,
                "end_time": 77.3409090909091,
                "pitch": 38,
                "velocity": 64,
                "duration": 0.3181818181818272,
                "tempo": 120.0
            },
            {
                "start_time": 77.625,
                "end_time": 77.77727272727272,
                "pitch": 38,
                "velocity": 64,
                "duration": 0.15227272727271668,
                "tempo": 120.0
            },
            {
                "start_time": 77.82727272727273,
                "end_time": 78.14318181818182,
                "pitch": 38,
                "velocity": 64,
                "duration": 0.3159090909090878,
                "tempo": 120.0
            },
            {
                "start_time": 78.22727272727272,
                "end_time": 78.38181818181818,
                "pitch": 34,
                "velocity": 64,
                "duration": 0.1545454545454561,
                "tempo": 120.0
            },
            {
                "start_time": 78.43181818181817,
                "end_time": 78.58636363636363,
                "pitch": 40,
                "velocity": 64,
                "duration": 0.1545454545454561,
                "tempo": 120.0
            },
            {
                "start_time": 78.8340909090909,
                "end_time": 78.98181818181818,
                "pitch": 40,
                "velocity": 64,
                "duration": 0.14772727272728048,
                "tempo": 120.0
            },
            {
                "start_time": 79.23181818181818,
                "end_time": 79.38181818181818,
                "pitch": 40,
                "velocity": 64,
                "duration": 0.14999999999999147,
                "tempo": 120.0
            },
            {
                "start_time": 79.43181818181817,
                "end_time": 79.75227272727273,
                "pitch": 38,
                "velocity": 64,
                "duration": 0.32045454545455243,
                "tempo": 120.0
            },
            {
                "start_time": 79.83636363636363,
                "end_time": 80.16136363636363,
                "pitch": 40,
                "velocity": 64,
                "duration": 0.32500000000000284,
                "tempo": 120.0
            },
            {
                "start_time": 80.24545454545454,
                "end_time": 80.56363636363636,
                "pitch": 41,
                "velocity": 64,
                "duration": 0.3181818181818272,
                "tempo": 120.0
            },
            {
                "start_time": 80.84318181818182,
                "end_time": 80.98863636363636,
                "pitch": 41,
                "velocity": 64,
                "duration": 0.14545454545454106,
                "tempo": 120.0
            },
            {
                "start_time": 81.03863636363636,
                "end_time": 81.35681818181818,
                "pitch": 41,
                "velocity": 64,
                "duration": 0.3181818181818272,
                "tempo": 120.0
            },
            {
                "start_time": 81.64318181818182,
                "end_time": 81.79318181818181,
                "pitch": 41,
                "velocity": 64,
                "duration": 0.14999999999999147,
                "tempo": 120.0
            },
            {
                "start_time": 82.04318181818181,
                "end_time": 82.19318181818181,
                "pitch": 41,
                "velocity": 64,
                "duration": 0.15000000000000568,
                "tempo": 120.0
            },
            {
                "start_time": 82.44545454545454,
                "end_time": 82.59545454545454,
                "pitch": 41,
                "velocity": 64,
                "duration": 0.15000000000000568,
                "tempo": 120.0
            },
            {
                "start_time": 82.64545454545454,
                "end_time": 82.96363636363635,
                "pitch": 41,
                "velocity": 64,
                "duration": 0.318181818181813,
                "tempo": 120.0
            },
            {
                "start_time": 83.04545454545455,
                "end_time": 83.36590909090908,
                "pitch": 40,
                "velocity": 64,
                "duration": 0.3204545454545382,
                "tempo": 120.0
            },
            {
                "start_time": 83.45,
                "end_time": 83.76818181818182,
                "pitch": 38,
                "velocity": 64,
                "duration": 0.318181818181813,
                "tempo": 120.0
            },
            {
                "start_time": 84.05227272727272,
                "end_time": 84.20227272727273,
                "pitch": 38,
                "velocity": 64,
                "duration": 0.15000000000000568,
                "tempo": 120.0
            },
            {
                "start_time": 84.25227272727273,
                "end_time": 84.57045454545454,
                "pitch": 38,
                "velocity": 64,
                "duration": 0.318181818181813,
                "tempo": 120.0
            },
            {
                "start_time": 84.65454545454546,
                "end_time": 84.80454545454545,
                "pitch": 34,
                "velocity": 64,
                "duration": 0.14999999999999147,
                "tempo": 120.0
            },
            {
                "start_time": 84.85454545454544,
                "end_time": 85.00454545454545,
                "pitch": 40,
                "velocity": 64,
                "duration": 0.15000000000000568,
                "tempo": 120.0
            },
            {
                "start_time": 85.25681818181818,
                "end_time": 85.40681818181818,
                "pitch": 40,
                "velocity": 64,
                "duration": 0.15000000000000568,
                "tempo": 120.0
            },
            {
                "start_time": 85.66363636363636,
                "end_time": 85.81590909090909,
                "pitch": 40,
                "velocity": 64,
                "duration": 0.1522727272727309,
                "tempo": 120.0
            },
            {
                "start_time": 85.86818181818181,
                "end_time": 86.17954545454545,
                "pitch": 40,
                "velocity": 64,
                "duration": 0.3113636363636374,
                "tempo": 120.0
            },
            {
                "start_time": 86.2590909090909,
                "end_time": 86.57954545454545,
                "pitch": 36,
                "velocity": 64,
                "duration": 0.32045454545455243,
                "tempo": 120.0
            },
            {
                "start_time": 86.66363636363636,
                "end_time": 86.97954545454544,
                "pitch": 45,
                "velocity": 64,
                "duration": 0.3159090909090878,
                "tempo": 120.0
            },
            {
                "start_time": 87.26363636363637,
                "end_time": 87.41590909090908,
                "pitch": 45,
                "velocity": 64,
                "duration": 0.15227272727271668,
                "tempo": 120.0
            },
            {
                "start_time": 87.4659090909091,
                "end_time": 87.7840909090909,
                "pitch": 45,
                "velocity": 64,
                "duration": 0.318181818181813,
                "tempo": 120.0
            },
            {
                "start_time": 87.86818181818181,
                "end_time": 88.01818181818182,
                "pitch": 36,
                "velocity": 64,
                "duration": 0.15000000000000568,
                "tempo": 120.0
            },
            {
                "start_time": 88.06818181818181,
                "end_time": 88.21818181818182,
                "pitch": 41,
                "velocity": 64,
                "duration": 0.15000000000000568,
                "tempo": 120.0
            },
            {
                "start_time": 88.47045454545454,
                "end_time": 88.62045454545454,
                "pitch": 41,
                "velocity": 64,
                "duration": 0.14999999999999147,
                "tempo": 120.0
            },
            {
                "start_time": 88.87045454545454,
                "end_time": 89.02045454545454,
                "pitch": 41,
                "velocity": 64,
                "duration": 0.15000000000000568,
                "tempo": 120.0
            },
            {
                "start_time": 89.07045454545454,
                "end_time": 89.38863636363637,
                "pitch": 41,
                "velocity": 64,
                "duration": 0.3181818181818272,
                "tempo": 120.0
            },
            {
                "start_time": 89.47272727272727,
                "end_time": 89.79318181818181,
                "pitch": 36,
                "velocity": 64,
                "duration": 0.3204545454545382,
                "tempo": 120.0
            },
            {
                "start_time": 89.87727272727273,
                "end_time": 90.19318181818181,
                "pitch": 46,
                "velocity": 64,
                "duration": 0.3159090909090878,
                "tempo": 120.0
            },
            {
                "start_time": 90.27727272727272,
                "end_time": 90.59545454545454,
                "pitch": 45,
                "velocity": 64,
                "duration": 0.3181818181818272,
                "tempo": 120.0
            },
            {
                "start_time": 90.67954545454545,
                "end_time": 90.99545454545454,
                "pitch": 43,
                "velocity": 64,
                "duration": 0.3159090909090878,
                "tempo": 120.0
            },
            {
                "start_time": 91.07954545454545,
                "end_time": 91.39772727272727,
                "pitch": 46,
                "velocity": 64,
                "duration": 0.318181818181813,
                "tempo": 120.0
            },
            {
                "start_time": 91.48181818181818,
                "end_time": 91.8,
                "pitch": 45,
                "velocity": 64,
                "duration": 0.318181818181813,
                "tempo": 120.0
            },
            {
                "start_time": 91.8840909090909,
                "end_time": 92.19999999999999,
                "pitch": 43,
                "velocity": 64,
                "duration": 0.3159090909090878,
                "tempo": 120.0
            },
            {
                "start_time": 92.2840909090909,
                "end_time": 92.60227272727272,
                "pitch": 46,
                "velocity": 64,
                "duration": 0.318181818181813,
                "tempo": 120.0
            },
            {
                "start_time": 92.68636363636364,
                "end_time": 93.00454545454545,
                "pitch": 38,
                "velocity": 64,
                "duration": 0.318181818181813,
                "tempo": 120.0
            },
            {
                "start_time": 93.08636363636363,
                "end_time": 93.41136363636363,
                "pitch": 36,
                "velocity": 64,
                "duration": 0.32500000000000284,
                "tempo": 120.0
            },
            {
                "start_time": 93.49772727272727,
                "end_time": 93.8090909090909,
                "pitch": 36,
                "velocity": 64,
                "duration": 0.3113636363636232,
                "tempo": 120.0
            },
            {
                "start_time": 93.89090909090909,
                "end_time": 94.04318181818181,
                "pitch": 36,
                "velocity": 64,
                "duration": 0.15227272727271668,
                "tempo": 120.0
            },
            {
                "start_time": 94.09545454545454,
                "end_time": 94.25,
                "pitch": 38,
                "velocity": 64,
                "duration": 0.1545454545454561,
                "tempo": 120.0
            },
            {
                "start_time": 94.3,
                "end_time": 94.44772727272726,
                "pitch": 39,
                "velocity": 64,
                "duration": 0.14772727272726627,
                "tempo": 120.0
            },
            {
                "start_time": 94.49545454545454,
                "end_time": 94.64318181818182,
                "pitch": 40,
                "velocity": 64,
                "duration": 0.14772727272728048,
                "tempo": 120.0
            },
            {
                "start_time": 94.69318181818181,
                "end_time": 95.0090909090909,
                "pitch": 36,
                "velocity": 64,
                "duration": 0.3159090909090878,
                "tempo": 120.0
            },
            {
                "start_time": 95.09318181818182,
                "end_time": 95.41136363636363,
                "pitch": 36,
                "velocity": 64,
                "duration": 0.318181818181813,
                "tempo": 120.0
            },
            {
                "start_time": 95.49545454545454,
                "end_time": 95.81363636363636,
                "pitch": 38,
                "velocity": 64,
                "duration": 0.3181818181818272,
                "tempo": 120.0
            },
            {
                "start_time": 95.89772727272727,
                "end_time": 96.21363636363635,
                "pitch": 41,
                "velocity": 64,
                "duration": 0.3159090909090878,
                "tempo": 120.0
            },
            {
                "start_time": 96.31590909090909,
                "end_time": 96.45227272727273,
                "pitch": 41,
                "velocity": 64,
                "duration": 0.13636363636364024,
                "tempo": 120.0
            },
            {
                "start_time": 96.50227272727273,
                "end_time": 96.65681818181818,
                "pitch": 41,
                "velocity": 64,
                "duration": 0.1545454545454561,
                "tempo": 120.0
            },
            {
                "start_time": 96.7090909090909,
                "end_time": 96.85454545454544,
                "pitch": 41,
                "velocity": 64,
                "duration": 0.14545454545454106,
                "tempo": 120.0
            },
            {
                "start_time": 96.90454545454546,
                "end_time": 97.05227272727272,
                "pitch": 41,
                "velocity": 64,
                "duration": 0.14772727272726627,
                "tempo": 120.0
            },
            {
                "start_time": 97.1,
                "end_time": 97.25454545454545,
                "pitch": 41,
                "velocity": 64,
                "duration": 0.1545454545454561,
                "tempo": 120.0
            },
            {
                "start_time": 97.30681818181817,
                "end_time": 97.4590909090909,
                "pitch": 41,
                "velocity": 64,
                "duration": 0.1522727272727309,
                "tempo": 120.0
            },
            {
                "start_time": 97.51136363636363,
                "end_time": 97.6590909090909,
                "pitch": 41,
                "velocity": 64,
                "duration": 0.14772727272728048,
                "tempo": 120.0
            },
            {
                "start_time": 97.70681818181818,
                "end_time": 97.85454545454544,
                "pitch": 41,
                "velocity": 64,
                "duration": 0.14772727272726627,
                "tempo": 120.0
            },
            {
                "start_time": 97.90227272727272,
                "end_time": 98.05681818181817,
                "pitch": 41,
                "velocity": 64,
                "duration": 0.1545454545454561,
                "tempo": 120.0
            },
            {
                "start_time": 98.10909090909091,
                "end_time": 98.26363636363637,
                "pitch": 41,
                "velocity": 64,
                "duration": 0.1545454545454561,
                "tempo": 120.0
            },
            {
                "start_time": 98.31363636363636,
                "end_time": 98.46136363636363,
                "pitch": 41,
                "velocity": 64,
                "duration": 0.14772727272726627,
                "tempo": 120.0
            },
            {
                "start_time": 98.5090909090909,
                "end_time": 98.65681818181818,
                "pitch": 41,
                "velocity": 64,
                "duration": 0.14772727272728048,
                "tempo": 120.0
            },
            {
                "start_time": 98.70681818181818,
                "end_time": 98.85909090909091,
                "pitch": 41,
                "velocity": 64,
                "duration": 0.1522727272727309,
                "tempo": 120.0
            },
            {
                "start_time": 98.91136363636363,
                "end_time": 99.06590909090909,
                "pitch": 41,
                "velocity": 64,
                "duration": 0.1545454545454561,
                "tempo": 120.0
            },
            {
                "start_time": 99.11590909090908,
                "end_time": 99.26363636363637,
                "pitch": 40,
                "velocity": 64,
                "duration": 0.14772727272728048,
                "tempo": 120.0
            },
            {
                "start_time": 99.31363636363636,
                "end_time": 99.4590909090909,
                "pitch": 38,
                "velocity": 64,
                "duration": 0.14545454545454106,
                "tempo": 120.0
            },
            {
                "start_time": 99.5090909090909,
                "end_time": 99.66136363636363,
                "pitch": 34,
                "velocity": 64,
                "duration": 0.1522727272727309,
                "tempo": 120.0
            },
            {
                "start_time": 99.71363636363635,
                "end_time": 99.86818181818181,
                "pitch": 34,
                "velocity": 64,
                "duration": 0.1545454545454561,
                "tempo": 120.0
            },
            {
                "start_time": 99.91818181818181,
                "end_time": 100.06590909090909,
                "pitch": 34,
                "velocity": 64,
                "duration": 0.14772727272728048,
                "tempo": 120.0
            },
            {
                "start_time": 100.11590909090908,
                "end_time": 100.26136363636363,
                "pitch": 35,
                "velocity": 64,
                "duration": 0.14545454545454106,
                "tempo": 120.0
            },
            {
                "start_time": 100.31136363636364,
                "end_time": 100.46590909090908,
                "pitch": 36,
                "velocity": 64,
                "duration": 0.15454545454544188,
                "tempo": 120.0
            },
            {
                "start_time": 100.51590909090909,
                "end_time": 100.67045454545455,
                "pitch": 36,
                "velocity": 64,
                "duration": 0.1545454545454561,
                "tempo": 120.0
            },
            {
                "start_time": 100.72272727272727,
                "end_time": 100.86818181818181,
                "pitch": 36,
                "velocity": 64,
                "duration": 0.14545454545454106,
                "tempo": 120.0
            },
            {
                "start_time": 100.91818181818181,
                "end_time": 101.06590909090909,
                "pitch": 36,
                "velocity": 64,
                "duration": 0.14772727272728048,
                "tempo": 120.0
            },
            {
                "start_time": 101.11363636363636,
                "end_time": 101.26590909090909,
                "pitch": 36,
                "velocity": 64,
                "duration": 0.1522727272727309,
                "tempo": 120.0
            },
            {
                "start_time": 101.31590909090909,
                "end_time": 101.46590909090908,
                "pitch": 36,
                "velocity": 64,
                "duration": 0.14999999999999147,
                "tempo": 120.0
            },
            {
                "start_time": 101.51590909090909,
                "end_time": 101.66818181818181,
                "pitch": 36,
                "velocity": 64,
                "duration": 0.15227272727271668,
                "tempo": 120.0
            },
            {
                "start_time": 101.71818181818182,
                "end_time": 101.86818181818181,
                "pitch": 36,
                "velocity": 64,
                "duration": 0.14999999999999147,
                "tempo": 120.0
            },
            {
                "start_time": 101.92045454545455,
                "end_time": 102.07045454545454,
                "pitch": 36,
                "velocity": 64,
                "duration": 0.14999999999999147,
                "tempo": 120.0
            },
            {
                "start_time": 102.12045454545454,
                "end_time": 102.27045454545454,
                "pitch": 36,
                "velocity": 64,
                "duration": 0.15000000000000568,
                "tempo": 120.0
            },
            {
                "start_time": 102.32045454545454,
                "end_time": 102.47045454545454,
                "pitch": 38,
                "velocity": 64,
                "duration": 0.15000000000000568,
                "tempo": 120.0
            },
            {
                "start_time": 102.52045454545454,
                "end_time": 102.67272727272727,
                "pitch": 40,
                "velocity": 64,
                "duration": 0.1522727272727309,
                "tempo": 120.0
            },
            {
                "start_time": 102.73863636363636,
                "end_time": 102.875,
                "pitch": 41,
                "velocity": 64,
                "duration": 0.13636363636364024,
                "tempo": 120.0
            },
            {
                "start_time": 102.92727272727272,
                "end_time": 103.08181818181818,
                "pitch": 41,
                "velocity": 64,
                "duration": 0.1545454545454561,
                "tempo": 120.0
            },
            {
                "start_time": 103.13181818181818,
                "end_time": 103.27954545454546,
                "pitch": 41,
                "velocity": 64,
                "duration": 0.14772727272728048,
                "tempo": 120.0
            },
            {
                "start_time": 103.32954545454545,
                "end_time": 103.475,
                "pitch": 41,
                "velocity": 64,
                "duration": 0.14545454545454106,
                "tempo": 120.0
            },
            {
                "start_time": 103.52499999999999,
                "end_time": 103.67954545454545,
                "pitch": 41,
                "velocity": 64,
                "duration": 0.1545454545454561,
                "tempo": 120.0
            },
            {
                "start_time": 103.72954545454544,
                "end_time": 103.8840909090909,
                "pitch": 41,
                "velocity": 64,
                "duration": 0.1545454545454561,
                "tempo": 120.0
            },
            {
                "start_time": 103.93636363636364,
                "end_time": 104.08181818181818,
                "pitch": 41,
                "velocity": 64,
                "duration": 0.14545454545454106,
                "tempo": 120.0
            },
            {
                "start_time": 104.13181818181818,
                "end_time": 104.27954545454546,
                "pitch": 41,
                "velocity": 64,
                "duration": 0.14772727272728048,
                "tempo": 120.0
            },
            {
                "start_time": 104.32727272727273,
                "end_time": 104.48181818181817,
                "pitch": 41,
                "velocity": 64,
                "duration": 0.15454545454544188,
                "tempo": 120.0
            },
            {
                "start_time": 104.53181818181818,
                "end_time": 104.68636363636364,
                "pitch": 41,
                "velocity": 64,
                "duration": 0.1545454545454561,
                "tempo": 120.0
            },
            {
                "start_time": 104.73863636363636,
                "end_time": 104.8840909090909,
                "pitch": 41,
                "velocity": 64,
                "duration": 0.14545454545454106,
                "tempo": 120.0
            },
            {
                "start_time": 104.9340909090909,
                "end_time": 105.08181818181818,
                "pitch": 41,
                "velocity": 64,
                "duration": 0.14772727272728048,
                "tempo": 120.0
            },
            {
                "start_time": 105.12954545454545,
                "end_time": 105.28181818181818,
                "pitch": 41,
                "velocity": 64,
                "duration": 0.1522727272727309,
                "tempo": 120.0
            },
            {
                "start_time": 105.33181818181818,
                "end_time": 105.48181818181817,
                "pitch": 41,
                "velocity": 64,
                "duration": 0.14999999999999147,
                "tempo": 120.0
            },
            {
                "start_time": 105.53181818181818,
                "end_time": 105.6840909090909,
                "pitch": 40,
                "velocity": 64,
                "duration": 0.15227272727271668,
                "tempo": 120.0
            },
            {
                "start_time": 105.73409090909091,
                "end_time": 105.88636363636363,
                "pitch": 38,
                "velocity": 64,
                "duration": 0.15227272727271668,
                "tempo": 120.0
            },
            {
                "start_time": 105.93636363636364,
                "end_time": 106.08636363636363,
                "pitch": 34,
                "velocity": 64,
                "duration": 0.14999999999999147,
                "tempo": 120.0
            },
            {
                "start_time": 106.13636363636363,
                "end_time": 106.28636363636363,
                "pitch": 34,
                "velocity": 64,
                "duration": 0.15000000000000568,
                "tempo": 120.0
            },
            {
                "start_time": 106.33636363636363,
                "end_time": 106.48636363636363,
                "pitch": 34,
                "velocity": 64,
                "duration": 0.15000000000000568,
                "tempo": 120.0
            },
            {
                "start_time": 106.53636363636363,
                "end_time": 106.68863636363636,
                "pitch": 35,
                "velocity": 64,
                "duration": 0.1522727272727309,
                "tempo": 120.0
            },
            {
                "start_time": 106.73863636363636,
                "end_time": 106.89318181818182,
                "pitch": 36,
                "velocity": 64,
                "duration": 0.1545454545454561,
                "tempo": 120.0
            },
            {
                "start_time": 106.94318181818181,
                "end_time": 107.09772727272727,
                "pitch": 36,
                "velocity": 64,
                "duration": 0.1545454545454561,
                "tempo": 120.0
            },
            {
                "start_time": 107.14999999999999,
                "end_time": 107.29545454545455,
                "pitch": 36,
                "velocity": 64,
                "duration": 0.14545454545455527,
                "tempo": 120.0
            },
            {
                "start_time": 107.34545454545454,
                "end_time": 107.49318181818181,
                "pitch": 36,
                "velocity": 64,
                "duration": 0.14772727272726627,
                "tempo": 120.0
            },
            {
                "start_time": 107.54090909090908,
                "end_time": 107.69318181818181,
                "pitch": 36,
                "velocity": 64,
                "duration": 0.1522727272727309,
                "tempo": 120.0
            },
            {
                "start_time": 107.74318181818181,
                "end_time": 107.89318181818182,
                "pitch": 36,
                "velocity": 64,
                "duration": 0.15000000000000568,
                "tempo": 120.0
            },
            {
                "start_time": 107.94318181818181,
                "end_time": 108.09318181818182,
                "pitch": 36,
                "velocity": 64,
                "duration": 0.15000000000000568,
                "tempo": 120.0
            },
            {
                "start_time": 108.14318181818182,
                "end_time": 108.29318181818181,
                "pitch": 36,
                "velocity": 64,
                "duration": 0.14999999999999147,
                "tempo": 120.0
            },
            {
                "start_time": 108.34318181818182,
                "end_time": 108.49772727272726,
                "pitch": 36,
                "velocity": 64,
                "duration": 0.15454545454544188,
                "tempo": 120.0
            },
            {
                "start_time": 108.55,
                "end_time": 108.70227272727273,
                "pitch": 36,
                "velocity": 64,
                "duration": 0.1522727272727309,
                "tempo": 120.0
            },
            {
                "start_time": 108.75454545454545,
                "end_time": 108.90227272727272,
                "pitch": 38,
                "velocity": 64,
                "duration": 0.14772727272726627,
                "tempo": 120.0
            },
            {
                "start_time": 108.94999999999999,
                "end_time": 109.09772727272727,
                "pitch": 36,
                "velocity": 64,
                "duration": 0.14772727272728048,
                "tempo": 120.0
            },
            {
                "start_time": 109.16363636363636,
                "end_time": 109.78636363636363,
                "pitch": 38,
                "velocity": 64,
                "duration": 0.6227272727272748,
                "tempo": 120.0
            },
            {
                "start_time": 109.94999999999999,
                "end_time": 110.1,
                "pitch": 38,
                "velocity": 64,
                "duration": 0.15000000000000568,
                "tempo": 120.0
            },
            {
                "start_time": 110.14999999999999,
                "end_time": 110.3,
                "pitch": 29,
                "velocity": 64,
                "duration": 0.15000000000000568,
                "tempo": 120.0
            },
            {
                "start_time": 110.35,
                "end_time": 110.5,
                "pitch": 34,
                "velocity": 64,
                "duration": 0.15000000000000568,
                "tempo": 120.0
            },
            {
                "start_time": 110.55,
                "end_time": 110.70227272727273,
                "pitch": 38,
                "velocity": 64,
                "duration": 0.1522727272727309,
                "tempo": 120.0
            },
            {
                "start_time": 110.75227272727273,
                "end_time": 111.07727272727273,
                "pitch": 40,
                "velocity": 64,
                "duration": 0.32500000000000284,
                "tempo": 120.0
            },
            {
                "start_time": 111.35909090909091,
                "end_time": 111.67272727272727,
                "pitch": 36,
                "velocity": 64,
                "duration": 0.3136363636363626,
                "tempo": 120.0
            },
            {
                "start_time": 111.95681818181818,
                "end_time": 112.28181818181818,
                "pitch": 31,
                "velocity": 64,
                "duration": 0.32500000000000284,
                "tempo": 120.0
            },
            {
                "start_time": 112.36818181818181,
                "end_time": 112.99772727272726,
                "pitch": 40,
                "velocity": 64,
                "duration": 0.6295454545454504,
                "tempo": 120.0
            },
            {
                "start_time": 113.36136363636363,
                "end_time": 113.51363636363635,
                "pitch": 33,
                "velocity": 64,
                "duration": 0.15227272727271668,
                "tempo": 120.0
            },
            {
                "start_time": 113.56363636363636,
                "end_time": 113.71818181818182,
                "pitch": 36,
                "velocity": 64,
                "duration": 0.1545454545454561,
                "tempo": 120.0
            },
            {
                "start_time": 113.76818181818182,
                "end_time": 113.92272727272727,
                "pitch": 40,
                "velocity": 64,
                "duration": 0.1545454545454561,
                "tempo": 120.0
            },
            {
                "start_time": 113.975,
                "end_time": 114.29318181818181,
                "pitch": 43,
                "velocity": 64,
                "duration": 0.318181818181813,
                "tempo": 120.0
            },
            {
                "start_time": 114.57272727272726,
                "end_time": 114.88636363636363,
                "pitch": 41,
                "velocity": 64,
                "duration": 0.3136363636363626,
                "tempo": 120.0
            },
            {
                "start_time": 115.17045454545455,
                "end_time": 115.49545454545454,
                "pitch": 40,
                "velocity": 64,
                "duration": 0.32499999999998863,
                "tempo": 120.0
            },
            {
                "start_time": 115.57954545454545,
                "end_time": 115.89090909090909,
                "pitch": 38,
                "velocity": 64,
                "duration": 0.3113636363636374,
                "tempo": 120.0
            },
            {
                "start_time": 116.17727272727272,
                "end_time": 116.49772727272726,
                "pitch": 34,
                "velocity": 64,
                "duration": 0.3204545454545382,
                "tempo": 120.0
            },
            {
                "start_time": 116.77499999999999,
                "end_time": 117.1,
                "pitch": 38,
                "velocity": 64,
                "duration": 0.32500000000000284,
                "tempo": 120.0
            },
            {
                "start_time": 117.18636363636364,
                "end_time": 117.50454545454545,
                "pitch": 40,
                "velocity": 64,
                "duration": 0.318181818181813,
                "tempo": 120.0
            },
            {
                "start_time": 117.78863636363636,
                "end_time": 118.10227272727272,
                "pitch": 36,
                "velocity": 64,
                "duration": 0.3136363636363626,
                "tempo": 120.0
            },
            {
                "start_time": 118.37954545454545,
                "end_time": 118.70454545454545,
                "pitch": 40,
                "velocity": 64,
                "duration": 0.32500000000000284,
                "tempo": 120.0
            },
            {
                "start_time": 118.79090909090908,
                "end_time": 119.10909090909091,
                "pitch": 41,
                "velocity": 64,
                "duration": 0.3181818181818272,
                "tempo": 120.0
            },
            {
                "start_time": 119.19318181818181,
                "end_time": 119.34545454545454,
                "pitch": 41,
                "velocity": 64,
                "duration": 0.1522727272727309,
                "tempo": 120.0
            },
            {
                "start_time": 119.39545454545454,
                "end_time": 119.71136363636363,
                "pitch": 41,
                "velocity": 64,
                "duration": 0.3159090909090878,
                "tempo": 120.0
            },
            {
                "start_time": 119.98863636363636,
                "end_time": 120.30454545454545,
                "pitch": 34,
                "velocity": 64,
                "duration": 0.3159090909090878,
                "tempo": 120.0
            },
            {
                "start_time": 120.38863636363635,
                "end_time": 120.70681818181818,
                "pitch": 44,
                "velocity": 64,
                "duration": 0.3181818181818272,
                "tempo": 120.0
            },
            {
                "start_time": 120.79090909090908,
                "end_time": 121.10909090909091,
                "pitch": 37,
                "velocity": 64,
                "duration": 0.3181818181818272,
                "tempo": 120.0
            },
            {
                "start_time": 121.19090909090909,
                "end_time": 121.5090909090909,
                "pitch": 43,
                "velocity": 64,
                "duration": 0.318181818181813,
                "tempo": 120.0
            },
            {
                "start_time": 121.59318181818182,
                "end_time": 121.91818181818181,
                "pitch": 36,
                "velocity": 64,
                "duration": 0.32499999999998863,
                "tempo": 120.0
            },
            {
                "start_time": 122.00454545454545,
                "end_time": 122.63636363636363,
                "pitch": 34,
                "velocity": 64,
                "duration": 0.6318181818181756,
                "tempo": 120.0
            },
            {
                "start_time": 122.99545454545454,
                "end_time": 123.14318181818182,
                "pitch": 29,
                "velocity": 64,
                "duration": 0.14772727272728048,
                "tempo": 120.0
            },
            {
                "start_time": 123.19318181818181,
                "end_time": 123.34545454545454,
                "pitch": 34,
                "velocity": 64,
                "duration": 0.1522727272727309,
                "tempo": 120.0
            },
            {
                "start_time": 123.39772727272727,
                "end_time": 123.55227272727272,
                "pitch": 38,
                "velocity": 64,
                "duration": 0.1545454545454561,
                "tempo": 120.0
            },
            {
                "start_time": 123.60227272727272,
                "end_time": 124.24318181818181,
                "pitch": 37,
                "velocity": 64,
                "duration": 0.6409090909090907,
                "tempo": 120.0
            },
            {
                "start_time": 124.60681818181817,
                "end_time": 124.7590909090909,
                "pitch": 32,
                "velocity": 64,
                "duration": 0.1522727272727309,
                "tempo": 120.0
            },
            {
                "start_time": 124.8090909090909,
                "end_time": 124.9590909090909,
                "pitch": 37,
                "velocity": 64,
                "duration": 0.15000000000000568,
                "tempo": 120.0
            },
            {
                "start_time": 125.0090909090909,
                "end_time": 125.1590909090909,
                "pitch": 39,
                "velocity": 64,
                "duration": 0.15000000000000568,
                "tempo": 120.0
            },
            {
                "start_time": 125.2090909090909,
                "end_time": 125.52727272727272,
                "pitch": 29,
                "velocity": 64,
                "duration": 0.318181818181813,
                "tempo": 120.0
            },
            {
                "start_time": 125.61136363636363,
                "end_time": 125.93636363636362,
                "pitch": 29,
                "velocity": 64,
                "duration": 0.32499999999998863,
                "tempo": 120.0
            },
            {
                "start_time": 126.02272727272727,
                "end_time": 126.33181818181818,
                "pitch": 29,
                "velocity": 64,
                "duration": 0.3090909090909122,
                "tempo": 120.0
            },
            {
                "start_time": 126.41363636363636,
                "end_time": 126.73409090909091,
                "pitch": 29,
                "velocity": 64,
                "duration": 0.32045454545455243,
                "tempo": 120.0
            },
            {
                "start_time": 126.81590909090909,
                "end_time": 126.96590909090908,
                "pitch": 29,
                "velocity": 64,
                "duration": 0.14999999999999147,
                "tempo": 120.0
            },
            {
                "start_time": 127.01590909090909,
                "end_time": 127.16590909090908,
                "pitch": 29,
                "velocity": 64,
                "duration": 0.14999999999999147,
                "tempo": 120.0
            },
            {
                "start_time": 127.21590909090908,
                "end_time": 127.37045454545454,
                "pitch": 29,
                "velocity": 64,
                "duration": 0.1545454545454561,
                "tempo": 120.0
            },
            {
                "start_time": 127.42272727272727,
                "end_time": 127.57727272727273,
                "pitch": 29,
                "velocity": 64,
                "duration": 0.1545454545454561,
                "tempo": 120.0
            },
            {
                "start_time": 127.62727272727273,
                "end_time": 127.94545454545454,
                "pitch": 29,
                "velocity": 64,
                "duration": 0.318181818181813,
                "tempo": 120.0
            }
        ],
        "Vibraphone": [
            {
                "start_time": 46.527272727272724,
                "end_time": 46.84772727272727,
                "pitch": 84,
                "velocity": 101,
                "duration": 0.3204545454545453,
                "tempo": 120.0
            },
            {
                "start_time": 46.93181818181818,
                "end_time": 47.24772727272727,
                "pitch": 82,
                "velocity": 101,
                "duration": 0.3159090909090878,
                "tempo": 120.0
            },
            {
                "start_time": 47.33181818181818,
                "end_time": 47.65681818181818,
                "pitch": 81,
                "velocity": 101,
                "duration": 0.32500000000000284,
                "tempo": 120.0
            },
            {
                "start_time": 47.74090909090909,
                "end_time": 48.05227272727272,
                "pitch": 79,
                "velocity": 101,
                "duration": 0.3113636363636303,
                "tempo": 120.0
            },
            {
                "start_time": 48.15,
                "end_time": 52.949999999999996,
                "pitch": 77,
                "velocity": 101,
                "duration": 4.799999999999997,
                "tempo": 120.0
            },
            {
                "start_time": 52.949999999999996,
                "end_time": 53.26590909090909,
                "pitch": 84,
                "velocity": 101,
                "duration": 0.3159090909090949,
                "tempo": 120.0
            },
            {
                "start_time": 53.349999999999994,
                "end_time": 53.66590909090909,
                "pitch": 82,
                "velocity": 101,
                "duration": 0.3159090909090949,
                "tempo": 120.0
            },
            {
                "start_time": 53.75,
                "end_time": 54.06590909090909,
                "pitch": 81,
                "velocity": 101,
                "duration": 0.3159090909090878,
                "tempo": 120.0
            },
            {
                "start_time": 54.15,
                "end_time": 54.465909090909086,
                "pitch": 79,
                "velocity": 101,
                "duration": 0.3159090909090878,
                "tempo": 120.0
            },
            {
                "start_time": 54.56590909090909,
                "end_time": 101.11363636363636,
                "pitch": 74,
                "velocity": 101,
                "duration": 46.54772727272727,
                "tempo": 120.0
            },
            {
                "start_time": 101.11363636363636,
                "end_time": 101.43181818181817,
                "pitch": 84,
                "velocity": 101,
                "duration": 0.318181818181813,
                "tempo": 120.0
            },
            {
                "start_time": 101.51590909090909,
                "end_time": 101.83636363636363,
                "pitch": 82,
                "velocity": 101,
                "duration": 0.3204545454545382,
                "tempo": 120.0
            },
            {
                "start_time": 101.92045454545455,
                "end_time": 102.23636363636363,
                "pitch": 81,
                "velocity": 101,
                "duration": 0.3159090909090878,
                "tempo": 120.0
            },
            {
                "start_time": 102.32045454545454,
                "end_time": 102.63863636363637,
                "pitch": 79,
                "velocity": 101,
                "duration": 0.3181818181818272,
                "tempo": 120.0
            },
            {
                "start_time": 102.73863636363636,
                "end_time": 107.54090909090908,
                "pitch": 77,
                "velocity": 101,
                "duration": 4.802272727272722,
                "tempo": 120.0
            },
            {
                "start_time": 107.54090909090908,
                "end_time": 107.85909090909091,
                "pitch": 84,
                "velocity": 101,
                "duration": 0.3181818181818272,
                "tempo": 120.0
            },
            {
                "start_time": 107.94318181818181,
                "end_time": 108.26136363636363,
                "pitch": 82,
                "velocity": 101,
                "duration": 0.318181818181813,
                "tempo": 120.0
            },
            {
                "start_time": 108.34318181818182,
                "end_time": 108.66818181818181,
                "pitch": 81,
                "velocity": 101,
                "duration": 0.32499999999998863,
                "tempo": 120.0
            },
            {
                "start_time": 108.75454545454545,
                "end_time": 109.06590909090909,
                "pitch": 79,
                "velocity": 101,
                "duration": 0.3113636363636374,
                "tempo": 120.0
            }
        ],
        "Electric Piano 1": [
            {
                "start_time": 12.838636363636363,
                "end_time": 13.456818181818182,
                "pitch": 74,
                "velocity": 32,
                "duration": 0.618181818181819,
                "tempo": 120.0
            },
            {
                "start_time": 14.23181818181818,
                "end_time": 14.386363636363635,
                "pitch": 77,
                "velocity": 32,
                "duration": 0.15454545454545432,
                "tempo": 120.0
            },
            {
                "start_time": 14.438636363636363,
                "end_time": 15.704545454545453,
                "pitch": 76,
                "velocity": 32,
                "duration": 1.2659090909090907,
                "tempo": 120.0
            },
            {
                "start_time": 16.045454545454543,
                "end_time": 16.677272727272726,
                "pitch": 76,
                "velocity": 32,
                "duration": 0.6318181818181827,
                "tempo": 120.0
            },
            {
                "start_time": 17.45,
                "end_time": 17.604545454545455,
                "pitch": 79,
                "velocity": 32,
                "duration": 0.1545454545454561,
                "tempo": 120.0
            },
            {
                "start_time": 17.654545454545453,
                "end_time": 18.91590909090909,
                "pitch": 77,
                "velocity": 32,
                "duration": 1.2613636363636367,
                "tempo": 120.0
            },
            {
                "start_time": 19.259090909090908,
                "end_time": 19.893181818181816,
                "pitch": 74,
                "velocity": 32,
                "duration": 0.6340909090909079,
                "tempo": 120.0
            },
            {
                "start_time": 20.659090909090907,
                "end_time": 20.811363636363634,
                "pitch": 77,
                "velocity": 32,
                "duration": 0.15227272727272734,
                "tempo": 120.0
            },
            {
                "start_time": 20.863636363636363,
                "end_time": 21.49772727272727,
                "pitch": 76,
                "velocity": 32,
                "duration": 0.6340909090909079,
                "tempo": 120.0
            },
            {
                "start_time": 22.263636363636362,
                "end_time": 22.418181818181818,
                "pitch": 79,
                "velocity": 32,
                "duration": 0.1545454545454561,
                "tempo": 120.0
            },
            {
                "start_time": 22.46818181818182,
                "end_time": 23.73181818181818,
                "pitch": 77,
                "velocity": 32,
                "duration": 1.263636363636362,
                "tempo": 120.0
            },
            {
                "start_time": 24.063636363636363,
                "end_time": 24.7,
                "pitch": 80,
                "velocity": 32,
                "duration": 0.6363636363636367,
                "tempo": 120.0
            },
            {
                "start_time": 24.86590909090909,
                "end_time": 25.49772727272727,
                "pitch": 79,
                "velocity": 32,
                "duration": 0.6318181818181827,
                "tempo": 120.0
            },
            {
                "start_time": 25.661363636363635,
                "end_time": 28.23181818181818,
                "pitch": 77,
                "velocity": 32,
                "duration": 2.5704545454545453,
                "tempo": 120.0
            },
            {
                "start_time": 41.72954545454545,
                "end_time": 42.99090909090909,
                "pitch": 77,
                "velocity": 32,
                "duration": 1.2613636363636402,
                "tempo": 120.0
            },
            {
                "start_time": 43.31818181818181,
                "end_time": 43.95681818181818,
                "pitch": 72,
                "velocity": 20,
                "duration": 0.6386363636363654,
                "tempo": 120.0
            },
            {
                "start_time": 44.12045454545454,
                "end_time": 44.445454545454545,
                "pitch": 74,
                "velocity": 20,
                "duration": 0.32500000000000284,
                "tempo": 120.0
            },
            {
                "start_time": 44.52954545454545,
                "end_time": 44.840909090909086,
                "pitch": 76,
                "velocity": 20,
                "duration": 0.3113636363636374,
                "tempo": 120.0
            },
            {
                "start_time": 44.92272727272727,
                "end_time": 45.56136363636364,
                "pitch": 74,
                "velocity": 20,
                "duration": 0.6386363636363654,
                "tempo": 120.0
            },
            {
                "start_time": 45.724999999999994,
                "end_time": 46.36363636363636,
                "pitch": 76,
                "velocity": 20,
                "duration": 0.6386363636363654,
                "tempo": 120.0
            },
            {
                "start_time": 46.527272727272724,
                "end_time": 49.41136363636363,
                "pitch": 84,
                "velocity": 20,
                "duration": 2.884090909090908,
                "tempo": 120.0
            },
            {
                "start_time": 49.73863636363636,
                "end_time": 50.37954545454545,
                "pitch": 72,
                "velocity": 20,
                "duration": 0.6409090909090907,
                "tempo": 120.0
            },
            {
                "start_time": 50.54090909090909,
                "end_time": 50.865909090909085,
                "pitch": 74,
                "velocity": 20,
                "duration": 0.32499999999999574,
                "tempo": 120.0
            },
            {
                "start_time": 50.95227272727273,
                "end_time": 51.26363636363636,
                "pitch": 76,
                "velocity": 20,
                "duration": 0.3113636363636303,
                "tempo": 120.0
            },
            {
                "start_time": 51.345454545454544,
                "end_time": 51.98409090909091,
                "pitch": 74,
                "velocity": 20,
                "duration": 0.6386363636363654,
                "tempo": 120.0
            },
            {
                "start_time": 52.14772727272727,
                "end_time": 52.78636363636363,
                "pitch": 76,
                "velocity": 20,
                "duration": 0.6386363636363583,
                "tempo": 120.0
            },
            {
                "start_time": 52.949999999999996,
                "end_time": 55.18863636363636,
                "pitch": 84,
                "velocity": 20,
                "duration": 2.238636363636367,
                "tempo": 120.0
            },
            {
                "start_time": 55.959090909090904,
                "end_time": 56.111363636363635,
                "pitch": 77,
                "velocity": 32,
                "duration": 0.1522727272727309,
                "tempo": 120.0
            },
            {
                "start_time": 56.163636363636364,
                "end_time": 57.425,
                "pitch": 76,
                "velocity": 32,
                "duration": 1.2613636363636331,
                "tempo": 120.0
            },
            {
                "start_time": 57.76590909090909,
                "end_time": 58.402272727272724,
                "pitch": 76,
                "velocity": 32,
                "duration": 0.6363636363636331,
                "tempo": 120.0
            },
            {
                "start_time": 59.16590909090909,
                "end_time": 59.320454545454545,
                "pitch": 79,
                "velocity": 32,
                "duration": 0.1545454545454561,
                "tempo": 120.0
            },
            {
                "start_time": 59.37272727272727,
                "end_time": 60.63409090909091,
                "pitch": 77,
                "velocity": 32,
                "duration": 1.2613636363636402,
                "tempo": 120.0
            },
            {
                "start_time": 60.97727272727273,
                "end_time": 61.611363636363635,
                "pitch": 74,
                "velocity": 32,
                "duration": 0.6340909090909079,
                "tempo": 120.0
            },
            {
                "start_time": 62.375,
                "end_time": 62.52954545454545,
                "pitch": 77,
                "velocity": 32,
                "duration": 0.154545454545449,
                "tempo": 120.0
            },
            {
                "start_time": 62.57954545454545,
                "end_time": 63.21363636363636,
                "pitch": 76,
                "velocity": 32,
                "duration": 0.6340909090909079,
                "tempo": 120.0
            },
            {
                "start_time": 63.97727272727273,
                "end_time": 64.13181818181818,
                "pitch": 79,
                "velocity": 32,
                "duration": 0.154545454545449,
                "tempo": 120.0
            },
            {
                "start_time": 64.18409090909091,
                "end_time": 65.44318181818181,
                "pitch": 77,
                "velocity": 32,
                "duration": 1.2590909090909008,
                "tempo": 120.0
            },
            {
                "start_time": 65.77727272727273,
                "end_time": 66.41363636363636,
                "pitch": 80,
                "velocity": 20,
                "duration": 0.636363636363626,
                "tempo": 120.0
            },
            {
                "start_time": 66.58181818181818,
                "end_time": 67.2159090909091,
                "pitch": 79,
                "velocity": 20,
                "duration": 0.634090909090915,
                "tempo": 120.0
            },
            {
                "start_time": 67.39999999999999,
                "end_time": 69.94772727272726,
                "pitch": 77,
                "velocity": 20,
                "duration": 2.547727272727272,
                "tempo": 120.0
            },
            {
                "start_time": 70.61363636363636,
                "end_time": 70.75227272727273,
                "pitch": 74,
                "velocity": 20,
                "duration": 0.13863636363636545,
                "tempo": 120.0
            },
            {
                "start_time": 70.80227272727272,
                "end_time": 70.95681818181818,
                "pitch": 70,
                "velocity": 20,
                "duration": 0.1545454545454561,
                "tempo": 120.0
            },
            {
                "start_time": 71.00681818181818,
                "end_time": 71.15454545454546,
                "pitch": 69,
                "velocity": 20,
                "duration": 0.14772727272728048,
                "tempo": 120.0
            },
            {
                "start_time": 71.20454545454545,
                "end_time": 71.35,
                "pitch": 67,
                "velocity": 20,
                "duration": 0.14545454545454106,
                "tempo": 120.0
            },
            {
                "start_time": 71.39999999999999,
                "end_time": 71.55,
                "pitch": 74,
                "velocity": 20,
                "duration": 0.15000000000000568,
                "tempo": 120.0
            },
            {
                "start_time": 71.60227272727272,
                "end_time": 71.75227272727273,
                "pitch": 70,
                "velocity": 20,
                "duration": 0.15000000000000568,
                "tempo": 120.0
            },
            {
                "start_time": 71.80227272727272,
                "end_time": 71.95681818181818,
                "pitch": 69,
                "velocity": 20,
                "duration": 0.1545454545454561,
                "tempo": 120.0
            },
            {
                "start_time": 72.0090909090909,
                "end_time": 72.16136363636363,
                "pitch": 67,
                "velocity": 20,
                "duration": 0.1522727272727309,
                "tempo": 120.0
            },
            {
                "start_time": 72.21363636363635,
                "end_time": 72.36136363636363,
                "pitch": 76,
                "velocity": 20,
                "duration": 0.14772727272728048,
                "tempo": 120.0
            },
            {
                "start_time": 72.4090909090909,
                "end_time": 72.55681818181817,
                "pitch": 72,
                "velocity": 20,
                "duration": 0.14772727272726627,
                "tempo": 120.0
            },
            {
                "start_time": 72.60454545454544,
                "end_time": 72.7590909090909,
                "pitch": 70,
                "velocity": 20,
                "duration": 0.1545454545454561,
                "tempo": 120.0
            },
            {
                "start_time": 72.81136363636364,
                "end_time": 72.9659090909091,
                "pitch": 69,
                "velocity": 20,
                "duration": 0.1545454545454561,
                "tempo": 120.0
            },
            {
                "start_time": 73.01590909090909,
                "end_time": 73.16363636363636,
                "pitch": 76,
                "velocity": 20,
                "duration": 0.14772727272726627,
                "tempo": 120.0
            },
            {
                "start_time": 73.21136363636363,
                "end_time": 73.35909090909091,
                "pitch": 72,
                "velocity": 20,
                "duration": 0.14772727272728048,
                "tempo": 120.0
            },
            {
                "start_time": 73.4090909090909,
                "end_time": 73.55909090909091,
                "pitch": 70,
                "velocity": 20,
                "duration": 0.15000000000000568,
                "tempo": 120.0
            },
            {
                "start_time": 73.60909090909091,
                "end_time": 73.76136363636363,
                "pitch": 69,
                "velocity": 20,
                "duration": 0.15227272727271668,
                "tempo": 120.0
            },
            {
                "start_time": 73.81136363636364,
                "end_time": 73.96136363636363,
                "pitch": 77,
                "velocity": 20,
                "duration": 0.14999999999999147,
                "tempo": 120.0
            },
            {
                "start_time": 74.01136363636363,
                "end_time": 74.16136363636363,
                "pitch": 72,
                "velocity": 20,
                "duration": 0.15000000000000568,
                "tempo": 120.0
            },
            {
                "start_time": 74.21136363636363,
                "end_time": 74.36136363636363,
                "pitch": 70,
                "velocity": 20,
                "duration": 0.15000000000000568,
                "tempo": 120.0
            },
            {
                "start_time": 74.41136363636363,
                "end_time": 74.56363636363636,
                "pitch": 69,
                "velocity": 20,
                "duration": 0.1522727272727309,
                "tempo": 120.0
            },
            {
                "start_time": 74.61363636363636,
                "end_time": 74.76363636363637,
                "pitch": 77,
                "velocity": 20,
                "duration": 0.15000000000000568,
                "tempo": 120.0
            },
            {
                "start_time": 74.81363636363636,
                "end_time": 74.96363636363635,
                "pitch": 72,
                "velocity": 20,
                "duration": 0.14999999999999147,
                "tempo": 120.0
            },
            {
                "start_time": 75.01363636363637,
                "end_time": 75.16363636363636,
                "pitch": 70,
                "velocity": 20,
                "duration": 0.14999999999999147,
                "tempo": 120.0
            },
            {
                "start_time": 75.2159090909091,
                "end_time": 75.36590909090908,
                "pitch": 69,
                "velocity": 20,
                "duration": 0.14999999999999147,
                "tempo": 120.0
            },
            {
                "start_time": 75.41590909090908,
                "end_time": 75.73409090909091,
                "pitch": 67,
                "velocity": 20,
                "duration": 0.3181818181818272,
                "tempo": 120.0
            },
            {
                "start_time": 76.01818181818182,
                "end_time": 76.10227272727272,
                "pitch": 69,
                "velocity": 20,
                "duration": 0.08409090909090366,
                "tempo": 120.0
            },
            {
                "start_time": 76.11818181818181,
                "end_time": 76.20227272727273,
                "pitch": 67,
                "velocity": 20,
                "duration": 0.08409090909091788,
                "tempo": 120.0
            },
            {
                "start_time": 76.21818181818182,
                "end_time": 76.85454545454544,
                "pitch": 65,
                "velocity": 20,
                "duration": 0.636363636363626,
                "tempo": 120.0
            },
            {
                "start_time": 77.02272727272727,
                "end_time": 77.17272727272727,
                "pitch": 74,
                "velocity": 20,
                "duration": 0.15000000000000568,
                "tempo": 120.0
            },
            {
                "start_time": 77.22272727272727,
                "end_time": 77.375,
                "pitch": 70,
                "velocity": 20,
                "duration": 0.1522727272727309,
                "tempo": 120.0
            },
            {
                "start_time": 77.425,
                "end_time": 77.575,
                "pitch": 69,
                "velocity": 20,
                "duration": 0.15000000000000568,
                "tempo": 120.0
            },
            {
                "start_time": 77.625,
                "end_time": 77.77727272727272,
                "pitch": 67,
                "velocity": 20,
                "duration": 0.15227272727271668,
                "tempo": 120.0
            },
            {
                "start_time": 77.82727272727273,
                "end_time": 77.97727272727272,
                "pitch": 74,
                "velocity": 20,
                "duration": 0.14999999999999147,
                "tempo": 120.0
            },
            {
                "start_time": 78.02727272727272,
                "end_time": 78.17727272727272,
                "pitch": 70,
                "velocity": 20,
                "duration": 0.15000000000000568,
                "tempo": 120.0
            },
            {
                "start_time": 78.22727272727272,
                "end_time": 78.38181818181818,
                "pitch": 69,
                "velocity": 20,
                "duration": 0.1545454545454561,
                "tempo": 120.0
            },
            {
                "start_time": 78.43181818181817,
                "end_time": 78.58636363636363,
                "pitch": 67,
                "velocity": 20,
                "duration": 0.1545454545454561,
                "tempo": 120.0
            },
            {
                "start_time": 78.63863636363637,
                "end_time": 78.7840909090909,
                "pitch": 76,
                "velocity": 20,
                "duration": 0.14545454545454106,
                "tempo": 120.0
            },
            {
                "start_time": 78.8340909090909,
                "end_time": 78.98181818181818,
                "pitch": 72,
                "velocity": 20,
                "duration": 0.14772727272728048,
                "tempo": 120.0
            },
            {
                "start_time": 79.02954545454546,
                "end_time": 79.18181818181817,
                "pitch": 70,
                "velocity": 20,
                "duration": 0.15227272727271668,
                "tempo": 120.0
            },
            {
                "start_time": 79.23181818181818,
                "end_time": 79.38181818181818,
                "pitch": 69,
                "velocity": 20,
                "duration": 0.14999999999999147,
                "tempo": 120.0
            },
            {
                "start_time": 79.43181818181817,
                "end_time": 79.5840909090909,
                "pitch": 76,
                "velocity": 20,
                "duration": 0.1522727272727309,
                "tempo": 120.0
            },
            {
                "start_time": 79.6340909090909,
                "end_time": 79.7840909090909,
                "pitch": 72,
                "velocity": 20,
                "duration": 0.15000000000000568,
                "tempo": 120.0
            },
            {
                "start_time": 79.83636363636363,
                "end_time": 79.98863636363636,
                "pitch": 70,
                "velocity": 20,
                "duration": 0.1522727272727309,
                "tempo": 120.0
            },
            {
                "start_time": 80.04090909090908,
                "end_time": 80.19545454545454,
                "pitch": 69,
                "velocity": 20,
                "duration": 0.1545454545454561,
                "tempo": 120.0
            },
            {
                "start_time": 80.24545454545454,
                "end_time": 80.39545454545454,
                "pitch": 77,
                "velocity": 20,
                "duration": 0.15000000000000568,
                "tempo": 120.0
            },
            {
                "start_time": 80.44545454545454,
                "end_time": 80.59545454545454,
                "pitch": 72,
                "velocity": 20,
                "duration": 0.15000000000000568,
                "tempo": 120.0
            },
            {
                "start_time": 80.64545454545454,
                "end_time": 80.79318181818181,
                "pitch": 70,
                "velocity": 20,
                "duration": 0.14772727272726627,
                "tempo": 120.0
            },
            {
                "start_time": 80.84318181818182,
                "end_time": 80.98863636363636,
                "pitch": 69,
                "velocity": 20,
                "duration": 0.14545454545454106,
                "tempo": 120.0
            },
            {
                "start_time": 81.03863636363636,
                "end_time": 81.18863636363636,
                "pitch": 77,
                "velocity": 20,
                "duration": 0.15000000000000568,
                "tempo": 120.0
            },
            {
                "start_time": 81.24090909090908,
                "end_time": 81.39090909090909,
                "pitch": 72,
                "velocity": 20,
                "duration": 0.15000000000000568,
                "tempo": 120.0
            },
            {
                "start_time": 81.44090909090909,
                "end_time": 81.59318181818182,
                "pitch": 77,
                "velocity": 20,
                "duration": 0.1522727272727309,
                "tempo": 120.0
            },
            {
                "start_time": 81.64318181818182,
                "end_time": 81.79318181818181,
                "pitch": 79,
                "velocity": 20,
                "duration": 0.14999999999999147,
                "tempo": 120.0
            },
            {
                "start_time": 81.84318181818182,
                "end_time": 81.99318181818181,
                "pitch": 81,
                "velocity": 20,
                "duration": 0.14999999999999147,
                "tempo": 120.0
            },
            {
                "start_time": 82.04318181818181,
                "end_time": 82.19318181818181,
                "pitch": 77,
                "velocity": 20,
                "duration": 0.15000000000000568,
                "tempo": 120.0
            },
            {
                "start_time": 82.24318181818181,
                "end_time": 82.39545454545454,
                "pitch": 81,
                "velocity": 20,
                "duration": 0.1522727272727309,
                "tempo": 120.0
            },
            {
                "start_time": 82.44545454545454,
                "end_time": 82.59545454545454,
                "pitch": 82,
                "velocity": 20,
                "duration": 0.15000000000000568,
                "tempo": 120.0
            },
            {
                "start_time": 82.64545454545454,
                "end_time": 82.79545454545455,
                "pitch": 84,
                "velocity": 20,
                "duration": 0.15000000000000568,
                "tempo": 120.0
            },
            {
                "start_time": 82.84545454545454,
                "end_time": 82.99545454545454,
                "pitch": 81,
                "velocity": 20,
                "duration": 0.14999999999999147,
                "tempo": 120.0
            },
            {
                "start_time": 83.04545454545455,
                "end_time": 83.19772727272726,
                "pitch": 84,
                "velocity": 20,
                "duration": 0.15227272727271668,
                "tempo": 120.0
            },
            {
                "start_time": 83.24772727272727,
                "end_time": 83.39999999999999,
                "pitch": 88,
                "velocity": 20,
                "duration": 0.15227272727271668,
                "tempo": 120.0
            },
            {
                "start_time": 83.45,
                "end_time": 83.6,
                "pitch": 74,
                "velocity": 20,
                "duration": 0.14999999999999147,
                "tempo": 120.0
            },
            {
                "start_time": 83.64999999999999,
                "end_time": 83.80227272727272,
                "pitch": 70,
                "velocity": 20,
                "duration": 0.1522727272727309,
                "tempo": 120.0
            },
            {
                "start_time": 83.85227272727272,
                "end_time": 84.00227272727273,
                "pitch": 69,
                "velocity": 20,
                "duration": 0.15000000000000568,
                "tempo": 120.0
            },
            {
                "start_time": 84.05227272727272,
                "end_time": 84.20227272727273,
                "pitch": 67,
                "velocity": 20,
                "duration": 0.15000000000000568,
                "tempo": 120.0
            },
            {
                "start_time": 84.25227272727273,
                "end_time": 84.40227272727272,
                "pitch": 74,
                "velocity": 20,
                "duration": 0.14999999999999147,
                "tempo": 120.0
            },
            {
                "start_time": 84.45227272727273,
                "end_time": 84.60454545454544,
                "pitch": 70,
                "velocity": 20,
                "duration": 0.15227272727271668,
                "tempo": 120.0
            },
            {
                "start_time": 84.65454545454546,
                "end_time": 84.80454545454545,
                "pitch": 69,
                "velocity": 20,
                "duration": 0.14999999999999147,
                "tempo": 120.0
            },
            {
                "start_time": 84.85454545454544,
                "end_time": 85.00454545454545,
                "pitch": 67,
                "velocity": 20,
                "duration": 0.15000000000000568,
                "tempo": 120.0
            },
            {
                "start_time": 85.05454545454545,
                "end_time": 85.20454545454545,
                "pitch": 76,
                "velocity": 20,
                "duration": 0.15000000000000568,
                "tempo": 120.0
            },
            {
                "start_time": 85.25681818181818,
                "end_time": 85.40681818181818,
                "pitch": 72,
                "velocity": 20,
                "duration": 0.15000000000000568,
                "tempo": 120.0
            },
            {
                "start_time": 85.45681818181818,
                "end_time": 85.61136363636363,
                "pitch": 70,
                "velocity": 20,
                "duration": 0.1545454545454561,
                "tempo": 120.0
            },
            {
                "start_time": 85.66363636363636,
                "end_time": 85.81590909090909,
                "pitch": 69,
                "velocity": 20,
                "duration": 0.1522727272727309,
                "tempo": 120.0
            },
            {
                "start_time": 85.86818181818181,
                "end_time": 86.01590909090909,
                "pitch": 76,
                "velocity": 20,
                "duration": 0.14772727272728048,
                "tempo": 120.0
            },
            {
                "start_time": 86.06363636363636,
                "end_time": 86.21136363636363,
                "pitch": 72,
                "velocity": 20,
                "duration": 0.14772727272726627,
                "tempo": 120.0
            },
            {
                "start_time": 86.2590909090909,
                "end_time": 86.41136363636363,
                "pitch": 70,
                "velocity": 20,
                "duration": 0.1522727272727309,
                "tempo": 120.0
            },
            {
                "start_time": 86.46136363636363,
                "end_time": 86.61363636363636,
                "pitch": 69,
                "velocity": 20,
                "duration": 0.1522727272727309,
                "tempo": 120.0
            },
            {
                "start_time": 86.67954545454545,
                "end_time": 86.81363636363636,
                "pitch": 77,
                "velocity": 20,
                "duration": 0.13409090909091503,
                "tempo": 120.0
            },
            {
                "start_time": 86.86363636363636,
                "end_time": 87.01363636363637,
                "pitch": 72,
                "velocity": 20,
                "duration": 0.15000000000000568,
                "tempo": 120.0
            },
            {
                "start_time": 87.06363636363636,
                "end_time": 87.21363636363635,
                "pitch": 70,
                "velocity": 20,
                "duration": 0.14999999999999147,
                "tempo": 120.0
            },
            {
                "start_time": 87.26363636363637,
                "end_time": 87.41590909090908,
                "pitch": 69,
                "velocity": 20,
                "duration": 0.15227272727271668,
                "tempo": 120.0
            },
            {
                "start_time": 87.4659090909091,
                "end_time": 87.61590909090908,
                "pitch": 77,
                "velocity": 20,
                "duration": 0.14999999999999147,
                "tempo": 120.0
            },
            {
                "start_time": 87.66590909090908,
                "end_time": 87.81818181818181,
                "pitch": 72,
                "velocity": 20,
                "duration": 0.1522727272727309,
                "tempo": 120.0
            },
            {
                "start_time": 87.86818181818181,
                "end_time": 88.01818181818182,
                "pitch": 70,
                "velocity": 20,
                "duration": 0.15000000000000568,
                "tempo": 120.0
            },
            {
                "start_time": 88.06818181818181,
                "end_time": 88.21818181818182,
                "pitch": 69,
                "velocity": 20,
                "duration": 0.15000000000000568,
                "tempo": 120.0
            },
            {
                "start_time": 88.26818181818182,
                "end_time": 88.58636363636363,
                "pitch": 67,
                "velocity": 20,
                "duration": 0.318181818181813,
                "tempo": 120.0
            },
            {
                "start_time": 88.87045454545454,
                "end_time": 88.95454545454545,
                "pitch": 69,
                "velocity": 20,
                "duration": 0.08409090909091788,
                "tempo": 120.0
            },
            {
                "start_time": 88.97045454545454,
                "end_time": 89.05454545454545,
                "pitch": 67,
                "velocity": 20,
                "duration": 0.08409090909090366,
                "tempo": 120.0
            },
            {
                "start_time": 89.07045454545454,
                "end_time": 89.7090909090909,
                "pitch": 65,
                "velocity": 20,
                "duration": 0.6386363636363654,
                "tempo": 120.0
            },
            {
                "start_time": 89.87727272727273,
                "end_time": 91.14545454545454,
                "pitch": 74,
                "velocity": 32,
                "duration": 1.2681818181818159,
                "tempo": 120.0
            },
            {
                "start_time": 91.48181818181818,
                "end_time": 92.11818181818181,
                "pitch": 76,
                "velocity": 32,
                "duration": 0.636363636363626,
                "tempo": 120.0
            },
            {
                "start_time": 92.2840909090909,
                "end_time": 92.60227272727272,
                "pitch": 77,
                "velocity": 32,
                "duration": 0.318181818181813,
                "tempo": 120.0
            },
            {
                "start_time": 92.68636363636364,
                "end_time": 93.00454545454545,
                "pitch": 79,
                "velocity": 32,
                "duration": 0.318181818181813,
                "tempo": 120.0
            },
            {
                "start_time": 93.08636363636363,
                "end_time": 93.24090909090908,
                "pitch": 70,
                "velocity": 40,
                "duration": 0.1545454545454561,
                "tempo": 120.0
            },
            {
                "start_time": 93.29318181818181,
                "end_time": 93.44545454545454,
                "pitch": 69,
                "velocity": 40,
                "duration": 0.1522727272727309,
                "tempo": 120.0
            },
            {
                "start_time": 93.49772727272727,
                "end_time": 93.64545454545454,
                "pitch": 67,
                "velocity": 40,
                "duration": 0.14772727272726627,
                "tempo": 120.0
            },
            {
                "start_time": 93.69318181818181,
                "end_time": 93.84090909090908,
                "pitch": 65,
                "velocity": 40,
                "duration": 0.14772727272726627,
                "tempo": 120.0
            },
            {
                "start_time": 93.89090909090909,
                "end_time": 94.04318181818181,
                "pitch": 74,
                "velocity": 40,
                "duration": 0.15227272727271668,
                "tempo": 120.0
            },
            {
                "start_time": 94.09545454545454,
                "end_time": 94.25,
                "pitch": 72,
                "velocity": 40,
                "duration": 0.1545454545454561,
                "tempo": 120.0
            },
            {
                "start_time": 94.3,
                "end_time": 94.44772727272726,
                "pitch": 70,
                "velocity": 40,
                "duration": 0.14772727272726627,
                "tempo": 120.0
            },
            {
                "start_time": 94.49545454545454,
                "end_time": 94.64318181818182,
                "pitch": 69,
                "velocity": 40,
                "duration": 0.14772727272728048,
                "tempo": 120.0
            },
            {
                "start_time": 94.69318181818181,
                "end_time": 94.84318181818182,
                "pitch": 76,
                "velocity": 40,
                "duration": 0.15000000000000568,
                "tempo": 120.0
            },
            {
                "start_time": 94.89318181818182,
                "end_time": 95.04318181818181,
                "pitch": 74,
                "velocity": 40,
                "duration": 0.14999999999999147,
                "tempo": 120.0
            },
            {
                "start_time": 95.09318181818182,
                "end_time": 95.24318181818181,
                "pitch": 72,
                "velocity": 40,
                "duration": 0.14999999999999147,
                "tempo": 120.0
            },
            {
                "start_time": 95.29318181818181,
                "end_time": 95.44545454545454,
                "pitch": 76,
                "velocity": 40,
                "duration": 0.1522727272727309,
                "tempo": 120.0
            },
            {
                "start_time": 95.49545454545454,
                "end_time": 95.81363636363636,
                "pitch": 77,
                "velocity": 40,
                "duration": 0.3181818181818272,
                "tempo": 120.0
            },
            {
                "start_time": 95.89772727272727,
                "end_time": 96.21363636363635,
                "pitch": 79,
                "velocity": 40,
                "duration": 0.3159090909090878,
                "tempo": 120.0
            },
            {
                "start_time": 96.31590909090909,
                "end_time": 97.57727272727273,
                "pitch": 77,
                "velocity": 20,
                "duration": 1.2613636363636402,
                "tempo": 120.0
            },
            {
                "start_time": 97.90227272727272,
                "end_time": 98.54318181818181,
                "pitch": 72,
                "velocity": 20,
                "duration": 0.6409090909090907,
                "tempo": 120.0
            },
            {
                "start_time": 98.70681818181818,
                "end_time": 99.03181818181818,
                "pitch": 74,
                "velocity": 20,
                "duration": 0.32500000000000284,
                "tempo": 120.0
            },
            {
                "start_time": 99.11590909090908,
                "end_time": 99.42727272727272,
                "pitch": 76,
                "velocity": 20,
                "duration": 0.3113636363636374,
                "tempo": 120.0
            },
            {
                "start_time": 99.5090909090909,
                "end_time": 100.14772727272727,
                "pitch": 74,
                "velocity": 20,
                "duration": 0.6386363636363654,
                "tempo": 120.0
            },
            {
                "start_time": 100.31136363636364,
                "end_time": 100.94999999999999,
                "pitch": 76,
                "velocity": 20,
                "duration": 0.6386363636363512,
                "tempo": 120.0
            },
            {
                "start_time": 101.11363636363636,
                "end_time": 104.0,
                "pitch": 84,
                "velocity": 20,
                "duration": 2.8863636363636402,
                "tempo": 120.0
            },
            {
                "start_time": 104.32727272727273,
                "end_time": 104.96590909090908,
                "pitch": 72,
                "velocity": 20,
                "duration": 0.6386363636363512,
                "tempo": 120.0
            },
            {
                "start_time": 105.12954545454545,
                "end_time": 105.44999999999999,
                "pitch": 74,
                "velocity": 20,
                "duration": 0.3204545454545382,
                "tempo": 120.0
            },
            {
                "start_time": 105.53181818181818,
                "end_time": 105.85227272727272,
                "pitch": 76,
                "velocity": 20,
                "duration": 0.3204545454545382,
                "tempo": 120.0
            },
            {
                "start_time": 105.93636363636364,
                "end_time": 106.57045454545454,
                "pitch": 74,
                "velocity": 20,
                "duration": 0.6340909090909008,
                "tempo": 120.0
            },
            {
                "start_time": 106.73863636363636,
                "end_time": 107.37727272727273,
                "pitch": 76,
                "velocity": 20,
                "duration": 0.6386363636363654,
                "tempo": 120.0
            },
            {
                "start_time": 107.54090909090908,
                "end_time": 109.78636363636363,
                "pitch": 84,
                "velocity": 20,
                "duration": 2.2454545454545496,
                "tempo": 120.0
            },
            {
                "start_time": 110.55,
                "end_time": 110.70227272727273,
                "pitch": 77,
                "velocity": 32,
                "duration": 0.1522727272727309,
                "tempo": 120.0
            },
            {
                "start_time": 110.75227272727273,
                "end_time": 112.02499999999999,
                "pitch": 76,
                "velocity": 32,
                "duration": 1.2727272727272663,
                "tempo": 120.0
            },
            {
                "start_time": 112.36818181818181,
                "end_time": 112.99772727272726,
                "pitch": 76,
                "velocity": 32,
                "duration": 0.6295454545454504,
                "tempo": 120.0
            },
            {
                "start_time": 113.76818181818182,
                "end_time": 113.92272727272727,
                "pitch": 79,
                "velocity": 32,
                "duration": 0.1545454545454561,
                "tempo": 120.0
            },
            {
                "start_time": 113.975,
                "end_time": 115.23863636363636,
                "pitch": 77,
                "velocity": 32,
                "duration": 1.2636363636363654,
                "tempo": 120.0
            },
            {
                "start_time": 115.57954545454545,
                "end_time": 116.21136363636363,
                "pitch": 74,
                "velocity": 32,
                "duration": 0.6318181818181756,
                "tempo": 120.0
            },
            {
                "start_time": 116.97954545454544,
                "end_time": 117.1340909090909,
                "pitch": 77,
                "velocity": 32,
                "duration": 0.1545454545454561,
                "tempo": 120.0
            },
            {
                "start_time": 117.18636363636364,
                "end_time": 117.82045454545454,
                "pitch": 76,
                "velocity": 32,
                "duration": 0.6340909090909008,
                "tempo": 120.0
            },
            {
                "start_time": 118.58636363636363,
                "end_time": 118.73863636363636,
                "pitch": 79,
                "velocity": 32,
                "duration": 0.1522727272727309,
                "tempo": 120.0
            },
            {
                "start_time": 118.79090909090908,
                "end_time": 120.05454545454545,
                "pitch": 77,
                "velocity": 32,
                "duration": 1.2636363636363654,
                "tempo": 120.0
            },
            {
                "start_time": 120.40454545454544,
                "end_time": 121.02499999999999,
                "pitch": 80,
                "velocity": 32,
                "duration": 0.6204545454545496,
                "tempo": 120.0
            },
            {
                "start_time": 121.19090909090909,
                "end_time": 121.8340909090909,
                "pitch": 79,
                "velocity": 20,
                "duration": 0.6431818181818159,
                "tempo": 120.0
            }
        ]
    }
}