{
    "track_id": "Space Harrier 3-D (FM) - 01 - Main BGM",
    "mood": "relaxed",
    "instruments": {
        "Violin": [
            {
                "start_time": 0.0,
                "end_time": 1.1863636363636363,
                "pitch": 64,
                "velocity": 127,
                "duration": 1.1863636363636363,
                "tempo": 120.0
            },
            {
                "start_time": 1.2204545454545455,
                "end_time": 1.3863636363636362,
                "pitch": 64,
                "velocity": 127,
                "duration": 0.16590909090909078,
                "tempo": 120.0
            },
            {
                "start_time": 1.4204545454545454,
                "end_time": 3.1886363636363635,
                "pitch": 65,
                "velocity": 127,
                "duration": 1.768181818181818,
                "tempo": 120.0
            },
            {
                "start_time": 3.2227272727272727,
                "end_time": 4.1909090909090905,
                "pitch": 65,
                "velocity": 127,
                "duration": 0.9681818181818178,
                "tempo": 120.0
            },
            {
                "start_time": 4.225,
                "end_time": 4.390909090909091,
                "pitch": 65,
                "velocity": 127,
                "duration": 0.165909090909091,
                "tempo": 120.0
            },
            {
                "start_time": 4.625,
                "end_time": 6.3999999999999995,
                "pitch": 64,
                "velocity": 127,
                "duration": 1.7749999999999995,
                "tempo": 120.0
            },
            {
                "start_time": 6.431818181818182,
                "end_time": 7.602272727272727,
                "pitch": 64,
                "velocity": 127,
                "duration": 1.170454545454545,
                "tempo": 120.0
            },
            {
                "start_time": 7.636363636363636,
                "end_time": 7.806818181818182,
                "pitch": 64,
                "velocity": 127,
                "duration": 0.17045454545454586,
                "tempo": 120.0
            },
            {
                "start_time": 7.840909090909091,
                "end_time": 9.611363636363636,
                "pitch": 65,
                "velocity": 127,
                "duration": 1.7704545454545455,
                "tempo": 120.0
            },
            {
                "start_time": 9.643181818181818,
                "end_time": 10.618181818181817,
                "pitch": 65,
                "velocity": 127,
                "duration": 0.9749999999999996,
                "tempo": 120.0
            },
            {
                "start_time": 10.65,
                "end_time": 10.818181818181818,
                "pitch": 65,
                "velocity": 127,
                "duration": 0.168181818181818,
                "tempo": 120.0
            },
            {
                "start_time": 11.052272727272726,
                "end_time": 12.829545454545453,
                "pitch": 64,
                "velocity": 127,
                "duration": 1.7772727272727273,
                "tempo": 120.0
            },
            {
                "start_time": 12.861363636363636,
                "end_time": 14.031818181818181,
                "pitch": 76,
                "velocity": 127,
                "duration": 1.170454545454545,
                "tempo": 120.0
            },
            {
                "start_time": 14.06590909090909,
                "end_time": 14.236363636363636,
                "pitch": 76,
                "velocity": 127,
                "duration": 0.17045454545454675,
                "tempo": 120.0
            },
            {
                "start_time": 14.270454545454545,
                "end_time": 16.047727272727272,
                "pitch": 77,
                "velocity": 127,
                "duration": 1.7772727272727273,
                "tempo": 120.0
            },
            {
                "start_time": 16.079545454545453,
                "end_time": 17.045454545454543,
                "pitch": 77,
                "velocity": 127,
                "duration": 0.9659090909090899,
                "tempo": 120.0
            },
            {
                "start_time": 17.079545454545453,
                "end_time": 17.243181818181817,
                "pitch": 77,
                "velocity": 127,
                "duration": 0.16363636363636402,
                "tempo": 120.0
            },
            {
                "start_time": 17.48181818181818,
                "end_time": 19.259090909090908,
                "pitch": 76,
                "velocity": 127,
                "duration": 1.7772727272727273,
                "tempo": 120.0
            },
            {
                "start_time": 19.29090909090909,
                "end_time": 20.452272727272728,
                "pitch": 76,
                "velocity": 127,
                "duration": 1.1613636363636388,
                "tempo": 120.0
            },
            {
                "start_time": 20.486363636363635,
                "end_time": 20.652272727272727,
                "pitch": 76,
                "velocity": 127,
                "duration": 0.16590909090909278,
                "tempo": 120.0
            },
            {
                "start_time": 20.686363636363634,
                "end_time": 22.459090909090907,
                "pitch": 77,
                "velocity": 127,
                "duration": 1.7727272727272734,
                "tempo": 120.0
            },
            {
                "start_time": 22.493181818181817,
                "end_time": 22.663636363636364,
                "pitch": 77,
                "velocity": 127,
                "duration": 0.17045454545454675,
                "tempo": 120.0
            },
            {
                "start_time": 22.69772727272727,
                "end_time": 22.868181818181817,
                "pitch": 77,
                "velocity": 127,
                "duration": 0.17045454545454675,
                "tempo": 120.0
            },
            {
                "start_time": 22.902272727272727,
                "end_time": 23.06590909090909,
                "pitch": 77,
                "velocity": 127,
                "duration": 0.16363636363636402,
                "tempo": 120.0
            },
            {
                "start_time": 23.495454545454546,
                "end_time": 23.661363636363635,
                "pitch": 77,
                "velocity": 127,
                "duration": 0.16590909090908923,
                "tempo": 120.0
            },
            {
                "start_time": 23.895454545454545,
                "end_time": 24.061363636363634,
                "pitch": 76,
                "velocity": 127,
                "duration": 0.16590909090908923,
                "tempo": 120.0
            }
        ],
        "Church Organ": [
            {
                "start_time": 26.302272727272726,
                "end_time": 26.470454545454544,
                "pitch": 64,
                "velocity": 101,
                "duration": 0.168181818181818,
                "tempo": 120.0
            },
            {
                "start_time": 26.504545454545454,
                "end_time": 28.07272727272727,
                "pitch": 64,
                "velocity": 101,
                "duration": 1.5681818181818166,
                "tempo": 120.0
            },
            {
                "start_time": 28.10681818181818,
                "end_time": 28.48409090909091,
                "pitch": 55,
                "velocity": 101,
                "duration": 0.37727272727272876,
                "tempo": 120.0
            },
            {
                "start_time": 28.51590909090909,
                "end_time": 28.875,
                "pitch": 57,
                "velocity": 101,
                "duration": 0.35909090909090935,
                "tempo": 120.0
            },
            {
                "start_time": 28.909090909090907,
                "end_time": 29.477272727272727,
                "pitch": 65,
                "velocity": 101,
                "duration": 0.5681818181818201,
                "tempo": 120.0
            },
            {
                "start_time": 29.511363636363637,
                "end_time": 29.677272727272726,
                "pitch": 64,
                "velocity": 101,
                "duration": 0.16590909090908923,
                "tempo": 120.0
            },
            {
                "start_time": 29.711363636363636,
                "end_time": 31.693181818181817,
                "pitch": 64,
                "velocity": 101,
                "duration": 1.9818181818181806,
                "tempo": 120.0
            },
            {
                "start_time": 32.12045454545454,
                "end_time": 32.69090909090909,
                "pitch": 65,
                "velocity": 101,
                "duration": 0.5704545454545453,
                "tempo": 120.0
            },
            {
                "start_time": 32.725,
                "end_time": 32.89090909090909,
                "pitch": 64,
                "velocity": 101,
                "duration": 0.16590909090908923,
                "tempo": 120.0
            },
            {
                "start_time": 32.925,
                "end_time": 34.49545454545454,
                "pitch": 64,
                "velocity": 101,
                "duration": 1.5704545454545453,
                "tempo": 120.0
            },
            {
                "start_time": 34.527272727272724,
                "end_time": 34.89772727272727,
                "pitch": 62,
                "velocity": 101,
                "duration": 0.3704545454545496,
                "tempo": 120.0
            },
            {
                "start_time": 34.93181818181818,
                "end_time": 35.309090909090905,
                "pitch": 64,
                "velocity": 101,
                "duration": 0.3772727272727252,
                "tempo": 120.0
            },
            {
                "start_time": 35.340909090909086,
                "end_time": 36.902272727272724,
                "pitch": 65,
                "velocity": 101,
                "duration": 1.5613636363636374,
                "tempo": 120.0
            },
            {
                "start_time": 36.93636363636364,
                "end_time": 37.502272727272725,
                "pitch": 68,
                "velocity": 101,
                "duration": 0.5659090909090878,
                "tempo": 120.0
            },
            {
                "start_time": 37.53636363636363,
                "end_time": 38.10227272727273,
                "pitch": 67,
                "velocity": 101,
                "duration": 0.5659090909090949,
                "tempo": 120.0
            },
            {
                "start_time": 38.13636363636363,
                "end_time": 38.502272727272725,
                "pitch": 65,
                "velocity": 101,
                "duration": 0.36590909090909207,
                "tempo": 120.0
            },
            {
                "start_time": 38.53636363636363,
                "end_time": 39.10454545454545,
                "pitch": 65,
                "velocity": 101,
                "duration": 0.5681818181818201,
                "tempo": 120.0
            },
            {
                "start_time": 39.13863636363636,
                "end_time": 39.304545454545455,
                "pitch": 64,
                "velocity": 101,
                "duration": 0.16590909090909634,
                "tempo": 120.0
            },
            {
                "start_time": 39.33863636363636,
                "end_time": 40.918181818181814,
                "pitch": 64,
                "velocity": 101,
                "duration": 1.5795454545454533,
                "tempo": 120.0
            },
            {
                "start_time": 40.95227272727273,
                "end_time": 41.320454545454545,
                "pitch": 55,
                "velocity": 101,
                "duration": 0.3681818181818173,
                "tempo": 120.0
            },
            {
                "start_time": 41.35227272727273,
                "end_time": 41.711363636363636,
                "pitch": 57,
                "velocity": 101,
                "duration": 0.35909090909090935,
                "tempo": 120.0
            },
            {
                "start_time": 41.74545454545454,
                "end_time": 42.31136363636364,
                "pitch": 65,
                "velocity": 101,
                "duration": 0.5659090909090949,
                "tempo": 120.0
            },
            {
                "start_time": 42.345454545454544,
                "end_time": 42.51136363636363,
                "pitch": 64,
                "velocity": 101,
                "duration": 0.16590909090908923,
                "tempo": 120.0
            },
            {
                "start_time": 42.54545454545455,
                "end_time": 44.525,
                "pitch": 64,
                "velocity": 101,
                "duration": 1.9795454545454518,
                "tempo": 120.0
            },
            {
                "start_time": 44.949999999999996,
                "end_time": 45.518181818181816,
                "pitch": 65,
                "velocity": 101,
                "duration": 0.5681818181818201,
                "tempo": 120.0
            },
            {
                "start_time": 45.55,
                "end_time": 45.71818181818182,
                "pitch": 64,
                "velocity": 101,
                "duration": 0.16818181818182154,
                "tempo": 120.0
            },
            {
                "start_time": 45.752272727272725,
                "end_time": 47.32272727272727,
                "pitch": 64,
                "velocity": 101,
                "duration": 1.5704545454545453,
                "tempo": 120.0
            },
            {
                "start_time": 47.35681818181818,
                "end_time": 47.72272727272727,
                "pitch": 62,
                "velocity": 101,
                "duration": 0.36590909090909207,
                "tempo": 120.0
            },
            {
                "start_time": 47.75681818181818,
                "end_time": 48.13409090909091,
                "pitch": 64,
                "velocity": 101,
                "duration": 0.3772727272727252,
                "tempo": 120.0
            },
            {
                "start_time": 48.16590909090909,
                "end_time": 49.72727272727273,
                "pitch": 65,
                "velocity": 101,
                "duration": 1.5613636363636374,
                "tempo": 120.0
            },
            {
                "start_time": 49.76136363636363,
                "end_time": 50.32727272727273,
                "pitch": 68,
                "velocity": 101,
                "duration": 0.5659090909090949,
                "tempo": 120.0
            },
            {
                "start_time": 50.361363636363635,
                "end_time": 50.93181818181818,
                "pitch": 67,
                "velocity": 101,
                "duration": 0.5704545454545453,
                "tempo": 120.0
            },
            {
                "start_time": 50.96363636363636,
                "end_time": 51.33181818181818,
                "pitch": 65,
                "velocity": 101,
                "duration": 0.3681818181818173,
                "tempo": 120.0
            },
            {
                "start_time": 51.36363636363636,
                "end_time": 53.334090909090904,
                "pitch": 64,
                "velocity": 101,
                "duration": 1.970454545454544,
                "tempo": 120.0
            },
            {
                "start_time": 53.36818181818182,
                "end_time": 53.74318181818182,
                "pitch": 52,
                "velocity": 101,
                "duration": 0.375,
                "tempo": 120.0
            },
            {
                "start_time": 53.777272727272724,
                "end_time": 54.13636363636363,
                "pitch": 55,
                "velocity": 101,
                "duration": 0.35909090909090935,
                "tempo": 120.0
            },
            {
                "start_time": 54.17045454545454,
                "end_time": 54.54772727272727,
                "pitch": 62,
                "velocity": 101,
                "duration": 0.3772727272727323,
                "tempo": 120.0
            },
            {
                "start_time": 54.57954545454545,
                "end_time": 55.73863636363636,
                "pitch": 61,
                "velocity": 101,
                "duration": 1.1590909090909065,
                "tempo": 120.0
            },
            {
                "start_time": 55.77272727272727,
                "end_time": 56.13863636363636,
                "pitch": 58,
                "velocity": 101,
                "duration": 0.36590909090908497,
                "tempo": 120.0
            },
            {
                "start_time": 56.17272727272727,
                "end_time": 57.209090909090904,
                "pitch": 57,
                "velocity": 101,
                "duration": 1.0363636363636317,
                "tempo": 120.0
            },
            {
                "start_time": 57.240909090909085,
                "end_time": 57.474999999999994,
                "pitch": 55,
                "velocity": 101,
                "duration": 0.23409090909090935,
                "tempo": 120.0
            },
            {
                "start_time": 57.50909090909091,
                "end_time": 57.740909090909085,
                "pitch": 53,
                "velocity": 101,
                "duration": 0.23181818181817704,
                "tempo": 120.0
            },
            {
                "start_time": 57.775,
                "end_time": 58.152272727272724,
                "pitch": 52,
                "velocity": 101,
                "duration": 0.3772727272727252,
                "tempo": 120.0
            },
            {
                "start_time": 58.184090909090905,
                "end_time": 58.34772727272727,
                "pitch": 53,
                "velocity": 101,
                "duration": 0.16363636363636402,
                "tempo": 120.0
            },
            {
                "start_time": 58.381818181818176,
                "end_time": 59.94772727272727,
                "pitch": 50,
                "velocity": 101,
                "duration": 1.565909090909095,
                "tempo": 120.0
            },
            {
                "start_time": 59.97954545454545,
                "end_time": 60.147727272727266,
                "pitch": 50,
                "velocity": 101,
                "duration": 0.16818181818181444,
                "tempo": 120.0
            },
            {
                "start_time": 60.179545454545455,
                "end_time": 60.34772727272727,
                "pitch": 52,
                "velocity": 101,
                "duration": 0.16818181818181444,
                "tempo": 120.0
            },
            {
                "start_time": 60.37954545454545,
                "end_time": 60.74772727272727,
                "pitch": 53,
                "velocity": 101,
                "duration": 0.3681818181818173,
                "tempo": 120.0
            },
            {
                "start_time": 60.78181818181818,
                "end_time": 60.949999999999996,
                "pitch": 55,
                "velocity": 101,
                "duration": 0.16818181818181444,
                "tempo": 120.0
            },
            {
                "start_time": 60.98409090909091,
                "end_time": 62.15,
                "pitch": 57,
                "velocity": 101,
                "duration": 1.1659090909090892,
                "tempo": 120.0
            },
            {
                "start_time": 62.184090909090905,
                "end_time": 62.56136363636363,
                "pitch": 56,
                "velocity": 101,
                "duration": 0.3772727272727252,
                "tempo": 120.0
            },
            {
                "start_time": 62.59318181818181,
                "end_time": 63.35227272727273,
                "pitch": 65,
                "velocity": 101,
                "duration": 0.759090909090915,
                "tempo": 120.0
            },
            {
                "start_time": 63.38636363636363,
                "end_time": 64.16363636363636,
                "pitch": 62,
                "velocity": 101,
                "duration": 0.7772727272727238,
                "tempo": 120.0
            },
            {
                "start_time": 64.19545454545454,
                "end_time": 66.16136363636363,
                "pitch": 64,
                "velocity": 101,
                "duration": 1.9659090909090935,
                "tempo": 120.0
            },
            {
                "start_time": 66.19545454545454,
                "end_time": 66.56363636363636,
                "pitch": 52,
                "velocity": 101,
                "duration": 0.3681818181818244,
                "tempo": 120.0
            },
            {
                "start_time": 66.59772727272727,
                "end_time": 66.96363636363635,
                "pitch": 55,
                "velocity": 101,
                "duration": 0.36590909090908497,
                "tempo": 120.0
            },
            {
                "start_time": 66.99772727272727,
                "end_time": 67.36590909090908,
                "pitch": 62,
                "velocity": 101,
                "duration": 0.36818181818181017,
                "tempo": 120.0
            },
            {
                "start_time": 67.39999999999999,
                "end_time": 69.17272727272727,
                "pitch": 61,
                "velocity": 101,
                "duration": 1.7727272727272805,
                "tempo": 120.0
            },
            {
                "start_time": 69.20681818181818,
                "end_time": 69.375,
                "pitch": 64,
                "velocity": 101,
                "duration": 0.16818181818182154,
                "tempo": 120.0
            },
            {
                "start_time": 69.4090909090909,
                "end_time": 69.575,
                "pitch": 61,
                "velocity": 101,
                "duration": 0.16590909090909634,
                "tempo": 120.0
            },
            {
                "start_time": 69.60909090909091,
                "end_time": 69.77727272727273,
                "pitch": 58,
                "velocity": 101,
                "duration": 0.16818181818182154,
                "tempo": 120.0
            },
            {
                "start_time": 69.81136363636364,
                "end_time": 69.97727272727272,
                "pitch": 57,
                "velocity": 101,
                "duration": 0.16590909090908212,
                "tempo": 120.0
            },
            {
                "start_time": 70.01136363636363,
                "end_time": 70.17727272727272,
                "pitch": 55,
                "velocity": 101,
                "duration": 0.16590909090909634,
                "tempo": 120.0
            },
            {
                "start_time": 70.21136363636363,
                "end_time": 70.38181818181818,
                "pitch": 53,
                "velocity": 101,
                "duration": 0.17045454545454675,
                "tempo": 120.0
            },
            {
                "start_time": 70.41590909090908,
                "end_time": 70.58863636363635,
                "pitch": 52,
                "velocity": 101,
                "duration": 0.17272727272727195,
                "tempo": 120.0
            },
            {
                "start_time": 70.62272727272727,
                "end_time": 71.78636363636363,
                "pitch": 50,
                "velocity": 101,
                "duration": 1.163636363636357,
                "tempo": 120.0
            },
            {
                "start_time": 71.82045454545454,
                "end_time": 72.19545454545454,
                "pitch": 52,
                "velocity": 101,
                "duration": 0.375,
                "tempo": 120.0
            },
            {
                "start_time": 72.22954545454544,
                "end_time": 72.45681818181818,
                "pitch": 53,
                "velocity": 101,
                "duration": 0.22727272727273373,
                "tempo": 120.0
            },
            {
                "start_time": 72.49090909090908,
                "end_time": 72.72045454545454,
                "pitch": 52,
                "velocity": 101,
                "duration": 0.22954545454545894,
                "tempo": 120.0
            },
            {
                "start_time": 72.75454545454545,
                "end_time": 72.98863636363636,
                "pitch": 53,
                "velocity": 101,
                "duration": 0.23409090909090935,
                "tempo": 120.0
            },
            {
                "start_time": 73.02272727272727,
                "end_time": 73.25681818181818,
                "pitch": 55,
                "velocity": 101,
                "duration": 0.23409090909090935,
                "tempo": 120.0
            },
            {
                "start_time": 73.29090909090908,
                "end_time": 73.52499999999999,
                "pitch": 53,
                "velocity": 101,
                "duration": 0.23409090909090935,
                "tempo": 120.0
            },
            {
                "start_time": 73.55909090909091,
                "end_time": 73.79318181818182,
                "pitch": 55,
                "velocity": 101,
                "duration": 0.23409090909090935,
                "tempo": 120.0
            },
            {
                "start_time": 73.82727272727273,
                "end_time": 74.99545454545454,
                "pitch": 57,
                "velocity": 101,
                "duration": 1.1681818181818073,
                "tempo": 120.0
            },
            {
                "start_time": 75.02954545454546,
                "end_time": 75.19772727272726,
                "pitch": 55,
                "velocity": 101,
                "duration": 0.16818181818180733,
                "tempo": 120.0
            },
            {
                "start_time": 75.23181818181818,
                "end_time": 76.20227272727273,
                "pitch": 67,
                "velocity": 101,
                "duration": 0.9704545454545439,
                "tempo": 120.0
            },
            {
                "start_time": 76.23636363636363,
                "end_time": 76.31818181818181,
                "pitch": 69,
                "velocity": 101,
                "duration": 0.08181818181817846,
                "tempo": 120.0
            },
            {
                "start_time": 76.31818181818181,
                "end_time": 76.40227272727272,
                "pitch": 70,
                "velocity": 101,
                "duration": 0.08409090909090366,
                "tempo": 120.0
            },
            {
                "start_time": 76.43636363636364,
                "end_time": 76.52045454545454,
                "pitch": 71,
                "velocity": 101,
                "duration": 0.08409090909090366,
                "tempo": 120.0
            },
            {
                "start_time": 76.52045454545454,
                "end_time": 76.60454545454544,
                "pitch": 72,
                "velocity": 101,
                "duration": 0.08409090909090366,
                "tempo": 120.0
            },
            {
                "start_time": 76.63863636363637,
                "end_time": 76.72045454545454,
                "pitch": 73,
                "velocity": 101,
                "duration": 0.08181818181817846,
                "tempo": 120.0
            },
            {
                "start_time": 76.72045454545454,
                "end_time": 76.80454545454545,
                "pitch": 74,
                "velocity": 101,
                "duration": 0.08409090909090366,
                "tempo": 120.0
            },
            {
                "start_time": 76.83863636363635,
                "end_time": 76.92045454545455,
                "pitch": 75,
                "velocity": 101,
                "duration": 0.08181818181819267,
                "tempo": 120.0
            },
            {
                "start_time": 76.92045454545455,
                "end_time": 77.00454545454545,
                "pitch": 76,
                "velocity": 101,
                "duration": 0.08409090909090366,
                "tempo": 120.0
            }
        ],
        "Trumpet": [
            {
                "start_time": 154.75681818181818,
                "end_time": 154.975,
                "pitch": 81,
                "velocity": 40,
                "duration": 0.2181818181818187,
                "tempo": 120.0
            },
            {
                "start_time": 155.36818181818182,
                "end_time": 155.57954545454544,
                "pitch": 81,
                "velocity": 51,
                "duration": 0.21136363636361466,
                "tempo": 120.0
            },
            {
                "start_time": 155.96136363636361,
                "end_time": 156.36363636363635,
                "pitch": 72,
                "velocity": 64,
                "duration": 0.4022727272727309,
                "tempo": 120.0
            },
            {
                "start_time": 156.36363636363635,
                "end_time": 156.5659090909091,
                "pitch": 76,
                "velocity": 64,
                "duration": 0.20227272727274226,
                "tempo": 120.0
            },
            {
                "start_time": 156.5659090909091,
                "end_time": 156.77272727272725,
                "pitch": 79,
                "velocity": 64,
                "duration": 0.20681818181816425,
                "tempo": 120.0
            },
            {
                "start_time": 156.77272727272725,
                "end_time": 156.975,
                "pitch": 76,
                "velocity": 64,
                "duration": 0.20227272727274226,
                "tempo": 120.0
            },
            {
                "start_time": 156.975,
                "end_time": 157.70454545454544,
                "pitch": 74,
                "velocity": 64,
                "duration": 0.7295454545454447,
                "tempo": 120.0
            },
            {
                "start_time": 157.70454545454544,
                "end_time": 158.2,
                "pitch": 72,
                "velocity": 64,
                "duration": 0.4954545454545496,
                "tempo": 120.0
            },
            {
                "start_time": 158.5840909090909,
                "end_time": 158.79772727272726,
                "pitch": 72,
                "velocity": 51,
                "duration": 0.2136363636363683,
                "tempo": 120.0
            },
            {
                "start_time": 159.17954545454543,
                "end_time": 159.38181818181818,
                "pitch": 79,
                "velocity": 64,
                "duration": 0.20227272727274226,
                "tempo": 120.0
            },
            {
                "start_time": 159.38181818181818,
                "end_time": 159.58636363636361,
                "pitch": 69,
                "velocity": 64,
                "duration": 0.20454545454543904,
                "tempo": 120.0
            },
            {
                "start_time": 159.58636363636361,
                "end_time": 159.79090909090908,
                "pitch": 72,
                "velocity": 64,
                "duration": 0.20454545454546746,
                "tempo": 120.0
            },
            {
                "start_time": 159.79090909090908,
                "end_time": 159.99318181818182,
                "pitch": 76,
                "velocity": 64,
                "duration": 0.20227272727274226,
                "tempo": 120.0
            },
            {
                "start_time": 159.99318181818182,
                "end_time": 160.1931818181818,
                "pitch": 69,
                "velocity": 64,
                "duration": 0.19999999999998863,
                "tempo": 120.0
            },
            {
                "start_time": 160.1931818181818,
                "end_time": 161.0568181818182,
                "pitch": 72,
                "velocity": 64,
                "duration": 0.863636363636374,
                "tempo": 120.0
            },
            {
                "start_time": 161.0568181818182,
                "end_time": 161.61818181818182,
                "pitch": 74,
                "velocity": 64,
                "duration": 0.5613636363636374,
                "tempo": 120.0
            },
            {
                "start_time": 161.99772727272727,
                "end_time": 162.21136363636361,
                "pitch": 74,
                "velocity": 51,
                "duration": 0.21363636363633987,
                "tempo": 120.0
            },
            {
                "start_time": 162.59772727272727,
                "end_time": 163.89090909090908,
                "pitch": 72,
                "velocity": 64,
                "duration": 1.2931818181818073,
                "tempo": 120.0
            },
            {
                "start_time": 164.00454545454545,
                "end_time": 164.08636363636361,
                "pitch": 69,
                "velocity": 80,
                "duration": 0.08181818181816425,
                "tempo": 120.0
            },
            {
                "start_time": 164.2022727272727,
                "end_time": 164.28636363636363,
                "pitch": 67,
                "velocity": 80,
                "duration": 0.08409090909091788,
                "tempo": 120.0
            },
            {
                "start_time": 164.40454545454546,
                "end_time": 164.48863636363635,
                "pitch": 69,
                "velocity": 80,
                "duration": 0.08409090909088945,
                "tempo": 120.0
            },
            {
                "start_time": 167.01590909090908,
                "end_time": 167.5909090909091,
                "pitch": 81,
                "velocity": 80,
                "duration": 0.575000000000017,
                "tempo": 120.0
            },
            {
                "start_time": 167.625,
                "end_time": 167.84772727272727,
                "pitch": 81,
                "velocity": 40,
                "duration": 0.2227272727272691,
                "tempo": 120.0
            },
            {
                "start_time": 168.23181818181817,
                "end_time": 168.4431818181818,
                "pitch": 81,
                "velocity": 51,
                "duration": 0.21136363636364308,
                "tempo": 120.0
            },
            {
                "start_time": 168.825,
                "end_time": 169.225,
                "pitch": 72,
                "velocity": 64,
                "duration": 0.4000000000000057,
                "tempo": 120.0
            },
            {
                "start_time": 169.225,
                "end_time": 169.4272727272727,
                "pitch": 76,
                "velocity": 64,
                "duration": 0.20227272727271384,
                "tempo": 120.0
            },
            {
                "start_time": 169.4272727272727,
                "end_time": 169.6340909090909,
                "pitch": 79,
                "velocity": 64,
                "duration": 0.20681818181819267,
                "tempo": 120.0
            },
            {
                "start_time": 169.6340909090909,
                "end_time": 169.83636363636361,
                "pitch": 76,
                "velocity": 64,
                "duration": 0.20227272727271384,
                "tempo": 120.0
            },
            {
                "start_time": 169.83636363636361,
                "end_time": 170.5659090909091,
                "pitch": 74,
                "velocity": 64,
                "duration": 0.7295454545454731,
                "tempo": 120.0
            },
            {
                "start_time": 170.5659090909091,
                "end_time": 171.04999999999998,
                "pitch": 72,
                "velocity": 64,
                "duration": 0.48409090909089514,
                "tempo": 120.0
            },
            {
                "start_time": 171.4431818181818,
                "end_time": 171.65454545454546,
                "pitch": 72,
                "velocity": 51,
                "duration": 0.21136363636364308,
                "tempo": 120.0
            },
            {
                "start_time": 172.03636363636363,
                "end_time": 172.23863636363635,
                "pitch": 79,
                "velocity": 64,
                "duration": 0.20227272727271384,
                "tempo": 120.0
            },
            {
                "start_time": 172.23863636363635,
                "end_time": 172.4409090909091,
                "pitch": 69,
                "velocity": 64,
                "duration": 0.20227272727274226,
                "tempo": 120.0
            },
            {
                "start_time": 172.4409090909091,
                "end_time": 172.64090909090908,
                "pitch": 72,
                "velocity": 64,
                "duration": 0.19999999999998863,
                "tempo": 120.0
            },
            {
                "start_time": 172.64090909090908,
                "end_time": 172.84772727272727,
                "pitch": 76,
                "velocity": 64,
                "duration": 0.20681818181819267,
                "tempo": 120.0
            },
            {
                "start_time": 172.84772727272727,
                "end_time": 173.04999999999998,
                "pitch": 69,
                "velocity": 64,
                "duration": 0.20227272727271384,
                "tempo": 120.0
            },
            {
                "start_time": 173.04999999999998,
                "end_time": 173.91363636363636,
                "pitch": 72,
                "velocity": 64,
                "duration": 0.863636363636374,
                "tempo": 120.0
            },
            {
                "start_time": 173.91363636363636,
                "end_time": 174.47272727272727,
                "pitch": 74,
                "velocity": 64,
                "duration": 0.5590909090909122,
                "tempo": 120.0
            },
            {
                "start_time": 174.85454545454544,
                "end_time": 175.0681818181818,
                "pitch": 74,
                "velocity": 51,
                "duration": 0.2136363636363683,
                "tempo": 120.0
            },
            {
                "start_time": 175.45454545454544,
                "end_time": 176.75227272727273,
                "pitch": 72,
                "velocity": 64,
                "duration": 1.2977272727272862,
                "tempo": 120.0
            },
            {
                "start_time": 176.86590909090907,
                "end_time": 176.94772727272726,
                "pitch": 69,
                "velocity": 80,
                "duration": 0.08181818181819267,
                "tempo": 120.0
            },
            {
                "start_time": 177.06363636363636,
                "end_time": 177.14772727272725,
                "pitch": 67,
                "velocity": 80,
                "duration": 0.08409090909088945,
                "tempo": 120.0
            },
            {
                "start_time": 177.26590909090908,
                "end_time": 177.34772727272727,
                "pitch": 69,
                "velocity": 80,
                "duration": 0.08181818181819267,
                "tempo": 120.0
            }
        ],
        "Acoustic Bass": [
            {
                "start_time": 0.0,
                "end_time": 0.19999999999999998,
                "pitch": 24,
                "velocity": 51,
                "duration": 0.19999999999999998,
                "tempo": 120.0
            },
            {
                "start_time": 0.2159090909090909,
                "end_time": 0.3840909090909091,
                "pitch": 36,
                "velocity": 51,
                "duration": 0.16818181818181818,
                "tempo": 120.0
            },
            {
                "start_time": 0.4159090909090909,
                "end_time": 0.5840909090909091,
                "pitch": 24,
                "velocity": 51,
                "duration": 0.1681818181818182,
                "tempo": 120.0
            },
            {
                "start_time": 0.6181818181818182,
                "end_time": 0.7863636363636364,
                "pitch": 36,
                "velocity": 51,
                "duration": 0.1681818181818182,
                "tempo": 120.0
            },
            {
                "start_time": 0.8204545454545454,
                "end_time": 0.9863636363636363,
                "pitch": 24,
                "velocity": 51,
                "duration": 0.1659090909090909,
                "tempo": 120.0
            },
            {
                "start_time": 1.0204545454545455,
                "end_time": 1.1863636363636363,
                "pitch": 36,
                "velocity": 51,
                "duration": 0.16590909090909078,
                "tempo": 120.0
            },
            {
                "start_time": 1.2204545454545455,
                "end_time": 1.3863636363636362,
                "pitch": 24,
                "velocity": 51,
                "duration": 0.16590909090909078,
                "tempo": 120.0
            },
            {
                "start_time": 1.4204545454545454,
                "end_time": 1.5863636363636362,
                "pitch": 36,
                "velocity": 51,
                "duration": 0.16590909090909078,
                "tempo": 120.0
            },
            {
                "start_time": 1.6204545454545454,
                "end_time": 1.7863636363636364,
                "pitch": 24,
                "velocity": 51,
                "duration": 0.165909090909091,
                "tempo": 120.0
            },
            {
                "start_time": 1.8204545454545453,
                "end_time": 1.9886363636363635,
                "pitch": 36,
                "velocity": 51,
                "duration": 0.1681818181818182,
                "tempo": 120.0
            },
            {
                "start_time": 2.0227272727272725,
                "end_time": 2.1886363636363635,
                "pitch": 24,
                "velocity": 51,
                "duration": 0.165909090909091,
                "tempo": 120.0
            },
            {
                "start_time": 2.2227272727272727,
                "end_time": 2.3886363636363637,
                "pitch": 36,
                "velocity": 51,
                "duration": 0.165909090909091,
                "tempo": 120.0
            },
            {
                "start_time": 2.4227272727272724,
                "end_time": 2.5886363636363634,
                "pitch": 24,
                "velocity": 51,
                "duration": 0.165909090909091,
                "tempo": 120.0
            },
            {
                "start_time": 2.6227272727272726,
                "end_time": 2.7886363636363636,
                "pitch": 36,
                "velocity": 51,
                "duration": 0.165909090909091,
                "tempo": 120.0
            },
            {
                "start_time": 2.8227272727272728,
                "end_time": 2.9886363636363633,
                "pitch": 24,
                "velocity": 51,
                "duration": 0.16590909090909056,
                "tempo": 120.0
            },
            {
                "start_time": 3.0227272727272725,
                "end_time": 3.1886363636363635,
                "pitch": 36,
                "velocity": 51,
                "duration": 0.165909090909091,
                "tempo": 120.0
            },
            {
                "start_time": 3.2227272727272727,
                "end_time": 3.3909090909090907,
                "pitch": 24,
                "velocity": 51,
                "duration": 0.168181818181818,
                "tempo": 120.0
            },
            {
                "start_time": 3.4227272727272724,
                "end_time": 3.590909090909091,
                "pitch": 36,
                "velocity": 51,
                "duration": 0.16818181818181843,
                "tempo": 120.0
            },
            {
                "start_time": 3.625,
                "end_time": 3.7909090909090906,
                "pitch": 24,
                "velocity": 51,
                "duration": 0.16590909090909056,
                "tempo": 120.0
            },
            {
                "start_time": 3.8249999999999997,
                "end_time": 3.9909090909090907,
                "pitch": 36,
                "velocity": 51,
                "duration": 0.165909090909091,
                "tempo": 120.0
            },
            {
                "start_time": 4.0249999999999995,
                "end_time": 4.1909090909090905,
                "pitch": 24,
                "velocity": 51,
                "duration": 0.165909090909091,
                "tempo": 120.0
            },
            {
                "start_time": 4.225,
                "end_time": 4.390909090909091,
                "pitch": 36,
                "velocity": 51,
                "duration": 0.165909090909091,
                "tempo": 120.0
            },
            {
                "start_time": 4.425,
                "end_time": 4.590909090909091,
                "pitch": 24,
                "velocity": 51,
                "duration": 0.165909090909091,
                "tempo": 120.0
            },
            {
                "start_time": 4.625,
                "end_time": 4.790909090909091,
                "pitch": 36,
                "velocity": 51,
                "duration": 0.165909090909091,
                "tempo": 120.0
            },
            {
                "start_time": 4.825,
                "end_time": 4.993181818181818,
                "pitch": 24,
                "velocity": 51,
                "duration": 0.168181818181818,
                "tempo": 120.0
            },
            {
                "start_time": 5.027272727272727,
                "end_time": 5.193181818181818,
                "pitch": 36,
                "velocity": 51,
                "duration": 0.165909090909091,
                "tempo": 120.0
            },
            {
                "start_time": 5.227272727272727,
                "end_time": 5.393181818181818,
                "pitch": 24,
                "velocity": 51,
                "duration": 0.165909090909091,
                "tempo": 120.0
            },
            {
                "start_time": 5.427272727272727,
                "end_time": 5.593181818181818,
                "pitch": 36,
                "velocity": 51,
                "duration": 0.165909090909091,
                "tempo": 120.0
            },
            {
                "start_time": 5.627272727272727,
                "end_time": 5.795454545454545,
                "pitch": 24,
                "velocity": 51,
                "duration": 0.168181818181818,
                "tempo": 120.0
            },
            {
                "start_time": 5.829545454545454,
                "end_time": 5.997727272727272,
                "pitch": 36,
                "velocity": 51,
                "duration": 0.168181818181818,
                "tempo": 120.0
            },
            {
                "start_time": 6.029545454545454,
                "end_time": 6.197727272727272,
                "pitch": 24,
                "velocity": 51,
                "duration": 0.168181818181818,
                "tempo": 120.0
            },
            {
                "start_time": 6.2318181818181815,
                "end_time": 6.3999999999999995,
                "pitch": 36,
                "velocity": 51,
                "duration": 0.168181818181818,
                "tempo": 120.0
            },
            {
                "start_time": 6.431818181818182,
                "end_time": 6.6,
                "pitch": 24,
                "velocity": 51,
                "duration": 0.168181818181818,
                "tempo": 120.0
            },
            {
                "start_time": 6.631818181818182,
                "end_time": 6.8,
                "pitch": 36,
                "velocity": 51,
                "duration": 0.168181818181818,
                "tempo": 120.0
            },
            {
                "start_time": 6.834090909090909,
                "end_time": 7.0,
                "pitch": 24,
                "velocity": 51,
                "duration": 0.165909090909091,
                "tempo": 120.0
            },
            {
                "start_time": 7.034090909090909,
                "end_time": 7.202272727272727,
                "pitch": 36,
                "velocity": 51,
                "duration": 0.168181818181818,
                "tempo": 120.0
            },
            {
                "start_time": 7.236363636363636,
                "end_time": 7.402272727272727,
                "pitch": 24,
                "velocity": 51,
                "duration": 0.165909090909091,
                "tempo": 120.0
            },
            {
                "start_time": 7.436363636363636,
                "end_time": 7.602272727272727,
                "pitch": 36,
                "velocity": 51,
                "duration": 0.165909090909091,
                "tempo": 120.0
            },
            {
                "start_time": 7.636363636363636,
                "end_time": 7.806818181818182,
                "pitch": 24,
                "velocity": 51,
                "duration": 0.17045454545454586,
                "tempo": 120.0
            },
            {
                "start_time": 7.840909090909091,
                "end_time": 8.013636363636364,
                "pitch": 36,
                "velocity": 51,
                "duration": 0.17272727272727284,
                "tempo": 120.0
            },
            {
                "start_time": 8.045454545454545,
                "end_time": 8.209090909090909,
                "pitch": 24,
                "velocity": 51,
                "duration": 0.16363636363636402,
                "tempo": 120.0
            },
            {
                "start_time": 8.24090909090909,
                "end_time": 8.404545454545454,
                "pitch": 36,
                "velocity": 51,
                "duration": 0.16363636363636402,
                "tempo": 120.0
            },
            {
                "start_time": 8.438636363636363,
                "end_time": 8.60681818181818,
                "pitch": 24,
                "velocity": 51,
                "duration": 0.168181818181818,
                "tempo": 120.0
            },
            {
                "start_time": 8.64090909090909,
                "end_time": 8.806818181818182,
                "pitch": 36,
                "velocity": 51,
                "duration": 0.165909090909091,
                "tempo": 120.0
            },
            {
                "start_time": 8.84090909090909,
                "end_time": 9.006818181818181,
                "pitch": 24,
                "velocity": 51,
                "duration": 0.165909090909091,
                "tempo": 120.0
            },
            {
                "start_time": 9.040909090909091,
                "end_time": 9.206818181818182,
                "pitch": 36,
                "velocity": 51,
                "duration": 0.165909090909091,
                "tempo": 120.0
            },
            {
                "start_time": 9.24090909090909,
                "end_time": 9.409090909090908,
                "pitch": 24,
                "velocity": 51,
                "duration": 0.168181818181818,
                "tempo": 120.0
            },
            {
                "start_time": 9.443181818181818,
                "end_time": 9.611363636363636,
                "pitch": 36,
                "velocity": 51,
                "duration": 0.168181818181818,
                "tempo": 120.0
            },
            {
                "start_time": 9.643181818181818,
                "end_time": 9.811363636363636,
                "pitch": 24,
                "velocity": 51,
                "duration": 0.168181818181818,
                "tempo": 120.0
            },
            {
                "start_time": 9.845454545454546,
                "end_time": 10.013636363636364,
                "pitch": 36,
                "velocity": 51,
                "duration": 0.168181818181818,
                "tempo": 120.0
            },
            {
                "start_time": 10.045454545454545,
                "end_time": 10.213636363636363,
                "pitch": 24,
                "velocity": 51,
                "duration": 0.168181818181818,
                "tempo": 120.0
            },
            {
                "start_time": 10.247727272727273,
                "end_time": 10.415909090909091,
                "pitch": 36,
                "velocity": 51,
                "duration": 0.168181818181818,
                "tempo": 120.0
            },
            {
                "start_time": 10.45,
                "end_time": 10.618181818181817,
                "pitch": 24,
                "velocity": 51,
                "duration": 0.168181818181818,
                "tempo": 120.0
            },
            {
                "start_time": 10.65,
                "end_time": 10.818181818181818,
                "pitch": 36,
                "velocity": 51,
                "duration": 0.168181818181818,
                "tempo": 120.0
            },
            {
                "start_time": 10.852272727272727,
                "end_time": 11.018181818181818,
                "pitch": 24,
                "velocity": 51,
                "duration": 0.165909090909091,
                "tempo": 120.0
            },
            {
                "start_time": 11.052272727272726,
                "end_time": 11.218181818181817,
                "pitch": 36,
                "velocity": 51,
                "duration": 0.165909090909091,
                "tempo": 120.0
            },
            {
                "start_time": 11.252272727272727,
                "end_time": 11.420454545454545,
                "pitch": 24,
                "velocity": 51,
                "duration": 0.168181818181818,
                "tempo": 120.0
            },
            {
                "start_time": 11.452272727272726,
                "end_time": 11.620454545454544,
                "pitch": 36,
                "velocity": 51,
                "duration": 0.168181818181818,
                "tempo": 120.0
            },
            {
                "start_time": 11.654545454545454,
                "end_time": 11.822727272727272,
                "pitch": 24,
                "velocity": 51,
                "duration": 0.168181818181818,
                "tempo": 120.0
            },
            {
                "start_time": 11.85681818181818,
                "end_time": 12.022727272727272,
                "pitch": 36,
                "velocity": 51,
                "duration": 0.165909090909091,
                "tempo": 120.0
            },
            {
                "start_time": 12.056818181818182,
                "end_time": 12.225,
                "pitch": 24,
                "velocity": 51,
                "duration": 0.168181818181818,
                "tempo": 120.0
            },
            {
                "start_time": 12.259090909090908,
                "end_time": 12.427272727272726,
                "pitch": 36,
                "velocity": 51,
                "duration": 0.168181818181818,
                "tempo": 120.0
            },
            {
                "start_time": 12.459090909090909,
                "end_time": 12.627272727272727,
                "pitch": 24,
                "velocity": 51,
                "duration": 0.168181818181818,
                "tempo": 120.0
            },
            {
                "start_time": 12.661363636363635,
                "end_time": 12.829545454545453,
                "pitch": 36,
                "velocity": 51,
                "duration": 0.168181818181818,
                "tempo": 120.0
            },
            {
                "start_time": 12.861363636363636,
                "end_time": 13.029545454545454,
                "pitch": 24,
                "velocity": 51,
                "duration": 0.168181818181818,
                "tempo": 120.0
            },
            {
                "start_time": 13.061363636363636,
                "end_time": 13.229545454545454,
                "pitch": 36,
                "velocity": 51,
                "duration": 0.168181818181818,
                "tempo": 120.0
            },
            {
                "start_time": 13.263636363636364,
                "end_time": 13.434090909090909,
                "pitch": 24,
                "velocity": 51,
                "duration": 0.17045454545454497,
                "tempo": 120.0
            },
            {
                "start_time": 13.468181818181817,
                "end_time": 13.638636363636364,
                "pitch": 36,
                "velocity": 51,
                "duration": 0.17045454545454675,
                "tempo": 120.0
            },
            {
                "start_time": 13.672727272727272,
                "end_time": 13.836363636363636,
                "pitch": 24,
                "velocity": 51,
                "duration": 0.16363636363636402,
                "tempo": 120.0
            },
            {
                "start_time": 13.868181818181817,
                "end_time": 14.031818181818181,
                "pitch": 36,
                "velocity": 51,
                "duration": 0.16363636363636402,
                "tempo": 120.0
            },
            {
                "start_time": 14.06590909090909,
                "end_time": 14.236363636363636,
                "pitch": 24,
                "velocity": 51,
                "duration": 0.17045454545454675,
                "tempo": 120.0
            },
            {
                "start_time": 14.270454545454545,
                "end_time": 14.443181818181818,
                "pitch": 36,
                "velocity": 51,
                "duration": 0.17272727272727373,
                "tempo": 120.0
            },
            {
                "start_time": 14.475,
                "end_time": 14.638636363636364,
                "pitch": 24,
                "velocity": 51,
                "duration": 0.16363636363636402,
                "tempo": 120.0
            },
            {
                "start_time": 14.670454545454545,
                "end_time": 14.834090909090909,
                "pitch": 36,
                "velocity": 51,
                "duration": 0.16363636363636402,
                "tempo": 120.0
            },
            {
                "start_time": 14.868181818181817,
                "end_time": 15.038636363636362,
                "pitch": 24,
                "velocity": 51,
                "duration": 0.17045454545454497,
                "tempo": 120.0
            },
            {
                "start_time": 15.075,
                "end_time": 15.245454545454544,
                "pitch": 36,
                "velocity": 51,
                "duration": 0.17045454545454497,
                "tempo": 120.0
            },
            {
                "start_time": 15.277272727272727,
                "end_time": 15.44090909090909,
                "pitch": 24,
                "velocity": 51,
                "duration": 0.16363636363636225,
                "tempo": 120.0
            },
            {
                "start_time": 15.472727272727273,
                "end_time": 15.636363636363635,
                "pitch": 36,
                "velocity": 51,
                "duration": 0.16363636363636225,
                "tempo": 120.0
            },
            {
                "start_time": 15.670454545454545,
                "end_time": 15.843181818181817,
                "pitch": 24,
                "velocity": 51,
                "duration": 0.17272727272727195,
                "tempo": 120.0
            },
            {
                "start_time": 15.877272727272727,
                "end_time": 16.047727272727272,
                "pitch": 36,
                "velocity": 51,
                "duration": 0.17045454545454497,
                "tempo": 120.0
            },
            {
                "start_time": 16.079545454545453,
                "end_time": 16.243181818181817,
                "pitch": 24,
                "velocity": 51,
                "duration": 0.16363636363636402,
                "tempo": 120.0
            },
            {
                "start_time": 16.277272727272727,
                "end_time": 16.44090909090909,
                "pitch": 36,
                "velocity": 51,
                "duration": 0.16363636363636402,
                "tempo": 120.0
            },
            {
                "start_time": 16.472727272727273,
                "end_time": 16.645454545454545,
                "pitch": 24,
                "velocity": 51,
                "duration": 0.17272727272727195,
                "tempo": 120.0
            },
            {
                "start_time": 16.679545454545455,
                "end_time": 16.849999999999998,
                "pitch": 36,
                "velocity": 51,
                "duration": 0.1704545454545432,
                "tempo": 120.0
            },
            {
                "start_time": 16.884090909090908,
                "end_time": 17.045454545454543,
                "pitch": 24,
                "velocity": 51,
                "duration": 0.16136363636363527,
                "tempo": 120.0
            },
            {
                "start_time": 17.079545454545453,
                "end_time": 17.243181818181817,
                "pitch": 36,
                "velocity": 51,
                "duration": 0.16363636363636402,
                "tempo": 120.0
            },
            {
                "start_time": 17.277272727272727,
                "end_time": 17.44772727272727,
                "pitch": 24,
                "velocity": 51,
                "duration": 0.1704545454545432,
                "tempo": 120.0
            },
            {
                "start_time": 17.48181818181818,
                "end_time": 17.652272727272727,
                "pitch": 36,
                "velocity": 51,
                "duration": 0.17045454545454675,
                "tempo": 120.0
            },
            {
                "start_time": 17.686363636363634,
                "end_time": 17.849999999999998,
                "pitch": 24,
                "velocity": 51,
                "duration": 0.16363636363636402,
                "tempo": 120.0
            },
            {
                "start_time": 17.881818181818183,
                "end_time": 18.045454545454543,
                "pitch": 36,
                "velocity": 51,
                "duration": 0.16363636363636047,
                "tempo": 120.0
            },
            {
                "start_time": 18.079545454545453,
                "end_time": 18.25,
                "pitch": 24,
                "velocity": 51,
                "duration": 0.17045454545454675,
                "tempo": 120.0
            },
            {
                "start_time": 18.284090909090907,
                "end_time": 18.454545454545453,
                "pitch": 36,
                "velocity": 51,
                "duration": 0.17045454545454675,
                "tempo": 120.0
            },
            {
                "start_time": 18.488636363636363,
                "end_time": 18.652272727272727,
                "pitch": 24,
                "velocity": 51,
                "duration": 0.16363636363636402,
                "tempo": 120.0
            },
            {
                "start_time": 18.68409090909091,
                "end_time": 18.847727272727273,
                "pitch": 36,
                "velocity": 51,
                "duration": 0.16363636363636402,
                "tempo": 120.0
            },
            {
                "start_time": 18.88181818181818,
                "end_time": 19.052272727272726,
                "pitch": 24,
                "velocity": 51,
                "duration": 0.17045454545454675,
                "tempo": 120.0
            },
            {
                "start_time": 19.086363636363636,
                "end_time": 19.259090909090908,
                "pitch": 36,
                "velocity": 51,
                "duration": 0.17272727272727195,
                "tempo": 120.0
            },
            {
                "start_time": 19.29090909090909,
                "end_time": 19.454545454545453,
                "pitch": 24,
                "velocity": 51,
                "duration": 0.16363636363636402,
                "tempo": 120.0
            },
            {
                "start_time": 19.486363636363635,
                "end_time": 19.65,
                "pitch": 36,
                "velocity": 51,
                "duration": 0.16363636363636402,
                "tempo": 120.0
            },
            {
                "start_time": 19.68409090909091,
                "end_time": 19.849999999999998,
                "pitch": 24,
                "velocity": 51,
                "duration": 0.16590909090908923,
                "tempo": 120.0
            },
            {
                "start_time": 19.884090909090908,
                "end_time": 20.05,
                "pitch": 36,
                "velocity": 51,
                "duration": 0.16590909090909278,
                "tempo": 120.0
            },
            {
                "start_time": 20.084090909090907,
                "end_time": 20.252272727272725,
                "pitch": 24,
                "velocity": 51,
                "duration": 0.168181818181818,
                "tempo": 120.0
            },
            {
                "start_time": 20.286363636363635,
                "end_time": 20.452272727272728,
                "pitch": 36,
                "velocity": 51,
                "duration": 0.16590909090909278,
                "tempo": 120.0
            },
            {
                "start_time": 20.486363636363635,
                "end_time": 20.652272727272727,
                "pitch": 24,
                "velocity": 51,
                "duration": 0.16590909090909278,
                "tempo": 120.0
            },
            {
                "start_time": 20.686363636363634,
                "end_time": 20.852272727272727,
                "pitch": 36,
                "velocity": 51,
                "duration": 0.16590909090909278,
                "tempo": 120.0
            },
            {
                "start_time": 20.886363636363637,
                "end_time": 21.054545454545455,
                "pitch": 24,
                "velocity": 51,
                "duration": 0.168181818181818,
                "tempo": 120.0
            },
            {
                "start_time": 21.08863636363636,
                "end_time": 21.25681818181818,
                "pitch": 36,
                "velocity": 51,
                "duration": 0.168181818181818,
                "tempo": 120.0
            },
            {
                "start_time": 21.288636363636364,
                "end_time": 21.456818181818182,
                "pitch": 24,
                "velocity": 51,
                "duration": 0.168181818181818,
                "tempo": 120.0
            },
            {
                "start_time": 21.488636363636363,
                "end_time": 21.65681818181818,
                "pitch": 36,
                "velocity": 51,
                "duration": 0.168181818181818,
                "tempo": 120.0
            },
            {
                "start_time": 21.688636363636363,
                "end_time": 21.85681818181818,
                "pitch": 24,
                "velocity": 51,
                "duration": 0.168181818181818,
                "tempo": 120.0
            },
            {
                "start_time": 21.888636363636362,
                "end_time": 22.05681818181818,
                "pitch": 36,
                "velocity": 51,
                "duration": 0.168181818181818,
                "tempo": 120.0
            },
            {
                "start_time": 22.08863636363636,
                "end_time": 22.25681818181818,
                "pitch": 24,
                "velocity": 51,
                "duration": 0.168181818181818,
                "tempo": 120.0
            },
            {
                "start_time": 22.29090909090909,
                "end_time": 22.459090909090907,
                "pitch": 36,
                "velocity": 51,
                "duration": 0.168181818181818,
                "tempo": 120.0
            },
            {
                "start_time": 22.493181818181817,
                "end_time": 22.663636363636364,
                "pitch": 24,
                "velocity": 51,
                "duration": 0.17045454545454675,
                "tempo": 120.0
            },
            {
                "start_time": 22.69772727272727,
                "end_time": 22.868181818181817,
                "pitch": 24,
                "velocity": 51,
                "duration": 0.17045454545454675,
                "tempo": 120.0
            },
            {
                "start_time": 22.902272727272727,
                "end_time": 23.06590909090909,
                "pitch": 24,
                "velocity": 51,
                "duration": 0.16363636363636402,
                "tempo": 120.0
            },
            {
                "start_time": 23.495454545454546,
                "end_time": 23.661363636363635,
                "pitch": 24,
                "velocity": 51,
                "duration": 0.16590909090908923,
                "tempo": 120.0
            },
            {
                "start_time": 23.895454545454545,
                "end_time": 24.061363636363634,
                "pitch": 24,
                "velocity": 51,
                "duration": 0.16590909090908923,
                "tempo": 120.0
            },
            {
                "start_time": 25.7,
                "end_time": 25.86590909090909,
                "pitch": 24,
                "velocity": 51,
                "duration": 0.16590909090908923,
                "tempo": 120.0
            },
            {
                "start_time": 25.9,
                "end_time": 26.06590909090909,
                "pitch": 36,
                "velocity": 51,
                "duration": 0.16590909090909278,
                "tempo": 120.0
            },
            {
                "start_time": 26.099999999999998,
                "end_time": 26.268181818181816,
                "pitch": 24,
                "velocity": 51,
                "duration": 0.168181818181818,
                "tempo": 120.0
            },
            {
                "start_time": 26.302272727272726,
                "end_time": 26.470454545454544,
                "pitch": 36,
                "velocity": 51,
                "duration": 0.168181818181818,
                "tempo": 120.0
            },
            {
                "start_time": 26.504545454545454,
                "end_time": 26.674999999999997,
                "pitch": 24,
                "velocity": 51,
                "duration": 0.1704545454545432,
                "tempo": 120.0
            },
            {
                "start_time": 26.709090909090907,
                "end_time": 26.879545454545454,
                "pitch": 36,
                "velocity": 51,
                "duration": 0.17045454545454675,
                "tempo": 120.0
            },
            {
                "start_time": 26.913636363636364,
                "end_time": 27.077272727272724,
                "pitch": 24,
                "velocity": 51,
                "duration": 0.16363636363636047,
                "tempo": 120.0
            },
            {
                "start_time": 27.10909090909091,
                "end_time": 27.27272727272727,
                "pitch": 36,
                "velocity": 51,
                "duration": 0.16363636363636047,
                "tempo": 120.0
            },
            {
                "start_time": 27.30681818181818,
                "end_time": 27.472727272727273,
                "pitch": 24,
                "velocity": 51,
                "duration": 0.16590909090909278,
                "tempo": 120.0
            },
            {
                "start_time": 27.50681818181818,
                "end_time": 27.672727272727272,
                "pitch": 36,
                "velocity": 51,
                "duration": 0.16590909090909278,
                "tempo": 120.0
            },
            {
                "start_time": 27.706818181818182,
                "end_time": 27.87272727272727,
                "pitch": 24,
                "velocity": 51,
                "duration": 0.16590909090908923,
                "tempo": 120.0
            },
            {
                "start_time": 27.90681818181818,
                "end_time": 28.07272727272727,
                "pitch": 36,
                "velocity": 51,
                "duration": 0.16590909090908923,
                "tempo": 120.0
            },
            {
                "start_time": 28.10681818181818,
                "end_time": 28.277272727272727,
                "pitch": 24,
                "velocity": 51,
                "duration": 0.17045454545454675,
                "tempo": 120.0
            },
            {
                "start_time": 28.311363636363634,
                "end_time": 28.48409090909091,
                "pitch": 36,
                "velocity": 51,
                "duration": 0.1727272727272755,
                "tempo": 120.0
            },
            {
                "start_time": 28.51590909090909,
                "end_time": 28.679545454545455,
                "pitch": 24,
                "velocity": 51,
                "duration": 0.16363636363636402,
                "tempo": 120.0
            },
            {
                "start_time": 28.711363636363636,
                "end_time": 28.875,
                "pitch": 36,
                "velocity": 51,
                "duration": 0.16363636363636402,
                "tempo": 120.0
            },
            {
                "start_time": 28.909090909090907,
                "end_time": 29.077272727272724,
                "pitch": 34,
                "velocity": 51,
                "duration": 0.168181818181818,
                "tempo": 120.0
            },
            {
                "start_time": 29.10909090909091,
                "end_time": 29.277272727272727,
                "pitch": 46,
                "velocity": 51,
                "duration": 0.168181818181818,
                "tempo": 120.0
            },
            {
                "start_time": 29.311363636363634,
                "end_time": 29.477272727272727,
                "pitch": 34,
                "velocity": 51,
                "duration": 0.16590909090909278,
                "tempo": 120.0
            },
            {
                "start_time": 29.511363636363637,
                "end_time": 29.677272727272726,
                "pitch": 46,
                "velocity": 51,
                "duration": 0.16590909090908923,
                "tempo": 120.0
            },
            {
                "start_time": 29.711363636363636,
                "end_time": 29.884090909090908,
                "pitch": 34,
                "velocity": 51,
                "duration": 0.17272727272727195,
                "tempo": 120.0
            },
            {
                "start_time": 29.918181818181818,
                "end_time": 30.08863636363636,
                "pitch": 46,
                "velocity": 51,
                "duration": 0.1704545454545432,
                "tempo": 120.0
            },
            {
                "start_time": 30.120454545454542,
                "end_time": 30.284090909090907,
                "pitch": 34,
                "velocity": 51,
                "duration": 0.16363636363636402,
                "tempo": 120.0
            },
            {
                "start_time": 30.318181818181817,
                "end_time": 30.48181818181818,
                "pitch": 46,
                "velocity": 51,
                "duration": 0.16363636363636402,
                "tempo": 120.0
            },
            {
                "start_time": 30.513636363636362,
                "end_time": 30.68181818181818,
                "pitch": 34,
                "velocity": 51,
                "duration": 0.168181818181818,
                "tempo": 120.0
            },
            {
                "start_time": 30.71363636363636,
                "end_time": 30.88181818181818,
                "pitch": 46,
                "velocity": 51,
                "duration": 0.168181818181818,
                "tempo": 120.0
            },
            {
                "start_time": 30.91363636363636,
                "end_time": 31.081818181818182,
                "pitch": 34,
                "velocity": 51,
                "duration": 0.16818181818182154,
                "tempo": 120.0
            },
            {
                "start_time": 31.11590909090909,
                "end_time": 31.284090909090907,
                "pitch": 46,
                "velocity": 51,
                "duration": 0.168181818181818,
                "tempo": 120.0
            },
            {
                "start_time": 31.318181818181817,
                "end_time": 31.488636363636363,
                "pitch": 34,
                "velocity": 51,
                "duration": 0.17045454545454675,
                "tempo": 120.0
            },
            {
                "start_time": 31.52272727272727,
                "end_time": 31.693181818181817,
                "pitch": 46,
                "velocity": 51,
                "duration": 0.17045454545454675,
                "tempo": 120.0
            },
            {
                "start_time": 31.727272727272727,
                "end_time": 31.89090909090909,
                "pitch": 34,
                "velocity": 51,
                "duration": 0.16363636363636402,
                "tempo": 120.0
            },
            {
                "start_time": 31.922727272727272,
                "end_time": 32.086363636363636,
                "pitch": 46,
                "velocity": 51,
                "duration": 0.16363636363636402,
                "tempo": 120.0
            },
            {
                "start_time": 32.12045454545454,
                "end_time": 32.288636363636364,
                "pitch": 33,
                "velocity": 51,
                "duration": 0.16818181818182154,
                "tempo": 120.0
            },
            {
                "start_time": 32.320454545454545,
                "end_time": 32.48863636363636,
                "pitch": 45,
                "velocity": 51,
                "duration": 0.16818181818181444,
                "tempo": 120.0
            },
            {
                "start_time": 32.52272727272727,
                "end_time": 32.69090909090909,
                "pitch": 33,
                "velocity": 51,
                "duration": 0.16818181818181444,
                "tempo": 120.0
            },
            {
                "start_time": 32.725,
                "end_time": 32.89090909090909,
                "pitch": 45,
                "velocity": 51,
                "duration": 0.16590909090908923,
                "tempo": 120.0
            },
            {
                "start_time": 32.925,
                "end_time": 33.09772727272727,
                "pitch": 33,
                "velocity": 51,
                "duration": 0.17272727272727195,
                "tempo": 120.0
            },
            {
                "start_time": 33.13181818181818,
                "end_time": 33.30227272727272,
                "pitch": 45,
                "velocity": 51,
                "duration": 0.17045454545453964,
                "tempo": 120.0
            },
            {
                "start_time": 33.33409090909091,
                "end_time": 33.49772727272727,
                "pitch": 33,
                "velocity": 51,
                "duration": 0.16363636363635692,
                "tempo": 120.0
            },
            {
                "start_time": 33.53181818181818,
                "end_time": 33.695454545454545,
                "pitch": 45,
                "velocity": 51,
                "duration": 0.16363636363636402,
                "tempo": 120.0
            },
            {
                "start_time": 33.72727272727273,
                "end_time": 33.89545454545454,
                "pitch": 33,
                "velocity": 51,
                "duration": 0.16818181818181444,
                "tempo": 120.0
            },
            {
                "start_time": 33.92727272727272,
                "end_time": 34.095454545454544,
                "pitch": 45,
                "velocity": 51,
                "duration": 0.16818181818182154,
                "tempo": 120.0
            },
            {
                "start_time": 34.127272727272725,
                "end_time": 34.29545454545455,
                "pitch": 33,
                "velocity": 51,
                "duration": 0.16818181818182154,
                "tempo": 120.0
            },
            {
                "start_time": 34.32727272727273,
                "end_time": 34.49545454545454,
                "pitch": 45,
                "velocity": 51,
                "duration": 0.16818181818181444,
                "tempo": 120.0
            },
            {
                "start_time": 34.527272727272724,
                "end_time": 34.695454545454545,
                "pitch": 33,
                "velocity": 51,
                "duration": 0.16818181818182154,
                "tempo": 120.0
            },
            {
                "start_time": 34.72954545454545,
                "end_time": 34.89772727272727,
                "pitch": 45,
                "velocity": 51,
                "duration": 0.16818181818182154,
                "tempo": 120.0
            },
            {
                "start_time": 34.93181818181818,
                "end_time": 35.10227272727273,
                "pitch": 33,
                "velocity": 51,
                "duration": 0.17045454545454675,
                "tempo": 120.0
            },
            {
                "start_time": 35.13636363636363,
                "end_time": 35.309090909090905,
                "pitch": 45,
                "velocity": 51,
                "duration": 0.17272727272727195,
                "tempo": 120.0
            },
            {
                "start_time": 35.340909090909086,
                "end_time": 35.50454545454545,
                "pitch": 29,
                "velocity": 51,
                "duration": 0.16363636363636402,
                "tempo": 120.0
            },
            {
                "start_time": 35.53636363636363,
                "end_time": 35.699999999999996,
                "pitch": 41,
                "velocity": 51,
                "duration": 0.16363636363636402,
                "tempo": 120.0
            },
            {
                "start_time": 35.73409090909091,
                "end_time": 35.9,
                "pitch": 29,
                "velocity": 51,
                "duration": 0.16590909090908923,
                "tempo": 120.0
            },
            {
                "start_time": 35.934090909090905,
                "end_time": 36.1,
                "pitch": 41,
                "velocity": 51,
                "duration": 0.16590909090909634,
                "tempo": 120.0
            },
            {
                "start_time": 36.13409090909091,
                "end_time": 36.3,
                "pitch": 29,
                "velocity": 51,
                "duration": 0.16590909090908923,
                "tempo": 120.0
            },
            {
                "start_time": 36.33409090909091,
                "end_time": 36.5,
                "pitch": 41,
                "velocity": 51,
                "duration": 0.16590909090908923,
                "tempo": 120.0
            },
            {
                "start_time": 36.53409090909091,
                "end_time": 36.70227272727273,
                "pitch": 29,
                "velocity": 51,
                "duration": 0.16818181818182154,
                "tempo": 120.0
            },
            {
                "start_time": 36.73409090909091,
                "end_time": 36.902272727272724,
                "pitch": 41,
                "velocity": 51,
                "duration": 0.16818181818181444,
                "tempo": 120.0
            },
            {
                "start_time": 36.93636363636364,
                "end_time": 37.10227272727273,
                "pitch": 29,
                "velocity": 51,
                "duration": 0.16590909090908923,
                "tempo": 120.0
            },
            {
                "start_time": 37.13636363636363,
                "end_time": 37.30227272727272,
                "pitch": 41,
                "velocity": 51,
                "duration": 0.16590909090908923,
                "tempo": 120.0
            },
            {
                "start_time": 37.336363636363636,
                "end_time": 37.502272727272725,
                "pitch": 29,
                "velocity": 51,
                "duration": 0.16590909090908923,
                "tempo": 120.0
            },
            {
                "start_time": 37.53636363636363,
                "end_time": 37.70227272727273,
                "pitch": 41,
                "velocity": 51,
                "duration": 0.16590909090909634,
                "tempo": 120.0
            },
            {
                "start_time": 37.736363636363635,
                "end_time": 37.902272727272724,
                "pitch": 29,
                "velocity": 51,
                "duration": 0.16590909090908923,
                "tempo": 120.0
            },
            {
                "start_time": 37.93636363636364,
                "end_time": 38.10227272727273,
                "pitch": 41,
                "velocity": 51,
                "duration": 0.16590909090908923,
                "tempo": 120.0
            },
            {
                "start_time": 38.13636363636363,
                "end_time": 38.30227272727272,
                "pitch": 29,
                "velocity": 51,
                "duration": 0.16590909090908923,
                "tempo": 120.0
            },
            {
                "start_time": 38.336363636363636,
                "end_time": 38.502272727272725,
                "pitch": 41,
                "velocity": 51,
                "duration": 0.16590909090908923,
                "tempo": 120.0
            },
            {
                "start_time": 38.53636363636363,
                "end_time": 38.70454545454545,
                "pitch": 24,
                "velocity": 51,
                "duration": 0.16818181818182154,
                "tempo": 120.0
            },
            {
                "start_time": 38.73863636363636,
                "end_time": 38.904545454545456,
                "pitch": 36,
                "velocity": 51,
                "duration": 0.16590909090909634,
                "tempo": 120.0
            },
            {
                "start_time": 38.93863636363636,
                "end_time": 39.10454545454545,
                "pitch": 24,
                "velocity": 51,
                "duration": 0.16590909090908923,
                "tempo": 120.0
            },
            {
                "start_time": 39.13863636363636,
                "end_time": 39.304545454545455,
                "pitch": 36,
                "velocity": 51,
                "duration": 0.16590909090909634,
                "tempo": 120.0
            },
            {
                "start_time": 39.33863636363636,
                "end_time": 39.51136363636363,
                "pitch": 24,
                "velocity": 51,
                "duration": 0.17272727272727195,
                "tempo": 120.0
            },
            {
                "start_time": 39.54545454545455,
                "end_time": 39.715909090909086,
                "pitch": 36,
                "velocity": 51,
                "duration": 0.17045454545453964,
                "tempo": 120.0
            },
            {
                "start_time": 39.75,
                "end_time": 39.91136363636363,
                "pitch": 24,
                "velocity": 51,
                "duration": 0.1613636363636317,
                "tempo": 120.0
            },
            {
                "start_time": 39.945454545454545,
                "end_time": 40.10909090909091,
                "pitch": 36,
                "velocity": 51,
                "duration": 0.16363636363636402,
                "tempo": 120.0
            },
            {
                "start_time": 40.14090909090909,
                "end_time": 40.309090909090905,
                "pitch": 24,
                "velocity": 51,
                "duration": 0.16818181818181444,
                "tempo": 120.0
            },
            {
                "start_time": 40.340909090909086,
                "end_time": 40.50909090909091,
                "pitch": 36,
                "velocity": 51,
                "duration": 0.16818181818182154,
                "tempo": 120.0
            },
            {
                "start_time": 40.543181818181814,
                "end_time": 40.71363636363636,
                "pitch": 24,
                "velocity": 51,
                "duration": 0.17045454545454675,
                "tempo": 120.0
            },
            {
                "start_time": 40.74772727272727,
                "end_time": 40.918181818181814,
                "pitch": 36,
                "velocity": 51,
                "duration": 0.17045454545454675,
                "tempo": 120.0
            },
            {
                "start_time": 40.95227272727273,
                "end_time": 41.12045454545454,
                "pitch": 24,
                "velocity": 51,
                "duration": 0.16818181818181444,
                "tempo": 120.0
            },
            {
                "start_time": 41.152272727272724,
                "end_time": 41.320454545454545,
                "pitch": 36,
                "velocity": 51,
                "duration": 0.16818181818182154,
                "tempo": 120.0
            },
            {
                "start_time": 41.35227272727273,
                "end_time": 41.51590909090909,
                "pitch": 24,
                "velocity": 51,
                "duration": 0.16363636363636402,
                "tempo": 120.0
            },
            {
                "start_time": 41.54772727272727,
                "end_time": 41.711363636363636,
                "pitch": 36,
                "velocity": 51,
                "duration": 0.16363636363636402,
                "tempo": 120.0
            },
            {
                "start_time": 41.74545454545454,
                "end_time": 41.91136363636363,
                "pitch": 34,
                "velocity": 51,
                "duration": 0.16590909090908923,
                "tempo": 120.0
            },
            {
                "start_time": 41.945454545454545,
                "end_time": 42.111363636363635,
                "pitch": 46,
                "velocity": 51,
                "duration": 0.16590909090908923,
                "tempo": 120.0
            },
            {
                "start_time": 42.14545454545454,
                "end_time": 42.31136363636364,
                "pitch": 34,
                "velocity": 51,
                "duration": 0.16590909090909634,
                "tempo": 120.0
            },
            {
                "start_time": 42.345454545454544,
                "end_time": 42.51136363636363,
                "pitch": 46,
                "velocity": 51,
                "duration": 0.16590909090908923,
                "tempo": 120.0
            },
            {
                "start_time": 42.54545454545455,
                "end_time": 42.715909090909086,
                "pitch": 34,
                "velocity": 51,
                "duration": 0.17045454545453964,
                "tempo": 120.0
            },
            {
                "start_time": 42.75,
                "end_time": 42.92272727272727,
                "pitch": 46,
                "velocity": 51,
                "duration": 0.17272727272727195,
                "tempo": 120.0
            },
            {
                "start_time": 42.95454545454545,
                "end_time": 43.11818181818182,
                "pitch": 34,
                "velocity": 51,
                "duration": 0.16363636363636402,
                "tempo": 120.0
            },
            {
                "start_time": 43.15,
                "end_time": 43.31363636363636,
                "pitch": 46,
                "velocity": 51,
                "duration": 0.16363636363636402,
                "tempo": 120.0
            },
            {
                "start_time": 43.34772727272727,
                "end_time": 43.51363636363636,
                "pitch": 34,
                "velocity": 51,
                "duration": 0.16590909090908923,
                "tempo": 120.0
            },
            {
                "start_time": 43.54772727272727,
                "end_time": 43.71363636363636,
                "pitch": 46,
                "velocity": 51,
                "duration": 0.16590909090908923,
                "tempo": 120.0
            },
            {
                "start_time": 43.74772727272727,
                "end_time": 43.913636363636364,
                "pitch": 34,
                "velocity": 51,
                "duration": 0.16590909090909634,
                "tempo": 120.0
            },
            {
                "start_time": 43.94772727272727,
                "end_time": 44.11363636363636,
                "pitch": 46,
                "velocity": 51,
                "duration": 0.16590909090908923,
                "tempo": 120.0
            },
            {
                "start_time": 44.14772727272727,
                "end_time": 44.320454545454545,
                "pitch": 34,
                "velocity": 51,
                "duration": 0.17272727272727195,
                "tempo": 120.0
            },
            {
                "start_time": 44.35454545454545,
                "end_time": 44.525,
                "pitch": 46,
                "velocity": 51,
                "duration": 0.17045454545454675,
                "tempo": 120.0
            },
            {
                "start_time": 44.55681818181818,
                "end_time": 44.720454545454544,
                "pitch": 34,
                "velocity": 51,
                "duration": 0.16363636363636402,
                "tempo": 120.0
            },
            {
                "start_time": 44.75454545454545,
                "end_time": 44.918181818181814,
                "pitch": 46,
                "velocity": 51,
                "duration": 0.16363636363636402,
                "tempo": 120.0
            },
            {
                "start_time": 44.949999999999996,
                "end_time": 45.11818181818182,
                "pitch": 33,
                "velocity": 51,
                "duration": 0.16818181818182154,
                "tempo": 120.0
            },
            {
                "start_time": 45.15,
                "end_time": 45.31818181818181,
                "pitch": 45,
                "velocity": 51,
                "duration": 0.16818181818181444,
                "tempo": 120.0
            },
            {
                "start_time": 45.349999999999994,
                "end_time": 45.518181818181816,
                "pitch": 33,
                "velocity": 51,
                "duration": 0.16818181818182154,
                "tempo": 120.0
            },
            {
                "start_time": 45.55,
                "end_time": 45.71818181818182,
                "pitch": 45,
                "velocity": 51,
                "duration": 0.16818181818182154,
                "tempo": 120.0
            },
            {
                "start_time": 45.752272727272725,
                "end_time": 45.92272727272727,
                "pitch": 33,
                "velocity": 51,
                "duration": 0.17045454545454675,
                "tempo": 120.0
            },
            {
                "start_time": 45.95681818181818,
                "end_time": 46.127272727272725,
                "pitch": 45,
                "velocity": 51,
                "duration": 0.17045454545454675,
                "tempo": 120.0
            },
            {
                "start_time": 46.16136363636363,
                "end_time": 46.324999999999996,
                "pitch": 33,
                "velocity": 51,
                "duration": 0.16363636363636402,
                "tempo": 120.0
            },
            {
                "start_time": 46.35681818181818,
                "end_time": 46.52045454545454,
                "pitch": 45,
                "velocity": 51,
                "duration": 0.16363636363636402,
                "tempo": 120.0
            },
            {
                "start_time": 46.554545454545455,
                "end_time": 46.720454545454544,
                "pitch": 33,
                "velocity": 51,
                "duration": 0.16590909090908923,
                "tempo": 120.0
            },
            {
                "start_time": 46.75454545454545,
                "end_time": 46.92272727272727,
                "pitch": 45,
                "velocity": 51,
                "duration": 0.16818181818182154,
                "tempo": 120.0
            },
            {
                "start_time": 46.95681818181818,
                "end_time": 47.12272727272727,
                "pitch": 33,
                "velocity": 51,
                "duration": 0.16590909090908923,
                "tempo": 120.0
            },
            {
                "start_time": 47.15681818181818,
                "end_time": 47.32272727272727,
                "pitch": 45,
                "velocity": 51,
                "duration": 0.16590909090908923,
                "tempo": 120.0
            },
            {
                "start_time": 47.35681818181818,
                "end_time": 47.52272727272727,
                "pitch": 33,
                "velocity": 51,
                "duration": 0.16590909090909634,
                "tempo": 120.0
            },
            {
                "start_time": 47.55681818181818,
                "end_time": 47.72272727272727,
                "pitch": 45,
                "velocity": 51,
                "duration": 0.16590909090908923,
                "tempo": 120.0
            },
            {
                "start_time": 47.75681818181818,
                "end_time": 47.92727272727272,
                "pitch": 33,
                "velocity": 51,
                "duration": 0.17045454545453964,
                "tempo": 120.0
            },
            {
                "start_time": 47.961363636363636,
                "end_time": 48.13409090909091,
                "pitch": 45,
                "velocity": 51,
                "duration": 0.17272727272727195,
                "tempo": 120.0
            },
            {
                "start_time": 48.16590909090909,
                "end_time": 48.32954545454545,
                "pitch": 29,
                "velocity": 51,
                "duration": 0.16363636363636402,
                "tempo": 120.0
            },
            {
                "start_time": 48.361363636363635,
                "end_time": 48.525,
                "pitch": 41,
                "velocity": 51,
                "duration": 0.16363636363636402,
                "tempo": 120.0
            },
            {
                "start_time": 48.559090909090905,
                "end_time": 48.72727272727273,
                "pitch": 29,
                "velocity": 51,
                "duration": 0.16818181818182154,
                "tempo": 120.0
            },
            {
                "start_time": 48.76136363636363,
                "end_time": 48.92727272727272,
                "pitch": 41,
                "velocity": 51,
                "duration": 0.16590909090908923,
                "tempo": 120.0
            },
            {
                "start_time": 48.961363636363636,
                "end_time": 49.127272727272725,
                "pitch": 29,
                "velocity": 51,
                "duration": 0.16590909090908923,
                "tempo": 120.0
            },
            {
                "start_time": 49.16136363636363,
                "end_time": 49.32727272727273,
                "pitch": 41,
                "velocity": 51,
                "duration": 0.16590909090909634,
                "tempo": 120.0
            },
            {
                "start_time": 49.361363636363635,
                "end_time": 49.527272727272724,
                "pitch": 29,
                "velocity": 51,
                "duration": 0.16590909090908923,
                "tempo": 120.0
            },
            {
                "start_time": 49.56136363636364,
                "end_time": 49.72727272727273,
                "pitch": 41,
                "velocity": 51,
                "duration": 0.16590909090908923,
                "tempo": 120.0
            },
            {
                "start_time": 49.76136363636363,
                "end_time": 49.92727272727272,
                "pitch": 29,
                "velocity": 51,
                "duration": 0.16590909090908923,
                "tempo": 120.0
            },
            {
                "start_time": 49.961363636363636,
                "end_time": 50.127272727272725,
                "pitch": 41,
                "velocity": 51,
                "duration": 0.16590909090908923,
                "tempo": 120.0
            },
            {
                "start_time": 50.16136363636363,
                "end_time": 50.32727272727273,
                "pitch": 29,
                "velocity": 51,
                "duration": 0.16590909090909634,
                "tempo": 120.0
            },
            {
                "start_time": 50.361363636363635,
                "end_time": 50.527272727272724,
                "pitch": 41,
                "velocity": 51,
                "duration": 0.16590909090908923,
                "tempo": 120.0
            },
            {
                "start_time": 50.56136363636364,
                "end_time": 50.72954545454545,
                "pitch": 29,
                "velocity": 51,
                "duration": 0.16818181818181444,
                "tempo": 120.0
            },
            {
                "start_time": 50.76363636363636,
                "end_time": 50.93181818181818,
                "pitch": 41,
                "velocity": 51,
                "duration": 0.16818181818182154,
                "tempo": 120.0
            },
            {
                "start_time": 50.96363636363636,
                "end_time": 51.13181818181818,
                "pitch": 29,
                "velocity": 51,
                "duration": 0.16818181818182154,
                "tempo": 120.0
            },
            {
                "start_time": 51.163636363636364,
                "end_time": 51.33181818181818,
                "pitch": 41,
                "velocity": 51,
                "duration": 0.16818181818181444,
                "tempo": 120.0
            },
            {
                "start_time": 51.36363636363636,
                "end_time": 51.53181818181818,
                "pitch": 28,
                "velocity": 51,
                "duration": 0.16818181818182154,
                "tempo": 120.0
            },
            {
                "start_time": 51.56363636363636,
                "end_time": 51.73181818181818,
                "pitch": 40,
                "velocity": 51,
                "duration": 0.16818181818181444,
                "tempo": 120.0
            },
            {
                "start_time": 51.76363636363636,
                "end_time": 51.93181818181818,
                "pitch": 28,
                "velocity": 51,
                "duration": 0.16818181818182154,
                "tempo": 120.0
            },
            {
                "start_time": 51.96363636363636,
                "end_time": 52.13181818181818,
                "pitch": 40,
                "velocity": 51,
                "duration": 0.16818181818182154,
                "tempo": 120.0
            },
            {
                "start_time": 52.163636363636364,
                "end_time": 52.33181818181818,
                "pitch": 28,
                "velocity": 51,
                "duration": 0.16818181818181444,
                "tempo": 120.0
            },
            {
                "start_time": 52.36363636363636,
                "end_time": 52.53181818181818,
                "pitch": 40,
                "velocity": 51,
                "duration": 0.16818181818182154,
                "tempo": 120.0
            },
            {
                "start_time": 52.56590909090909,
                "end_time": 52.736363636363635,
                "pitch": 28,
                "velocity": 51,
                "duration": 0.17045454545454675,
                "tempo": 120.0
            },
            {
                "start_time": 52.77045454545454,
                "end_time": 52.94090909090909,
                "pitch": 40,
                "velocity": 51,
                "duration": 0.17045454545454675,
                "tempo": 120.0
            },
            {
                "start_time": 52.974999999999994,
                "end_time": 53.13863636363636,
                "pitch": 28,
                "velocity": 51,
                "duration": 0.16363636363636402,
                "tempo": 120.0
            },
            {
                "start_time": 53.17045454545454,
                "end_time": 53.334090909090904,
                "pitch": 40,
                "velocity": 51,
                "duration": 0.16363636363636402,
                "tempo": 120.0
            },
            {
                "start_time": 53.36818181818182,
                "end_time": 53.538636363636364,
                "pitch": 28,
                "velocity": 51,
                "duration": 0.17045454545454675,
                "tempo": 120.0
            },
            {
                "start_time": 53.57272727272727,
                "end_time": 53.74318181818182,
                "pitch": 40,
                "velocity": 51,
                "duration": 0.17045454545454675,
                "tempo": 120.0
            },
            {
                "start_time": 53.777272727272724,
                "end_time": 53.94090909090909,
                "pitch": 28,
                "velocity": 51,
                "duration": 0.16363636363636402,
                "tempo": 120.0
            },
            {
                "start_time": 53.97272727272727,
                "end_time": 54.13636363636363,
                "pitch": 40,
                "velocity": 51,
                "duration": 0.16363636363636402,
                "tempo": 120.0
            },
            {
                "start_time": 54.17045454545454,
                "end_time": 54.340909090909086,
                "pitch": 28,
                "velocity": 51,
                "duration": 0.17045454545454675,
                "tempo": 120.0
            },
            {
                "start_time": 54.375,
                "end_time": 54.54772727272727,
                "pitch": 40,
                "velocity": 51,
                "duration": 0.17272727272727195,
                "tempo": 120.0
            },
            {
                "start_time": 54.57954545454545,
                "end_time": 54.74318181818182,
                "pitch": 33,
                "velocity": 51,
                "duration": 0.16363636363636402,
                "tempo": 120.0
            },
            {
                "start_time": 54.775,
                "end_time": 54.93863636363636,
                "pitch": 45,
                "velocity": 51,
                "duration": 0.16363636363636402,
                "tempo": 120.0
            },
            {
                "start_time": 54.97272727272727,
                "end_time": 55.13863636363636,
                "pitch": 33,
                "velocity": 51,
                "duration": 0.16590909090908923,
                "tempo": 120.0
            },
            {
                "start_time": 55.17272727272727,
                "end_time": 55.33863636363636,
                "pitch": 45,
                "velocity": 51,
                "duration": 0.16590909090908923,
                "tempo": 120.0
            },
            {
                "start_time": 55.37272727272727,
                "end_time": 55.538636363636364,
                "pitch": 33,
                "velocity": 51,
                "duration": 0.16590909090909634,
                "tempo": 120.0
            },
            {
                "start_time": 55.57272727272727,
                "end_time": 55.73863636363636,
                "pitch": 45,
                "velocity": 51,
                "duration": 0.16590909090908923,
                "tempo": 120.0
            },
            {
                "start_time": 55.77272727272727,
                "end_time": 55.93863636363636,
                "pitch": 33,
                "velocity": 51,
                "duration": 0.16590909090908923,
                "tempo": 120.0
            },
            {
                "start_time": 55.97272727272727,
                "end_time": 56.13863636363636,
                "pitch": 45,
                "velocity": 51,
                "duration": 0.16590909090908923,
                "tempo": 120.0
            },
            {
                "start_time": 56.17272727272727,
                "end_time": 56.33863636363636,
                "pitch": 33,
                "velocity": 51,
                "duration": 0.16590909090908923,
                "tempo": 120.0
            },
            {
                "start_time": 56.37272727272727,
                "end_time": 56.538636363636364,
                "pitch": 45,
                "velocity": 51,
                "duration": 0.16590909090909634,
                "tempo": 120.0
            },
            {
                "start_time": 56.57272727272727,
                "end_time": 56.740909090909085,
                "pitch": 33,
                "velocity": 51,
                "duration": 0.16818181818181444,
                "tempo": 120.0
            },
            {
                "start_time": 56.775,
                "end_time": 56.94090909090909,
                "pitch": 45,
                "velocity": 51,
                "duration": 0.16590909090908923,
                "tempo": 120.0
            },
            {
                "start_time": 56.974999999999994,
                "end_time": 57.14090909090909,
                "pitch": 33,
                "velocity": 51,
                "duration": 0.16590909090909634,
                "tempo": 120.0
            },
            {
                "start_time": 57.175,
                "end_time": 57.340909090909086,
                "pitch": 45,
                "velocity": 51,
                "duration": 0.16590909090908923,
                "tempo": 120.0
            },
            {
                "start_time": 57.375,
                "end_time": 57.54090909090909,
                "pitch": 33,
                "velocity": 51,
                "duration": 0.16590909090908923,
                "tempo": 120.0
            },
            {
                "start_time": 57.574999999999996,
                "end_time": 57.740909090909085,
                "pitch": 45,
                "velocity": 51,
                "duration": 0.16590909090908923,
                "tempo": 120.0
            },
            {
                "start_time": 57.775,
                "end_time": 57.94772727272727,
                "pitch": 26,
                "velocity": 51,
                "duration": 0.17272727272727195,
                "tempo": 120.0
            },
            {
                "start_time": 57.98181818181818,
                "end_time": 58.06590909090909,
                "pitch": 38,
                "velocity": 51,
                "duration": 0.08409090909091077,
                "tempo": 120.0
            },
            {
                "start_time": 58.06590909090909,
                "end_time": 58.152272727272724,
                "pitch": 38,
                "velocity": 51,
                "duration": 0.08636363636363598,
                "tempo": 120.0
            },
            {
                "start_time": 58.184090909090905,
                "end_time": 58.34772727272727,
                "pitch": 26,
                "velocity": 51,
                "duration": 0.16363636363636402,
                "tempo": 120.0
            },
            {
                "start_time": 58.381818181818176,
                "end_time": 58.46363636363636,
                "pitch": 38,
                "velocity": 51,
                "duration": 0.08181818181818556,
                "tempo": 120.0
            },
            {
                "start_time": 58.46363636363636,
                "end_time": 58.54545454545454,
                "pitch": 38,
                "velocity": 51,
                "duration": 0.08181818181817846,
                "tempo": 120.0
            },
            {
                "start_time": 58.57727272727272,
                "end_time": 58.74545454545454,
                "pitch": 26,
                "velocity": 51,
                "duration": 0.16818181818182154,
                "tempo": 120.0
            },
            {
                "start_time": 58.77954545454545,
                "end_time": 58.86363636363636,
                "pitch": 38,
                "velocity": 51,
                "duration": 0.08409090909091077,
                "tempo": 120.0
            },
            {
                "start_time": 58.86363636363636,
                "end_time": 58.94772727272727,
                "pitch": 38,
                "velocity": 51,
                "duration": 0.08409090909091077,
                "tempo": 120.0
            },
            {
                "start_time": 58.97954545454545,
                "end_time": 59.14772727272727,
                "pitch": 26,
                "velocity": 51,
                "duration": 0.16818181818182154,
                "tempo": 120.0
            },
            {
                "start_time": 59.179545454545455,
                "end_time": 59.26363636363636,
                "pitch": 38,
                "velocity": 51,
                "duration": 0.08409090909090366,
                "tempo": 120.0
            },
            {
                "start_time": 59.26363636363636,
                "end_time": 59.34772727272727,
                "pitch": 38,
                "velocity": 51,
                "duration": 0.08409090909091077,
                "tempo": 120.0
            },
            {
                "start_time": 59.37954545454545,
                "end_time": 59.54772727272727,
                "pitch": 26,
                "velocity": 51,
                "duration": 0.16818181818182154,
                "tempo": 120.0
            },
            {
                "start_time": 59.57954545454545,
                "end_time": 59.663636363636364,
                "pitch": 38,
                "velocity": 51,
                "duration": 0.08409090909091077,
                "tempo": 120.0
            },
            {
                "start_time": 59.663636363636364,
                "end_time": 59.74772727272727,
                "pitch": 38,
                "velocity": 51,
                "duration": 0.08409090909090366,
                "tempo": 120.0
            },
            {
                "start_time": 59.77954545454545,
                "end_time": 59.94772727272727,
                "pitch": 26,
                "velocity": 51,
                "duration": 0.16818181818182154,
                "tempo": 120.0
            },
            {
                "start_time": 59.97954545454545,
                "end_time": 60.06363636363636,
                "pitch": 38,
                "velocity": 51,
                "duration": 0.08409090909091077,
                "tempo": 120.0
            },
            {
                "start_time": 60.06363636363636,
                "end_time": 60.147727272727266,
                "pitch": 38,
                "velocity": 51,
                "duration": 0.08409090909090366,
                "tempo": 120.0
            },
            {
                "start_time": 60.179545454545455,
                "end_time": 60.34772727272727,
                "pitch": 26,
                "velocity": 51,
                "duration": 0.16818181818181444,
                "tempo": 120.0
            },
            {
                "start_time": 60.37954545454545,
                "end_time": 60.46363636363636,
                "pitch": 38,
                "velocity": 51,
                "duration": 0.08409090909091077,
                "tempo": 120.0
            },
            {
                "start_time": 60.46363636363636,
                "end_time": 60.54772727272727,
                "pitch": 38,
                "velocity": 51,
                "duration": 0.08409090909091077,
                "tempo": 120.0
            },
            {
                "start_time": 60.58181818181818,
                "end_time": 60.74772727272727,
                "pitch": 26,
                "velocity": 51,
                "duration": 0.16590909090908923,
                "tempo": 120.0
            },
            {
                "start_time": 60.78181818181818,
                "end_time": 60.865909090909085,
                "pitch": 38,
                "velocity": 51,
                "duration": 0.08409090909090366,
                "tempo": 120.0
            },
            {
                "start_time": 60.865909090909085,
                "end_time": 60.949999999999996,
                "pitch": 38,
                "velocity": 51,
                "duration": 0.08409090909091077,
                "tempo": 120.0
            },
            {
                "start_time": 60.98409090909091,
                "end_time": 61.15,
                "pitch": 29,
                "velocity": 51,
                "duration": 0.16590909090908923,
                "tempo": 120.0
            },
            {
                "start_time": 61.184090909090905,
                "end_time": 61.349999999999994,
                "pitch": 41,
                "velocity": 51,
                "duration": 0.16590909090908923,
                "tempo": 120.0
            },
            {
                "start_time": 61.38409090909091,
                "end_time": 61.55,
                "pitch": 29,
                "velocity": 51,
                "duration": 0.16590909090908923,
                "tempo": 120.0
            },
            {
                "start_time": 61.584090909090904,
                "end_time": 61.75,
                "pitch": 41,
                "velocity": 51,
                "duration": 0.16590909090909634,
                "tempo": 120.0
            },
            {
                "start_time": 61.78409090909091,
                "end_time": 61.949999999999996,
                "pitch": 29,
                "velocity": 51,
                "duration": 0.16590909090908923,
                "tempo": 120.0
            },
            {
                "start_time": 61.98409090909091,
                "end_time": 62.15,
                "pitch": 41,
                "velocity": 51,
                "duration": 0.16590909090908923,
                "tempo": 120.0
            },
            {
                "start_time": 62.184090909090905,
                "end_time": 62.35454545454545,
                "pitch": 29,
                "velocity": 51,
                "duration": 0.17045454545454675,
                "tempo": 120.0
            },
            {
                "start_time": 62.38863636363636,
                "end_time": 62.56136363636363,
                "pitch": 41,
                "velocity": 51,
                "duration": 0.17272727272727195,
                "tempo": 120.0
            },
            {
                "start_time": 62.59318181818181,
                "end_time": 62.756818181818176,
                "pitch": 29,
                "velocity": 51,
                "duration": 0.16363636363636402,
                "tempo": 120.0
            },
            {
                "start_time": 62.788636363636364,
                "end_time": 62.95227272727272,
                "pitch": 41,
                "velocity": 51,
                "duration": 0.16363636363635692,
                "tempo": 120.0
            },
            {
                "start_time": 62.986363636363635,
                "end_time": 63.152272727272724,
                "pitch": 29,
                "velocity": 51,
                "duration": 0.16590909090908923,
                "tempo": 120.0
            },
            {
                "start_time": 63.18636363636363,
                "end_time": 63.35227272727273,
                "pitch": 41,
                "velocity": 51,
                "duration": 0.16590909090909634,
                "tempo": 120.0
            },
            {
                "start_time": 63.38636363636363,
                "end_time": 63.55227272727272,
                "pitch": 29,
                "velocity": 51,
                "duration": 0.16590909090908923,
                "tempo": 120.0
            },
            {
                "start_time": 63.586363636363636,
                "end_time": 63.752272727272725,
                "pitch": 41,
                "velocity": 51,
                "duration": 0.16590909090908923,
                "tempo": 120.0
            },
            {
                "start_time": 63.78636363636363,
                "end_time": 63.959090909090904,
                "pitch": 29,
                "velocity": 51,
                "duration": 0.17272727272727195,
                "tempo": 120.0
            },
            {
                "start_time": 63.99318181818182,
                "end_time": 64.16363636363636,
                "pitch": 41,
                "velocity": 51,
                "duration": 0.17045454545453964,
                "tempo": 120.0
            },
            {
                "start_time": 64.19545454545454,
                "end_time": 64.35909090909091,
                "pitch": 28,
                "velocity": 51,
                "duration": 0.16363636363637113,
                "tempo": 120.0
            },
            {
                "start_time": 64.39318181818182,
                "end_time": 64.55681818181817,
                "pitch": 40,
                "velocity": 51,
                "duration": 0.16363636363635692,
                "tempo": 120.0
            },
            {
                "start_time": 64.58863636363635,
                "end_time": 64.75681818181818,
                "pitch": 28,
                "velocity": 51,
                "duration": 0.16818181818182154,
                "tempo": 120.0
            },
            {
                "start_time": 64.78863636363636,
                "end_time": 64.95681818181818,
                "pitch": 40,
                "velocity": 51,
                "duration": 0.16818181818182154,
                "tempo": 120.0
            },
            {
                "start_time": 64.98863636363636,
                "end_time": 65.15681818181818,
                "pitch": 28,
                "velocity": 51,
                "duration": 0.16818181818182154,
                "tempo": 120.0
            },
            {
                "start_time": 65.19090909090909,
                "end_time": 65.35909090909091,
                "pitch": 40,
                "velocity": 51,
                "duration": 0.16818181818182154,
                "tempo": 120.0
            },
            {
                "start_time": 65.39090909090909,
                "end_time": 65.55909090909091,
                "pitch": 28,
                "velocity": 51,
                "duration": 0.16818181818182154,
                "tempo": 120.0
            },
            {
                "start_time": 65.59318181818182,
                "end_time": 65.76136363636364,
                "pitch": 40,
                "velocity": 51,
                "duration": 0.16818181818182154,
                "tempo": 120.0
            },
            {
                "start_time": 65.79545454545455,
                "end_time": 65.96136363636363,
                "pitch": 28,
                "velocity": 51,
                "duration": 0.16590909090908212,
                "tempo": 120.0
            },
            {
                "start_time": 65.99545454545454,
                "end_time": 66.16136363636363,
                "pitch": 40,
                "velocity": 51,
                "duration": 0.16590909090909634,
                "tempo": 120.0
            },
            {
                "start_time": 66.19545454545454,
                "end_time": 66.36136363636363,
                "pitch": 28,
                "velocity": 51,
                "duration": 0.16590909090909634,
                "tempo": 120.0
            },
            {
                "start_time": 66.39545454545454,
                "end_time": 66.56363636363636,
                "pitch": 40,
                "velocity": 51,
                "duration": 0.16818181818182154,
                "tempo": 120.0
            },
            {
                "start_time": 66.59772727272727,
                "end_time": 66.76363636363637,
                "pitch": 28,
                "velocity": 51,
                "duration": 0.16590909090909634,
                "tempo": 120.0
            },
            {
                "start_time": 66.79772727272727,
                "end_time": 66.96363636363635,
                "pitch": 40,
                "velocity": 51,
                "duration": 0.16590909090908212,
                "tempo": 120.0
            },
            {
                "start_time": 66.99772727272727,
                "end_time": 67.16590909090908,
                "pitch": 28,
                "velocity": 51,
                "duration": 0.16818181818180733,
                "tempo": 120.0
            },
            {
                "start_time": 67.19772727272726,
                "end_time": 67.36590909090908,
                "pitch": 40,
                "velocity": 51,
                "duration": 0.16818181818182154,
                "tempo": 120.0
            },
            {
                "start_time": 67.39999999999999,
                "end_time": 67.56818181818181,
                "pitch": 33,
                "velocity": 51,
                "duration": 0.16818181818182154,
                "tempo": 120.0
            },
            {
                "start_time": 67.60227272727272,
                "end_time": 67.76818181818182,
                "pitch": 45,
                "velocity": 51,
                "duration": 0.16590909090909634,
                "tempo": 120.0
            },
            {
                "start_time": 67.80227272727272,
                "end_time": 67.96818181818182,
                "pitch": 33,
                "velocity": 51,
                "duration": 0.16590909090909634,
                "tempo": 120.0
            },
            {
                "start_time": 68.00227272727273,
                "end_time": 68.16818181818182,
                "pitch": 45,
                "velocity": 51,
                "duration": 0.16590909090909634,
                "tempo": 120.0
            },
            {
                "start_time": 68.20227272727273,
                "end_time": 68.37045454545454,
                "pitch": 33,
                "velocity": 51,
                "duration": 0.16818181818180733,
                "tempo": 120.0
            },
            {
                "start_time": 68.40454545454546,
                "end_time": 68.57272727272726,
                "pitch": 45,
                "velocity": 51,
                "duration": 0.16818181818180733,
                "tempo": 120.0
            },
            {
                "start_time": 68.60454545454544,
                "end_time": 68.77272727272727,
                "pitch": 33,
                "velocity": 51,
                "duration": 0.16818181818182154,
                "tempo": 120.0
            },
            {
                "start_time": 68.80454545454545,
                "end_time": 68.97272727272727,
                "pitch": 45,
                "velocity": 51,
                "duration": 0.16818181818182154,
                "tempo": 120.0
            },
            {
                "start_time": 69.00454545454545,
                "end_time": 69.17272727272727,
                "pitch": 33,
                "velocity": 51,
                "duration": 0.16818181818182154,
                "tempo": 120.0
            },
            {
                "start_time": 69.20681818181818,
                "end_time": 69.375,
                "pitch": 45,
                "velocity": 51,
                "duration": 0.16818181818182154,
                "tempo": 120.0
            },
            {
                "start_time": 69.4090909090909,
                "end_time": 69.575,
                "pitch": 33,
                "velocity": 51,
                "duration": 0.16590909090909634,
                "tempo": 120.0
            },
            {
                "start_time": 69.60909090909091,
                "end_time": 69.77727272727273,
                "pitch": 45,
                "velocity": 51,
                "duration": 0.16818181818182154,
                "tempo": 120.0
            },
            {
                "start_time": 69.81136363636364,
                "end_time": 69.97727272727272,
                "pitch": 33,
                "velocity": 51,
                "duration": 0.16590909090908212,
                "tempo": 120.0
            },
            {
                "start_time": 70.01136363636363,
                "end_time": 70.17727272727272,
                "pitch": 45,
                "velocity": 51,
                "duration": 0.16590909090909634,
                "tempo": 120.0
            },
            {
                "start_time": 70.21136363636363,
                "end_time": 70.38181818181818,
                "pitch": 33,
                "velocity": 51,
                "duration": 0.17045454545454675,
                "tempo": 120.0
            },
            {
                "start_time": 70.41590909090908,
                "end_time": 70.58863636363635,
                "pitch": 45,
                "velocity": 51,
                "duration": 0.17272727272727195,
                "tempo": 120.0
            },
            {
                "start_time": 70.62272727272727,
                "end_time": 70.78863636363636,
                "pitch": 26,
                "velocity": 51,
                "duration": 0.16590909090908212,
                "tempo": 120.0
            },
            {
                "start_time": 70.82272727272726,
                "end_time": 70.90681818181818,
                "pitch": 38,
                "velocity": 51,
                "duration": 0.08409090909091788,
                "tempo": 120.0
            },
            {
                "start_time": 70.90681818181818,
                "end_time": 70.99090909090908,
                "pitch": 38,
                "velocity": 51,
                "duration": 0.08409090909090366,
                "tempo": 120.0
            },
            {
                "start_time": 71.02499999999999,
                "end_time": 71.19318181818181,
                "pitch": 26,
                "velocity": 51,
                "duration": 0.16818181818182154,
                "tempo": 120.0
            },
            {
                "start_time": 71.225,
                "end_time": 71.30909090909091,
                "pitch": 38,
                "velocity": 51,
                "duration": 0.08409090909091788,
                "tempo": 120.0
            },
            {
                "start_time": 71.30909090909091,
                "end_time": 71.39318181818182,
                "pitch": 38,
                "velocity": 51,
                "duration": 0.08409090909090366,
                "tempo": 120.0
            },
            {
                "start_time": 71.425,
                "end_time": 71.58863636363635,
                "pitch": 26,
                "velocity": 51,
                "duration": 0.16363636363635692,
                "tempo": 120.0
            },
            {
                "start_time": 71.62272727272727,
                "end_time": 71.70454545454545,
                "pitch": 38,
                "velocity": 51,
                "duration": 0.08181818181817846,
                "tempo": 120.0
            },
            {
                "start_time": 71.70454545454545,
                "end_time": 71.78636363636363,
                "pitch": 38,
                "velocity": 51,
                "duration": 0.08181818181817846,
                "tempo": 120.0
            },
            {
                "start_time": 71.82045454545454,
                "end_time": 71.99090909090908,
                "pitch": 26,
                "velocity": 51,
                "duration": 0.17045454545454675,
                "tempo": 120.0
            },
            {
                "start_time": 72.02499999999999,
                "end_time": 72.11136363636363,
                "pitch": 38,
                "velocity": 51,
                "duration": 0.08636363636364308,
                "tempo": 120.0
            },
            {
                "start_time": 72.11136363636363,
                "end_time": 72.19545454545454,
                "pitch": 38,
                "velocity": 51,
                "duration": 0.08409090909090366,
                "tempo": 120.0
            },
            {
                "start_time": 72.22954545454544,
                "end_time": 72.39318181818182,
                "pitch": 26,
                "velocity": 51,
                "duration": 0.16363636363637113,
                "tempo": 120.0
            },
            {
                "start_time": 72.425,
                "end_time": 72.50681818181818,
                "pitch": 38,
                "velocity": 51,
                "duration": 0.08181818181817846,
                "tempo": 120.0
            },
            {
                "start_time": 72.50681818181818,
                "end_time": 72.58863636363635,
                "pitch": 38,
                "velocity": 51,
                "duration": 0.08181818181817846,
                "tempo": 120.0
            },
            {
                "start_time": 72.62045454545454,
                "end_time": 72.78863636363636,
                "pitch": 26,
                "velocity": 51,
                "duration": 0.16818181818182154,
                "tempo": 120.0
            },
            {
                "start_time": 72.82045454545454,
                "end_time": 72.90454545454546,
                "pitch": 38,
                "velocity": 51,
                "duration": 0.08409090909091788,
                "tempo": 120.0
            },
            {
                "start_time": 72.90454545454546,
                "end_time": 72.98863636363636,
                "pitch": 38,
                "velocity": 51,
                "duration": 0.08409090909090366,
                "tempo": 120.0
            },
            {
                "start_time": 73.02272727272727,
                "end_time": 73.18863636363636,
                "pitch": 26,
                "velocity": 51,
                "duration": 0.16590909090909634,
                "tempo": 120.0
            },
            {
                "start_time": 73.22272727272727,
                "end_time": 73.30681818181817,
                "pitch": 38,
                "velocity": 51,
                "duration": 0.08409090909090366,
                "tempo": 120.0
            },
            {
                "start_time": 73.30681818181817,
                "end_time": 73.39090909090909,
                "pitch": 38,
                "velocity": 51,
                "duration": 0.08409090909091788,
                "tempo": 120.0
            },
            {
                "start_time": 73.425,
                "end_time": 73.59318181818182,
                "pitch": 26,
                "velocity": 51,
                "duration": 0.16818181818182154,
                "tempo": 120.0
            },
            {
                "start_time": 73.625,
                "end_time": 73.7090909090909,
                "pitch": 38,
                "velocity": 51,
                "duration": 0.08409090909090366,
                "tempo": 120.0
            },
            {
                "start_time": 73.7090909090909,
                "end_time": 73.79318181818182,
                "pitch": 38,
                "velocity": 51,
                "duration": 0.08409090909091788,
                "tempo": 120.0
            },
            {
                "start_time": 73.82727272727273,
                "end_time": 73.99318181818181,
                "pitch": 29,
                "velocity": 51,
                "duration": 0.16590909090908212,
                "tempo": 120.0
            },
            {
                "start_time": 74.02727272727272,
                "end_time": 74.19318181818181,
                "pitch": 41,
                "velocity": 51,
                "duration": 0.16590909090909634,
                "tempo": 120.0
            },
            {
                "start_time": 74.22727272727272,
                "end_time": 74.39545454545454,
                "pitch": 29,
                "velocity": 51,
                "duration": 0.16818181818182154,
                "tempo": 120.0
            },
            {
                "start_time": 74.42954545454545,
                "end_time": 74.59545454545454,
                "pitch": 41,
                "velocity": 51,
                "duration": 0.16590909090909634,
                "tempo": 120.0
            },
            {
                "start_time": 74.62954545454545,
                "end_time": 74.79545454545455,
                "pitch": 29,
                "velocity": 51,
                "duration": 0.16590909090909634,
                "tempo": 120.0
            },
            {
                "start_time": 74.82954545454545,
                "end_time": 74.99545454545454,
                "pitch": 41,
                "velocity": 51,
                "duration": 0.16590909090908212,
                "tempo": 120.0
            },
            {
                "start_time": 75.02954545454546,
                "end_time": 75.19772727272726,
                "pitch": 29,
                "velocity": 51,
                "duration": 0.16818181818180733,
                "tempo": 120.0
            },
            {
                "start_time": 75.23181818181818,
                "end_time": 75.39999999999999,
                "pitch": 41,
                "velocity": 51,
                "duration": 0.16818181818180733,
                "tempo": 120.0
            },
            {
                "start_time": 75.43181818181817,
                "end_time": 75.6,
                "pitch": 31,
                "velocity": 51,
                "duration": 0.16818181818182154,
                "tempo": 120.0
            },
            {
                "start_time": 75.6340909090909,
                "end_time": 75.80227272727272,
                "pitch": 43,
                "velocity": 51,
                "duration": 0.16818181818182154,
                "tempo": 120.0
            },
            {
                "start_time": 75.8340909090909,
                "end_time": 76.00227272727273,
                "pitch": 32,
                "velocity": 51,
                "duration": 0.16818181818182154,
                "tempo": 120.0
            },
            {
                "start_time": 76.0340909090909,
                "end_time": 76.20227272727273,
                "pitch": 44,
                "velocity": 51,
                "duration": 0.16818181818182154,
                "tempo": 120.0
            },
            {
                "start_time": 76.23636363636363,
                "end_time": 76.40227272727272,
                "pitch": 33,
                "velocity": 51,
                "duration": 0.16590909090908212,
                "tempo": 120.0
            },
            {
                "start_time": 76.43636363636364,
                "end_time": 76.60454545454544,
                "pitch": 45,
                "velocity": 51,
                "duration": 0.16818181818180733,
                "tempo": 120.0
            },
            {
                "start_time": 76.63863636363637,
                "end_time": 76.80454545454545,
                "pitch": 35,
                "velocity": 51,
                "duration": 0.16590909090908212,
                "tempo": 120.0
            },
            {
                "start_time": 76.83863636363635,
                "end_time": 77.00454545454545,
                "pitch": 47,
                "velocity": 51,
                "duration": 0.16590909090909634,
                "tempo": 120.0
            },
            {
                "start_time": 77.03863636363636,
                "end_time": 77.20681818181818,
                "pitch": 24,
                "velocity": 51,
                "duration": 0.16818181818182154,
                "tempo": 120.0
            },
            {
                "start_time": 77.23863636363636,
                "end_time": 77.40681818181818,
                "pitch": 36,
                "velocity": 51,
                "duration": 0.16818181818182154,
                "tempo": 120.0
            },
            {
                "start_time": 77.44090909090909,
                "end_time": 77.61136363636363,
                "pitch": 24,
                "velocity": 51,
                "duration": 0.17045454545454675,
                "tempo": 120.0
            },
            {
                "start_time": 77.64772727272727,
                "end_time": 77.81818181818181,
                "pitch": 36,
                "velocity": 51,
                "duration": 0.17045454545454675,
                "tempo": 120.0
            },
            {
                "start_time": 77.85227272727272,
                "end_time": 78.02045454545454,
                "pitch": 24,
                "velocity": 51,
                "duration": 0.16818181818182154,
                "tempo": 120.0
            },
            {
                "start_time": 78.05227272727272,
                "end_time": 78.22045454545454,
                "pitch": 36,
                "velocity": 51,
                "duration": 0.16818181818182154,
                "tempo": 120.0
            },
            {
                "start_time": 78.25227272727273,
                "end_time": 78.41590909090908,
                "pitch": 24,
                "velocity": 51,
                "duration": 0.16363636363635692,
                "tempo": 120.0
            },
            {
                "start_time": 78.45,
                "end_time": 78.61363636363636,
                "pitch": 36,
                "velocity": 51,
                "duration": 0.16363636363635692,
                "tempo": 120.0
            },
            {
                "start_time": 78.64545454545454,
                "end_time": 78.81363636363636,
                "pitch": 24,
                "velocity": 51,
                "duration": 0.16818181818182154,
                "tempo": 120.0
            },
            {
                "start_time": 78.84545454545454,
                "end_time": 79.01363636363637,
                "pitch": 36,
                "velocity": 51,
                "duration": 0.16818181818182154,
                "tempo": 120.0
            },
            {
                "start_time": 79.04772727272727,
                "end_time": 79.21818181818182,
                "pitch": 24,
                "velocity": 51,
                "duration": 0.17045454545454675,
                "tempo": 120.0
            },
            {
                "start_time": 79.25227272727273,
                "end_time": 79.42272727272727,
                "pitch": 36,
                "velocity": 51,
                "duration": 0.17045454545454675,
                "tempo": 120.0
            },
            {
                "start_time": 79.45681818181818,
                "end_time": 79.62045454545454,
                "pitch": 24,
                "velocity": 51,
                "duration": 0.16363636363635692,
                "tempo": 120.0
            },
            {
                "start_time": 79.65227272727272,
                "end_time": 79.81590909090909,
                "pitch": 36,
                "velocity": 51,
                "duration": 0.16363636363637113,
                "tempo": 120.0
            },
            {
                "start_time": 79.85,
                "end_time": 80.01590909090909,
                "pitch": 24,
                "velocity": 51,
                "duration": 0.16590909090909634,
                "tempo": 120.0
            },
            {
                "start_time": 80.05,
                "end_time": 80.2159090909091,
                "pitch": 36,
                "velocity": 51,
                "duration": 0.16590909090909634,
                "tempo": 120.0
            },
            {
                "start_time": 80.25,
                "end_time": 80.41818181818181,
                "pitch": 34,
                "velocity": 51,
                "duration": 0.16818181818180733,
                "tempo": 120.0
            },
            {
                "start_time": 80.45,
                "end_time": 80.61818181818181,
                "pitch": 46,
                "velocity": 51,
                "duration": 0.16818181818180733,
                "tempo": 120.0
            },
            {
                "start_time": 80.65227272727272,
                "end_time": 80.81818181818181,
                "pitch": 34,
                "velocity": 51,
                "duration": 0.16590909090909634,
                "tempo": 120.0
            },
            {
                "start_time": 80.85227272727272,
                "end_time": 81.01818181818182,
                "pitch": 46,
                "velocity": 51,
                "duration": 0.16590909090909634,
                "tempo": 120.0
            },
            {
                "start_time": 81.05227272727272,
                "end_time": 81.22045454545454,
                "pitch": 34,
                "velocity": 51,
                "duration": 0.16818181818182154,
                "tempo": 120.0
            },
            {
                "start_time": 81.25227272727273,
                "end_time": 81.42045454545455,
                "pitch": 46,
                "velocity": 51,
                "duration": 0.16818181818182154,
                "tempo": 120.0
            },
            {
                "start_time": 81.45454545454545,
                "end_time": 81.62727272727273,
                "pitch": 34,
                "velocity": 51,
                "duration": 0.17272727272727195,
                "tempo": 120.0
            },
            {
                "start_time": 81.66136363636363,
                "end_time": 81.83181818181818,
                "pitch": 46,
                "velocity": 51,
                "duration": 0.17045454545454675,
                "tempo": 120.0
            },
            {
                "start_time": 81.86363636363636,
                "end_time": 82.02727272727272,
                "pitch": 34,
                "velocity": 51,
                "duration": 0.16363636363635692,
                "tempo": 120.0
            },
            {
                "start_time": 82.06136363636364,
                "end_time": 82.225,
                "pitch": 46,
                "velocity": 51,
                "duration": 0.16363636363635692,
                "tempo": 120.0
            },
            {
                "start_time": 82.25681818181818,
                "end_time": 82.425,
                "pitch": 34,
                "velocity": 51,
                "duration": 0.16818181818182154,
                "tempo": 120.0
            },
            {
                "start_time": 82.4590909090909,
                "end_time": 82.62727272727273,
                "pitch": 46,
                "velocity": 51,
                "duration": 0.16818181818182154,
                "tempo": 120.0
            },
            {
                "start_time": 82.66136363636363,
                "end_time": 82.83181818181818,
                "pitch": 34,
                "velocity": 51,
                "duration": 0.17045454545454675,
                "tempo": 120.0
            },
            {
                "start_time": 82.86590909090908,
                "end_time": 83.03636363636363,
                "pitch": 46,
                "velocity": 51,
                "duration": 0.17045454545454675,
                "tempo": 120.0
            },
            {
                "start_time": 83.07045454545454,
                "end_time": 83.23409090909091,
                "pitch": 34,
                "velocity": 51,
                "duration": 0.16363636363637113,
                "tempo": 120.0
            },
            {
                "start_time": 83.26590909090909,
                "end_time": 83.42954545454545,
                "pitch": 46,
                "velocity": 51,
                "duration": 0.16363636363635692,
                "tempo": 120.0
            },
            {
                "start_time": 83.46363636363635,
                "end_time": 83.63181818181818,
                "pitch": 33,
                "velocity": 51,
                "duration": 0.16818181818182154,
                "tempo": 120.0
            },
            {
                "start_time": 83.66363636363636,
                "end_time": 83.83181818181818,
                "pitch": 45,
                "velocity": 51,
                "duration": 0.16818181818182154,
                "tempo": 120.0
            },
            {
                "start_time": 83.86590909090908,
                "end_time": 84.03181818181818,
                "pitch": 33,
                "velocity": 51,
                "duration": 0.16590909090909634,
                "tempo": 120.0
            },
            {
                "start_time": 84.06590909090909,
                "end_time": 84.23181818181818,
                "pitch": 45,
                "velocity": 51,
                "duration": 0.16590909090909634,
                "tempo": 120.0
            },
            {
                "start_time": 84.26590909090909,
                "end_time": 84.4340909090909,
                "pitch": 33,
                "velocity": 51,
                "duration": 0.16818181818180733,
                "tempo": 120.0
            },
            {
                "start_time": 84.46818181818182,
                "end_time": 84.6340909090909,
                "pitch": 45,
                "velocity": 51,
                "duration": 0.16590909090908212,
                "tempo": 120.0
            },
            {
                "start_time": 84.66818181818181,
                "end_time": 84.8409090909091,
                "pitch": 33,
                "velocity": 51,
                "duration": 0.17272727272728616,
                "tempo": 120.0
            },
            {
                "start_time": 84.875,
                "end_time": 85.04545454545455,
                "pitch": 45,
                "velocity": 51,
                "duration": 0.17045454545454675,
                "tempo": 120.0
            },
            {
                "start_time": 85.07727272727273,
                "end_time": 85.24090909090908,
                "pitch": 33,
                "velocity": 51,
                "duration": 0.16363636363635692,
                "tempo": 120.0
            },
            {
                "start_time": 85.27499999999999,
                "end_time": 85.43863636363636,
                "pitch": 45,
                "velocity": 51,
                "duration": 0.16363636363637113,
                "tempo": 120.0
            },
            {
                "start_time": 85.47045454545454,
                "end_time": 85.63863636363637,
                "pitch": 33,
                "velocity": 51,
                "duration": 0.16818181818182154,
                "tempo": 120.0
            },
            {
                "start_time": 85.67272727272727,
                "end_time": 85.8409090909091,
                "pitch": 45,
                "velocity": 51,
                "duration": 0.16818181818182154,
                "tempo": 120.0
            },
            {
                "start_time": 85.87272727272727,
                "end_time": 86.04090909090908,
                "pitch": 33,
                "velocity": 51,
                "duration": 0.16818181818180733,
                "tempo": 120.0
            },
            {
                "start_time": 86.07272727272726,
                "end_time": 86.24090909090908,
                "pitch": 45,
                "velocity": 51,
                "duration": 0.16818181818182154,
                "tempo": 120.0
            },
            {
                "start_time": 86.27499999999999,
                "end_time": 86.44545454545454,
                "pitch": 33,
                "velocity": 51,
                "duration": 0.17045454545454675,
                "tempo": 120.0
            },
            {
                "start_time": 86.47954545454544,
                "end_time": 86.65227272727272,
                "pitch": 45,
                "velocity": 51,
                "duration": 0.17272727272727195,
                "tempo": 120.0
            },
            {
                "start_time": 86.6840909090909,
                "end_time": 86.84772727272727,
                "pitch": 29,
                "velocity": 51,
                "duration": 0.16363636363637113,
                "tempo": 120.0
            },
            {
                "start_time": 86.87954545454545,
                "end_time": 87.04318181818181,
                "pitch": 41,
                "velocity": 51,
                "duration": 0.16363636363635692,
                "tempo": 120.0
            },
            {
                "start_time": 87.07727272727273,
                "end_time": 87.24545454545454,
                "pitch": 29,
                "velocity": 51,
                "duration": 0.16818181818180733,
                "tempo": 120.0
            },
            {
                "start_time": 87.27727272727272,
                "end_time": 87.44545454545454,
                "pitch": 41,
                "velocity": 51,
                "duration": 0.16818181818182154,
                "tempo": 120.0
            },
            {
                "start_time": 87.47954545454544,
                "end_time": 87.64772727272727,
                "pitch": 29,
                "velocity": 51,
                "duration": 0.16818181818182154,
                "tempo": 120.0
            },
            {
                "start_time": 87.68181818181817,
                "end_time": 87.84772727272727,
                "pitch": 41,
                "velocity": 51,
                "duration": 0.16590909090909634,
                "tempo": 120.0
            },
            {
                "start_time": 87.88181818181818,
                "end_time": 88.04772727272727,
                "pitch": 29,
                "velocity": 51,
                "duration": 0.16590909090909634,
                "tempo": 120.0
            },
            {
                "start_time": 88.08181818181818,
                "end_time": 88.24772727272727,
                "pitch": 41,
                "velocity": 51,
                "duration": 0.16590909090909634,
                "tempo": 120.0
            },
            {
                "start_time": 88.28181818181818,
                "end_time": 88.44999999999999,
                "pitch": 29,
                "velocity": 51,
                "duration": 0.16818181818180733,
                "tempo": 120.0
            },
            {
                "start_time": 88.48409090909091,
                "end_time": 88.65227272727272,
                "pitch": 41,
                "velocity": 51,
                "duration": 0.16818181818180733,
                "tempo": 120.0
            },
            {
                "start_time": 88.6840909090909,
                "end_time": 88.85227272727272,
                "pitch": 29,
                "velocity": 51,
                "duration": 0.16818181818182154,
                "tempo": 120.0
            },
            {
                "start_time": 88.8840909090909,
                "end_time": 89.05227272727272,
                "pitch": 41,
                "velocity": 51,
                "duration": 0.16818181818182154,
                "tempo": 120.0
            },
            {
                "start_time": 89.0840909090909,
                "end_time": 89.25227272727273,
                "pitch": 29,
                "velocity": 51,
                "duration": 0.16818181818182154,
                "tempo": 120.0
            },
            {
                "start_time": 89.28636363636363,
                "end_time": 89.45454545454545,
                "pitch": 41,
                "velocity": 51,
                "duration": 0.16818181818182154,
                "tempo": 120.0
            },
            {
                "start_time": 89.48863636363636,
                "end_time": 89.65454545454546,
                "pitch": 29,
                "velocity": 51,
                "duration": 0.16590909090909634,
                "tempo": 120.0
            },
            {
                "start_time": 89.68863636363636,
                "end_time": 89.85681818181818,
                "pitch": 41,
                "velocity": 51,
                "duration": 0.16818181818182154,
                "tempo": 120.0
            },
            {
                "start_time": 89.89090909090909,
                "end_time": 90.05681818181817,
                "pitch": 24,
                "velocity": 51,
                "duration": 0.16590909090908212,
                "tempo": 120.0
            },
            {
                "start_time": 90.0909090909091,
                "end_time": 90.25681818181818,
                "pitch": 36,
                "velocity": 51,
                "duration": 0.16590909090908212,
                "tempo": 120.0
            },
            {
                "start_time": 90.29090909090908,
                "end_time": 90.4590909090909,
                "pitch": 24,
                "velocity": 51,
                "duration": 0.16818181818182154,
                "tempo": 120.0
            },
            {
                "start_time": 90.49090909090908,
                "end_time": 90.6590909090909,
                "pitch": 36,
                "velocity": 51,
                "duration": 0.16818181818182154,
                "tempo": 120.0
            },
            {
                "start_time": 90.69318181818181,
                "end_time": 90.85909090909091,
                "pitch": 24,
                "velocity": 51,
                "duration": 0.16590909090909634,
                "tempo": 120.0
            },
            {
                "start_time": 90.89318181818182,
                "end_time": 91.0590909090909,
                "pitch": 36,
                "velocity": 51,
                "duration": 0.16590909090908212,
                "tempo": 120.0
            },
            {
                "start_time": 91.09318181818182,
                "end_time": 91.26590909090909,
                "pitch": 24,
                "velocity": 51,
                "duration": 0.17272727272727195,
                "tempo": 120.0
            },
            {
                "start_time": 91.3,
                "end_time": 91.47045454545454,
                "pitch": 36,
                "velocity": 51,
                "duration": 0.17045454545454675,
                "tempo": 120.0
            },
            {
                "start_time": 91.50227272727273,
                "end_time": 91.66590909090908,
                "pitch": 24,
                "velocity": 51,
                "duration": 0.16363636363635692,
                "tempo": 120.0
            },
            {
                "start_time": 91.69772727272726,
                "end_time": 91.86136363636363,
                "pitch": 36,
                "velocity": 51,
                "duration": 0.16363636363637113,
                "tempo": 120.0
            },
            {
                "start_time": 91.89545454545454,
                "end_time": 92.06818181818181,
                "pitch": 24,
                "velocity": 51,
                "duration": 0.17272727272727195,
                "tempo": 120.0
            },
            {
                "start_time": 92.10227272727272,
                "end_time": 92.27272727272727,
                "pitch": 36,
                "velocity": 51,
                "duration": 0.17045454545454675,
                "tempo": 120.0
            },
            {
                "start_time": 92.30681818181817,
                "end_time": 92.47272727272727,
                "pitch": 24,
                "velocity": 51,
                "duration": 0.16590909090909634,
                "tempo": 120.0
            },
            {
                "start_time": 92.50681818181818,
                "end_time": 92.67272727272727,
                "pitch": 36,
                "velocity": 51,
                "duration": 0.16590909090909634,
                "tempo": 120.0
            },
            {
                "start_time": 92.70681818181818,
                "end_time": 92.86818181818181,
                "pitch": 24,
                "velocity": 51,
                "duration": 0.1613636363636317,
                "tempo": 120.0
            },
            {
                "start_time": 92.90227272727272,
                "end_time": 93.06590909090909,
                "pitch": 36,
                "velocity": 51,
                "duration": 0.16363636363637113,
                "tempo": 120.0
            },
            {
                "start_time": 93.09772727272727,
                "end_time": 93.26590909090909,
                "pitch": 34,
                "velocity": 51,
                "duration": 0.16818181818182154,
                "tempo": 120.0
            },
            {
                "start_time": 93.3,
                "end_time": 93.46818181818182,
                "pitch": 46,
                "velocity": 51,
                "duration": 0.16818181818182154,
                "tempo": 120.0
            },
            {
                "start_time": 93.50227272727273,
                "end_time": 93.67272727272727,
                "pitch": 34,
                "velocity": 51,
                "duration": 0.17045454545454675,
                "tempo": 120.0
            },
            {
                "start_time": 93.70681818181818,
                "end_time": 93.87954545454545,
                "pitch": 46,
                "velocity": 51,
                "duration": 0.17272727272727195,
                "tempo": 120.0
            },
            {
                "start_time": 93.91136363636363,
                "end_time": 94.07954545454545,
                "pitch": 34,
                "velocity": 51,
                "duration": 0.16818181818182154,
                "tempo": 120.0
            },
            {
                "start_time": 94.11363636363636,
                "end_time": 94.28181818181818,
                "pitch": 46,
                "velocity": 51,
                "duration": 0.16818181818182154,
                "tempo": 120.0
            },
            {
                "start_time": 94.31590909090909,
                "end_time": 94.48181818181818,
                "pitch": 34,
                "velocity": 51,
                "duration": 0.16590909090909634,
                "tempo": 120.0
            },
            {
                "start_time": 94.51590909090909,
                "end_time": 94.68181818181817,
                "pitch": 46,
                "velocity": 51,
                "duration": 0.16590909090908212,
                "tempo": 120.0
            },
            {
                "start_time": 94.71363636363635,
                "end_time": 94.87727272727273,
                "pitch": 34,
                "velocity": 51,
                "duration": 0.16363636363637113,
                "tempo": 120.0
            },
            {
                "start_time": 94.91136363636363,
                "end_time": 95.07272727272726,
                "pitch": 46,
                "velocity": 51,
                "duration": 0.1613636363636317,
                "tempo": 120.0
            },
            {
                "start_time": 95.10681818181818,
                "end_time": 95.27499999999999,
                "pitch": 34,
                "velocity": 51,
                "duration": 0.16818181818180733,
                "tempo": 120.0
            },
            {
                "start_time": 95.3090909090909,
                "end_time": 95.47727272727272,
                "pitch": 46,
                "velocity": 51,
                "duration": 0.16818181818182154,
                "tempo": 120.0
            },
            {
                "start_time": 95.51136363636363,
                "end_time": 95.68181818181817,
                "pitch": 34,
                "velocity": 51,
                "duration": 0.17045454545454675,
                "tempo": 120.0
            },
            {
                "start_time": 95.71590909090908,
                "end_time": 95.88636363636363,
                "pitch": 46,
                "velocity": 51,
                "duration": 0.17045454545454675,
                "tempo": 120.0
            },
            {
                "start_time": 95.92045454545455,
                "end_time": 96.0840909090909,
                "pitch": 34,
                "velocity": 51,
                "duration": 0.16363636363635692,
                "tempo": 120.0
            },
            {
                "start_time": 96.11590909090908,
                "end_time": 96.27954545454546,
                "pitch": 46,
                "velocity": 51,
                "duration": 0.16363636363637113,
                "tempo": 120.0
            },
            {
                "start_time": 96.31363636363636,
                "end_time": 96.48181818181818,
                "pitch": 33,
                "velocity": 51,
                "duration": 0.16818181818182154,
                "tempo": 120.0
            },
            {
                "start_time": 96.51363636363637,
                "end_time": 96.68181818181817,
                "pitch": 45,
                "velocity": 51,
                "duration": 0.16818181818180733,
                "tempo": 120.0
            },
            {
                "start_time": 96.71590909090908,
                "end_time": 96.88181818181818,
                "pitch": 33,
                "velocity": 51,
                "duration": 0.16590909090909634,
                "tempo": 120.0
            },
            {
                "start_time": 96.91590909090908,
                "end_time": 97.08181818181818,
                "pitch": 45,
                "velocity": 51,
                "duration": 0.16590909090909634,
                "tempo": 120.0
            },
            {
                "start_time": 97.11590909090908,
                "end_time": 97.28636363636363,
                "pitch": 33,
                "velocity": 51,
                "duration": 0.17045454545454675,
                "tempo": 120.0
            },
            {
                "start_time": 97.32272727272726,
                "end_time": 97.49318181818181,
                "pitch": 45,
                "velocity": 51,
                "duration": 0.17045454545454675,
                "tempo": 120.0
            },
            {
                "start_time": 97.52727272727272,
                "end_time": 97.69318181818181,
                "pitch": 33,
                "velocity": 51,
                "duration": 0.16590909090909634,
                "tempo": 120.0
            },
            {
                "start_time": 97.72727272727272,
                "end_time": 97.89318181818182,
                "pitch": 45,
                "velocity": 51,
                "duration": 0.16590909090909634,
                "tempo": 120.0
            },
            {
                "start_time": 97.925,
                "end_time": 98.08863636363635,
                "pitch": 33,
                "velocity": 51,
                "duration": 0.16363636363635692,
                "tempo": 120.0
            },
            {
                "start_time": 98.12272727272727,
                "end_time": 98.2840909090909,
                "pitch": 45,
                "velocity": 51,
                "duration": 0.1613636363636317,
                "tempo": 120.0
            },
            {
                "start_time": 98.31818181818181,
                "end_time": 98.48636363636363,
                "pitch": 33,
                "velocity": 51,
                "duration": 0.16818181818182154,
                "tempo": 120.0
            },
            {
                "start_time": 98.52045454545454,
                "end_time": 98.68863636363636,
                "pitch": 45,
                "velocity": 51,
                "duration": 0.16818181818182154,
                "tempo": 120.0
            },
            {
                "start_time": 98.72045454545454,
                "end_time": 98.88863636363637,
                "pitch": 33,
                "velocity": 51,
                "duration": 0.16818181818182154,
                "tempo": 120.0
            },
            {
                "start_time": 98.92045454545455,
                "end_time": 99.08863636363635,
                "pitch": 45,
                "velocity": 51,
                "duration": 0.16818181818180733,
                "tempo": 120.0
            },
            {
                "start_time": 99.12272727272727,
                "end_time": 99.29318181818181,
                "pitch": 33,
                "velocity": 51,
                "duration": 0.17045454545453254,
                "tempo": 120.0
            },
            {
                "start_time": 99.32727272727273,
                "end_time": 99.49772727272727,
                "pitch": 45,
                "velocity": 51,
                "duration": 0.17045454545454675,
                "tempo": 120.0
            },
            {
                "start_time": 99.53181818181818,
                "end_time": 99.69545454545454,
                "pitch": 29,
                "velocity": 51,
                "duration": 0.16363636363635692,
                "tempo": 120.0
            },
            {
                "start_time": 99.72727272727272,
                "end_time": 99.89090909090909,
                "pitch": 41,
                "velocity": 51,
                "duration": 0.16363636363637113,
                "tempo": 120.0
            },
            {
                "start_time": 99.925,
                "end_time": 100.09090909090908,
                "pitch": 29,
                "velocity": 51,
                "duration": 0.16590909090908212,
                "tempo": 120.0
            },
            {
                "start_time": 100.125,
                "end_time": 100.29090909090908,
                "pitch": 41,
                "velocity": 51,
                "duration": 0.16590909090908212,
                "tempo": 120.0
            },
            {
                "start_time": 100.32499999999999,
                "end_time": 100.49318181818181,
                "pitch": 29,
                "velocity": 51,
                "duration": 0.16818181818182154,
                "tempo": 120.0
            },
            {
                "start_time": 100.52499999999999,
                "end_time": 100.69318181818181,
                "pitch": 41,
                "velocity": 51,
                "duration": 0.16818181818182154,
                "tempo": 120.0
            },
            {
                "start_time": 100.72727272727272,
                "end_time": 100.89772727272727,
                "pitch": 29,
                "velocity": 51,
                "duration": 0.17045454545454675,
                "tempo": 120.0
            },
            {
                "start_time": 100.9340909090909,
                "end_time": 101.10454545454544,
                "pitch": 41,
                "velocity": 51,
                "duration": 0.17045454545454675,
                "tempo": 120.0
            },
            {
                "start_time": 101.13636363636363,
                "end_time": 101.3,
                "pitch": 29,
                "velocity": 51,
                "duration": 0.16363636363637113,
                "tempo": 120.0
            },
            {
                "start_time": 101.33181818181818,
                "end_time": 101.49545454545454,
                "pitch": 41,
                "velocity": 51,
                "duration": 0.16363636363635692,
                "tempo": 120.0
            },
            {
                "start_time": 101.52954545454546,
                "end_time": 101.70227272727273,
                "pitch": 29,
                "velocity": 51,
                "duration": 0.17272727272727195,
                "tempo": 120.0
            },
            {
                "start_time": 101.73636363636363,
                "end_time": 101.90681818181818,
                "pitch": 41,
                "velocity": 51,
                "duration": 0.17045454545454675,
                "tempo": 120.0
            },
            {
                "start_time": 101.93863636363636,
                "end_time": 102.10227272727272,
                "pitch": 29,
                "velocity": 51,
                "duration": 0.16363636363635692,
                "tempo": 120.0
            },
            {
                "start_time": 102.13636363636363,
                "end_time": 102.3,
                "pitch": 41,
                "velocity": 51,
                "duration": 0.16363636363637113,
                "tempo": 120.0
            },
            {
                "start_time": 102.33181818181818,
                "end_time": 102.5,
                "pitch": 29,
                "velocity": 51,
                "duration": 0.16818181818182154,
                "tempo": 120.0
            },
            {
                "start_time": 102.5340909090909,
                "end_time": 102.70227272727273,
                "pitch": 41,
                "velocity": 51,
                "duration": 0.16818181818182154,
                "tempo": 120.0
            },
            {
                "start_time": 102.73409090909091,
                "end_time": 102.90227272727272,
                "pitch": 28,
                "velocity": 51,
                "duration": 0.16818181818180733,
                "tempo": 120.0
            },
            {
                "start_time": 102.9340909090909,
                "end_time": 103.10227272727272,
                "pitch": 40,
                "velocity": 51,
                "duration": 0.16818181818182154,
                "tempo": 120.0
            },
            {
                "start_time": 103.13636363636363,
                "end_time": 103.30681818181817,
                "pitch": 28,
                "velocity": 51,
                "duration": 0.17045454545454675,
                "tempo": 120.0
            },
            {
                "start_time": 103.34090909090908,
                "end_time": 103.51136363636363,
                "pitch": 40,
                "velocity": 51,
                "duration": 0.17045454545454675,
                "tempo": 120.0
            },
            {
                "start_time": 103.54545454545455,
                "end_time": 103.7090909090909,
                "pitch": 28,
                "velocity": 51,
                "duration": 0.16363636363635692,
                "tempo": 120.0
            },
            {
                "start_time": 103.74090909090908,
                "end_time": 103.90454545454546,
                "pitch": 40,
                "velocity": 51,
                "duration": 0.16363636363637113,
                "tempo": 120.0
            },
            {
                "start_time": 103.93863636363636,
                "end_time": 104.10454545454544,
                "pitch": 28,
                "velocity": 51,
                "duration": 0.16590909090908212,
                "tempo": 120.0
            },
            {
                "start_time": 104.13863636363637,
                "end_time": 104.30454545454545,
                "pitch": 40,
                "velocity": 51,
                "duration": 0.16590909090908212,
                "tempo": 120.0
            },
            {
                "start_time": 104.33863636363635,
                "end_time": 104.50681818181818,
                "pitch": 28,
                "velocity": 51,
                "duration": 0.16818181818182154,
                "tempo": 120.0
            },
            {
                "start_time": 104.53863636363636,
                "end_time": 104.70681818181818,
                "pitch": 40,
                "velocity": 51,
                "duration": 0.16818181818182154,
                "tempo": 120.0
            },
            {
                "start_time": 104.74090909090908,
                "end_time": 104.90681818181818,
                "pitch": 28,
                "velocity": 51,
                "duration": 0.16590909090909634,
                "tempo": 120.0
            },
            {
                "start_time": 104.94090909090909,
                "end_time": 105.10681818181817,
                "pitch": 40,
                "velocity": 51,
                "duration": 0.16590909090908212,
                "tempo": 120.0
            },
            {
                "start_time": 105.14090909090909,
                "end_time": 105.3090909090909,
                "pitch": 28,
                "velocity": 51,
                "duration": 0.16818181818180733,
                "tempo": 120.0
            },
            {
                "start_time": 105.34318181818182,
                "end_time": 105.5090909090909,
                "pitch": 40,
                "velocity": 51,
                "duration": 0.16590909090908212,
                "tempo": 120.0
            },
            {
                "start_time": 105.54318181818181,
                "end_time": 105.71590909090908,
                "pitch": 28,
                "velocity": 51,
                "duration": 0.17272727272727195,
                "tempo": 120.0
            },
            {
                "start_time": 105.75,
                "end_time": 105.92045454545455,
                "pitch": 40,
                "velocity": 51,
                "duration": 0.17045454545454675,
                "tempo": 120.0
            },
            {
                "start_time": 105.95227272727273,
                "end_time": 106.11590909090908,
                "pitch": 33,
                "velocity": 51,
                "duration": 0.16363636363635692,
                "tempo": 120.0
            },
            {
                "start_time": 106.14999999999999,
                "end_time": 106.31363636363636,
                "pitch": 45,
                "velocity": 51,
                "duration": 0.16363636363637113,
                "tempo": 120.0
            },
            {
                "start_time": 106.34772727272727,
                "end_time": 106.51818181818182,
                "pitch": 33,
                "velocity": 51,
                "duration": 0.17045454545454675,
                "tempo": 120.0
            },
            {
                "start_time": 106.55227272727272,
                "end_time": 106.72272727272727,
                "pitch": 45,
                "velocity": 51,
                "duration": 0.17045454545454675,
                "tempo": 120.0
            },
            {
                "start_time": 106.75681818181818,
                "end_time": 106.91818181818181,
                "pitch": 33,
                "velocity": 51,
                "duration": 0.1613636363636317,
                "tempo": 120.0
            },
            {
                "start_time": 106.95227272727273,
                "end_time": 107.11590909090908,
                "pitch": 45,
                "velocity": 51,
                "duration": 0.16363636363635692,
                "tempo": 120.0
            },
            {
                "start_time": 107.14999999999999,
                "end_time": 107.31590909090909,
                "pitch": 33,
                "velocity": 51,
                "duration": 0.16590909090909634,
                "tempo": 120.0
            },
            {
                "start_time": 107.35,
                "end_time": 107.51818181818182,
                "pitch": 45,
                "velocity": 51,
                "duration": 0.16818181818182154,
                "tempo": 120.0
            },
            {
                "start_time": 107.55227272727272,
                "end_time": 107.72045454545454,
                "pitch": 33,
                "velocity": 51,
                "duration": 0.16818181818182154,
                "tempo": 120.0
            },
            {
                "start_time": 107.75227272727273,
                "end_time": 107.92045454545455,
                "pitch": 45,
                "velocity": 51,
                "duration": 0.16818181818182154,
                "tempo": 120.0
            },
            {
                "start_time": 107.95454545454545,
                "end_time": 108.12045454545454,
                "pitch": 33,
                "velocity": 51,
                "duration": 0.16590909090908212,
                "tempo": 120.0
            },
            {
                "start_time": 108.15454545454546,
                "end_time": 108.32045454545454,
                "pitch": 45,
                "velocity": 51,
                "duration": 0.16590909090908212,
                "tempo": 120.0
            },
            {
                "start_time": 108.35454545454544,
                "end_time": 108.52272727272727,
                "pitch": 33,
                "velocity": 51,
                "duration": 0.16818181818182154,
                "tempo": 120.0
            },
            {
                "start_time": 108.55681818181817,
                "end_time": 108.72272727272727,
                "pitch": 45,
                "velocity": 51,
                "duration": 0.16590909090909634,
                "tempo": 120.0
            },
            {
                "start_time": 108.75681818181818,
                "end_time": 108.92954545454545,
                "pitch": 33,
                "velocity": 51,
                "duration": 0.17272727272727195,
                "tempo": 120.0
            },
            {
                "start_time": 108.96363636363635,
                "end_time": 109.1340909090909,
                "pitch": 45,
                "velocity": 51,
                "duration": 0.17045454545454675,
                "tempo": 120.0
            },
            {
                "start_time": 109.16818181818181,
                "end_time": 109.33636363636363,
                "pitch": 26,
                "velocity": 51,
                "duration": 0.16818181818182154,
                "tempo": 120.0
            },
            {
                "start_time": 109.37045454545454,
                "end_time": 109.45227272727273,
                "pitch": 38,
                "velocity": 51,
                "duration": 0.08181818181819267,
                "tempo": 120.0
            },
            {
                "start_time": 109.45227272727273,
                "end_time": 109.53636363636363,
                "pitch": 38,
                "velocity": 51,
                "duration": 0.08409090909090366,
                "tempo": 120.0
            },
            {
                "start_time": 109.57045454545454,
                "end_time": 109.73636363636363,
                "pitch": 26,
                "velocity": 51,
                "duration": 0.16590909090909634,
                "tempo": 120.0
            },
            {
                "start_time": 109.77045454545454,
                "end_time": 109.85454545454544,
                "pitch": 38,
                "velocity": 51,
                "duration": 0.08409090909090366,
                "tempo": 120.0
            },
            {
                "start_time": 109.85454545454544,
                "end_time": 109.93636363636364,
                "pitch": 38,
                "velocity": 51,
                "duration": 0.08181818181819267,
                "tempo": 120.0
            },
            {
                "start_time": 109.97045454545454,
                "end_time": 110.1340909090909,
                "pitch": 26,
                "velocity": 51,
                "duration": 0.16363636363635692,
                "tempo": 120.0
            },
            {
                "start_time": 110.16590909090908,
                "end_time": 110.24772727272726,
                "pitch": 38,
                "velocity": 51,
                "duration": 0.08181818181817846,
                "tempo": 120.0
            },
            {
                "start_time": 110.24772727272726,
                "end_time": 110.32954545454545,
                "pitch": 38,
                "velocity": 51,
                "duration": 0.08181818181819267,
                "tempo": 120.0
            },
            {
                "start_time": 110.36363636363636,
                "end_time": 110.5340909090909,
                "pitch": 26,
                "velocity": 51,
                "duration": 0.17045454545454675,
                "tempo": 120.0
            },
            {
                "start_time": 110.56818181818181,
                "end_time": 110.65454545454546,
                "pitch": 38,
                "velocity": 51,
                "duration": 0.08636363636364308,
                "tempo": 120.0
            },
            {
                "start_time": 110.65454545454546,
                "end_time": 110.73863636363636,
                "pitch": 38,
                "velocity": 51,
                "duration": 0.08409090909090366,
                "tempo": 120.0
            },
            {
                "start_time": 110.77272727272727,
                "end_time": 110.93636363636364,
                "pitch": 26,
                "velocity": 51,
                "duration": 0.16363636363637113,
                "tempo": 120.0
            },
            {
                "start_time": 110.96818181818182,
                "end_time": 111.05,
                "pitch": 38,
                "velocity": 51,
                "duration": 0.08181818181817846,
                "tempo": 120.0
            },
            {
                "start_time": 111.05,
                "end_time": 111.13181818181818,
                "pitch": 38,
                "velocity": 51,
                "duration": 0.08181818181817846,
                "tempo": 120.0
            },
            {
                "start_time": 111.16590909090908,
                "end_time": 111.3340909090909,
                "pitch": 26,
                "velocity": 51,
                "duration": 0.16818181818182154,
                "tempo": 120.0
            },
            {
                "start_time": 111.36590909090908,
                "end_time": 111.44999999999999,
                "pitch": 38,
                "velocity": 51,
                "duration": 0.08409090909090366,
                "tempo": 120.0
            },
            {
                "start_time": 111.44999999999999,
                "end_time": 111.5340909090909,
                "pitch": 38,
                "velocity": 51,
                "duration": 0.08409090909091788,
                "tempo": 120.0
            },
            {
                "start_time": 111.56818181818181,
                "end_time": 111.73636363636363,
                "pitch": 26,
                "velocity": 51,
                "duration": 0.16818181818182154,
                "tempo": 120.0
            },
            {
                "start_time": 111.77045454545454,
                "end_time": 111.85454545454544,
                "pitch": 38,
                "velocity": 51,
                "duration": 0.08409090909090366,
                "tempo": 120.0
            },
            {
                "start_time": 111.85454545454544,
                "end_time": 111.93636363636364,
                "pitch": 38,
                "velocity": 51,
                "duration": 0.08181818181819267,
                "tempo": 120.0
            },
            {
                "start_time": 111.97045454545454,
                "end_time": 112.14318181818182,
                "pitch": 26,
                "velocity": 51,
                "duration": 0.17272727272727195,
                "tempo": 120.0
            },
            {
                "start_time": 112.17727272727272,
                "end_time": 112.26363636363635,
                "pitch": 38,
                "velocity": 51,
                "duration": 0.08636363636362887,
                "tempo": 120.0
            },
            {
                "start_time": 112.26363636363635,
                "end_time": 112.34772727272727,
                "pitch": 38,
                "velocity": 51,
                "duration": 0.08409090909091788,
                "tempo": 120.0
            },
            {
                "start_time": 112.38181818181818,
                "end_time": 112.54318181818181,
                "pitch": 29,
                "velocity": 51,
                "duration": 0.1613636363636317,
                "tempo": 120.0
            },
            {
                "start_time": 112.57727272727273,
                "end_time": 112.74090909090908,
                "pitch": 41,
                "velocity": 51,
                "duration": 0.16363636363635692,
                "tempo": 120.0
            },
            {
                "start_time": 112.77499999999999,
                "end_time": 112.94545454545454,
                "pitch": 29,
                "velocity": 51,
                "duration": 0.17045454545454675,
                "tempo": 120.0
            },
            {
                "start_time": 112.97954545454544,
                "end_time": 113.14999999999999,
                "pitch": 41,
                "velocity": 51,
                "duration": 0.17045454545454675,
                "tempo": 120.0
            },
            {
                "start_time": 113.1840909090909,
                "end_time": 113.34772727272727,
                "pitch": 29,
                "velocity": 51,
                "duration": 0.16363636363637113,
                "tempo": 120.0
            },
            {
                "start_time": 113.37954545454545,
                "end_time": 113.54318181818181,
                "pitch": 41,
                "velocity": 51,
                "duration": 0.16363636363635692,
                "tempo": 120.0
            },
            {
                "start_time": 113.57727272727273,
                "end_time": 113.74772727272726,
                "pitch": 29,
                "velocity": 51,
                "duration": 0.17045454545453254,
                "tempo": 120.0
            },
            {
                "start_time": 113.78181818181818,
                "end_time": 113.95227272727273,
                "pitch": 41,
                "velocity": 51,
                "duration": 0.17045454545454675,
                "tempo": 120.0
            },
            {
                "start_time": 113.98636363636363,
                "end_time": 114.14999999999999,
                "pitch": 29,
                "velocity": 51,
                "duration": 0.16363636363635692,
                "tempo": 120.0
            },
            {
                "start_time": 114.18181818181817,
                "end_time": 114.34545454545454,
                "pitch": 41,
                "velocity": 51,
                "duration": 0.16363636363637113,
                "tempo": 120.0
            },
            {
                "start_time": 114.37954545454545,
                "end_time": 114.55,
                "pitch": 29,
                "velocity": 51,
                "duration": 0.17045454545454675,
                "tempo": 120.0
            },
            {
                "start_time": 114.5840909090909,
                "end_time": 114.75681818181818,
                "pitch": 41,
                "velocity": 51,
                "duration": 0.17272727272727195,
                "tempo": 120.0
            },
            {
                "start_time": 114.78863636363636,
                "end_time": 114.95227272727273,
                "pitch": 29,
                "velocity": 51,
                "duration": 0.16363636363637113,
                "tempo": 120.0
            },
            {
                "start_time": 114.98409090909091,
                "end_time": 115.14772727272727,
                "pitch": 41,
                "velocity": 51,
                "duration": 0.16363636363635692,
                "tempo": 120.0
            },
            {
                "start_time": 115.18181818181817,
                "end_time": 115.35,
                "pitch": 29,
                "velocity": 51,
                "duration": 0.16818181818182154,
                "tempo": 120.0
            },
            {
                "start_time": 115.3840909090909,
                "end_time": 115.55,
                "pitch": 41,
                "velocity": 51,
                "duration": 0.16590909090909634,
                "tempo": 120.0
            },
            {
                "start_time": 115.5840909090909,
                "end_time": 115.75227272727273,
                "pitch": 28,
                "velocity": 51,
                "duration": 0.16818181818182154,
                "tempo": 120.0
            },
            {
                "start_time": 115.78636363636363,
                "end_time": 115.95454545454545,
                "pitch": 40,
                "velocity": 51,
                "duration": 0.16818181818182154,
                "tempo": 120.0
            },
            {
                "start_time": 115.98636363636363,
                "end_time": 116.15454545454544,
                "pitch": 28,
                "velocity": 51,
                "duration": 0.16818181818180733,
                "tempo": 120.0
            },
            {
                "start_time": 116.18636363636364,
                "end_time": 116.35454545454544,
                "pitch": 40,
                "velocity": 51,
                "duration": 0.16818181818180733,
                "tempo": 120.0
            },
            {
                "start_time": 116.38636363636363,
                "end_time": 116.55454545454545,
                "pitch": 28,
                "velocity": 51,
                "duration": 0.16818181818182154,
                "tempo": 120.0
            },
            {
                "start_time": 116.58863636363635,
                "end_time": 116.75681818181818,
                "pitch": 40,
                "velocity": 51,
                "duration": 0.16818181818182154,
                "tempo": 120.0
            },
            {
                "start_time": 116.79090909090908,
                "end_time": 116.96136363636363,
                "pitch": 28,
                "velocity": 51,
                "duration": 0.17045454545454675,
                "tempo": 120.0
            },
            {
                "start_time": 116.99545454545454,
                "end_time": 117.16590909090908,
                "pitch": 40,
                "velocity": 51,
                "duration": 0.17045454545454675,
                "tempo": 120.0
            },
            {
                "start_time": 117.19999999999999,
                "end_time": 117.36363636363636,
                "pitch": 28,
                "velocity": 51,
                "duration": 0.16363636363637113,
                "tempo": 120.0
            },
            {
                "start_time": 117.39545454545454,
                "end_time": 117.5590909090909,
                "pitch": 40,
                "velocity": 51,
                "duration": 0.16363636363635692,
                "tempo": 120.0
            },
            {
                "start_time": 117.59318181818182,
                "end_time": 117.76136363636363,
                "pitch": 28,
                "velocity": 51,
                "duration": 0.16818181818180733,
                "tempo": 120.0
            },
            {
                "start_time": 117.79318181818181,
                "end_time": 117.96136363636363,
                "pitch": 40,
                "velocity": 51,
                "duration": 0.16818181818182154,
                "tempo": 120.0
            },
            {
                "start_time": 117.99545454545454,
                "end_time": 118.16136363636363,
                "pitch": 28,
                "velocity": 51,
                "duration": 0.16590909090909634,
                "tempo": 120.0
            },
            {
                "start_time": 118.19545454545454,
                "end_time": 118.36136363636363,
                "pitch": 40,
                "velocity": 51,
                "duration": 0.16590909090909634,
                "tempo": 120.0
            },
            {
                "start_time": 118.39545454545454,
                "end_time": 118.56818181818181,
                "pitch": 28,
                "velocity": 51,
                "duration": 0.17272727272727195,
                "tempo": 120.0
            },
            {
                "start_time": 118.60227272727272,
                "end_time": 118.77272727272727,
                "pitch": 40,
                "velocity": 51,
                "duration": 0.17045454545454675,
                "tempo": 120.0
            },
            {
                "start_time": 118.80454545454545,
                "end_time": 118.96818181818182,
                "pitch": 33,
                "velocity": 51,
                "duration": 0.16363636363637113,
                "tempo": 120.0
            },
            {
                "start_time": 119.00227272727273,
                "end_time": 119.16363636363636,
                "pitch": 45,
                "velocity": 51,
                "duration": 0.1613636363636317,
                "tempo": 120.0
            },
            {
                "start_time": 119.19772727272726,
                "end_time": 119.36590909090908,
                "pitch": 33,
                "velocity": 51,
                "duration": 0.16818181818182154,
                "tempo": 120.0
            },
            {
                "start_time": 119.39999999999999,
                "end_time": 119.56818181818181,
                "pitch": 45,
                "velocity": 51,
                "duration": 0.16818181818182154,
                "tempo": 120.0
            },
            {
                "start_time": 119.6,
                "end_time": 119.76818181818182,
                "pitch": 33,
                "velocity": 51,
                "duration": 0.16818181818182154,
                "tempo": 120.0
            },
            {
                "start_time": 119.80227272727272,
                "end_time": 119.97045454545454,
                "pitch": 45,
                "velocity": 51,
                "duration": 0.16818181818182154,
                "tempo": 120.0
            },
            {
                "start_time": 120.00227272727273,
                "end_time": 120.17045454545453,
                "pitch": 33,
                "velocity": 51,
                "duration": 0.16818181818180733,
                "tempo": 120.0
            },
            {
                "start_time": 120.20227272727273,
                "end_time": 120.37045454545454,
                "pitch": 45,
                "velocity": 51,
                "duration": 0.16818181818180733,
                "tempo": 120.0
            },
            {
                "start_time": 120.40454545454544,
                "end_time": 120.57045454545454,
                "pitch": 33,
                "velocity": 51,
                "duration": 0.16590909090909634,
                "tempo": 120.0
            },
            {
                "start_time": 120.60454545454544,
                "end_time": 120.77272727272727,
                "pitch": 45,
                "velocity": 51,
                "duration": 0.16818181818182154,
                "tempo": 120.0
            },
            {
                "start_time": 120.80681818181817,
                "end_time": 120.97272727272727,
                "pitch": 33,
                "velocity": 51,
                "duration": 0.16590909090909634,
                "tempo": 120.0
            },
            {
                "start_time": 121.00681818181818,
                "end_time": 121.17272727272727,
                "pitch": 45,
                "velocity": 51,
                "duration": 0.16590909090909634,
                "tempo": 120.0
            },
            {
                "start_time": 121.20681818181818,
                "end_time": 121.375,
                "pitch": 33,
                "velocity": 51,
                "duration": 0.16818181818182154,
                "tempo": 120.0
            },
            {
                "start_time": 121.40681818181818,
                "end_time": 121.57499999999999,
                "pitch": 45,
                "velocity": 51,
                "duration": 0.16818181818180733,
                "tempo": 120.0
            },
            {
                "start_time": 121.60909090909091,
                "end_time": 121.78181818181818,
                "pitch": 33,
                "velocity": 51,
                "duration": 0.17272727272727195,
                "tempo": 120.0
            },
            {
                "start_time": 121.81590909090909,
                "end_time": 121.98636363636363,
                "pitch": 45,
                "velocity": 51,
                "duration": 0.17045454545454675,
                "tempo": 120.0
            },
            {
                "start_time": 122.02045454545454,
                "end_time": 122.18863636363636,
                "pitch": 26,
                "velocity": 51,
                "duration": 0.16818181818182154,
                "tempo": 120.0
            },
            {
                "start_time": 122.22045454545454,
                "end_time": 122.30454545454545,
                "pitch": 38,
                "velocity": 51,
                "duration": 0.08409090909090366,
                "tempo": 120.0
            },
            {
                "start_time": 122.30454545454545,
                "end_time": 122.38863636363635,
                "pitch": 38,
                "velocity": 51,
                "duration": 0.08409090909090366,
                "tempo": 120.0
            },
            {
                "start_time": 122.42272727272727,
                "end_time": 122.5840909090909,
                "pitch": 26,
                "velocity": 51,
                "duration": 0.1613636363636317,
                "tempo": 120.0
            },
            {
                "start_time": 122.61818181818181,
                "end_time": 122.69999999999999,
                "pitch": 38,
                "velocity": 51,
                "duration": 0.08181818181817846,
                "tempo": 120.0
            },
            {
                "start_time": 122.69999999999999,
                "end_time": 122.78181818181818,
                "pitch": 38,
                "velocity": 51,
                "duration": 0.08181818181819267,
                "tempo": 120.0
            },
            {
                "start_time": 122.81363636363636,
                "end_time": 122.98181818181817,
                "pitch": 26,
                "velocity": 51,
                "duration": 0.16818181818180733,
                "tempo": 120.0
            },
            {
                "start_time": 123.01363636363635,
                "end_time": 123.09772727272727,
                "pitch": 38,
                "velocity": 51,
                "duration": 0.08409090909091788,
                "tempo": 120.0
            },
            {
                "start_time": 123.09772727272727,
                "end_time": 123.18181818181817,
                "pitch": 38,
                "velocity": 51,
                "duration": 0.08409090909090366,
                "tempo": 120.0
            },
            {
                "start_time": 123.21590909090908,
                "end_time": 123.38181818181818,
                "pitch": 26,
                "velocity": 51,
                "duration": 0.16590909090909634,
                "tempo": 120.0
            },
            {
                "start_time": 123.41590909090908,
                "end_time": 123.5,
                "pitch": 38,
                "velocity": 51,
                "duration": 0.08409090909091788,
                "tempo": 120.0
            },
            {
                "start_time": 123.5,
                "end_time": 123.5840909090909,
                "pitch": 38,
                "velocity": 51,
                "duration": 0.08409090909090366,
                "tempo": 120.0
            },
            {
                "start_time": 123.61818181818181,
                "end_time": 123.78636363636363,
                "pitch": 26,
                "velocity": 51,
                "duration": 0.16818181818182154,
                "tempo": 120.0
            },
            {
                "start_time": 123.81818181818181,
                "end_time": 123.90227272727272,
                "pitch": 38,
                "velocity": 51,
                "duration": 0.08409090909090366,
                "tempo": 120.0
            },
            {
                "start_time": 123.90227272727272,
                "end_time": 123.98636363636363,
                "pitch": 38,
                "velocity": 51,
                "duration": 0.08409090909091788,
                "tempo": 120.0
            },
            {
                "start_time": 124.02045454545454,
                "end_time": 124.19090909090909,
                "pitch": 26,
                "velocity": 51,
                "duration": 0.17045454545454675,
                "tempo": 120.0
            },
            {
                "start_time": 124.22727272727272,
                "end_time": 124.31136363636364,
                "pitch": 38,
                "velocity": 51,
                "duration": 0.08409090909091788,
                "tempo": 120.0
            },
            {
                "start_time": 124.31136363636364,
                "end_time": 124.39772727272727,
                "pitch": 38,
                "velocity": 51,
                "duration": 0.08636363636362887,
                "tempo": 120.0
            },
            {
                "start_time": 124.42954545454545,
                "end_time": 124.59318181818182,
                "pitch": 26,
                "velocity": 51,
                "duration": 0.16363636363637113,
                "tempo": 120.0
            },
            {
                "start_time": 124.625,
                "end_time": 124.70681818181818,
                "pitch": 38,
                "velocity": 51,
                "duration": 0.08181818181817846,
                "tempo": 120.0
            },
            {
                "start_time": 124.70681818181818,
                "end_time": 124.78863636363636,
                "pitch": 38,
                "velocity": 51,
                "duration": 0.08181818181817846,
                "tempo": 120.0
            },
            {
                "start_time": 124.82272727272726,
                "end_time": 124.98863636363636,
                "pitch": 26,
                "velocity": 51,
                "duration": 0.16590909090909634,
                "tempo": 120.0
            },
            {
                "start_time": 125.02272727272727,
                "end_time": 125.10681818181817,
                "pitch": 38,
                "velocity": 51,
                "duration": 0.08409090909090366,
                "tempo": 120.0
            },
            {
                "start_time": 125.10681818181817,
                "end_time": 125.18863636363636,
                "pitch": 38,
                "velocity": 51,
                "duration": 0.08181818181819267,
                "tempo": 120.0
            },
            {
                "start_time": 125.22272727272727,
                "end_time": 125.39090909090909,
                "pitch": 29,
                "velocity": 51,
                "duration": 0.16818181818182154,
                "tempo": 120.0
            },
            {
                "start_time": 125.425,
                "end_time": 125.59318181818182,
                "pitch": 41,
                "velocity": 51,
                "duration": 0.16818181818182154,
                "tempo": 120.0
            },
            {
                "start_time": 125.625,
                "end_time": 125.79318181818181,
                "pitch": 29,
                "velocity": 51,
                "duration": 0.16818181818180733,
                "tempo": 120.0
            },
            {
                "start_time": 125.82727272727273,
                "end_time": 125.99545454545454,
                "pitch": 41,
                "velocity": 51,
                "duration": 0.16818181818180733,
                "tempo": 120.0
            },
            {
                "start_time": 126.02727272727272,
                "end_time": 126.19545454545454,
                "pitch": 29,
                "velocity": 51,
                "duration": 0.16818181818182154,
                "tempo": 120.0
            },
            {
                "start_time": 126.22727272727272,
                "end_time": 126.39545454545454,
                "pitch": 41,
                "velocity": 51,
                "duration": 0.16818181818182154,
                "tempo": 120.0
            },
            {
                "start_time": 126.42954545454545,
                "end_time": 126.6,
                "pitch": 29,
                "velocity": 51,
                "duration": 0.17045454545454675,
                "tempo": 120.0
            },
            {
                "start_time": 126.6340909090909,
                "end_time": 126.80454545454545,
                "pitch": 41,
                "velocity": 51,
                "duration": 0.17045454545454675,
                "tempo": 120.0
            },
            {
                "start_time": 126.83863636363635,
                "end_time": 127.00227272727273,
                "pitch": 31,
                "velocity": 51,
                "duration": 0.16363636363637113,
                "tempo": 120.0
            },
            {
                "start_time": 127.0340909090909,
                "end_time": 127.19772727272726,
                "pitch": 43,
                "velocity": 51,
                "duration": 0.16363636363635692,
                "tempo": 120.0
            },
            {
                "start_time": 127.23181818181817,
                "end_time": 127.39999999999999,
                "pitch": 31,
                "velocity": 51,
                "duration": 0.16818181818182154,
                "tempo": 120.0
            },
            {
                "start_time": 127.43181818181817,
                "end_time": 127.6,
                "pitch": 43,
                "velocity": 51,
                "duration": 0.16818181818182154,
                "tempo": 120.0
            },
            {
                "start_time": 127.6340909090909,
                "end_time": 127.80227272727272,
                "pitch": 31,
                "velocity": 51,
                "duration": 0.16818181818182154,
                "tempo": 120.0
            },
            {
                "start_time": 127.83636363636363,
                "end_time": 128.00227272727273,
                "pitch": 43,
                "velocity": 51,
                "duration": 0.16590909090909634,
                "tempo": 120.0
            },
            {
                "start_time": 128.03636363636363,
                "end_time": 128.2090909090909,
                "pitch": 31,
                "velocity": 51,
                "duration": 0.17272727272725774,
                "tempo": 120.0
            },
            {
                "start_time": 128.24318181818182,
                "end_time": 128.41363636363636,
                "pitch": 43,
                "velocity": 51,
                "duration": 0.17045454545453254,
                "tempo": 120.0
            },
            {
                "start_time": 128.44545454545454,
                "end_time": 128.6090909090909,
                "pitch": 33,
                "velocity": 51,
                "duration": 0.16363636363635692,
                "tempo": 120.0
            },
            {
                "start_time": 128.6431818181818,
                "end_time": 128.725,
                "pitch": 45,
                "velocity": 51,
                "duration": 0.08181818181819267,
                "tempo": 120.0
            },
            {
                "start_time": 128.725,
                "end_time": 128.8068181818182,
                "pitch": 45,
                "velocity": 51,
                "duration": 0.08181818181819267,
                "tempo": 120.0
            },
            {
                "start_time": 128.83863636363637,
                "end_time": 129.00681818181818,
                "pitch": 33,
                "velocity": 51,
                "duration": 0.16818181818180733,
                "tempo": 120.0
            },
            {
                "start_time": 129.03863636363636,
                "end_time": 129.12272727272727,
                "pitch": 45,
                "velocity": 51,
                "duration": 0.08409090909091788,
                "tempo": 120.0
            },
            {
                "start_time": 129.12272727272727,
                "end_time": 129.20681818181816,
                "pitch": 45,
                "velocity": 51,
                "duration": 0.08409090909088945,
                "tempo": 120.0
            },
            {
                "start_time": 129.24090909090907,
                "end_time": 129.41136363636363,
                "pitch": 33,
                "velocity": 51,
                "duration": 0.17045454545456096,
                "tempo": 120.0
            },
            {
                "start_time": 129.44545454545454,
                "end_time": 129.53181818181818,
                "pitch": 45,
                "velocity": 51,
                "duration": 0.08636363636364308,
                "tempo": 120.0
            },
            {
                "start_time": 129.53181818181818,
                "end_time": 129.61590909090907,
                "pitch": 45,
                "velocity": 51,
                "duration": 0.08409090909088945,
                "tempo": 120.0
            },
            {
                "start_time": 129.65,
                "end_time": 129.81363636363636,
                "pitch": 33,
                "velocity": 51,
                "duration": 0.16363636363635692,
                "tempo": 120.0
            },
            {
                "start_time": 129.84545454545454,
                "end_time": 129.9272727272727,
                "pitch": 45,
                "velocity": 51,
                "duration": 0.08181818181816425,
                "tempo": 120.0
            },
            {
                "start_time": 129.9272727272727,
                "end_time": 130.0090909090909,
                "pitch": 45,
                "velocity": 51,
                "duration": 0.08181818181819267,
                "tempo": 120.0
            },
            {
                "start_time": 130.0431818181818,
                "end_time": 130.2090909090909,
                "pitch": 33,
                "velocity": 51,
                "duration": 0.16590909090908212,
                "tempo": 120.0
            },
            {
                "start_time": 130.24318181818182,
                "end_time": 130.3272727272727,
                "pitch": 45,
                "velocity": 51,
                "duration": 0.08409090909088945,
                "tempo": 120.0
            },
            {
                "start_time": 130.3272727272727,
                "end_time": 130.41136363636363,
                "pitch": 45,
                "velocity": 51,
                "duration": 0.08409090909091788,
                "tempo": 120.0
            },
            {
                "start_time": 130.44545454545454,
                "end_time": 130.61136363636362,
                "pitch": 33,
                "velocity": 51,
                "duration": 0.16590909090908212,
                "tempo": 120.0
            },
            {
                "start_time": 130.64545454545453,
                "end_time": 130.72727272727272,
                "pitch": 45,
                "velocity": 51,
                "duration": 0.08181818181819267,
                "tempo": 120.0
            },
            {
                "start_time": 130.72727272727272,
                "end_time": 130.81136363636364,
                "pitch": 45,
                "velocity": 51,
                "duration": 0.08409090909091788,
                "tempo": 120.0
            },
            {
                "start_time": 130.84545454545454,
                "end_time": 131.01590909090908,
                "pitch": 33,
                "velocity": 51,
                "duration": 0.17045454545453254,
                "tempo": 120.0
            },
            {
                "start_time": 131.04999999999998,
                "end_time": 131.13636363636363,
                "pitch": 45,
                "velocity": 51,
                "duration": 0.08636363636364308,
                "tempo": 120.0
            },
            {
                "start_time": 131.13636363636363,
                "end_time": 131.22272727272727,
                "pitch": 45,
                "velocity": 51,
                "duration": 0.08636363636364308,
                "tempo": 120.0
            },
            {
                "start_time": 131.25454545454545,
                "end_time": 131.4181818181818,
                "pitch": 33,
                "velocity": 51,
                "duration": 0.16363636363635692,
                "tempo": 120.0
            },
            {
                "start_time": 131.45,
                "end_time": 131.53181818181818,
                "pitch": 45,
                "velocity": 51,
                "duration": 0.08181818181819267,
                "tempo": 120.0
            },
            {
                "start_time": 131.53181818181818,
                "end_time": 131.61363636363635,
                "pitch": 45,
                "velocity": 51,
                "duration": 0.08181818181816425,
                "tempo": 120.0
            },
            {
                "start_time": 131.64772727272728,
                "end_time": 131.8159090909091,
                "pitch": 29,
                "velocity": 51,
                "duration": 0.16818181818180733,
                "tempo": 120.0
            },
            {
                "start_time": 131.85,
                "end_time": 131.9340909090909,
                "pitch": 41,
                "velocity": 51,
                "duration": 0.08409090909091788,
                "tempo": 120.0
            },
            {
                "start_time": 131.9340909090909,
                "end_time": 132.0181818181818,
                "pitch": 41,
                "velocity": 51,
                "duration": 0.08409090909088945,
                "tempo": 120.0
            },
            {
                "start_time": 132.04999999999998,
                "end_time": 132.21818181818182,
                "pitch": 29,
                "velocity": 51,
                "duration": 0.16818181818183575,
                "tempo": 120.0
            },
            {
                "start_time": 132.25227272727273,
                "end_time": 132.33636363636364,
                "pitch": 41,
                "velocity": 51,
                "duration": 0.08409090909091788,
                "tempo": 120.0
            },
            {
                "start_time": 132.33636363636364,
                "end_time": 132.42045454545453,
                "pitch": 41,
                "velocity": 51,
                "duration": 0.08409090909088945,
                "tempo": 120.0
            },
            {
                "start_time": 132.45454545454544,
                "end_time": 132.625,
                "pitch": 29,
                "velocity": 51,
                "duration": 0.17045454545456096,
                "tempo": 120.0
            },
            {
                "start_time": 132.6590909090909,
                "end_time": 132.74545454545455,
                "pitch": 41,
                "velocity": 51,
                "duration": 0.08636363636364308,
                "tempo": 120.0
            },
            {
                "start_time": 132.74545454545455,
                "end_time": 132.82954545454544,
                "pitch": 41,
                "velocity": 51,
                "duration": 0.08409090909088945,
                "tempo": 120.0
            },
            {
                "start_time": 132.86363636363635,
                "end_time": 133.02727272727273,
                "pitch": 29,
                "velocity": 51,
                "duration": 0.16363636363638534,
                "tempo": 120.0
            },
            {
                "start_time": 133.0590909090909,
                "end_time": 133.14090909090908,
                "pitch": 41,
                "velocity": 51,
                "duration": 0.08181818181816425,
                "tempo": 120.0
            },
            {
                "start_time": 133.14090909090908,
                "end_time": 133.22272727272727,
                "pitch": 41,
                "velocity": 51,
                "duration": 0.08181818181819267,
                "tempo": 120.0
            },
            {
                "start_time": 133.25681818181818,
                "end_time": 133.42499999999998,
                "pitch": 29,
                "velocity": 51,
                "duration": 0.16818181818180733,
                "tempo": 120.0
            },
            {
                "start_time": 133.45681818181816,
                "end_time": 133.54090909090908,
                "pitch": 41,
                "velocity": 51,
                "duration": 0.08409090909091788,
                "tempo": 120.0
            },
            {
                "start_time": 133.54090909090908,
                "end_time": 133.625,
                "pitch": 41,
                "velocity": 51,
                "duration": 0.08409090909091788,
                "tempo": 120.0
            },
            {
                "start_time": 133.6590909090909,
                "end_time": 133.8272727272727,
                "pitch": 29,
                "velocity": 51,
                "duration": 0.16818181818180733,
                "tempo": 120.0
            },
            {
                "start_time": 133.86136363636362,
                "end_time": 133.9431818181818,
                "pitch": 41,
                "velocity": 51,
                "duration": 0.08181818181819267,
                "tempo": 120.0
            },
            {
                "start_time": 133.9431818181818,
                "end_time": 134.02727272727273,
                "pitch": 41,
                "velocity": 51,
                "duration": 0.08409090909091788,
                "tempo": 120.0
            },
            {
                "start_time": 134.06136363636364,
                "end_time": 134.22954545454544,
                "pitch": 29,
                "velocity": 51,
                "duration": 0.16818181818180733,
                "tempo": 120.0
            },
            {
                "start_time": 134.26363636363635,
                "end_time": 134.34772727272727,
                "pitch": 41,
                "velocity": 51,
                "duration": 0.08409090909091788,
                "tempo": 120.0
            },
            {
                "start_time": 134.34772727272727,
                "end_time": 134.4318181818182,
                "pitch": 41,
                "velocity": 51,
                "duration": 0.08409090909091788,
                "tempo": 120.0
            },
            {
                "start_time": 134.46363636363637,
                "end_time": 134.63181818181818,
                "pitch": 29,
                "velocity": 51,
                "duration": 0.16818181818180733,
                "tempo": 120.0
            },
            {
                "start_time": 134.66363636363636,
                "end_time": 134.74772727272727,
                "pitch": 41,
                "velocity": 51,
                "duration": 0.08409090909091788,
                "tempo": 120.0
            },
            {
                "start_time": 134.74772727272727,
                "end_time": 134.83181818181816,
                "pitch": 41,
                "velocity": 51,
                "duration": 0.08409090909088945,
                "tempo": 120.0
            },
            {
                "start_time": 134.86363636363635,
                "end_time": 135.03181818181818,
                "pitch": 31,
                "velocity": 51,
                "duration": 0.16818181818183575,
                "tempo": 120.0
            },
            {
                "start_time": 135.0659090909091,
                "end_time": 135.15,
                "pitch": 43,
                "velocity": 51,
                "duration": 0.08409090909091788,
                "tempo": 120.0
            },
            {
                "start_time": 135.15,
                "end_time": 135.2340909090909,
                "pitch": 43,
                "velocity": 51,
                "duration": 0.08409090909088945,
                "tempo": 120.0
            },
            {
                "start_time": 135.26590909090908,
                "end_time": 135.4340909090909,
                "pitch": 31,
                "velocity": 51,
                "duration": 0.16818181818183575,
                "tempo": 120.0
            },
            {
                "start_time": 135.46818181818182,
                "end_time": 135.5522727272727,
                "pitch": 43,
                "velocity": 51,
                "duration": 0.08409090909088945,
                "tempo": 120.0
            },
            {
                "start_time": 135.5522727272727,
                "end_time": 135.63636363636363,
                "pitch": 43,
                "velocity": 51,
                "duration": 0.08409090909091788,
                "tempo": 120.0
            },
            {
                "start_time": 135.67045454545453,
                "end_time": 135.83636363636364,
                "pitch": 31,
                "velocity": 51,
                "duration": 0.16590909090911055,
                "tempo": 120.0
            },
            {
                "start_time": 135.87045454545455,
                "end_time": 135.95454545454544,
                "pitch": 43,
                "velocity": 51,
                "duration": 0.08409090909088945,
                "tempo": 120.0
            },
            {
                "start_time": 135.95454545454544,
                "end_time": 136.03863636363636,
                "pitch": 43,
                "velocity": 51,
                "duration": 0.08409090909091788,
                "tempo": 120.0
            },
            {
                "start_time": 136.07272727272726,
                "end_time": 136.24090909090907,
                "pitch": 31,
                "velocity": 51,
                "duration": 0.16818181818180733,
                "tempo": 120.0
            },
            {
                "start_time": 136.27272727272725,
                "end_time": 136.35681818181817,
                "pitch": 43,
                "velocity": 51,
                "duration": 0.08409090909091788,
                "tempo": 120.0
            },
            {
                "start_time": 136.35681818181817,
                "end_time": 136.4409090909091,
                "pitch": 43,
                "velocity": 51,
                "duration": 0.08409090909091788,
                "tempo": 120.0
            },
            {
                "start_time": 136.475,
                "end_time": 136.64090909090908,
                "pitch": 31,
                "velocity": 51,
                "duration": 0.16590909090908212,
                "tempo": 120.0
            },
            {
                "start_time": 136.67499999999998,
                "end_time": 136.7590909090909,
                "pitch": 43,
                "velocity": 51,
                "duration": 0.08409090909091788,
                "tempo": 120.0
            },
            {
                "start_time": 136.7590909090909,
                "end_time": 136.8409090909091,
                "pitch": 43,
                "velocity": 51,
                "duration": 0.08181818181819267,
                "tempo": 120.0
            },
            {
                "start_time": 136.875,
                "end_time": 137.0431818181818,
                "pitch": 31,
                "velocity": 51,
                "duration": 0.16818181818180733,
                "tempo": 120.0
            },
            {
                "start_time": 137.0772727272727,
                "end_time": 137.16136363636363,
                "pitch": 43,
                "velocity": 51,
                "duration": 0.08409090909091788,
                "tempo": 120.0
            },
            {
                "start_time": 137.16136363636363,
                "end_time": 137.24318181818182,
                "pitch": 43,
                "velocity": 51,
                "duration": 0.08181818181819267,
                "tempo": 120.0
            },
            {
                "start_time": 137.27727272727273,
                "end_time": 137.45,
                "pitch": 31,
                "velocity": 51,
                "duration": 0.17272727272725774,
                "tempo": 120.0
            },
            {
                "start_time": 137.4840909090909,
                "end_time": 137.57045454545454,
                "pitch": 43,
                "velocity": 51,
                "duration": 0.08636363636364308,
                "tempo": 120.0
            },
            {
                "start_time": 137.57045454545454,
                "end_time": 137.65454545454546,
                "pitch": 43,
                "velocity": 51,
                "duration": 0.08409090909091788,
                "tempo": 120.0
            },
            {
                "start_time": 137.68863636363636,
                "end_time": 137.85681818181817,
                "pitch": 31,
                "velocity": 51,
                "duration": 0.16818181818180733,
                "tempo": 120.0
            },
            {
                "start_time": 137.89090909090908,
                "end_time": 137.975,
                "pitch": 43,
                "velocity": 51,
                "duration": 0.08409090909091788,
                "tempo": 120.0
            },
            {
                "start_time": 137.975,
                "end_time": 138.0568181818182,
                "pitch": 43,
                "velocity": 51,
                "duration": 0.08181818181819267,
                "tempo": 120.0
            },
            {
                "start_time": 138.0909090909091,
                "end_time": 138.25454545454545,
                "pitch": 33,
                "velocity": 51,
                "duration": 0.16363636363635692,
                "tempo": 120.0
            },
            {
                "start_time": 138.28636363636363,
                "end_time": 138.36818181818182,
                "pitch": 45,
                "velocity": 51,
                "duration": 0.08181818181819267,
                "tempo": 120.0
            },
            {
                "start_time": 138.36818181818182,
                "end_time": 138.45,
                "pitch": 45,
                "velocity": 51,
                "duration": 0.08181818181816425,
                "tempo": 120.0
            },
            {
                "start_time": 138.4840909090909,
                "end_time": 138.65,
                "pitch": 33,
                "velocity": 51,
                "duration": 0.16590909090911055,
                "tempo": 120.0
            },
            {
                "start_time": 138.6840909090909,
                "end_time": 138.76590909090908,
                "pitch": 45,
                "velocity": 51,
                "duration": 0.08181818181816425,
                "tempo": 120.0
            },
            {
                "start_time": 138.76590909090908,
                "end_time": 138.85,
                "pitch": 45,
                "velocity": 51,
                "duration": 0.08409090909091788,
                "tempo": 120.0
            },
            {
                "start_time": 138.8840909090909,
                "end_time": 139.05454545454546,
                "pitch": 33,
                "velocity": 51,
                "duration": 0.17045454545456096,
                "tempo": 120.0
            },
            {
                "start_time": 139.08863636363637,
                "end_time": 139.17499999999998,
                "pitch": 45,
                "velocity": 51,
                "duration": 0.08636363636361466,
                "tempo": 120.0
            },
            {
                "start_time": 139.17499999999998,
                "end_time": 139.26136363636363,
                "pitch": 45,
                "velocity": 51,
                "duration": 0.08636363636364308,
                "tempo": 120.0
            },
            {
                "start_time": 139.2931818181818,
                "end_time": 139.45681818181816,
                "pitch": 33,
                "velocity": 51,
                "duration": 0.16363636363635692,
                "tempo": 120.0
            },
            {
                "start_time": 139.48863636363635,
                "end_time": 139.57045454545454,
                "pitch": 45,
                "velocity": 51,
                "duration": 0.08181818181819267,
                "tempo": 120.0
            },
            {
                "start_time": 139.57045454545454,
                "end_time": 139.65227272727273,
                "pitch": 45,
                "velocity": 51,
                "duration": 0.08181818181819267,
                "tempo": 120.0
            },
            {
                "start_time": 139.68636363636364,
                "end_time": 139.85454545454544,
                "pitch": 33,
                "velocity": 51,
                "duration": 0.16818181818180733,
                "tempo": 120.0
            },
            {
                "start_time": 139.88863636363635,
                "end_time": 139.97045454545454,
                "pitch": 45,
                "velocity": 51,
                "duration": 0.08181818181819267,
                "tempo": 120.0
            },
            {
                "start_time": 139.97045454545454,
                "end_time": 140.05454545454546,
                "pitch": 45,
                "velocity": 51,
                "duration": 0.08409090909091788,
                "tempo": 120.0
            },
            {
                "start_time": 140.08863636363637,
                "end_time": 140.25681818181818,
                "pitch": 33,
                "velocity": 51,
                "duration": 0.16818181818180733,
                "tempo": 120.0
            },
            {
                "start_time": 140.29090909090908,
                "end_time": 140.375,
                "pitch": 45,
                "velocity": 51,
                "duration": 0.08409090909091788,
                "tempo": 120.0
            },
            {
                "start_time": 140.375,
                "end_time": 140.4590909090909,
                "pitch": 45,
                "velocity": 51,
                "duration": 0.08409090909088945,
                "tempo": 120.0
            },
            {
                "start_time": 140.49090909090907,
                "end_time": 140.6590909090909,
                "pitch": 33,
                "velocity": 51,
                "duration": 0.16818181818183575,
                "tempo": 120.0
            },
            {
                "start_time": 140.6909090909091,
                "end_time": 140.775,
                "pitch": 45,
                "velocity": 51,
                "duration": 0.08409090909091788,
                "tempo": 120.0
            },
            {
                "start_time": 140.775,
                "end_time": 140.8590909090909,
                "pitch": 45,
                "velocity": 51,
                "duration": 0.08409090909088945,
                "tempo": 120.0
            },
            {
                "start_time": 140.89090909090908,
                "end_time": 141.0590909090909,
                "pitch": 33,
                "velocity": 51,
                "duration": 0.16818181818183575,
                "tempo": 120.0
            },
            {
                "start_time": 141.09318181818182,
                "end_time": 141.1772727272727,
                "pitch": 45,
                "velocity": 51,
                "duration": 0.08409090909088945,
                "tempo": 120.0
            },
            {
                "start_time": 141.1772727272727,
                "end_time": 141.26136363636363,
                "pitch": 45,
                "velocity": 51,
                "duration": 0.08409090909091788,
                "tempo": 120.0
            },
            {
                "start_time": 141.29545454545453,
                "end_time": 141.46136363636364,
                "pitch": 33,
                "velocity": 51,
                "duration": 0.16590909090911055,
                "tempo": 120.0
            },
            {
                "start_time": 141.49545454545455,
                "end_time": 141.57954545454544,
                "pitch": 45,
                "velocity": 51,
                "duration": 0.08409090909088945,
                "tempo": 120.0
            },
            {
                "start_time": 141.57954545454544,
                "end_time": 141.66363636363636,
                "pitch": 45,
                "velocity": 51,
                "duration": 0.08409090909091788,
                "tempo": 120.0
            },
            {
                "start_time": 141.69772727272726,
                "end_time": 141.86590909090907,
                "pitch": 33,
                "velocity": 51,
                "duration": 0.16818181818180733,
                "tempo": 120.0
            },
            {
                "start_time": 141.89772727272725,
                "end_time": 141.98181818181817,
                "pitch": 45,
                "velocity": 51,
                "duration": 0.08409090909091788,
                "tempo": 120.0
            },
            {
                "start_time": 141.98181818181817,
                "end_time": 142.0659090909091,
                "pitch": 45,
                "velocity": 51,
                "duration": 0.08409090909091788,
                "tempo": 120.0
            },
            {
                "start_time": 142.1,
                "end_time": 142.27045454545453,
                "pitch": 33,
                "velocity": 51,
                "duration": 0.17045454545453254,
                "tempo": 120.0
            },
            {
                "start_time": 142.3068181818182,
                "end_time": 142.39090909090908,
                "pitch": 45,
                "velocity": 51,
                "duration": 0.08409090909088945,
                "tempo": 120.0
            },
            {
                "start_time": 142.39090909090908,
                "end_time": 142.47727272727272,
                "pitch": 45,
                "velocity": 51,
                "duration": 0.08636363636364308,
                "tempo": 120.0
            },
            {
                "start_time": 142.5090909090909,
                "end_time": 142.67272727272726,
                "pitch": 33,
                "velocity": 51,
                "duration": 0.16363636363635692,
                "tempo": 120.0
            },
            {
                "start_time": 142.70454545454544,
                "end_time": 142.78636363636363,
                "pitch": 45,
                "velocity": 51,
                "duration": 0.08181818181819267,
                "tempo": 120.0
            },
            {
                "start_time": 142.78636363636363,
                "end_time": 142.86818181818182,
                "pitch": 45,
                "velocity": 51,
                "duration": 0.08181818181819267,
                "tempo": 120.0
            },
            {
                "start_time": 142.90227272727273,
                "end_time": 143.07045454545454,
                "pitch": 33,
                "velocity": 51,
                "duration": 0.16818181818180733,
                "tempo": 120.0
            },
            {
                "start_time": 143.10454545454544,
                "end_time": 143.18863636363636,
                "pitch": 45,
                "velocity": 51,
                "duration": 0.08409090909091788,
                "tempo": 120.0
            },
            {
                "start_time": 143.18863636363636,
                "end_time": 143.27272727272725,
                "pitch": 45,
                "velocity": 51,
                "duration": 0.08409090909088945,
                "tempo": 120.0
            },
            {
                "start_time": 143.30454545454546,
                "end_time": 143.47272727272727,
                "pitch": 33,
                "velocity": 51,
                "duration": 0.16818181818180733,
                "tempo": 120.0
            },
            {
                "start_time": 143.50681818181818,
                "end_time": 143.5909090909091,
                "pitch": 45,
                "velocity": 51,
                "duration": 0.08409090909091788,
                "tempo": 120.0
            },
            {
                "start_time": 143.5909090909091,
                "end_time": 143.67499999999998,
                "pitch": 45,
                "velocity": 51,
                "duration": 0.08409090909088945,
                "tempo": 120.0
            },
            {
                "start_time": 143.7090909090909,
                "end_time": 143.87954545454545,
                "pitch": 33,
                "velocity": 51,
                "duration": 0.17045454545456096,
                "tempo": 120.0
            },
            {
                "start_time": 143.91363636363636,
                "end_time": 144.0,
                "pitch": 45,
                "velocity": 51,
                "duration": 0.08636363636364308,
                "tempo": 120.0
            },
            {
                "start_time": 144.0,
                "end_time": 144.0840909090909,
                "pitch": 45,
                "velocity": 51,
                "duration": 0.08409090909088945,
                "tempo": 120.0
            },
            {
                "start_time": 144.11818181818182,
                "end_time": 144.28181818181818,
                "pitch": 33,
                "velocity": 51,
                "duration": 0.16363636363635692,
                "tempo": 120.0
            },
            {
                "start_time": 144.31363636363636,
                "end_time": 144.39545454545453,
                "pitch": 45,
                "velocity": 51,
                "duration": 0.08181818181816425,
                "tempo": 120.0
            },
            {
                "start_time": 144.39545454545453,
                "end_time": 144.47727272727272,
                "pitch": 45,
                "velocity": 51,
                "duration": 0.08181818181819267,
                "tempo": 120.0
            },
            {
                "start_time": 144.51136363636363,
                "end_time": 144.6772727272727,
                "pitch": 29,
                "velocity": 51,
                "duration": 0.16590909090908212,
                "tempo": 120.0
            },
            {
                "start_time": 144.71136363636364,
                "end_time": 144.7931818181818,
                "pitch": 41,
                "velocity": 51,
                "duration": 0.08181818181816425,
                "tempo": 120.0
            },
            {
                "start_time": 144.7931818181818,
                "end_time": 144.87727272727273,
                "pitch": 41,
                "velocity": 51,
                "duration": 0.08409090909091788,
                "tempo": 120.0
            },
            {
                "start_time": 144.91136363636363,
                "end_time": 145.07954545454544,
                "pitch": 29,
                "velocity": 51,
                "duration": 0.16818181818180733,
                "tempo": 120.0
            },
            {
                "start_time": 145.11136363636362,
                "end_time": 145.19545454545454,
                "pitch": 41,
                "velocity": 51,
                "duration": 0.08409090909091788,
                "tempo": 120.0
            },
            {
                "start_time": 145.19545454545454,
                "end_time": 145.27954545454546,
                "pitch": 41,
                "velocity": 51,
                "duration": 0.08409090909091788,
                "tempo": 120.0
            },
            {
                "start_time": 145.31363636363636,
                "end_time": 145.48636363636362,
                "pitch": 29,
                "velocity": 51,
                "duration": 0.17272727272725774,
                "tempo": 120.0
            },
            {
                "start_time": 145.52045454545453,
                "end_time": 145.60454545454544,
                "pitch": 41,
                "velocity": 51,
                "duration": 0.08409090909091788,
                "tempo": 120.0
            },
            {
                "start_time": 145.60454545454544,
                "end_time": 145.6909090909091,
                "pitch": 41,
                "velocity": 51,
                "duration": 0.08636363636364308,
                "tempo": 120.0
            },
            {
                "start_time": 145.72272727272727,
                "end_time": 145.88636363636363,
                "pitch": 29,
                "velocity": 51,
                "duration": 0.16363636363635692,
                "tempo": 120.0
            },
            {
                "start_time": 145.92045454545453,
                "end_time": 146.00227272727273,
                "pitch": 41,
                "velocity": 51,
                "duration": 0.08181818181819267,
                "tempo": 120.0
            },
            {
                "start_time": 146.00227272727273,
                "end_time": 146.0840909090909,
                "pitch": 41,
                "velocity": 51,
                "duration": 0.08181818181816425,
                "tempo": 120.0
            },
            {
                "start_time": 146.11590909090907,
                "end_time": 146.2840909090909,
                "pitch": 29,
                "velocity": 51,
                "duration": 0.16818181818183575,
                "tempo": 120.0
            },
            {
                "start_time": 146.3181818181818,
                "end_time": 146.40227272727273,
                "pitch": 41,
                "velocity": 51,
                "duration": 0.08409090909091788,
                "tempo": 120.0
            },
            {
                "start_time": 146.40227272727273,
                "end_time": 146.48636363636362,
                "pitch": 41,
                "velocity": 51,
                "duration": 0.08409090909088945,
                "tempo": 120.0
            },
            {
                "start_time": 146.5181818181818,
                "end_time": 146.68636363636364,
                "pitch": 29,
                "velocity": 51,
                "duration": 0.16818181818183575,
                "tempo": 120.0
            },
            {
                "start_time": 146.71818181818182,
                "end_time": 146.8022727272727,
                "pitch": 41,
                "velocity": 51,
                "duration": 0.08409090909088945,
                "tempo": 120.0
            },
            {
                "start_time": 146.8022727272727,
                "end_time": 146.88636363636363,
                "pitch": 41,
                "velocity": 51,
                "duration": 0.08409090909091788,
                "tempo": 120.0
            },
            {
                "start_time": 146.92045454545453,
                "end_time": 147.0909090909091,
                "pitch": 29,
                "velocity": 51,
                "duration": 0.17045454545456096,
                "tempo": 120.0
            },
            {
                "start_time": 147.125,
                "end_time": 147.21136363636364,
                "pitch": 41,
                "velocity": 51,
                "duration": 0.08636363636364308,
                "tempo": 120.0
            },
            {
                "start_time": 147.21136363636364,
                "end_time": 147.29545454545453,
                "pitch": 41,
                "velocity": 51,
                "duration": 0.08409090909088945,
                "tempo": 120.0
            },
            {
                "start_time": 147.32954545454544,
                "end_time": 147.49318181818182,
                "pitch": 29,
                "velocity": 51,
                "duration": 0.16363636363638534,
                "tempo": 120.0
            },
            {
                "start_time": 147.525,
                "end_time": 147.60681818181817,
                "pitch": 41,
                "velocity": 51,
                "duration": 0.08181818181816425,
                "tempo": 120.0
            },
            {
                "start_time": 147.60681818181817,
                "end_time": 147.68863636363636,
                "pitch": 41,
                "velocity": 51,
                "duration": 0.08181818181819267,
                "tempo": 120.0
            },
            {
                "start_time": 147.72272727272727,
                "end_time": 147.89090909090908,
                "pitch": 31,
                "velocity": 51,
                "duration": 0.16818181818180733,
                "tempo": 120.0
            },
            {
                "start_time": 147.92272727272726,
                "end_time": 148.00681818181818,
                "pitch": 43,
                "velocity": 51,
                "duration": 0.08409090909091788,
                "tempo": 120.0
            },
            {
                "start_time": 148.00681818181818,
                "end_time": 148.0909090909091,
                "pitch": 43,
                "velocity": 51,
                "duration": 0.08409090909091788,
                "tempo": 120.0
            },
            {
                "start_time": 148.125,
                "end_time": 148.2931818181818,
                "pitch": 31,
                "velocity": 51,
                "duration": 0.16818181818180733,
                "tempo": 120.0
            },
            {
                "start_time": 148.325,
                "end_time": 148.4090909090909,
                "pitch": 43,
                "velocity": 51,
                "duration": 0.08409090909091788,
                "tempo": 120.0
            },
            {
                "start_time": 148.4090909090909,
                "end_time": 148.49318181818182,
                "pitch": 43,
                "velocity": 51,
                "duration": 0.08409090909091788,
                "tempo": 120.0
            },
            {
                "start_time": 148.52727272727273,
                "end_time": 148.7,
                "pitch": 31,
                "velocity": 51,
                "duration": 0.17272727272725774,
                "tempo": 120.0
            },
            {
                "start_time": 148.7340909090909,
                "end_time": 148.8181818181818,
                "pitch": 43,
                "velocity": 51,
                "duration": 0.08409090909091788,
                "tempo": 120.0
            },
            {
                "start_time": 148.8181818181818,
                "end_time": 148.90454545454546,
                "pitch": 43,
                "velocity": 51,
                "duration": 0.08636363636364308,
                "tempo": 120.0
            },
            {
                "start_time": 148.93636363636364,
                "end_time": 149.1,
                "pitch": 31,
                "velocity": 51,
                "duration": 0.16363636363635692,
                "tempo": 120.0
            },
            {
                "start_time": 149.1340909090909,
                "end_time": 149.2159090909091,
                "pitch": 43,
                "velocity": 51,
                "duration": 0.08181818181819267,
                "tempo": 120.0
            },
            {
                "start_time": 149.2159090909091,
                "end_time": 149.29772727272726,
                "pitch": 43,
                "velocity": 51,
                "duration": 0.08181818181816425,
                "tempo": 120.0
            },
            {
                "start_time": 149.32954545454544,
                "end_time": 149.49772727272727,
                "pitch": 31,
                "velocity": 51,
                "duration": 0.16818181818183575,
                "tempo": 120.0
            },
            {
                "start_time": 149.53181818181818,
                "end_time": 149.61590909090907,
                "pitch": 43,
                "velocity": 51,
                "duration": 0.08409090909088945,
                "tempo": 120.0
            },
            {
                "start_time": 149.61590909090907,
                "end_time": 149.7,
                "pitch": 43,
                "velocity": 51,
                "duration": 0.08409090909091788,
                "tempo": 120.0
            },
            {
                "start_time": 149.7340909090909,
                "end_time": 149.9,
                "pitch": 31,
                "velocity": 51,
                "duration": 0.16590909090911055,
                "tempo": 120.0
            },
            {
                "start_time": 149.9340909090909,
                "end_time": 150.0181818181818,
                "pitch": 43,
                "velocity": 51,
                "duration": 0.08409090909088945,
                "tempo": 120.0
            },
            {
                "start_time": 150.0181818181818,
                "end_time": 150.10227272727272,
                "pitch": 43,
                "velocity": 51,
                "duration": 0.08409090909091788,
                "tempo": 120.0
            },
            {
                "start_time": 150.13636363636363,
                "end_time": 150.3068181818182,
                "pitch": 31,
                "velocity": 51,
                "duration": 0.17045454545456096,
                "tempo": 120.0
            },
            {
                "start_time": 150.3409090909091,
                "end_time": 150.4272727272727,
                "pitch": 43,
                "velocity": 51,
                "duration": 0.08636363636361466,
                "tempo": 120.0
            },
            {
                "start_time": 150.4272727272727,
                "end_time": 150.51363636363635,
                "pitch": 43,
                "velocity": 51,
                "duration": 0.08636363636364308,
                "tempo": 120.0
            },
            {
                "start_time": 150.54772727272726,
                "end_time": 150.71363636363637,
                "pitch": 31,
                "velocity": 51,
                "duration": 0.16590909090911055,
                "tempo": 120.0
            },
            {
                "start_time": 150.74772727272727,
                "end_time": 150.83181818181816,
                "pitch": 43,
                "velocity": 51,
                "duration": 0.08409090909088945,
                "tempo": 120.0
            },
            {
                "start_time": 150.83181818181816,
                "end_time": 150.91590909090908,
                "pitch": 43,
                "velocity": 51,
                "duration": 0.08409090909091788,
                "tempo": 120.0
            },
            {
                "start_time": 150.94772727272726,
                "end_time": 151.11136363636362,
                "pitch": 33,
                "velocity": 51,
                "duration": 0.16363636363635692,
                "tempo": 120.0
            },
            {
                "start_time": 151.14545454545453,
                "end_time": 151.22727272727272,
                "pitch": 45,
                "velocity": 51,
                "duration": 0.08181818181819267,
                "tempo": 120.0
            },
            {
                "start_time": 151.22727272727272,
                "end_time": 151.3090909090909,
                "pitch": 45,
                "velocity": 51,
                "duration": 0.08181818181819267,
                "tempo": 120.0
            },
            {
                "start_time": 151.3409090909091,
                "end_time": 151.5090909090909,
                "pitch": 33,
                "velocity": 51,
                "duration": 0.16818181818180733,
                "tempo": 120.0
            },
            {
                "start_time": 151.5431818181818,
                "end_time": 151.62727272727273,
                "pitch": 45,
                "velocity": 51,
                "duration": 0.08409090909091788,
                "tempo": 120.0
            },
            {
                "start_time": 151.62727272727273,
                "end_time": 151.71136363636364,
                "pitch": 45,
                "velocity": 51,
                "duration": 0.08409090909091788,
                "tempo": 120.0
            },
            {
                "start_time": 151.74545454545455,
                "end_time": 151.91590909090908,
                "pitch": 33,
                "velocity": 51,
                "duration": 0.17045454545453254,
                "tempo": 120.0
            },
            {
                "start_time": 151.95,
                "end_time": 152.03636363636363,
                "pitch": 45,
                "velocity": 51,
                "duration": 0.08636363636364308,
                "tempo": 120.0
            },
            {
                "start_time": 152.03636363636363,
                "end_time": 152.12045454545455,
                "pitch": 45,
                "velocity": 51,
                "duration": 0.08409090909091788,
                "tempo": 120.0
            },
            {
                "start_time": 152.15454545454546,
                "end_time": 152.3181818181818,
                "pitch": 33,
                "velocity": 51,
                "duration": 0.16363636363635692,
                "tempo": 120.0
            },
            {
                "start_time": 152.35,
                "end_time": 152.4318181818182,
                "pitch": 45,
                "velocity": 51,
                "duration": 0.08181818181819267,
                "tempo": 120.0
            },
            {
                "start_time": 152.4318181818182,
                "end_time": 152.51363636363635,
                "pitch": 45,
                "velocity": 51,
                "duration": 0.08181818181816425,
                "tempo": 120.0
            },
            {
                "start_time": 152.54772727272726,
                "end_time": 152.71363636363637,
                "pitch": 33,
                "velocity": 51,
                "duration": 0.16590909090911055,
                "tempo": 120.0
            },
            {
                "start_time": 152.74772727272727,
                "end_time": 152.82954545454544,
                "pitch": 45,
                "velocity": 51,
                "duration": 0.08181818181816425,
                "tempo": 120.0
            },
            {
                "start_time": 152.82954545454544,
                "end_time": 152.91363636363636,
                "pitch": 45,
                "velocity": 51,
                "duration": 0.08409090909091788,
                "tempo": 120.0
            },
            {
                "start_time": 152.94772727272726,
                "end_time": 153.11590909090907,
                "pitch": 33,
                "velocity": 51,
                "duration": 0.16818181818180733,
                "tempo": 120.0
            },
            {
                "start_time": 153.14772727272725,
                "end_time": 153.23181818181817,
                "pitch": 45,
                "velocity": 51,
                "duration": 0.08409090909091788,
                "tempo": 120.0
            },
            {
                "start_time": 153.23181818181817,
                "end_time": 153.3159090909091,
                "pitch": 45,
                "velocity": 51,
                "duration": 0.08409090909091788,
                "tempo": 120.0
            },
            {
                "start_time": 153.35,
                "end_time": 153.5181818181818,
                "pitch": 33,
                "velocity": 51,
                "duration": 0.16818181818180733,
                "tempo": 120.0
            },
            {
                "start_time": 153.5522727272727,
                "end_time": 153.6340909090909,
                "pitch": 45,
                "velocity": 51,
                "duration": 0.08181818181819267,
                "tempo": 120.0
            },
            {
                "start_time": 153.6340909090909,
                "end_time": 153.71818181818182,
                "pitch": 45,
                "velocity": 51,
                "duration": 0.08409090909091788,
                "tempo": 120.0
            },
            {
                "start_time": 153.75227272727273,
                "end_time": 153.92045454545453,
                "pitch": 33,
                "velocity": 51,
                "duration": 0.16818181818180733,
                "tempo": 120.0
            },
            {
                "start_time": 153.95454545454544,
                "end_time": 154.03863636363636,
                "pitch": 45,
                "velocity": 51,
                "duration": 0.08409090909091788,
                "tempo": 120.0
            },
            {
                "start_time": 154.03863636363636,
                "end_time": 154.12272727272727,
                "pitch": 45,
                "velocity": 51,
                "duration": 0.08409090909091788,
                "tempo": 120.0
            },
            {
                "start_time": 154.15454545454546,
                "end_time": 154.32272727272726,
                "pitch": 33,
                "velocity": 51,
                "duration": 0.16818181818180733,
                "tempo": 120.0
            },
            {
                "start_time": 154.35681818181817,
                "end_time": 154.4409090909091,
                "pitch": 45,
                "velocity": 51,
                "duration": 0.08409090909091788,
                "tempo": 120.0
            },
            {
                "start_time": 154.4409090909091,
                "end_time": 154.525,
                "pitch": 45,
                "velocity": 51,
                "duration": 0.08409090909091788,
                "tempo": 120.0
            },
            {
                "start_time": 154.5568181818182,
                "end_time": 154.725,
                "pitch": 33,
                "velocity": 51,
                "duration": 0.16818181818180733,
                "tempo": 120.0
            },
            {
                "start_time": 154.75681818181818,
                "end_time": 154.8409090909091,
                "pitch": 45,
                "velocity": 51,
                "duration": 0.08409090909091788,
                "tempo": 120.0
            },
            {
                "start_time": 154.8409090909091,
                "end_time": 154.92499999999998,
                "pitch": 45,
                "velocity": 51,
                "duration": 0.08409090909088945,
                "tempo": 120.0
            },
            {
                "start_time": 154.9590909090909,
                "end_time": 155.12954545454545,
                "pitch": 33,
                "velocity": 51,
                "duration": 0.17045454545456096,
                "tempo": 120.0
            },
            {
                "start_time": 155.16363636363636,
                "end_time": 155.25,
                "pitch": 45,
                "velocity": 51,
                "duration": 0.08636363636364308,
                "tempo": 120.0
            },
            {
                "start_time": 155.25,
                "end_time": 155.3340909090909,
                "pitch": 45,
                "velocity": 51,
                "duration": 0.08409090909088945,
                "tempo": 120.0
            },
            {
                "start_time": 155.36818181818182,
                "end_time": 155.53181818181818,
                "pitch": 33,
                "velocity": 51,
                "duration": 0.16363636363635692,
                "tempo": 120.0
            },
            {
                "start_time": 155.56363636363636,
                "end_time": 155.64545454545453,
                "pitch": 45,
                "velocity": 51,
                "duration": 0.08181818181816425,
                "tempo": 120.0
            },
            {
                "start_time": 155.64545454545453,
                "end_time": 155.72727272727272,
                "pitch": 45,
                "velocity": 51,
                "duration": 0.08181818181819267,
                "tempo": 120.0
            },
            {
                "start_time": 155.76136363636363,
                "end_time": 155.92954545454543,
                "pitch": 33,
                "velocity": 51,
                "duration": 0.16818181818180733,
                "tempo": 120.0
            },
            {
                "start_time": 155.96136363636361,
                "end_time": 156.04545454545453,
                "pitch": 45,
                "velocity": 51,
                "duration": 0.08409090909091788,
                "tempo": 120.0
            },
            {
                "start_time": 156.04545454545453,
                "end_time": 156.12954545454545,
                "pitch": 45,
                "velocity": 51,
                "duration": 0.08409090909091788,
                "tempo": 120.0
            },
            {
                "start_time": 156.16363636363636,
                "end_time": 156.33181818181816,
                "pitch": 33,
                "velocity": 51,
                "duration": 0.16818181818180733,
                "tempo": 120.0
            },
            {
                "start_time": 156.36363636363635,
                "end_time": 156.44772727272726,
                "pitch": 45,
                "velocity": 51,
                "duration": 0.08409090909091788,
                "tempo": 120.0
            },
            {
                "start_time": 156.44772727272726,
                "end_time": 156.53181818181818,
                "pitch": 45,
                "velocity": 51,
                "duration": 0.08409090909091788,
                "tempo": 120.0
            },
            {
                "start_time": 156.5659090909091,
                "end_time": 156.73863636363635,
                "pitch": 33,
                "velocity": 51,
                "duration": 0.17272727272725774,
                "tempo": 120.0
            },
            {
                "start_time": 156.77272727272725,
                "end_time": 156.85681818181817,
                "pitch": 45,
                "velocity": 51,
                "duration": 0.08409090909091788,
                "tempo": 120.0
            },
            {
                "start_time": 156.85681818181817,
                "end_time": 156.9431818181818,
                "pitch": 45,
                "velocity": 51,
                "duration": 0.08636363636364308,
                "tempo": 120.0
            },
            {
                "start_time": 156.975,
                "end_time": 157.13863636363635,
                "pitch": 33,
                "velocity": 51,
                "duration": 0.16363636363635692,
                "tempo": 120.0
            },
            {
                "start_time": 157.17272727272726,
                "end_time": 157.25454545454545,
                "pitch": 45,
                "velocity": 51,
                "duration": 0.08181818181819267,
                "tempo": 120.0
            },
            {
                "start_time": 157.25454545454545,
                "end_time": 157.33636363636361,
                "pitch": 45,
                "velocity": 51,
                "duration": 0.08181818181816425,
                "tempo": 120.0
            },
            {
                "start_time": 157.36818181818182,
                "end_time": 157.53636363636363,
                "pitch": 29,
                "velocity": 51,
                "duration": 0.16818181818180733,
                "tempo": 120.0
            },
            {
                "start_time": 157.57045454545454,
                "end_time": 157.65454545454546,
                "pitch": 41,
                "velocity": 51,
                "duration": 0.08409090909091788,
                "tempo": 120.0
            },
            {
                "start_time": 157.65454545454546,
                "end_time": 157.73863636363635,
                "pitch": 41,
                "velocity": 51,
                "duration": 0.08409090909088945,
                "tempo": 120.0
            },
            {
                "start_time": 157.77272727272725,
                "end_time": 157.9431818181818,
                "pitch": 29,
                "velocity": 51,
                "duration": 0.17045454545456096,
                "tempo": 120.0
            },
            {
                "start_time": 157.97727272727272,
                "end_time": 158.06363636363636,
                "pitch": 41,
                "velocity": 51,
                "duration": 0.08636363636364308,
                "tempo": 120.0
            },
            {
                "start_time": 158.06363636363636,
                "end_time": 158.15,
                "pitch": 41,
                "velocity": 51,
                "duration": 0.08636363636364308,
                "tempo": 120.0
            },
            {
                "start_time": 158.1818181818182,
                "end_time": 158.35,
                "pitch": 29,
                "velocity": 51,
                "duration": 0.16818181818180733,
                "tempo": 120.0
            },
            {
                "start_time": 158.3840909090909,
                "end_time": 158.46818181818182,
                "pitch": 41,
                "velocity": 51,
                "duration": 0.08409090909091788,
                "tempo": 120.0
            },
            {
                "start_time": 158.46818181818182,
                "end_time": 158.5522727272727,
                "pitch": 41,
                "velocity": 51,
                "duration": 0.08409090909088945,
                "tempo": 120.0
            },
            {
                "start_time": 158.5840909090909,
                "end_time": 158.74772727272727,
                "pitch": 29,
                "velocity": 51,
                "duration": 0.16363636363638534,
                "tempo": 120.0
            },
            {
                "start_time": 158.77954545454546,
                "end_time": 158.86136363636362,
                "pitch": 41,
                "velocity": 51,
                "duration": 0.08181818181816425,
                "tempo": 120.0
            },
            {
                "start_time": 158.86136363636362,
                "end_time": 158.9431818181818,
                "pitch": 41,
                "velocity": 51,
                "duration": 0.08181818181819267,
                "tempo": 120.0
            },
            {
                "start_time": 158.97727272727272,
                "end_time": 159.14545454545453,
                "pitch": 29,
                "velocity": 51,
                "duration": 0.16818181818180733,
                "tempo": 120.0
            },
            {
                "start_time": 159.17954545454543,
                "end_time": 159.26363636363635,
                "pitch": 41,
                "velocity": 51,
                "duration": 0.08409090909091788,
                "tempo": 120.0
            },
            {
                "start_time": 159.26363636363635,
                "end_time": 159.34772727272727,
                "pitch": 41,
                "velocity": 51,
                "duration": 0.08409090909091788,
                "tempo": 120.0
            },
            {
                "start_time": 159.38181818181818,
                "end_time": 159.5522727272727,
                "pitch": 29,
                "velocity": 51,
                "duration": 0.17045454545453254,
                "tempo": 120.0
            },
            {
                "start_time": 159.58636363636361,
                "end_time": 159.67272727272726,
                "pitch": 41,
                "velocity": 51,
                "duration": 0.08636363636364308,
                "tempo": 120.0
            },
            {
                "start_time": 159.67272727272726,
                "end_time": 159.75681818181818,
                "pitch": 41,
                "velocity": 51,
                "duration": 0.08409090909091788,
                "tempo": 120.0
            },
            {
                "start_time": 159.79090909090908,
                "end_time": 159.9590909090909,
                "pitch": 29,
                "velocity": 51,
                "duration": 0.16818181818180733,
                "tempo": 120.0
            },
            {
                "start_time": 159.99318181818182,
                "end_time": 160.0772727272727,
                "pitch": 41,
                "velocity": 51,
                "duration": 0.08409090909088945,
                "tempo": 120.0
            },
            {
                "start_time": 160.0772727272727,
                "end_time": 160.16136363636363,
                "pitch": 41,
                "velocity": 51,
                "duration": 0.08409090909091788,
                "tempo": 120.0
            },
            {
                "start_time": 160.1931818181818,
                "end_time": 160.36136363636362,
                "pitch": 29,
                "velocity": 51,
                "duration": 0.16818181818180733,
                "tempo": 120.0
            },
            {
                "start_time": 160.39545454545453,
                "end_time": 160.47954545454544,
                "pitch": 41,
                "velocity": 51,
                "duration": 0.08409090909091788,
                "tempo": 120.0
            },
            {
                "start_time": 160.47954545454544,
                "end_time": 160.56363636363636,
                "pitch": 41,
                "velocity": 51,
                "duration": 0.08409090909091788,
                "tempo": 120.0
            },
            {
                "start_time": 160.59545454545454,
                "end_time": 160.7590909090909,
                "pitch": 31,
                "velocity": 51,
                "duration": 0.16363636363635692,
                "tempo": 120.0
            },
            {
                "start_time": 160.79090909090908,
                "end_time": 160.87272727272727,
                "pitch": 43,
                "velocity": 51,
                "duration": 0.08181818181819267,
                "tempo": 120.0
            },
            {
                "start_time": 160.87272727272727,
                "end_time": 160.95454545454544,
                "pitch": 43,
                "velocity": 51,
                "duration": 0.08181818181816425,
                "tempo": 120.0
            },
            {
                "start_time": 160.98863636363635,
                "end_time": 161.1590909090909,
                "pitch": 31,
                "velocity": 51,
                "duration": 0.17045454545456096,
                "tempo": 120.0
            },
            {
                "start_time": 161.19545454545454,
                "end_time": 161.27954545454546,
                "pitch": 43,
                "velocity": 51,
                "duration": 0.08409090909091788,
                "tempo": 120.0
            },
            {
                "start_time": 161.27954545454546,
                "end_time": 161.36590909090907,
                "pitch": 43,
                "velocity": 51,
                "duration": 0.08636363636361466,
                "tempo": 120.0
            },
            {
                "start_time": 161.4,
                "end_time": 161.5681818181818,
                "pitch": 31,
                "velocity": 51,
                "duration": 0.16818181818180733,
                "tempo": 120.0
            },
            {
                "start_time": 161.6,
                "end_time": 161.6840909090909,
                "pitch": 43,
                "velocity": 51,
                "duration": 0.08409090909091788,
                "tempo": 120.0
            },
            {
                "start_time": 161.6840909090909,
                "end_time": 161.7681818181818,
                "pitch": 43,
                "velocity": 51,
                "duration": 0.08409090909088945,
                "tempo": 120.0
            },
            {
                "start_time": 161.79999999999998,
                "end_time": 161.96363636363637,
                "pitch": 31,
                "velocity": 51,
                "duration": 0.16363636363638534,
                "tempo": 120.0
            },
            {
                "start_time": 161.99772727272727,
                "end_time": 162.07954545454544,
                "pitch": 43,
                "velocity": 51,
                "duration": 0.08181818181816425,
                "tempo": 120.0
            },
            {
                "start_time": 162.07954545454544,
                "end_time": 162.16136363636363,
                "pitch": 43,
                "velocity": 51,
                "duration": 0.08181818181819267,
                "tempo": 120.0
            },
            {
                "start_time": 162.1931818181818,
                "end_time": 162.36136363636362,
                "pitch": 31,
                "velocity": 51,
                "duration": 0.16818181818180733,
                "tempo": 120.0
            },
            {
                "start_time": 162.39545454545453,
                "end_time": 162.47954545454544,
                "pitch": 43,
                "velocity": 51,
                "duration": 0.08409090909091788,
                "tempo": 120.0
            },
            {
                "start_time": 162.47954545454544,
                "end_time": 162.56363636363636,
                "pitch": 43,
                "velocity": 51,
                "duration": 0.08409090909091788,
                "tempo": 120.0
            },
            {
                "start_time": 162.59772727272727,
                "end_time": 162.76363636363635,
                "pitch": 31,
                "velocity": 51,
                "duration": 0.16590909090908212,
                "tempo": 120.0
            },
            {
                "start_time": 162.79772727272726,
                "end_time": 162.87954545454545,
                "pitch": 43,
                "velocity": 51,
                "duration": 0.08181818181819267,
                "tempo": 120.0
            },
            {
                "start_time": 162.87954545454545,
                "end_time": 162.96363636363637,
                "pitch": 43,
                "velocity": 51,
                "duration": 0.08409090909091788,
                "tempo": 120.0
            },
            {
                "start_time": 162.99772727272727,
                "end_time": 163.1681818181818,
                "pitch": 31,
                "velocity": 51,
                "duration": 0.17045454545453254,
                "tempo": 120.0
            },
            {
                "start_time": 163.2022727272727,
                "end_time": 163.28863636363636,
                "pitch": 43,
                "velocity": 51,
                "duration": 0.08636363636364308,
                "tempo": 120.0
            },
            {
                "start_time": 163.28863636363636,
                "end_time": 163.375,
                "pitch": 43,
                "velocity": 51,
                "duration": 0.08636363636364308,
                "tempo": 120.0
            },
            {
                "start_time": 163.40681818181818,
                "end_time": 163.575,
                "pitch": 31,
                "velocity": 51,
                "duration": 0.16818181818180733,
                "tempo": 120.0
            },
            {
                "start_time": 163.6090909090909,
                "end_time": 163.6931818181818,
                "pitch": 43,
                "velocity": 51,
                "duration": 0.08409090909091788,
                "tempo": 120.0
            },
            {
                "start_time": 163.6931818181818,
                "end_time": 163.77727272727273,
                "pitch": 43,
                "velocity": 51,
                "duration": 0.08409090909091788,
                "tempo": 120.0
            },
            {
                "start_time": 163.8090909090909,
                "end_time": 163.97272727272727,
                "pitch": 33,
                "velocity": 51,
                "duration": 0.16363636363635692,
                "tempo": 120.0
            },
            {
                "start_time": 164.00454545454545,
                "end_time": 164.08636363636361,
                "pitch": 45,
                "velocity": 51,
                "duration": 0.08181818181816425,
                "tempo": 120.0
            },
            {
                "start_time": 164.08636363636361,
                "end_time": 164.1681818181818,
                "pitch": 45,
                "velocity": 51,
                "duration": 0.08181818181819267,
                "tempo": 120.0
            },
            {
                "start_time": 164.2022727272727,
                "end_time": 164.37045454545455,
                "pitch": 33,
                "velocity": 51,
                "duration": 0.16818181818183575,
                "tempo": 120.0
            },
            {
                "start_time": 164.40454545454546,
                "end_time": 164.48863636363635,
                "pitch": 45,
                "velocity": 51,
                "duration": 0.08409090909088945,
                "tempo": 120.0
            },
            {
                "start_time": 164.48863636363635,
                "end_time": 164.57272727272726,
                "pitch": 45,
                "velocity": 51,
                "duration": 0.08409090909091788,
                "tempo": 120.0
            },
            {
                "start_time": 164.60681818181817,
                "end_time": 164.77727272727273,
                "pitch": 33,
                "velocity": 51,
                "duration": 0.17045454545456096,
                "tempo": 120.0
            },
            {
                "start_time": 164.81136363636364,
                "end_time": 164.89772727272725,
                "pitch": 45,
                "velocity": 51,
                "duration": 0.08636363636361466,
                "tempo": 120.0
            },
            {
                "start_time": 164.89772727272725,
                "end_time": 164.98181818181817,
                "pitch": 45,
                "velocity": 51,
                "duration": 0.08409090909091788,
                "tempo": 120.0
            },
            {
                "start_time": 165.01590909090908,
                "end_time": 165.17954545454543,
                "pitch": 33,
                "velocity": 51,
                "duration": 0.16363636363635692,
                "tempo": 120.0
            },
            {
                "start_time": 165.21136363636361,
                "end_time": 165.2931818181818,
                "pitch": 45,
                "velocity": 51,
                "duration": 0.08181818181819267,
                "tempo": 120.0
            },
            {
                "start_time": 165.2931818181818,
                "end_time": 165.375,
                "pitch": 45,
                "velocity": 51,
                "duration": 0.08181818181819267,
                "tempo": 120.0
            },
            {
                "start_time": 165.4090909090909,
                "end_time": 165.575,
                "pitch": 33,
                "velocity": 51,
                "duration": 0.16590909090908212,
                "tempo": 120.0
            },
            {
                "start_time": 165.6090909090909,
                "end_time": 165.6931818181818,
                "pitch": 45,
                "velocity": 51,
                "duration": 0.08409090909091788,
                "tempo": 120.0
            },
            {
                "start_time": 165.6931818181818,
                "end_time": 165.77727272727273,
                "pitch": 45,
                "velocity": 51,
                "duration": 0.08409090909091788,
                "tempo": 120.0
            },
            {
                "start_time": 165.81136363636364,
                "end_time": 165.97954545454544,
                "pitch": 33,
                "velocity": 51,
                "duration": 0.16818181818180733,
                "tempo": 120.0
            },
            {
                "start_time": 166.01136363636363,
                "end_time": 166.09545454545454,
                "pitch": 45,
                "velocity": 51,
                "duration": 0.08409090909091788,
                "tempo": 120.0
            },
            {
                "start_time": 166.09545454545454,
                "end_time": 166.17954545454543,
                "pitch": 45,
                "velocity": 51,
                "duration": 0.08409090909088945,
                "tempo": 120.0
            },
            {
                "start_time": 166.21363636363637,
                "end_time": 166.38181818181818,
                "pitch": 33,
                "velocity": 51,
                "duration": 0.16818181818180733,
                "tempo": 120.0
            },
            {
                "start_time": 166.41590909090908,
                "end_time": 166.49772727272727,
                "pitch": 45,
                "velocity": 51,
                "duration": 0.08181818181819267,
                "tempo": 120.0
            },
            {
                "start_time": 166.49772727272727,
                "end_time": 166.58181818181816,
                "pitch": 45,
                "velocity": 51,
                "duration": 0.08409090909088945,
                "tempo": 120.0
            },
            {
                "start_time": 166.61590909090907,
                "end_time": 166.78181818181818,
                "pitch": 33,
                "velocity": 51,
                "duration": 0.16590909090911055,
                "tempo": 120.0
            },
            {
                "start_time": 166.8159090909091,
                "end_time": 166.9,
                "pitch": 45,
                "velocity": 51,
                "duration": 0.08409090909091788,
                "tempo": 120.0
            },
            {
                "start_time": 166.9,
                "end_time": 166.98181818181817,
                "pitch": 45,
                "velocity": 51,
                "duration": 0.08181818181816425,
                "tempo": 120.0
            },
            {
                "start_time": 167.01590909090908,
                "end_time": 167.1840909090909,
                "pitch": 33,
                "velocity": 51,
                "duration": 0.16818181818183575,
                "tempo": 120.0
            },
            {
                "start_time": 167.21818181818182,
                "end_time": 167.3022727272727,
                "pitch": 45,
                "velocity": 51,
                "duration": 0.08409090909088945,
                "tempo": 120.0
            },
            {
                "start_time": 167.3022727272727,
                "end_time": 167.38636363636363,
                "pitch": 45,
                "velocity": 51,
                "duration": 0.08409090909091788,
                "tempo": 120.0
            },
            {
                "start_time": 167.42045454545453,
                "end_time": 167.5909090909091,
                "pitch": 33,
                "velocity": 51,
                "duration": 0.17045454545456096,
                "tempo": 120.0
            },
            {
                "start_time": 167.625,
                "end_time": 167.71136363636361,
                "pitch": 45,
                "velocity": 51,
                "duration": 0.08636363636361466,
                "tempo": 120.0
            },
            {
                "start_time": 167.71136363636361,
                "end_time": 167.79545454545453,
                "pitch": 45,
                "velocity": 51,
                "duration": 0.08409090909091788,
                "tempo": 120.0
            },
            {
                "start_time": 167.82954545454544,
                "end_time": 167.99772727272727,
                "pitch": 33,
                "velocity": 51,
                "duration": 0.16818181818183575,
                "tempo": 120.0
            },
            {
                "start_time": 168.03181818181818,
                "end_time": 168.11590909090907,
                "pitch": 45,
                "velocity": 51,
                "duration": 0.08409090909088945,
                "tempo": 120.0
            },
            {
                "start_time": 168.11590909090907,
                "end_time": 168.2,
                "pitch": 45,
                "velocity": 51,
                "duration": 0.08409090909091788,
                "tempo": 120.0
            },
            {
                "start_time": 168.23181818181817,
                "end_time": 168.39545454545453,
                "pitch": 33,
                "velocity": 51,
                "duration": 0.16363636363635692,
                "tempo": 120.0
            },
            {
                "start_time": 168.4272727272727,
                "end_time": 168.5090909090909,
                "pitch": 45,
                "velocity": 51,
                "duration": 0.08181818181819267,
                "tempo": 120.0
            },
            {
                "start_time": 168.5090909090909,
                "end_time": 168.5909090909091,
                "pitch": 45,
                "velocity": 51,
                "duration": 0.08181818181819267,
                "tempo": 120.0
            },
            {
                "start_time": 168.625,
                "end_time": 168.79090909090908,
                "pitch": 33,
                "velocity": 51,
                "duration": 0.16590909090908212,
                "tempo": 120.0
            },
            {
                "start_time": 168.825,
                "end_time": 168.90681818181818,
                "pitch": 45,
                "velocity": 51,
                "duration": 0.08181818181819267,
                "tempo": 120.0
            },
            {
                "start_time": 168.90681818181818,
                "end_time": 168.99090909090907,
                "pitch": 45,
                "velocity": 51,
                "duration": 0.08409090909088945,
                "tempo": 120.0
            },
            {
                "start_time": 169.025,
                "end_time": 169.1931818181818,
                "pitch": 33,
                "velocity": 51,
                "duration": 0.16818181818180733,
                "tempo": 120.0
            },
            {
                "start_time": 169.225,
                "end_time": 169.3090909090909,
                "pitch": 45,
                "velocity": 51,
                "duration": 0.08409090909091788,
                "tempo": 120.0
            },
            {
                "start_time": 169.3090909090909,
                "end_time": 169.3931818181818,
                "pitch": 45,
                "velocity": 51,
                "duration": 0.08409090909088945,
                "tempo": 120.0
            },
            {
                "start_time": 169.4272727272727,
                "end_time": 169.6,
                "pitch": 33,
                "velocity": 51,
                "duration": 0.17272727272728616,
                "tempo": 120.0
            },
            {
                "start_time": 169.6340909090909,
                "end_time": 169.71818181818182,
                "pitch": 45,
                "velocity": 51,
                "duration": 0.08409090909091788,
                "tempo": 120.0
            },
            {
                "start_time": 169.71818181818182,
                "end_time": 169.80454545454543,
                "pitch": 45,
                "velocity": 51,
                "duration": 0.08636363636361466,
                "tempo": 120.0
            },
            {
                "start_time": 169.83636363636361,
                "end_time": 170.0,
                "pitch": 33,
                "velocity": 51,
                "duration": 0.16363636363638534,
                "tempo": 120.0
            },
            {
                "start_time": 170.0340909090909,
                "end_time": 170.11590909090907,
                "pitch": 45,
                "velocity": 51,
                "duration": 0.08181818181816425,
                "tempo": 120.0
            },
            {
                "start_time": 170.11590909090907,
                "end_time": 170.19772727272726,
                "pitch": 45,
                "velocity": 51,
                "duration": 0.08181818181819267,
                "tempo": 120.0
            },
            {
                "start_time": 170.22954545454544,
                "end_time": 170.39772727272725,
                "pitch": 29,
                "velocity": 51,
                "duration": 0.16818181818180733,
                "tempo": 120.0
            },
            {
                "start_time": 170.4318181818182,
                "end_time": 170.51590909090908,
                "pitch": 41,
                "velocity": 51,
                "duration": 0.08409090909088945,
                "tempo": 120.0
            },
            {
                "start_time": 170.51590909090908,
                "end_time": 170.6,
                "pitch": 41,
                "velocity": 51,
                "duration": 0.08409090909091788,
                "tempo": 120.0
            },
            {
                "start_time": 170.63181818181818,
                "end_time": 170.79999999999998,
                "pitch": 29,
                "velocity": 51,
                "duration": 0.16818181818180733,
                "tempo": 120.0
            },
            {
                "start_time": 170.83181818181816,
                "end_time": 170.91590909090908,
                "pitch": 41,
                "velocity": 51,
                "duration": 0.08409090909091788,
                "tempo": 120.0
            },
            {
                "start_time": 170.91590909090908,
                "end_time": 171.0,
                "pitch": 41,
                "velocity": 51,
                "duration": 0.08409090909091788,
                "tempo": 120.0
            },
            {
                "start_time": 171.0340909090909,
                "end_time": 171.20454545454544,
                "pitch": 29,
                "velocity": 51,
                "duration": 0.17045454545453254,
                "tempo": 120.0
            },
            {
                "start_time": 171.23863636363635,
                "end_time": 171.325,
                "pitch": 41,
                "velocity": 51,
                "duration": 0.08636363636364308,
                "tempo": 120.0
            },
            {
                "start_time": 171.325,
                "end_time": 171.4090909090909,
                "pitch": 41,
                "velocity": 51,
                "duration": 0.08409090909091788,
                "tempo": 120.0
            },
            {
                "start_time": 171.4431818181818,
                "end_time": 171.60681818181817,
                "pitch": 29,
                "velocity": 51,
                "duration": 0.16363636363635692,
                "tempo": 120.0
            },
            {
                "start_time": 171.63863636363635,
                "end_time": 171.72045454545454,
                "pitch": 41,
                "velocity": 51,
                "duration": 0.08181818181819267,
                "tempo": 120.0
            },
            {
                "start_time": 171.72045454545454,
                "end_time": 171.8022727272727,
                "pitch": 41,
                "velocity": 51,
                "duration": 0.08181818181816425,
                "tempo": 120.0
            },
            {
                "start_time": 171.83636363636361,
                "end_time": 172.00454545454545,
                "pitch": 29,
                "velocity": 51,
                "duration": 0.16818181818183575,
                "tempo": 120.0
            },
            {
                "start_time": 172.03636363636363,
                "end_time": 172.12045454545455,
                "pitch": 41,
                "velocity": 51,
                "duration": 0.08409090909091788,
                "tempo": 120.0
            },
            {
                "start_time": 172.12045454545455,
                "end_time": 172.20454545454544,
                "pitch": 41,
                "velocity": 51,
                "duration": 0.08409090909088945,
                "tempo": 120.0
            },
            {
                "start_time": 172.23863636363635,
                "end_time": 172.40681818181818,
                "pitch": 29,
                "velocity": 51,
                "duration": 0.16818181818183575,
                "tempo": 120.0
            },
            {
                "start_time": 172.4409090909091,
                "end_time": 172.52272727272725,
                "pitch": 41,
                "velocity": 51,
                "duration": 0.08181818181816425,
                "tempo": 120.0
            },
            {
                "start_time": 172.52272727272725,
                "end_time": 172.60681818181817,
                "pitch": 41,
                "velocity": 51,
                "duration": 0.08409090909091788,
                "tempo": 120.0
            },
            {
                "start_time": 172.64090909090908,
                "end_time": 172.81363636363636,
                "pitch": 29,
                "velocity": 51,
                "duration": 0.17272727272728616,
                "tempo": 120.0
            },
            {
                "start_time": 172.84772727272727,
                "end_time": 172.9318181818182,
                "pitch": 41,
                "velocity": 51,
                "duration": 0.08409090909091788,
                "tempo": 120.0
            },
            {
                "start_time": 172.9318181818182,
                "end_time": 173.0181818181818,
                "pitch": 41,
                "velocity": 51,
                "duration": 0.08636363636361466,
                "tempo": 120.0
            },
            {
                "start_time": 173.04999999999998,
                "end_time": 173.21363636363637,
                "pitch": 29,
                "velocity": 51,
                "duration": 0.16363636363638534,
                "tempo": 120.0
            },
            {
                "start_time": 173.24772727272727,
                "end_time": 173.32954545454544,
                "pitch": 41,
                "velocity": 51,
                "duration": 0.08181818181816425,
                "tempo": 120.0
            },
            {
                "start_time": 173.32954545454544,
                "end_time": 173.41136363636363,
                "pitch": 41,
                "velocity": 51,
                "duration": 0.08181818181819267,
                "tempo": 120.0
            },
            {
                "start_time": 173.4431818181818,
                "end_time": 173.61136363636362,
                "pitch": 31,
                "velocity": 51,
                "duration": 0.16818181818180733,
                "tempo": 120.0
            },
            {
                "start_time": 173.64545454545453,
                "end_time": 173.72954545454544,
                "pitch": 43,
                "velocity": 51,
                "duration": 0.08409090909091788,
                "tempo": 120.0
            },
            {
                "start_time": 173.72954545454544,
                "end_time": 173.81363636363636,
                "pitch": 43,
                "velocity": 51,
                "duration": 0.08409090909091788,
                "tempo": 120.0
            },
            {
                "start_time": 173.84772727272727,
                "end_time": 174.01363636363635,
                "pitch": 31,
                "velocity": 51,
                "duration": 0.16590909090908212,
                "tempo": 120.0
            },
            {
                "start_time": 174.04772727272726,
                "end_time": 174.13181818181818,
                "pitch": 43,
                "velocity": 51,
                "duration": 0.08409090909091788,
                "tempo": 120.0
            },
            {
                "start_time": 174.13181818181818,
                "end_time": 174.2159090909091,
                "pitch": 43,
                "velocity": 51,
                "duration": 0.08409090909091788,
                "tempo": 120.0
            },
            {
                "start_time": 174.25,
                "end_time": 174.42045454545453,
                "pitch": 31,
                "velocity": 51,
                "duration": 0.17045454545453254,
                "tempo": 120.0
            },
            {
                "start_time": 174.45454545454544,
                "end_time": 174.54090909090908,
                "pitch": 43,
                "velocity": 51,
                "duration": 0.08636363636364308,
                "tempo": 120.0
            },
            {
                "start_time": 174.54090909090908,
                "end_time": 174.62727272727273,
                "pitch": 43,
                "velocity": 51,
                "duration": 0.08636363636364308,
                "tempo": 120.0
            },
            {
                "start_time": 174.6590909090909,
                "end_time": 174.82272727272726,
                "pitch": 31,
                "velocity": 51,
                "duration": 0.16363636363635692,
                "tempo": 120.0
            },
            {
                "start_time": 174.85454545454544,
                "end_time": 174.93636363636364,
                "pitch": 43,
                "velocity": 51,
                "duration": 0.08181818181819267,
                "tempo": 120.0
            },
            {
                "start_time": 174.93636363636364,
                "end_time": 175.0181818181818,
                "pitch": 43,
                "velocity": 51,
                "duration": 0.08181818181816425,
                "tempo": 120.0
            },
            {
                "start_time": 175.0522727272727,
                "end_time": 175.22045454545454,
                "pitch": 31,
                "velocity": 51,
                "duration": 0.16818181818183575,
                "tempo": 120.0
            },
            {
                "start_time": 175.25454545454545,
                "end_time": 175.33863636363637,
                "pitch": 43,
                "velocity": 51,
                "duration": 0.08409090909091788,
                "tempo": 120.0
            },
            {
                "start_time": 175.33863636363637,
                "end_time": 175.42045454545453,
                "pitch": 43,
                "velocity": 51,
                "duration": 0.08181818181816425,
                "tempo": 120.0
            },
            {
                "start_time": 175.45454545454544,
                "end_time": 175.62272727272727,
                "pitch": 31,
                "velocity": 51,
                "duration": 0.16818181818183575,
                "tempo": 120.0
            },
            {
                "start_time": 175.65681818181818,
                "end_time": 175.74090909090907,
                "pitch": 43,
                "velocity": 51,
                "duration": 0.08409090909088945,
                "tempo": 120.0
            },
            {
                "start_time": 175.74090909090907,
                "end_time": 175.825,
                "pitch": 43,
                "velocity": 51,
                "duration": 0.08409090909091788,
                "tempo": 120.0
            },
            {
                "start_time": 175.8590909090909,
                "end_time": 176.02954545454546,
                "pitch": 31,
                "velocity": 51,
                "duration": 0.17045454545456096,
                "tempo": 120.0
            },
            {
                "start_time": 176.06363636363636,
                "end_time": 176.14999999999998,
                "pitch": 43,
                "velocity": 51,
                "duration": 0.08636363636361466,
                "tempo": 120.0
            },
            {
                "start_time": 176.14999999999998,
                "end_time": 176.2340909090909,
                "pitch": 43,
                "velocity": 51,
                "duration": 0.08409090909091788,
                "tempo": 120.0
            },
            {
                "start_time": 176.2681818181818,
                "end_time": 176.43636363636364,
                "pitch": 31,
                "velocity": 51,
                "duration": 0.16818181818183575,
                "tempo": 120.0
            },
            {
                "start_time": 176.47045454545454,
                "end_time": 176.55454545454543,
                "pitch": 43,
                "velocity": 51,
                "duration": 0.08409090909088945,
                "tempo": 120.0
            },
            {
                "start_time": 176.55454545454543,
                "end_time": 176.63863636363635,
                "pitch": 43,
                "velocity": 51,
                "duration": 0.08409090909091788,
                "tempo": 120.0
            },
            {
                "start_time": 176.67045454545453,
                "end_time": 176.8340909090909,
                "pitch": 33,
                "velocity": 51,
                "duration": 0.16363636363635692,
                "tempo": 120.0
            },
            {
                "start_time": 176.86590909090907,
                "end_time": 177.02954545454546,
                "pitch": 45,
                "velocity": 51,
                "duration": 0.16363636363638534,
                "tempo": 120.0
            },
            {
                "start_time": 177.06363636363636,
                "end_time": 177.23181818181817,
                "pitch": 33,
                "velocity": 51,
                "duration": 0.16818181818180733,
                "tempo": 120.0
            },
            {
                "start_time": 177.26590909090908,
                "end_time": 177.4318181818182,
                "pitch": 45,
                "velocity": 51,
                "duration": 0.16590909090911055,
                "tempo": 120.0
            },
            {
                "start_time": 177.4659090909091,
                "end_time": 177.63863636363635,
                "pitch": 33,
                "velocity": 51,
                "duration": 0.17272727272725774,
                "tempo": 120.0
            },
            {
                "start_time": 177.67272727272726,
                "end_time": 177.84318181818182,
                "pitch": 45,
                "velocity": 51,
                "duration": 0.17045454545456096,
                "tempo": 120.0
            },
            {
                "start_time": 177.875,
                "end_time": 178.03863636363636,
                "pitch": 33,
                "velocity": 51,
                "duration": 0.16363636363635692,
                "tempo": 120.0
            },
            {
                "start_time": 178.07272727272726,
                "end_time": 178.23636363636362,
                "pitch": 45,
                "velocity": 51,
                "duration": 0.16363636363635692,
                "tempo": 120.0
            },
            {
                "start_time": 178.47045454545454,
                "end_time": 178.63863636363635,
                "pitch": 29,
                "velocity": 51,
                "duration": 0.16818181818180733,
                "tempo": 120.0
            },
            {
                "start_time": 178.67272727272726,
                "end_time": 178.83863636363637,
                "pitch": 29,
                "velocity": 51,
                "duration": 0.16590909090911055,
                "tempo": 120.0
            },
            {
                "start_time": 179.07272727272726,
                "end_time": 179.23863636363635,
                "pitch": 31,
                "velocity": 51,
                "duration": 0.16590909090908212,
                "tempo": 120.0
            },
            {
                "start_time": 179.27272727272725,
                "end_time": 179.4409090909091,
                "pitch": 31,
                "velocity": 51,
                "duration": 0.16818181818183575,
                "tempo": 120.0
            }
        ],
        "Vibraphone": [
            {
                "start_time": 26.302272727272726,
                "end_time": 26.470454545454544,
                "pitch": 71,
                "velocity": 64,
                "duration": 0.168181818181818,
                "tempo": 120.0
            },
            {
                "start_time": 26.913636363636364,
                "end_time": 27.472727272727273,
                "pitch": 74,
                "velocity": 64,
                "duration": 0.5590909090909086,
                "tempo": 120.0
            },
            {
                "start_time": 27.50681818181818,
                "end_time": 27.672727272727272,
                "pitch": 72,
                "velocity": 64,
                "duration": 0.16590909090909278,
                "tempo": 120.0
            },
            {
                "start_time": 28.10681818181818,
                "end_time": 28.277272727272727,
                "pitch": 71,
                "velocity": 64,
                "duration": 0.17045454545454675,
                "tempo": 120.0
            },
            {
                "start_time": 28.311363636363634,
                "end_time": 28.48409090909091,
                "pitch": 72,
                "velocity": 64,
                "duration": 0.1727272727272755,
                "tempo": 120.0
            },
            {
                "start_time": 28.909090909090907,
                "end_time": 29.477272727272727,
                "pitch": 72,
                "velocity": 64,
                "duration": 0.5681818181818201,
                "tempo": 120.0
            },
            {
                "start_time": 29.511363636363637,
                "end_time": 29.677272727272726,
                "pitch": 70,
                "velocity": 64,
                "duration": 0.16590909090908923,
                "tempo": 120.0
            },
            {
                "start_time": 30.120454545454542,
                "end_time": 30.68181818181818,
                "pitch": 74,
                "velocity": 64,
                "duration": 0.5613636363636374,
                "tempo": 120.0
            },
            {
                "start_time": 30.71363636363636,
                "end_time": 30.88181818181818,
                "pitch": 72,
                "velocity": 64,
                "duration": 0.168181818181818,
                "tempo": 120.0
            },
            {
                "start_time": 31.318181818181817,
                "end_time": 31.488636363636363,
                "pitch": 70,
                "velocity": 64,
                "duration": 0.17045454545454675,
                "tempo": 120.0
            },
            {
                "start_time": 31.52272727272727,
                "end_time": 31.693181818181817,
                "pitch": 72,
                "velocity": 64,
                "duration": 0.17045454545454675,
                "tempo": 120.0
            },
            {
                "start_time": 32.12045454545454,
                "end_time": 32.69090909090909,
                "pitch": 72,
                "velocity": 64,
                "duration": 0.5704545454545453,
                "tempo": 120.0
            },
            {
                "start_time": 32.725,
                "end_time": 32.89090909090909,
                "pitch": 71,
                "velocity": 64,
                "duration": 0.16590909090908923,
                "tempo": 120.0
            },
            {
                "start_time": 33.33409090909091,
                "end_time": 33.89545454545454,
                "pitch": 74,
                "velocity": 64,
                "duration": 0.5613636363636303,
                "tempo": 120.0
            },
            {
                "start_time": 33.92727272727272,
                "end_time": 34.095454545454544,
                "pitch": 72,
                "velocity": 64,
                "duration": 0.16818181818182154,
                "tempo": 120.0
            },
            {
                "start_time": 34.527272727272724,
                "end_time": 34.89772727272727,
                "pitch": 71,
                "velocity": 64,
                "duration": 0.3704545454545496,
                "tempo": 120.0
            },
            {
                "start_time": 34.93181818181818,
                "end_time": 35.309090909090905,
                "pitch": 72,
                "velocity": 64,
                "duration": 0.3772727272727252,
                "tempo": 120.0
            },
            {
                "start_time": 35.340909090909086,
                "end_time": 36.1,
                "pitch": 72,
                "velocity": 64,
                "duration": 0.759090909090915,
                "tempo": 120.0
            },
            {
                "start_time": 36.33409090909091,
                "end_time": 36.5,
                "pitch": 74,
                "velocity": 64,
                "duration": 0.16590909090908923,
                "tempo": 120.0
            },
            {
                "start_time": 36.53409090909091,
                "end_time": 36.70227272727273,
                "pitch": 76,
                "velocity": 64,
                "duration": 0.16818181818182154,
                "tempo": 120.0
            },
            {
                "start_time": 36.73409090909091,
                "end_time": 37.70227272727273,
                "pitch": 74,
                "velocity": 64,
                "duration": 0.9681818181818187,
                "tempo": 120.0
            },
            {
                "start_time": 37.736363636363635,
                "end_time": 38.10227272727273,
                "pitch": 72,
                "velocity": 64,
                "duration": 0.36590909090909207,
                "tempo": 120.0
            },
            {
                "start_time": 38.13636363636363,
                "end_time": 38.502272727272725,
                "pitch": 74,
                "velocity": 64,
                "duration": 0.36590909090909207,
                "tempo": 120.0
            },
            {
                "start_time": 38.53636363636363,
                "end_time": 39.10454545454545,
                "pitch": 72,
                "velocity": 64,
                "duration": 0.5681818181818201,
                "tempo": 120.0
            },
            {
                "start_time": 39.13863636363636,
                "end_time": 39.304545454545455,
                "pitch": 71,
                "velocity": 64,
                "duration": 0.16590909090909634,
                "tempo": 120.0
            },
            {
                "start_time": 39.75,
                "end_time": 40.309090909090905,
                "pitch": 74,
                "velocity": 64,
                "duration": 0.5590909090909051,
                "tempo": 120.0
            },
            {
                "start_time": 40.340909090909086,
                "end_time": 40.50909090909091,
                "pitch": 72,
                "velocity": 64,
                "duration": 0.16818181818182154,
                "tempo": 120.0
            },
            {
                "start_time": 40.95227272727273,
                "end_time": 41.12045454545454,
                "pitch": 71,
                "velocity": 64,
                "duration": 0.16818181818181444,
                "tempo": 120.0
            },
            {
                "start_time": 41.152272727272724,
                "end_time": 41.320454545454545,
                "pitch": 72,
                "velocity": 64,
                "duration": 0.16818181818182154,
                "tempo": 120.0
            },
            {
                "start_time": 41.74545454545454,
                "end_time": 42.31136363636364,
                "pitch": 72,
                "velocity": 64,
                "duration": 0.5659090909090949,
                "tempo": 120.0
            },
            {
                "start_time": 42.345454545454544,
                "end_time": 42.51136363636363,
                "pitch": 70,
                "velocity": 64,
                "duration": 0.16590909090908923,
                "tempo": 120.0
            },
            {
                "start_time": 42.95454545454545,
                "end_time": 43.51363636363636,
                "pitch": 74,
                "velocity": 64,
                "duration": 0.5590909090909051,
                "tempo": 120.0
            },
            {
                "start_time": 43.54772727272727,
                "end_time": 43.71363636363636,
                "pitch": 72,
                "velocity": 64,
                "duration": 0.16590909090908923,
                "tempo": 120.0
            },
            {
                "start_time": 44.14772727272727,
                "end_time": 44.320454545454545,
                "pitch": 70,
                "velocity": 64,
                "duration": 0.17272727272727195,
                "tempo": 120.0
            },
            {
                "start_time": 44.35454545454545,
                "end_time": 44.525,
                "pitch": 72,
                "velocity": 64,
                "duration": 0.17045454545454675,
                "tempo": 120.0
            },
            {
                "start_time": 44.949999999999996,
                "end_time": 45.518181818181816,
                "pitch": 72,
                "velocity": 64,
                "duration": 0.5681818181818201,
                "tempo": 120.0
            },
            {
                "start_time": 45.55,
                "end_time": 45.71818181818182,
                "pitch": 71,
                "velocity": 64,
                "duration": 0.16818181818182154,
                "tempo": 120.0
            },
            {
                "start_time": 46.16136363636363,
                "end_time": 46.720454545454544,
                "pitch": 74,
                "velocity": 64,
                "duration": 0.5590909090909122,
                "tempo": 120.0
            },
            {
                "start_time": 46.75454545454545,
                "end_time": 46.92272727272727,
                "pitch": 72,
                "velocity": 64,
                "duration": 0.16818181818182154,
                "tempo": 120.0
            },
            {
                "start_time": 47.35681818181818,
                "end_time": 47.72272727272727,
                "pitch": 71,
                "velocity": 64,
                "duration": 0.36590909090909207,
                "tempo": 120.0
            },
            {
                "start_time": 47.75681818181818,
                "end_time": 48.13409090909091,
                "pitch": 72,
                "velocity": 64,
                "duration": 0.3772727272727252,
                "tempo": 120.0
            },
            {
                "start_time": 48.16590909090909,
                "end_time": 48.92727272727272,
                "pitch": 72,
                "velocity": 64,
                "duration": 0.7613636363636331,
                "tempo": 120.0
            },
            {
                "start_time": 49.16136363636363,
                "end_time": 49.32727272727273,
                "pitch": 74,
                "velocity": 64,
                "duration": 0.16590909090909634,
                "tempo": 120.0
            },
            {
                "start_time": 49.361363636363635,
                "end_time": 49.527272727272724,
                "pitch": 76,
                "velocity": 64,
                "duration": 0.16590909090908923,
                "tempo": 120.0
            },
            {
                "start_time": 49.56136363636364,
                "end_time": 50.527272727272724,
                "pitch": 74,
                "velocity": 64,
                "duration": 0.9659090909090864,
                "tempo": 120.0
            },
            {
                "start_time": 50.56136363636364,
                "end_time": 50.93181818181818,
                "pitch": 72,
                "velocity": 64,
                "duration": 0.3704545454545425,
                "tempo": 120.0
            },
            {
                "start_time": 50.96363636363636,
                "end_time": 51.33181818181818,
                "pitch": 74,
                "velocity": 64,
                "duration": 0.3681818181818173,
                "tempo": 120.0
            },
            {
                "start_time": 51.36363636363636,
                "end_time": 54.13636363636363,
                "pitch": 76,
                "velocity": 64,
                "duration": 2.7727272727272734,
                "tempo": 120.0
            },
            {
                "start_time": 54.17045454545454,
                "end_time": 54.54772727272727,
                "pitch": 74,
                "velocity": 64,
                "duration": 0.3772727272727323,
                "tempo": 120.0
            },
            {
                "start_time": 54.57954545454545,
                "end_time": 56.13863636363636,
                "pitch": 73,
                "velocity": 64,
                "duration": 1.559090909090905,
                "tempo": 120.0
            },
            {
                "start_time": 56.17272727272727,
                "end_time": 56.94090909090909,
                "pitch": 70,
                "velocity": 64,
                "duration": 0.7681818181818159,
                "tempo": 120.0
            },
            {
                "start_time": 56.974999999999994,
                "end_time": 57.340909090909086,
                "pitch": 69,
                "velocity": 64,
                "duration": 0.36590909090909207,
                "tempo": 120.0
            },
            {
                "start_time": 57.375,
                "end_time": 57.740909090909085,
                "pitch": 67,
                "velocity": 64,
                "duration": 0.36590909090908497,
                "tempo": 120.0
            },
            {
                "start_time": 57.775,
                "end_time": 59.34772727272727,
                "pitch": 74,
                "velocity": 64,
                "duration": 1.5727272727272705,
                "tempo": 120.0
            },
            {
                "start_time": 59.37954545454545,
                "end_time": 60.147727272727266,
                "pitch": 72,
                "velocity": 64,
                "duration": 0.7681818181818159,
                "tempo": 120.0
            },
            {
                "start_time": 60.179545454545455,
                "end_time": 60.949999999999996,
                "pitch": 74,
                "velocity": 64,
                "duration": 0.7704545454545411,
                "tempo": 120.0
            },
            {
                "start_time": 60.98409090909091,
                "end_time": 62.56136363636363,
                "pitch": 72,
                "velocity": 64,
                "duration": 1.577272727272721,
                "tempo": 120.0
            },
            {
                "start_time": 62.59318181818181,
                "end_time": 63.35227272727273,
                "pitch": 74,
                "velocity": 64,
                "duration": 0.759090909090915,
                "tempo": 120.0
            },
            {
                "start_time": 63.38636363636363,
                "end_time": 64.16363636363636,
                "pitch": 77,
                "velocity": 64,
                "duration": 0.7772727272727238,
                "tempo": 120.0
            },
            {
                "start_time": 64.19545454545454,
                "end_time": 66.96363636363635,
                "pitch": 76,
                "velocity": 64,
                "duration": 2.768181818181816,
                "tempo": 120.0
            },
            {
                "start_time": 66.99772727272727,
                "end_time": 67.36590909090908,
                "pitch": 74,
                "velocity": 64,
                "duration": 0.36818181818181017,
                "tempo": 120.0
            },
            {
                "start_time": 67.39999999999999,
                "end_time": 68.97272727272727,
                "pitch": 73,
                "velocity": 64,
                "duration": 1.5727272727272776,
                "tempo": 120.0
            },
            {
                "start_time": 69.00454545454545,
                "end_time": 69.77727272727273,
                "pitch": 70,
                "velocity": 64,
                "duration": 0.7727272727272805,
                "tempo": 120.0
            },
            {
                "start_time": 69.81136363636364,
                "end_time": 70.17727272727272,
                "pitch": 69,
                "velocity": 64,
                "duration": 0.36590909090908497,
                "tempo": 120.0
            },
            {
                "start_time": 70.21136363636363,
                "end_time": 70.58863636363635,
                "pitch": 67,
                "velocity": 64,
                "duration": 0.3772727272727252,
                "tempo": 120.0
            },
            {
                "start_time": 70.62272727272727,
                "end_time": 72.19545454545454,
                "pitch": 74,
                "velocity": 64,
                "duration": 1.5727272727272634,
                "tempo": 120.0
            },
            {
                "start_time": 72.22954545454544,
                "end_time": 72.98863636363636,
                "pitch": 72,
                "velocity": 64,
                "duration": 0.759090909090915,
                "tempo": 120.0
            },
            {
                "start_time": 73.02272727272727,
                "end_time": 73.79318181818182,
                "pitch": 74,
                "velocity": 64,
                "duration": 0.7704545454545553,
                "tempo": 120.0
            },
            {
                "start_time": 73.82727272727273,
                "end_time": 74.99545454545454,
                "pitch": 72,
                "velocity": 64,
                "duration": 1.1681818181818073,
                "tempo": 120.0
            },
            {
                "start_time": 75.02954545454546,
                "end_time": 75.19772727272726,
                "pitch": 72,
                "velocity": 64,
                "duration": 0.16818181818180733,
                "tempo": 120.0
            },
            {
                "start_time": 75.23181818181818,
                "end_time": 76.60454545454544,
                "pitch": 79,
                "velocity": 64,
                "duration": 1.3727272727272606,
                "tempo": 120.0
            },
            {
                "start_time": 77.03863636363636,
                "end_time": 77.61136363636363,
                "pitch": 72,
                "velocity": 64,
                "duration": 0.5727272727272776,
                "tempo": 120.0
            },
            {
                "start_time": 77.64772727272727,
                "end_time": 77.81818181818181,
                "pitch": 71,
                "velocity": 64,
                "duration": 0.17045454545454675,
                "tempo": 120.0
            },
            {
                "start_time": 78.25227272727273,
                "end_time": 78.81363636363636,
                "pitch": 74,
                "velocity": 64,
                "duration": 0.5613636363636374,
                "tempo": 120.0
            },
            {
                "start_time": 78.84545454545454,
                "end_time": 79.01363636363637,
                "pitch": 72,
                "velocity": 64,
                "duration": 0.16818181818182154,
                "tempo": 120.0
            },
            {
                "start_time": 79.45681818181818,
                "end_time": 79.62045454545454,
                "pitch": 71,
                "velocity": 64,
                "duration": 0.16363636363635692,
                "tempo": 120.0
            },
            {
                "start_time": 79.65227272727272,
                "end_time": 79.81590909090909,
                "pitch": 72,
                "velocity": 64,
                "duration": 0.16363636363637113,
                "tempo": 120.0
            },
            {
                "start_time": 80.25,
                "end_time": 80.81818181818181,
                "pitch": 72,
                "velocity": 64,
                "duration": 0.568181818181813,
                "tempo": 120.0
            },
            {
                "start_time": 80.85227272727272,
                "end_time": 81.01818181818182,
                "pitch": 70,
                "velocity": 64,
                "duration": 0.16590909090909634,
                "tempo": 120.0
            },
            {
                "start_time": 81.45454545454545,
                "end_time": 82.02727272727272,
                "pitch": 74,
                "velocity": 64,
                "duration": 0.5727272727272634,
                "tempo": 120.0
            },
            {
                "start_time": 82.06136363636364,
                "end_time": 82.225,
                "pitch": 72,
                "velocity": 64,
                "duration": 0.16363636363635692,
                "tempo": 120.0
            },
            {
                "start_time": 82.66136363636363,
                "end_time": 82.83181818181818,
                "pitch": 70,
                "velocity": 64,
                "duration": 0.17045454545454675,
                "tempo": 120.0
            },
            {
                "start_time": 82.86590909090908,
                "end_time": 83.03636363636363,
                "pitch": 72,
                "velocity": 64,
                "duration": 0.17045454545454675,
                "tempo": 120.0
            },
            {
                "start_time": 83.46363636363635,
                "end_time": 84.03181818181818,
                "pitch": 72,
                "velocity": 64,
                "duration": 0.5681818181818272,
                "tempo": 120.0
            },
            {
                "start_time": 84.06590909090909,
                "end_time": 84.23181818181818,
                "pitch": 71,
                "velocity": 64,
                "duration": 0.16590909090909634,
                "tempo": 120.0
            },
            {
                "start_time": 84.66818181818181,
                "end_time": 85.24090909090908,
                "pitch": 74,
                "velocity": 64,
                "duration": 0.5727272727272776,
                "tempo": 120.0
            },
            {
                "start_time": 85.27499999999999,
                "end_time": 85.43863636363636,
                "pitch": 72,
                "velocity": 64,
                "duration": 0.16363636363637113,
                "tempo": 120.0
            },
            {
                "start_time": 85.87272727272727,
                "end_time": 86.24090909090908,
                "pitch": 71,
                "velocity": 64,
                "duration": 0.36818181818181017,
                "tempo": 120.0
            },
            {
                "start_time": 86.27499999999999,
                "end_time": 86.65227272727272,
                "pitch": 72,
                "velocity": 64,
                "duration": 0.3772727272727252,
                "tempo": 120.0
            },
            {
                "start_time": 86.6840909090909,
                "end_time": 87.44545454545454,
                "pitch": 72,
                "velocity": 64,
                "duration": 0.7613636363636402,
                "tempo": 120.0
            },
            {
                "start_time": 87.68181818181817,
                "end_time": 87.84772727272727,
                "pitch": 74,
                "velocity": 64,
                "duration": 0.16590909090909634,
                "tempo": 120.0
            },
            {
                "start_time": 87.88181818181818,
                "end_time": 88.04772727272727,
                "pitch": 76,
                "velocity": 64,
                "duration": 0.16590909090909634,
                "tempo": 120.0
            },
            {
                "start_time": 88.08181818181818,
                "end_time": 89.05227272727272,
                "pitch": 74,
                "velocity": 64,
                "duration": 0.9704545454545439,
                "tempo": 120.0
            },
            {
                "start_time": 89.0840909090909,
                "end_time": 89.45454545454545,
                "pitch": 72,
                "velocity": 64,
                "duration": 0.3704545454545496,
                "tempo": 120.0
            },
            {
                "start_time": 89.48863636363636,
                "end_time": 89.85681818181818,
                "pitch": 74,
                "velocity": 64,
                "duration": 0.3681818181818244,
                "tempo": 120.0
            },
            {
                "start_time": 89.89090909090909,
                "end_time": 90.4590909090909,
                "pitch": 72,
                "velocity": 64,
                "duration": 0.568181818181813,
                "tempo": 120.0
            },
            {
                "start_time": 90.49090909090908,
                "end_time": 90.6590909090909,
                "pitch": 71,
                "velocity": 64,
                "duration": 0.16818181818182154,
                "tempo": 120.0
            },
            {
                "start_time": 91.09318181818182,
                "end_time": 91.66590909090908,
                "pitch": 74,
                "velocity": 64,
                "duration": 0.5727272727272634,
                "tempo": 120.0
            },
            {
                "start_time": 91.69772727272726,
                "end_time": 91.86136363636363,
                "pitch": 72,
                "velocity": 64,
                "duration": 0.16363636363637113,
                "tempo": 120.0
            },
            {
                "start_time": 92.30681818181817,
                "end_time": 92.47272727272727,
                "pitch": 71,
                "velocity": 64,
                "duration": 0.16590909090909634,
                "tempo": 120.0
            },
            {
                "start_time": 92.50681818181818,
                "end_time": 92.67272727272727,
                "pitch": 72,
                "velocity": 64,
                "duration": 0.16590909090909634,
                "tempo": 120.0
            },
            {
                "start_time": 93.09772727272727,
                "end_time": 93.67272727272727,
                "pitch": 72,
                "velocity": 64,
                "duration": 0.5750000000000028,
                "tempo": 120.0
            },
            {
                "start_time": 93.70681818181818,
                "end_time": 93.87954545454545,
                "pitch": 70,
                "velocity": 64,
                "duration": 0.17272727272727195,
                "tempo": 120.0
            },
            {
                "start_time": 94.31590909090909,
                "end_time": 94.87727272727273,
                "pitch": 74,
                "velocity": 64,
                "duration": 0.5613636363636374,
                "tempo": 120.0
            },
            {
                "start_time": 94.91136363636363,
                "end_time": 95.07272727272726,
                "pitch": 72,
                "velocity": 64,
                "duration": 0.1613636363636317,
                "tempo": 120.0
            },
            {
                "start_time": 95.51136363636363,
                "end_time": 95.68181818181817,
                "pitch": 70,
                "velocity": 64,
                "duration": 0.17045454545454675,
                "tempo": 120.0
            },
            {
                "start_time": 95.71590909090908,
                "end_time": 95.88636363636363,
                "pitch": 72,
                "velocity": 64,
                "duration": 0.17045454545454675,
                "tempo": 120.0
            },
            {
                "start_time": 96.31363636363636,
                "end_time": 96.88181818181818,
                "pitch": 72,
                "velocity": 64,
                "duration": 0.568181818181813,
                "tempo": 120.0
            },
            {
                "start_time": 96.91590909090908,
                "end_time": 97.08181818181818,
                "pitch": 71,
                "velocity": 64,
                "duration": 0.16590909090909634,
                "tempo": 120.0
            },
            {
                "start_time": 97.52727272727272,
                "end_time": 98.08863636363635,
                "pitch": 74,
                "velocity": 64,
                "duration": 0.5613636363636374,
                "tempo": 120.0
            },
            {
                "start_time": 98.12272727272727,
                "end_time": 98.2840909090909,
                "pitch": 72,
                "velocity": 64,
                "duration": 0.1613636363636317,
                "tempo": 120.0
            },
            {
                "start_time": 98.72045454545454,
                "end_time": 99.08863636363635,
                "pitch": 71,
                "velocity": 64,
                "duration": 0.36818181818181017,
                "tempo": 120.0
            },
            {
                "start_time": 99.12272727272727,
                "end_time": 99.49772727272727,
                "pitch": 72,
                "velocity": 64,
                "duration": 0.375,
                "tempo": 120.0
            },
            {
                "start_time": 99.53181818181818,
                "end_time": 100.29090909090908,
                "pitch": 72,
                "velocity": 64,
                "duration": 0.7590909090909008,
                "tempo": 120.0
            },
            {
                "start_time": 100.52499999999999,
                "end_time": 100.69318181818181,
                "pitch": 74,
                "velocity": 64,
                "duration": 0.16818181818182154,
                "tempo": 120.0
            },
            {
                "start_time": 100.72727272727272,
                "end_time": 100.89772727272727,
                "pitch": 76,
                "velocity": 64,
                "duration": 0.17045454545454675,
                "tempo": 120.0
            },
            {
                "start_time": 100.9340909090909,
                "end_time": 101.90681818181818,
                "pitch": 74,
                "velocity": 64,
                "duration": 0.9727272727272833,
                "tempo": 120.0
            },
            {
                "start_time": 101.93863636363636,
                "end_time": 102.3,
                "pitch": 72,
                "velocity": 64,
                "duration": 0.36136363636363455,
                "tempo": 120.0
            },
            {
                "start_time": 102.33181818181818,
                "end_time": 102.70227272727273,
                "pitch": 74,
                "velocity": 64,
                "duration": 0.3704545454545496,
                "tempo": 120.0
            },
            {
                "start_time": 102.73409090909091,
                "end_time": 105.5090909090909,
                "pitch": 76,
                "velocity": 64,
                "duration": 2.7749999999999915,
                "tempo": 120.0
            },
            {
                "start_time": 105.54318181818181,
                "end_time": 105.92045454545455,
                "pitch": 74,
                "velocity": 64,
                "duration": 0.3772727272727394,
                "tempo": 120.0
            },
            {
                "start_time": 105.95227272727273,
                "end_time": 107.51818181818182,
                "pitch": 73,
                "velocity": 64,
                "duration": 1.5659090909090878,
                "tempo": 120.0
            },
            {
                "start_time": 107.55227272727272,
                "end_time": 108.32045454545454,
                "pitch": 70,
                "velocity": 64,
                "duration": 0.7681818181818159,
                "tempo": 120.0
            },
            {
                "start_time": 108.35454545454544,
                "end_time": 108.72272727272727,
                "pitch": 69,
                "velocity": 64,
                "duration": 0.3681818181818244,
                "tempo": 120.0
            },
            {
                "start_time": 108.75681818181818,
                "end_time": 109.1340909090909,
                "pitch": 67,
                "velocity": 64,
                "duration": 0.3772727272727252,
                "tempo": 120.0
            },
            {
                "start_time": 109.16818181818181,
                "end_time": 110.73863636363636,
                "pitch": 74,
                "velocity": 64,
                "duration": 1.5704545454545524,
                "tempo": 120.0
            },
            {
                "start_time": 110.77272727272727,
                "end_time": 111.5340909090909,
                "pitch": 72,
                "velocity": 64,
                "duration": 0.7613636363636402,
                "tempo": 120.0
            },
            {
                "start_time": 111.56818181818181,
                "end_time": 112.34772727272727,
                "pitch": 74,
                "velocity": 64,
                "duration": 0.7795454545454561,
                "tempo": 120.0
            },
            {
                "start_time": 112.38181818181818,
                "end_time": 113.95227272727273,
                "pitch": 72,
                "velocity": 64,
                "duration": 1.5704545454545524,
                "tempo": 120.0
            },
            {
                "start_time": 113.98636363636363,
                "end_time": 114.75681818181818,
                "pitch": 74,
                "velocity": 64,
                "duration": 0.7704545454545411,
                "tempo": 120.0
            },
            {
                "start_time": 114.78863636363636,
                "end_time": 115.55,
                "pitch": 77,
                "velocity": 64,
                "duration": 0.7613636363636402,
                "tempo": 120.0
            },
            {
                "start_time": 115.5840909090909,
                "end_time": 118.36136363636363,
                "pitch": 76,
                "velocity": 64,
                "duration": 2.777272727272731,
                "tempo": 120.0
            },
            {
                "start_time": 118.39545454545454,
                "end_time": 118.77272727272727,
                "pitch": 74,
                "velocity": 64,
                "duration": 0.3772727272727252,
                "tempo": 120.0
            },
            {
                "start_time": 118.80454545454545,
                "end_time": 120.37045454545454,
                "pitch": 73,
                "velocity": 64,
                "duration": 1.5659090909090878,
                "tempo": 120.0
            },
            {
                "start_time": 120.40454545454544,
                "end_time": 121.17272727272727,
                "pitch": 70,
                "velocity": 64,
                "duration": 0.7681818181818301,
                "tempo": 120.0
            },
            {
                "start_time": 121.20681818181818,
                "end_time": 121.57499999999999,
                "pitch": 69,
                "velocity": 64,
                "duration": 0.36818181818181017,
                "tempo": 120.0
            },
            {
                "start_time": 121.60909090909091,
                "end_time": 121.98636363636363,
                "pitch": 67,
                "velocity": 64,
                "duration": 0.3772727272727252,
                "tempo": 120.0
            },
            {
                "start_time": 122.02045454545454,
                "end_time": 123.5840909090909,
                "pitch": 74,
                "velocity": 64,
                "duration": 1.5636363636363626,
                "tempo": 120.0
            },
            {
                "start_time": 123.61818181818181,
                "end_time": 124.39772727272727,
                "pitch": 72,
                "velocity": 64,
                "duration": 0.7795454545454561,
                "tempo": 120.0
            },
            {
                "start_time": 124.42954545454545,
                "end_time": 125.18863636363636,
                "pitch": 74,
                "velocity": 64,
                "duration": 0.759090909090915,
                "tempo": 120.0
            },
            {
                "start_time": 125.22272727272727,
                "end_time": 126.39545454545454,
                "pitch": 72,
                "velocity": 64,
                "duration": 1.172727272727272,
                "tempo": 120.0
            },
            {
                "start_time": 126.42954545454545,
                "end_time": 126.6,
                "pitch": 72,
                "velocity": 64,
                "duration": 0.17045454545454675,
                "tempo": 120.0
            },
            {
                "start_time": 126.6340909090909,
                "end_time": 128.00227272727273,
                "pitch": 79,
                "velocity": 64,
                "duration": 1.3681818181818244,
                "tempo": 120.0
            }
        ],
        "Oboe": [
            {
                "start_time": 128.6431818181818,
                "end_time": 128.725,
                "pitch": 76,
                "velocity": 64,
                "duration": 0.08181818181819267,
                "tempo": 120.0
            },
            {
                "start_time": 128.83863636363637,
                "end_time": 128.92272727272726,
                "pitch": 74,
                "velocity": 64,
                "duration": 0.08409090909088945,
                "tempo": 120.0
            },
            {
                "start_time": 129.03863636363636,
                "end_time": 129.12272727272727,
                "pitch": 76,
                "velocity": 64,
                "duration": 0.08409090909091788,
                "tempo": 120.0
            },
            {
                "start_time": 130.64545454545453,
                "end_time": 130.72727272727272,
                "pitch": 76,
                "velocity": 64,
                "duration": 0.08181818181819267,
                "tempo": 120.0
            },
            {
                "start_time": 130.84545454545454,
                "end_time": 130.9318181818182,
                "pitch": 76,
                "velocity": 64,
                "duration": 0.08636363636364308,
                "tempo": 120.0
            },
            {
                "start_time": 131.04999999999998,
                "end_time": 131.22272727272727,
                "pitch": 76,
                "velocity": 64,
                "duration": 0.17272727272728616,
                "tempo": 120.0
            },
            {
                "start_time": 131.64772727272728,
                "end_time": 131.73181818181817,
                "pitch": 77,
                "velocity": 64,
                "duration": 0.08409090909088945,
                "tempo": 120.0
            },
            {
                "start_time": 131.85,
                "end_time": 131.9340909090909,
                "pitch": 77,
                "velocity": 64,
                "duration": 0.08409090909091788,
                "tempo": 120.0
            },
            {
                "start_time": 132.04999999999998,
                "end_time": 132.1340909090909,
                "pitch": 76,
                "velocity": 64,
                "duration": 0.08409090909091788,
                "tempo": 120.0
            },
            {
                "start_time": 132.25227272727273,
                "end_time": 132.33636363636364,
                "pitch": 77,
                "velocity": 64,
                "duration": 0.08409090909091788,
                "tempo": 120.0
            },
            {
                "start_time": 133.86136363636362,
                "end_time": 133.9431818181818,
                "pitch": 77,
                "velocity": 64,
                "duration": 0.08181818181819267,
                "tempo": 120.0
            },
            {
                "start_time": 134.06136363636364,
                "end_time": 134.14545454545453,
                "pitch": 77,
                "velocity": 64,
                "duration": 0.08409090909088945,
                "tempo": 120.0
            },
            {
                "start_time": 134.26363636363635,
                "end_time": 134.4318181818182,
                "pitch": 77,
                "velocity": 64,
                "duration": 0.16818181818183575,
                "tempo": 120.0
            },
            {
                "start_time": 134.86363636363635,
                "end_time": 134.94772727272726,
                "pitch": 79,
                "velocity": 64,
                "duration": 0.08409090909091788,
                "tempo": 120.0
            },
            {
                "start_time": 135.0659090909091,
                "end_time": 135.15,
                "pitch": 79,
                "velocity": 64,
                "duration": 0.08409090909091788,
                "tempo": 120.0
            },
            {
                "start_time": 135.26590909090908,
                "end_time": 135.35,
                "pitch": 77,
                "velocity": 64,
                "duration": 0.08409090909091788,
                "tempo": 120.0
            },
            {
                "start_time": 135.46818181818182,
                "end_time": 135.5522727272727,
                "pitch": 79,
                "velocity": 64,
                "duration": 0.08409090909088945,
                "tempo": 120.0
            },
            {
                "start_time": 137.0772727272727,
                "end_time": 137.16136363636363,
                "pitch": 79,
                "velocity": 64,
                "duration": 0.08409090909091788,
                "tempo": 120.0
            },
            {
                "start_time": 137.27727272727273,
                "end_time": 137.36363636363635,
                "pitch": 79,
                "velocity": 64,
                "duration": 0.08636363636361466,
                "tempo": 120.0
            },
            {
                "start_time": 137.4840909090909,
                "end_time": 137.65454545454546,
                "pitch": 79,
                "velocity": 64,
                "duration": 0.17045454545456096,
                "tempo": 120.0
            },
            {
                "start_time": 138.0909090909091,
                "end_time": 138.17272727272726,
                "pitch": 76,
                "velocity": 64,
                "duration": 0.08181818181816425,
                "tempo": 120.0
            },
            {
                "start_time": 138.28636363636363,
                "end_time": 138.36818181818182,
                "pitch": 76,
                "velocity": 64,
                "duration": 0.08181818181819267,
                "tempo": 120.0
            },
            {
                "start_time": 138.4840909090909,
                "end_time": 138.5659090909091,
                "pitch": 74,
                "velocity": 64,
                "duration": 0.08181818181819267,
                "tempo": 120.0
            },
            {
                "start_time": 138.6840909090909,
                "end_time": 138.76590909090908,
                "pitch": 76,
                "velocity": 64,
                "duration": 0.08181818181816425,
                "tempo": 120.0
            },
            {
                "start_time": 141.29545454545453,
                "end_time": 141.37727272727273,
                "pitch": 76,
                "velocity": 64,
                "duration": 0.08181818181819267,
                "tempo": 120.0
            },
            {
                "start_time": 141.49545454545455,
                "end_time": 141.57954545454544,
                "pitch": 76,
                "velocity": 64,
                "duration": 0.08409090909088945,
                "tempo": 120.0
            },
            {
                "start_time": 141.69772727272726,
                "end_time": 141.78181818181818,
                "pitch": 74,
                "velocity": 64,
                "duration": 0.08409090909091788,
                "tempo": 120.0
            },
            {
                "start_time": 141.89772727272725,
                "end_time": 141.98181818181817,
                "pitch": 76,
                "velocity": 64,
                "duration": 0.08409090909091788,
                "tempo": 120.0
            },
            {
                "start_time": 143.50681818181818,
                "end_time": 143.5909090909091,
                "pitch": 76,
                "velocity": 64,
                "duration": 0.08409090909091788,
                "tempo": 120.0
            },
            {
                "start_time": 143.7090909090909,
                "end_time": 143.7931818181818,
                "pitch": 76,
                "velocity": 64,
                "duration": 0.08409090909091788,
                "tempo": 120.0
            },
            {
                "start_time": 143.91363636363636,
                "end_time": 144.0840909090909,
                "pitch": 76,
                "velocity": 64,
                "duration": 0.17045454545453254,
                "tempo": 120.0
            },
            {
                "start_time": 144.51136363636363,
                "end_time": 144.59318181818182,
                "pitch": 77,
                "velocity": 64,
                "duration": 0.08181818181819267,
                "tempo": 120.0
            },
            {
                "start_time": 144.71136363636364,
                "end_time": 144.7931818181818,
                "pitch": 77,
                "velocity": 64,
                "duration": 0.08181818181816425,
                "tempo": 120.0
            },
            {
                "start_time": 144.91136363636363,
                "end_time": 144.99545454545455,
                "pitch": 76,
                "velocity": 64,
                "duration": 0.08409090909091788,
                "tempo": 120.0
            },
            {
                "start_time": 145.11136363636362,
                "end_time": 145.19545454545454,
                "pitch": 77,
                "velocity": 64,
                "duration": 0.08409090909091788,
                "tempo": 120.0
            },
            {
                "start_time": 146.71818181818182,
                "end_time": 146.8022727272727,
                "pitch": 77,
                "velocity": 64,
                "duration": 0.08409090909088945,
                "tempo": 120.0
            },
            {
                "start_time": 146.92045454545453,
                "end_time": 147.00454545454545,
                "pitch": 77,
                "velocity": 64,
                "duration": 0.08409090909091788,
                "tempo": 120.0
            },
            {
                "start_time": 147.125,
                "end_time": 147.29545454545453,
                "pitch": 77,
                "velocity": 64,
                "duration": 0.17045454545453254,
                "tempo": 120.0
            },
            {
                "start_time": 147.72272727272727,
                "end_time": 147.8068181818182,
                "pitch": 79,
                "velocity": 64,
                "duration": 0.08409090909091788,
                "tempo": 120.0
            },
            {
                "start_time": 147.92272727272726,
                "end_time": 148.00681818181818,
                "pitch": 79,
                "velocity": 64,
                "duration": 0.08409090909091788,
                "tempo": 120.0
            },
            {
                "start_time": 148.125,
                "end_time": 148.2090909090909,
                "pitch": 77,
                "velocity": 64,
                "duration": 0.08409090909088945,
                "tempo": 120.0
            },
            {
                "start_time": 148.325,
                "end_time": 148.4090909090909,
                "pitch": 79,
                "velocity": 64,
                "duration": 0.08409090909091788,
                "tempo": 120.0
            },
            {
                "start_time": 149.9340909090909,
                "end_time": 150.0181818181818,
                "pitch": 79,
                "velocity": 64,
                "duration": 0.08409090909088945,
                "tempo": 120.0
            },
            {
                "start_time": 150.13636363636363,
                "end_time": 150.22272727272727,
                "pitch": 79,
                "velocity": 64,
                "duration": 0.08636363636364308,
                "tempo": 120.0
            },
            {
                "start_time": 150.3409090909091,
                "end_time": 150.51363636363635,
                "pitch": 79,
                "velocity": 64,
                "duration": 0.17272727272725774,
                "tempo": 120.0
            },
            {
                "start_time": 150.94772727272726,
                "end_time": 151.02954545454546,
                "pitch": 76,
                "velocity": 64,
                "duration": 0.08181818181819267,
                "tempo": 120.0
            },
            {
                "start_time": 151.14545454545453,
                "end_time": 151.22727272727272,
                "pitch": 76,
                "velocity": 64,
                "duration": 0.08181818181819267,
                "tempo": 120.0
            },
            {
                "start_time": 151.3409090909091,
                "end_time": 151.42499999999998,
                "pitch": 74,
                "velocity": 64,
                "duration": 0.08409090909088945,
                "tempo": 120.0
            },
            {
                "start_time": 151.5431818181818,
                "end_time": 151.62727272727273,
                "pitch": 76,
                "velocity": 64,
                "duration": 0.08409090909091788,
                "tempo": 120.0
            },
            {
                "start_time": 154.15454545454546,
                "end_time": 154.23863636363635,
                "pitch": 81,
                "velocity": 64,
                "duration": 0.08409090909088945,
                "tempo": 120.0
            },
            {
                "start_time": 154.35681818181817,
                "end_time": 154.4409090909091,
                "pitch": 81,
                "velocity": 64,
                "duration": 0.08409090909091788,
                "tempo": 120.0
            },
            {
                "start_time": 154.5568181818182,
                "end_time": 154.64090909090908,
                "pitch": 79,
                "velocity": 64,
                "duration": 0.08409090909088945,
                "tempo": 120.0
            },
            {
                "start_time": 154.75681818181818,
                "end_time": 154.8409090909091,
                "pitch": 81,
                "velocity": 64,
                "duration": 0.08409090909091788,
                "tempo": 120.0
            },
            {
                "start_time": 157.36818181818182,
                "end_time": 157.4522727272727,
                "pitch": 81,
                "velocity": 64,
                "duration": 0.08409090909088945,
                "tempo": 120.0
            },
            {
                "start_time": 157.57045454545454,
                "end_time": 157.65454545454546,
                "pitch": 81,
                "velocity": 64,
                "duration": 0.08409090909091788,
                "tempo": 120.0
            },
            {
                "start_time": 157.77272727272725,
                "end_time": 157.85681818181817,
                "pitch": 79,
                "velocity": 64,
                "duration": 0.08409090909091788,
                "tempo": 120.0
            },
            {
                "start_time": 157.97727272727272,
                "end_time": 158.06363636363636,
                "pitch": 81,
                "velocity": 64,
                "duration": 0.08636363636364308,
                "tempo": 120.0
            },
            {
                "start_time": 160.59545454545454,
                "end_time": 160.6772727272727,
                "pitch": 79,
                "velocity": 64,
                "duration": 0.08181818181816425,
                "tempo": 120.0
            },
            {
                "start_time": 160.79090909090908,
                "end_time": 160.87272727272727,
                "pitch": 79,
                "velocity": 64,
                "duration": 0.08181818181819267,
                "tempo": 120.0
            },
            {
                "start_time": 160.98863636363635,
                "end_time": 161.075,
                "pitch": 77,
                "velocity": 64,
                "duration": 0.08636363636364308,
                "tempo": 120.0
            },
            {
                "start_time": 161.19545454545454,
                "end_time": 161.27954545454546,
                "pitch": 79,
                "velocity": 64,
                "duration": 0.08409090909091788,
                "tempo": 120.0
            },
            {
                "start_time": 162.59772727272727,
                "end_time": 162.96363636363637,
                "pitch": 79,
                "velocity": 64,
                "duration": 0.3659090909090992,
                "tempo": 120.0
            },
            {
                "start_time": 162.99772727272727,
                "end_time": 163.375,
                "pitch": 79,
                "velocity": 64,
                "duration": 0.3772727272727252,
                "tempo": 120.0
            },
            {
                "start_time": 163.40681818181818,
                "end_time": 163.77727272727273,
                "pitch": 79,
                "velocity": 64,
                "duration": 0.3704545454545496,
                "tempo": 120.0
            },
            {
                "start_time": 163.8090909090909,
                "end_time": 163.89090909090908,
                "pitch": 76,
                "velocity": 64,
                "duration": 0.08181818181816425,
                "tempo": 120.0
            },
            {
                "start_time": 164.00454545454545,
                "end_time": 164.08636363636361,
                "pitch": 76,
                "velocity": 64,
                "duration": 0.08181818181816425,
                "tempo": 120.0
            },
            {
                "start_time": 164.2022727272727,
                "end_time": 164.28636363636363,
                "pitch": 74,
                "velocity": 64,
                "duration": 0.08409090909091788,
                "tempo": 120.0
            },
            {
                "start_time": 164.40454545454546,
                "end_time": 164.48863636363635,
                "pitch": 76,
                "velocity": 64,
                "duration": 0.08409090909088945,
                "tempo": 120.0
            },
            {
                "start_time": 167.01590909090908,
                "end_time": 167.1,
                "pitch": 81,
                "velocity": 64,
                "duration": 0.08409090909091788,
                "tempo": 120.0
            },
            {
                "start_time": 167.21818181818182,
                "end_time": 167.3022727272727,
                "pitch": 81,
                "velocity": 64,
                "duration": 0.08409090909088945,
                "tempo": 120.0
            },
            {
                "start_time": 167.42045454545453,
                "end_time": 167.50454545454545,
                "pitch": 79,
                "velocity": 64,
                "duration": 0.08409090909091788,
                "tempo": 120.0
            },
            {
                "start_time": 167.625,
                "end_time": 167.71136363636361,
                "pitch": 81,
                "velocity": 64,
                "duration": 0.08636363636361466,
                "tempo": 120.0
            },
            {
                "start_time": 170.22954545454544,
                "end_time": 170.31363636363636,
                "pitch": 81,
                "velocity": 64,
                "duration": 0.08409090909091788,
                "tempo": 120.0
            },
            {
                "start_time": 170.4318181818182,
                "end_time": 170.51590909090908,
                "pitch": 81,
                "velocity": 64,
                "duration": 0.08409090909088945,
                "tempo": 120.0
            },
            {
                "start_time": 170.63181818181818,
                "end_time": 170.7159090909091,
                "pitch": 79,
                "velocity": 64,
                "duration": 0.08409090909091788,
                "tempo": 120.0
            },
            {
                "start_time": 170.83181818181816,
                "end_time": 170.91590909090908,
                "pitch": 81,
                "velocity": 64,
                "duration": 0.08409090909091788,
                "tempo": 120.0
            },
            {
                "start_time": 173.4431818181818,
                "end_time": 173.52727272727273,
                "pitch": 79,
                "velocity": 64,
                "duration": 0.08409090909091788,
                "tempo": 120.0
            },
            {
                "start_time": 173.64545454545453,
                "end_time": 173.72954545454544,
                "pitch": 79,
                "velocity": 64,
                "duration": 0.08409090909091788,
                "tempo": 120.0
            },
            {
                "start_time": 173.84772727272727,
                "end_time": 173.9318181818182,
                "pitch": 77,
                "velocity": 64,
                "duration": 0.08409090909091788,
                "tempo": 120.0
            },
            {
                "start_time": 174.04772727272726,
                "end_time": 174.13181818181818,
                "pitch": 79,
                "velocity": 64,
                "duration": 0.08409090909091788,
                "tempo": 120.0
            },
            {
                "start_time": 175.45454545454544,
                "end_time": 175.825,
                "pitch": 79,
                "velocity": 64,
                "duration": 0.3704545454545496,
                "tempo": 120.0
            },
            {
                "start_time": 175.8590909090909,
                "end_time": 176.2340909090909,
                "pitch": 79,
                "velocity": 64,
                "duration": 0.375,
                "tempo": 120.0
            },
            {
                "start_time": 176.2681818181818,
                "end_time": 176.63863636363635,
                "pitch": 79,
                "velocity": 64,
                "duration": 0.3704545454545496,
                "tempo": 120.0
            },
            {
                "start_time": 176.67045454545453,
                "end_time": 176.75227272727273,
                "pitch": 76,
                "velocity": 64,
                "duration": 0.08181818181819267,
                "tempo": 120.0
            },
            {
                "start_time": 176.86590909090907,
                "end_time": 176.94772727272726,
                "pitch": 76,
                "velocity": 64,
                "duration": 0.08181818181819267,
                "tempo": 120.0
            },
            {
                "start_time": 177.06363636363636,
                "end_time": 177.14772727272725,
                "pitch": 74,
                "velocity": 64,
                "duration": 0.08409090909088945,
                "tempo": 120.0
            },
            {
                "start_time": 177.26590909090908,
                "end_time": 177.34772727272727,
                "pitch": 76,
                "velocity": 64,
                "duration": 0.08181818181819267,
                "tempo": 120.0
            },
            {
                "start_time": 178.47045454545454,
                "end_time": 178.55454545454543,
                "pitch": 77,
                "velocity": 64,
                "duration": 0.08409090909088945,
                "tempo": 120.0
            },
            {
                "start_time": 178.67272727272726,
                "end_time": 178.75454545454545,
                "pitch": 77,
                "velocity": 64,
                "duration": 0.08181818181819267,
                "tempo": 120.0
            },
            {
                "start_time": 179.07272727272726,
                "end_time": 179.15681818181818,
                "pitch": 79,
                "velocity": 64,
                "duration": 0.08409090909091788,
                "tempo": 120.0
            },
            {
                "start_time": 179.27272727272725,
                "end_time": 179.4409090909091,
                "pitch": 79,
                "velocity": 64,
                "duration": 0.16818181818183575,
                "tempo": 120.0
            }
        ]
    }
}