{
    "track_id": "Space Harrier 3-D (FM) - 17 - Lovers",
    "mood": "relaxed",
    "instruments": {
        "Acoustic Bass": [
            {
                "start_time": 0.011363636363636364,
                "end_time": 0.17954545454545454,
                "pitch": 40,
                "velocity": 51,
                "duration": 0.16818181818181818,
                "tempo": 120.0
            },
            {
                "start_time": 0.19772727272727272,
                "end_time": 1.075,
                "pitch": 52,
                "velocity": 51,
                "duration": 0.8772727272727272,
                "tempo": 120.0
            },
            {
                "start_time": 1.093181818181818,
                "end_time": 2.2818181818181817,
                "pitch": 42,
                "velocity": 51,
                "duration": 1.1886363636363637,
                "tempo": 120.0
            },
            {
                "start_time": 2.2977272727272724,
                "end_time": 3.4909090909090907,
                "pitch": 42,
                "velocity": 51,
                "duration": 1.1931818181818183,
                "tempo": 120.0
            },
            {
                "start_time": 3.506818181818182,
                "end_time": 4.7,
                "pitch": 68,
                "velocity": 51,
                "duration": 1.1931818181818183,
                "tempo": 120.0
            },
            {
                "start_time": 4.715909090909091,
                "end_time": 5.015909090909091,
                "pitch": 40,
                "velocity": 51,
                "duration": 0.2999999999999998,
                "tempo": 120.0
            },
            {
                "start_time": 5.034090909090909,
                "end_time": 5.8999999999999995,
                "pitch": 52,
                "velocity": 51,
                "duration": 0.8659090909090903,
                "tempo": 120.0
            },
            {
                "start_time": 5.915909090909091,
                "end_time": 7.1090909090909085,
                "pitch": 42,
                "velocity": 51,
                "duration": 1.1931818181818175,
                "tempo": 120.0
            },
            {
                "start_time": 7.125,
                "end_time": 8.315909090909091,
                "pitch": 42,
                "velocity": 51,
                "duration": 1.1909090909090914,
                "tempo": 120.0
            },
            {
                "start_time": 8.331818181818182,
                "end_time": 9.518181818181818,
                "pitch": 44,
                "velocity": 51,
                "duration": 1.1863636363636356,
                "tempo": 120.0
            },
            {
                "start_time": 9.534090909090908,
                "end_time": 9.834090909090909,
                "pitch": 40,
                "velocity": 51,
                "duration": 0.3000000000000007,
                "tempo": 120.0
            },
            {
                "start_time": 9.852272727272727,
                "end_time": 10.718181818181817,
                "pitch": 52,
                "velocity": 51,
                "duration": 0.8659090909090903,
                "tempo": 120.0
            },
            {
                "start_time": 10.73409090909091,
                "end_time": 11.924999999999999,
                "pitch": 42,
                "velocity": 51,
                "duration": 1.1909090909090896,
                "tempo": 120.0
            },
            {
                "start_time": 11.94090909090909,
                "end_time": 13.125,
                "pitch": 42,
                "velocity": 51,
                "duration": 1.1840909090909104,
                "tempo": 120.0
            },
            {
                "start_time": 13.14090909090909,
                "end_time": 14.329545454545453,
                "pitch": 44,
                "velocity": 51,
                "duration": 1.1886363636363626,
                "tempo": 120.0
            },
            {
                "start_time": 14.347727272727273,
                "end_time": 14.647727272727272,
                "pitch": 40,
                "velocity": 51,
                "duration": 0.29999999999999893,
                "tempo": 120.0
            },
            {
                "start_time": 14.663636363636362,
                "end_time": 15.529545454545454,
                "pitch": 52,
                "velocity": 51,
                "duration": 0.8659090909090921,
                "tempo": 120.0
            },
            {
                "start_time": 15.547727272727272,
                "end_time": 16.736363636363635,
                "pitch": 42,
                "velocity": 51,
                "duration": 1.1886363636363626,
                "tempo": 120.0
            },
            {
                "start_time": 16.754545454545454,
                "end_time": 17.054545454545455,
                "pitch": 42,
                "velocity": 51,
                "duration": 0.3000000000000007,
                "tempo": 120.0
            },
            {
                "start_time": 17.070454545454545,
                "end_time": 17.33863636363636,
                "pitch": 42,
                "velocity": 51,
                "duration": 0.26818181818181586,
                "tempo": 120.0
            },
            {
                "start_time": 17.35681818181818,
                "end_time": 17.659090909090907,
                "pitch": 42,
                "velocity": 51,
                "duration": 0.3022727272727259,
                "tempo": 120.0
            },
            {
                "start_time": 17.677272727272726,
                "end_time": 17.945454545454545,
                "pitch": 42,
                "velocity": 51,
                "duration": 0.2681818181818194,
                "tempo": 120.0
            },
            {
                "start_time": 17.961363636363636,
                "end_time": 18.26590909090909,
                "pitch": 42,
                "velocity": 51,
                "duration": 0.3045454545454547,
                "tempo": 120.0
            },
            {
                "start_time": 18.28181818181818,
                "end_time": 18.55,
                "pitch": 42,
                "velocity": 51,
                "duration": 0.2681818181818194,
                "tempo": 120.0
            },
            {
                "start_time": 18.56590909090909,
                "end_time": 18.86590909090909,
                "pitch": 42,
                "velocity": 51,
                "duration": 0.29999999999999716,
                "tempo": 120.0
            },
            {
                "start_time": 18.88181818181818,
                "end_time": 19.152272727272727,
                "pitch": 42,
                "velocity": 51,
                "duration": 0.27045454545454817,
                "tempo": 120.0
            },
            {
                "start_time": 19.168181818181818,
                "end_time": 19.470454545454544,
                "pitch": 40,
                "velocity": 51,
                "duration": 0.3022727272727259,
                "tempo": 120.0
            },
            {
                "start_time": 19.488636363636363,
                "end_time": 19.754545454545454,
                "pitch": 40,
                "velocity": 51,
                "duration": 0.26590909090909065,
                "tempo": 120.0
            },
            {
                "start_time": 19.772727272727273,
                "end_time": 20.07272727272727,
                "pitch": 40,
                "velocity": 51,
                "duration": 0.29999999999999716,
                "tempo": 120.0
            },
            {
                "start_time": 20.08863636363636,
                "end_time": 20.35681818181818,
                "pitch": 40,
                "velocity": 51,
                "duration": 0.2681818181818194,
                "tempo": 120.0
            },
            {
                "start_time": 20.375,
                "end_time": 20.677272727272726,
                "pitch": 40,
                "velocity": 51,
                "duration": 0.3022727272727259,
                "tempo": 120.0
            },
            {
                "start_time": 20.695454545454545,
                "end_time": 20.96363636363636,
                "pitch": 40,
                "velocity": 51,
                "duration": 0.26818181818181586,
                "tempo": 120.0
            },
            {
                "start_time": 20.979545454545452,
                "end_time": 21.284090909090907,
                "pitch": 40,
                "velocity": 51,
                "duration": 0.3045454545454547,
                "tempo": 120.0
            },
            {
                "start_time": 21.3,
                "end_time": 21.568181818181817,
                "pitch": 40,
                "velocity": 51,
                "duration": 0.26818181818181586,
                "tempo": 120.0
            },
            {
                "start_time": 21.584090909090907,
                "end_time": 21.884090909090908,
                "pitch": 42,
                "velocity": 51,
                "duration": 0.3000000000000007,
                "tempo": 120.0
            },
            {
                "start_time": 21.9,
                "end_time": 22.170454545454543,
                "pitch": 42,
                "velocity": 51,
                "duration": 0.2704545454545446,
                "tempo": 120.0
            },
            {
                "start_time": 22.186363636363634,
                "end_time": 22.488636363636363,
                "pitch": 42,
                "velocity": 51,
                "duration": 0.30227272727272947,
                "tempo": 120.0
            },
            {
                "start_time": 22.50681818181818,
                "end_time": 22.772727272727273,
                "pitch": 42,
                "velocity": 51,
                "duration": 0.2659090909090942,
                "tempo": 120.0
            },
            {
                "start_time": 22.79090909090909,
                "end_time": 23.09090909090909,
                "pitch": 42,
                "velocity": 51,
                "duration": 0.3000000000000007,
                "tempo": 120.0
            },
            {
                "start_time": 23.10681818181818,
                "end_time": 23.379545454545454,
                "pitch": 42,
                "velocity": 51,
                "duration": 0.2727272727272734,
                "tempo": 120.0
            },
            {
                "start_time": 23.395454545454545,
                "end_time": 23.702272727272724,
                "pitch": 42,
                "velocity": 51,
                "duration": 0.3068181818181799,
                "tempo": 120.0
            },
            {
                "start_time": 23.71818181818182,
                "end_time": 23.98181818181818,
                "pitch": 42,
                "velocity": 51,
                "duration": 0.2636363636363619,
                "tempo": 120.0
            },
            {
                "start_time": 24.0,
                "end_time": 24.295454545454543,
                "pitch": 40,
                "velocity": 51,
                "duration": 0.2954545454545432,
                "tempo": 120.0
            },
            {
                "start_time": 24.313636363636363,
                "end_time": 24.579545454545453,
                "pitch": 40,
                "velocity": 51,
                "duration": 0.26590909090909065,
                "tempo": 120.0
            },
            {
                "start_time": 24.595454545454544,
                "end_time": 24.895454545454545,
                "pitch": 40,
                "velocity": 51,
                "duration": 0.3000000000000007,
                "tempo": 120.0
            },
            {
                "start_time": 24.913636363636364,
                "end_time": 25.18181818181818,
                "pitch": 40,
                "velocity": 51,
                "duration": 0.26818181818181586,
                "tempo": 120.0
            },
            {
                "start_time": 25.2,
                "end_time": 25.502272727272725,
                "pitch": 40,
                "velocity": 51,
                "duration": 0.3022727272727259,
                "tempo": 120.0
            },
            {
                "start_time": 25.518181818181816,
                "end_time": 25.79090909090909,
                "pitch": 40,
                "velocity": 51,
                "duration": 0.2727272727272734,
                "tempo": 120.0
            },
            {
                "start_time": 25.80681818181818,
                "end_time": 26.113636363636363,
                "pitch": 40,
                "velocity": 51,
                "duration": 0.30681818181818343,
                "tempo": 120.0
            },
            {
                "start_time": 26.129545454545454,
                "end_time": 26.395454545454545,
                "pitch": 40,
                "velocity": 51,
                "duration": 0.26590909090909065,
                "tempo": 120.0
            },
            {
                "start_time": 26.411363636363635,
                "end_time": 26.709090909090907,
                "pitch": 42,
                "velocity": 51,
                "duration": 0.29772727272727195,
                "tempo": 120.0
            },
            {
                "start_time": 26.724999999999998,
                "end_time": 26.993181818181817,
                "pitch": 42,
                "velocity": 51,
                "duration": 0.2681818181818194,
                "tempo": 120.0
            },
            {
                "start_time": 27.011363636363637,
                "end_time": 27.313636363636363,
                "pitch": 42,
                "velocity": 51,
                "duration": 0.3022727272727259,
                "tempo": 120.0
            },
            {
                "start_time": 27.331818181818182,
                "end_time": 27.597727272727273,
                "pitch": 42,
                "velocity": 51,
                "duration": 0.26590909090909065,
                "tempo": 120.0
            },
            {
                "start_time": 27.613636363636363,
                "end_time": 27.913636363636364,
                "pitch": 42,
                "velocity": 51,
                "duration": 0.3000000000000007,
                "tempo": 120.0
            },
            {
                "start_time": 27.93181818181818,
                "end_time": 28.202272727272724,
                "pitch": 42,
                "velocity": 51,
                "duration": 0.2704545454545446,
                "tempo": 120.0
            },
            {
                "start_time": 28.220454545454544,
                "end_time": 28.527272727272727,
                "pitch": 42,
                "velocity": 51,
                "duration": 0.30681818181818343,
                "tempo": 120.0
            },
            {
                "start_time": 28.543181818181818,
                "end_time": 28.80681818181818,
                "pitch": 42,
                "velocity": 51,
                "duration": 0.2636363636363619,
                "tempo": 120.0
            },
            {
                "start_time": 28.82272727272727,
                "end_time": 29.120454545454542,
                "pitch": 40,
                "velocity": 51,
                "duration": 0.29772727272727195,
                "tempo": 120.0
            },
            {
                "start_time": 29.136363636363637,
                "end_time": 29.40681818181818,
                "pitch": 40,
                "velocity": 51,
                "duration": 0.2704545454545446,
                "tempo": 120.0
            },
            {
                "start_time": 29.422727272727272,
                "end_time": 29.727272727272727,
                "pitch": 40,
                "velocity": 51,
                "duration": 0.3045454545454547,
                "tempo": 120.0
            },
            {
                "start_time": 29.743181818181817,
                "end_time": 30.013636363636362,
                "pitch": 40,
                "velocity": 51,
                "duration": 0.2704545454545446,
                "tempo": 120.0
            },
            {
                "start_time": 30.029545454545453,
                "end_time": 30.331818181818182,
                "pitch": 40,
                "velocity": 51,
                "duration": 0.30227272727272947,
                "tempo": 120.0
            },
            {
                "start_time": 30.349999999999998,
                "end_time": 30.620454545454542,
                "pitch": 40,
                "velocity": 51,
                "duration": 0.2704545454545446,
                "tempo": 120.0
            },
            {
                "start_time": 30.638636363636362,
                "end_time": 30.945454545454545,
                "pitch": 40,
                "velocity": 51,
                "duration": 0.30681818181818343,
                "tempo": 120.0
            },
            {
                "start_time": 30.961363636363636,
                "end_time": 31.224999999999998,
                "pitch": 40,
                "velocity": 51,
                "duration": 0.2636363636363619,
                "tempo": 120.0
            },
            {
                "start_time": 31.24090909090909,
                "end_time": 31.53863636363636,
                "pitch": 42,
                "velocity": 51,
                "duration": 0.29772727272727195,
                "tempo": 120.0
            },
            {
                "start_time": 31.554545454545455,
                "end_time": 31.82272727272727,
                "pitch": 42,
                "velocity": 51,
                "duration": 0.26818181818181586,
                "tempo": 120.0
            },
            {
                "start_time": 31.83863636363636,
                "end_time": 32.138636363636365,
                "pitch": 42,
                "velocity": 51,
                "duration": 0.30000000000000426,
                "tempo": 120.0
            },
            {
                "start_time": 32.154545454545456,
                "end_time": 32.425,
                "pitch": 42,
                "velocity": 51,
                "duration": 0.27045454545454106,
                "tempo": 120.0
            },
            {
                "start_time": 32.44090909090909,
                "end_time": 32.74545454545454,
                "pitch": 42,
                "velocity": 51,
                "duration": 0.3045454545454547,
                "tempo": 120.0
            },
            {
                "start_time": 32.76136363636363,
                "end_time": 33.03409090909091,
                "pitch": 42,
                "velocity": 51,
                "duration": 0.2727272727272734,
                "tempo": 120.0
            },
            {
                "start_time": 33.05,
                "end_time": 33.35681818181818,
                "pitch": 42,
                "velocity": 51,
                "duration": 0.3068181818181799,
                "tempo": 120.0
            },
            {
                "start_time": 33.37272727272727,
                "end_time": 33.63636363636363,
                "pitch": 42,
                "velocity": 51,
                "duration": 0.26363636363636545,
                "tempo": 120.0
            },
            {
                "start_time": 33.654545454545456,
                "end_time": 33.949999999999996,
                "pitch": 40,
                "velocity": 51,
                "duration": 0.29545454545453964,
                "tempo": 120.0
            },
            {
                "start_time": 33.96818181818182,
                "end_time": 34.23409090909091,
                "pitch": 40,
                "velocity": 51,
                "duration": 0.26590909090909065,
                "tempo": 120.0
            },
            {
                "start_time": 34.25,
                "end_time": 34.55,
                "pitch": 40,
                "velocity": 51,
                "duration": 0.29999999999999716,
                "tempo": 120.0
            },
            {
                "start_time": 34.56818181818181,
                "end_time": 34.836363636363636,
                "pitch": 40,
                "velocity": 51,
                "duration": 0.26818181818182296,
                "tempo": 120.0
            },
            {
                "start_time": 34.85454545454545,
                "end_time": 35.15681818181818,
                "pitch": 40,
                "velocity": 51,
                "duration": 0.30227272727272947,
                "tempo": 120.0
            },
            {
                "start_time": 35.17272727272727,
                "end_time": 35.445454545454545,
                "pitch": 40,
                "velocity": 51,
                "duration": 0.2727272727272734,
                "tempo": 120.0
            },
            {
                "start_time": 35.46363636363636,
                "end_time": 35.768181818181816,
                "pitch": 40,
                "velocity": 51,
                "duration": 0.3045454545454547,
                "tempo": 120.0
            },
            {
                "start_time": 35.78636363636363,
                "end_time": 36.05,
                "pitch": 40,
                "velocity": 51,
                "duration": 0.26363636363636545,
                "tempo": 120.0
            },
            {
                "start_time": 36.06590909090909,
                "end_time": 36.36363636363636,
                "pitch": 40,
                "velocity": 51,
                "duration": 0.29772727272727195,
                "tempo": 120.0
            },
            {
                "start_time": 36.37954545454545,
                "end_time": 36.65,
                "pitch": 51,
                "velocity": 51,
                "duration": 0.27045454545454817,
                "tempo": 120.0
            },
            {
                "start_time": 36.66590909090909,
                "end_time": 36.96818181818182,
                "pitch": 47,
                "velocity": 51,
                "duration": 0.30227272727272947,
                "tempo": 120.0
            },
            {
                "start_time": 36.986363636363635,
                "end_time": 37.252272727272725,
                "pitch": 45,
                "velocity": 51,
                "duration": 0.26590909090909065,
                "tempo": 120.0
            },
            {
                "start_time": 37.268181818181816,
                "end_time": 37.56818181818181,
                "pitch": 52,
                "velocity": 51,
                "duration": 0.29999999999999716,
                "tempo": 120.0
            },
            {
                "start_time": 37.586363636363636,
                "end_time": 37.85454545454545,
                "pitch": 51,
                "velocity": 51,
                "duration": 0.26818181818181586,
                "tempo": 120.0
            },
            {
                "start_time": 37.87272727272727,
                "end_time": 38.175,
                "pitch": 47,
                "velocity": 51,
                "duration": 0.30227272727272947,
                "tempo": 120.0
            },
            {
                "start_time": 38.19318181818181,
                "end_time": 38.461363636363636,
                "pitch": 45,
                "velocity": 51,
                "duration": 0.26818181818182296,
                "tempo": 120.0
            },
            {
                "start_time": 38.47727272727273,
                "end_time": 38.78181818181818,
                "pitch": 40,
                "velocity": 51,
                "duration": 0.3045454545454547,
                "tempo": 120.0
            },
            {
                "start_time": 38.79772727272727,
                "end_time": 39.06818181818181,
                "pitch": 47,
                "velocity": 51,
                "duration": 0.27045454545454106,
                "tempo": 120.0
            },
            {
                "start_time": 39.084090909090904,
                "end_time": 39.38636363636363,
                "pitch": 45,
                "velocity": 51,
                "duration": 0.30227272727272947,
                "tempo": 120.0
            },
            {
                "start_time": 39.404545454545456,
                "end_time": 39.67272727272727,
                "pitch": 47,
                "velocity": 51,
                "duration": 0.26818181818181586,
                "tempo": 120.0
            },
            {
                "start_time": 39.69090909090909,
                "end_time": 40.277272727272724,
                "pitch": 51,
                "velocity": 51,
                "duration": 0.586363636363636,
                "tempo": 120.0
            },
            {
                "start_time": 40.293181818181814,
                "end_time": 40.87954545454545,
                "pitch": 52,
                "velocity": 51,
                "duration": 0.586363636363636,
                "tempo": 120.0
            },
            {
                "start_time": 40.89545454545454,
                "end_time": 41.199999999999996,
                "pitch": 40,
                "velocity": 51,
                "duration": 0.3045454545454547,
                "tempo": 120.0
            },
            {
                "start_time": 41.215909090909086,
                "end_time": 41.486363636363635,
                "pitch": 51,
                "velocity": 51,
                "duration": 0.27045454545454817,
                "tempo": 120.0
            },
            {
                "start_time": 41.502272727272725,
                "end_time": 41.804545454545455,
                "pitch": 47,
                "velocity": 51,
                "duration": 0.30227272727272947,
                "tempo": 120.0
            },
            {
                "start_time": 41.82272727272727,
                "end_time": 42.090909090909086,
                "pitch": 51,
                "velocity": 51,
                "duration": 0.26818181818181586,
                "tempo": 120.0
            },
            {
                "start_time": 42.10909090909091,
                "end_time": 42.41136363636363,
                "pitch": 52,
                "velocity": 51,
                "duration": 0.30227272727272236,
                "tempo": 120.0
            },
            {
                "start_time": 42.429545454545455,
                "end_time": 42.69772727272727,
                "pitch": 51,
                "velocity": 51,
                "duration": 0.26818181818181586,
                "tempo": 120.0
            },
            {
                "start_time": 42.71363636363636,
                "end_time": 43.018181818181816,
                "pitch": 47,
                "velocity": 51,
                "duration": 0.3045454545454547,
                "tempo": 120.0
            },
            {
                "start_time": 43.03409090909091,
                "end_time": 43.3,
                "pitch": 45,
                "velocity": 51,
                "duration": 0.26590909090909065,
                "tempo": 120.0
            },
            {
                "start_time": 43.31818181818181,
                "end_time": 43.61818181818182,
                "pitch": 40,
                "velocity": 51,
                "duration": 0.30000000000000426,
                "tempo": 120.0
            },
            {
                "start_time": 43.63409090909091,
                "end_time": 43.90454545454545,
                "pitch": 47,
                "velocity": 51,
                "duration": 0.27045454545454106,
                "tempo": 120.0
            },
            {
                "start_time": 43.92045454545455,
                "end_time": 44.22272727272727,
                "pitch": 45,
                "velocity": 51,
                "duration": 0.30227272727272236,
                "tempo": 120.0
            },
            {
                "start_time": 44.24090909090909,
                "end_time": 44.50909090909091,
                "pitch": 47,
                "velocity": 51,
                "duration": 0.26818181818181586,
                "tempo": 120.0
            },
            {
                "start_time": 44.527272727272724,
                "end_time": 45.11590909090909,
                "pitch": 52,
                "velocity": 51,
                "duration": 0.5886363636363683,
                "tempo": 120.0
            },
            {
                "start_time": 45.13181818181818,
                "end_time": 45.72272727272727,
                "pitch": 51,
                "velocity": 51,
                "duration": 0.5909090909090864,
                "tempo": 120.0
            },
            {
                "start_time": 45.73863636363636,
                "end_time": 46.64090909090909,
                "pitch": 40,
                "velocity": 51,
                "duration": 0.9022727272727309,
                "tempo": 120.0
            },
            {
                "start_time": 46.65909090909091,
                "end_time": 46.92727272727272,
                "pitch": 47,
                "velocity": 51,
                "duration": 0.26818181818181586,
                "tempo": 120.0
            },
            {
                "start_time": 46.945454545454545,
                "end_time": 47.24772727272727,
                "pitch": 45,
                "velocity": 51,
                "duration": 0.30227272727272236,
                "tempo": 120.0
            },
            {
                "start_time": 47.26590909090909,
                "end_time": 47.53409090909091,
                "pitch": 44,
                "velocity": 51,
                "duration": 0.26818181818181586,
                "tempo": 120.0
            },
            {
                "start_time": 47.55,
                "end_time": 47.85454545454545,
                "pitch": 45,
                "velocity": 51,
                "duration": 0.3045454545454547,
                "tempo": 120.0
            },
            {
                "start_time": 47.87045454545454,
                "end_time": 48.14090909090909,
                "pitch": 47,
                "velocity": 51,
                "duration": 0.27045454545454817,
                "tempo": 120.0
            },
            {
                "start_time": 48.15681818181818,
                "end_time": 49.06590909090909,
                "pitch": 40,
                "velocity": 51,
                "duration": 0.9090909090909065,
                "tempo": 120.0
            },
            {
                "start_time": 49.08181818181818,
                "end_time": 49.349999999999994,
                "pitch": 52,
                "velocity": 51,
                "duration": 0.26818181818181586,
                "tempo": 120.0
            },
            {
                "start_time": 49.365909090909085,
                "end_time": 49.66590909090909,
                "pitch": 51,
                "velocity": 51,
                "duration": 0.30000000000000426,
                "tempo": 120.0
            },
            {
                "start_time": 49.684090909090905,
                "end_time": 49.95227272727273,
                "pitch": 47,
                "velocity": 51,
                "duration": 0.26818181818182296,
                "tempo": 120.0
            },
            {
                "start_time": 49.96818181818182,
                "end_time": 50.27272727272727,
                "pitch": 51,
                "velocity": 51,
                "duration": 0.3045454545454547,
                "tempo": 120.0
            },
            {
                "start_time": 50.288636363636364,
                "end_time": 50.559090909090905,
                "pitch": 52,
                "velocity": 51,
                "duration": 0.27045454545454106,
                "tempo": 120.0
            },
            {
                "start_time": 50.574999999999996,
                "end_time": 51.48409090909091,
                "pitch": 44,
                "velocity": 51,
                "duration": 0.9090909090909136,
                "tempo": 120.0
            },
            {
                "start_time": 51.502272727272725,
                "end_time": 51.77045454545454,
                "pitch": 56,
                "velocity": 51,
                "duration": 0.26818181818181586,
                "tempo": 120.0
            },
            {
                "start_time": 51.78636363636363,
                "end_time": 52.090909090909086,
                "pitch": 51,
                "velocity": 51,
                "duration": 0.3045454545454547,
                "tempo": 120.0
            },
            {
                "start_time": 52.10681818181818,
                "end_time": 52.37272727272727,
                "pitch": 49,
                "velocity": 51,
                "duration": 0.26590909090909065,
                "tempo": 120.0
            },
            {
                "start_time": 52.39090909090909,
                "end_time": 52.97727272727273,
                "pitch": 52,
                "velocity": 51,
                "duration": 0.586363636363636,
                "tempo": 120.0
            },
            {
                "start_time": 52.99318181818182,
                "end_time": 54.79545454545454,
                "pitch": 40,
                "velocity": 51,
                "duration": 1.8022727272727224,
                "tempo": 120.0
            }
        ],
        "Trumpet": [
            {
                "start_time": 0.011363636363636364,
                "end_time": 0.17954545454545454,
                "pitch": 40,
                "velocity": 51,
                "duration": 0.16818181818181818,
                "tempo": 120.0
            },
            {
                "start_time": 0.19772727272727272,
                "end_time": 1.075,
                "pitch": 52,
                "velocity": 51,
                "duration": 0.8772727272727272,
                "tempo": 120.0
            },
            {
                "start_time": 1.093181818181818,
                "end_time": 2.2818181818181817,
                "pitch": 46,
                "velocity": 51,
                "duration": 1.1886363636363637,
                "tempo": 120.0
            },
            {
                "start_time": 2.2977272727272724,
                "end_time": 3.4909090909090907,
                "pitch": 47,
                "velocity": 51,
                "duration": 1.1931818181818183,
                "tempo": 120.0
            },
            {
                "start_time": 3.506818181818182,
                "end_time": 4.7,
                "pitch": 51,
                "velocity": 51,
                "duration": 1.1931818181818183,
                "tempo": 120.0
            },
            {
                "start_time": 4.715909090909091,
                "end_time": 5.015909090909091,
                "pitch": 40,
                "velocity": 51,
                "duration": 0.2999999999999998,
                "tempo": 120.0
            },
            {
                "start_time": 5.034090909090909,
                "end_time": 5.8999999999999995,
                "pitch": 52,
                "velocity": 51,
                "duration": 0.8659090909090903,
                "tempo": 120.0
            },
            {
                "start_time": 5.915909090909091,
                "end_time": 7.1090909090909085,
                "pitch": 46,
                "velocity": 51,
                "duration": 1.1931818181818175,
                "tempo": 120.0
            },
            {
                "start_time": 7.125,
                "end_time": 9.518181818181818,
                "pitch": 51,
                "velocity": 51,
                "duration": 2.3931818181818176,
                "tempo": 120.0
            },
            {
                "start_time": 9.534090909090908,
                "end_time": 9.834090909090909,
                "pitch": 40,
                "velocity": 51,
                "duration": 0.3000000000000007,
                "tempo": 120.0
            },
            {
                "start_time": 9.852272727272727,
                "end_time": 10.718181818181817,
                "pitch": 52,
                "velocity": 51,
                "duration": 0.8659090909090903,
                "tempo": 120.0
            },
            {
                "start_time": 10.73409090909091,
                "end_time": 11.924999999999999,
                "pitch": 46,
                "velocity": 51,
                "duration": 1.1909090909090896,
                "tempo": 120.0
            },
            {
                "start_time": 11.94090909090909,
                "end_time": 13.125,
                "pitch": 47,
                "velocity": 51,
                "duration": 1.1840909090909104,
                "tempo": 120.0
            },
            {
                "start_time": 13.14090909090909,
                "end_time": 14.329545454545453,
                "pitch": 51,
                "velocity": 51,
                "duration": 1.1886363636363626,
                "tempo": 120.0
            },
            {
                "start_time": 14.347727272727273,
                "end_time": 14.647727272727272,
                "pitch": 40,
                "velocity": 51,
                "duration": 0.29999999999999893,
                "tempo": 120.0
            },
            {
                "start_time": 14.663636363636362,
                "end_time": 15.529545454545454,
                "pitch": 52,
                "velocity": 51,
                "duration": 0.8659090909090921,
                "tempo": 120.0
            },
            {
                "start_time": 15.547727272727272,
                "end_time": 16.736363636363635,
                "pitch": 46,
                "velocity": 51,
                "duration": 1.1886363636363626,
                "tempo": 120.0
            },
            {
                "start_time": 16.754545454545454,
                "end_time": 17.054545454545455,
                "pitch": 51,
                "velocity": 51,
                "duration": 0.3000000000000007,
                "tempo": 120.0
            },
            {
                "start_time": 17.070454545454545,
                "end_time": 17.33863636363636,
                "pitch": 51,
                "velocity": 51,
                "duration": 0.26818181818181586,
                "tempo": 120.0
            },
            {
                "start_time": 17.35681818181818,
                "end_time": 17.659090909090907,
                "pitch": 51,
                "velocity": 51,
                "duration": 0.3022727272727259,
                "tempo": 120.0
            },
            {
                "start_time": 17.677272727272726,
                "end_time": 17.945454545454545,
                "pitch": 51,
                "velocity": 51,
                "duration": 0.2681818181818194,
                "tempo": 120.0
            },
            {
                "start_time": 17.961363636363636,
                "end_time": 18.26590909090909,
                "pitch": 51,
                "velocity": 51,
                "duration": 0.3045454545454547,
                "tempo": 120.0
            },
            {
                "start_time": 18.28181818181818,
                "end_time": 18.55,
                "pitch": 51,
                "velocity": 51,
                "duration": 0.2681818181818194,
                "tempo": 120.0
            },
            {
                "start_time": 18.56590909090909,
                "end_time": 18.86590909090909,
                "pitch": 51,
                "velocity": 51,
                "duration": 0.29999999999999716,
                "tempo": 120.0
            },
            {
                "start_time": 18.88181818181818,
                "end_time": 19.152272727272727,
                "pitch": 51,
                "velocity": 51,
                "duration": 0.27045454545454817,
                "tempo": 120.0
            },
            {
                "start_time": 19.168181818181818,
                "end_time": 19.470454545454544,
                "pitch": 45,
                "velocity": 51,
                "duration": 0.3022727272727259,
                "tempo": 120.0
            },
            {
                "start_time": 19.488636363636363,
                "end_time": 19.754545454545454,
                "pitch": 45,
                "velocity": 51,
                "duration": 0.26590909090909065,
                "tempo": 120.0
            },
            {
                "start_time": 19.772727272727273,
                "end_time": 20.07272727272727,
                "pitch": 45,
                "velocity": 51,
                "duration": 0.29999999999999716,
                "tempo": 120.0
            },
            {
                "start_time": 20.08863636363636,
                "end_time": 20.35681818181818,
                "pitch": 45,
                "velocity": 51,
                "duration": 0.2681818181818194,
                "tempo": 120.0
            },
            {
                "start_time": 20.375,
                "end_time": 20.677272727272726,
                "pitch": 45,
                "velocity": 51,
                "duration": 0.3022727272727259,
                "tempo": 120.0
            },
            {
                "start_time": 20.695454545454545,
                "end_time": 20.96363636363636,
                "pitch": 45,
                "velocity": 51,
                "duration": 0.26818181818181586,
                "tempo": 120.0
            },
            {
                "start_time": 20.979545454545452,
                "end_time": 21.284090909090907,
                "pitch": 45,
                "velocity": 51,
                "duration": 0.3045454545454547,
                "tempo": 120.0
            },
            {
                "start_time": 21.3,
                "end_time": 21.568181818181817,
                "pitch": 45,
                "velocity": 51,
                "duration": 0.26818181818181586,
                "tempo": 120.0
            },
            {
                "start_time": 21.584090909090907,
                "end_time": 21.884090909090908,
                "pitch": 47,
                "velocity": 51,
                "duration": 0.3000000000000007,
                "tempo": 120.0
            },
            {
                "start_time": 21.9,
                "end_time": 22.170454545454543,
                "pitch": 47,
                "velocity": 51,
                "duration": 0.2704545454545446,
                "tempo": 120.0
            },
            {
                "start_time": 22.186363636363634,
                "end_time": 22.488636363636363,
                "pitch": 47,
                "velocity": 51,
                "duration": 0.30227272727272947,
                "tempo": 120.0
            },
            {
                "start_time": 22.50681818181818,
                "end_time": 22.772727272727273,
                "pitch": 47,
                "velocity": 51,
                "duration": 0.2659090909090942,
                "tempo": 120.0
            },
            {
                "start_time": 22.79090909090909,
                "end_time": 23.09090909090909,
                "pitch": 47,
                "velocity": 51,
                "duration": 0.3000000000000007,
                "tempo": 120.0
            },
            {
                "start_time": 23.10681818181818,
                "end_time": 23.379545454545454,
                "pitch": 47,
                "velocity": 51,
                "duration": 0.2727272727272734,
                "tempo": 120.0
            },
            {
                "start_time": 23.395454545454545,
                "end_time": 23.702272727272724,
                "pitch": 47,
                "velocity": 51,
                "duration": 0.3068181818181799,
                "tempo": 120.0
            },
            {
                "start_time": 23.71818181818182,
                "end_time": 23.98181818181818,
                "pitch": 47,
                "velocity": 51,
                "duration": 0.2636363636363619,
                "tempo": 120.0
            },
            {
                "start_time": 24.0,
                "end_time": 24.295454545454543,
                "pitch": 45,
                "velocity": 51,
                "duration": 0.2954545454545432,
                "tempo": 120.0
            },
            {
                "start_time": 24.313636363636363,
                "end_time": 24.579545454545453,
                "pitch": 45,
                "velocity": 51,
                "duration": 0.26590909090909065,
                "tempo": 120.0
            },
            {
                "start_time": 24.595454545454544,
                "end_time": 24.895454545454545,
                "pitch": 45,
                "velocity": 51,
                "duration": 0.3000000000000007,
                "tempo": 120.0
            },
            {
                "start_time": 24.913636363636364,
                "end_time": 25.18181818181818,
                "pitch": 45,
                "velocity": 51,
                "duration": 0.26818181818181586,
                "tempo": 120.0
            },
            {
                "start_time": 25.2,
                "end_time": 25.502272727272725,
                "pitch": 45,
                "velocity": 51,
                "duration": 0.3022727272727259,
                "tempo": 120.0
            },
            {
                "start_time": 25.518181818181816,
                "end_time": 25.79090909090909,
                "pitch": 45,
                "velocity": 51,
                "duration": 0.2727272727272734,
                "tempo": 120.0
            },
            {
                "start_time": 25.80681818181818,
                "end_time": 26.113636363636363,
                "pitch": 45,
                "velocity": 51,
                "duration": 0.30681818181818343,
                "tempo": 120.0
            },
            {
                "start_time": 26.129545454545454,
                "end_time": 26.395454545454545,
                "pitch": 45,
                "velocity": 51,
                "duration": 0.26590909090909065,
                "tempo": 120.0
            },
            {
                "start_time": 26.411363636363635,
                "end_time": 26.709090909090907,
                "pitch": 47,
                "velocity": 51,
                "duration": 0.29772727272727195,
                "tempo": 120.0
            },
            {
                "start_time": 26.724999999999998,
                "end_time": 26.993181818181817,
                "pitch": 47,
                "velocity": 51,
                "duration": 0.2681818181818194,
                "tempo": 120.0
            },
            {
                "start_time": 27.011363636363637,
                "end_time": 27.313636363636363,
                "pitch": 47,
                "velocity": 51,
                "duration": 0.3022727272727259,
                "tempo": 120.0
            },
            {
                "start_time": 27.331818181818182,
                "end_time": 27.597727272727273,
                "pitch": 47,
                "velocity": 51,
                "duration": 0.26590909090909065,
                "tempo": 120.0
            },
            {
                "start_time": 27.613636363636363,
                "end_time": 27.913636363636364,
                "pitch": 47,
                "velocity": 51,
                "duration": 0.3000000000000007,
                "tempo": 120.0
            },
            {
                "start_time": 27.93181818181818,
                "end_time": 28.202272727272724,
                "pitch": 47,
                "velocity": 51,
                "duration": 0.2704545454545446,
                "tempo": 120.0
            },
            {
                "start_time": 28.220454545454544,
                "end_time": 28.527272727272727,
                "pitch": 47,
                "velocity": 51,
                "duration": 0.30681818181818343,
                "tempo": 120.0
            },
            {
                "start_time": 28.543181818181818,
                "end_time": 28.80681818181818,
                "pitch": 47,
                "velocity": 51,
                "duration": 0.2636363636363619,
                "tempo": 120.0
            },
            {
                "start_time": 28.82272727272727,
                "end_time": 29.120454545454542,
                "pitch": 45,
                "velocity": 51,
                "duration": 0.29772727272727195,
                "tempo": 120.0
            },
            {
                "start_time": 29.136363636363637,
                "end_time": 29.40681818181818,
                "pitch": 45,
                "velocity": 51,
                "duration": 0.2704545454545446,
                "tempo": 120.0
            },
            {
                "start_time": 29.422727272727272,
                "end_time": 29.727272727272727,
                "pitch": 45,
                "velocity": 51,
                "duration": 0.3045454545454547,
                "tempo": 120.0
            },
            {
                "start_time": 29.743181818181817,
                "end_time": 30.013636363636362,
                "pitch": 45,
                "velocity": 51,
                "duration": 0.2704545454545446,
                "tempo": 120.0
            },
            {
                "start_time": 30.029545454545453,
                "end_time": 30.331818181818182,
                "pitch": 45,
                "velocity": 51,
                "duration": 0.30227272727272947,
                "tempo": 120.0
            },
            {
                "start_time": 30.349999999999998,
                "end_time": 30.620454545454542,
                "pitch": 45,
                "velocity": 51,
                "duration": 0.2704545454545446,
                "tempo": 120.0
            },
            {
                "start_time": 30.638636363636362,
                "end_time": 30.945454545454545,
                "pitch": 45,
                "velocity": 51,
                "duration": 0.30681818181818343,
                "tempo": 120.0
            },
            {
                "start_time": 30.961363636363636,
                "end_time": 31.224999999999998,
                "pitch": 45,
                "velocity": 51,
                "duration": 0.2636363636363619,
                "tempo": 120.0
            },
            {
                "start_time": 31.24090909090909,
                "end_time": 31.53863636363636,
                "pitch": 47,
                "velocity": 51,
                "duration": 0.29772727272727195,
                "tempo": 120.0
            },
            {
                "start_time": 31.554545454545455,
                "end_time": 31.82272727272727,
                "pitch": 47,
                "velocity": 51,
                "duration": 0.26818181818181586,
                "tempo": 120.0
            },
            {
                "start_time": 31.83863636363636,
                "end_time": 32.138636363636365,
                "pitch": 47,
                "velocity": 51,
                "duration": 0.30000000000000426,
                "tempo": 120.0
            },
            {
                "start_time": 32.154545454545456,
                "end_time": 32.425,
                "pitch": 47,
                "velocity": 51,
                "duration": 0.27045454545454106,
                "tempo": 120.0
            },
            {
                "start_time": 32.44090909090909,
                "end_time": 32.74545454545454,
                "pitch": 47,
                "velocity": 51,
                "duration": 0.3045454545454547,
                "tempo": 120.0
            },
            {
                "start_time": 32.76136363636363,
                "end_time": 33.03409090909091,
                "pitch": 47,
                "velocity": 51,
                "duration": 0.2727272727272734,
                "tempo": 120.0
            },
            {
                "start_time": 33.05,
                "end_time": 33.35681818181818,
                "pitch": 47,
                "velocity": 51,
                "duration": 0.3068181818181799,
                "tempo": 120.0
            },
            {
                "start_time": 33.37272727272727,
                "end_time": 33.63636363636363,
                "pitch": 47,
                "velocity": 51,
                "duration": 0.26363636363636545,
                "tempo": 120.0
            },
            {
                "start_time": 33.654545454545456,
                "end_time": 33.949999999999996,
                "pitch": 45,
                "velocity": 51,
                "duration": 0.29545454545453964,
                "tempo": 120.0
            },
            {
                "start_time": 33.96818181818182,
                "end_time": 34.23409090909091,
                "pitch": 45,
                "velocity": 51,
                "duration": 0.26590909090909065,
                "tempo": 120.0
            },
            {
                "start_time": 34.25,
                "end_time": 34.55,
                "pitch": 45,
                "velocity": 51,
                "duration": 0.29999999999999716,
                "tempo": 120.0
            },
            {
                "start_time": 34.56818181818181,
                "end_time": 34.836363636363636,
                "pitch": 45,
                "velocity": 51,
                "duration": 0.26818181818182296,
                "tempo": 120.0
            },
            {
                "start_time": 34.85454545454545,
                "end_time": 35.15681818181818,
                "pitch": 45,
                "velocity": 51,
                "duration": 0.30227272727272947,
                "tempo": 120.0
            },
            {
                "start_time": 35.17272727272727,
                "end_time": 35.445454545454545,
                "pitch": 45,
                "velocity": 51,
                "duration": 0.2727272727272734,
                "tempo": 120.0
            },
            {
                "start_time": 35.46363636363636,
                "end_time": 35.768181818181816,
                "pitch": 45,
                "velocity": 51,
                "duration": 0.3045454545454547,
                "tempo": 120.0
            },
            {
                "start_time": 35.78636363636363,
                "end_time": 36.05,
                "pitch": 45,
                "velocity": 51,
                "duration": 0.26363636363636545,
                "tempo": 120.0
            },
            {
                "start_time": 36.06590909090909,
                "end_time": 37.252272727272725,
                "pitch": 68,
                "velocity": 51,
                "duration": 1.1863636363636374,
                "tempo": 120.0
            },
            {
                "start_time": 37.268181818181816,
                "end_time": 37.85454545454545,
                "pitch": 66,
                "velocity": 51,
                "duration": 0.586363636363636,
                "tempo": 120.0
            },
            {
                "start_time": 37.87272727272727,
                "end_time": 38.461363636363636,
                "pitch": 71,
                "velocity": 51,
                "duration": 0.5886363636363683,
                "tempo": 120.0
            },
            {
                "start_time": 38.47727272727273,
                "end_time": 39.38636363636363,
                "pitch": 69,
                "velocity": 51,
                "duration": 0.9090909090909065,
                "tempo": 120.0
            },
            {
                "start_time": 39.404545454545456,
                "end_time": 39.67272727272727,
                "pitch": 68,
                "velocity": 51,
                "duration": 0.26818181818181586,
                "tempo": 120.0
            },
            {
                "start_time": 39.69090909090909,
                "end_time": 40.277272727272724,
                "pitch": 68,
                "velocity": 51,
                "duration": 0.586363636363636,
                "tempo": 120.0
            },
            {
                "start_time": 40.293181818181814,
                "end_time": 40.87954545454545,
                "pitch": 73,
                "velocity": 51,
                "duration": 0.586363636363636,
                "tempo": 120.0
            },
            {
                "start_time": 40.89545454545454,
                "end_time": 41.804545454545455,
                "pitch": 71,
                "velocity": 51,
                "duration": 0.9090909090909136,
                "tempo": 120.0
            },
            {
                "start_time": 41.82272727272727,
                "end_time": 42.090909090909086,
                "pitch": 69,
                "velocity": 51,
                "duration": 0.26818181818181586,
                "tempo": 120.0
            },
            {
                "start_time": 42.10909090909091,
                "end_time": 43.018181818181816,
                "pitch": 69,
                "velocity": 51,
                "duration": 0.9090909090909065,
                "tempo": 120.0
            },
            {
                "start_time": 43.03409090909091,
                "end_time": 43.3,
                "pitch": 68,
                "velocity": 51,
                "duration": 0.26590909090909065,
                "tempo": 120.0
            },
            {
                "start_time": 43.31818181818181,
                "end_time": 45.11590909090909,
                "pitch": 68,
                "velocity": 51,
                "duration": 1.797727272727279,
                "tempo": 120.0
            },
            {
                "start_time": 45.73863636363636,
                "end_time": 46.64090909090909,
                "pitch": 68,
                "velocity": 51,
                "duration": 0.9022727272727309,
                "tempo": 120.0
            },
            {
                "start_time": 46.65909090909091,
                "end_time": 46.92727272727272,
                "pitch": 66,
                "velocity": 51,
                "duration": 0.26818181818181586,
                "tempo": 120.0
            },
            {
                "start_time": 46.945454545454545,
                "end_time": 47.53409090909091,
                "pitch": 66,
                "velocity": 51,
                "duration": 0.5886363636363612,
                "tempo": 120.0
            },
            {
                "start_time": 47.55,
                "end_time": 48.14090909090909,
                "pitch": 71,
                "velocity": 51,
                "duration": 0.5909090909090935,
                "tempo": 120.0
            },
            {
                "start_time": 48.15681818181818,
                "end_time": 49.06590909090909,
                "pitch": 69,
                "velocity": 51,
                "duration": 0.9090909090909065,
                "tempo": 120.0
            },
            {
                "start_time": 49.08181818181818,
                "end_time": 49.349999999999994,
                "pitch": 73,
                "velocity": 51,
                "duration": 0.26818181818181586,
                "tempo": 120.0
            },
            {
                "start_time": 49.365909090909085,
                "end_time": 49.95227272727273,
                "pitch": 71,
                "velocity": 51,
                "duration": 0.5863636363636431,
                "tempo": 120.0
            },
            {
                "start_time": 49.96818181818182,
                "end_time": 50.559090909090905,
                "pitch": 66,
                "velocity": 51,
                "duration": 0.5909090909090864,
                "tempo": 120.0
            },
            {
                "start_time": 50.574999999999996,
                "end_time": 52.37272727272727,
                "pitch": 66,
                "velocity": 51,
                "duration": 1.797727272727272,
                "tempo": 120.0
            },
            {
                "start_time": 52.39090909090909,
                "end_time": 52.69090909090909,
                "pitch": 66,
                "velocity": 51,
                "duration": 0.29999999999999716,
                "tempo": 120.0
            },
            {
                "start_time": 52.70681818181818,
                "end_time": 52.97727272727273,
                "pitch": 68,
                "velocity": 51,
                "duration": 0.27045454545454817,
                "tempo": 120.0
            },
            {
                "start_time": 52.99318181818182,
                "end_time": 54.79545454545454,
                "pitch": 68,
                "velocity": 51,
                "duration": 1.8022727272727224,
                "tempo": 120.0
            }
        ],
        "French Horn": [
            {
                "start_time": 0.011363636363636364,
                "end_time": 0.022727272727272728,
                "pitch": 76,
                "velocity": 32,
                "duration": 0.011363636363636364,
                "tempo": 120.0
            },
            {
                "start_time": 0.5499999999999999,
                "end_time": 0.8022727272727272,
                "pitch": 76,
                "velocity": 32,
                "duration": 0.2522727272727273,
                "tempo": 120.0
            },
            {
                "start_time": 0.8704545454545454,
                "end_time": 1.1272727272727272,
                "pitch": 75,
                "velocity": 32,
                "duration": 0.25681818181818183,
                "tempo": 120.0
            },
            {
                "start_time": 1.1613636363636364,
                "end_time": 1.4159090909090908,
                "pitch": 73,
                "velocity": 32,
                "duration": 0.2545454545454544,
                "tempo": 120.0
            },
            {
                "start_time": 1.4818181818181817,
                "end_time": 2.0159090909090907,
                "pitch": 71,
                "velocity": 32,
                "duration": 0.534090909090909,
                "tempo": 120.0
            },
            {
                "start_time": 2.0818181818181816,
                "end_time": 2.3318181818181816,
                "pitch": 73,
                "velocity": 32,
                "duration": 0.25,
                "tempo": 120.0
            },
            {
                "start_time": 2.3659090909090907,
                "end_time": 3.2204545454545452,
                "pitch": 75,
                "velocity": 32,
                "duration": 0.8545454545454545,
                "tempo": 120.0
            },
            {
                "start_time": 3.2886363636363636,
                "end_time": 3.5409090909090906,
                "pitch": 73,
                "velocity": 32,
                "duration": 0.252272727272727,
                "tempo": 120.0
            },
            {
                "start_time": 3.5749999999999997,
                "end_time": 4.1477272727272725,
                "pitch": 71,
                "velocity": 32,
                "duration": 0.5727272727272728,
                "tempo": 120.0
            },
            {
                "start_time": 4.181818181818182,
                "end_time": 4.75,
                "pitch": 70,
                "velocity": 32,
                "duration": 0.5681818181818183,
                "tempo": 120.0
            },
            {
                "start_time": 5.379545454545454,
                "end_time": 5.627272727272727,
                "pitch": 76,
                "velocity": 32,
                "duration": 0.24772727272727302,
                "tempo": 120.0
            },
            {
                "start_time": 5.695454545454545,
                "end_time": 5.949999999999999,
                "pitch": 75,
                "velocity": 32,
                "duration": 0.25454545454545396,
                "tempo": 120.0
            },
            {
                "start_time": 5.9840909090909085,
                "end_time": 6.238636363636363,
                "pitch": 73,
                "velocity": 32,
                "duration": 0.25454545454545485,
                "tempo": 120.0
            },
            {
                "start_time": 6.306818181818182,
                "end_time": 6.838636363636363,
                "pitch": 71,
                "velocity": 32,
                "duration": 0.5318181818181813,
                "tempo": 120.0
            },
            {
                "start_time": 6.906818181818181,
                "end_time": 7.159090909090909,
                "pitch": 73,
                "velocity": 32,
                "duration": 0.25227272727272787,
                "tempo": 120.0
            },
            {
                "start_time": 7.1931818181818175,
                "end_time": 8.968181818181817,
                "pitch": 71,
                "velocity": 32,
                "duration": 1.7749999999999995,
                "tempo": 120.0
            },
            {
                "start_time": 10.197727272727272,
                "end_time": 10.445454545454545,
                "pitch": 76,
                "velocity": 32,
                "duration": 0.24772727272727302,
                "tempo": 120.0
            },
            {
                "start_time": 10.513636363636364,
                "end_time": 10.768181818181818,
                "pitch": 75,
                "velocity": 32,
                "duration": 0.25454545454545396,
                "tempo": 120.0
            },
            {
                "start_time": 10.802272727272726,
                "end_time": 11.056818181818182,
                "pitch": 73,
                "velocity": 32,
                "duration": 0.25454545454545574,
                "tempo": 120.0
            },
            {
                "start_time": 11.125,
                "end_time": 11.656818181818181,
                "pitch": 71,
                "velocity": 32,
                "duration": 0.5318181818181813,
                "tempo": 120.0
            },
            {
                "start_time": 11.725,
                "end_time": 11.975,
                "pitch": 73,
                "velocity": 32,
                "duration": 0.25,
                "tempo": 120.0
            },
            {
                "start_time": 12.006818181818181,
                "end_time": 12.85681818181818,
                "pitch": 75,
                "velocity": 32,
                "duration": 0.8499999999999996,
                "tempo": 120.0
            },
            {
                "start_time": 12.924999999999999,
                "end_time": 13.174999999999999,
                "pitch": 73,
                "velocity": 32,
                "duration": 0.25,
                "tempo": 120.0
            },
            {
                "start_time": 13.206818181818182,
                "end_time": 13.777272727272727,
                "pitch": 71,
                "velocity": 32,
                "duration": 0.5704545454545453,
                "tempo": 120.0
            },
            {
                "start_time": 13.811363636363636,
                "end_time": 14.379545454545454,
                "pitch": 70,
                "velocity": 32,
                "duration": 0.5681818181818183,
                "tempo": 120.0
            },
            {
                "start_time": 15.009090909090908,
                "end_time": 15.259090909090908,
                "pitch": 76,
                "velocity": 32,
                "duration": 0.25,
                "tempo": 120.0
            },
            {
                "start_time": 15.325,
                "end_time": 15.58181818181818,
                "pitch": 75,
                "velocity": 32,
                "duration": 0.25681818181818095,
                "tempo": 120.0
            },
            {
                "start_time": 15.61590909090909,
                "end_time": 15.870454545454544,
                "pitch": 73,
                "velocity": 32,
                "duration": 0.25454545454545396,
                "tempo": 120.0
            },
            {
                "start_time": 15.936363636363636,
                "end_time": 16.470454545454544,
                "pitch": 71,
                "velocity": 32,
                "duration": 0.5340909090909083,
                "tempo": 120.0
            },
            {
                "start_time": 16.536363636363635,
                "end_time": 16.786363636363635,
                "pitch": 73,
                "velocity": 32,
                "duration": 0.25,
                "tempo": 120.0
            },
            {
                "start_time": 16.820454545454545,
                "end_time": 18.599999999999998,
                "pitch": 71,
                "velocity": 32,
                "duration": 1.7795454545454525,
                "tempo": 120.0
            },
            {
                "start_time": 19.236363636363635,
                "end_time": 20.08863636363636,
                "pitch": 73,
                "velocity": 32,
                "duration": 0.8522727272727266,
                "tempo": 120.0
            },
            {
                "start_time": 20.15681818181818,
                "end_time": 20.409090909090907,
                "pitch": 75,
                "velocity": 32,
                "duration": 0.2522727272727252,
                "tempo": 120.0
            },
            {
                "start_time": 20.44090909090909,
                "end_time": 20.695454545454545,
                "pitch": 76,
                "velocity": 32,
                "duration": 0.25454545454545396,
                "tempo": 120.0
            },
            {
                "start_time": 20.761363636363637,
                "end_time": 21.3,
                "pitch": 75,
                "velocity": 32,
                "duration": 0.538636363636364,
                "tempo": 120.0
            },
            {
                "start_time": 21.368181818181817,
                "end_time": 21.618181818181817,
                "pitch": 76,
                "velocity": 32,
                "duration": 0.25,
                "tempo": 120.0
            },
            {
                "start_time": 21.65,
                "end_time": 23.429545454545455,
                "pitch": 78,
                "velocity": 32,
                "duration": 1.779545454545456,
                "tempo": 120.0
            },
            {
                "start_time": 24.06590909090909,
                "end_time": 24.913636363636364,
                "pitch": 73,
                "velocity": 32,
                "duration": 0.8477272727272727,
                "tempo": 120.0
            },
            {
                "start_time": 24.979545454545452,
                "end_time": 25.23181818181818,
                "pitch": 75,
                "velocity": 32,
                "duration": 0.25227272727272876,
                "tempo": 120.0
            },
            {
                "start_time": 25.26590909090909,
                "end_time": 25.518181818181816,
                "pitch": 76,
                "velocity": 32,
                "duration": 0.2522727272727252,
                "tempo": 120.0
            },
            {
                "start_time": 25.586363636363636,
                "end_time": 26.129545454545454,
                "pitch": 75,
                "velocity": 32,
                "duration": 0.543181818181818,
                "tempo": 120.0
            },
            {
                "start_time": 26.19772727272727,
                "end_time": 26.443181818181817,
                "pitch": 73,
                "velocity": 32,
                "duration": 0.24545454545454604,
                "tempo": 120.0
            },
            {
                "start_time": 26.477272727272727,
                "end_time": 28.254545454545454,
                "pitch": 71,
                "velocity": 32,
                "duration": 1.7772727272727273,
                "tempo": 120.0
            },
            {
                "start_time": 28.888636363636362,
                "end_time": 29.743181818181817,
                "pitch": 73,
                "velocity": 32,
                "duration": 0.8545454545454554,
                "tempo": 120.0
            },
            {
                "start_time": 29.811363636363634,
                "end_time": 30.063636363636363,
                "pitch": 75,
                "velocity": 32,
                "duration": 0.25227272727272876,
                "tempo": 120.0
            },
            {
                "start_time": 30.097727272727273,
                "end_time": 30.349999999999998,
                "pitch": 76,
                "velocity": 32,
                "duration": 0.2522727272727252,
                "tempo": 120.0
            },
            {
                "start_time": 30.418181818181818,
                "end_time": 30.961363636363636,
                "pitch": 75,
                "velocity": 32,
                "duration": 0.543181818181818,
                "tempo": 120.0
            },
            {
                "start_time": 31.027272727272727,
                "end_time": 31.275,
                "pitch": 76,
                "velocity": 32,
                "duration": 0.24772727272727124,
                "tempo": 120.0
            },
            {
                "start_time": 31.30681818181818,
                "end_time": 33.08409090909091,
                "pitch": 78,
                "velocity": 32,
                "duration": 1.777272727272731,
                "tempo": 120.0
            },
            {
                "start_time": 33.720454545454544,
                "end_time": 34.56818181818181,
                "pitch": 73,
                "velocity": 32,
                "duration": 0.8477272727272691,
                "tempo": 120.0
            },
            {
                "start_time": 34.63409090909091,
                "end_time": 34.888636363636365,
                "pitch": 75,
                "velocity": 32,
                "duration": 0.2545454545454575,
                "tempo": 120.0
            },
            {
                "start_time": 34.92045454545455,
                "end_time": 35.17272727272727,
                "pitch": 76,
                "velocity": 32,
                "duration": 0.2522727272727252,
                "tempo": 120.0
            },
            {
                "start_time": 35.24090909090909,
                "end_time": 35.78636363636363,
                "pitch": 75,
                "velocity": 32,
                "duration": 0.5454545454545396,
                "tempo": 120.0
            },
            {
                "start_time": 35.85227272727273,
                "end_time": 36.1,
                "pitch": 73,
                "velocity": 32,
                "duration": 0.2477272727272748,
                "tempo": 120.0
            },
            {
                "start_time": 36.13181818181818,
                "end_time": 37.30227272727272,
                "pitch": 71,
                "velocity": 32,
                "duration": 1.1704545454545396,
                "tempo": 120.0
            },
            {
                "start_time": 37.336363636363636,
                "end_time": 37.90681818181818,
                "pitch": 69,
                "velocity": 32,
                "duration": 0.5704545454545453,
                "tempo": 120.0
            },
            {
                "start_time": 37.93863636363636,
                "end_time": 38.51136363636363,
                "pitch": 75,
                "velocity": 32,
                "duration": 0.5727272727272705,
                "tempo": 120.0
            },
            {
                "start_time": 38.54545454545455,
                "end_time": 39.404545454545456,
                "pitch": 73,
                "velocity": 32,
                "duration": 0.8590909090909093,
                "tempo": 120.0
            },
            {
                "start_time": 39.470454545454544,
                "end_time": 39.725,
                "pitch": 71,
                "velocity": 32,
                "duration": 0.2545454545454575,
                "tempo": 120.0
            },
            {
                "start_time": 39.75681818181818,
                "end_time": 40.32727272727273,
                "pitch": 71,
                "velocity": 32,
                "duration": 0.5704545454545453,
                "tempo": 120.0
            },
            {
                "start_time": 40.35909090909091,
                "end_time": 40.929545454545455,
                "pitch": 76,
                "velocity": 32,
                "duration": 0.5704545454545453,
                "tempo": 120.0
            },
            {
                "start_time": 40.96363636363636,
                "end_time": 41.82272727272727,
                "pitch": 75,
                "velocity": 32,
                "duration": 0.8590909090909093,
                "tempo": 120.0
            },
            {
                "start_time": 41.88863636363636,
                "end_time": 42.143181818181816,
                "pitch": 73,
                "velocity": 32,
                "duration": 0.2545454545454575,
                "tempo": 120.0
            },
            {
                "start_time": 42.175,
                "end_time": 43.03409090909091,
                "pitch": 71,
                "velocity": 32,
                "duration": 0.8590909090909093,
                "tempo": 120.0
            },
            {
                "start_time": 43.1,
                "end_time": 43.35,
                "pitch": 71,
                "velocity": 32,
                "duration": 0.25,
                "tempo": 120.0
            },
            {
                "start_time": 43.38409090909091,
                "end_time": 45.16590909090909,
                "pitch": 71,
                "velocity": 32,
                "duration": 1.7818181818181813,
                "tempo": 120.0
            },
            {
                "start_time": 45.80681818181818,
                "end_time": 46.65909090909091,
                "pitch": 71,
                "velocity": 32,
                "duration": 0.8522727272727266,
                "tempo": 120.0
            },
            {
                "start_time": 46.724999999999994,
                "end_time": 46.97954545454545,
                "pitch": 69,
                "velocity": 32,
                "duration": 0.2545454545454575,
                "tempo": 120.0
            },
            {
                "start_time": 47.01136363636363,
                "end_time": 47.584090909090904,
                "pitch": 69,
                "velocity": 32,
                "duration": 0.5727272727272705,
                "tempo": 120.0
            },
            {
                "start_time": 47.61818181818182,
                "end_time": 48.19090909090909,
                "pitch": 75,
                "velocity": 32,
                "duration": 0.5727272727272705,
                "tempo": 120.0
            },
            {
                "start_time": 48.224999999999994,
                "end_time": 49.08181818181818,
                "pitch": 73,
                "velocity": 32,
                "duration": 0.8568181818181841,
                "tempo": 120.0
            },
            {
                "start_time": 49.15,
                "end_time": 49.4,
                "pitch": 76,
                "velocity": 32,
                "duration": 0.25,
                "tempo": 120.0
            },
            {
                "start_time": 49.43181818181818,
                "end_time": 50.288636363636364,
                "pitch": 75,
                "velocity": 32,
                "duration": 0.8568181818181841,
                "tempo": 120.0
            },
            {
                "start_time": 50.35681818181818,
                "end_time": 50.60909090909091,
                "pitch": 69,
                "velocity": 32,
                "duration": 0.2522727272727323,
                "tempo": 120.0
            },
            {
                "start_time": 50.643181818181816,
                "end_time": 53.027272727272724,
                "pitch": 71,
                "velocity": 32,
                "duration": 2.384090909090908,
                "tempo": 120.0
            },
            {
                "start_time": 53.06136363636363,
                "end_time": 54.845454545454544,
                "pitch": 71,
                "velocity": 32,
                "duration": 1.7840909090909136,
                "tempo": 120.0
            }
        ]
    }
}