{
    "track_id": "Space Harrier 3-D (FM) - 10 - Game Over",
    "mood": "relaxed",
    "instruments": {
        "Acoustic Bass": [
            {
                "start_time": 0.0,
                "end_time": 0.6863636363636363,
                "pitch": 38,
                "velocity": 51,
                "duration": 0.6863636363636363,
                "tempo": 120.0
            },
            {
                "start_time": 0.7045454545454545,
                "end_time": 0.9727272727272727,
                "pitch": 38,
                "velocity": 51,
                "duration": 0.2681818181818182,
                "tempo": 120.0
            },
            {
                "start_time": 0.9886363636363635,
                "end_time": 1.5727272727272728,
                "pitch": 45,
                "velocity": 51,
                "duration": 0.5840909090909092,
                "tempo": 120.0
            },
            {
                "start_time": 1.5886363636363636,
                "end_time": 2.1795454545454542,
                "pitch": 45,
                "velocity": 51,
                "duration": 0.5909090909090906,
                "tempo": 120.0
            },
            {
                "start_time": 2.1954545454545453,
                "end_time": 3.1045454545454545,
                "pitch": 38,
                "velocity": 51,
                "duration": 0.9090909090909092,
                "tempo": 120.0
            },
            {
                "start_time": 3.1227272727272726,
                "end_time": 3.3909090909090907,
                "pitch": 38,
                "velocity": 51,
                "duration": 0.2681818181818181,
                "tempo": 120.0
            },
            {
                "start_time": 3.4068181818181817,
                "end_time": 3.9909090909090907,
                "pitch": 45,
                "velocity": 51,
                "duration": 0.584090909090909,
                "tempo": 120.0
            },
            {
                "start_time": 4.006818181818182,
                "end_time": 4.597727272727273,
                "pitch": 45,
                "velocity": 51,
                "duration": 0.5909090909090908,
                "tempo": 120.0
            },
            {
                "start_time": 4.613636363636363,
                "end_time": 5.513636363636364,
                "pitch": 40,
                "velocity": 51,
                "duration": 0.9000000000000004,
                "tempo": 120.0
            },
            {
                "start_time": 5.529545454545454,
                "end_time": 5.797727272727273,
                "pitch": 40,
                "velocity": 51,
                "duration": 0.2681818181818185,
                "tempo": 120.0
            },
            {
                "start_time": 5.8136363636363635,
                "end_time": 6.402272727272727,
                "pitch": 47,
                "velocity": 51,
                "duration": 0.5886363636363638,
                "tempo": 120.0
            },
            {
                "start_time": 6.420454545454545,
                "end_time": 7.002272727272727,
                "pitch": 47,
                "velocity": 51,
                "duration": 0.581818181818182,
                "tempo": 120.0
            },
            {
                "start_time": 7.0204545454545455,
                "end_time": 7.925,
                "pitch": 40,
                "velocity": 51,
                "duration": 0.9045454545454543,
                "tempo": 120.0
            },
            {
                "start_time": 7.9431818181818175,
                "end_time": 8.209090909090909,
                "pitch": 40,
                "velocity": 51,
                "duration": 0.26590909090909154,
                "tempo": 120.0
            },
            {
                "start_time": 8.225,
                "end_time": 8.809090909090909,
                "pitch": 47,
                "velocity": 51,
                "duration": 0.584090909090909,
                "tempo": 120.0
            },
            {
                "start_time": 8.825,
                "end_time": 9.409090909090908,
                "pitch": 47,
                "velocity": 51,
                "duration": 0.584090909090909,
                "tempo": 120.0
            },
            {
                "start_time": 9.424999999999999,
                "end_time": 10.331818181818182,
                "pitch": 42,
                "velocity": 51,
                "duration": 0.9068181818181831,
                "tempo": 120.0
            },
            {
                "start_time": 10.347727272727273,
                "end_time": 10.61590909090909,
                "pitch": 42,
                "velocity": 51,
                "duration": 0.26818181818181763,
                "tempo": 120.0
            },
            {
                "start_time": 10.631818181818181,
                "end_time": 11.21590909090909,
                "pitch": 49,
                "velocity": 51,
                "duration": 0.584090909090909,
                "tempo": 120.0
            },
            {
                "start_time": 11.23181818181818,
                "end_time": 11.81590909090909,
                "pitch": 49,
                "velocity": 51,
                "duration": 0.584090909090909,
                "tempo": 120.0
            },
            {
                "start_time": 11.831818181818182,
                "end_time": 12.73409090909091,
                "pitch": 42,
                "velocity": 51,
                "duration": 0.9022727272727273,
                "tempo": 120.0
            },
            {
                "start_time": 12.752272727272727,
                "end_time": 13.020454545454545,
                "pitch": 42,
                "velocity": 51,
                "duration": 0.26818181818181763,
                "tempo": 120.0
            },
            {
                "start_time": 13.038636363636362,
                "end_time": 13.620454545454544,
                "pitch": 49,
                "velocity": 51,
                "duration": 0.581818181818182,
                "tempo": 120.0
            },
            {
                "start_time": 13.638636363636364,
                "end_time": 14.220454545454544,
                "pitch": 49,
                "velocity": 51,
                "duration": 0.5818181818181802,
                "tempo": 120.0
            },
            {
                "start_time": 14.238636363636363,
                "end_time": 15.138636363636364,
                "pitch": 38,
                "velocity": 51,
                "duration": 0.9000000000000004,
                "tempo": 120.0
            },
            {
                "start_time": 15.154545454545454,
                "end_time": 15.420454545454545,
                "pitch": 38,
                "velocity": 51,
                "duration": 0.26590909090909065,
                "tempo": 120.0
            },
            {
                "start_time": 15.438636363636363,
                "end_time": 16.027272727272727,
                "pitch": 45,
                "velocity": 51,
                "duration": 0.5886363636363647,
                "tempo": 120.0
            },
            {
                "start_time": 16.043181818181818,
                "end_time": 16.627272727272725,
                "pitch": 45,
                "velocity": 51,
                "duration": 0.5840909090909072,
                "tempo": 120.0
            },
            {
                "start_time": 16.643181818181816,
                "end_time": 17.552272727272726,
                "pitch": 38,
                "velocity": 51,
                "duration": 0.9090909090909101,
                "tempo": 120.0
            },
            {
                "start_time": 17.570454545454545,
                "end_time": 17.83863636363636,
                "pitch": 38,
                "velocity": 51,
                "duration": 0.26818181818181586,
                "tempo": 120.0
            },
            {
                "start_time": 17.85681818181818,
                "end_time": 18.438636363636363,
                "pitch": 45,
                "velocity": 51,
                "duration": 0.581818181818182,
                "tempo": 120.0
            },
            {
                "start_time": 18.456818181818182,
                "end_time": 19.045454545454543,
                "pitch": 45,
                "velocity": 51,
                "duration": 0.5886363636363612,
                "tempo": 120.0
            },
            {
                "start_time": 19.061363636363634,
                "end_time": 19.96590909090909,
                "pitch": 38,
                "velocity": 51,
                "duration": 0.9045454545454561,
                "tempo": 120.0
            },
            {
                "start_time": 19.98181818181818,
                "end_time": 20.252272727272725,
                "pitch": 38,
                "velocity": 51,
                "duration": 0.2704545454545446,
                "tempo": 120.0
            },
            {
                "start_time": 20.268181818181816,
                "end_time": 20.85681818181818,
                "pitch": 45,
                "velocity": 51,
                "duration": 0.5886363636363647,
                "tempo": 120.0
            },
            {
                "start_time": 20.875,
                "end_time": 21.456818181818182,
                "pitch": 45,
                "velocity": 51,
                "duration": 0.581818181818182,
                "tempo": 120.0
            },
            {
                "start_time": 21.474999999999998,
                "end_time": 22.379545454545454,
                "pitch": 38,
                "velocity": 51,
                "duration": 0.9045454545454561,
                "tempo": 120.0
            },
            {
                "start_time": 22.397727272727273,
                "end_time": 22.663636363636364,
                "pitch": 38,
                "velocity": 51,
                "duration": 0.26590909090909065,
                "tempo": 120.0
            },
            {
                "start_time": 22.679545454545455,
                "end_time": 23.270454545454545,
                "pitch": 45,
                "velocity": 51,
                "duration": 0.5909090909090899,
                "tempo": 120.0
            },
            {
                "start_time": 23.286363636363635,
                "end_time": 23.875,
                "pitch": 45,
                "velocity": 51,
                "duration": 0.5886363636363647,
                "tempo": 120.0
            },
            {
                "start_time": 23.893181818181816,
                "end_time": 24.795454545454543,
                "pitch": 40,
                "velocity": 51,
                "duration": 0.9022727272727273,
                "tempo": 120.0
            },
            {
                "start_time": 24.813636363636363,
                "end_time": 25.081818181818182,
                "pitch": 40,
                "velocity": 51,
                "duration": 0.2681818181818194,
                "tempo": 120.0
            },
            {
                "start_time": 25.097727272727273,
                "end_time": 25.68181818181818,
                "pitch": 47,
                "velocity": 51,
                "duration": 0.5840909090909072,
                "tempo": 120.0
            },
            {
                "start_time": 25.69772727272727,
                "end_time": 26.288636363636364,
                "pitch": 47,
                "velocity": 51,
                "duration": 0.5909090909090935,
                "tempo": 120.0
            },
            {
                "start_time": 26.304545454545455,
                "end_time": 27.211363636363636,
                "pitch": 40,
                "velocity": 51,
                "duration": 0.9068181818181813,
                "tempo": 120.0
            },
            {
                "start_time": 27.227272727272727,
                "end_time": 27.493181818181817,
                "pitch": 40,
                "velocity": 51,
                "duration": 0.26590909090909065,
                "tempo": 120.0
            },
            {
                "start_time": 27.511363636363637,
                "end_time": 28.099999999999998,
                "pitch": 47,
                "velocity": 51,
                "duration": 0.5886363636363612,
                "tempo": 120.0
            },
            {
                "start_time": 28.11590909090909,
                "end_time": 28.7,
                "pitch": 47,
                "velocity": 51,
                "duration": 0.5840909090909108,
                "tempo": 120.0
            },
            {
                "start_time": 28.71590909090909,
                "end_time": 29.625,
                "pitch": 42,
                "velocity": 51,
                "duration": 0.9090909090909101,
                "tempo": 120.0
            },
            {
                "start_time": 29.643181818181816,
                "end_time": 29.911363636363635,
                "pitch": 42,
                "velocity": 51,
                "duration": 0.2681818181818194,
                "tempo": 120.0
            },
            {
                "start_time": 29.929545454545455,
                "end_time": 30.511363636363633,
                "pitch": 49,
                "velocity": 51,
                "duration": 0.5818181818181785,
                "tempo": 120.0
            },
            {
                "start_time": 30.529545454545453,
                "end_time": 31.118181818181817,
                "pitch": 49,
                "velocity": 51,
                "duration": 0.5886363636363647,
                "tempo": 120.0
            },
            {
                "start_time": 31.134090909090908,
                "end_time": 32.038636363636364,
                "pitch": 42,
                "velocity": 51,
                "duration": 0.9045454545454561,
                "tempo": 120.0
            },
            {
                "start_time": 32.054545454545455,
                "end_time": 32.324999999999996,
                "pitch": 42,
                "velocity": 51,
                "duration": 0.27045454545454106,
                "tempo": 120.0
            },
            {
                "start_time": 32.340909090909086,
                "end_time": 32.929545454545455,
                "pitch": 49,
                "velocity": 51,
                "duration": 0.5886363636363683,
                "tempo": 120.0
            },
            {
                "start_time": 32.94772727272727,
                "end_time": 33.53636363636363,
                "pitch": 49,
                "velocity": 51,
                "duration": 0.5886363636363612,
                "tempo": 120.0
            },
            {
                "start_time": 33.55227272727272,
                "end_time": 34.45681818181818,
                "pitch": 38,
                "velocity": 51,
                "duration": 0.9045454545454561,
                "tempo": 120.0
            },
            {
                "start_time": 34.47272727272727,
                "end_time": 34.74318181818182,
                "pitch": 38,
                "velocity": 51,
                "duration": 0.27045454545454817,
                "tempo": 120.0
            },
            {
                "start_time": 34.75909090909091,
                "end_time": 35.34772727272727,
                "pitch": 45,
                "velocity": 51,
                "duration": 0.5886363636363612,
                "tempo": 120.0
            },
            {
                "start_time": 35.36590909090909,
                "end_time": 35.95454545454545,
                "pitch": 45,
                "velocity": 51,
                "duration": 0.5886363636363612,
                "tempo": 120.0
            },
            {
                "start_time": 35.970454545454544,
                "end_time": 36.877272727272725,
                "pitch": 38,
                "velocity": 51,
                "duration": 0.9068181818181813,
                "tempo": 120.0
            },
            {
                "start_time": 36.893181818181816,
                "end_time": 37.16136363636363,
                "pitch": 38,
                "velocity": 51,
                "duration": 0.26818181818181586,
                "tempo": 120.0
            },
            {
                "start_time": 37.17727272727272,
                "end_time": 37.76590909090909,
                "pitch": 45,
                "velocity": 51,
                "duration": 0.5886363636363683,
                "tempo": 120.0
            },
            {
                "start_time": 37.78409090909091,
                "end_time": 38.37272727272727,
                "pitch": 45,
                "velocity": 51,
                "duration": 0.5886363636363612,
                "tempo": 120.0
            }
        ],
        "French Horn": [
            {
                "start_time": 0.0,
                "end_time": 0.022727272727272728,
                "pitch": 76,
                "velocity": 32,
                "duration": 0.022727272727272728,
                "tempo": 120.0
            },
            {
                "start_time": 0.022727272727272728,
                "end_time": 1.3068181818181817,
                "pitch": 74,
                "velocity": 32,
                "duration": 1.284090909090909,
                "tempo": 120.0
            },
            {
                "start_time": 1.3727272727272726,
                "end_time": 1.6227272727272726,
                "pitch": 78,
                "velocity": 32,
                "duration": 0.25,
                "tempo": 120.0
            },
            {
                "start_time": 1.6568181818181817,
                "end_time": 1.909090909090909,
                "pitch": 79,
                "velocity": 32,
                "duration": 0.2522727272727272,
                "tempo": 120.0
            },
            {
                "start_time": 1.977272727272727,
                "end_time": 3.7249999999999996,
                "pitch": 81,
                "velocity": 32,
                "duration": 1.7477272727272726,
                "tempo": 120.0
            },
            {
                "start_time": 3.7909090909090906,
                "end_time": 4.040909090909091,
                "pitch": 86,
                "velocity": 32,
                "duration": 0.25000000000000044,
                "tempo": 120.0
            },
            {
                "start_time": 4.075,
                "end_time": 4.6477272727272725,
                "pitch": 85,
                "velocity": 32,
                "duration": 0.5727272727272723,
                "tempo": 120.0
            },
            {
                "start_time": 4.679545454545455,
                "end_time": 6.134090909090909,
                "pitch": 76,
                "velocity": 32,
                "duration": 1.4545454545454541,
                "tempo": 120.0
            },
            {
                "start_time": 6.199999999999999,
                "end_time": 6.452272727272727,
                "pitch": 81,
                "velocity": 32,
                "duration": 0.25227272727272787,
                "tempo": 120.0
            },
            {
                "start_time": 6.486363636363636,
                "end_time": 6.736363636363636,
                "pitch": 79,
                "velocity": 32,
                "duration": 0.25,
                "tempo": 120.0
            },
            {
                "start_time": 6.802272727272727,
                "end_time": 7.9431818181818175,
                "pitch": 78,
                "velocity": 32,
                "duration": 1.1409090909090907,
                "tempo": 120.0
            },
            {
                "start_time": 8.009090909090908,
                "end_time": 8.543181818181818,
                "pitch": 78,
                "velocity": 32,
                "duration": 0.5340909090909101,
                "tempo": 120.0
            },
            {
                "start_time": 8.60909090909091,
                "end_time": 9.459090909090909,
                "pitch": 81,
                "velocity": 32,
                "duration": 0.8499999999999996,
                "tempo": 120.0
            },
            {
                "start_time": 9.493181818181817,
                "end_time": 10.947727272727272,
                "pitch": 73,
                "velocity": 32,
                "duration": 1.454545454545455,
                "tempo": 120.0
            },
            {
                "start_time": 11.01590909090909,
                "end_time": 11.26590909090909,
                "pitch": 81,
                "velocity": 32,
                "duration": 0.25,
                "tempo": 120.0
            },
            {
                "start_time": 11.297727272727272,
                "end_time": 11.547727272727272,
                "pitch": 83,
                "velocity": 32,
                "duration": 0.25,
                "tempo": 120.0
            },
            {
                "start_time": 11.61590909090909,
                "end_time": 12.147727272727272,
                "pitch": 85,
                "velocity": 32,
                "duration": 0.5318181818181813,
                "tempo": 120.0
            },
            {
                "start_time": 12.21590909090909,
                "end_time": 12.46590909090909,
                "pitch": 85,
                "velocity": 32,
                "duration": 0.25,
                "tempo": 120.0
            },
            {
                "start_time": 12.5,
                "end_time": 12.752272727272727,
                "pitch": 81,
                "velocity": 32,
                "duration": 0.252272727272727,
                "tempo": 120.0
            },
            {
                "start_time": 12.818181818181818,
                "end_time": 13.354545454545454,
                "pitch": 83,
                "velocity": 32,
                "duration": 0.5363636363636353,
                "tempo": 120.0
            },
            {
                "start_time": 13.420454545454545,
                "end_time": 14.270454545454545,
                "pitch": 83,
                "velocity": 32,
                "duration": 0.8499999999999996,
                "tempo": 120.0
            },
            {
                "start_time": 14.304545454545455,
                "end_time": 15.154545454545454,
                "pitch": 79,
                "velocity": 32,
                "duration": 0.8499999999999996,
                "tempo": 120.0
            },
            {
                "start_time": 15.220454545454544,
                "end_time": 16.677272727272726,
                "pitch": 78,
                "velocity": 32,
                "duration": 1.456818181818182,
                "tempo": 120.0
            },
            {
                "start_time": 16.711363636363636,
                "end_time": 17.570454545454545,
                "pitch": 74,
                "velocity": 32,
                "duration": 0.8590909090909093,
                "tempo": 120.0
            },
            {
                "start_time": 17.636363636363637,
                "end_time": 19.095454545454544,
                "pitch": 74,
                "velocity": 32,
                "duration": 1.4590909090909072,
                "tempo": 120.0
            },
            {
                "start_time": 19.129545454545454,
                "end_time": 20.58863636363636,
                "pitch": 74,
                "velocity": 32,
                "duration": 1.4590909090909072,
                "tempo": 120.0
            },
            {
                "start_time": 20.654545454545453,
                "end_time": 20.90681818181818,
                "pitch": 78,
                "velocity": 32,
                "duration": 0.25227272727272876,
                "tempo": 120.0
            },
            {
                "start_time": 20.94090909090909,
                "end_time": 21.19090909090909,
                "pitch": 79,
                "velocity": 32,
                "duration": 0.25,
                "tempo": 120.0
            },
            {
                "start_time": 21.25681818181818,
                "end_time": 23.0,
                "pitch": 81,
                "velocity": 32,
                "duration": 1.7431818181818208,
                "tempo": 120.0
            },
            {
                "start_time": 23.068181818181817,
                "end_time": 23.320454545454545,
                "pitch": 86,
                "velocity": 32,
                "duration": 0.25227272727272876,
                "tempo": 120.0
            },
            {
                "start_time": 23.354545454545452,
                "end_time": 23.924999999999997,
                "pitch": 85,
                "velocity": 32,
                "duration": 0.5704545454545453,
                "tempo": 120.0
            },
            {
                "start_time": 23.959090909090907,
                "end_time": 25.41590909090909,
                "pitch": 76,
                "velocity": 32,
                "duration": 1.456818181818182,
                "tempo": 120.0
            },
            {
                "start_time": 25.48181818181818,
                "end_time": 25.73181818181818,
                "pitch": 81,
                "velocity": 32,
                "duration": 0.25,
                "tempo": 120.0
            },
            {
                "start_time": 25.76590909090909,
                "end_time": 26.018181818181816,
                "pitch": 79,
                "velocity": 32,
                "duration": 0.2522727272727252,
                "tempo": 120.0
            },
            {
                "start_time": 26.086363636363636,
                "end_time": 27.227272727272727,
                "pitch": 78,
                "velocity": 32,
                "duration": 1.1409090909090907,
                "tempo": 120.0
            },
            {
                "start_time": 27.293181818181818,
                "end_time": 27.831818181818182,
                "pitch": 78,
                "velocity": 32,
                "duration": 0.538636363636364,
                "tempo": 120.0
            },
            {
                "start_time": 27.89772727272727,
                "end_time": 28.75,
                "pitch": 81,
                "velocity": 32,
                "duration": 0.8522727272727302,
                "tempo": 120.0
            },
            {
                "start_time": 28.784090909090907,
                "end_time": 30.245454545454542,
                "pitch": 73,
                "velocity": 32,
                "duration": 1.461363636363636,
                "tempo": 120.0
            },
            {
                "start_time": 30.311363636363634,
                "end_time": 30.563636363636363,
                "pitch": 81,
                "velocity": 32,
                "duration": 0.25227272727272876,
                "tempo": 120.0
            },
            {
                "start_time": 30.595454545454544,
                "end_time": 30.849999999999998,
                "pitch": 83,
                "velocity": 32,
                "duration": 0.25454545454545396,
                "tempo": 120.0
            },
            {
                "start_time": 30.91590909090909,
                "end_time": 31.452272727272724,
                "pitch": 85,
                "velocity": 32,
                "duration": 0.5363636363636353,
                "tempo": 120.0
            },
            {
                "start_time": 31.518181818181816,
                "end_time": 31.768181818181816,
                "pitch": 85,
                "velocity": 32,
                "duration": 0.25,
                "tempo": 120.0
            },
            {
                "start_time": 31.802272727272726,
                "end_time": 32.054545454545455,
                "pitch": 81,
                "velocity": 32,
                "duration": 0.25227272727272876,
                "tempo": 120.0
            },
            {
                "start_time": 32.12272727272727,
                "end_time": 32.66136363636363,
                "pitch": 83,
                "velocity": 32,
                "duration": 0.538636363636364,
                "tempo": 120.0
            },
            {
                "start_time": 32.72727272727273,
                "end_time": 33.586363636363636,
                "pitch": 83,
                "velocity": 32,
                "duration": 0.8590909090909093,
                "tempo": 120.0
            },
            {
                "start_time": 33.62045454545454,
                "end_time": 34.47272727272727,
                "pitch": 79,
                "velocity": 32,
                "duration": 0.8522727272727266,
                "tempo": 120.0
            },
            {
                "start_time": 34.54090909090909,
                "end_time": 36.00454545454545,
                "pitch": 78,
                "velocity": 32,
                "duration": 1.4636363636363612,
                "tempo": 120.0
            },
            {
                "start_time": 36.038636363636364,
                "end_time": 36.893181818181816,
                "pitch": 74,
                "velocity": 32,
                "duration": 0.8545454545454518,
                "tempo": 120.0
            },
            {
                "start_time": 36.961363636363636,
                "end_time": 38.42272727272727,
                "pitch": 74,
                "velocity": 32,
                "duration": 1.461363636363636,
                "tempo": 120.0
            }
        ]
    }
}