{
    "track_id": "Space Harrier 3-D (FM) - 03 - Ending",
    "mood": "relaxed",
    "instruments": {
        "Acoustic Bass": [
            {
                "start_time": 0.011363636363636364,
                "end_time": 0.1659090909090909,
                "pitch": 39,
                "velocity": 64,
                "duration": 0.15454545454545454,
                "tempo": 120.0
            },
            {
                "start_time": 0.19999999999999998,
                "end_time": 0.48636363636363633,
                "pitch": 44,
                "velocity": 64,
                "duration": 0.2863636363636364,
                "tempo": 120.0
            },
            {
                "start_time": 0.48636363636363633,
                "end_time": 0.7727272727272727,
                "pitch": 48,
                "velocity": 64,
                "duration": 0.2863636363636364,
                "tempo": 120.0
            },
            {
                "start_time": 0.8068181818181818,
                "end_time": 1.9727272727272727,
                "pitch": 51,
                "velocity": 64,
                "duration": 1.165909090909091,
                "tempo": 120.0
            },
            {
                "start_time": 2.006818181818182,
                "end_time": 2.2886363636363636,
                "pitch": 53,
                "velocity": 64,
                "duration": 0.28181818181818175,
                "tempo": 120.0
            },
            {
                "start_time": 2.2886363636363636,
                "end_time": 4.1045454545454545,
                "pitch": 46,
                "velocity": 64,
                "duration": 1.815909090909091,
                "tempo": 120.0
            },
            {
                "start_time": 4.1045454545454545,
                "end_time": 4.390909090909091,
                "pitch": 48,
                "velocity": 64,
                "duration": 0.28636363636363615,
                "tempo": 120.0
            },
            {
                "start_time": 4.425,
                "end_time": 4.711363636363636,
                "pitch": 51,
                "velocity": 64,
                "duration": 0.28636363636363615,
                "tempo": 120.0
            },
            {
                "start_time": 4.711363636363636,
                "end_time": 6.802272727272727,
                "pitch": 44,
                "velocity": 64,
                "duration": 2.090909090909091,
                "tempo": 120.0
            },
            {
                "start_time": 6.836363636363636,
                "end_time": 7.120454545454545,
                "pitch": 44,
                "velocity": 64,
                "duration": 0.28409090909090917,
                "tempo": 120.0
            },
            {
                "start_time": 7.120454545454545,
                "end_time": 9.531818181818181,
                "pitch": 39,
                "velocity": 64,
                "duration": 2.411363636363636,
                "tempo": 120.0
            },
            {
                "start_time": 9.531818181818181,
                "end_time": 9.81590909090909,
                "pitch": 39,
                "velocity": 64,
                "duration": 0.2840909090909083,
                "tempo": 120.0
            },
            {
                "start_time": 9.831818181818182,
                "end_time": 10.11590909090909,
                "pitch": 44,
                "velocity": 64,
                "duration": 0.2840909090909083,
                "tempo": 120.0
            },
            {
                "start_time": 10.147727272727272,
                "end_time": 10.431818181818182,
                "pitch": 48,
                "velocity": 64,
                "duration": 0.28409090909091006,
                "tempo": 120.0
            },
            {
                "start_time": 10.431818181818182,
                "end_time": 11.649999999999999,
                "pitch": 51,
                "velocity": 64,
                "duration": 1.218181818181817,
                "tempo": 120.0
            },
            {
                "start_time": 11.649999999999999,
                "end_time": 11.938636363636363,
                "pitch": 53,
                "velocity": 64,
                "duration": 0.288636363636364,
                "tempo": 120.0
            },
            {
                "start_time": 11.972727272727273,
                "end_time": 13.75,
                "pitch": 46,
                "velocity": 64,
                "duration": 1.7772727272727273,
                "tempo": 120.0
            },
            {
                "start_time": 13.781818181818181,
                "end_time": 14.061363636363636,
                "pitch": 48,
                "velocity": 64,
                "duration": 0.2795454545454543,
                "tempo": 120.0
            },
            {
                "start_time": 14.061363636363636,
                "end_time": 14.352272727272727,
                "pitch": 51,
                "velocity": 64,
                "duration": 0.290909090909091,
                "tempo": 120.0
            },
            {
                "start_time": 14.386363636363635,
                "end_time": 16.763636363636362,
                "pitch": 44,
                "velocity": 64,
                "duration": 2.377272727272727,
                "tempo": 120.0
            },
            {
                "start_time": 16.797727272727272,
                "end_time": 17.086363636363636,
                "pitch": 44,
                "velocity": 64,
                "duration": 0.288636363636364,
                "tempo": 120.0
            },
            {
                "start_time": 17.086363636363636,
                "end_time": 19.170454545454543,
                "pitch": 39,
                "velocity": 64,
                "duration": 2.084090909090907,
                "tempo": 120.0
            }
        ],
        "Acoustic Guitar (nylon)": [
            {
                "start_time": 0.011363636363636364,
                "end_time": 0.1659090909090909,
                "pitch": 60,
                "velocity": 80,
                "duration": 0.15454545454545454,
                "tempo": 120.0
            },
            {
                "start_time": 0.19999999999999998,
                "end_time": 0.7727272727272727,
                "pitch": 63,
                "velocity": 80,
                "duration": 0.5727272727272728,
                "tempo": 120.0
            },
            {
                "start_time": 0.8068181818181818,
                "end_time": 2.2886363636363636,
                "pitch": 70,
                "velocity": 80,
                "duration": 1.481818181818182,
                "tempo": 120.0
            },
            {
                "start_time": 2.2886363636363636,
                "end_time": 2.5727272727272728,
                "pitch": 58,
                "velocity": 80,
                "duration": 0.28409090909090917,
                "tempo": 120.0
            },
            {
                "start_time": 2.6068181818181815,
                "end_time": 3.1795454545454542,
                "pitch": 61,
                "velocity": 80,
                "duration": 0.5727272727272728,
                "tempo": 120.0
            },
            {
                "start_time": 3.2113636363636364,
                "end_time": 4.711363636363636,
                "pitch": 68,
                "velocity": 80,
                "duration": 1.4999999999999996,
                "tempo": 120.0
            },
            {
                "start_time": 4.711363636363636,
                "end_time": 4.997727272727272,
                "pitch": 56,
                "velocity": 80,
                "duration": 0.28636363636363615,
                "tempo": 120.0
            },
            {
                "start_time": 5.029545454545454,
                "end_time": 5.597727272727273,
                "pitch": 60,
                "velocity": 80,
                "duration": 0.5681818181818183,
                "tempo": 120.0
            },
            {
                "start_time": 5.629545454545454,
                "end_time": 7.120454545454545,
                "pitch": 63,
                "velocity": 80,
                "duration": 1.4909090909090912,
                "tempo": 120.0
            },
            {
                "start_time": 7.120454545454545,
                "end_time": 7.402272727272727,
                "pitch": 58,
                "velocity": 80,
                "duration": 0.2818181818181822,
                "tempo": 120.0
            },
            {
                "start_time": 7.436363636363636,
                "end_time": 8.009090909090908,
                "pitch": 61,
                "velocity": 80,
                "duration": 0.5727272727272723,
                "tempo": 120.0
            },
            {
                "start_time": 8.043181818181818,
                "end_time": 9.531818181818181,
                "pitch": 65,
                "velocity": 80,
                "duration": 1.4886363636363633,
                "tempo": 120.0
            },
            {
                "start_time": 9.531818181818181,
                "end_time": 9.81590909090909,
                "pitch": 60,
                "velocity": 80,
                "duration": 0.2840909090909083,
                "tempo": 120.0
            },
            {
                "start_time": 9.831818181818182,
                "end_time": 10.431818181818182,
                "pitch": 63,
                "velocity": 80,
                "duration": 0.5999999999999996,
                "tempo": 120.0
            },
            {
                "start_time": 10.431818181818182,
                "end_time": 11.938636363636363,
                "pitch": 70,
                "velocity": 80,
                "duration": 1.506818181818181,
                "tempo": 120.0
            },
            {
                "start_time": 11.972727272727273,
                "end_time": 12.261363636363635,
                "pitch": 58,
                "velocity": 80,
                "duration": 0.28863636363636225,
                "tempo": 120.0
            },
            {
                "start_time": 12.261363636363635,
                "end_time": 12.85681818181818,
                "pitch": 61,
                "velocity": 80,
                "duration": 0.5954545454545457,
                "tempo": 120.0
            },
            {
                "start_time": 12.85681818181818,
                "end_time": 14.352272727272727,
                "pitch": 68,
                "velocity": 80,
                "duration": 1.495454545454546,
                "tempo": 120.0
            },
            {
                "start_time": 14.386363636363635,
                "end_time": 14.674999999999999,
                "pitch": 56,
                "velocity": 80,
                "duration": 0.288636363636364,
                "tempo": 120.0
            },
            {
                "start_time": 14.674999999999999,
                "end_time": 15.268181818181818,
                "pitch": 60,
                "velocity": 80,
                "duration": 0.5931818181818187,
                "tempo": 120.0
            },
            {
                "start_time": 15.268181818181818,
                "end_time": 16.763636363636362,
                "pitch": 63,
                "velocity": 80,
                "duration": 1.4954545454545443,
                "tempo": 120.0
            },
            {
                "start_time": 16.797727272727272,
                "end_time": 17.086363636363636,
                "pitch": 58,
                "velocity": 80,
                "duration": 0.288636363636364,
                "tempo": 120.0
            },
            {
                "start_time": 17.086363636363636,
                "end_time": 17.679545454545455,
                "pitch": 61,
                "velocity": 80,
                "duration": 0.5931818181818187,
                "tempo": 120.0
            },
            {
                "start_time": 17.679545454545455,
                "end_time": 19.170454545454543,
                "pitch": 65,
                "velocity": 80,
                "duration": 1.4909090909090885,
                "tempo": 120.0
            }
        ],
        "Church Organ": [
            {
                "start_time": 0.011363636363636364,
                "end_time": 0.03409090909090909,
                "pitch": 87,
                "velocity": 32,
                "duration": 0.022727272727272724,
                "tempo": 120.0
            },
            {
                "start_time": 0.05454545454545454,
                "end_time": 0.28409090909090906,
                "pitch": 75,
                "velocity": 32,
                "duration": 0.22954545454545452,
                "tempo": 120.0
            },
            {
                "start_time": 0.28409090909090906,
                "end_time": 0.5704545454545454,
                "pitch": 80,
                "velocity": 32,
                "duration": 0.2863636363636364,
                "tempo": 120.0
            },
            {
                "start_time": 0.6045454545454545,
                "end_time": 0.8886363636363636,
                "pitch": 82,
                "velocity": 32,
                "duration": 0.28409090909090906,
                "tempo": 120.0
            },
            {
                "start_time": 0.8886363636363636,
                "end_time": 1.1727272727272726,
                "pitch": 79,
                "velocity": 32,
                "duration": 0.28409090909090906,
                "tempo": 120.0
            },
            {
                "start_time": 1.2068181818181818,
                "end_time": 1.7727272727272727,
                "pitch": 80,
                "velocity": 32,
                "duration": 0.5659090909090909,
                "tempo": 120.0
            },
            {
                "start_time": 1.8068181818181817,
                "end_time": 2.0886363636363634,
                "pitch": 82,
                "velocity": 32,
                "duration": 0.28181818181818175,
                "tempo": 120.0
            },
            {
                "start_time": 2.0886363636363634,
                "end_time": 3.902272727272727,
                "pitch": 85,
                "velocity": 32,
                "duration": 1.8136363636363635,
                "tempo": 120.0
            },
            {
                "start_time": 3.902272727272727,
                "end_time": 4.1886363636363635,
                "pitch": 80,
                "velocity": 32,
                "duration": 0.2863636363636366,
                "tempo": 120.0
            },
            {
                "start_time": 4.222727272727273,
                "end_time": 4.509090909090909,
                "pitch": 82,
                "velocity": 32,
                "duration": 0.28636363636363615,
                "tempo": 120.0
            },
            {
                "start_time": 4.509090909090909,
                "end_time": 4.795454545454545,
                "pitch": 80,
                "velocity": 32,
                "duration": 0.28636363636363615,
                "tempo": 120.0
            },
            {
                "start_time": 4.829545454545454,
                "end_time": 5.715909090909091,
                "pitch": 79,
                "velocity": 32,
                "duration": 0.8863636363636367,
                "tempo": 120.0
            },
            {
                "start_time": 5.715909090909091,
                "end_time": 7.202272727272727,
                "pitch": 77,
                "velocity": 32,
                "duration": 1.4863636363636363,
                "tempo": 120.0
            },
            {
                "start_time": 7.236363636363636,
                "end_time": 8.127272727272727,
                "pitch": 75,
                "velocity": 32,
                "duration": 0.8909090909090907,
                "tempo": 120.0
            },
            {
                "start_time": 8.127272727272727,
                "end_time": 8.73181818181818,
                "pitch": 77,
                "velocity": 32,
                "duration": 0.6045454545454536,
                "tempo": 120.0
            },
            {
                "start_time": 8.73181818181818,
                "end_time": 9.61590909090909,
                "pitch": 80,
                "velocity": 32,
                "duration": 0.8840909090909097,
                "tempo": 120.0
            },
            {
                "start_time": 9.631818181818181,
                "end_time": 9.931818181818182,
                "pitch": 75,
                "velocity": 32,
                "duration": 0.3000000000000007,
                "tempo": 120.0
            },
            {
                "start_time": 9.947727272727272,
                "end_time": 10.23181818181818,
                "pitch": 80,
                "velocity": 32,
                "duration": 0.2840909090909083,
                "tempo": 120.0
            },
            {
                "start_time": 10.23181818181818,
                "end_time": 10.518181818181818,
                "pitch": 82,
                "velocity": 32,
                "duration": 0.28636363636363704,
                "tempo": 120.0
            },
            {
                "start_time": 10.552272727272726,
                "end_time": 10.847727272727273,
                "pitch": 79,
                "velocity": 32,
                "duration": 0.29545454545454675,
                "tempo": 120.0
            },
            {
                "start_time": 10.847727272727273,
                "end_time": 11.452272727272726,
                "pitch": 80,
                "velocity": 32,
                "duration": 0.6045454545454536,
                "tempo": 120.0
            },
            {
                "start_time": 11.452272727272726,
                "end_time": 11.736363636363636,
                "pitch": 82,
                "velocity": 32,
                "duration": 0.28409090909091006,
                "tempo": 120.0
            },
            {
                "start_time": 11.770454545454545,
                "end_time": 13.549999999999999,
                "pitch": 85,
                "velocity": 32,
                "duration": 1.7795454545454543,
                "tempo": 120.0
            },
            {
                "start_time": 13.584090909090909,
                "end_time": 13.863636363636363,
                "pitch": 80,
                "velocity": 32,
                "duration": 0.2795454545454543,
                "tempo": 120.0
            },
            {
                "start_time": 13.863636363636363,
                "end_time": 14.147727272727272,
                "pitch": 82,
                "velocity": 32,
                "duration": 0.2840909090909083,
                "tempo": 120.0
            },
            {
                "start_time": 14.181818181818182,
                "end_time": 14.470454545454544,
                "pitch": 85,
                "velocity": 32,
                "duration": 0.28863636363636225,
                "tempo": 120.0
            },
            {
                "start_time": 14.470454545454544,
                "end_time": 14.756818181818181,
                "pitch": 80,
                "velocity": 32,
                "duration": 0.28636363636363704,
                "tempo": 120.0
            },
            {
                "start_time": 14.790909090909091,
                "end_time": 16.881818181818183,
                "pitch": 79,
                "velocity": 32,
                "duration": 2.0909090909090917,
                "tempo": 120.0
            },
            {
                "start_time": 16.881818181818183,
                "end_time": 17.76590909090909,
                "pitch": 77,
                "velocity": 32,
                "duration": 0.8840909090909079,
                "tempo": 120.0
            },
            {
                "start_time": 17.8,
                "end_time": 18.375,
                "pitch": 75,
                "velocity": 32,
                "duration": 0.5749999999999993,
                "tempo": 120.0
            },
            {
                "start_time": 18.40681818181818,
                "end_time": 18.688636363636363,
                "pitch": 77,
                "velocity": 32,
                "duration": 0.2818181818181813,
                "tempo": 120.0
            },
            {
                "start_time": 18.688636363636363,
                "end_time": 19.170454545454543,
                "pitch": 80,
                "velocity": 32,
                "duration": 0.4818181818181806,
                "tempo": 120.0
            }
        ]
    }
}