{
    "track_id": "Wonder Boy III (FM) - 13 - Endless War",
    "mood": "relaxed",
    "instruments": {
        "Flute": [
            {
                "start_time": 0.0,
                "end_time": 0.5363636363636364,
                "pitch": 91,
                "velocity": 4,
                "duration": 0.5363636363636364,
                "tempo": 120.0
            },
            {
                "start_time": 0.5363636363636364,
                "end_time": 0.5545454545454546,
                "pitch": 91,
                "velocity": 4,
                "duration": 0.018181818181818188,
                "tempo": 120.0
            },
            {
                "start_time": 0.5545454545454546,
                "end_time": 0.7477272727272727,
                "pitch": 91,
                "velocity": 4,
                "duration": 0.19318181818181812,
                "tempo": 120.0
            },
            {
                "start_time": 0.7477272727272727,
                "end_time": 0.7659090909090909,
                "pitch": 91,
                "velocity": 4,
                "duration": 0.018181818181818188,
                "tempo": 120.0
            },
            {
                "start_time": 0.7659090909090909,
                "end_time": 0.8363636363636363,
                "pitch": 91,
                "velocity": 4,
                "duration": 0.07045454545454544,
                "tempo": 120.0
            },
            {
                "start_time": 0.8363636363636363,
                "end_time": 1.2386363636363635,
                "pitch": 89,
                "velocity": 80,
                "duration": 0.4022727272727272,
                "tempo": 120.0
            },
            {
                "start_time": 1.2386363636363635,
                "end_time": 1.6295454545454544,
                "pitch": 89,
                "velocity": 80,
                "duration": 0.3909090909090909,
                "tempo": 120.0
            },
            {
                "start_time": 1.6295454545454544,
                "end_time": 1.9159090909090908,
                "pitch": 84,
                "velocity": 80,
                "duration": 0.2863636363636364,
                "tempo": 120.0
            },
            {
                "start_time": 1.9159090909090908,
                "end_time": 2.0,
                "pitch": 84,
                "velocity": 80,
                "duration": 0.08409090909090922,
                "tempo": 120.0
            },
            {
                "start_time": 2.0,
                "end_time": 2.118181818181818,
                "pitch": 84,
                "velocity": 80,
                "duration": 0.11818181818181817,
                "tempo": 120.0
            },
            {
                "start_time": 2.118181818181818,
                "end_time": 2.2045454545454546,
                "pitch": 84,
                "velocity": 80,
                "duration": 0.08636363636363642,
                "tempo": 120.0
            },
            {
                "start_time": 2.2045454545454546,
                "end_time": 2.3249999999999997,
                "pitch": 84,
                "velocity": 80,
                "duration": 0.12045454545454515,
                "tempo": 120.0
            },
            {
                "start_time": 2.3249999999999997,
                "end_time": 2.409090909090909,
                "pitch": 84,
                "velocity": 80,
                "duration": 0.08409090909090944,
                "tempo": 120.0
            },
            {
                "start_time": 2.409090909090909,
                "end_time": 2.5272727272727273,
                "pitch": 84,
                "velocity": 80,
                "duration": 0.11818181818181817,
                "tempo": 120.0
            },
            {
                "start_time": 2.5272727272727273,
                "end_time": 2.6113636363636363,
                "pitch": 84,
                "velocity": 80,
                "duration": 0.084090909090909,
                "tempo": 120.0
            },
            {
                "start_time": 2.6113636363636363,
                "end_time": 2.727272727272727,
                "pitch": 84,
                "velocity": 80,
                "duration": 0.11590909090909074,
                "tempo": 120.0
            },
            {
                "start_time": 2.727272727272727,
                "end_time": 2.811363636363636,
                "pitch": 84,
                "velocity": 80,
                "duration": 0.084090909090909,
                "tempo": 120.0
            },
            {
                "start_time": 2.811363636363636,
                "end_time": 2.8431818181818183,
                "pitch": 84,
                "velocity": 80,
                "duration": 0.03181818181818219,
                "tempo": 120.0
            },
            {
                "start_time": 2.8431818181818183,
                "end_time": 3.352272727272727,
                "pitch": 91,
                "velocity": 80,
                "duration": 0.5090909090909088,
                "tempo": 120.0
            },
            {
                "start_time": 3.352272727272727,
                "end_time": 3.370454545454545,
                "pitch": 91,
                "velocity": 80,
                "duration": 0.018181818181818077,
                "tempo": 120.0
            },
            {
                "start_time": 3.370454545454545,
                "end_time": 3.5522727272727272,
                "pitch": 91,
                "velocity": 80,
                "duration": 0.1818181818181821,
                "tempo": 120.0
            },
            {
                "start_time": 3.5522727272727272,
                "end_time": 3.5704545454545453,
                "pitch": 91,
                "velocity": 80,
                "duration": 0.018181818181818077,
                "tempo": 120.0
            },
            {
                "start_time": 3.5704545454545453,
                "end_time": 3.620454545454545,
                "pitch": 91,
                "velocity": 80,
                "duration": 0.04999999999999982,
                "tempo": 120.0
            },
            {
                "start_time": 3.6363636363636362,
                "end_time": 3.9272727272727272,
                "pitch": 96,
                "velocity": 80,
                "duration": 0.290909090909091,
                "tempo": 120.0
            },
            {
                "start_time": 3.9272727272727272,
                "end_time": 4.013636363636364,
                "pitch": 96,
                "velocity": 80,
                "duration": 0.08636363636363642,
                "tempo": 120.0
            },
            {
                "start_time": 4.013636363636364,
                "end_time": 4.047727272727273,
                "pitch": 96,
                "velocity": 80,
                "duration": 0.03409090909090917,
                "tempo": 120.0
            },
            {
                "start_time": 4.047727272727273,
                "end_time": 4.447727272727272,
                "pitch": 95,
                "velocity": 80,
                "duration": 0.39999999999999947,
                "tempo": 120.0
            },
            {
                "start_time": 4.447727272727272,
                "end_time": 4.838636363636363,
                "pitch": 93,
                "velocity": 80,
                "duration": 0.39090909090909065,
                "tempo": 120.0
            },
            {
                "start_time": 4.838636363636363,
                "end_time": 6.425,
                "pitch": 88,
                "velocity": 80,
                "duration": 1.5863636363636369,
                "tempo": 120.0
            },
            {
                "start_time": 6.425,
                "end_time": 6.8590909090909085,
                "pitch": 88,
                "velocity": 80,
                "duration": 0.43409090909090864,
                "tempo": 120.0
            },
            {
                "start_time": 6.8590909090909085,
                "end_time": 7.074999999999999,
                "pitch": 89,
                "velocity": 80,
                "duration": 0.21590909090909083,
                "tempo": 120.0
            },
            {
                "start_time": 7.074999999999999,
                "end_time": 7.3954545454545455,
                "pitch": 84,
                "velocity": 80,
                "duration": 0.3204545454545462,
                "tempo": 120.0
            },
            {
                "start_time": 7.3954545454545455,
                "end_time": 7.463636363636363,
                "pitch": 84,
                "velocity": 80,
                "duration": 0.06818181818181746,
                "tempo": 120.0
            },
            {
                "start_time": 7.463636363636363,
                "end_time": 7.6,
                "pitch": 84,
                "velocity": 80,
                "duration": 0.1363636363636367,
                "tempo": 120.0
            },
            {
                "start_time": 7.6,
                "end_time": 7.668181818181818,
                "pitch": 84,
                "velocity": 80,
                "duration": 0.06818181818181834,
                "tempo": 120.0
            },
            {
                "start_time": 7.668181818181818,
                "end_time": 7.702272727272727,
                "pitch": 84,
                "velocity": 80,
                "duration": 0.03409090909090917,
                "tempo": 120.0
            },
            {
                "start_time": 7.702272727272727,
                "end_time": 8.097727272727273,
                "pitch": 81,
                "velocity": 80,
                "duration": 0.3954545454545455,
                "tempo": 120.0
            },
            {
                "start_time": 8.097727272727273,
                "end_time": 8.472727272727273,
                "pitch": 89,
                "velocity": 80,
                "duration": 0.375,
                "tempo": 120.0
            },
            {
                "start_time": 8.49090909090909,
                "end_time": 8.674999999999999,
                "pitch": 88,
                "velocity": 80,
                "duration": 0.18409090909090864,
                "tempo": 120.0
            },
            {
                "start_time": 8.690909090909091,
                "end_time": 9.279545454545454,
                "pitch": 89,
                "velocity": 80,
                "duration": 0.588636363636363,
                "tempo": 120.0
            },
            {
                "start_time": 9.295454545454545,
                "end_time": 9.697727272727272,
                "pitch": 91,
                "velocity": 80,
                "duration": 0.40227272727272734,
                "tempo": 120.0
            },
            {
                "start_time": 9.697727272727272,
                "end_time": 12.897727272727272,
                "pitch": 88,
                "velocity": 80,
                "duration": 3.1999999999999993,
                "tempo": 120.0
            },
            {
                "start_time": 12.897727272727272,
                "end_time": 13.727272727272727,
                "pitch": 91,
                "velocity": 80,
                "duration": 0.829545454545455,
                "tempo": 120.0
            },
            {
                "start_time": 13.727272727272727,
                "end_time": 14.131818181818181,
                "pitch": 89,
                "velocity": 80,
                "duration": 0.4045454545454543,
                "tempo": 120.0
            },
            {
                "start_time": 14.131818181818181,
                "end_time": 14.522727272727272,
                "pitch": 89,
                "velocity": 80,
                "duration": 0.39090909090909065,
                "tempo": 120.0
            },
            {
                "start_time": 14.522727272727272,
                "end_time": 14.809090909090909,
                "pitch": 84,
                "velocity": 80,
                "duration": 0.28636363636363704,
                "tempo": 120.0
            },
            {
                "start_time": 14.809090909090909,
                "end_time": 14.893181818181818,
                "pitch": 84,
                "velocity": 80,
                "duration": 0.084090909090909,
                "tempo": 120.0
            },
            {
                "start_time": 14.893181818181818,
                "end_time": 15.009090909090908,
                "pitch": 84,
                "velocity": 80,
                "duration": 0.1159090909090903,
                "tempo": 120.0
            },
            {
                "start_time": 15.009090909090908,
                "end_time": 15.093181818181817,
                "pitch": 84,
                "velocity": 80,
                "duration": 0.084090909090909,
                "tempo": 120.0
            },
            {
                "start_time": 15.093181818181817,
                "end_time": 15.211363636363636,
                "pitch": 84,
                "velocity": 80,
                "duration": 0.11818181818181905,
                "tempo": 120.0
            },
            {
                "start_time": 15.211363636363636,
                "end_time": 15.295454545454545,
                "pitch": 84,
                "velocity": 80,
                "duration": 0.084090909090909,
                "tempo": 120.0
            },
            {
                "start_time": 15.295454545454545,
                "end_time": 15.411363636363635,
                "pitch": 84,
                "velocity": 80,
                "duration": 0.1159090909090903,
                "tempo": 120.0
            },
            {
                "start_time": 15.411363636363635,
                "end_time": 15.495454545454544,
                "pitch": 84,
                "velocity": 80,
                "duration": 0.084090909090909,
                "tempo": 120.0
            },
            {
                "start_time": 15.495454545454544,
                "end_time": 15.613636363636363,
                "pitch": 84,
                "velocity": 80,
                "duration": 0.11818181818181905,
                "tempo": 120.0
            },
            {
                "start_time": 15.613636363636363,
                "end_time": 15.697727272727272,
                "pitch": 84,
                "velocity": 80,
                "duration": 0.084090909090909,
                "tempo": 120.0
            },
            {
                "start_time": 15.697727272727272,
                "end_time": 15.73181818181818,
                "pitch": 84,
                "velocity": 80,
                "duration": 0.034090909090908283,
                "tempo": 120.0
            },
            {
                "start_time": 15.73181818181818,
                "end_time": 16.252272727272725,
                "pitch": 91,
                "velocity": 80,
                "duration": 0.5204545454545446,
                "tempo": 120.0
            },
            {
                "start_time": 16.252272727272725,
                "end_time": 16.268181818181816,
                "pitch": 91,
                "velocity": 80,
                "duration": 0.01590909090909065,
                "tempo": 120.0
            },
            {
                "start_time": 16.268181818181816,
                "end_time": 16.452272727272728,
                "pitch": 91,
                "velocity": 80,
                "duration": 0.1840909090909122,
                "tempo": 120.0
            },
            {
                "start_time": 16.452272727272728,
                "end_time": 16.470454545454544,
                "pitch": 91,
                "velocity": 80,
                "duration": 0.018181818181815856,
                "tempo": 120.0
            },
            {
                "start_time": 16.470454545454544,
                "end_time": 16.536363636363635,
                "pitch": 91,
                "velocity": 80,
                "duration": 0.06590909090909136,
                "tempo": 120.0
            },
            {
                "start_time": 16.536363636363635,
                "end_time": 16.820454545454545,
                "pitch": 96,
                "velocity": 80,
                "duration": 0.28409090909091006,
                "tempo": 120.0
            },
            {
                "start_time": 16.820454545454545,
                "end_time": 16.902272727272727,
                "pitch": 96,
                "velocity": 80,
                "duration": 0.08181818181818201,
                "tempo": 120.0
            },
            {
                "start_time": 16.902272727272727,
                "end_time": 16.936363636363634,
                "pitch": 96,
                "velocity": 80,
                "duration": 0.03409090909090651,
                "tempo": 120.0
            },
            {
                "start_time": 16.936363636363634,
                "end_time": 17.336363636363636,
                "pitch": 95,
                "velocity": 80,
                "duration": 0.40000000000000213,
                "tempo": 120.0
            },
            {
                "start_time": 17.336363636363636,
                "end_time": 17.738636363636363,
                "pitch": 93,
                "velocity": 80,
                "duration": 0.40227272727272734,
                "tempo": 120.0
            },
            {
                "start_time": 17.738636363636363,
                "end_time": 19.35909090909091,
                "pitch": 88,
                "velocity": 80,
                "duration": 1.620454545454546,
                "tempo": 120.0
            },
            {
                "start_time": 19.35909090909091,
                "end_time": 20.011363636363637,
                "pitch": 88,
                "velocity": 80,
                "duration": 0.6522727272727273,
                "tempo": 120.0
            },
            {
                "start_time": 20.011363636363637,
                "end_time": 20.320454545454545,
                "pitch": 84,
                "velocity": 80,
                "duration": 0.30909090909090864,
                "tempo": 120.0
            },
            {
                "start_time": 20.320454545454545,
                "end_time": 20.388636363636362,
                "pitch": 84,
                "velocity": 80,
                "duration": 0.06818181818181657,
                "tempo": 120.0
            },
            {
                "start_time": 20.388636363636362,
                "end_time": 20.525,
                "pitch": 84,
                "velocity": 80,
                "duration": 0.1363636363636367,
                "tempo": 120.0
            },
            {
                "start_time": 20.525,
                "end_time": 20.59318181818182,
                "pitch": 84,
                "velocity": 80,
                "duration": 0.06818181818182012,
                "tempo": 120.0
            },
            {
                "start_time": 20.59318181818182,
                "end_time": 20.627272727272725,
                "pitch": 84,
                "velocity": 80,
                "duration": 0.03409090909090651,
                "tempo": 120.0
            },
            {
                "start_time": 20.627272727272725,
                "end_time": 21.029545454545453,
                "pitch": 81,
                "velocity": 80,
                "duration": 0.40227272727272734,
                "tempo": 120.0
            },
            {
                "start_time": 21.029545454545453,
                "end_time": 21.41590909090909,
                "pitch": 89,
                "velocity": 80,
                "duration": 0.3863636363636367,
                "tempo": 120.0
            },
            {
                "start_time": 21.41590909090909,
                "end_time": 21.80909090909091,
                "pitch": 89,
                "velocity": 80,
                "duration": 0.3931818181818194,
                "tempo": 120.0
            },
            {
                "start_time": 21.825,
                "end_time": 22.111363636363635,
                "pitch": 84,
                "velocity": 80,
                "duration": 0.28636363636363527,
                "tempo": 120.0
            },
            {
                "start_time": 22.111363636363635,
                "end_time": 22.195454545454545,
                "pitch": 84,
                "velocity": 80,
                "duration": 0.08409090909091077,
                "tempo": 120.0
            },
            {
                "start_time": 22.195454545454545,
                "end_time": 22.227272727272727,
                "pitch": 84,
                "velocity": 80,
                "duration": 0.0318181818181813,
                "tempo": 120.0
            },
            {
                "start_time": 22.227272727272727,
                "end_time": 22.620454545454546,
                "pitch": 86,
                "velocity": 80,
                "duration": 0.3931818181818194,
                "tempo": 120.0
            },
            {
                "start_time": 22.620454545454546,
                "end_time": 22.904545454545453,
                "pitch": 84,
                "velocity": 80,
                "duration": 0.2840909090909065,
                "tempo": 120.0
            },
            {
                "start_time": 22.904545454545453,
                "end_time": 22.988636363636363,
                "pitch": 84,
                "velocity": 80,
                "duration": 0.08409090909091077,
                "tempo": 120.0
            },
            {
                "start_time": 22.988636363636363,
                "end_time": 23.10909090909091,
                "pitch": 84,
                "velocity": 80,
                "duration": 0.12045454545454604,
                "tempo": 120.0
            },
            {
                "start_time": 23.10909090909091,
                "end_time": 23.193181818181817,
                "pitch": 84,
                "velocity": 80,
                "duration": 0.08409090909090722,
                "tempo": 120.0
            },
            {
                "start_time": 23.193181818181817,
                "end_time": 23.313636363636363,
                "pitch": 84,
                "velocity": 80,
                "duration": 0.12045454545454604,
                "tempo": 120.0
            },
            {
                "start_time": 23.313636363636363,
                "end_time": 23.4,
                "pitch": 84,
                "velocity": 80,
                "duration": 0.08636363636363598,
                "tempo": 120.0
            },
            {
                "start_time": 23.4,
                "end_time": 23.518181818181816,
                "pitch": 84,
                "velocity": 80,
                "duration": 0.11818181818181728,
                "tempo": 120.0
            },
            {
                "start_time": 23.518181818181816,
                "end_time": 23.599999999999998,
                "pitch": 84,
                "velocity": 80,
                "duration": 0.08181818181818201,
                "tempo": 120.0
            },
            {
                "start_time": 23.599999999999998,
                "end_time": 23.71818181818182,
                "pitch": 84,
                "velocity": 80,
                "duration": 0.11818181818182083,
                "tempo": 120.0
            },
            {
                "start_time": 23.71818181818182,
                "end_time": 23.799999999999997,
                "pitch": 84,
                "velocity": 80,
                "duration": 0.08181818181817846,
                "tempo": 120.0
            },
            {
                "start_time": 23.799999999999997,
                "end_time": 23.91590909090909,
                "pitch": 84,
                "velocity": 80,
                "duration": 0.11590909090909207,
                "tempo": 120.0
            },
            {
                "start_time": 23.91590909090909,
                "end_time": 23.99772727272727,
                "pitch": 84,
                "velocity": 80,
                "duration": 0.08181818181818201,
                "tempo": 120.0
            },
            {
                "start_time": 23.99772727272727,
                "end_time": 24.111363636363635,
                "pitch": 84,
                "velocity": 80,
                "duration": 0.11363636363636331,
                "tempo": 120.0
            },
            {
                "start_time": 24.111363636363635,
                "end_time": 24.193181818181817,
                "pitch": 84,
                "velocity": 80,
                "duration": 0.08181818181818201,
                "tempo": 120.0
            },
            {
                "start_time": 24.193181818181817,
                "end_time": 24.30909090909091,
                "pitch": 84,
                "velocity": 80,
                "duration": 0.11590909090909207,
                "tempo": 120.0
            },
            {
                "start_time": 24.30909090909091,
                "end_time": 24.393181818181816,
                "pitch": 84,
                "velocity": 80,
                "duration": 0.08409090909090722,
                "tempo": 120.0
            },
            {
                "start_time": 24.393181818181816,
                "end_time": 24.509090909090908,
                "pitch": 84,
                "velocity": 80,
                "duration": 0.11590909090909207,
                "tempo": 120.0
            },
            {
                "start_time": 24.509090909090908,
                "end_time": 24.59318181818182,
                "pitch": 84,
                "velocity": 80,
                "duration": 0.08409090909091077,
                "tempo": 120.0
            },
            {
                "start_time": 24.59318181818182,
                "end_time": 24.711363636363636,
                "pitch": 84,
                "velocity": 80,
                "duration": 0.11818181818181728,
                "tempo": 120.0
            },
            {
                "start_time": 24.711363636363636,
                "end_time": 24.797727272727272,
                "pitch": 84,
                "velocity": 80,
                "duration": 0.08636363636363598,
                "tempo": 120.0
            },
            {
                "start_time": 24.797727272727272,
                "end_time": 24.91590909090909,
                "pitch": 84,
                "velocity": 80,
                "duration": 0.11818181818181728,
                "tempo": 120.0
            },
            {
                "start_time": 24.91590909090909,
                "end_time": 25.002272727272725,
                "pitch": 84,
                "velocity": 80,
                "duration": 0.08636363636363598,
                "tempo": 120.0
            },
            {
                "start_time": 25.002272727272725,
                "end_time": 25.120454545454542,
                "pitch": 84,
                "velocity": 80,
                "duration": 0.11818181818181728,
                "tempo": 120.0
            },
            {
                "start_time": 25.120454545454542,
                "end_time": 25.204545454545453,
                "pitch": 84,
                "velocity": 80,
                "duration": 0.08409090909091077,
                "tempo": 120.0
            },
            {
                "start_time": 25.204545454545453,
                "end_time": 25.32272727272727,
                "pitch": 84,
                "velocity": 80,
                "duration": 0.11818181818181728,
                "tempo": 120.0
            },
            {
                "start_time": 25.32272727272727,
                "end_time": 25.40681818181818,
                "pitch": 84,
                "velocity": 80,
                "duration": 0.08409090909091077,
                "tempo": 120.0
            },
            {
                "start_time": 25.40681818181818,
                "end_time": 25.536363636363635,
                "pitch": 84,
                "velocity": 80,
                "duration": 0.12954545454545396,
                "tempo": 120.0
            },
            {
                "start_time": 25.536363636363635,
                "end_time": 25.618181818181817,
                "pitch": 84,
                "velocity": 80,
                "duration": 0.08181818181818201,
                "tempo": 120.0
            },
            {
                "start_time": 25.618181818181817,
                "end_time": 25.73409090909091,
                "pitch": 84,
                "velocity": 80,
                "duration": 0.11590909090909207,
                "tempo": 120.0
            },
            {
                "start_time": 25.73409090909091,
                "end_time": 25.81590909090909,
                "pitch": 84,
                "velocity": 80,
                "duration": 0.08181818181818201,
                "tempo": 120.0
            },
            {
                "start_time": 25.81590909090909,
                "end_time": 25.831818181818182,
                "pitch": 84,
                "velocity": 80,
                "duration": 0.01590909090909065,
                "tempo": 120.0
            },
            {
                "start_time": 27.081818181818182,
                "end_time": 27.35909090909091,
                "pitch": 84,
                "velocity": 80,
                "duration": 0.27727272727272734,
                "tempo": 120.0
            },
            {
                "start_time": 27.35909090909091,
                "end_time": 27.440909090909088,
                "pitch": 84,
                "velocity": 80,
                "duration": 0.08181818181817846,
                "tempo": 120.0
            },
            {
                "start_time": 27.440909090909088,
                "end_time": 27.472727272727273,
                "pitch": 84,
                "velocity": 80,
                "duration": 0.031818181818184854,
                "tempo": 120.0
            },
            {
                "start_time": 27.472727272727273,
                "end_time": 27.877272727272725,
                "pitch": 91,
                "velocity": 80,
                "duration": 0.40454545454545254,
                "tempo": 120.0
            },
            {
                "start_time": 27.877272727272725,
                "end_time": 28.277272727272727,
                "pitch": 89,
                "velocity": 80,
                "duration": 0.40000000000000213,
                "tempo": 120.0
            },
            {
                "start_time": 28.277272727272727,
                "end_time": 28.55909090909091,
                "pitch": 89,
                "velocity": 80,
                "duration": 0.2818181818181813,
                "tempo": 120.0
            },
            {
                "start_time": 28.55909090909091,
                "end_time": 28.677272727272726,
                "pitch": 87,
                "velocity": 80,
                "duration": 0.11818181818181728,
                "tempo": 120.0
            },
            {
                "start_time": 28.677272727272726,
                "end_time": 28.961363636363636,
                "pitch": 96,
                "velocity": 80,
                "duration": 0.28409090909091006,
                "tempo": 120.0
            },
            {
                "start_time": 28.961363636363636,
                "end_time": 29.045454545454543,
                "pitch": 96,
                "velocity": 80,
                "duration": 0.08409090909090722,
                "tempo": 120.0
            },
            {
                "start_time": 29.045454545454543,
                "end_time": 29.079545454545453,
                "pitch": 96,
                "velocity": 80,
                "duration": 0.03409090909091006,
                "tempo": 120.0
            },
            {
                "start_time": 29.079545454545453,
                "end_time": 29.888636363636362,
                "pitch": 93,
                "velocity": 80,
                "duration": 0.8090909090909086,
                "tempo": 120.0
            },
            {
                "start_time": 29.888636363636362,
                "end_time": 30.168181818181818,
                "pitch": 96,
                "velocity": 80,
                "duration": 0.2795454545454561,
                "tempo": 120.0
            },
            {
                "start_time": 30.168181818181818,
                "end_time": 30.25,
                "pitch": 96,
                "velocity": 80,
                "duration": 0.08181818181818201,
                "tempo": 120.0
            },
            {
                "start_time": 30.25,
                "end_time": 30.28181818181818,
                "pitch": 96,
                "velocity": 80,
                "duration": 0.0318181818181813,
                "tempo": 120.0
            },
            {
                "start_time": 30.28181818181818,
                "end_time": 30.799999999999997,
                "pitch": 91,
                "velocity": 80,
                "duration": 0.5181818181818159,
                "tempo": 120.0
            },
            {
                "start_time": 30.799999999999997,
                "end_time": 30.815909090909088,
                "pitch": 91,
                "velocity": 80,
                "duration": 0.01590909090909065,
                "tempo": 120.0
            },
            {
                "start_time": 30.815909090909088,
                "end_time": 31.0,
                "pitch": 91,
                "velocity": 80,
                "duration": 0.1840909090909122,
                "tempo": 120.0
            },
            {
                "start_time": 31.0,
                "end_time": 31.018181818181816,
                "pitch": 91,
                "velocity": 80,
                "duration": 0.018181818181815856,
                "tempo": 120.0
            },
            {
                "start_time": 31.018181818181816,
                "end_time": 31.18409090909091,
                "pitch": 91,
                "velocity": 80,
                "duration": 0.16590909090909278,
                "tempo": 120.0
            },
            {
                "start_time": 31.18409090909091,
                "end_time": 31.384090909090908,
                "pitch": 91,
                "velocity": 80,
                "duration": 0.1999999999999993,
                "tempo": 120.0
            },
            {
                "start_time": 31.384090909090908,
                "end_time": 31.586363636363636,
                "pitch": 91,
                "velocity": 80,
                "duration": 0.20227272727272805,
                "tempo": 120.0
            },
            {
                "start_time": 31.586363636363636,
                "end_time": 31.786363636363635,
                "pitch": 91,
                "velocity": 80,
                "duration": 0.1999999999999993,
                "tempo": 120.0
            },
            {
                "start_time": 31.786363636363635,
                "end_time": 31.984090909090906,
                "pitch": 91,
                "velocity": 80,
                "duration": 0.19772727272727053,
                "tempo": 120.0
            },
            {
                "start_time": 31.984090909090906,
                "end_time": 32.19772727272727,
                "pitch": 91,
                "velocity": 80,
                "duration": 0.21363636363636473,
                "tempo": 120.0
            },
            {
                "start_time": 32.19772727272727,
                "end_time": 32.279545454545456,
                "pitch": 91,
                "velocity": 80,
                "duration": 0.08181818181818556,
                "tempo": 120.0
            },
            {
                "start_time": 32.279545454545456,
                "end_time": 32.70909090909091,
                "pitch": 91,
                "velocity": 80,
                "duration": 0.4295454545454547,
                "tempo": 120.0
            },
            {
                "start_time": 32.70909090909091,
                "end_time": 32.91136363636363,
                "pitch": 92,
                "velocity": 80,
                "duration": 0.20227272727272094,
                "tempo": 120.0
            },
            {
                "start_time": 32.92727272727272,
                "end_time": 33.51136363636363,
                "pitch": 87,
                "velocity": 80,
                "duration": 0.5840909090909108,
                "tempo": 120.0
            },
            {
                "start_time": 33.51136363636363,
                "end_time": 33.711363636363636,
                "pitch": 87,
                "velocity": 80,
                "duration": 0.20000000000000284,
                "tempo": 120.0
            },
            {
                "start_time": 33.711363636363636,
                "end_time": 33.92727272727272,
                "pitch": 89,
                "velocity": 80,
                "duration": 0.2159090909090864,
                "tempo": 120.0
            },
            {
                "start_time": 33.92727272727272,
                "end_time": 34.31363636363636,
                "pitch": 91,
                "velocity": 80,
                "duration": 0.38636363636364024,
                "tempo": 120.0
            },
            {
                "start_time": 34.32954545454545,
                "end_time": 34.513636363636365,
                "pitch": 89,
                "velocity": 80,
                "duration": 0.1840909090909122,
                "tempo": 120.0
            },
            {
                "start_time": 34.529545454545456,
                "end_time": 34.72954545454545,
                "pitch": 87,
                "velocity": 80,
                "duration": 0.19999999999999574,
                "tempo": 120.0
            },
            {
                "start_time": 35.12954545454545,
                "end_time": 35.31363636363636,
                "pitch": 87,
                "velocity": 80,
                "duration": 0.1840909090909122,
                "tempo": 120.0
            },
            {
                "start_time": 35.32954545454545,
                "end_time": 35.529545454545456,
                "pitch": 86,
                "velocity": 80,
                "duration": 0.20000000000000284,
                "tempo": 120.0
            },
            {
                "start_time": 35.529545454545456,
                "end_time": 37.13409090909091,
                "pitch": 86,
                "velocity": 80,
                "duration": 1.6045454545454518,
                "tempo": 120.0
            },
            {
                "start_time": 39.949999999999996,
                "end_time": 40.340909090909086,
                "pitch": 79,
                "velocity": 80,
                "duration": 0.39090909090909065,
                "tempo": 120.0
            },
            {
                "start_time": 40.340909090909086,
                "end_time": 40.73409090909091,
                "pitch": 79,
                "velocity": 80,
                "duration": 0.39318181818182296,
                "tempo": 120.0
            },
            {
                "start_time": 40.752272727272725,
                "end_time": 41.029545454545456,
                "pitch": 84,
                "velocity": 80,
                "duration": 0.2772727272727309,
                "tempo": 120.0
            },
            {
                "start_time": 41.029545454545456,
                "end_time": 41.111363636363635,
                "pitch": 84,
                "velocity": 80,
                "duration": 0.08181818181817846,
                "tempo": 120.0
            },
            {
                "start_time": 41.111363636363635,
                "end_time": 41.127272727272725,
                "pitch": 84,
                "velocity": 80,
                "duration": 0.01590909090909065,
                "tempo": 120.0
            },
            {
                "start_time": 41.14545454545454,
                "end_time": 41.54545454545455,
                "pitch": 87,
                "velocity": 80,
                "duration": 0.4000000000000057,
                "tempo": 120.0
            },
            {
                "start_time": 41.54545454545455,
                "end_time": 41.95454545454545,
                "pitch": 91,
                "velocity": 80,
                "duration": 0.4090909090909065,
                "tempo": 120.0
            },
            {
                "start_time": 41.95454545454545,
                "end_time": 42.73863636363636,
                "pitch": 89,
                "velocity": 80,
                "duration": 0.7840909090909065,
                "tempo": 120.0
            },
            {
                "start_time": 42.75454545454545,
                "end_time": 43.14772727272727,
                "pitch": 93,
                "velocity": 80,
                "duration": 0.39318181818182296,
                "tempo": 120.0
            },
            {
                "start_time": 43.14772727272727,
                "end_time": 45.15681818181818,
                "pitch": 88,
                "velocity": 80,
                "duration": 2.009090909090908,
                "tempo": 120.0
            },
            {
                "start_time": 45.15681818181818,
                "end_time": 45.538636363636364,
                "pitch": 88,
                "velocity": 80,
                "duration": 0.3818181818181827,
                "tempo": 120.0
            },
            {
                "start_time": 45.55681818181818,
                "end_time": 45.74772727272727,
                "pitch": 86,
                "velocity": 80,
                "duration": 0.1909090909090878,
                "tempo": 120.0
            },
            {
                "start_time": 45.76590909090909,
                "end_time": 45.959090909090904,
                "pitch": 87,
                "velocity": 80,
                "duration": 0.19318181818181301,
                "tempo": 120.0
            },
            {
                "start_time": 46.37954545454545,
                "end_time": 46.559090909090905,
                "pitch": 86,
                "velocity": 80,
                "duration": 0.17954545454545467,
                "tempo": 120.0
            },
            {
                "start_time": 46.77045454545454,
                "end_time": 47.054545454545455,
                "pitch": 84,
                "velocity": 80,
                "duration": 0.2840909090909136,
                "tempo": 120.0
            },
            {
                "start_time": 47.054545454545455,
                "end_time": 47.13863636363636,
                "pitch": 84,
                "velocity": 80,
                "duration": 0.08409090909090366,
                "tempo": 120.0
            },
            {
                "start_time": 47.13863636363636,
                "end_time": 47.25681818181818,
                "pitch": 84,
                "velocity": 80,
                "duration": 0.11818181818182438,
                "tempo": 120.0
            },
            {
                "start_time": 47.25681818181818,
                "end_time": 47.340909090909086,
                "pitch": 84,
                "velocity": 80,
                "duration": 0.08409090909090366,
                "tempo": 120.0
            },
            {
                "start_time": 47.340909090909086,
                "end_time": 47.461363636363636,
                "pitch": 84,
                "velocity": 80,
                "duration": 0.12045454545454959,
                "tempo": 120.0
            },
            {
                "start_time": 47.461363636363636,
                "end_time": 47.54772727272727,
                "pitch": 84,
                "velocity": 80,
                "duration": 0.08636363636363598,
                "tempo": 120.0
            },
            {
                "start_time": 47.54772727272727,
                "end_time": 47.66590909090909,
                "pitch": 84,
                "velocity": 80,
                "duration": 0.11818181818181728,
                "tempo": 120.0
            },
            {
                "start_time": 47.66590909090909,
                "end_time": 47.74772727272727,
                "pitch": 84,
                "velocity": 80,
                "duration": 0.08181818181817846,
                "tempo": 120.0
            },
            {
                "start_time": 47.74772727272727,
                "end_time": 47.86590909090909,
                "pitch": 84,
                "velocity": 80,
                "duration": 0.11818181818182438,
                "tempo": 120.0
            },
            {
                "start_time": 47.86590909090909,
                "end_time": 47.94772727272727,
                "pitch": 84,
                "velocity": 80,
                "duration": 0.08181818181817846,
                "tempo": 120.0
            },
            {
                "start_time": 47.94772727272727,
                "end_time": 47.98181818181818,
                "pitch": 84,
                "velocity": 80,
                "duration": 0.03409090909090651,
                "tempo": 120.0
            },
            {
                "start_time": 47.98181818181818,
                "end_time": 48.16136363636363,
                "pitch": 86,
                "velocity": 80,
                "duration": 0.17954545454545467,
                "tempo": 120.0
            },
            {
                "start_time": 48.17727272727272,
                "end_time": 48.375,
                "pitch": 87,
                "velocity": 80,
                "duration": 0.19772727272727764,
                "tempo": 120.0
            },
            {
                "start_time": 48.375,
                "end_time": 48.55681818181818,
                "pitch": 87,
                "velocity": 80,
                "duration": 0.18181818181817988,
                "tempo": 120.0
            },
            {
                "start_time": 48.55681818181818,
                "end_time": 49.584090909090904,
                "pitch": 89,
                "velocity": 80,
                "duration": 1.0272727272727238,
                "tempo": 120.0
            },
            {
                "start_time": 49.584090909090904,
                "end_time": 49.98409090909091,
                "pitch": 82,
                "velocity": 80,
                "duration": 0.4000000000000057,
                "tempo": 120.0
            },
            {
                "start_time": 49.98409090909091,
                "end_time": 50.16590909090909,
                "pitch": 82,
                "velocity": 80,
                "duration": 0.18181818181817988,
                "tempo": 120.0
            },
            {
                "start_time": 50.58181818181818,
                "end_time": 50.788636363636364,
                "pitch": 86,
                "velocity": 80,
                "duration": 0.20681818181818556,
                "tempo": 120.0
            },
            {
                "start_time": 51.19090909090909,
                "end_time": 51.39090909090909,
                "pitch": 88,
                "velocity": 80,
                "duration": 0.20000000000000284,
                "tempo": 120.0
            },
            {
                "start_time": 51.39090909090909,
                "end_time": 51.590909090909086,
                "pitch": 88,
                "velocity": 80,
                "duration": 0.19999999999999574,
                "tempo": 120.0
            },
            {
                "start_time": 51.590909090909086,
                "end_time": 52.099999999999994,
                "pitch": 91,
                "velocity": 80,
                "duration": 0.5090909090909079,
                "tempo": 120.0
            },
            {
                "start_time": 52.099999999999994,
                "end_time": 52.115909090909085,
                "pitch": 91,
                "velocity": 80,
                "duration": 0.01590909090909065,
                "tempo": 120.0
            },
            {
                "start_time": 52.115909090909085,
                "end_time": 52.3,
                "pitch": 91,
                "velocity": 80,
                "duration": 0.1840909090909122,
                "tempo": 120.0
            },
            {
                "start_time": 52.3,
                "end_time": 52.31590909090909,
                "pitch": 91,
                "velocity": 80,
                "duration": 0.01590909090909065,
                "tempo": 120.0
            },
            {
                "start_time": 52.31590909090909,
                "end_time": 52.38409090909091,
                "pitch": 91,
                "velocity": 80,
                "duration": 0.06818181818182012,
                "tempo": 120.0
            },
            {
                "start_time": 52.38409090909091,
                "end_time": 52.793181818181814,
                "pitch": 89,
                "velocity": 80,
                "duration": 0.4090909090909065,
                "tempo": 120.0
            },
            {
                "start_time": 52.793181818181814,
                "end_time": 53.18636363636363,
                "pitch": 89,
                "velocity": 80,
                "duration": 0.39318181818181586,
                "tempo": 120.0
            },
            {
                "start_time": 53.18636363636363,
                "end_time": 53.470454545454544,
                "pitch": 84,
                "velocity": 80,
                "duration": 0.2840909090909136,
                "tempo": 120.0
            },
            {
                "start_time": 53.470454545454544,
                "end_time": 53.55227272727272,
                "pitch": 84,
                "velocity": 80,
                "duration": 0.08181818181817846,
                "tempo": 120.0
            },
            {
                "start_time": 53.55227272727272,
                "end_time": 53.67045454545454,
                "pitch": 84,
                "velocity": 80,
                "duration": 0.11818181818181728,
                "tempo": 120.0
            },
            {
                "start_time": 53.67045454545454,
                "end_time": 53.75454545454545,
                "pitch": 84,
                "velocity": 80,
                "duration": 0.08409090909091077,
                "tempo": 120.0
            },
            {
                "start_time": 53.75454545454545,
                "end_time": 53.87272727272727,
                "pitch": 84,
                "velocity": 80,
                "duration": 0.11818181818181728,
                "tempo": 120.0
            },
            {
                "start_time": 53.87272727272727,
                "end_time": 53.95454545454545,
                "pitch": 84,
                "velocity": 80,
                "duration": 0.08181818181818556,
                "tempo": 120.0
            },
            {
                "start_time": 53.95454545454545,
                "end_time": 54.074999999999996,
                "pitch": 84,
                "velocity": 80,
                "duration": 0.12045454545454248,
                "tempo": 120.0
            },
            {
                "start_time": 54.074999999999996,
                "end_time": 54.15909090909091,
                "pitch": 84,
                "velocity": 80,
                "duration": 0.08409090909091077,
                "tempo": 120.0
            },
            {
                "start_time": 54.15909090909091,
                "end_time": 54.27954545454545,
                "pitch": 84,
                "velocity": 80,
                "duration": 0.12045454545454248,
                "tempo": 120.0
            },
            {
                "start_time": 54.27954545454545,
                "end_time": 54.365909090909085,
                "pitch": 84,
                "velocity": 80,
                "duration": 0.08636363636363598,
                "tempo": 120.0
            },
            {
                "start_time": 54.365909090909085,
                "end_time": 54.4,
                "pitch": 84,
                "velocity": 80,
                "duration": 0.03409090909091361,
                "tempo": 120.0
            },
            {
                "start_time": 54.4,
                "end_time": 54.91136363636363,
                "pitch": 91,
                "velocity": 80,
                "duration": 0.5113636363636331,
                "tempo": 120.0
            },
            {
                "start_time": 54.91136363636363,
                "end_time": 54.929545454545455,
                "pitch": 91,
                "velocity": 80,
                "duration": 0.018181818181822962,
                "tempo": 120.0
            },
            {
                "start_time": 54.929545454545455,
                "end_time": 55.115909090909085,
                "pitch": 91,
                "velocity": 80,
                "duration": 0.1863636363636303,
                "tempo": 120.0
            },
            {
                "start_time": 55.115909090909085,
                "end_time": 55.13409090909091,
                "pitch": 91,
                "velocity": 80,
                "duration": 0.018181818181822962,
                "tempo": 120.0
            },
            {
                "start_time": 55.13409090909091,
                "end_time": 55.18636363636363,
                "pitch": 91,
                "velocity": 80,
                "duration": 0.052272727272722364,
                "tempo": 120.0
            },
            {
                "start_time": 55.20227272727273,
                "end_time": 55.47954545454545,
                "pitch": 96,
                "velocity": 80,
                "duration": 0.2772727272727238,
                "tempo": 120.0
            },
            {
                "start_time": 55.47954545454545,
                "end_time": 55.56136363636363,
                "pitch": 96,
                "velocity": 80,
                "duration": 0.08181818181817846,
                "tempo": 120.0
            },
            {
                "start_time": 55.56136363636363,
                "end_time": 55.595454545454544,
                "pitch": 96,
                "velocity": 80,
                "duration": 0.03409090909091361,
                "tempo": 120.0
            },
            {
                "start_time": 55.595454545454544,
                "end_time": 56.00454545454545,
                "pitch": 95,
                "velocity": 80,
                "duration": 0.4090909090909065,
                "tempo": 120.0
            },
            {
                "start_time": 56.00454545454545,
                "end_time": 56.39772727272727,
                "pitch": 93,
                "velocity": 80,
                "duration": 0.39318181818182296,
                "tempo": 120.0
            },
            {
                "start_time": 56.39772727272727,
                "end_time": 58.01363636363636,
                "pitch": 88,
                "velocity": 80,
                "duration": 1.615909090909085,
                "tempo": 120.0
            },
            {
                "start_time": 58.01363636363636,
                "end_time": 58.40454545454545,
                "pitch": 88,
                "velocity": 80,
                "duration": 0.39090909090909065,
                "tempo": 120.0
            },
            {
                "start_time": 58.40454545454545,
                "end_time": 58.58863636363636,
                "pitch": 89,
                "velocity": 80,
                "duration": 0.1840909090909122,
                "tempo": 120.0
            },
            {
                "start_time": 58.60454545454545,
                "end_time": 58.89090909090909,
                "pitch": 84,
                "velocity": 80,
                "duration": 0.2863636363636388,
                "tempo": 120.0
            },
            {
                "start_time": 58.89090909090909,
                "end_time": 58.97727272727273,
                "pitch": 84,
                "velocity": 80,
                "duration": 0.08636363636363598,
                "tempo": 120.0
            },
            {
                "start_time": 58.97727272727273,
                "end_time": 59.095454545454544,
                "pitch": 84,
                "velocity": 80,
                "duration": 0.11818181818181728,
                "tempo": 120.0
            },
            {
                "start_time": 59.095454545454544,
                "end_time": 59.18181818181818,
                "pitch": 84,
                "velocity": 80,
                "duration": 0.08636363636363598,
                "tempo": 120.0
            },
            {
                "start_time": 59.18181818181818,
                "end_time": 59.215909090909086,
                "pitch": 84,
                "velocity": 80,
                "duration": 0.03409090909090651,
                "tempo": 120.0
            },
            {
                "start_time": 59.215909090909086,
                "end_time": 59.60909090909091,
                "pitch": 81,
                "velocity": 80,
                "duration": 0.39318181818182296,
                "tempo": 120.0
            },
            {
                "start_time": 59.60909090909091,
                "end_time": 60.002272727272725,
                "pitch": 89,
                "velocity": 80,
                "duration": 0.39318181818181586,
                "tempo": 120.0
            },
            {
                "start_time": 60.018181818181816,
                "end_time": 60.20227272727272,
                "pitch": 88,
                "velocity": 80,
                "duration": 0.18409090909090509,
                "tempo": 120.0
            },
            {
                "start_time": 60.220454545454544,
                "end_time": 60.820454545454545,
                "pitch": 89,
                "velocity": 80,
                "duration": 0.6000000000000014,
                "tempo": 120.0
            },
            {
                "start_time": 60.820454545454545,
                "end_time": 61.22272727272727,
                "pitch": 91,
                "velocity": 80,
                "duration": 0.4022727272727238,
                "tempo": 120.0
            },
            {
                "start_time": 61.22272727272727,
                "end_time": 64.42727272727272,
                "pitch": 88,
                "velocity": 80,
                "duration": 3.2045454545454533,
                "tempo": 120.0
            },
            {
                "start_time": 64.42727272727272,
                "end_time": 64.94545454545454,
                "pitch": 91,
                "velocity": 80,
                "duration": 0.5181818181818159,
                "tempo": 120.0
            },
            {
                "start_time": 64.94545454545454,
                "end_time": 64.96136363636363,
                "pitch": 91,
                "velocity": 80,
                "duration": 0.01590909090909065,
                "tempo": 120.0
            },
            {
                "start_time": 64.96136363636363,
                "end_time": 65.14090909090909,
                "pitch": 91,
                "velocity": 80,
                "duration": 0.17954545454546178,
                "tempo": 120.0
            },
            {
                "start_time": 65.14090909090909,
                "end_time": 65.1590909090909,
                "pitch": 91,
                "velocity": 80,
                "duration": 0.018181818181815856,
                "tempo": 120.0
            },
            {
                "start_time": 65.1590909090909,
                "end_time": 65.22272727272727,
                "pitch": 91,
                "velocity": 80,
                "duration": 0.0636363636363626,
                "tempo": 120.0
            },
            {
                "start_time": 65.22272727272727,
                "end_time": 65.6340909090909,
                "pitch": 89,
                "velocity": 80,
                "duration": 0.4113636363636317,
                "tempo": 120.0
            },
            {
                "start_time": 65.6340909090909,
                "end_time": 66.02499999999999,
                "pitch": 89,
                "velocity": 80,
                "duration": 0.39090909090909065,
                "tempo": 120.0
            },
            {
                "start_time": 66.02499999999999,
                "end_time": 66.31590909090909,
                "pitch": 84,
                "velocity": 80,
                "duration": 0.29090909090909634,
                "tempo": 120.0
            },
            {
                "start_time": 66.31590909090909,
                "end_time": 66.40227272727273,
                "pitch": 84,
                "velocity": 80,
                "duration": 0.08636363636364308,
                "tempo": 120.0
            },
            {
                "start_time": 66.40227272727273,
                "end_time": 66.51818181818182,
                "pitch": 84,
                "velocity": 80,
                "duration": 0.11590909090908497,
                "tempo": 120.0
            },
            {
                "start_time": 66.51818181818182,
                "end_time": 66.6,
                "pitch": 84,
                "velocity": 80,
                "duration": 0.08181818181817846,
                "tempo": 120.0
            },
            {
                "start_time": 66.6,
                "end_time": 66.71363636363635,
                "pitch": 84,
                "velocity": 80,
                "duration": 0.11363636363635976,
                "tempo": 120.0
            },
            {
                "start_time": 66.71363636363635,
                "end_time": 66.79545454545455,
                "pitch": 84,
                "velocity": 80,
                "duration": 0.08181818181819267,
                "tempo": 120.0
            },
            {
                "start_time": 66.79545454545455,
                "end_time": 66.91363636363636,
                "pitch": 84,
                "velocity": 80,
                "duration": 0.11818181818181017,
                "tempo": 120.0
            },
            {
                "start_time": 66.91363636363636,
                "end_time": 67.0,
                "pitch": 84,
                "velocity": 80,
                "duration": 0.08636363636364308,
                "tempo": 120.0
            },
            {
                "start_time": 67.0,
                "end_time": 67.11818181818181,
                "pitch": 84,
                "velocity": 80,
                "duration": 0.11818181818181017,
                "tempo": 120.0
            },
            {
                "start_time": 67.11818181818181,
                "end_time": 67.20454545454545,
                "pitch": 84,
                "velocity": 80,
                "duration": 0.08636363636364308,
                "tempo": 120.0
            },
            {
                "start_time": 67.20454545454545,
                "end_time": 67.23863636363636,
                "pitch": 84,
                "velocity": 80,
                "duration": 0.03409090909090651,
                "tempo": 120.0
            },
            {
                "start_time": 67.23863636363636,
                "end_time": 67.75,
                "pitch": 91,
                "velocity": 80,
                "duration": 0.5113636363636402,
                "tempo": 120.0
            },
            {
                "start_time": 67.75,
                "end_time": 67.76818181818182,
                "pitch": 91,
                "velocity": 80,
                "duration": 0.018181818181815856,
                "tempo": 120.0
            },
            {
                "start_time": 67.76818181818182,
                "end_time": 67.95681818181818,
                "pitch": 91,
                "velocity": 80,
                "duration": 0.1886363636363626,
                "tempo": 120.0
            },
            {
                "start_time": 67.95681818181818,
                "end_time": 67.97272727272727,
                "pitch": 91,
                "velocity": 80,
                "duration": 0.01590909090909065,
                "tempo": 120.0
            },
            {
                "start_time": 67.97272727272727,
                "end_time": 68.04090909090908,
                "pitch": 91,
                "velocity": 80,
                "duration": 0.06818181818181301,
                "tempo": 120.0
            },
            {
                "start_time": 68.04090909090908,
                "end_time": 68.32045454545454,
                "pitch": 96,
                "velocity": 80,
                "duration": 0.2795454545454561,
                "tempo": 120.0
            },
            {
                "start_time": 68.32045454545454,
                "end_time": 68.40227272727273,
                "pitch": 96,
                "velocity": 80,
                "duration": 0.08181818181819267,
                "tempo": 120.0
            },
            {
                "start_time": 68.40227272727273,
                "end_time": 68.43409090909091,
                "pitch": 96,
                "velocity": 80,
                "duration": 0.0318181818181813,
                "tempo": 120.0
            },
            {
                "start_time": 68.43409090909091,
                "end_time": 68.84545454545454,
                "pitch": 95,
                "velocity": 80,
                "duration": 0.4113636363636317,
                "tempo": 120.0
            },
            {
                "start_time": 68.84545454545454,
                "end_time": 69.23636363636363,
                "pitch": 93,
                "velocity": 80,
                "duration": 0.39090909090909065,
                "tempo": 120.0
            },
            {
                "start_time": 69.23636363636363,
                "end_time": 70.84318181818182,
                "pitch": 88,
                "velocity": 80,
                "duration": 1.6068181818181841,
                "tempo": 120.0
            },
            {
                "start_time": 70.84318181818182,
                "end_time": 71.42727272727272,
                "pitch": 88,
                "velocity": 80,
                "duration": 0.5840909090909037,
                "tempo": 120.0
            },
            {
                "start_time": 71.44545454545454,
                "end_time": 71.72954545454544,
                "pitch": 84,
                "velocity": 80,
                "duration": 0.2840909090909065,
                "tempo": 120.0
            },
            {
                "start_time": 71.72954545454544,
                "end_time": 71.81590909090909,
                "pitch": 84,
                "velocity": 80,
                "duration": 0.08636363636364308,
                "tempo": 120.0
            },
            {
                "start_time": 71.81590909090909,
                "end_time": 71.93636363636364,
                "pitch": 84,
                "velocity": 80,
                "duration": 0.12045454545454959,
                "tempo": 120.0
            },
            {
                "start_time": 71.93636363636364,
                "end_time": 72.02045454545454,
                "pitch": 84,
                "velocity": 80,
                "duration": 0.08409090909090366,
                "tempo": 120.0
            },
            {
                "start_time": 72.02045454545454,
                "end_time": 72.05454545454545,
                "pitch": 84,
                "velocity": 80,
                "duration": 0.03409090909090651,
                "tempo": 120.0
            },
            {
                "start_time": 72.05454545454545,
                "end_time": 72.4590909090909,
                "pitch": 81,
                "velocity": 80,
                "duration": 0.4045454545454561,
                "tempo": 120.0
            },
            {
                "start_time": 72.4590909090909,
                "end_time": 72.84545454545454,
                "pitch": 89,
                "velocity": 80,
                "duration": 0.38636363636364024,
                "tempo": 120.0
            },
            {
                "start_time": 72.84545454545454,
                "end_time": 73.24545454545454,
                "pitch": 89,
                "velocity": 80,
                "duration": 0.3999999999999915,
                "tempo": 120.0
            },
            {
                "start_time": 73.24545454545454,
                "end_time": 73.26136363636363,
                "pitch": 88,
                "velocity": 80,
                "duration": 0.01590909090909065,
                "tempo": 120.0
            },
            {
                "start_time": 73.26136363636363,
                "end_time": 73.54772727272727,
                "pitch": 84,
                "velocity": 80,
                "duration": 0.2863636363636459,
                "tempo": 120.0
            },
            {
                "start_time": 73.54772727272727,
                "end_time": 73.63181818181818,
                "pitch": 84,
                "velocity": 80,
                "duration": 0.08409090909090366,
                "tempo": 120.0
            },
            {
                "start_time": 73.63181818181818,
                "end_time": 73.66363636363636,
                "pitch": 84,
                "velocity": 80,
                "duration": 0.0318181818181813,
                "tempo": 120.0
            },
            {
                "start_time": 73.66363636363636,
                "end_time": 74.05681818181817,
                "pitch": 86,
                "velocity": 80,
                "duration": 0.39318181818181586,
                "tempo": 120.0
            },
            {
                "start_time": 74.05681818181817,
                "end_time": 74.5840909090909,
                "pitch": 91,
                "velocity": 80,
                "duration": 0.5272727272727309,
                "tempo": 120.0
            },
            {
                "start_time": 74.5840909090909,
                "end_time": 74.60227272727272,
                "pitch": 91,
                "velocity": 80,
                "duration": 0.018181818181815856,
                "tempo": 120.0
            },
            {
                "start_time": 74.60227272727272,
                "end_time": 74.78636363636363,
                "pitch": 91,
                "velocity": 80,
                "duration": 0.1840909090909122,
                "tempo": 120.0
            },
            {
                "start_time": 74.78636363636363,
                "end_time": 74.80227272727272,
                "pitch": 91,
                "velocity": 80,
                "duration": 0.01590909090909065,
                "tempo": 120.0
            },
            {
                "start_time": 74.80227272727272,
                "end_time": 74.97045454545454,
                "pitch": 91,
                "velocity": 80,
                "duration": 0.16818181818182154,
                "tempo": 120.0
            },
            {
                "start_time": 74.97045454545454,
                "end_time": 75.17045454545455,
                "pitch": 91,
                "velocity": 80,
                "duration": 0.20000000000000284,
                "tempo": 120.0
            },
            {
                "start_time": 75.17045454545455,
                "end_time": 75.37045454545454,
                "pitch": 91,
                "velocity": 80,
                "duration": 0.19999999999998863,
                "tempo": 120.0
            },
            {
                "start_time": 75.37045454545454,
                "end_time": 75.57272727272726,
                "pitch": 91,
                "velocity": 80,
                "duration": 0.20227272727272805,
                "tempo": 120.0
            },
            {
                "start_time": 75.57272727272726,
                "end_time": 75.77272727272727,
                "pitch": 91,
                "velocity": 80,
                "duration": 0.20000000000000284,
                "tempo": 120.0
            },
            {
                "start_time": 75.77272727272727,
                "end_time": 75.97272727272727,
                "pitch": 91,
                "velocity": 80,
                "duration": 0.20000000000000284,
                "tempo": 120.0
            },
            {
                "start_time": 75.97272727272727,
                "end_time": 76.17272727272727,
                "pitch": 91,
                "velocity": 80,
                "duration": 0.20000000000000284,
                "tempo": 120.0
            },
            {
                "start_time": 76.17272727272727,
                "end_time": 76.375,
                "pitch": 91,
                "velocity": 80,
                "duration": 0.20227272727272805,
                "tempo": 120.0
            },
            {
                "start_time": 76.375,
                "end_time": 76.575,
                "pitch": 91,
                "velocity": 80,
                "duration": 0.20000000000000284,
                "tempo": 120.0
            },
            {
                "start_time": 76.575,
                "end_time": 76.77727272727272,
                "pitch": 91,
                "velocity": 80,
                "duration": 0.20227272727271384,
                "tempo": 120.0
            },
            {
                "start_time": 76.77727272727272,
                "end_time": 76.97727272727272,
                "pitch": 91,
                "velocity": 80,
                "duration": 0.20000000000000284,
                "tempo": 120.0
            },
            {
                "start_time": 76.97727272727272,
                "end_time": 77.17727272727272,
                "pitch": 91,
                "velocity": 80,
                "duration": 0.20000000000000284,
                "tempo": 120.0
            },
            {
                "start_time": 77.17727272727272,
                "end_time": 77.27727272727272,
                "pitch": 91,
                "velocity": 80,
                "duration": 0.09999999999999432,
                "tempo": 120.0
            },
            {
                "start_time": 77.27727272727272,
                "end_time": 77.67045454545455,
                "pitch": 100,
                "velocity": 80,
                "duration": 0.39318181818183007,
                "tempo": 120.0
            },
            {
                "start_time": 77.67045454545455,
                "end_time": 77.85454545454544,
                "pitch": 101,
                "velocity": 80,
                "duration": 0.18409090909089798,
                "tempo": 120.0
            },
            {
                "start_time": 77.87272727272727,
                "end_time": 78.1590909090909,
                "pitch": 96,
                "velocity": 80,
                "duration": 0.2863636363636317,
                "tempo": 120.0
            },
            {
                "start_time": 78.1590909090909,
                "end_time": 78.24318181818181,
                "pitch": 96,
                "velocity": 80,
                "duration": 0.08409090909090366,
                "tempo": 120.0
            },
            {
                "start_time": 78.24318181818181,
                "end_time": 78.36363636363636,
                "pitch": 96,
                "velocity": 80,
                "duration": 0.12045454545454959,
                "tempo": 120.0
            },
            {
                "start_time": 78.36363636363636,
                "end_time": 78.45,
                "pitch": 96,
                "velocity": 80,
                "duration": 0.08636363636364308,
                "tempo": 120.0
            },
            {
                "start_time": 78.45,
                "end_time": 78.48409090909091,
                "pitch": 96,
                "velocity": 80,
                "duration": 0.03409090909090651,
                "tempo": 120.0
            },
            {
                "start_time": 78.48409090909091,
                "end_time": 78.88636363636363,
                "pitch": 93,
                "velocity": 80,
                "duration": 0.4022727272727167,
                "tempo": 120.0
            },
            {
                "start_time": 78.88636363636363,
                "end_time": 79.27045454545454,
                "pitch": 101,
                "velocity": 80,
                "duration": 0.38409090909091503,
                "tempo": 120.0
            },
            {
                "start_time": 79.27045454545454,
                "end_time": 79.67272727272727,
                "pitch": 101,
                "velocity": 80,
                "duration": 0.4022727272727309,
                "tempo": 120.0
            },
            {
                "start_time": 79.67272727272727,
                "end_time": 79.69090909090909,
                "pitch": 100,
                "velocity": 80,
                "duration": 0.018181818181815856,
                "tempo": 120.0
            },
            {
                "start_time": 79.69090909090909,
                "end_time": 79.97272727272727,
                "pitch": 96,
                "velocity": 80,
                "duration": 0.2818181818181813,
                "tempo": 120.0
            },
            {
                "start_time": 79.97272727272727,
                "end_time": 80.05681818181817,
                "pitch": 96,
                "velocity": 80,
                "duration": 0.08409090909090366,
                "tempo": 120.0
            },
            {
                "start_time": 80.05681818181817,
                "end_time": 80.0909090909091,
                "pitch": 96,
                "velocity": 80,
                "duration": 0.03409090909092072,
                "tempo": 120.0
            },
            {
                "start_time": 80.0909090909091,
                "end_time": 80.49318181818181,
                "pitch": 98,
                "velocity": 80,
                "duration": 0.4022727272727167,
                "tempo": 120.0
            },
            {
                "start_time": 80.49318181818181,
                "end_time": 80.77727272727272,
                "pitch": 96,
                "velocity": 80,
                "duration": 0.2840909090909065,
                "tempo": 120.0
            },
            {
                "start_time": 80.77727272727272,
                "end_time": 80.86136363636363,
                "pitch": 96,
                "velocity": 80,
                "duration": 0.08409090909091788,
                "tempo": 120.0
            },
            {
                "start_time": 80.86136363636363,
                "end_time": 80.97727272727272,
                "pitch": 96,
                "velocity": 80,
                "duration": 0.11590909090908497,
                "tempo": 120.0
            },
            {
                "start_time": 80.97727272727272,
                "end_time": 81.06136363636364,
                "pitch": 96,
                "velocity": 80,
                "duration": 0.08409090909091788,
                "tempo": 120.0
            },
            {
                "start_time": 81.06136363636364,
                "end_time": 81.17727272727272,
                "pitch": 96,
                "velocity": 80,
                "duration": 0.11590909090908497,
                "tempo": 120.0
            },
            {
                "start_time": 81.17727272727272,
                "end_time": 81.26136363636363,
                "pitch": 96,
                "velocity": 80,
                "duration": 0.08409090909090366,
                "tempo": 120.0
            },
            {
                "start_time": 81.26136363636363,
                "end_time": 81.37954545454545,
                "pitch": 96,
                "velocity": 80,
                "duration": 0.11818181818182438,
                "tempo": 120.0
            },
            {
                "start_time": 81.37954545454545,
                "end_time": 81.46363636363635,
                "pitch": 96,
                "velocity": 80,
                "duration": 0.08409090909090366,
                "tempo": 120.0
            },
            {
                "start_time": 81.46363636363635,
                "end_time": 81.57954545454545,
                "pitch": 96,
                "velocity": 80,
                "duration": 0.11590909090909918,
                "tempo": 120.0
            },
            {
                "start_time": 81.57954545454545,
                "end_time": 81.66363636363636,
                "pitch": 96,
                "velocity": 80,
                "duration": 0.08409090909090366,
                "tempo": 120.0
            },
            {
                "start_time": 81.66363636363636,
                "end_time": 81.78181818181818,
                "pitch": 96,
                "velocity": 80,
                "duration": 0.11818181818182438,
                "tempo": 120.0
            },
            {
                "start_time": 81.78181818181818,
                "end_time": 81.86363636363636,
                "pitch": 96,
                "velocity": 80,
                "duration": 0.08181818181817846,
                "tempo": 120.0
            },
            {
                "start_time": 81.86363636363636,
                "end_time": 81.98181818181818,
                "pitch": 96,
                "velocity": 80,
                "duration": 0.11818181818182438,
                "tempo": 120.0
            },
            {
                "start_time": 81.98181818181818,
                "end_time": 82.06363636363636,
                "pitch": 96,
                "velocity": 80,
                "duration": 0.08181818181817846,
                "tempo": 120.0
            },
            {
                "start_time": 82.06363636363636,
                "end_time": 82.09772727272727,
                "pitch": 96,
                "velocity": 80,
                "duration": 0.03409090909090651,
                "tempo": 120.0
            }
        ],
        "Acoustic Guitar (nylon)": [
            {
                "start_time": 0.0,
                "end_time": 0.41363636363636364,
                "pitch": 62,
                "velocity": 4,
                "duration": 0.41363636363636364,
                "tempo": 120.0
            },
            {
                "start_time": 0.41363636363636364,
                "end_time": 0.8363636363636363,
                "pitch": 55,
                "velocity": 64,
                "duration": 0.4227272727272727,
                "tempo": 120.0
            },
            {
                "start_time": 0.8363636363636363,
                "end_time": 1.2386363636363635,
                "pitch": 64,
                "velocity": 64,
                "duration": 0.4022727272727272,
                "tempo": 120.0
            },
            {
                "start_time": 1.2386363636363635,
                "end_time": 1.6295454545454544,
                "pitch": 55,
                "velocity": 64,
                "duration": 0.3909090909090909,
                "tempo": 120.0
            },
            {
                "start_time": 1.6295454545454544,
                "end_time": 2.034090909090909,
                "pitch": 57,
                "velocity": 64,
                "duration": 0.40454545454545476,
                "tempo": 120.0
            },
            {
                "start_time": 2.034090909090909,
                "end_time": 2.443181818181818,
                "pitch": 62,
                "velocity": 64,
                "duration": 0.4090909090909087,
                "tempo": 120.0
            },
            {
                "start_time": 2.443181818181818,
                "end_time": 2.8431818181818183,
                "pitch": 60,
                "velocity": 64,
                "duration": 0.40000000000000036,
                "tempo": 120.0
            },
            {
                "start_time": 2.8431818181818183,
                "end_time": 3.2363636363636363,
                "pitch": 59,
                "velocity": 64,
                "duration": 0.3931818181818181,
                "tempo": 120.0
            },
            {
                "start_time": 3.2363636363636363,
                "end_time": 3.6363636363636362,
                "pitch": 59,
                "velocity": 64,
                "duration": 0.3999999999999999,
                "tempo": 120.0
            },
            {
                "start_time": 3.6363636363636362,
                "end_time": 4.047727272727273,
                "pitch": 55,
                "velocity": 64,
                "duration": 0.4113636363636366,
                "tempo": 120.0
            },
            {
                "start_time": 4.047727272727273,
                "end_time": 4.447727272727272,
                "pitch": 57,
                "velocity": 64,
                "duration": 0.39999999999999947,
                "tempo": 120.0
            },
            {
                "start_time": 4.447727272727272,
                "end_time": 4.577272727272727,
                "pitch": 57,
                "velocity": 64,
                "duration": 0.12954545454545485,
                "tempo": 120.0
            },
            {
                "start_time": 4.577272727272727,
                "end_time": 4.838636363636363,
                "pitch": 59,
                "velocity": 64,
                "duration": 0.2613636363636358,
                "tempo": 120.0
            },
            {
                "start_time": 4.838636363636363,
                "end_time": 5.6499999999999995,
                "pitch": 64,
                "velocity": 64,
                "duration": 0.8113636363636365,
                "tempo": 120.0
            },
            {
                "start_time": 5.6499999999999995,
                "end_time": 6.4431818181818175,
                "pitch": 61,
                "velocity": 64,
                "duration": 0.793181818181818,
                "tempo": 120.0
            },
            {
                "start_time": 6.4431818181818175,
                "end_time": 6.8590909090909085,
                "pitch": 53,
                "velocity": 64,
                "duration": 0.415909090909091,
                "tempo": 120.0
            },
            {
                "start_time": 6.8590909090909085,
                "end_time": 7.29090909090909,
                "pitch": 55,
                "velocity": 64,
                "duration": 0.43181818181818166,
                "tempo": 120.0
            },
            {
                "start_time": 7.29090909090909,
                "end_time": 7.702272727272727,
                "pitch": 57,
                "velocity": 64,
                "duration": 0.41136363636363704,
                "tempo": 120.0
            },
            {
                "start_time": 7.702272727272727,
                "end_time": 8.097727272727273,
                "pitch": 60,
                "velocity": 64,
                "duration": 0.3954545454545455,
                "tempo": 120.0
            },
            {
                "start_time": 8.097727272727273,
                "end_time": 8.893181818181818,
                "pitch": 59,
                "velocity": 64,
                "duration": 0.795454545454545,
                "tempo": 120.0
            },
            {
                "start_time": 8.893181818181818,
                "end_time": 9.697727272727272,
                "pitch": 55,
                "velocity": 64,
                "duration": 0.8045454545454547,
                "tempo": 120.0
            },
            {
                "start_time": 9.697727272727272,
                "end_time": 10.5,
                "pitch": 52,
                "velocity": 64,
                "duration": 0.8022727272727277,
                "tempo": 120.0
            },
            {
                "start_time": 11.306818181818182,
                "end_time": 11.709090909090909,
                "pitch": 64,
                "velocity": 64,
                "duration": 0.40227272727272734,
                "tempo": 120.0
            },
            {
                "start_time": 11.709090909090909,
                "end_time": 12.111363636363636,
                "pitch": 60,
                "velocity": 64,
                "duration": 0.40227272727272734,
                "tempo": 120.0
            },
            {
                "start_time": 12.111363636363636,
                "end_time": 12.511363636363635,
                "pitch": 59,
                "velocity": 64,
                "duration": 0.3999999999999986,
                "tempo": 120.0
            },
            {
                "start_time": 12.511363636363635,
                "end_time": 12.913636363636362,
                "pitch": 50,
                "velocity": 64,
                "duration": 0.40227272727272734,
                "tempo": 120.0
            },
            {
                "start_time": 12.913636363636362,
                "end_time": 13.31590909090909,
                "pitch": 62,
                "velocity": 64,
                "duration": 0.40227272727272734,
                "tempo": 120.0
            },
            {
                "start_time": 13.31590909090909,
                "end_time": 13.727272727272727,
                "pitch": 55,
                "velocity": 64,
                "duration": 0.41136363636363704,
                "tempo": 120.0
            },
            {
                "start_time": 13.727272727272727,
                "end_time": 14.131818181818181,
                "pitch": 64,
                "velocity": 64,
                "duration": 0.4045454545454543,
                "tempo": 120.0
            },
            {
                "start_time": 14.131818181818181,
                "end_time": 14.522727272727272,
                "pitch": 55,
                "velocity": 64,
                "duration": 0.39090909090909065,
                "tempo": 120.0
            },
            {
                "start_time": 14.522727272727272,
                "end_time": 14.924999999999999,
                "pitch": 57,
                "velocity": 64,
                "duration": 0.40227272727272734,
                "tempo": 120.0
            },
            {
                "start_time": 14.924999999999999,
                "end_time": 15.329545454545453,
                "pitch": 60,
                "velocity": 64,
                "duration": 0.4045454545454543,
                "tempo": 120.0
            },
            {
                "start_time": 15.329545454545453,
                "end_time": 15.73181818181818,
                "pitch": 63,
                "velocity": 64,
                "duration": 0.40227272727272734,
                "tempo": 120.0
            },
            {
                "start_time": 15.73181818181818,
                "end_time": 16.134090909090908,
                "pitch": 60,
                "velocity": 64,
                "duration": 0.40227272727272734,
                "tempo": 120.0
            },
            {
                "start_time": 16.134090909090908,
                "end_time": 16.536363636363635,
                "pitch": 64,
                "velocity": 64,
                "duration": 0.40227272727272734,
                "tempo": 120.0
            },
            {
                "start_time": 16.536363636363635,
                "end_time": 16.936363636363634,
                "pitch": 57,
                "velocity": 64,
                "duration": 0.3999999999999986,
                "tempo": 120.0
            },
            {
                "start_time": 16.936363636363634,
                "end_time": 17.336363636363636,
                "pitch": 60,
                "velocity": 64,
                "duration": 0.40000000000000213,
                "tempo": 120.0
            },
            {
                "start_time": 17.336363636363636,
                "end_time": 18.138636363636362,
                "pitch": 64,
                "velocity": 64,
                "duration": 0.8022727272727259,
                "tempo": 120.0
            },
            {
                "start_time": 18.138636363636362,
                "end_time": 18.543181818181818,
                "pitch": 62,
                "velocity": 64,
                "duration": 0.4045454545454561,
                "tempo": 120.0
            },
            {
                "start_time": 18.543181818181818,
                "end_time": 18.709090909090907,
                "pitch": 62,
                "velocity": 64,
                "duration": 0.16590909090908923,
                "tempo": 120.0
            },
            {
                "start_time": 18.709090909090907,
                "end_time": 18.925,
                "pitch": 64,
                "velocity": 64,
                "duration": 0.2159090909090935,
                "tempo": 120.0
            },
            {
                "start_time": 18.925,
                "end_time": 19.375,
                "pitch": 59,
                "velocity": 64,
                "duration": 0.4499999999999993,
                "tempo": 120.0
            },
            {
                "start_time": 19.375,
                "end_time": 19.804545454545455,
                "pitch": 60,
                "velocity": 64,
                "duration": 0.4295454545454547,
                "tempo": 120.0
            },
            {
                "start_time": 19.804545454545455,
                "end_time": 20.21590909090909,
                "pitch": 57,
                "velocity": 64,
                "duration": 0.41136363636363527,
                "tempo": 120.0
            },
            {
                "start_time": 20.21590909090909,
                "end_time": 21.029545454545453,
                "pitch": 60,
                "velocity": 64,
                "duration": 0.8136363636363626,
                "tempo": 120.0
            },
            {
                "start_time": 21.029545454545453,
                "end_time": 22.227272727272727,
                "pitch": 59,
                "velocity": 64,
                "duration": 1.197727272727274,
                "tempo": 120.0
            },
            {
                "start_time": 22.227272727272727,
                "end_time": 22.620454545454546,
                "pitch": 59,
                "velocity": 64,
                "duration": 0.3931818181818194,
                "tempo": 120.0
            },
            {
                "start_time": 22.620454545454546,
                "end_time": 23.834090909090907,
                "pitch": 60,
                "velocity": 64,
                "duration": 1.2136363636363612,
                "tempo": 120.0
            },
            {
                "start_time": 23.834090909090907,
                "end_time": 24.029545454545453,
                "pitch": 67,
                "velocity": 64,
                "duration": 0.19545454545454533,
                "tempo": 120.0
            },
            {
                "start_time": 24.029545454545453,
                "end_time": 24.224999999999998,
                "pitch": 65,
                "velocity": 64,
                "duration": 0.19545454545454533,
                "tempo": 120.0
            },
            {
                "start_time": 24.224999999999998,
                "end_time": 24.625,
                "pitch": 65,
                "velocity": 64,
                "duration": 0.40000000000000213,
                "tempo": 120.0
            },
            {
                "start_time": 24.625,
                "end_time": 25.036363636363635,
                "pitch": 64,
                "velocity": 64,
                "duration": 0.41136363636363527,
                "tempo": 120.0
            },
            {
                "start_time": 25.036363636363635,
                "end_time": 25.422727272727272,
                "pitch": 60,
                "velocity": 64,
                "duration": 0.3863636363636367,
                "tempo": 120.0
            },
            {
                "start_time": 25.422727272727272,
                "end_time": 25.831818181818182,
                "pitch": 62,
                "velocity": 64,
                "duration": 0.40909090909091006,
                "tempo": 120.0
            },
            {
                "start_time": 25.847727272727273,
                "end_time": 27.877272727272725,
                "pitch": 60,
                "velocity": 64,
                "duration": 2.0295454545454525,
                "tempo": 120.0
            },
            {
                "start_time": 27.877272727272725,
                "end_time": 28.277272727272727,
                "pitch": 67,
                "velocity": 64,
                "duration": 0.40000000000000213,
                "tempo": 120.0
            },
            {
                "start_time": 28.277272727272727,
                "end_time": 28.677272727272726,
                "pitch": 65,
                "velocity": 64,
                "duration": 0.3999999999999986,
                "tempo": 120.0
            },
            {
                "start_time": 28.677272727272726,
                "end_time": 29.079545454545453,
                "pitch": 65,
                "velocity": 64,
                "duration": 0.40227272727272734,
                "tempo": 120.0
            },
            {
                "start_time": 29.079545454545453,
                "end_time": 30.28181818181818,
                "pitch": 63,
                "velocity": 64,
                "duration": 1.202272727272728,
                "tempo": 120.0
            },
            {
                "start_time": 30.28181818181818,
                "end_time": 31.084090909090907,
                "pitch": 58,
                "velocity": 64,
                "duration": 0.8022727272727259,
                "tempo": 120.0
            },
            {
                "start_time": 32.29545454545455,
                "end_time": 33.92727272727272,
                "pitch": 56,
                "velocity": 64,
                "duration": 1.6318181818181756,
                "tempo": 120.0
            },
            {
                "start_time": 33.92727272727272,
                "end_time": 35.529545454545456,
                "pitch": 59,
                "velocity": 64,
                "duration": 1.6022727272727337,
                "tempo": 120.0
            },
            {
                "start_time": 35.529545454545456,
                "end_time": 37.53409090909091,
                "pitch": 55,
                "velocity": 64,
                "duration": 2.0045454545454504,
                "tempo": 120.0
            },
            {
                "start_time": 37.53409090909091,
                "end_time": 37.73409090909091,
                "pitch": 75,
                "velocity": 64,
                "duration": 0.20000000000000284,
                "tempo": 120.0
            },
            {
                "start_time": 37.73409090909091,
                "end_time": 37.934090909090905,
                "pitch": 75,
                "velocity": 64,
                "duration": 0.19999999999999574,
                "tempo": 120.0
            },
            {
                "start_time": 37.934090909090905,
                "end_time": 38.11818181818182,
                "pitch": 72,
                "velocity": 64,
                "duration": 0.1840909090909122,
                "tempo": 120.0
            },
            {
                "start_time": 38.11818181818182,
                "end_time": 38.336363636363636,
                "pitch": 70,
                "velocity": 64,
                "duration": 0.2181818181818187,
                "tempo": 120.0
            },
            {
                "start_time": 38.336363636363636,
                "end_time": 38.518181818181816,
                "pitch": 68,
                "velocity": 64,
                "duration": 0.18181818181817988,
                "tempo": 120.0
            },
            {
                "start_time": 38.518181818181816,
                "end_time": 38.736363636363635,
                "pitch": 68,
                "velocity": 64,
                "duration": 0.2181818181818187,
                "tempo": 120.0
            },
            {
                "start_time": 38.736363636363635,
                "end_time": 39.949999999999996,
                "pitch": 63,
                "velocity": 64,
                "duration": 1.2136363636363612,
                "tempo": 120.0
            },
            {
                "start_time": 39.949999999999996,
                "end_time": 40.340909090909086,
                "pitch": 57,
                "velocity": 64,
                "duration": 0.39090909090909065,
                "tempo": 120.0
            },
            {
                "start_time": 40.340909090909086,
                "end_time": 41.54545454545455,
                "pitch": 60,
                "velocity": 64,
                "duration": 1.2045454545454604,
                "tempo": 120.0
            },
            {
                "start_time": 41.54545454545455,
                "end_time": 41.95454545454545,
                "pitch": 63,
                "velocity": 64,
                "duration": 0.4090909090909065,
                "tempo": 120.0
            },
            {
                "start_time": 41.95454545454545,
                "end_time": 43.14772727272727,
                "pitch": 63,
                "velocity": 64,
                "duration": 1.1931818181818201,
                "tempo": 120.0
            },
            {
                "start_time": 43.14772727272727,
                "end_time": 43.961363636363636,
                "pitch": 58,
                "velocity": 64,
                "duration": 0.8136363636363626,
                "tempo": 120.0
            },
            {
                "start_time": 45.15681818181818,
                "end_time": 46.37954545454545,
                "pitch": 60,
                "velocity": 64,
                "duration": 1.222727272727269,
                "tempo": 120.0
            },
            {
                "start_time": 46.37954545454545,
                "end_time": 46.77045454545454,
                "pitch": 60,
                "velocity": 64,
                "duration": 0.39090909090909065,
                "tempo": 120.0
            },
            {
                "start_time": 46.77045454545454,
                "end_time": 47.98181818181818,
                "pitch": 60,
                "velocity": 64,
                "duration": 1.211363636363636,
                "tempo": 120.0
            },
            {
                "start_time": 47.98181818181818,
                "end_time": 48.375,
                "pitch": 60,
                "velocity": 64,
                "duration": 0.39318181818182296,
                "tempo": 120.0
            },
            {
                "start_time": 48.375,
                "end_time": 49.98409090909091,
                "pitch": 62,
                "velocity": 64,
                "duration": 1.6090909090909093,
                "tempo": 120.0
            },
            {
                "start_time": 49.98409090909091,
                "end_time": 51.590909090909086,
                "pitch": 62,
                "velocity": 64,
                "duration": 1.606818181818177,
                "tempo": 120.0
            },
            {
                "start_time": 51.590909090909086,
                "end_time": 51.98409090909091,
                "pitch": 62,
                "velocity": 64,
                "duration": 0.39318181818182296,
                "tempo": 120.0
            },
            {
                "start_time": 51.98409090909091,
                "end_time": 52.38409090909091,
                "pitch": 55,
                "velocity": 64,
                "duration": 0.3999999999999986,
                "tempo": 120.0
            },
            {
                "start_time": 52.38409090909091,
                "end_time": 52.793181818181814,
                "pitch": 64,
                "velocity": 64,
                "duration": 0.4090909090909065,
                "tempo": 120.0
            },
            {
                "start_time": 52.793181818181814,
                "end_time": 53.18636363636363,
                "pitch": 55,
                "velocity": 64,
                "duration": 0.39318181818181586,
                "tempo": 120.0
            },
            {
                "start_time": 53.18636363636363,
                "end_time": 53.586363636363636,
                "pitch": 57,
                "velocity": 64,
                "duration": 0.4000000000000057,
                "tempo": 120.0
            },
            {
                "start_time": 53.586363636363636,
                "end_time": 53.98863636363636,
                "pitch": 62,
                "velocity": 64,
                "duration": 0.4022727272727238,
                "tempo": 120.0
            },
            {
                "start_time": 53.98863636363636,
                "end_time": 54.4,
                "pitch": 60,
                "velocity": 64,
                "duration": 0.4113636363636388,
                "tempo": 120.0
            },
            {
                "start_time": 54.4,
                "end_time": 54.793181818181814,
                "pitch": 59,
                "velocity": 64,
                "duration": 0.39318181818181586,
                "tempo": 120.0
            },
            {
                "start_time": 54.793181818181814,
                "end_time": 55.20227272727273,
                "pitch": 59,
                "velocity": 64,
                "duration": 0.4090909090909136,
                "tempo": 120.0
            },
            {
                "start_time": 55.20227272727273,
                "end_time": 55.595454545454544,
                "pitch": 55,
                "velocity": 64,
                "duration": 0.39318181818181586,
                "tempo": 120.0
            },
            {
                "start_time": 55.595454545454544,
                "end_time": 56.00454545454545,
                "pitch": 57,
                "velocity": 64,
                "duration": 0.4090909090909065,
                "tempo": 120.0
            },
            {
                "start_time": 56.00454545454545,
                "end_time": 56.13636363636363,
                "pitch": 57,
                "velocity": 64,
                "duration": 0.13181818181818272,
                "tempo": 120.0
            },
            {
                "start_time": 56.13636363636363,
                "end_time": 56.39772727272727,
                "pitch": 59,
                "velocity": 64,
                "duration": 0.26136363636364024,
                "tempo": 120.0
            },
            {
                "start_time": 56.39772727272727,
                "end_time": 57.211363636363636,
                "pitch": 64,
                "velocity": 64,
                "duration": 0.8136363636363626,
                "tempo": 120.0
            },
            {
                "start_time": 57.211363636363636,
                "end_time": 58.01363636363636,
                "pitch": 61,
                "velocity": 64,
                "duration": 0.8022727272727224,
                "tempo": 120.0
            },
            {
                "start_time": 58.01363636363636,
                "end_time": 58.40454545454545,
                "pitch": 53,
                "velocity": 64,
                "duration": 0.39090909090909065,
                "tempo": 120.0
            },
            {
                "start_time": 58.40454545454545,
                "end_time": 58.804545454545455,
                "pitch": 55,
                "velocity": 64,
                "duration": 0.4000000000000057,
                "tempo": 120.0
            },
            {
                "start_time": 58.804545454545455,
                "end_time": 59.215909090909086,
                "pitch": 57,
                "velocity": 64,
                "duration": 0.4113636363636317,
                "tempo": 120.0
            },
            {
                "start_time": 59.215909090909086,
                "end_time": 59.60909090909091,
                "pitch": 60,
                "velocity": 64,
                "duration": 0.39318181818182296,
                "tempo": 120.0
            },
            {
                "start_time": 59.60909090909091,
                "end_time": 60.42045454545454,
                "pitch": 59,
                "velocity": 64,
                "duration": 0.8113636363636303,
                "tempo": 120.0
            },
            {
                "start_time": 60.42045454545454,
                "end_time": 61.22272727272727,
                "pitch": 55,
                "velocity": 64,
                "duration": 0.8022727272727295,
                "tempo": 120.0
            },
            {
                "start_time": 61.22272727272727,
                "end_time": 62.025,
                "pitch": 52,
                "velocity": 64,
                "duration": 0.8022727272727295,
                "tempo": 120.0
            },
            {
                "start_time": 62.824999999999996,
                "end_time": 63.21818181818181,
                "pitch": 64,
                "velocity": 64,
                "duration": 0.39318181818181586,
                "tempo": 120.0
            },
            {
                "start_time": 63.21818181818181,
                "end_time": 63.61818181818182,
                "pitch": 60,
                "velocity": 64,
                "duration": 0.4000000000000057,
                "tempo": 120.0
            },
            {
                "start_time": 63.61818181818182,
                "end_time": 64.02727272727273,
                "pitch": 59,
                "velocity": 64,
                "duration": 0.4090909090909136,
                "tempo": 120.0
            },
            {
                "start_time": 64.02727272727273,
                "end_time": 64.42727272727272,
                "pitch": 50,
                "velocity": 64,
                "duration": 0.3999999999999915,
                "tempo": 120.0
            },
            {
                "start_time": 64.42727272727272,
                "end_time": 64.83181818181818,
                "pitch": 62,
                "velocity": 64,
                "duration": 0.4045454545454561,
                "tempo": 120.0
            },
            {
                "start_time": 64.83181818181818,
                "end_time": 65.22272727272727,
                "pitch": 55,
                "velocity": 64,
                "duration": 0.39090909090909065,
                "tempo": 120.0
            },
            {
                "start_time": 65.22272727272727,
                "end_time": 65.6340909090909,
                "pitch": 64,
                "velocity": 64,
                "duration": 0.4113636363636317,
                "tempo": 120.0
            },
            {
                "start_time": 65.6340909090909,
                "end_time": 66.02499999999999,
                "pitch": 55,
                "velocity": 64,
                "duration": 0.39090909090909065,
                "tempo": 120.0
            },
            {
                "start_time": 66.02499999999999,
                "end_time": 66.43636363636364,
                "pitch": 57,
                "velocity": 64,
                "duration": 0.4113636363636459,
                "tempo": 120.0
            },
            {
                "start_time": 66.43636363636364,
                "end_time": 66.82954545454545,
                "pitch": 60,
                "velocity": 64,
                "duration": 0.39318181818181586,
                "tempo": 120.0
            },
            {
                "start_time": 66.82954545454545,
                "end_time": 67.23863636363636,
                "pitch": 63,
                "velocity": 64,
                "duration": 0.4090909090909065,
                "tempo": 120.0
            },
            {
                "start_time": 67.23863636363636,
                "end_time": 67.63181818181818,
                "pitch": 60,
                "velocity": 64,
                "duration": 0.39318181818181586,
                "tempo": 120.0
            },
            {
                "start_time": 67.63181818181818,
                "end_time": 68.04090909090908,
                "pitch": 64,
                "velocity": 64,
                "duration": 0.4090909090909065,
                "tempo": 120.0
            },
            {
                "start_time": 68.04090909090908,
                "end_time": 68.43409090909091,
                "pitch": 57,
                "velocity": 64,
                "duration": 0.39318181818183007,
                "tempo": 120.0
            },
            {
                "start_time": 68.43409090909091,
                "end_time": 68.84545454545454,
                "pitch": 60,
                "velocity": 64,
                "duration": 0.4113636363636317,
                "tempo": 120.0
            },
            {
                "start_time": 68.84545454545454,
                "end_time": 69.64772727272727,
                "pitch": 64,
                "velocity": 64,
                "duration": 0.8022727272727224,
                "tempo": 120.0
            },
            {
                "start_time": 69.64772727272727,
                "end_time": 70.03863636363636,
                "pitch": 62,
                "velocity": 64,
                "duration": 0.39090909090909065,
                "tempo": 120.0
            },
            {
                "start_time": 70.03863636363636,
                "end_time": 70.22727272727272,
                "pitch": 62,
                "velocity": 64,
                "duration": 0.1886363636363626,
                "tempo": 120.0
            },
            {
                "start_time": 70.22727272727272,
                "end_time": 70.45,
                "pitch": 64,
                "velocity": 64,
                "duration": 0.22272727272728332,
                "tempo": 120.0
            },
            {
                "start_time": 70.45,
                "end_time": 70.84318181818182,
                "pitch": 59,
                "velocity": 64,
                "duration": 0.39318181818181586,
                "tempo": 120.0
            },
            {
                "start_time": 70.84318181818182,
                "end_time": 71.24545454545454,
                "pitch": 60,
                "velocity": 64,
                "duration": 0.4022727272727167,
                "tempo": 120.0
            },
            {
                "start_time": 71.24545454545454,
                "end_time": 71.64545454545454,
                "pitch": 57,
                "velocity": 64,
                "duration": 0.4000000000000057,
                "tempo": 120.0
            },
            {
                "start_time": 71.64545454545454,
                "end_time": 72.4590909090909,
                "pitch": 60,
                "velocity": 64,
                "duration": 0.8136363636363626,
                "tempo": 120.0
            },
            {
                "start_time": 72.4590909090909,
                "end_time": 73.66363636363636,
                "pitch": 59,
                "velocity": 64,
                "duration": 1.2045454545454533,
                "tempo": 120.0
            },
            {
                "start_time": 73.66363636363636,
                "end_time": 74.05681818181817,
                "pitch": 59,
                "velocity": 64,
                "duration": 0.39318181818181586,
                "tempo": 120.0
            },
            {
                "start_time": 74.05681818181817,
                "end_time": 75.27045454545454,
                "pitch": 52,
                "velocity": 64,
                "duration": 1.2136363636363683,
                "tempo": 120.0
            },
            {
                "start_time": 75.27045454545454,
                "end_time": 75.47045454545454,
                "pitch": 67,
                "velocity": 64,
                "duration": 0.20000000000000284,
                "tempo": 120.0
            },
            {
                "start_time": 75.47045454545454,
                "end_time": 75.67272727272727,
                "pitch": 65,
                "velocity": 64,
                "duration": 0.20227272727272805,
                "tempo": 120.0
            },
            {
                "start_time": 75.67272727272727,
                "end_time": 76.07272727272726,
                "pitch": 65,
                "velocity": 64,
                "duration": 0.3999999999999915,
                "tempo": 120.0
            },
            {
                "start_time": 76.07272727272726,
                "end_time": 76.475,
                "pitch": 64,
                "velocity": 64,
                "duration": 0.4022727272727309,
                "tempo": 120.0
            },
            {
                "start_time": 76.475,
                "end_time": 76.87727272727273,
                "pitch": 60,
                "velocity": 64,
                "duration": 0.4022727272727309,
                "tempo": 120.0
            },
            {
                "start_time": 76.87727272727273,
                "end_time": 77.27727272727272,
                "pitch": 62,
                "velocity": 64,
                "duration": 0.3999999999999915,
                "tempo": 120.0
            },
            {
                "start_time": 77.27727272727272,
                "end_time": 77.67045454545455,
                "pitch": 60,
                "velocity": 64,
                "duration": 0.39318181818183007,
                "tempo": 120.0
            },
            {
                "start_time": 77.67045454545455,
                "end_time": 78.07272727272726,
                "pitch": 57,
                "velocity": 64,
                "duration": 0.4022727272727167,
                "tempo": 120.0
            },
            {
                "start_time": 78.07272727272726,
                "end_time": 78.88636363636363,
                "pitch": 60,
                "velocity": 64,
                "duration": 0.8136363636363626,
                "tempo": 120.0
            },
            {
                "start_time": 78.88636363636363,
                "end_time": 80.0909090909091,
                "pitch": 59,
                "velocity": 64,
                "duration": 1.2045454545454675,
                "tempo": 120.0
            },
            {
                "start_time": 80.0909090909091,
                "end_time": 80.49318181818181,
                "pitch": 59,
                "velocity": 64,
                "duration": 0.4022727272727167,
                "tempo": 120.0
            },
            {
                "start_time": 80.49318181818181,
                "end_time": 82.09772727272727,
                "pitch": 60,
                "velocity": 64,
                "duration": 1.604545454545459,
                "tempo": 120.0
            }
        ],
        "Electric Guitar (clean)": [
            {
                "start_time": 0.0,
                "end_time": 0.01818181818181818,
                "pitch": 40,
                "velocity": 4,
                "duration": 0.01818181818181818,
                "tempo": 120.0
            },
            {
                "start_time": 0.01818181818181818,
                "end_time": 0.4477272727272727,
                "pitch": 32,
                "velocity": 4,
                "duration": 0.4295454545454545,
                "tempo": 120.0
            },
            {
                "start_time": 0.4477272727272727,
                "end_time": 0.8704545454545454,
                "pitch": 15,
                "velocity": 4,
                "duration": 0.4227272727272727,
                "tempo": 120.0
            },
            {
                "start_time": 0.8704545454545454,
                "end_time": 1.2704545454545455,
                "pitch": 24,
                "velocity": 4,
                "duration": 0.40000000000000013,
                "tempo": 120.0
            },
            {
                "start_time": 1.2704545454545455,
                "end_time": 1.8318181818181818,
                "pitch": 32,
                "velocity": 4,
                "duration": 0.5613636363636363,
                "tempo": 120.0
            },
            {
                "start_time": 1.8318181818181818,
                "end_time": 2.068181818181818,
                "pitch": 87,
                "velocity": 4,
                "duration": 0.2363636363636361,
                "tempo": 120.0
            },
            {
                "start_time": 2.068181818181818,
                "end_time": 2.477272727272727,
                "pitch": 71,
                "velocity": 4,
                "duration": 0.40909090909090917,
                "tempo": 120.0
            },
            {
                "start_time": 2.477272727272727,
                "end_time": 2.877272727272727,
                "pitch": 79,
                "velocity": 4,
                "duration": 0.3999999999999999,
                "tempo": 120.0
            },
            {
                "start_time": 2.877272727272727,
                "end_time": 3.6704545454545454,
                "pitch": 89,
                "velocity": 4,
                "duration": 0.7931818181818184,
                "tempo": 120.0
            },
            {
                "start_time": 3.6704545454545454,
                "end_time": 4.079545454545454,
                "pitch": 71,
                "velocity": 4,
                "duration": 0.4090909090909087,
                "tempo": 120.0
            },
            {
                "start_time": 4.079545454545454,
                "end_time": 4.4795454545454545,
                "pitch": 79,
                "velocity": 4,
                "duration": 0.40000000000000036,
                "tempo": 120.0
            },
            {
                "start_time": 4.4795454545454545,
                "end_time": 5.2727272727272725,
                "pitch": 89,
                "velocity": 4,
                "duration": 0.793181818181818,
                "tempo": 120.0
            },
            {
                "start_time": 5.2727272727272725,
                "end_time": 5.681818181818182,
                "pitch": 71,
                "velocity": 4,
                "duration": 0.40909090909090917,
                "tempo": 120.0
            },
            {
                "start_time": 5.681818181818182,
                "end_time": 6.074999999999999,
                "pitch": 79,
                "velocity": 4,
                "duration": 0.39318181818181763,
                "tempo": 120.0
            },
            {
                "start_time": 6.074999999999999,
                "end_time": 6.393181818181818,
                "pitch": 89,
                "velocity": 4,
                "duration": 0.31818181818181834,
                "tempo": 120.0
            },
            {
                "start_time": 6.393181818181818,
                "end_time": 6.8954545454545455,
                "pitch": 101,
                "velocity": 4,
                "duration": 0.5022727272727279,
                "tempo": 120.0
            },
            {
                "start_time": 6.8954545454545455,
                "end_time": 7.324999999999999,
                "pitch": 85,
                "velocity": 4,
                "duration": 0.4295454545454538,
                "tempo": 120.0
            },
            {
                "start_time": 7.324999999999999,
                "end_time": 7.736363636363636,
                "pitch": 93,
                "velocity": 4,
                "duration": 0.41136363636363704,
                "tempo": 120.0
            },
            {
                "start_time": 7.736363636363636,
                "end_time": 7.9022727272727264,
                "pitch": 102,
                "velocity": 4,
                "duration": 0.16590909090909012,
                "tempo": 120.0
            },
            {
                "start_time": 7.9022727272727264,
                "end_time": 8.522727272727272,
                "pitch": 68,
                "velocity": 4,
                "duration": 0.6204545454545451,
                "tempo": 120.0
            },
            {
                "start_time": 8.522727272727272,
                "end_time": 8.927272727272728,
                "pitch": 52,
                "velocity": 4,
                "duration": 0.4045454545454561,
                "tempo": 120.0
            },
            {
                "start_time": 8.927272727272728,
                "end_time": 9.329545454545453,
                "pitch": 60,
                "velocity": 4,
                "duration": 0.40227272727272556,
                "tempo": 120.0
            },
            {
                "start_time": 9.329545454545453,
                "end_time": 10.134090909090908,
                "pitch": 68,
                "velocity": 4,
                "duration": 0.8045454545454547,
                "tempo": 120.0
            },
            {
                "start_time": 10.134090909090908,
                "end_time": 10.368181818181817,
                "pitch": 52,
                "velocity": 4,
                "duration": 0.23409090909090935,
                "tempo": 120.0
            },
            {
                "start_time": 10.368181818181817,
                "end_time": 10.534090909090908,
                "pitch": 46,
                "velocity": 4,
                "duration": 0.165909090909091,
                "tempo": 120.0
            },
            {
                "start_time": 10.534090909090908,
                "end_time": 10.936363636363636,
                "pitch": 54,
                "velocity": 4,
                "duration": 0.40227272727272734,
                "tempo": 120.0
            },
            {
                "start_time": 10.936363636363636,
                "end_time": 11.743181818181817,
                "pitch": 62,
                "velocity": 4,
                "duration": 0.8068181818181817,
                "tempo": 120.0
            },
            {
                "start_time": 11.743181818181817,
                "end_time": 12.145454545454545,
                "pitch": 46,
                "velocity": 4,
                "duration": 0.40227272727272734,
                "tempo": 120.0
            },
            {
                "start_time": 12.145454545454545,
                "end_time": 12.545454545454545,
                "pitch": 54,
                "velocity": 4,
                "duration": 0.40000000000000036,
                "tempo": 120.0
            },
            {
                "start_time": 12.545454545454545,
                "end_time": 12.729545454545454,
                "pitch": 71,
                "velocity": 4,
                "duration": 0.18409090909090864,
                "tempo": 120.0
            },
            {
                "start_time": 12.729545454545454,
                "end_time": 12.847727272727273,
                "pitch": 53,
                "velocity": 4,
                "duration": 0.11818181818181905,
                "tempo": 120.0
            },
            {
                "start_time": 12.847727272727273,
                "end_time": 12.931818181818182,
                "pitch": 20,
                "velocity": 4,
                "duration": 0.084090909090909,
                "tempo": 120.0
            },
            {
                "start_time": 12.931818181818182,
                "end_time": 13.35,
                "pitch": 30,
                "velocity": 4,
                "duration": 0.418181818181818,
                "tempo": 120.0
            },
            {
                "start_time": 13.35,
                "end_time": 13.759090909090908,
                "pitch": 13,
                "velocity": 4,
                "duration": 0.4090909090909083,
                "tempo": 120.0
            },
            {
                "start_time": 13.759090909090908,
                "end_time": 14.163636363636362,
                "pitch": 21,
                "velocity": 4,
                "duration": 0.4045454545454543,
                "tempo": 120.0
            },
            {
                "start_time": 14.163636363636362,
                "end_time": 14.327272727272726,
                "pitch": 30,
                "velocity": 4,
                "duration": 0.16363636363636402,
                "tempo": 120.0
            },
            {
                "start_time": 14.327272727272726,
                "end_time": 14.893181818181818,
                "pitch": 63,
                "velocity": 4,
                "duration": 0.5659090909090914,
                "tempo": 120.0
            },
            {
                "start_time": 14.893181818181818,
                "end_time": 14.959090909090909,
                "pitch": 57,
                "velocity": 4,
                "duration": 0.06590909090909136,
                "tempo": 120.0
            },
            {
                "start_time": 14.959090909090909,
                "end_time": 15.093181818181817,
                "pitch": 41,
                "velocity": 4,
                "duration": 0.13409090909090793,
                "tempo": 120.0
            },
            {
                "start_time": 15.093181818181817,
                "end_time": 15.361363636363636,
                "pitch": 61,
                "velocity": 4,
                "duration": 0.2681818181818194,
                "tempo": 120.0
            },
            {
                "start_time": 15.361363636363636,
                "end_time": 15.763636363636364,
                "pitch": 69,
                "velocity": 4,
                "duration": 0.40227272727272734,
                "tempo": 120.0
            },
            {
                "start_time": 15.763636363636364,
                "end_time": 16.570454545454545,
                "pitch": 12,
                "velocity": 4,
                "duration": 0.8068181818181817,
                "tempo": 120.0
            },
            {
                "start_time": 16.570454545454545,
                "end_time": 16.970454545454544,
                "pitch": 61,
                "velocity": 4,
                "duration": 0.3999999999999986,
                "tempo": 120.0
            },
            {
                "start_time": 16.970454545454544,
                "end_time": 17.370454545454546,
                "pitch": 69,
                "velocity": 4,
                "duration": 0.40000000000000213,
                "tempo": 120.0
            },
            {
                "start_time": 17.370454545454546,
                "end_time": 18.172727272727272,
                "pitch": 12,
                "velocity": 4,
                "duration": 0.8022727272727259,
                "tempo": 120.0
            },
            {
                "start_time": 18.172727272727272,
                "end_time": 18.575,
                "pitch": 61,
                "velocity": 4,
                "duration": 0.40227272727272734,
                "tempo": 120.0
            },
            {
                "start_time": 18.575,
                "end_time": 18.974999999999998,
                "pitch": 69,
                "velocity": 4,
                "duration": 0.3999999999999986,
                "tempo": 120.0
            },
            {
                "start_time": 18.974999999999998,
                "end_time": 19.5,
                "pitch": 12,
                "velocity": 4,
                "duration": 0.5250000000000021,
                "tempo": 120.0
            },
            {
                "start_time": 19.5,
                "end_time": 19.84090909090909,
                "pitch": 30,
                "velocity": 4,
                "duration": 0.34090909090908994,
                "tempo": 120.0
            },
            {
                "start_time": 19.84090909090909,
                "end_time": 20.25,
                "pitch": 14,
                "velocity": 4,
                "duration": 0.40909090909091006,
                "tempo": 120.0
            },
            {
                "start_time": 20.25,
                "end_time": 20.661363636363635,
                "pitch": 22,
                "velocity": 4,
                "duration": 0.41136363636363527,
                "tempo": 120.0
            },
            {
                "start_time": 20.661363636363635,
                "end_time": 21.46590909090909,
                "pitch": 30,
                "velocity": 4,
                "duration": 0.8045454545454547,
                "tempo": 120.0
            },
            {
                "start_time": 21.46590909090909,
                "end_time": 21.85909090909091,
                "pitch": 14,
                "velocity": 4,
                "duration": 0.3931818181818194,
                "tempo": 120.0
            },
            {
                "start_time": 21.85909090909091,
                "end_time": 22.261363636363637,
                "pitch": 22,
                "velocity": 4,
                "duration": 0.40227272727272734,
                "tempo": 120.0
            },
            {
                "start_time": 22.261363636363637,
                "end_time": 23.05681818181818,
                "pitch": 30,
                "velocity": 4,
                "duration": 0.7954545454545432,
                "tempo": 120.0
            },
            {
                "start_time": 23.05681818181818,
                "end_time": 23.46818181818182,
                "pitch": 14,
                "velocity": 4,
                "duration": 0.4113636363636388,
                "tempo": 120.0
            },
            {
                "start_time": 23.46818181818182,
                "end_time": 23.86590909090909,
                "pitch": 22,
                "velocity": 4,
                "duration": 0.3977272727272698,
                "tempo": 120.0
            },
            {
                "start_time": 23.86590909090909,
                "end_time": 24.095454545454544,
                "pitch": 30,
                "velocity": 4,
                "duration": 0.22954545454545539,
                "tempo": 120.0
            },
            {
                "start_time": 24.095454545454544,
                "end_time": 24.659090909090907,
                "pitch": 45,
                "velocity": 4,
                "duration": 0.5636363636363626,
                "tempo": 120.0
            },
            {
                "start_time": 24.659090909090907,
                "end_time": 25.002272727272725,
                "pitch": 28,
                "velocity": 4,
                "duration": 0.3431818181818187,
                "tempo": 120.0
            },
            {
                "start_time": 25.002272727272725,
                "end_time": 25.070454545454545,
                "pitch": 43,
                "velocity": 4,
                "duration": 0.06818181818182012,
                "tempo": 120.0
            },
            {
                "start_time": 25.070454545454545,
                "end_time": 25.138636363636362,
                "pitch": 53,
                "velocity": 4,
                "duration": 0.06818181818181657,
                "tempo": 120.0
            },
            {
                "start_time": 25.138636363636362,
                "end_time": 25.456818181818182,
                "pitch": 84,
                "velocity": 4,
                "duration": 0.3181818181818201,
                "tempo": 120.0
            },
            {
                "start_time": 25.456818181818182,
                "end_time": 25.668181818181818,
                "pitch": 101,
                "velocity": 4,
                "duration": 0.21136363636363598,
                "tempo": 120.0
            },
            {
                "start_time": 25.668181818181818,
                "end_time": 25.799999999999997,
                "pitch": 83,
                "velocity": 4,
                "duration": 0.13181818181817917,
                "tempo": 120.0
            },
            {
                "start_time": 25.799999999999997,
                "end_time": 25.86590909090909,
                "pitch": 37,
                "velocity": 4,
                "duration": 0.06590909090909136,
                "tempo": 120.0
            },
            {
                "start_time": 25.86590909090909,
                "end_time": 25.972727272727273,
                "pitch": 45,
                "velocity": 4,
                "duration": 0.10681818181818414,
                "tempo": 120.0
            },
            {
                "start_time": 25.972727272727273,
                "end_time": 28.277272727272727,
                "pitch": 79,
                "velocity": 4,
                "duration": 2.3045454545454547,
                "tempo": 120.0
            },
            {
                "start_time": 28.277272727272727,
                "end_time": 28.709090909090907,
                "pitch": 71,
                "velocity": 4,
                "duration": 0.4318181818181799,
                "tempo": 120.0
            },
            {
                "start_time": 28.709090909090907,
                "end_time": 29.111363636363635,
                "pitch": 81,
                "velocity": 4,
                "duration": 0.40227272727272734,
                "tempo": 120.0
            },
            {
                "start_time": 29.111363636363635,
                "end_time": 29.888636363636362,
                "pitch": 79,
                "velocity": 4,
                "duration": 0.7772727272727273,
                "tempo": 120.0
            },
            {
                "start_time": 29.888636363636362,
                "end_time": 30.315909090909088,
                "pitch": 71,
                "velocity": 4,
                "duration": 0.4272727272727259,
                "tempo": 120.0
            },
            {
                "start_time": 30.315909090909088,
                "end_time": 30.38181818181818,
                "pitch": 79,
                "velocity": 4,
                "duration": 0.06590909090909136,
                "tempo": 120.0
            },
            {
                "start_time": 30.38181818181818,
                "end_time": 31.084090909090907,
                "pitch": 38,
                "velocity": 4,
                "duration": 0.702272727272728,
                "tempo": 120.0
            },
            {
                "start_time": 31.084090909090907,
                "end_time": 31.886363636363633,
                "pitch": 30,
                "velocity": 4,
                "duration": 0.8022727272727259,
                "tempo": 120.0
            },
            {
                "start_time": 31.886363636363633,
                "end_time": 32.29545454545455,
                "pitch": 32,
                "velocity": 4,
                "duration": 0.4090909090909136,
                "tempo": 120.0
            },
            {
                "start_time": 32.29545454545455,
                "end_time": 32.76136363636363,
                "pitch": 39,
                "velocity": 4,
                "duration": 0.4659090909090864,
                "tempo": 120.0
            },
            {
                "start_time": 32.76136363636363,
                "end_time": 32.793181818181814,
                "pitch": 23,
                "velocity": 4,
                "duration": 0.0318181818181813,
                "tempo": 120.0
            },
            {
                "start_time": 32.793181818181814,
                "end_time": 33.16136363636363,
                "pitch": 14,
                "velocity": 4,
                "duration": 0.3681818181818173,
                "tempo": 120.0
            },
            {
                "start_time": 33.16136363636363,
                "end_time": 33.56136363636364,
                "pitch": 22,
                "velocity": 4,
                "duration": 0.4000000000000057,
                "tempo": 120.0
            },
            {
                "start_time": 33.56136363636364,
                "end_time": 34.36363636363636,
                "pitch": 30,
                "velocity": 4,
                "duration": 0.8022727272727224,
                "tempo": 120.0
            },
            {
                "start_time": 34.36363636363636,
                "end_time": 34.763636363636365,
                "pitch": 14,
                "velocity": 4,
                "duration": 0.4000000000000057,
                "tempo": 120.0
            },
            {
                "start_time": 34.763636363636365,
                "end_time": 35.163636363636364,
                "pitch": 22,
                "velocity": 4,
                "duration": 0.3999999999999986,
                "tempo": 120.0
            },
            {
                "start_time": 35.163636363636364,
                "end_time": 35.96363636363636,
                "pitch": 30,
                "velocity": 4,
                "duration": 0.7999999999999972,
                "tempo": 120.0
            },
            {
                "start_time": 35.96363636363636,
                "end_time": 36.36590909090909,
                "pitch": 14,
                "velocity": 4,
                "duration": 0.4022727272727309,
                "tempo": 120.0
            },
            {
                "start_time": 36.36590909090909,
                "end_time": 36.76590909090909,
                "pitch": 22,
                "velocity": 4,
                "duration": 0.3999999999999986,
                "tempo": 120.0
            },
            {
                "start_time": 36.76590909090909,
                "end_time": 37.199999999999996,
                "pitch": 30,
                "velocity": 4,
                "duration": 0.4340909090909051,
                "tempo": 120.0
            },
            {
                "start_time": 37.199999999999996,
                "end_time": 37.56590909090909,
                "pitch": 45,
                "velocity": 4,
                "duration": 0.36590909090909207,
                "tempo": 120.0
            },
            {
                "start_time": 37.56590909090909,
                "end_time": 37.965909090909086,
                "pitch": 28,
                "velocity": 4,
                "duration": 0.3999999999999986,
                "tempo": 120.0
            },
            {
                "start_time": 37.965909090909086,
                "end_time": 38.1,
                "pitch": 36,
                "velocity": 4,
                "duration": 0.13409090909091503,
                "tempo": 120.0
            },
            {
                "start_time": 38.1,
                "end_time": 38.35227272727273,
                "pitch": 50,
                "velocity": 4,
                "duration": 0.2522727272727252,
                "tempo": 120.0
            },
            {
                "start_time": 38.35227272727273,
                "end_time": 38.55227272727272,
                "pitch": 67,
                "velocity": 4,
                "duration": 0.19999999999999574,
                "tempo": 120.0
            },
            {
                "start_time": 38.55227272727272,
                "end_time": 38.77045454545454,
                "pitch": 49,
                "velocity": 4,
                "duration": 0.2181818181818187,
                "tempo": 120.0
            },
            {
                "start_time": 38.77045454545454,
                "end_time": 40.375,
                "pitch": 57,
                "velocity": 4,
                "duration": 1.604545454545459,
                "tempo": 120.0
            },
            {
                "start_time": 40.375,
                "end_time": 41.16136363636363,
                "pitch": 75,
                "velocity": 4,
                "duration": 0.7863636363636317,
                "tempo": 120.0
            },
            {
                "start_time": 41.16136363636363,
                "end_time": 41.57727272727273,
                "pitch": 67,
                "velocity": 4,
                "duration": 0.41590909090909634,
                "tempo": 120.0
            },
            {
                "start_time": 41.57727272727273,
                "end_time": 41.98863636363636,
                "pitch": 13,
                "velocity": 4,
                "duration": 0.4113636363636317,
                "tempo": 120.0
            },
            {
                "start_time": 41.98863636363636,
                "end_time": 42.77272727272727,
                "pitch": 75,
                "velocity": 4,
                "duration": 0.7840909090909136,
                "tempo": 120.0
            },
            {
                "start_time": 42.77272727272727,
                "end_time": 43.18181818181818,
                "pitch": 67,
                "velocity": 4,
                "duration": 0.4090909090909065,
                "tempo": 120.0
            },
            {
                "start_time": 43.18181818181818,
                "end_time": 43.97727272727273,
                "pitch": 77,
                "velocity": 4,
                "duration": 0.7954545454545467,
                "tempo": 120.0
            },
            {
                "start_time": 43.97727272727273,
                "end_time": 44.77954545454545,
                "pitch": 67,
                "velocity": 4,
                "duration": 0.8022727272727224,
                "tempo": 120.0
            },
            {
                "start_time": 44.77954545454545,
                "end_time": 44.79545454545455,
                "pitch": 69,
                "velocity": 4,
                "duration": 0.015909090909097756,
                "tempo": 120.0
            },
            {
                "start_time": 44.79545454545455,
                "end_time": 45.17272727272727,
                "pitch": 49,
                "velocity": 4,
                "duration": 0.3772727272727252,
                "tempo": 120.0
            },
            {
                "start_time": 45.17272727272727,
                "end_time": 45.590909090909086,
                "pitch": 56,
                "velocity": 4,
                "duration": 0.41818181818181444,
                "tempo": 120.0
            },
            {
                "start_time": 45.590909090909086,
                "end_time": 46.01136363636363,
                "pitch": 40,
                "velocity": 4,
                "duration": 0.42045454545454675,
                "tempo": 120.0
            },
            {
                "start_time": 46.01136363636363,
                "end_time": 46.41136363636363,
                "pitch": 48,
                "velocity": 4,
                "duration": 0.3999999999999986,
                "tempo": 120.0
            },
            {
                "start_time": 46.41136363636363,
                "end_time": 47.02045454545454,
                "pitch": 56,
                "velocity": 4,
                "duration": 0.6090909090909093,
                "tempo": 120.0
            },
            {
                "start_time": 47.02045454545454,
                "end_time": 47.20454545454545,
                "pitch": 23,
                "velocity": 4,
                "duration": 0.1840909090909122,
                "tempo": 120.0
            },
            {
                "start_time": 47.20454545454545,
                "end_time": 47.61590909090909,
                "pitch": 71,
                "velocity": 4,
                "duration": 0.4113636363636388,
                "tempo": 120.0
            },
            {
                "start_time": 47.61590909090909,
                "end_time": 48.01363636363636,
                "pitch": 15,
                "velocity": 4,
                "duration": 0.39772727272726627,
                "tempo": 120.0
            },
            {
                "start_time": 48.01363636363636,
                "end_time": 48.809090909090905,
                "pitch": 23,
                "velocity": 4,
                "duration": 0.7954545454545467,
                "tempo": 120.0
            },
            {
                "start_time": 48.809090909090905,
                "end_time": 49.21818181818182,
                "pitch": 71,
                "velocity": 4,
                "duration": 0.4090909090909136,
                "tempo": 120.0
            },
            {
                "start_time": 49.21818181818182,
                "end_time": 49.61818181818182,
                "pitch": 15,
                "velocity": 4,
                "duration": 0.3999999999999986,
                "tempo": 120.0
            },
            {
                "start_time": 49.61818181818182,
                "end_time": 50.41136363636363,
                "pitch": 23,
                "velocity": 4,
                "duration": 0.7931818181818144,
                "tempo": 120.0
            },
            {
                "start_time": 50.41136363636363,
                "end_time": 50.82272727272727,
                "pitch": 71,
                "velocity": 4,
                "duration": 0.4113636363636388,
                "tempo": 120.0
            },
            {
                "start_time": 50.82272727272727,
                "end_time": 51.224999999999994,
                "pitch": 15,
                "velocity": 4,
                "duration": 0.4022727272727238,
                "tempo": 120.0
            },
            {
                "start_time": 51.224999999999994,
                "end_time": 51.425,
                "pitch": 32,
                "velocity": 4,
                "duration": 0.20000000000000284,
                "tempo": 120.0
            },
            {
                "start_time": 51.425,
                "end_time": 51.559090909090905,
                "pitch": 14,
                "velocity": 4,
                "duration": 0.13409090909090793,
                "tempo": 120.0
            },
            {
                "start_time": 51.559090909090905,
                "end_time": 51.625,
                "pitch": 71,
                "velocity": 4,
                "duration": 0.06590909090909491,
                "tempo": 120.0
            },
            {
                "start_time": 51.625,
                "end_time": 52.01590909090909,
                "pitch": 80,
                "velocity": 4,
                "duration": 0.39090909090909065,
                "tempo": 120.0
            },
            {
                "start_time": 52.01590909090909,
                "end_time": 52.41590909090909,
                "pitch": 64,
                "velocity": 4,
                "duration": 0.3999999999999986,
                "tempo": 120.0
            },
            {
                "start_time": 52.41590909090909,
                "end_time": 52.82727272727273,
                "pitch": 72,
                "velocity": 4,
                "duration": 0.4113636363636388,
                "tempo": 120.0
            },
            {
                "start_time": 52.82727272727273,
                "end_time": 53.62045454545454,
                "pitch": 80,
                "velocity": 4,
                "duration": 0.7931818181818144,
                "tempo": 120.0
            },
            {
                "start_time": 53.62045454545454,
                "end_time": 54.02272727272727,
                "pitch": 64,
                "velocity": 4,
                "duration": 0.4022727272727309,
                "tempo": 120.0
            },
            {
                "start_time": 54.02272727272727,
                "end_time": 54.43181818181818,
                "pitch": 72,
                "velocity": 4,
                "duration": 0.4090909090909065,
                "tempo": 120.0
            },
            {
                "start_time": 54.43181818181818,
                "end_time": 55.236363636363635,
                "pitch": 80,
                "velocity": 4,
                "duration": 0.8045454545454547,
                "tempo": 120.0
            },
            {
                "start_time": 55.236363636363635,
                "end_time": 55.627272727272725,
                "pitch": 64,
                "velocity": 4,
                "duration": 0.39090909090909065,
                "tempo": 120.0
            },
            {
                "start_time": 55.627272727272725,
                "end_time": 56.038636363636364,
                "pitch": 72,
                "velocity": 4,
                "duration": 0.4113636363636388,
                "tempo": 120.0
            },
            {
                "start_time": 56.038636363636364,
                "end_time": 56.152272727272724,
                "pitch": 80,
                "velocity": 4,
                "duration": 0.11363636363635976,
                "tempo": 120.0
            },
            {
                "start_time": 56.152272727272724,
                "end_time": 56.840909090909086,
                "pitch": 39,
                "velocity": 4,
                "duration": 0.6886363636363626,
                "tempo": 120.0
            },
            {
                "start_time": 56.840909090909086,
                "end_time": 57.24318181818182,
                "pitch": 23,
                "velocity": 4,
                "duration": 0.4022727272727309,
                "tempo": 120.0
            },
            {
                "start_time": 57.24318181818182,
                "end_time": 57.63636363636363,
                "pitch": 31,
                "velocity": 4,
                "duration": 0.39318181818181586,
                "tempo": 120.0
            },
            {
                "start_time": 57.63636363636363,
                "end_time": 58.43863636363636,
                "pitch": 39,
                "velocity": 4,
                "duration": 0.8022727272727295,
                "tempo": 120.0
            },
            {
                "start_time": 58.43863636363636,
                "end_time": 58.52272727272727,
                "pitch": 23,
                "velocity": 4,
                "duration": 0.08409090909091077,
                "tempo": 120.0
            },
            {
                "start_time": 58.52272727272727,
                "end_time": 58.83863636363636,
                "pitch": 54,
                "velocity": 4,
                "duration": 0.3159090909090878,
                "tempo": 120.0
            },
            {
                "start_time": 58.83863636363636,
                "end_time": 59.25,
                "pitch": 61,
                "velocity": 4,
                "duration": 0.4113636363636388,
                "tempo": 120.0
            },
            {
                "start_time": 59.25,
                "end_time": 60.05227272727272,
                "pitch": 70,
                "velocity": 4,
                "duration": 0.8022727272727224,
                "tempo": 120.0
            },
            {
                "start_time": 60.05227272727272,
                "end_time": 60.45227272727272,
                "pitch": 54,
                "velocity": 4,
                "duration": 0.3999999999999986,
                "tempo": 120.0
            },
            {
                "start_time": 60.45227272727272,
                "end_time": 60.85227272727273,
                "pitch": 61,
                "velocity": 4,
                "duration": 0.4000000000000057,
                "tempo": 120.0
            },
            {
                "start_time": 60.85227272727273,
                "end_time": 61.647727272727266,
                "pitch": 70,
                "velocity": 4,
                "duration": 0.7954545454545396,
                "tempo": 120.0
            },
            {
                "start_time": 61.647727272727266,
                "end_time": 62.059090909090905,
                "pitch": 54,
                "velocity": 4,
                "duration": 0.4113636363636388,
                "tempo": 120.0
            },
            {
                "start_time": 62.059090909090905,
                "end_time": 62.224999999999994,
                "pitch": 61,
                "velocity": 4,
                "duration": 0.16590909090908923,
                "tempo": 120.0
            },
            {
                "start_time": 62.224999999999994,
                "end_time": 62.309090909090905,
                "pitch": 49,
                "velocity": 4,
                "duration": 0.08409090909091077,
                "tempo": 120.0
            },
            {
                "start_time": 62.309090909090905,
                "end_time": 62.459090909090904,
                "pitch": 37,
                "velocity": 4,
                "duration": 0.14999999999999858,
                "tempo": 120.0
            },
            {
                "start_time": 62.459090909090904,
                "end_time": 63.25,
                "pitch": 45,
                "velocity": 4,
                "duration": 0.7909090909090963,
                "tempo": 120.0
            },
            {
                "start_time": 63.25,
                "end_time": 63.65,
                "pitch": 29,
                "velocity": 4,
                "duration": 0.3999999999999986,
                "tempo": 120.0
            },
            {
                "start_time": 63.65,
                "end_time": 64.06136363636364,
                "pitch": 37,
                "velocity": 4,
                "duration": 0.4113636363636388,
                "tempo": 120.0
            },
            {
                "start_time": 64.06136363636364,
                "end_time": 64.26136363636364,
                "pitch": 54,
                "velocity": 4,
                "duration": 0.20000000000000284,
                "tempo": 120.0
            },
            {
                "start_time": 64.26136363636364,
                "end_time": 64.46136363636363,
                "pitch": 36,
                "velocity": 4,
                "duration": 0.19999999999998863,
                "tempo": 120.0
            },
            {
                "start_time": 64.46136363636363,
                "end_time": 64.86363636363636,
                "pitch": 45,
                "velocity": 4,
                "duration": 0.4022727272727309,
                "tempo": 120.0
            },
            {
                "start_time": 64.86363636363636,
                "end_time": 65.25681818181818,
                "pitch": 29,
                "velocity": 4,
                "duration": 0.39318181818181586,
                "tempo": 120.0
            },
            {
                "start_time": 65.25681818181818,
                "end_time": 65.66590909090908,
                "pitch": 37,
                "velocity": 4,
                "duration": 0.4090909090909065,
                "tempo": 120.0
            },
            {
                "start_time": 65.66590909090908,
                "end_time": 65.89545454545454,
                "pitch": 45,
                "velocity": 4,
                "duration": 0.22954545454545894,
                "tempo": 120.0
            },
            {
                "start_time": 65.89545454545454,
                "end_time": 66.47045454545454,
                "pitch": 84,
                "velocity": 4,
                "duration": 0.5750000000000028,
                "tempo": 120.0
            },
            {
                "start_time": 66.47045454545454,
                "end_time": 66.86136363636363,
                "pitch": 68,
                "velocity": 4,
                "duration": 0.39090909090909065,
                "tempo": 120.0
            },
            {
                "start_time": 66.86136363636363,
                "end_time": 67.27272727272727,
                "pitch": 78,
                "velocity": 4,
                "duration": 0.4113636363636317,
                "tempo": 120.0
            },
            {
                "start_time": 67.27272727272727,
                "end_time": 68.075,
                "pitch": 84,
                "velocity": 4,
                "duration": 0.8022727272727366,
                "tempo": 120.0
            },
            {
                "start_time": 68.075,
                "end_time": 68.46818181818182,
                "pitch": 68,
                "velocity": 4,
                "duration": 0.39318181818181586,
                "tempo": 120.0
            },
            {
                "start_time": 68.46818181818182,
                "end_time": 68.87727272727273,
                "pitch": 78,
                "velocity": 4,
                "duration": 0.4090909090909065,
                "tempo": 120.0
            },
            {
                "start_time": 68.87727272727273,
                "end_time": 69.62954545454545,
                "pitch": 84,
                "velocity": 4,
                "duration": 0.7522727272727252,
                "tempo": 120.0
            },
            {
                "start_time": 69.62954545454545,
                "end_time": 69.67954545454545,
                "pitch": 46,
                "velocity": 4,
                "duration": 0.04999999999999716,
                "tempo": 120.0
            },
            {
                "start_time": 69.67954545454545,
                "end_time": 70.07272727272726,
                "pitch": 30,
                "velocity": 4,
                "duration": 0.39318181818181586,
                "tempo": 120.0
            },
            {
                "start_time": 70.07272727272726,
                "end_time": 70.48181818181818,
                "pitch": 38,
                "velocity": 4,
                "duration": 0.4090909090909207,
                "tempo": 120.0
            },
            {
                "start_time": 70.48181818181818,
                "end_time": 70.56363636363636,
                "pitch": 44,
                "velocity": 4,
                "duration": 0.08181818181817846,
                "tempo": 120.0
            },
            {
                "start_time": 70.56363636363636,
                "end_time": 71.27727272727273,
                "pitch": 42,
                "velocity": 4,
                "duration": 0.7136363636363683,
                "tempo": 120.0
            },
            {
                "start_time": 71.27727272727273,
                "end_time": 71.67954545454545,
                "pitch": 26,
                "velocity": 4,
                "duration": 0.4022727272727167,
                "tempo": 120.0
            },
            {
                "start_time": 71.67954545454545,
                "end_time": 72.08863636363635,
                "pitch": 34,
                "velocity": 4,
                "duration": 0.4090909090909065,
                "tempo": 120.0
            },
            {
                "start_time": 72.08863636363635,
                "end_time": 72.89545454545454,
                "pitch": 42,
                "velocity": 4,
                "duration": 0.806818181818187,
                "tempo": 120.0
            },
            {
                "start_time": 72.89545454545454,
                "end_time": 73.29545454545455,
                "pitch": 26,
                "velocity": 4,
                "duration": 0.4000000000000057,
                "tempo": 120.0
            },
            {
                "start_time": 73.29545454545455,
                "end_time": 73.69772727272726,
                "pitch": 34,
                "velocity": 4,
                "duration": 0.4022727272727167,
                "tempo": 120.0
            },
            {
                "start_time": 73.69772727272726,
                "end_time": 74.5,
                "pitch": 42,
                "velocity": 4,
                "duration": 0.8022727272727366,
                "tempo": 120.0
            },
            {
                "start_time": 74.5,
                "end_time": 74.90227272727272,
                "pitch": 26,
                "velocity": 4,
                "duration": 0.4022727272727167,
                "tempo": 120.0
            },
            {
                "start_time": 74.90227272727272,
                "end_time": 75.30227272727272,
                "pitch": 34,
                "velocity": 4,
                "duration": 0.4000000000000057,
                "tempo": 120.0
            },
            {
                "start_time": 75.30227272727272,
                "end_time": 75.52045454545454,
                "pitch": 42,
                "velocity": 4,
                "duration": 0.2181818181818187,
                "tempo": 120.0
            },
            {
                "start_time": 75.52045454545454,
                "end_time": 76.10681818181818,
                "pitch": 62,
                "velocity": 4,
                "duration": 0.5863636363636431,
                "tempo": 120.0
            },
            {
                "start_time": 76.10681818181818,
                "end_time": 76.30681818181817,
                "pitch": 46,
                "velocity": 4,
                "duration": 0.19999999999998863,
                "tempo": 120.0
            },
            {
                "start_time": 76.30681818181817,
                "end_time": 76.5090909090909,
                "pitch": 72,
                "velocity": 4,
                "duration": 0.20227272727272805,
                "tempo": 120.0
            },
            {
                "start_time": 76.5090909090909,
                "end_time": 76.91136363636363,
                "pitch": 80,
                "velocity": 4,
                "duration": 0.4022727272727309,
                "tempo": 120.0
            },
            {
                "start_time": 76.91136363636363,
                "end_time": 77.11136363636363,
                "pitch": 97,
                "velocity": 4,
                "duration": 0.20000000000000284,
                "tempo": 120.0
            },
            {
                "start_time": 77.11136363636363,
                "end_time": 77.26136363636363,
                "pitch": 79,
                "velocity": 4,
                "duration": 0.14999999999999147,
                "tempo": 120.0
            },
            {
                "start_time": 77.26136363636363,
                "end_time": 77.31136363636364,
                "pitch": 19,
                "velocity": 4,
                "duration": 0.05000000000001137,
                "tempo": 120.0
            },
            {
                "start_time": 77.31136363636364,
                "end_time": 77.70454545454545,
                "pitch": 30,
                "velocity": 4,
                "duration": 0.39318181818181586,
                "tempo": 120.0
            },
            {
                "start_time": 77.70454545454545,
                "end_time": 77.78863636363636,
                "pitch": 13,
                "velocity": 4,
                "duration": 0.08409090909090366,
                "tempo": 120.0
            },
            {
                "start_time": 77.78863636363636,
                "end_time": 78.10681818181818,
                "pitch": 38,
                "velocity": 4,
                "duration": 0.3181818181818272,
                "tempo": 120.0
            },
            {
                "start_time": 78.10681818181818,
                "end_time": 78.19318181818181,
                "pitch": 46,
                "velocity": 4,
                "duration": 0.08636363636362887,
                "tempo": 120.0
            },
            {
                "start_time": 78.19318181818181,
                "end_time": 78.51818181818182,
                "pitch": 35,
                "velocity": 4,
                "duration": 0.32500000000000284,
                "tempo": 120.0
            },
            {
                "start_time": 78.51818181818182,
                "end_time": 79.32045454545454,
                "pitch": 43,
                "velocity": 4,
                "duration": 0.8022727272727224,
                "tempo": 120.0
            },
            {
                "start_time": 79.32045454545454,
                "end_time": 79.72272727272727,
                "pitch": 27,
                "velocity": 4,
                "duration": 0.4022727272727309,
                "tempo": 120.0
            },
            {
                "start_time": 79.72272727272727,
                "end_time": 80.12272727272727,
                "pitch": 35,
                "velocity": 4,
                "duration": 0.4000000000000057,
                "tempo": 120.0
            },
            {
                "start_time": 80.12272727272727,
                "end_time": 80.325,
                "pitch": 52,
                "velocity": 4,
                "duration": 0.20227272727272805,
                "tempo": 120.0
            },
            {
                "start_time": 80.325,
                "end_time": 80.52499999999999,
                "pitch": 34,
                "velocity": 4,
                "duration": 0.19999999999998863,
                "tempo": 120.0
            },
            {
                "start_time": 80.52499999999999,
                "end_time": 80.54318181818181,
                "pitch": 43,
                "velocity": 4,
                "duration": 0.018181818181815856,
                "tempo": 120.0
            },
            {
                "start_time": 80.54318181818181,
                "end_time": 80.92727272727272,
                "pitch": 42,
                "velocity": 4,
                "duration": 0.38409090909091503,
                "tempo": 120.0
            },
            {
                "start_time": 80.92727272727272,
                "end_time": 81.32954545454545,
                "pitch": 26,
                "velocity": 4,
                "duration": 0.4022727272727309,
                "tempo": 120.0
            },
            {
                "start_time": 81.32954545454545,
                "end_time": 81.73181818181818,
                "pitch": 34,
                "velocity": 4,
                "duration": 0.4022727272727309,
                "tempo": 120.0
            },
            {
                "start_time": 81.73181818181818,
                "end_time": 81.93181818181817,
                "pitch": 50,
                "velocity": 4,
                "duration": 0.19999999999998863,
                "tempo": 120.0
            },
            {
                "start_time": 81.93181818181817,
                "end_time": 82.13181818181818,
                "pitch": 33,
                "velocity": 4,
                "duration": 0.20000000000000284,
                "tempo": 120.0
            },
            {
                "start_time": 82.13181818181818,
                "end_time": 82.30227272727272,
                "pitch": 50,
                "velocity": 4,
                "duration": 0.17045454545454675,
                "tempo": 120.0
            }
        ]
    }
}