{
    "track_id": "Ys (FM) - 18 - Treasure Box",
    "mood": "relaxed",
    "instruments": {
        "Vibraphone": [
            {
                "start_time": 0.0,
                "end_time": 0.35,
                "pitch": 70,
                "velocity": 80,
                "duration": 0.35,
                "tempo": 120.0
            },
            {
                "start_time": 0.3840909090909091,
                "end_time": 0.7568181818181818,
                "pitch": 65,
                "velocity": 80,
                "duration": 0.37272727272727274,
                "tempo": 120.0
            },
            {
                "start_time": 0.7909090909090909,
                "end_time": 1.1613636363636364,
                "pitch": 70,
                "velocity": 80,
                "duration": 0.3704545454545455,
                "tempo": 120.0
            },
            {
                "start_time": 1.1954545454545453,
                "end_time": 1.565909090909091,
                "pitch": 72,
                "velocity": 80,
                "duration": 0.3704545454545456,
                "tempo": 120.0
            },
            {
                "start_time": 1.5999999999999999,
                "end_time": 1.9704545454545455,
                "pitch": 74,
                "velocity": 80,
                "duration": 0.3704545454545456,
                "tempo": 120.0
            },
            {
                "start_time": 2.0045454545454544,
                "end_time": 2.377272727272727,
                "pitch": 70,
                "velocity": 80,
                "duration": 0.3727272727272726,
                "tempo": 120.0
            },
            {
                "start_time": 2.409090909090909,
                "end_time": 2.7818181818181817,
                "pitch": 74,
                "velocity": 80,
                "duration": 0.3727272727272726,
                "tempo": 120.0
            },
            {
                "start_time": 2.815909090909091,
                "end_time": 3.186363636363636,
                "pitch": 77,
                "velocity": 80,
                "duration": 0.37045454545454515,
                "tempo": 120.0
            },
            {
                "start_time": 3.2204545454545452,
                "end_time": 3.727272727272727,
                "pitch": 81,
                "velocity": 80,
                "duration": 0.5068181818181818,
                "tempo": 120.0
            },
            {
                "start_time": 3.7613636363636362,
                "end_time": 4.265909090909091,
                "pitch": 76,
                "velocity": 80,
                "duration": 0.5045454545454544,
                "tempo": 120.0
            },
            {
                "start_time": 4.3,
                "end_time": 4.943181818181818,
                "pitch": 74,
                "velocity": 80,
                "duration": 0.6431818181818185,
                "tempo": 120.0
            },
            {
                "start_time": 4.977272727272727,
                "end_time": 5.636363636363636,
                "pitch": 71,
                "velocity": 80,
                "duration": 0.6590909090909092,
                "tempo": 120.0
            },
            {
                "start_time": 5.670454545454545,
                "end_time": 7.768181818181818,
                "pitch": 73,
                "velocity": 80,
                "duration": 2.0977272727272727,
                "tempo": 120.0
            }
        ],
        "Acoustic Bass": [
            {
                "start_time": 0.0,
                "end_time": 3.186363636363636,
                "pitch": 31,
                "velocity": 80,
                "duration": 3.186363636363636,
                "tempo": 120.0
            },
            {
                "start_time": 3.2204545454545452,
                "end_time": 7.768181818181818,
                "pitch": 33,
                "velocity": 80,
                "duration": 4.547727272727272,
                "tempo": 120.0
            }
        ],
        "Flute": [
            {
                "start_time": 0.015909090909090907,
                "end_time": 1.565909090909091,
                "pitch": 50,
                "velocity": 51,
                "duration": 1.55,
                "tempo": 120.0
            },
            {
                "start_time": 1.5999999999999999,
                "end_time": 3.186363636363636,
                "pitch": 58,
                "velocity": 51,
                "duration": 1.5863636363636362,
                "tempo": 120.0
            },
            {
                "start_time": 3.2204545454545452,
                "end_time": 7.768181818181818,
                "pitch": 52,
                "velocity": 51,
                "duration": 4.547727272727272,
                "tempo": 120.0
            }
        ],
        "Trumpet": [
            {
                "start_time": 0.015909090909090907,
                "end_time": 1.565909090909091,
                "pitch": 58,
                "velocity": 51,
                "duration": 1.55,
                "tempo": 120.0
            },
            {
                "start_time": 1.5999999999999999,
                "end_time": 3.186363636363636,
                "pitch": 62,
                "velocity": 51,
                "duration": 1.5863636363636362,
                "tempo": 120.0
            },
            {
                "start_time": 3.2204545454545452,
                "end_time": 7.768181818181818,
                "pitch": 61,
                "velocity": 51,
                "duration": 4.547727272727272,
                "tempo": 120.0
            }
        ],
        "Oboe": [
            {
                "start_time": 0.015909090909090907,
                "end_time": 1.565909090909091,
                "pitch": 53,
                "velocity": 51,
                "duration": 1.55,
                "tempo": 120.0
            },
            {
                "start_time": 1.5999999999999999,
                "end_time": 3.186363636363636,
                "pitch": 53,
                "velocity": 51,
                "duration": 1.5863636363636362,
                "tempo": 120.0
            },
            {
                "start_time": 3.2204545454545452,
                "end_time": 6.468181818181818,
                "pitch": 57,
                "velocity": 51,
                "duration": 3.2477272727272726,
                "tempo": 120.0
            }
        ]
    }
}