{
    "track_id": "Ys (FM) - 15 - Rest In Peace",
    "mood": "relaxed",
    "instruments": {
        "Vibraphone": [
            {
                "start_time": 0.015909090909090907,
                "end_time": 0.08409090909090909,
                "pitch": 63,
                "velocity": 51,
                "duration": 0.06818181818181818,
                "tempo": 120.0
            },
            {
                "start_time": 0.5159090909090909,
                "end_time": 0.984090909090909,
                "pitch": 75,
                "velocity": 51,
                "duration": 0.46818181818181814,
                "tempo": 120.0
            },
            {
                "start_time": 1.05,
                "end_time": 1.7727272727272727,
                "pitch": 70,
                "velocity": 51,
                "duration": 0.7227272727272727,
                "tempo": 120.0
            },
            {
                "start_time": 1.8386363636363636,
                "end_time": 2.3659090909090907,
                "pitch": 66,
                "velocity": 51,
                "duration": 0.5272727272727271,
                "tempo": 120.0
            },
            {
                "start_time": 2.3659090909090907,
                "end_time": 2.568181818181818,
                "pitch": 66,
                "velocity": 51,
                "duration": 0.20227272727272716,
                "tempo": 120.0
            },
            {
                "start_time": 2.6363636363636362,
                "end_time": 3.3795454545454544,
                "pitch": 68,
                "velocity": 51,
                "duration": 0.7431818181818182,
                "tempo": 120.0
            },
            {
                "start_time": 3.4454545454545453,
                "end_time": 4.1863636363636365,
                "pitch": 66,
                "velocity": 51,
                "duration": 0.7409090909090912,
                "tempo": 120.0
            },
            {
                "start_time": 4.254545454545454,
                "end_time": 4.986363636363636,
                "pitch": 63,
                "velocity": 51,
                "duration": 0.7318181818181824,
                "tempo": 120.0
            },
            {
                "start_time": 5.054545454545455,
                "end_time": 5.786363636363636,
                "pitch": 65,
                "velocity": 51,
                "duration": 0.7318181818181815,
                "tempo": 120.0
            },
            {
                "start_time": 5.8545454545454545,
                "end_time": 6.586363636363636,
                "pitch": 66,
                "velocity": 51,
                "duration": 0.7318181818181815,
                "tempo": 120.0
            },
            {
                "start_time": 6.654545454545454,
                "end_time": 7.388636363636364,
                "pitch": 63,
                "velocity": 51,
                "duration": 0.7340909090909093,
                "tempo": 120.0
            },
            {
                "start_time": 7.456818181818181,
                "end_time": 8.2,
                "pitch": 59,
                "velocity": 51,
                "duration": 0.7431818181818182,
                "tempo": 120.0
            },
            {
                "start_time": 8.268181818181818,
                "end_time": 9.009090909090908,
                "pitch": 63,
                "velocity": 51,
                "duration": 0.7409090909090903,
                "tempo": 120.0
            },
            {
                "start_time": 9.075,
                "end_time": 9.809090909090909,
                "pitch": 68,
                "velocity": 51,
                "duration": 0.7340909090909093,
                "tempo": 120.0
            },
            {
                "start_time": 9.875,
                "end_time": 10.60909090909091,
                "pitch": 65,
                "velocity": 51,
                "duration": 0.7340909090909093,
                "tempo": 120.0
            },
            {
                "start_time": 10.674999999999999,
                "end_time": 11.409090909090908,
                "pitch": 61,
                "velocity": 51,
                "duration": 0.7340909090909093,
                "tempo": 120.0
            },
            {
                "start_time": 11.475,
                "end_time": 12.209090909090909,
                "pitch": 65,
                "velocity": 51,
                "duration": 0.7340909090909093,
                "tempo": 120.0
            },
            {
                "start_time": 13.075,
                "end_time": 13.809090909090909,
                "pitch": 75,
                "velocity": 51,
                "duration": 0.7340909090909093,
                "tempo": 120.0
            },
            {
                "start_time": 13.875,
                "end_time": 14.609090909090908,
                "pitch": 70,
                "velocity": 51,
                "duration": 0.7340909090909076,
                "tempo": 120.0
            },
            {
                "start_time": 14.674999999999999,
                "end_time": 15.411363636363635,
                "pitch": 66,
                "velocity": 51,
                "duration": 0.7363636363636363,
                "tempo": 120.0
            },
            {
                "start_time": 15.479545454545454,
                "end_time": 16.222727272727273,
                "pitch": 68,
                "velocity": 51,
                "duration": 0.743181818181819,
                "tempo": 120.0
            },
            {
                "start_time": 16.288636363636364,
                "end_time": 17.029545454545453,
                "pitch": 66,
                "velocity": 51,
                "duration": 0.7409090909090885,
                "tempo": 120.0
            },
            {
                "start_time": 17.097727272727273,
                "end_time": 17.829545454545453,
                "pitch": 63,
                "velocity": 51,
                "duration": 0.7318181818181806,
                "tempo": 120.0
            },
            {
                "start_time": 17.897727272727273,
                "end_time": 18.634090909090908,
                "pitch": 65,
                "velocity": 51,
                "duration": 0.7363636363636346,
                "tempo": 120.0
            },
            {
                "start_time": 19.525,
                "end_time": 20.270454545454545,
                "pitch": 75,
                "velocity": 51,
                "duration": 0.745454545454546,
                "tempo": 120.0
            },
            {
                "start_time": 20.336363636363636,
                "end_time": 21.05909090909091,
                "pitch": 70,
                "velocity": 51,
                "duration": 0.7227272727272727,
                "tempo": 120.0
            },
            {
                "start_time": 21.125,
                "end_time": 21.854545454545452,
                "pitch": 66,
                "velocity": 51,
                "duration": 0.7295454545454518,
                "tempo": 120.0
            },
            {
                "start_time": 21.920454545454543,
                "end_time": 22.66590909090909,
                "pitch": 68,
                "velocity": 51,
                "duration": 0.745454545454546,
                "tempo": 120.0
            },
            {
                "start_time": 22.73181818181818,
                "end_time": 23.472727272727273,
                "pitch": 72,
                "velocity": 51,
                "duration": 0.7409090909090921,
                "tempo": 120.0
            },
            {
                "start_time": 23.538636363636364,
                "end_time": 24.27272727272727,
                "pitch": 75,
                "velocity": 51,
                "duration": 0.7340909090909058,
                "tempo": 120.0
            },
            {
                "start_time": 24.33863636363636,
                "end_time": 25.07272727272727,
                "pitch": 80,
                "velocity": 51,
                "duration": 0.7340909090909093,
                "tempo": 120.0
            },
            {
                "start_time": 25.938636363636363,
                "end_time": 26.674999999999997,
                "pitch": 75,
                "velocity": 51,
                "duration": 0.7363636363636346,
                "tempo": 120.0
            },
            {
                "start_time": 26.743181818181817,
                "end_time": 27.486363636363635,
                "pitch": 70,
                "velocity": 51,
                "duration": 0.7431818181818173,
                "tempo": 120.0
            },
            {
                "start_time": 27.554545454545455,
                "end_time": 28.095454545454544,
                "pitch": 66,
                "velocity": 51,
                "duration": 0.5409090909090892,
                "tempo": 120.0
            }
        ],
        "Acoustic Bass": [
            {
                "start_time": 0.0,
                "end_time": 2.3,
                "pitch": 27,
                "velocity": 64,
                "duration": 2.3,
                "tempo": 120.0
            },
            {
                "start_time": 2.3659090909090907,
                "end_time": 5.5204545454545455,
                "pitch": 32,
                "velocity": 64,
                "duration": 3.1545454545454548,
                "tempo": 120.0
            },
            {
                "start_time": 5.586363636363636,
                "end_time": 8.74090909090909,
                "pitch": 35,
                "velocity": 64,
                "duration": 3.1545454545454543,
                "tempo": 120.0
            },
            {
                "start_time": 8.809090909090909,
                "end_time": 11.94090909090909,
                "pitch": 37,
                "velocity": 64,
                "duration": 3.131818181818181,
                "tempo": 120.0
            },
            {
                "start_time": 12.009090909090908,
                "end_time": 15.14090909090909,
                "pitch": 27,
                "velocity": 64,
                "duration": 3.1318181818181827,
                "tempo": 120.0
            },
            {
                "start_time": 15.209090909090909,
                "end_time": 18.363636363636363,
                "pitch": 32,
                "velocity": 64,
                "duration": 3.1545454545454543,
                "tempo": 120.0
            },
            {
                "start_time": 18.429545454545455,
                "end_time": 21.586363636363636,
                "pitch": 27,
                "velocity": 64,
                "duration": 3.1568181818181813,
                "tempo": 120.0
            },
            {
                "start_time": 21.652272727272727,
                "end_time": 24.80681818181818,
                "pitch": 32,
                "velocity": 64,
                "duration": 3.1545454545454525,
                "tempo": 120.0
            },
            {
                "start_time": 24.87272727272727,
                "end_time": 28.027272727272727,
                "pitch": 27,
                "velocity": 64,
                "duration": 3.154545454545456,
                "tempo": 120.0
            }
        ]
    }
}