{
    "track_id": "Ys (FM) - 10 - Temple del Sol",
    "mood": "relaxed",
    "instruments": {
        "Clarinet": [
            {
                "start_time": 0.175,
                "end_time": 0.45454545454545453,
                "pitch": 69,
                "velocity": 51,
                "duration": 0.27954545454545454,
                "tempo": 120.0
            },
            {
                "start_time": 0.47045454545454546,
                "end_time": 0.75,
                "pitch": 72,
                "velocity": 51,
                "duration": 0.27954545454545454,
                "tempo": 120.0
            },
            {
                "start_time": 0.7659090909090909,
                "end_time": 2.559090909090909,
                "pitch": 74,
                "velocity": 51,
                "duration": 1.7931818181818182,
                "tempo": 120.0
            },
            {
                "start_time": 2.577272727272727,
                "end_time": 3.168181818181818,
                "pitch": 77,
                "velocity": 51,
                "duration": 0.5909090909090908,
                "tempo": 120.0
            },
            {
                "start_time": 3.184090909090909,
                "end_time": 4.961363636363636,
                "pitch": 76,
                "velocity": 51,
                "duration": 1.777272727272727,
                "tempo": 120.0
            },
            {
                "start_time": 4.977272727272727,
                "end_time": 5.265909090909091,
                "pitch": 72,
                "velocity": 51,
                "duration": 0.288636363636364,
                "tempo": 120.0
            },
            {
                "start_time": 5.281818181818181,
                "end_time": 5.570454545454545,
                "pitch": 67,
                "velocity": 51,
                "duration": 0.288636363636364,
                "tempo": 120.0
            },
            {
                "start_time": 5.588636363636363,
                "end_time": 6.472727272727273,
                "pitch": 67,
                "velocity": 51,
                "duration": 0.8840909090909097,
                "tempo": 120.0
            },
            {
                "start_time": 6.49090909090909,
                "end_time": 7.972727272727273,
                "pitch": 69,
                "velocity": 51,
                "duration": 1.4818181818181824,
                "tempo": 120.0
            },
            {
                "start_time": 9.799999999999999,
                "end_time": 10.084090909090909,
                "pitch": 69,
                "velocity": 51,
                "duration": 0.28409090909091006,
                "tempo": 120.0
            },
            {
                "start_time": 10.1,
                "end_time": 10.386363636363637,
                "pitch": 72,
                "velocity": 51,
                "duration": 0.28636363636363704,
                "tempo": 120.0
            },
            {
                "start_time": 10.402272727272727,
                "end_time": 12.181818181818182,
                "pitch": 74,
                "velocity": 51,
                "duration": 1.7795454545454543,
                "tempo": 120.0
            },
            {
                "start_time": 12.2,
                "end_time": 12.793181818181818,
                "pitch": 77,
                "velocity": 51,
                "duration": 0.5931818181818187,
                "tempo": 120.0
            },
            {
                "start_time": 12.809090909090909,
                "end_time": 14.593181818181817,
                "pitch": 76,
                "velocity": 51,
                "duration": 1.7840909090909083,
                "tempo": 120.0
            },
            {
                "start_time": 14.611363636363636,
                "end_time": 14.899999999999999,
                "pitch": 72,
                "velocity": 51,
                "duration": 0.28863636363636225,
                "tempo": 120.0
            },
            {
                "start_time": 14.918181818181818,
                "end_time": 15.202272727272726,
                "pitch": 74,
                "velocity": 51,
                "duration": 0.2840909090909083,
                "tempo": 120.0
            },
            {
                "start_time": 15.218181818181817,
                "end_time": 16.995454545454546,
                "pitch": 76,
                "velocity": 51,
                "duration": 1.7772727272727291,
                "tempo": 120.0
            },
            {
                "start_time": 17.013636363636362,
                "end_time": 17.602272727272727,
                "pitch": 79,
                "velocity": 51,
                "duration": 0.5886363636363647,
                "tempo": 120.0
            },
            {
                "start_time": 17.618181818181817,
                "end_time": 18.5,
                "pitch": 79,
                "velocity": 51,
                "duration": 0.8818181818181827,
                "tempo": 120.0
            },
            {
                "start_time": 18.51590909090909,
                "end_time": 19.40681818181818,
                "pitch": 77,
                "velocity": 51,
                "duration": 0.8909090909090907,
                "tempo": 120.0
            },
            {
                "start_time": 19.425,
                "end_time": 19.709090909090907,
                "pitch": 69,
                "velocity": 51,
                "duration": 0.2840909090909065,
                "tempo": 120.0
            },
            {
                "start_time": 19.724999999999998,
                "end_time": 20.009090909090908,
                "pitch": 72,
                "velocity": 51,
                "duration": 0.28409090909091006,
                "tempo": 120.0
            },
            {
                "start_time": 20.027272727272727,
                "end_time": 21.813636363636363,
                "pitch": 74,
                "velocity": 51,
                "duration": 1.7863636363636353,
                "tempo": 120.0
            },
            {
                "start_time": 21.831818181818182,
                "end_time": 22.418181818181818,
                "pitch": 81,
                "velocity": 51,
                "duration": 0.586363636363636,
                "tempo": 120.0
            },
            {
                "start_time": 22.43409090909091,
                "end_time": 22.71363636363636,
                "pitch": 79,
                "velocity": 51,
                "duration": 0.27954545454545254,
                "tempo": 120.0
            },
            {
                "start_time": 23.036363636363635,
                "end_time": 23.320454545454545,
                "pitch": 76,
                "velocity": 51,
                "duration": 0.28409090909091006,
                "tempo": 120.0
            },
            {
                "start_time": 24.236363636363635,
                "end_time": 24.520454545454545,
                "pitch": 72,
                "velocity": 51,
                "duration": 0.28409090909091006,
                "tempo": 120.0
            },
            {
                "start_time": 24.84318181818182,
                "end_time": 25.724999999999998,
                "pitch": 72,
                "velocity": 51,
                "duration": 0.8818181818181792,
                "tempo": 120.0
            },
            {
                "start_time": 25.74090909090909,
                "end_time": 27.229545454545452,
                "pitch": 74,
                "velocity": 51,
                "duration": 1.4886363636363633,
                "tempo": 120.0
            },
            {
                "start_time": 29.063636363636363,
                "end_time": 29.347727272727273,
                "pitch": 69,
                "velocity": 51,
                "duration": 0.28409090909091006,
                "tempo": 120.0
            },
            {
                "start_time": 29.363636363636363,
                "end_time": 29.38181818181818,
                "pitch": 72,
                "velocity": 51,
                "duration": 0.018181818181815856,
                "tempo": 120.0
            }
        ],
        "Acoustic Bass": [
            {
                "start_time": 0.6159090909090909,
                "end_time": 1.5022727272727272,
                "pitch": 34,
                "velocity": 64,
                "duration": 0.8863636363636364,
                "tempo": 120.0
            },
            {
                "start_time": 1.518181818181818,
                "end_time": 1.8113636363636363,
                "pitch": 34,
                "velocity": 64,
                "duration": 0.2931818181818182,
                "tempo": 120.0
            },
            {
                "start_time": 1.8295454545454544,
                "end_time": 2.715909090909091,
                "pitch": 34,
                "velocity": 64,
                "duration": 0.8863636363636365,
                "tempo": 120.0
            },
            {
                "start_time": 2.7318181818181815,
                "end_time": 3.018181818181818,
                "pitch": 34,
                "velocity": 64,
                "duration": 0.2863636363636366,
                "tempo": 120.0
            },
            {
                "start_time": 3.0340909090909087,
                "end_time": 3.918181818181818,
                "pitch": 34,
                "velocity": 64,
                "duration": 0.8840909090909093,
                "tempo": 120.0
            },
            {
                "start_time": 3.936363636363636,
                "end_time": 4.218181818181818,
                "pitch": 34,
                "velocity": 64,
                "duration": 0.28181818181818175,
                "tempo": 120.0
            },
            {
                "start_time": 4.236363636363636,
                "end_time": 5.111363636363636,
                "pitch": 34,
                "velocity": 64,
                "duration": 0.875,
                "tempo": 120.0
            },
            {
                "start_time": 5.127272727272727,
                "end_time": 5.420454545454545,
                "pitch": 34,
                "velocity": 64,
                "duration": 0.293181818181818,
                "tempo": 120.0
            },
            {
                "start_time": 5.4386363636363635,
                "end_time": 6.322727272727272,
                "pitch": 26,
                "velocity": 64,
                "duration": 0.8840909090909088,
                "tempo": 120.0
            },
            {
                "start_time": 6.338636363636363,
                "end_time": 6.625,
                "pitch": 26,
                "velocity": 64,
                "duration": 0.28636363636363704,
                "tempo": 120.0
            },
            {
                "start_time": 6.640909090909091,
                "end_time": 7.5249999999999995,
                "pitch": 26,
                "velocity": 64,
                "duration": 0.8840909090909088,
                "tempo": 120.0
            },
            {
                "start_time": 7.543181818181818,
                "end_time": 7.827272727272727,
                "pitch": 26,
                "velocity": 64,
                "duration": 0.28409090909090917,
                "tempo": 120.0
            },
            {
                "start_time": 7.843181818181818,
                "end_time": 8.729545454545454,
                "pitch": 26,
                "velocity": 64,
                "duration": 0.8863636363636358,
                "tempo": 120.0
            },
            {
                "start_time": 8.747727272727273,
                "end_time": 9.031818181818181,
                "pitch": 26,
                "velocity": 64,
                "duration": 0.2840909090909083,
                "tempo": 120.0
            },
            {
                "start_time": 9.047727272727272,
                "end_time": 9.934090909090909,
                "pitch": 26,
                "velocity": 64,
                "duration": 0.8863636363636367,
                "tempo": 120.0
            },
            {
                "start_time": 9.95,
                "end_time": 10.23409090909091,
                "pitch": 26,
                "velocity": 64,
                "duration": 0.28409090909091006,
                "tempo": 120.0
            },
            {
                "start_time": 10.252272727272727,
                "end_time": 11.129545454545454,
                "pitch": 34,
                "velocity": 64,
                "duration": 0.877272727272727,
                "tempo": 120.0
            },
            {
                "start_time": 11.145454545454545,
                "end_time": 11.438636363636363,
                "pitch": 34,
                "velocity": 64,
                "duration": 0.293181818181818,
                "tempo": 120.0
            },
            {
                "start_time": 11.456818181818182,
                "end_time": 12.331818181818182,
                "pitch": 34,
                "velocity": 64,
                "duration": 0.875,
                "tempo": 120.0
            },
            {
                "start_time": 12.35,
                "end_time": 12.643181818181818,
                "pitch": 34,
                "velocity": 64,
                "duration": 0.293181818181818,
                "tempo": 120.0
            },
            {
                "start_time": 12.659090909090908,
                "end_time": 13.536363636363635,
                "pitch": 34,
                "velocity": 64,
                "duration": 0.877272727272727,
                "tempo": 120.0
            },
            {
                "start_time": 13.552272727272726,
                "end_time": 13.845454545454544,
                "pitch": 34,
                "velocity": 64,
                "duration": 0.293181818181818,
                "tempo": 120.0
            },
            {
                "start_time": 13.863636363636363,
                "end_time": 14.75,
                "pitch": 34,
                "velocity": 64,
                "duration": 0.8863636363636367,
                "tempo": 120.0
            },
            {
                "start_time": 14.76590909090909,
                "end_time": 15.052272727272726,
                "pitch": 34,
                "velocity": 64,
                "duration": 0.28636363636363527,
                "tempo": 120.0
            },
            {
                "start_time": 15.068181818181817,
                "end_time": 15.952272727272726,
                "pitch": 33,
                "velocity": 64,
                "duration": 0.8840909090909097,
                "tempo": 120.0
            },
            {
                "start_time": 15.970454545454544,
                "end_time": 16.254545454545454,
                "pitch": 33,
                "velocity": 64,
                "duration": 0.28409090909091006,
                "tempo": 120.0
            },
            {
                "start_time": 16.272727272727273,
                "end_time": 17.145454545454545,
                "pitch": 33,
                "velocity": 64,
                "duration": 0.8727272727272712,
                "tempo": 120.0
            },
            {
                "start_time": 17.163636363636364,
                "end_time": 17.456818181818182,
                "pitch": 33,
                "velocity": 64,
                "duration": 0.293181818181818,
                "tempo": 120.0
            },
            {
                "start_time": 17.472727272727273,
                "end_time": 18.349999999999998,
                "pitch": 26,
                "velocity": 64,
                "duration": 0.8772727272727252,
                "tempo": 120.0
            },
            {
                "start_time": 18.36590909090909,
                "end_time": 18.65,
                "pitch": 26,
                "velocity": 64,
                "duration": 0.28409090909091006,
                "tempo": 120.0
            },
            {
                "start_time": 18.66590909090909,
                "end_time": 19.252272727272725,
                "pitch": 26,
                "velocity": 64,
                "duration": 0.586363636363636,
                "tempo": 120.0
            },
            {
                "start_time": 19.270454545454545,
                "end_time": 19.563636363636363,
                "pitch": 38,
                "velocity": 64,
                "duration": 0.293181818181818,
                "tempo": 120.0
            },
            {
                "start_time": 19.579545454545453,
                "end_time": 19.854545454545452,
                "pitch": 36,
                "velocity": 64,
                "duration": 0.2749999999999986,
                "tempo": 120.0
            },
            {
                "start_time": 19.870454545454546,
                "end_time": 20.76590909090909,
                "pitch": 34,
                "velocity": 64,
                "duration": 0.8954545454545446,
                "tempo": 120.0
            },
            {
                "start_time": 20.784090909090907,
                "end_time": 21.06590909090909,
                "pitch": 34,
                "velocity": 64,
                "duration": 0.28181818181818485,
                "tempo": 120.0
            },
            {
                "start_time": 21.084090909090907,
                "end_time": 21.970454545454544,
                "pitch": 34,
                "velocity": 64,
                "duration": 0.8863636363636367,
                "tempo": 120.0
            },
            {
                "start_time": 21.986363636363635,
                "end_time": 22.270454545454545,
                "pitch": 34,
                "velocity": 64,
                "duration": 0.28409090909091006,
                "tempo": 120.0
            },
            {
                "start_time": 22.288636363636364,
                "end_time": 22.563636363636363,
                "pitch": 33,
                "velocity": 64,
                "duration": 0.2749999999999986,
                "tempo": 120.0
            },
            {
                "start_time": 22.88181818181818,
                "end_time": 23.174999999999997,
                "pitch": 33,
                "velocity": 64,
                "duration": 0.293181818181818,
                "tempo": 120.0
            },
            {
                "start_time": 24.086363636363636,
                "end_time": 24.370454545454546,
                "pitch": 33,
                "velocity": 64,
                "duration": 0.28409090909091006,
                "tempo": 120.0
            },
            {
                "start_time": 24.686363636363634,
                "end_time": 25.575,
                "pitch": 26,
                "velocity": 64,
                "duration": 0.8886363636363654,
                "tempo": 120.0
            },
            {
                "start_time": 25.59090909090909,
                "end_time": 25.875,
                "pitch": 26,
                "velocity": 64,
                "duration": 0.28409090909091006,
                "tempo": 120.0
            },
            {
                "start_time": 25.893181818181816,
                "end_time": 26.777272727272727,
                "pitch": 26,
                "velocity": 64,
                "duration": 0.8840909090909115,
                "tempo": 120.0
            },
            {
                "start_time": 26.795454545454543,
                "end_time": 27.079545454545453,
                "pitch": 26,
                "velocity": 64,
                "duration": 0.28409090909091006,
                "tempo": 120.0
            },
            {
                "start_time": 27.097727272727273,
                "end_time": 27.99090909090909,
                "pitch": 26,
                "velocity": 64,
                "duration": 0.8931818181818159,
                "tempo": 120.0
            },
            {
                "start_time": 28.009090909090908,
                "end_time": 28.284090909090907,
                "pitch": 26,
                "velocity": 64,
                "duration": 0.2749999999999986,
                "tempo": 120.0
            },
            {
                "start_time": 28.299999999999997,
                "end_time": 29.19772727272727,
                "pitch": 26,
                "velocity": 64,
                "duration": 0.8977272727272734,
                "tempo": 120.0
            },
            {
                "start_time": 29.21363636363636,
                "end_time": 29.38181818181818,
                "pitch": 26,
                "velocity": 64,
                "duration": 0.168181818181818,
                "tempo": 120.0
            }
        ],
        "Vibraphone": [
            {
                "start_time": 0.6159090909090909,
                "end_time": 0.8999999999999999,
                "pitch": 69,
                "velocity": 51,
                "duration": 0.28409090909090906,
                "tempo": 120.0
            },
            {
                "start_time": 0.9159090909090909,
                "end_time": 1.2022727272727272,
                "pitch": 65,
                "velocity": 51,
                "duration": 0.28636363636363626,
                "tempo": 120.0
            },
            {
                "start_time": 1.218181818181818,
                "end_time": 1.5022727272727272,
                "pitch": 62,
                "velocity": 51,
                "duration": 0.28409090909090917,
                "tempo": 120.0
            },
            {
                "start_time": 1.518181818181818,
                "end_time": 1.8113636363636363,
                "pitch": 65,
                "velocity": 51,
                "duration": 0.2931818181818182,
                "tempo": 120.0
            },
            {
                "start_time": 1.8295454545454544,
                "end_time": 2.1136363636363633,
                "pitch": 69,
                "velocity": 51,
                "duration": 0.28409090909090895,
                "tempo": 120.0
            },
            {
                "start_time": 2.1295454545454544,
                "end_time": 2.4045454545454543,
                "pitch": 65,
                "velocity": 51,
                "duration": 0.2749999999999999,
                "tempo": 120.0
            },
            {
                "start_time": 2.4227272727272724,
                "end_time": 2.715909090909091,
                "pitch": 62,
                "velocity": 51,
                "duration": 0.29318181818181843,
                "tempo": 120.0
            },
            {
                "start_time": 2.7318181818181815,
                "end_time": 3.018181818181818,
                "pitch": 65,
                "velocity": 51,
                "duration": 0.2863636363636366,
                "tempo": 120.0
            },
            {
                "start_time": 3.0340909090909087,
                "end_time": 3.318181818181818,
                "pitch": 72,
                "velocity": 51,
                "duration": 0.28409090909090917,
                "tempo": 120.0
            },
            {
                "start_time": 3.334090909090909,
                "end_time": 3.609090909090909,
                "pitch": 67,
                "velocity": 51,
                "duration": 0.2749999999999999,
                "tempo": 120.0
            },
            {
                "start_time": 3.625,
                "end_time": 3.918181818181818,
                "pitch": 64,
                "velocity": 51,
                "duration": 0.293181818181818,
                "tempo": 120.0
            },
            {
                "start_time": 3.936363636363636,
                "end_time": 4.218181818181818,
                "pitch": 67,
                "velocity": 51,
                "duration": 0.28181818181818175,
                "tempo": 120.0
            },
            {
                "start_time": 4.236363636363636,
                "end_time": 4.518181818181818,
                "pitch": 72,
                "velocity": 51,
                "duration": 0.2818181818181813,
                "tempo": 120.0
            },
            {
                "start_time": 4.536363636363636,
                "end_time": 4.8113636363636365,
                "pitch": 67,
                "velocity": 51,
                "duration": 0.27500000000000036,
                "tempo": 120.0
            },
            {
                "start_time": 4.827272727272727,
                "end_time": 5.111363636363636,
                "pitch": 64,
                "velocity": 51,
                "duration": 0.28409090909090917,
                "tempo": 120.0
            },
            {
                "start_time": 5.127272727272727,
                "end_time": 5.420454545454545,
                "pitch": 60,
                "velocity": 51,
                "duration": 0.293181818181818,
                "tempo": 120.0
            },
            {
                "start_time": 5.4386363636363635,
                "end_time": 5.720454545454545,
                "pitch": 64,
                "velocity": 51,
                "duration": 0.2818181818181813,
                "tempo": 120.0
            },
            {
                "start_time": 5.738636363636363,
                "end_time": 6.013636363636364,
                "pitch": 60,
                "velocity": 51,
                "duration": 0.27500000000000036,
                "tempo": 120.0
            },
            {
                "start_time": 6.029545454545454,
                "end_time": 6.322727272727272,
                "pitch": 57,
                "velocity": 51,
                "duration": 0.293181818181818,
                "tempo": 120.0
            },
            {
                "start_time": 6.338636363636363,
                "end_time": 6.625,
                "pitch": 65,
                "velocity": 51,
                "duration": 0.28636363636363704,
                "tempo": 120.0
            },
            {
                "start_time": 6.640909090909091,
                "end_time": 6.915909090909091,
                "pitch": 62,
                "velocity": 51,
                "duration": 0.27500000000000036,
                "tempo": 120.0
            },
            {
                "start_time": 6.931818181818182,
                "end_time": 7.215909090909091,
                "pitch": 57,
                "velocity": 51,
                "duration": 0.28409090909090917,
                "tempo": 120.0
            },
            {
                "start_time": 7.2318181818181815,
                "end_time": 7.5249999999999995,
                "pitch": 53,
                "velocity": 51,
                "duration": 0.293181818181818,
                "tempo": 120.0
            },
            {
                "start_time": 7.543181818181818,
                "end_time": 7.827272727272727,
                "pitch": 57,
                "velocity": 51,
                "duration": 0.28409090909090917,
                "tempo": 120.0
            },
            {
                "start_time": 7.843181818181818,
                "end_time": 8.118181818181817,
                "pitch": 50,
                "velocity": 51,
                "duration": 0.27499999999999947,
                "tempo": 120.0
            },
            {
                "start_time": 8.134090909090908,
                "end_time": 8.427272727272728,
                "pitch": 57,
                "velocity": 51,
                "duration": 0.29318181818181976,
                "tempo": 120.0
            },
            {
                "start_time": 8.445454545454545,
                "end_time": 8.729545454545454,
                "pitch": 64,
                "velocity": 51,
                "duration": 0.2840909090909083,
                "tempo": 120.0
            },
            {
                "start_time": 8.747727272727273,
                "end_time": 9.031818181818181,
                "pitch": 62,
                "velocity": 51,
                "duration": 0.2840909090909083,
                "tempo": 120.0
            },
            {
                "start_time": 9.047727272727272,
                "end_time": 9.331818181818182,
                "pitch": 62,
                "velocity": 51,
                "duration": 0.28409090909091006,
                "tempo": 120.0
            },
            {
                "start_time": 9.347727272727273,
                "end_time": 9.634090909090908,
                "pitch": 57,
                "velocity": 51,
                "duration": 0.28636363636363527,
                "tempo": 120.0
            },
            {
                "start_time": 9.65,
                "end_time": 9.934090909090909,
                "pitch": 65,
                "velocity": 51,
                "duration": 0.2840909090909083,
                "tempo": 120.0
            },
            {
                "start_time": 9.95,
                "end_time": 10.23409090909091,
                "pitch": 62,
                "velocity": 51,
                "duration": 0.28409090909091006,
                "tempo": 120.0
            },
            {
                "start_time": 10.252272727272727,
                "end_time": 10.536363636363635,
                "pitch": 69,
                "velocity": 51,
                "duration": 0.2840909090909083,
                "tempo": 120.0
            },
            {
                "start_time": 10.552272727272726,
                "end_time": 10.827272727272726,
                "pitch": 65,
                "velocity": 51,
                "duration": 0.27500000000000036,
                "tempo": 120.0
            },
            {
                "start_time": 10.843181818181817,
                "end_time": 11.129545454545454,
                "pitch": 62,
                "velocity": 51,
                "duration": 0.28636363636363704,
                "tempo": 120.0
            },
            {
                "start_time": 11.145454545454545,
                "end_time": 11.438636363636363,
                "pitch": 65,
                "velocity": 51,
                "duration": 0.293181818181818,
                "tempo": 120.0
            },
            {
                "start_time": 11.456818181818182,
                "end_time": 11.74090909090909,
                "pitch": 69,
                "velocity": 51,
                "duration": 0.2840909090909083,
                "tempo": 120.0
            },
            {
                "start_time": 11.756818181818181,
                "end_time": 12.031818181818181,
                "pitch": 65,
                "velocity": 51,
                "duration": 0.27500000000000036,
                "tempo": 120.0
            },
            {
                "start_time": 12.049999999999999,
                "end_time": 12.331818181818182,
                "pitch": 62,
                "velocity": 51,
                "duration": 0.2818181818181831,
                "tempo": 120.0
            },
            {
                "start_time": 12.35,
                "end_time": 12.643181818181818,
                "pitch": 65,
                "velocity": 51,
                "duration": 0.293181818181818,
                "tempo": 120.0
            },
            {
                "start_time": 12.659090909090908,
                "end_time": 12.943181818181818,
                "pitch": 72,
                "velocity": 51,
                "duration": 0.28409090909091006,
                "tempo": 120.0
            },
            {
                "start_time": 12.959090909090909,
                "end_time": 13.234090909090908,
                "pitch": 67,
                "velocity": 51,
                "duration": 0.2749999999999986,
                "tempo": 120.0
            },
            {
                "start_time": 13.252272727272727,
                "end_time": 13.536363636363635,
                "pitch": 64,
                "velocity": 51,
                "duration": 0.2840909090909083,
                "tempo": 120.0
            },
            {
                "start_time": 13.552272727272726,
                "end_time": 13.845454545454544,
                "pitch": 67,
                "velocity": 51,
                "duration": 0.293181818181818,
                "tempo": 120.0
            },
            {
                "start_time": 13.863636363636363,
                "end_time": 14.147727272727272,
                "pitch": 72,
                "velocity": 51,
                "duration": 0.2840909090909083,
                "tempo": 120.0
            },
            {
                "start_time": 14.165909090909091,
                "end_time": 14.44090909090909,
                "pitch": 67,
                "velocity": 51,
                "duration": 0.2749999999999986,
                "tempo": 120.0
            },
            {
                "start_time": 14.45681818181818,
                "end_time": 14.75,
                "pitch": 64,
                "velocity": 51,
                "duration": 0.29318181818181976,
                "tempo": 120.0
            },
            {
                "start_time": 14.76590909090909,
                "end_time": 15.052272727272726,
                "pitch": 60,
                "velocity": 51,
                "duration": 0.28636363636363527,
                "tempo": 120.0
            },
            {
                "start_time": 15.068181818181817,
                "end_time": 15.352272727272727,
                "pitch": 72,
                "velocity": 51,
                "duration": 0.28409090909091006,
                "tempo": 120.0
            },
            {
                "start_time": 15.368181818181817,
                "end_time": 15.643181818181818,
                "pitch": 67,
                "velocity": 51,
                "duration": 0.27500000000000036,
                "tempo": 120.0
            },
            {
                "start_time": 15.659090909090908,
                "end_time": 15.952272727272726,
                "pitch": 64,
                "velocity": 51,
                "duration": 0.293181818181818,
                "tempo": 120.0
            },
            {
                "start_time": 15.970454545454544,
                "end_time": 16.254545454545454,
                "pitch": 67,
                "velocity": 51,
                "duration": 0.28409090909091006,
                "tempo": 120.0
            },
            {
                "start_time": 16.272727272727273,
                "end_time": 16.554545454545455,
                "pitch": 72,
                "velocity": 51,
                "duration": 0.2818181818181813,
                "tempo": 120.0
            },
            {
                "start_time": 16.57272727272727,
                "end_time": 16.847727272727273,
                "pitch": 67,
                "velocity": 51,
                "duration": 0.27500000000000213,
                "tempo": 120.0
            },
            {
                "start_time": 16.863636363636363,
                "end_time": 17.145454545454545,
                "pitch": 64,
                "velocity": 51,
                "duration": 0.2818181818181813,
                "tempo": 120.0
            },
            {
                "start_time": 17.163636363636364,
                "end_time": 17.456818181818182,
                "pitch": 60,
                "velocity": 51,
                "duration": 0.293181818181818,
                "tempo": 120.0
            },
            {
                "start_time": 17.472727272727273,
                "end_time": 17.74772727272727,
                "pitch": 64,
                "velocity": 51,
                "duration": 0.2749999999999986,
                "tempo": 120.0
            },
            {
                "start_time": 17.76590909090909,
                "end_time": 18.05909090909091,
                "pitch": 60,
                "velocity": 51,
                "duration": 0.293181818181818,
                "tempo": 120.0
            },
            {
                "start_time": 18.075,
                "end_time": 18.349999999999998,
                "pitch": 57,
                "velocity": 51,
                "duration": 0.2749999999999986,
                "tempo": 120.0
            },
            {
                "start_time": 18.36590909090909,
                "end_time": 18.952272727272728,
                "pitch": 62,
                "velocity": 51,
                "duration": 0.5863636363636395,
                "tempo": 120.0
            },
            {
                "start_time": 18.96818181818182,
                "end_time": 19.252272727272725,
                "pitch": 57,
                "velocity": 51,
                "duration": 0.2840909090909065,
                "tempo": 120.0
            },
            {
                "start_time": 19.270454545454545,
                "end_time": 19.563636363636363,
                "pitch": 65,
                "velocity": 51,
                "duration": 0.293181818181818,
                "tempo": 120.0
            },
            {
                "start_time": 19.579545454545453,
                "end_time": 19.854545454545452,
                "pitch": 62,
                "velocity": 51,
                "duration": 0.2749999999999986,
                "tempo": 120.0
            },
            {
                "start_time": 19.870454545454546,
                "end_time": 20.163636363636364,
                "pitch": 69,
                "velocity": 51,
                "duration": 0.293181818181818,
                "tempo": 120.0
            },
            {
                "start_time": 20.18181818181818,
                "end_time": 20.456818181818182,
                "pitch": 65,
                "velocity": 51,
                "duration": 0.27500000000000213,
                "tempo": 120.0
            },
            {
                "start_time": 20.472727272727273,
                "end_time": 20.76590909090909,
                "pitch": 62,
                "velocity": 51,
                "duration": 0.293181818181818,
                "tempo": 120.0
            },
            {
                "start_time": 20.784090909090907,
                "end_time": 21.06590909090909,
                "pitch": 65,
                "velocity": 51,
                "duration": 0.28181818181818485,
                "tempo": 120.0
            },
            {
                "start_time": 21.084090909090907,
                "end_time": 21.368181818181817,
                "pitch": 69,
                "velocity": 51,
                "duration": 0.28409090909091006,
                "tempo": 120.0
            },
            {
                "start_time": 21.384090909090908,
                "end_time": 21.659090909090907,
                "pitch": 65,
                "velocity": 51,
                "duration": 0.2749999999999986,
                "tempo": 120.0
            },
            {
                "start_time": 21.675,
                "end_time": 21.970454545454544,
                "pitch": 62,
                "velocity": 51,
                "duration": 0.2954545454545432,
                "tempo": 120.0
            },
            {
                "start_time": 21.986363636363635,
                "end_time": 22.270454545454545,
                "pitch": 65,
                "velocity": 51,
                "duration": 0.28409090909091006,
                "tempo": 120.0
            },
            {
                "start_time": 22.288636363636364,
                "end_time": 22.563636363636363,
                "pitch": 64,
                "velocity": 51,
                "duration": 0.2749999999999986,
                "tempo": 120.0
            },
            {
                "start_time": 22.88181818181818,
                "end_time": 23.174999999999997,
                "pitch": 60,
                "velocity": 51,
                "duration": 0.293181818181818,
                "tempo": 120.0
            },
            {
                "start_time": 24.086363636363636,
                "end_time": 24.370454545454546,
                "pitch": 57,
                "velocity": 51,
                "duration": 0.28409090909091006,
                "tempo": 120.0
            },
            {
                "start_time": 24.686363636363634,
                "end_time": 24.98181818181818,
                "pitch": 64,
                "velocity": 51,
                "duration": 0.29545454545454675,
                "tempo": 120.0
            },
            {
                "start_time": 24.99772727272727,
                "end_time": 25.27272727272727,
                "pitch": 60,
                "velocity": 51,
                "duration": 0.2749999999999986,
                "tempo": 120.0
            },
            {
                "start_time": 25.288636363636364,
                "end_time": 25.575,
                "pitch": 57,
                "velocity": 51,
                "duration": 0.28636363636363527,
                "tempo": 120.0
            },
            {
                "start_time": 25.59090909090909,
                "end_time": 25.875,
                "pitch": 65,
                "velocity": 51,
                "duration": 0.28409090909091006,
                "tempo": 120.0
            },
            {
                "start_time": 25.893181818181816,
                "end_time": 26.174999999999997,
                "pitch": 62,
                "velocity": 51,
                "duration": 0.2818181818181813,
                "tempo": 120.0
            },
            {
                "start_time": 26.193181818181817,
                "end_time": 26.477272727272727,
                "pitch": 57,
                "velocity": 51,
                "duration": 0.28409090909091006,
                "tempo": 120.0
            },
            {
                "start_time": 26.493181818181817,
                "end_time": 26.777272727272727,
                "pitch": 53,
                "velocity": 51,
                "duration": 0.28409090909091006,
                "tempo": 120.0
            },
            {
                "start_time": 26.795454545454543,
                "end_time": 27.079545454545453,
                "pitch": 57,
                "velocity": 51,
                "duration": 0.28409090909091006,
                "tempo": 120.0
            },
            {
                "start_time": 27.097727272727273,
                "end_time": 27.38181818181818,
                "pitch": 50,
                "velocity": 51,
                "duration": 0.2840909090909065,
                "tempo": 120.0
            },
            {
                "start_time": 27.39772727272727,
                "end_time": 27.68181818181818,
                "pitch": 52,
                "velocity": 51,
                "duration": 0.28409090909091006,
                "tempo": 120.0
            },
            {
                "start_time": 27.69772727272727,
                "end_time": 27.99090909090909,
                "pitch": 53,
                "velocity": 51,
                "duration": 0.293181818181818,
                "tempo": 120.0
            },
            {
                "start_time": 28.009090909090908,
                "end_time": 28.284090909090907,
                "pitch": 57,
                "velocity": 51,
                "duration": 0.2749999999999986,
                "tempo": 120.0
            },
            {
                "start_time": 28.299999999999997,
                "end_time": 28.593181818181815,
                "pitch": 62,
                "velocity": 51,
                "duration": 0.293181818181818,
                "tempo": 120.0
            },
            {
                "start_time": 28.611363636363635,
                "end_time": 28.895454545454545,
                "pitch": 64,
                "velocity": 51,
                "duration": 0.28409090909091006,
                "tempo": 120.0
            },
            {
                "start_time": 28.911363636363635,
                "end_time": 29.19772727272727,
                "pitch": 65,
                "velocity": 51,
                "duration": 0.28636363636363527,
                "tempo": 120.0
            },
            {
                "start_time": 29.21363636363636,
                "end_time": 29.38181818181818,
                "pitch": 69,
                "velocity": 51,
                "duration": 0.168181818181818,
                "tempo": 120.0
            }
        ]
    }
}