{
    "track_id": "Ys (FM) - 01 - Feena",
    "mood": "relaxed",
    "instruments": {
        "Electric Piano 1": [
            {
                "start_time": 64.39090909090909,
                "end_time": 64.72954545454544,
                "pitch": 66,
                "velocity": 101,
                "duration": 0.3386363636363541,
                "tempo": 120.0
            },
            {
                "start_time": 64.79772727272727,
                "end_time": 65.1340909090909,
                "pitch": 64,
                "velocity": 101,
                "duration": 0.33636363636362887,
                "tempo": 120.0
            },
            {
                "start_time": 65.20227272727273,
                "end_time": 65.54090909090908,
                "pitch": 66,
                "velocity": 101,
                "duration": 0.3386363636363541,
                "tempo": 120.0
            },
            {
                "start_time": 65.60681818181818,
                "end_time": 65.94545454545454,
                "pitch": 71,
                "velocity": 101,
                "duration": 0.3386363636363541,
                "tempo": 120.0
            },
            {
                "start_time": 66.01363636363637,
                "end_time": 69.16818181818182,
                "pitch": 66,
                "velocity": 101,
                "duration": 3.154545454545456,
                "tempo": 120.0
            },
            {
                "start_time": 69.23409090909091,
                "end_time": 70.76818181818182,
                "pitch": 64,
                "velocity": 101,
                "duration": 1.5340909090909065,
                "tempo": 120.0
            },
            {
                "start_time": 70.8340909090909,
                "end_time": 71.17272727272727,
                "pitch": 66,
                "velocity": 101,
                "duration": 0.3386363636363683,
                "tempo": 120.0
            },
            {
                "start_time": 71.23863636363636,
                "end_time": 71.57727272727273,
                "pitch": 64,
                "velocity": 101,
                "duration": 0.3386363636363683,
                "tempo": 120.0
            },
            {
                "start_time": 71.64545454545454,
                "end_time": 71.98181818181818,
                "pitch": 66,
                "velocity": 101,
                "duration": 0.3363636363636431,
                "tempo": 120.0
            },
            {
                "start_time": 72.05,
                "end_time": 72.38863636363637,
                "pitch": 71,
                "velocity": 101,
                "duration": 0.3386363636363683,
                "tempo": 120.0
            },
            {
                "start_time": 72.45681818181818,
                "end_time": 75.60909090909091,
                "pitch": 66,
                "velocity": 101,
                "duration": 3.152272727272731,
                "tempo": 120.0
            },
            {
                "start_time": 75.67727272727272,
                "end_time": 77.21136363636363,
                "pitch": 62,
                "velocity": 101,
                "duration": 1.5340909090909065,
                "tempo": 120.0
            },
            {
                "start_time": 77.27727272727272,
                "end_time": 78.83181818181818,
                "pitch": 64,
                "velocity": 101,
                "duration": 1.5545454545454618,
                "tempo": 120.0
            },
            {
                "start_time": 78.89772727272727,
                "end_time": 85.25454545454545,
                "pitch": 69,
                "velocity": 101,
                "duration": 6.356818181818184,
                "tempo": 120.0
            },
            {
                "start_time": 90.12045454545454,
                "end_time": 90.4590909090909,
                "pitch": 66,
                "velocity": 101,
                "duration": 0.3386363636363683,
                "tempo": 120.0
            },
            {
                "start_time": 90.52499999999999,
                "end_time": 90.86363636363636,
                "pitch": 64,
                "velocity": 101,
                "duration": 0.3386363636363683,
                "tempo": 120.0
            },
            {
                "start_time": 90.93181818181817,
                "end_time": 91.26818181818182,
                "pitch": 66,
                "velocity": 101,
                "duration": 0.3363636363636431,
                "tempo": 120.0
            },
            {
                "start_time": 91.33636363636363,
                "end_time": 91.675,
                "pitch": 71,
                "velocity": 101,
                "duration": 0.3386363636363683,
                "tempo": 120.0
            },
            {
                "start_time": 91.74318181818181,
                "end_time": 94.875,
                "pitch": 66,
                "velocity": 101,
                "duration": 3.13181818181819,
                "tempo": 120.0
            },
            {
                "start_time": 94.94318181818181,
                "end_time": 96.49545454545454,
                "pitch": 64,
                "velocity": 101,
                "duration": 1.5522727272727224,
                "tempo": 120.0
            },
            {
                "start_time": 96.56363636363636,
                "end_time": 96.89772727272727,
                "pitch": 66,
                "velocity": 101,
                "duration": 0.33409090909090366,
                "tempo": 120.0
            },
            {
                "start_time": 96.96363636363635,
                "end_time": 97.29772727272727,
                "pitch": 64,
                "velocity": 101,
                "duration": 0.3340909090909179,
                "tempo": 120.0
            },
            {
                "start_time": 97.36363636363636,
                "end_time": 97.69772727272726,
                "pitch": 66,
                "velocity": 101,
                "duration": 0.33409090909090366,
                "tempo": 120.0
            },
            {
                "start_time": 97.76363636363637,
                "end_time": 98.09772727272727,
                "pitch": 71,
                "velocity": 101,
                "duration": 0.33409090909090366,
                "tempo": 120.0
            },
            {
                "start_time": 98.16363636363636,
                "end_time": 101.31818181818181,
                "pitch": 66,
                "velocity": 101,
                "duration": 3.154545454545456,
                "tempo": 120.0
            },
            {
                "start_time": 101.38636363636363,
                "end_time": 102.91818181818181,
                "pitch": 62,
                "velocity": 101,
                "duration": 1.5318181818181813,
                "tempo": 120.0
            },
            {
                "start_time": 102.98636363636363,
                "end_time": 104.53863636363636,
                "pitch": 64,
                "velocity": 101,
                "duration": 1.5522727272727224,
                "tempo": 120.0
            },
            {
                "start_time": 104.60681818181817,
                "end_time": 107.76136363636363,
                "pitch": 57,
                "velocity": 101,
                "duration": 3.154545454545456,
                "tempo": 120.0
            },
            {
                "start_time": 107.82727272727273,
                "end_time": 109.36136363636363,
                "pitch": 60,
                "velocity": 101,
                "duration": 1.5340909090909065,
                "tempo": 120.0
            },
            {
                "start_time": 109.42727272727272,
                "end_time": 110.96136363636363,
                "pitch": 64,
                "velocity": 101,
                "duration": 1.5340909090909065,
                "tempo": 120.0
            },
            {
                "start_time": 111.02727272727272,
                "end_time": 114.1840909090909,
                "pitch": 57,
                "velocity": 101,
                "duration": 3.1568181818181813,
                "tempo": 120.0
            },
            {
                "start_time": 114.25,
                "end_time": 115.80454545454545,
                "pitch": 62,
                "velocity": 101,
                "duration": 1.5545454545454476,
                "tempo": 120.0
            },
            {
                "start_time": 115.87045454545454,
                "end_time": 128.6909090909091,
                "pitch": 59,
                "velocity": 101,
                "duration": 12.820454545454552,
                "tempo": 120.0
            },
            {
                "start_time": 141.62272727272727,
                "end_time": 141.95681818181816,
                "pitch": 64,
                "velocity": 101,
                "duration": 0.33409090909088945,
                "tempo": 120.0
            },
            {
                "start_time": 142.02272727272725,
                "end_time": 142.35681818181817,
                "pitch": 62,
                "velocity": 101,
                "duration": 0.3340909090909179,
                "tempo": 120.0
            },
            {
                "start_time": 142.42272727272726,
                "end_time": 144.75681818181818,
                "pitch": 64,
                "velocity": 101,
                "duration": 2.334090909090918,
                "tempo": 120.0
            },
            {
                "start_time": 144.82272727272726,
                "end_time": 145.5659090909091,
                "pitch": 57,
                "velocity": 101,
                "duration": 0.7431818181818244,
                "tempo": 120.0
            },
            {
                "start_time": 145.6340909090909,
                "end_time": 146.37727272727273,
                "pitch": 59,
                "velocity": 101,
                "duration": 0.7431818181818244,
                "tempo": 120.0
            },
            {
                "start_time": 146.44545454545454,
                "end_time": 147.1772727272727,
                "pitch": 60,
                "velocity": 101,
                "duration": 0.7318181818181699,
                "tempo": 120.0
            },
            {
                "start_time": 147.24545454545455,
                "end_time": 147.97727272727272,
                "pitch": 62,
                "velocity": 101,
                "duration": 0.7318181818181699,
                "tempo": 120.0
            },
            {
                "start_time": 148.04545454545453,
                "end_time": 148.38181818181818,
                "pitch": 64,
                "velocity": 101,
                "duration": 0.3363636363636431,
                "tempo": 120.0
            },
            {
                "start_time": 148.45,
                "end_time": 148.78863636363636,
                "pitch": 62,
                "velocity": 101,
                "duration": 0.3386363636363683,
                "tempo": 120.0
            },
            {
                "start_time": 148.85454545454544,
                "end_time": 151.17954545454543,
                "pitch": 64,
                "velocity": 101,
                "duration": 2.3249999999999886,
                "tempo": 120.0
            },
            {
                "start_time": 151.24545454545455,
                "end_time": 151.98863636363635,
                "pitch": 57,
                "velocity": 101,
                "duration": 0.743181818181796,
                "tempo": 120.0
            },
            {
                "start_time": 152.05454545454543,
                "end_time": 152.79772727272726,
                "pitch": 59,
                "velocity": 101,
                "duration": 0.7431818181818244,
                "tempo": 120.0
            },
            {
                "start_time": 152.86590909090907,
                "end_time": 153.6090909090909,
                "pitch": 60,
                "velocity": 101,
                "duration": 0.7431818181818244,
                "tempo": 120.0
            },
            {
                "start_time": 153.6772727272727,
                "end_time": 154.42045454545453,
                "pitch": 64,
                "velocity": 101,
                "duration": 0.7431818181818244,
                "tempo": 120.0
            },
            {
                "start_time": 154.48863636363635,
                "end_time": 154.825,
                "pitch": 62,
                "velocity": 101,
                "duration": 0.3363636363636431,
                "tempo": 120.0
            },
            {
                "start_time": 154.8931818181818,
                "end_time": 155.23181818181817,
                "pitch": 60,
                "velocity": 101,
                "duration": 0.3386363636363683,
                "tempo": 120.0
            },
            {
                "start_time": 155.29772727272726,
                "end_time": 157.6431818181818,
                "pitch": 62,
                "velocity": 101,
                "duration": 2.345454545454544,
                "tempo": 120.0
            },
            {
                "start_time": 157.7090909090909,
                "end_time": 158.4431818181818,
                "pitch": 55,
                "velocity": 101,
                "duration": 0.7340909090909236,
                "tempo": 120.0
            },
            {
                "start_time": 158.5090909090909,
                "end_time": 159.24318181818182,
                "pitch": 57,
                "velocity": 101,
                "duration": 0.7340909090909236,
                "tempo": 120.0
            },
            {
                "start_time": 159.3090909090909,
                "end_time": 160.0431818181818,
                "pitch": 59,
                "velocity": 101,
                "duration": 0.7340909090908951,
                "tempo": 120.0
            },
            {
                "start_time": 160.1090909090909,
                "end_time": 160.84318181818182,
                "pitch": 60,
                "velocity": 101,
                "duration": 0.7340909090909236,
                "tempo": 120.0
            },
            {
                "start_time": 160.9090909090909,
                "end_time": 161.24772727272727,
                "pitch": 62,
                "velocity": 101,
                "duration": 0.3386363636363683,
                "tempo": 120.0
            },
            {
                "start_time": 161.31363636363636,
                "end_time": 161.65227272727273,
                "pitch": 60,
                "velocity": 101,
                "duration": 0.3386363636363683,
                "tempo": 120.0
            },
            {
                "start_time": 161.72045454545454,
                "end_time": 164.06363636363636,
                "pitch": 62,
                "velocity": 101,
                "duration": 2.3431818181818187,
                "tempo": 120.0
            },
            {
                "start_time": 164.13181818181818,
                "end_time": 164.86363636363635,
                "pitch": 55,
                "velocity": 101,
                "duration": 0.7318181818181699,
                "tempo": 120.0
            },
            {
                "start_time": 164.9318181818182,
                "end_time": 165.66363636363636,
                "pitch": 57,
                "velocity": 101,
                "duration": 0.7318181818181699,
                "tempo": 120.0
            },
            {
                "start_time": 165.73181818181817,
                "end_time": 166.46363636363637,
                "pitch": 59,
                "velocity": 101,
                "duration": 0.7318181818181984,
                "tempo": 120.0
            },
            {
                "start_time": 166.53181818181818,
                "end_time": 167.26363636363635,
                "pitch": 62,
                "velocity": 101,
                "duration": 0.7318181818181699,
                "tempo": 120.0
            },
            {
                "start_time": 167.33181818181816,
                "end_time": 167.6681818181818,
                "pitch": 64,
                "velocity": 101,
                "duration": 0.3363636363636431,
                "tempo": 120.0
            },
            {
                "start_time": 167.73636363636362,
                "end_time": 168.07272727272726,
                "pitch": 62,
                "velocity": 101,
                "duration": 0.3363636363636431,
                "tempo": 120.0
            },
            {
                "start_time": 168.14090909090908,
                "end_time": 170.4659090909091,
                "pitch": 64,
                "velocity": 101,
                "duration": 2.325000000000017,
                "tempo": 120.0
            },
            {
                "start_time": 170.52954545454546,
                "end_time": 171.27272727272725,
                "pitch": 57,
                "velocity": 101,
                "duration": 0.743181818181796,
                "tempo": 120.0
            },
            {
                "start_time": 171.3409090909091,
                "end_time": 172.0840909090909,
                "pitch": 59,
                "velocity": 101,
                "duration": 0.743181818181796,
                "tempo": 120.0
            },
            {
                "start_time": 172.15227272727273,
                "end_time": 172.88636363636363,
                "pitch": 60,
                "velocity": 101,
                "duration": 0.7340909090908951,
                "tempo": 120.0
            },
            {
                "start_time": 172.9522727272727,
                "end_time": 173.68636363636364,
                "pitch": 62,
                "velocity": 101,
                "duration": 0.7340909090909236,
                "tempo": 120.0
            },
            {
                "start_time": 173.75227272727273,
                "end_time": 174.0909090909091,
                "pitch": 64,
                "velocity": 101,
                "duration": 0.3386363636363683,
                "tempo": 120.0
            },
            {
                "start_time": 174.15681818181818,
                "end_time": 174.49545454545455,
                "pitch": 62,
                "velocity": 101,
                "duration": 0.3386363636363683,
                "tempo": 120.0
            },
            {
                "start_time": 174.56363636363636,
                "end_time": 176.88636363636363,
                "pitch": 64,
                "velocity": 101,
                "duration": 2.3227272727272634,
                "tempo": 120.0
            },
            {
                "start_time": 176.9522727272727,
                "end_time": 177.69545454545454,
                "pitch": 57,
                "velocity": 101,
                "duration": 0.7431818181818244,
                "tempo": 120.0
            },
            {
                "start_time": 177.76363636363635,
                "end_time": 178.50681818181818,
                "pitch": 59,
                "velocity": 101,
                "duration": 0.7431818181818244,
                "tempo": 120.0
            },
            {
                "start_time": 178.57272727272726,
                "end_time": 179.3068181818182,
                "pitch": 60,
                "velocity": 101,
                "duration": 0.7340909090909236,
                "tempo": 120.0
            }
        ],
        "Church Organ": [
            {
                "start_time": 0.05909090909090909,
                "end_time": 0.325,
                "pitch": 66,
                "velocity": 51,
                "duration": 0.26590909090909093,
                "tempo": 120.0
            },
            {
                "start_time": 0.3909090909090909,
                "end_time": 1.9249999999999998,
                "pitch": 71,
                "velocity": 51,
                "duration": 1.534090909090909,
                "tempo": 120.0
            },
            {
                "start_time": 1.9909090909090907,
                "end_time": 3.5159090909090907,
                "pitch": 69,
                "velocity": 51,
                "duration": 1.525,
                "tempo": 120.0
            },
            {
                "start_time": 3.5795454545454546,
                "end_time": 5.095454545454545,
                "pitch": 68,
                "velocity": 51,
                "duration": 1.5159090909090902,
                "tempo": 120.0
            },
            {
                "start_time": 5.163636363636363,
                "end_time": 6.7295454545454545,
                "pitch": 66,
                "velocity": 51,
                "duration": 1.5659090909090914,
                "tempo": 120.0
            },
            {
                "start_time": 6.793181818181818,
                "end_time": 8.284090909090908,
                "pitch": 69,
                "velocity": 51,
                "duration": 1.4909090909090903,
                "tempo": 120.0
            },
            {
                "start_time": 8.35,
                "end_time": 9.888636363636364,
                "pitch": 68,
                "velocity": 51,
                "duration": 1.538636363636364,
                "tempo": 120.0
            },
            {
                "start_time": 9.956818181818182,
                "end_time": 11.504545454545454,
                "pitch": 66,
                "velocity": 51,
                "duration": 1.547727272727272,
                "tempo": 120.0
            },
            {
                "start_time": 11.572727272727272,
                "end_time": 13.104545454545454,
                "pitch": 64,
                "velocity": 51,
                "duration": 1.5318181818181813,
                "tempo": 120.0
            },
            {
                "start_time": 13.172727272727272,
                "end_time": 14.704545454545453,
                "pitch": 71,
                "velocity": 51,
                "duration": 1.5318181818181813,
                "tempo": 120.0
            },
            {
                "start_time": 14.772727272727272,
                "end_time": 16.311363636363634,
                "pitch": 69,
                "velocity": 51,
                "duration": 1.5386363636363622,
                "tempo": 120.0
            },
            {
                "start_time": 16.377272727272725,
                "end_time": 17.927272727272726,
                "pitch": 68,
                "velocity": 51,
                "duration": 1.5500000000000007,
                "tempo": 120.0
            },
            {
                "start_time": 17.993181818181817,
                "end_time": 19.53181818181818,
                "pitch": 66,
                "velocity": 51,
                "duration": 1.538636363636364,
                "tempo": 120.0
            },
            {
                "start_time": 19.599999999999998,
                "end_time": 21.154545454545453,
                "pitch": 69,
                "velocity": 51,
                "duration": 1.5545454545454547,
                "tempo": 120.0
            },
            {
                "start_time": 21.220454545454544,
                "end_time": 22.770454545454545,
                "pitch": 68,
                "velocity": 51,
                "duration": 1.5500000000000007,
                "tempo": 120.0
            },
            {
                "start_time": 22.836363636363636,
                "end_time": 24.375,
                "pitch": 66,
                "velocity": 51,
                "duration": 1.538636363636364,
                "tempo": 120.0
            },
            {
                "start_time": 24.443181818181817,
                "end_time": 25.99090909090909,
                "pitch": 64,
                "velocity": 51,
                "duration": 1.547727272727272,
                "tempo": 120.0
            },
            {
                "start_time": 26.05909090909091,
                "end_time": 29.21363636363636,
                "pitch": 64,
                "velocity": 51,
                "duration": 3.1545454545454525,
                "tempo": 120.0
            },
            {
                "start_time": 29.279545454545453,
                "end_time": 32.45227272727273,
                "pitch": 63,
                "velocity": 51,
                "duration": 3.1727272727272755,
                "tempo": 120.0
            },
            {
                "start_time": 32.52272727272727,
                "end_time": 35.67272727272727,
                "pitch": 61,
                "velocity": 51,
                "duration": 3.1499999999999986,
                "tempo": 120.0
            },
            {
                "start_time": 35.74318181818182,
                "end_time": 38.97272727272727,
                "pitch": 63,
                "velocity": 51,
                "duration": 3.229545454545452,
                "tempo": 120.0
            },
            {
                "start_time": 39.04090909090909,
                "end_time": 42.13181818181818,
                "pitch": 64,
                "velocity": 51,
                "duration": 3.0909090909090935,
                "tempo": 120.0
            },
            {
                "start_time": 42.199999999999996,
                "end_time": 45.402272727272724,
                "pitch": 63,
                "velocity": 51,
                "duration": 3.202272727272728,
                "tempo": 120.0
            },
            {
                "start_time": 45.470454545454544,
                "end_time": 48.60681818181818,
                "pitch": 61,
                "velocity": 51,
                "duration": 3.136363636363633,
                "tempo": 120.0
            },
            {
                "start_time": 48.675,
                "end_time": 51.820454545454545,
                "pitch": 63,
                "velocity": 51,
                "duration": 3.145454545454548,
                "tempo": 120.0
            }
        ],
        "Trumpet": [
            {
                "start_time": 51.48181818181818,
                "end_time": 57.92272727272727,
                "pitch": 40,
                "velocity": 64,
                "duration": 6.440909090909095,
                "tempo": 120.0
            },
            {
                "start_time": 57.990909090909085,
                "end_time": 64.325,
                "pitch": 40,
                "velocity": 64,
                "duration": 6.334090909090918,
                "tempo": 120.0
            },
            {
                "start_time": 64.39090909090909,
                "end_time": 70.76818181818182,
                "pitch": 40,
                "velocity": 64,
                "duration": 6.377272727272725,
                "tempo": 120.0
            },
            {
                "start_time": 70.8340909090909,
                "end_time": 77.21136363636363,
                "pitch": 40,
                "velocity": 64,
                "duration": 6.377272727272725,
                "tempo": 120.0
            },
            {
                "start_time": 77.27727272727272,
                "end_time": 83.67272727272727,
                "pitch": 41,
                "velocity": 64,
                "duration": 6.395454545454555,
                "tempo": 120.0
            },
            {
                "start_time": 83.74090909090908,
                "end_time": 90.05454545454545,
                "pitch": 41,
                "velocity": 64,
                "duration": 6.313636363636363,
                "tempo": 120.0
            },
            {
                "start_time": 90.12045454545454,
                "end_time": 96.49545454545454,
                "pitch": 40,
                "velocity": 64,
                "duration": 6.375,
                "tempo": 120.0
            },
            {
                "start_time": 96.56363636363636,
                "end_time": 102.91818181818181,
                "pitch": 40,
                "velocity": 64,
                "duration": 6.354545454545445,
                "tempo": 120.0
            },
            {
                "start_time": 102.98636363636363,
                "end_time": 109.36136363636363,
                "pitch": 41,
                "velocity": 64,
                "duration": 6.375,
                "tempo": 120.0
            },
            {
                "start_time": 109.42727272727272,
                "end_time": 115.80454545454545,
                "pitch": 41,
                "velocity": 64,
                "duration": 6.377272727272725,
                "tempo": 120.0
            },
            {
                "start_time": 115.87045454545454,
                "end_time": 122.24772727272726,
                "pitch": 40,
                "velocity": 64,
                "duration": 6.377272727272725,
                "tempo": 120.0
            },
            {
                "start_time": 122.31363636363636,
                "end_time": 128.6909090909091,
                "pitch": 40,
                "velocity": 51,
                "duration": 6.377272727272725,
                "tempo": 120.0
            },
            {
                "start_time": 128.75681818181818,
                "end_time": 135.15454545454546,
                "pitch": 40,
                "velocity": 40,
                "duration": 6.3977272727272805,
                "tempo": 120.0
            },
            {
                "start_time": 135.22272727272727,
                "end_time": 141.5568181818182,
                "pitch": 40,
                "velocity": 32,
                "duration": 6.334090909090918,
                "tempo": 120.0
            },
            {
                "start_time": 141.62272727272727,
                "end_time": 147.97727272727272,
                "pitch": 41,
                "velocity": 64,
                "duration": 6.354545454545445,
                "tempo": 120.0
            },
            {
                "start_time": 148.04545454545453,
                "end_time": 154.42045454545453,
                "pitch": 41,
                "velocity": 64,
                "duration": 6.375,
                "tempo": 120.0
            },
            {
                "start_time": 154.48863636363635,
                "end_time": 160.84318181818182,
                "pitch": 40,
                "velocity": 64,
                "duration": 6.354545454545473,
                "tempo": 120.0
            },
            {
                "start_time": 160.9090909090909,
                "end_time": 167.26363636363635,
                "pitch": 40,
                "velocity": 64,
                "duration": 6.354545454545445,
                "tempo": 120.0
            },
            {
                "start_time": 167.33181818181816,
                "end_time": 173.68636363636364,
                "pitch": 41,
                "velocity": 64,
                "duration": 6.354545454545473,
                "tempo": 120.0
            }
        ],
        "Acoustic Grand Piano": [
            {
                "start_time": 53.10454545454545,
                "end_time": 53.44090909090909,
                "pitch": 55,
                "velocity": 51,
                "duration": 0.336363636363636,
                "tempo": 120.0
            },
            {
                "start_time": 53.50909090909091,
                "end_time": 54.252272727272725,
                "pitch": 55,
                "velocity": 51,
                "duration": 0.7431818181818173,
                "tempo": 120.0
            },
            {
                "start_time": 54.320454545454545,
                "end_time": 57.92272727272727,
                "pitch": 55,
                "velocity": 51,
                "duration": 3.6022727272727266,
                "tempo": 120.0
            },
            {
                "start_time": 59.590909090909086,
                "end_time": 59.92045454545454,
                "pitch": 55,
                "velocity": 51,
                "duration": 0.32954545454545325,
                "tempo": 120.0
            },
            {
                "start_time": 59.986363636363635,
                "end_time": 60.709090909090904,
                "pitch": 55,
                "velocity": 51,
                "duration": 0.7227272727272691,
                "tempo": 120.0
            },
            {
                "start_time": 60.775,
                "end_time": 64.325,
                "pitch": 55,
                "velocity": 51,
                "duration": 3.5500000000000043,
                "tempo": 120.0
            },
            {
                "start_time": 66.01363636363637,
                "end_time": 66.35,
                "pitch": 55,
                "velocity": 51,
                "duration": 0.33636363636362887,
                "tempo": 120.0
            },
            {
                "start_time": 66.41818181818182,
                "end_time": 67.16136363636363,
                "pitch": 55,
                "velocity": 51,
                "duration": 0.7431818181818102,
                "tempo": 120.0
            },
            {
                "start_time": 67.22954545454544,
                "end_time": 70.76818181818182,
                "pitch": 55,
                "velocity": 51,
                "duration": 3.538636363636371,
                "tempo": 120.0
            },
            {
                "start_time": 72.45681818181818,
                "end_time": 72.78863636363636,
                "pitch": 55,
                "velocity": 51,
                "duration": 0.33181818181817846,
                "tempo": 120.0
            },
            {
                "start_time": 72.85681818181818,
                "end_time": 73.58863636363635,
                "pitch": 55,
                "velocity": 51,
                "duration": 0.7318181818181699,
                "tempo": 120.0
            },
            {
                "start_time": 73.65681818181818,
                "end_time": 77.21136363636363,
                "pitch": 55,
                "velocity": 51,
                "duration": 3.5545454545454476,
                "tempo": 120.0
            },
            {
                "start_time": 78.89772727272727,
                "end_time": 79.23181818181818,
                "pitch": 55,
                "velocity": 51,
                "duration": 0.3340909090909179,
                "tempo": 120.0
            },
            {
                "start_time": 79.29772727272727,
                "end_time": 80.03181818181818,
                "pitch": 55,
                "velocity": 51,
                "duration": 0.7340909090909093,
                "tempo": 120.0
            },
            {
                "start_time": 80.09772727272727,
                "end_time": 83.67272727272727,
                "pitch": 55,
                "velocity": 51,
                "duration": 3.575000000000003,
                "tempo": 120.0
            },
            {
                "start_time": 85.32045454545454,
                "end_time": 85.65454545454546,
                "pitch": 55,
                "velocity": 51,
                "duration": 0.3340909090909179,
                "tempo": 120.0
            },
            {
                "start_time": 85.72045454545454,
                "end_time": 86.45454545454545,
                "pitch": 55,
                "velocity": 51,
                "duration": 0.7340909090909093,
                "tempo": 120.0
            },
            {
                "start_time": 86.52045454545454,
                "end_time": 90.05454545454545,
                "pitch": 55,
                "velocity": 51,
                "duration": 3.5340909090909065,
                "tempo": 120.0
            },
            {
                "start_time": 91.74318181818181,
                "end_time": 92.07499999999999,
                "pitch": 55,
                "velocity": 51,
                "duration": 0.33181818181817846,
                "tempo": 120.0
            },
            {
                "start_time": 92.14318181818182,
                "end_time": 92.875,
                "pitch": 55,
                "velocity": 51,
                "duration": 0.7318181818181841,
                "tempo": 120.0
            },
            {
                "start_time": 92.94318181818181,
                "end_time": 96.49545454545454,
                "pitch": 55,
                "velocity": 51,
                "duration": 3.5522727272727224,
                "tempo": 120.0
            },
            {
                "start_time": 98.16363636363636,
                "end_time": 98.50227272727273,
                "pitch": 55,
                "velocity": 51,
                "duration": 0.3386363636363683,
                "tempo": 120.0
            },
            {
                "start_time": 98.56818181818181,
                "end_time": 99.31136363636364,
                "pitch": 55,
                "velocity": 51,
                "duration": 0.7431818181818244,
                "tempo": 120.0
            },
            {
                "start_time": 99.37954545454545,
                "end_time": 102.91818181818181,
                "pitch": 55,
                "velocity": 51,
                "duration": 3.538636363636357,
                "tempo": 120.0
            },
            {
                "start_time": 104.60681818181817,
                "end_time": 104.94090909090909,
                "pitch": 55,
                "velocity": 51,
                "duration": 0.3340909090909179,
                "tempo": 120.0
            },
            {
                "start_time": 105.00681818181818,
                "end_time": 105.74090909090908,
                "pitch": 55,
                "velocity": 51,
                "duration": 0.7340909090909093,
                "tempo": 120.0
            },
            {
                "start_time": 105.80681818181817,
                "end_time": 109.36136363636363,
                "pitch": 55,
                "velocity": 51,
                "duration": 3.554545454545462,
                "tempo": 120.0
            },
            {
                "start_time": 111.02727272727272,
                "end_time": 111.36590909090908,
                "pitch": 55,
                "velocity": 51,
                "duration": 0.3386363636363683,
                "tempo": 120.0
            },
            {
                "start_time": 111.4340909090909,
                "end_time": 112.17727272727272,
                "pitch": 55,
                "velocity": 51,
                "duration": 0.7431818181818244,
                "tempo": 120.0
            },
            {
                "start_time": 112.24545454545454,
                "end_time": 115.80454545454545,
                "pitch": 55,
                "velocity": 51,
                "duration": 3.559090909090912,
                "tempo": 120.0
            },
            {
                "start_time": 115.87045454545454,
                "end_time": 122.24772727272726,
                "pitch": 54,
                "velocity": 51,
                "duration": 6.377272727272725,
                "tempo": 120.0
            },
            {
                "start_time": 122.31363636363636,
                "end_time": 128.6909090909091,
                "pitch": 54,
                "velocity": 40,
                "duration": 6.377272727272725,
                "tempo": 120.0
            },
            {
                "start_time": 128.75681818181818,
                "end_time": 135.15454545454546,
                "pitch": 54,
                "velocity": 32,
                "duration": 6.3977272727272805,
                "tempo": 120.0
            },
            {
                "start_time": 135.22272727272727,
                "end_time": 141.5568181818182,
                "pitch": 54,
                "velocity": 25,
                "duration": 6.334090909090918,
                "tempo": 120.0
            }
        ],
        "Flute": [
            {
                "start_time": 0.05909090909090909,
                "end_time": 6.345454545454545,
                "pitch": 64,
                "velocity": 51,
                "duration": 6.286363636363635,
                "tempo": 120.0
            },
            {
                "start_time": 6.409090909090909,
                "end_time": 12.704545454545453,
                "pitch": 64,
                "velocity": 51,
                "duration": 6.295454545454544,
                "tempo": 120.0
            },
            {
                "start_time": 12.772727272727272,
                "end_time": 19.127272727272725,
                "pitch": 64,
                "velocity": 51,
                "duration": 6.354545454545454,
                "tempo": 120.0
            },
            {
                "start_time": 19.195454545454545,
                "end_time": 25.59090909090909,
                "pitch": 64,
                "velocity": 51,
                "duration": 6.395454545454545,
                "tempo": 120.0
            },
            {
                "start_time": 25.659090909090907,
                "end_time": 32.03409090909091,
                "pitch": 66,
                "velocity": 51,
                "duration": 6.375,
                "tempo": 120.0
            },
            {
                "start_time": 32.10227272727273,
                "end_time": 38.56818181818181,
                "pitch": 66,
                "velocity": 51,
                "duration": 6.465909090909086,
                "tempo": 120.0
            },
            {
                "start_time": 38.63409090909091,
                "end_time": 44.99090909090909,
                "pitch": 66,
                "velocity": 51,
                "duration": 6.356818181818184,
                "tempo": 120.0
            },
            {
                "start_time": 45.06136363636364,
                "end_time": 51.418181818181814,
                "pitch": 66,
                "velocity": 51,
                "duration": 6.356818181818177,
                "tempo": 120.0
            }
        ],
        "Vibraphone": [
            {
                "start_time": 141.62272727272727,
                "end_time": 141.95681818181816,
                "pitch": 76,
                "velocity": 51,
                "duration": 0.33409090909088945,
                "tempo": 120.0
            },
            {
                "start_time": 142.02272727272725,
                "end_time": 142.35681818181817,
                "pitch": 72,
                "velocity": 51,
                "duration": 0.3340909090909179,
                "tempo": 120.0
            },
            {
                "start_time": 142.42272727272726,
                "end_time": 142.75681818181818,
                "pitch": 69,
                "velocity": 51,
                "duration": 0.3340909090909179,
                "tempo": 120.0
            },
            {
                "start_time": 142.82272727272726,
                "end_time": 143.15681818181818,
                "pitch": 65,
                "velocity": 51,
                "duration": 0.3340909090909179,
                "tempo": 120.0
            },
            {
                "start_time": 143.22272727272727,
                "end_time": 143.5568181818182,
                "pitch": 76,
                "velocity": 51,
                "duration": 0.3340909090909179,
                "tempo": 120.0
            },
            {
                "start_time": 143.62272727272727,
                "end_time": 143.95681818181816,
                "pitch": 72,
                "velocity": 51,
                "duration": 0.33409090909088945,
                "tempo": 120.0
            },
            {
                "start_time": 144.02272727272725,
                "end_time": 144.35681818181817,
                "pitch": 69,
                "velocity": 51,
                "duration": 0.3340909090909179,
                "tempo": 120.0
            },
            {
                "start_time": 144.42272727272726,
                "end_time": 144.75681818181818,
                "pitch": 65,
                "velocity": 51,
                "duration": 0.3340909090909179,
                "tempo": 120.0
            },
            {
                "start_time": 144.82272727272726,
                "end_time": 145.16136363636363,
                "pitch": 76,
                "velocity": 51,
                "duration": 0.3386363636363683,
                "tempo": 120.0
            },
            {
                "start_time": 145.22954545454544,
                "end_time": 145.5659090909091,
                "pitch": 72,
                "velocity": 51,
                "duration": 0.3363636363636431,
                "tempo": 120.0
            },
            {
                "start_time": 145.6340909090909,
                "end_time": 145.97272727272727,
                "pitch": 69,
                "velocity": 51,
                "duration": 0.3386363636363683,
                "tempo": 120.0
            },
            {
                "start_time": 146.03863636363636,
                "end_time": 146.37727272727273,
                "pitch": 65,
                "velocity": 51,
                "duration": 0.3386363636363683,
                "tempo": 120.0
            },
            {
                "start_time": 146.44545454545454,
                "end_time": 146.77727272727273,
                "pitch": 76,
                "velocity": 51,
                "duration": 0.33181818181819267,
                "tempo": 120.0
            },
            {
                "start_time": 146.84545454545454,
                "end_time": 147.1772727272727,
                "pitch": 72,
                "velocity": 51,
                "duration": 0.33181818181816425,
                "tempo": 120.0
            },
            {
                "start_time": 147.24545454545455,
                "end_time": 147.5772727272727,
                "pitch": 69,
                "velocity": 51,
                "duration": 0.33181818181816425,
                "tempo": 120.0
            },
            {
                "start_time": 147.64545454545453,
                "end_time": 147.97727272727272,
                "pitch": 65,
                "velocity": 51,
                "duration": 0.33181818181819267,
                "tempo": 120.0
            },
            {
                "start_time": 148.04545454545453,
                "end_time": 148.38181818181818,
                "pitch": 76,
                "velocity": 51,
                "duration": 0.3363636363636431,
                "tempo": 120.0
            },
            {
                "start_time": 148.45,
                "end_time": 148.78863636363636,
                "pitch": 72,
                "velocity": 51,
                "duration": 0.3386363636363683,
                "tempo": 120.0
            },
            {
                "start_time": 148.85454545454544,
                "end_time": 149.1931818181818,
                "pitch": 69,
                "velocity": 51,
                "duration": 0.3386363636363683,
                "tempo": 120.0
            },
            {
                "start_time": 149.26136363636363,
                "end_time": 149.59772727272727,
                "pitch": 65,
                "velocity": 51,
                "duration": 0.3363636363636431,
                "tempo": 120.0
            },
            {
                "start_time": 149.66590909090908,
                "end_time": 149.99545454545455,
                "pitch": 76,
                "velocity": 51,
                "duration": 0.32954545454546746,
                "tempo": 120.0
            },
            {
                "start_time": 150.06136363636364,
                "end_time": 150.38863636363635,
                "pitch": 72,
                "velocity": 51,
                "duration": 0.32727272727271384,
                "tempo": 120.0
            },
            {
                "start_time": 150.45454545454544,
                "end_time": 150.7840909090909,
                "pitch": 69,
                "velocity": 51,
                "duration": 0.32954545454546746,
                "tempo": 120.0
            },
            {
                "start_time": 150.85,
                "end_time": 151.17954545454543,
                "pitch": 65,
                "velocity": 51,
                "duration": 0.32954545454543904,
                "tempo": 120.0
            },
            {
                "start_time": 151.24545454545455,
                "end_time": 151.58181818181816,
                "pitch": 76,
                "velocity": 51,
                "duration": 0.33636363636361466,
                "tempo": 120.0
            },
            {
                "start_time": 151.65,
                "end_time": 151.98863636363635,
                "pitch": 72,
                "velocity": 51,
                "duration": 0.33863636363633987,
                "tempo": 120.0
            },
            {
                "start_time": 152.05454545454543,
                "end_time": 152.3931818181818,
                "pitch": 69,
                "velocity": 51,
                "duration": 0.3386363636363683,
                "tempo": 120.0
            },
            {
                "start_time": 152.46136363636364,
                "end_time": 152.79772727272726,
                "pitch": 65,
                "velocity": 51,
                "duration": 0.33636363636361466,
                "tempo": 120.0
            },
            {
                "start_time": 152.86590909090907,
                "end_time": 153.20454545454544,
                "pitch": 76,
                "velocity": 51,
                "duration": 0.3386363636363683,
                "tempo": 120.0
            },
            {
                "start_time": 153.27272727272725,
                "end_time": 153.6090909090909,
                "pitch": 72,
                "velocity": 51,
                "duration": 0.3363636363636431,
                "tempo": 120.0
            },
            {
                "start_time": 153.6772727272727,
                "end_time": 154.01590909090908,
                "pitch": 69,
                "velocity": 51,
                "duration": 0.3386363636363683,
                "tempo": 120.0
            },
            {
                "start_time": 154.08181818181816,
                "end_time": 154.42045454545453,
                "pitch": 65,
                "velocity": 51,
                "duration": 0.3386363636363683,
                "tempo": 120.0
            },
            {
                "start_time": 154.48863636363635,
                "end_time": 154.825,
                "pitch": 74,
                "velocity": 51,
                "duration": 0.3363636363636431,
                "tempo": 120.0
            },
            {
                "start_time": 154.8931818181818,
                "end_time": 155.23181818181817,
                "pitch": 71,
                "velocity": 51,
                "duration": 0.3386363636363683,
                "tempo": 120.0
            },
            {
                "start_time": 155.29772727272726,
                "end_time": 155.63636363636363,
                "pitch": 67,
                "velocity": 51,
                "duration": 0.3386363636363683,
                "tempo": 120.0
            },
            {
                "start_time": 155.70454545454544,
                "end_time": 156.04090909090908,
                "pitch": 64,
                "velocity": 51,
                "duration": 0.3363636363636431,
                "tempo": 120.0
            },
            {
                "start_time": 156.1090909090909,
                "end_time": 156.4431818181818,
                "pitch": 74,
                "velocity": 51,
                "duration": 0.3340909090909179,
                "tempo": 120.0
            },
            {
                "start_time": 156.5090909090909,
                "end_time": 156.84318181818182,
                "pitch": 71,
                "velocity": 51,
                "duration": 0.3340909090909179,
                "tempo": 120.0
            },
            {
                "start_time": 156.9090909090909,
                "end_time": 157.24318181818182,
                "pitch": 67,
                "velocity": 51,
                "duration": 0.3340909090909179,
                "tempo": 120.0
            },
            {
                "start_time": 157.3090909090909,
                "end_time": 157.6431818181818,
                "pitch": 64,
                "velocity": 51,
                "duration": 0.33409090909088945,
                "tempo": 120.0
            },
            {
                "start_time": 157.7090909090909,
                "end_time": 158.0431818181818,
                "pitch": 74,
                "velocity": 51,
                "duration": 0.3340909090909179,
                "tempo": 120.0
            },
            {
                "start_time": 158.1090909090909,
                "end_time": 158.4431818181818,
                "pitch": 71,
                "velocity": 51,
                "duration": 0.3340909090909179,
                "tempo": 120.0
            },
            {
                "start_time": 158.5090909090909,
                "end_time": 158.84318181818182,
                "pitch": 67,
                "velocity": 51,
                "duration": 0.3340909090909179,
                "tempo": 120.0
            },
            {
                "start_time": 158.9090909090909,
                "end_time": 159.24318181818182,
                "pitch": 64,
                "velocity": 51,
                "duration": 0.3340909090909179,
                "tempo": 120.0
            },
            {
                "start_time": 159.3090909090909,
                "end_time": 159.6431818181818,
                "pitch": 74,
                "velocity": 51,
                "duration": 0.33409090909088945,
                "tempo": 120.0
            },
            {
                "start_time": 159.7090909090909,
                "end_time": 160.0431818181818,
                "pitch": 71,
                "velocity": 51,
                "duration": 0.3340909090909179,
                "tempo": 120.0
            },
            {
                "start_time": 160.1090909090909,
                "end_time": 160.4431818181818,
                "pitch": 67,
                "velocity": 51,
                "duration": 0.3340909090909179,
                "tempo": 120.0
            },
            {
                "start_time": 160.5090909090909,
                "end_time": 160.84318181818182,
                "pitch": 64,
                "velocity": 51,
                "duration": 0.3340909090909179,
                "tempo": 120.0
            },
            {
                "start_time": 160.9090909090909,
                "end_time": 161.24772727272727,
                "pitch": 74,
                "velocity": 51,
                "duration": 0.3386363636363683,
                "tempo": 120.0
            },
            {
                "start_time": 161.31363636363636,
                "end_time": 161.65227272727273,
                "pitch": 71,
                "velocity": 51,
                "duration": 0.3386363636363683,
                "tempo": 120.0
            },
            {
                "start_time": 161.72045454545454,
                "end_time": 162.0568181818182,
                "pitch": 67,
                "velocity": 51,
                "duration": 0.3363636363636431,
                "tempo": 120.0
            },
            {
                "start_time": 162.125,
                "end_time": 162.46363636363637,
                "pitch": 64,
                "velocity": 51,
                "duration": 0.3386363636363683,
                "tempo": 120.0
            },
            {
                "start_time": 162.53181818181818,
                "end_time": 162.86363636363635,
                "pitch": 74,
                "velocity": 51,
                "duration": 0.33181818181816425,
                "tempo": 120.0
            },
            {
                "start_time": 162.9318181818182,
                "end_time": 163.26363636363635,
                "pitch": 71,
                "velocity": 51,
                "duration": 0.33181818181816425,
                "tempo": 120.0
            },
            {
                "start_time": 163.33181818181816,
                "end_time": 163.66363636363636,
                "pitch": 67,
                "velocity": 51,
                "duration": 0.33181818181819267,
                "tempo": 120.0
            },
            {
                "start_time": 163.73181818181817,
                "end_time": 164.06363636363636,
                "pitch": 64,
                "velocity": 51,
                "duration": 0.33181818181819267,
                "tempo": 120.0
            },
            {
                "start_time": 164.13181818181818,
                "end_time": 164.46363636363637,
                "pitch": 74,
                "velocity": 51,
                "duration": 0.33181818181819267,
                "tempo": 120.0
            },
            {
                "start_time": 164.53181818181818,
                "end_time": 164.86363636363635,
                "pitch": 71,
                "velocity": 51,
                "duration": 0.33181818181816425,
                "tempo": 120.0
            },
            {
                "start_time": 164.9318181818182,
                "end_time": 165.26363636363635,
                "pitch": 67,
                "velocity": 51,
                "duration": 0.33181818181816425,
                "tempo": 120.0
            },
            {
                "start_time": 165.33181818181816,
                "end_time": 165.66363636363636,
                "pitch": 64,
                "velocity": 51,
                "duration": 0.33181818181819267,
                "tempo": 120.0
            },
            {
                "start_time": 165.73181818181817,
                "end_time": 166.06363636363636,
                "pitch": 74,
                "velocity": 51,
                "duration": 0.33181818181819267,
                "tempo": 120.0
            },
            {
                "start_time": 166.13181818181818,
                "end_time": 166.46363636363637,
                "pitch": 71,
                "velocity": 51,
                "duration": 0.33181818181819267,
                "tempo": 120.0
            },
            {
                "start_time": 166.53181818181818,
                "end_time": 166.86363636363635,
                "pitch": 67,
                "velocity": 51,
                "duration": 0.33181818181816425,
                "tempo": 120.0
            },
            {
                "start_time": 166.9318181818182,
                "end_time": 167.26363636363635,
                "pitch": 64,
                "velocity": 51,
                "duration": 0.33181818181816425,
                "tempo": 120.0
            },
            {
                "start_time": 167.33181818181816,
                "end_time": 167.6681818181818,
                "pitch": 76,
                "velocity": 51,
                "duration": 0.3363636363636431,
                "tempo": 120.0
            },
            {
                "start_time": 167.73636363636362,
                "end_time": 168.07272727272726,
                "pitch": 72,
                "velocity": 51,
                "duration": 0.3363636363636431,
                "tempo": 120.0
            },
            {
                "start_time": 168.14090909090908,
                "end_time": 168.47954545454544,
                "pitch": 69,
                "velocity": 51,
                "duration": 0.3386363636363683,
                "tempo": 120.0
            },
            {
                "start_time": 168.54772727272726,
                "end_time": 168.8840909090909,
                "pitch": 65,
                "velocity": 51,
                "duration": 0.3363636363636431,
                "tempo": 120.0
            },
            {
                "start_time": 168.9522727272727,
                "end_time": 169.27954545454546,
                "pitch": 76,
                "velocity": 51,
                "duration": 0.32727272727274226,
                "tempo": 120.0
            },
            {
                "start_time": 169.34545454545454,
                "end_time": 169.67499999999998,
                "pitch": 72,
                "velocity": 51,
                "duration": 0.32954545454543904,
                "tempo": 120.0
            },
            {
                "start_time": 169.74090909090907,
                "end_time": 170.07045454545454,
                "pitch": 69,
                "velocity": 51,
                "duration": 0.32954545454546746,
                "tempo": 120.0
            },
            {
                "start_time": 170.13636363636363,
                "end_time": 170.4659090909091,
                "pitch": 65,
                "velocity": 51,
                "duration": 0.32954545454546746,
                "tempo": 120.0
            },
            {
                "start_time": 170.52954545454546,
                "end_time": 170.8681818181818,
                "pitch": 76,
                "velocity": 51,
                "duration": 0.33863636363633987,
                "tempo": 120.0
            },
            {
                "start_time": 170.93636363636364,
                "end_time": 171.27272727272725,
                "pitch": 72,
                "velocity": 51,
                "duration": 0.33636363636361466,
                "tempo": 120.0
            },
            {
                "start_time": 171.3409090909091,
                "end_time": 171.67954545454543,
                "pitch": 69,
                "velocity": 51,
                "duration": 0.33863636363633987,
                "tempo": 120.0
            },
            {
                "start_time": 171.74772727272727,
                "end_time": 172.0840909090909,
                "pitch": 65,
                "velocity": 51,
                "duration": 0.33636363636361466,
                "tempo": 120.0
            },
            {
                "start_time": 172.15227272727273,
                "end_time": 172.48636363636362,
                "pitch": 76,
                "velocity": 51,
                "duration": 0.33409090909088945,
                "tempo": 120.0
            },
            {
                "start_time": 172.5522727272727,
                "end_time": 172.88636363636363,
                "pitch": 72,
                "velocity": 51,
                "duration": 0.3340909090909179,
                "tempo": 120.0
            },
            {
                "start_time": 172.9522727272727,
                "end_time": 173.28636363636363,
                "pitch": 69,
                "velocity": 51,
                "duration": 0.3340909090909179,
                "tempo": 120.0
            },
            {
                "start_time": 173.35227272727272,
                "end_time": 173.68636363636364,
                "pitch": 65,
                "velocity": 51,
                "duration": 0.3340909090909179,
                "tempo": 120.0
            },
            {
                "start_time": 173.75227272727273,
                "end_time": 174.0909090909091,
                "pitch": 76,
                "velocity": 51,
                "duration": 0.3386363636363683,
                "tempo": 120.0
            },
            {
                "start_time": 174.15681818181818,
                "end_time": 174.49545454545455,
                "pitch": 72,
                "velocity": 51,
                "duration": 0.3386363636363683,
                "tempo": 120.0
            },
            {
                "start_time": 174.56363636363636,
                "end_time": 174.9,
                "pitch": 69,
                "velocity": 51,
                "duration": 0.3363636363636431,
                "tempo": 120.0
            },
            {
                "start_time": 174.96818181818182,
                "end_time": 175.3068181818182,
                "pitch": 65,
                "velocity": 51,
                "duration": 0.3386363636363683,
                "tempo": 120.0
            },
            {
                "start_time": 175.37272727272727,
                "end_time": 175.7022727272727,
                "pitch": 76,
                "velocity": 51,
                "duration": 0.32954545454543904,
                "tempo": 120.0
            },
            {
                "start_time": 175.7681818181818,
                "end_time": 176.09772727272727,
                "pitch": 72,
                "velocity": 51,
                "duration": 0.32954545454546746,
                "tempo": 120.0
            },
            {
                "start_time": 176.16136363636363,
                "end_time": 176.49090909090907,
                "pitch": 69,
                "velocity": 51,
                "duration": 0.32954545454543904,
                "tempo": 120.0
            },
            {
                "start_time": 176.5568181818182,
                "end_time": 176.88636363636363,
                "pitch": 65,
                "velocity": 51,
                "duration": 0.32954545454543904,
                "tempo": 120.0
            },
            {
                "start_time": 176.9522727272727,
                "end_time": 177.29090909090908,
                "pitch": 76,
                "velocity": 51,
                "duration": 0.3386363636363683,
                "tempo": 120.0
            },
            {
                "start_time": 177.35681818181817,
                "end_time": 177.69545454545454,
                "pitch": 72,
                "velocity": 51,
                "duration": 0.3386363636363683,
                "tempo": 120.0
            },
            {
                "start_time": 177.76363636363635,
                "end_time": 178.1,
                "pitch": 69,
                "velocity": 51,
                "duration": 0.3363636363636431,
                "tempo": 120.0
            },
            {
                "start_time": 178.1681818181818,
                "end_time": 178.50681818181818,
                "pitch": 65,
                "velocity": 51,
                "duration": 0.3386363636363683,
                "tempo": 120.0
            },
            {
                "start_time": 178.57272727272726,
                "end_time": 178.90681818181818,
                "pitch": 76,
                "velocity": 51,
                "duration": 0.3340909090909179,
                "tempo": 120.0
            },
            {
                "start_time": 178.97272727272727,
                "end_time": 179.3068181818182,
                "pitch": 72,
                "velocity": 51,
                "duration": 0.3340909090909179,
                "tempo": 120.0
            },
            {
                "start_time": 179.37272727272727,
                "end_time": 179.70681818181816,
                "pitch": 69,
                "velocity": 51,
                "duration": 0.33409090909088945,
                "tempo": 120.0
            }
        ]
    }
}